<?xml version="1.0" encoding="UTF-8"?>
<!DOCTYPE svg PUBLIC "-//W3C//DTD SVG 1.1//EN" "http://www.w3.org/Graphics/SVG/1.1/DTD/svg11.dtd">
<svg version="1.1" xmlns="http://www.w3.org/2000/svg" xmlns:xlink="http://www.w3.org/1999/xlink" x="0" y="0" width="328" height="347" viewBox="0, 0, 328, 347">
  <g id="Background">
    <rect x="0" y="0" width="328" height="347" fill="#000000" fill-opacity="0"/>
  </g>
  <defs>
    <clipPath id="Clip_1">
      <path d="M169,65.293 L176,65.293 L176,73 L169,73 z M169,65.293"/>
    </clipPath>
    <clipPath id="Clip_2">
      <path d="M175,69 L179.074,69 L179.074,74.684 L175,74.684 z M175,69"/>
    </clipPath>
    <clipPath id="Clip_3">
      <path d="M90.066,21 L106.766,21 L106.766,31.262 L90.066,31.262 z M90.066,21"/>
    </clipPath>
    <clipPath id="Clip_4">
      <path d="M90,20 L107,20 L107,32 L90,32 z"/>
    </clipPath>
  </defs>
  <g id="surface1993">
    <path d="M107.547,256.102 L97.762,261.754 L-0.367,318.406" fill-opacity="0" stroke="#666666" stroke-width="0.522" stroke-dasharray="3.131,2.609" stroke-linecap="square" stroke-linejoin="round"/>
    <path d="M327.625,129.043 L206.887,198.75 L195.668,205.227" fill-opacity="0" stroke="#666666" stroke-width="0.522" stroke-dasharray="3.131,2.609" stroke-linecap="square" stroke-linejoin="round"/>
    <g clip-path="url(#Clip_1)">
      <path d="M175.289,71.062 C175.289,70.918 175.133,70.918 175.039,70.918 C174.926,70.918 174.883,70.918 174.832,70.969 C174.812,70.992 174.812,71.012 174.75,71.273 C174.539,72.105 174.301,72.312 174.043,72.312 C173.926,72.312 173.801,72.27 173.801,71.926 C173.801,71.77 173.824,71.625 173.863,71.48 L175.301,65.75 C175.34,65.605 175.34,65.574 175.34,65.574 C175.34,65.441 175.227,65.387 175.113,65.387 C175.07,65.387 175.062,65.387 175.039,65.398 L173.699,65.461 C173.555,65.473 173.367,65.48 173.367,65.773 C173.367,65.961 173.555,65.961 173.637,65.961 C173.75,65.961 173.938,65.961 174.074,65.98 L173.512,68.277 C173.355,68.133 173.012,67.902 172.461,67.902 C170.652,67.902 169.531,69.547 169.531,70.969 C169.531,72.25 170.484,72.688 171.348,72.688 C172.086,72.688 172.629,72.281 172.793,72.125 C173.188,72.688 173.875,72.688 173.988,72.688 C174.375,72.688 174.676,72.469 174.895,72.094 C175.152,71.676 175.289,71.117 175.289,71.062 z M172.691,71.637 C172.391,71.988 171.898,72.312 171.402,72.312 C170.758,72.312 170.703,71.75 170.703,71.523 C170.703,70.98 171.059,69.703 171.223,69.297 C171.547,68.539 172.055,68.277 172.48,68.277 C173.094,68.277 173.344,68.766 173.344,68.883 L173.324,69.027 z M172.691,71.637" fill="#000000"/>
    </g>
    <g clip-path="url(#Clip_2)">
      <path d="M179.074,72.836 L178.828,72.836 C178.805,72.996 178.734,73.426 178.641,73.5 C178.582,73.543 178.02,73.543 177.918,73.543 L176.578,73.543 C177.344,72.867 177.598,72.664 178.035,72.32 C178.574,71.891 179.074,71.441 179.074,70.75 C179.074,69.867 178.305,69.328 177.371,69.328 C176.469,69.328 175.859,69.961 175.859,70.633 C175.859,71.004 176.172,71.039 176.246,71.039 C176.418,71.039 176.629,70.918 176.629,70.652 C176.629,70.523 176.578,70.27 176.199,70.27 C176.426,69.75 176.922,69.59 177.262,69.59 C177.992,69.59 178.371,70.16 178.371,70.75 C178.371,71.383 177.918,71.883 177.684,72.145 L175.93,73.879 C175.859,73.945 175.859,73.957 175.859,74.16 L178.855,74.16 z M179.074,72.836" fill="#000000"/>
    </g>
    <path d="M153.281,33.211 C153.281,33.066 153.125,33.066 153.031,33.066 C152.918,33.066 152.875,33.066 152.824,33.117 C152.805,33.137 152.805,33.16 152.742,33.418 C152.531,34.25 152.293,34.457 152.035,34.457 C151.918,34.457 151.793,34.418 151.793,34.074 C151.793,33.918 151.816,33.773 151.855,33.625 L153.293,27.898 C153.332,27.754 153.332,27.723 153.332,27.723 C153.332,27.586 153.219,27.535 153.105,27.535 C153.062,27.535 153.051,27.535 153.031,27.547 L151.691,27.609 C151.543,27.617 151.359,27.629 151.359,27.918 C151.359,28.105 151.543,28.105 151.629,28.105 C151.742,28.105 151.93,28.105 152.066,28.129 L151.504,30.426 C151.348,30.281 151.004,30.051 150.453,30.051 C148.645,30.051 147.523,31.691 147.523,33.117 C147.523,34.395 148.477,34.832 149.34,34.832 C150.078,34.832 150.621,34.426 150.785,34.273 C151.18,34.832 151.867,34.832 151.98,34.832 C152.367,34.832 152.668,34.613 152.887,34.242 C153.145,33.824 153.281,33.262 153.281,33.211 z M150.684,33.781 C150.379,34.137 149.891,34.457 149.395,34.457 C148.75,34.457 148.695,33.898 148.695,33.668 C148.695,33.129 149.051,31.848 149.215,31.445 C149.539,30.684 150.047,30.426 150.473,30.426 C151.086,30.426 151.336,30.914 151.336,31.027 L151.316,31.172 z M150.684,33.781" fill="#000000"/>
    <path d="M156.836,36.309 L156.836,36.047 L156.559,36.047 C155.828,36.047 155.828,35.953 155.828,35.711 L155.828,31.68 C155.828,31.484 155.816,31.477 155.613,31.477 C155.145,31.934 154.484,31.941 154.184,31.941 L154.184,32.203 C154.359,32.203 154.84,32.203 155.242,32 L155.242,35.711 C155.242,35.953 155.242,36.047 154.512,36.047 L154.234,36.047 L154.234,36.309 L155.531,36.281 z M156.836,36.309" fill="#000000"/>
    <path d="M196.707,262.949 C196.707,262.848 196.613,262.848 196.582,262.848 C196.48,262.848 196.469,262.887 196.438,263.035 C196.262,263.711 196.074,264.324 195.648,264.324 C195.367,264.324 195.336,264.051 195.336,263.844 C195.336,263.617 195.355,263.531 195.469,263.074 L195.699,262.141 L196.074,260.684 C196.145,260.395 196.145,260.371 196.145,260.332 C196.145,260.152 196.02,260.051 195.844,260.051 C195.594,260.051 195.438,260.277 195.406,260.508 C195.223,260.121 194.918,259.844 194.453,259.844 C193.234,259.844 191.945,261.371 191.945,262.887 C191.945,263.867 192.52,264.551 193.328,264.551 C193.535,264.551 194.055,264.512 194.68,263.773 C194.762,264.207 195.129,264.551 195.625,264.551 C195.992,264.551 196.23,264.312 196.395,263.98 C196.574,263.605 196.707,262.949 196.707,262.949 z M195.254,261.164 L194.73,263.199 C194.68,263.387 194.68,263.406 194.523,263.586 C194.066,264.156 193.641,264.324 193.352,264.324 C192.828,264.324 192.684,263.75 192.684,263.348 C192.684,262.824 193.016,261.547 193.258,261.07 C193.578,260.457 194.047,260.07 194.461,260.07 C195.137,260.07 195.285,260.922 195.285,260.984 C195.285,261.047 195.262,261.109 195.254,261.164 z M195.254,261.164" fill="#000000"/>
    <path d="M168.699,9.363 C168.699,9.32 168.668,9.25 168.574,9.25 C168.48,9.25 168.473,9.301 168.398,9.465 C168.043,10.422 167.586,11.609 165.789,11.609 L164.812,11.609 C164.668,11.609 164.645,11.609 164.582,11.598 C164.48,11.586 164.449,11.578 164.449,11.492 C164.449,11.461 164.449,11.441 164.5,11.254 L165.902,5.641 C165.996,5.266 166.027,5.152 167.004,5.152 C167.316,5.152 167.398,5.152 167.398,4.953 C167.398,4.828 167.285,4.828 167.234,4.828 L165.695,4.859 L164.312,4.828 C164.238,4.828 164.113,4.828 164.113,5.039 C164.113,5.152 164.207,5.152 164.406,5.152 C164.406,5.152 164.625,5.152 164.801,5.172 C164.988,5.195 165.082,5.203 165.082,5.34 C165.082,5.379 165.07,5.41 165.039,5.535 L163.648,11.121 C163.543,11.523 163.523,11.609 162.699,11.609 C162.523,11.609 162.422,11.609 162.422,11.816 C162.422,11.93 162.516,11.93 162.699,11.93 L167.516,11.93 C167.766,11.93 167.773,11.93 167.836,11.754 L168.66,9.508 C168.699,9.395 168.699,9.363 168.699,9.363 z M168.699,9.363" fill="#000000"/>
    <path d="M217.82,175.922 C217.82,175.672 217.602,175.797 217.402,175.91 L213.922,177.922 C213.691,178.055 213.297,178.281 212.84,179.035 C212.477,179.648 212.207,180.285 212.207,180.336 C212.207,180.336 212.207,180.441 212.328,180.367 C212.414,180.32 212.434,180.266 212.496,180.148 C213.004,179.055 213.609,178.703 213.816,178.586 L214.41,178.242 C214.078,179.691 213.516,181.273 213.078,182.473 C212.996,182.676 212.996,182.699 212.996,182.77 C212.996,182.969 213.16,182.953 213.297,182.879 C213.609,182.695 213.691,182.359 213.816,181.902 C213.961,181.34 213.961,181.316 214.098,180.719 L214.68,178.086 L215.855,177.41 C215.512,179.145 215.418,179.645 215.418,180.344 C215.418,180.5 215.418,180.777 215.5,181.086 C215.605,181.48 215.719,181.477 215.875,181.387 C216.082,181.27 216.301,180.957 216.301,180.746 C216.301,180.684 216.301,180.664 216.238,180.555 C215.938,179.98 215.938,179.305 215.938,179.012 C215.938,178.461 216.012,177.859 216.125,177.254 L217.309,176.566 C217.445,176.488 217.82,176.273 217.82,175.922 z M222.84,169.664 C222.84,169.664 222.84,169.715 222.789,169.879 L219.234,181.684 C219.172,181.898 219.141,181.988 219.004,182.066 C218.891,182.133 218.797,182.094 218.797,181.98 C218.797,181.98 218.797,181.926 218.848,181.762 L222.457,169.77 C222.488,169.691 222.559,169.617 222.633,169.574 C222.746,169.508 222.84,169.551 222.84,169.664 z M228.172,172.398 C228.172,173.457 227.227,174.949 225.957,175.68 C224.824,176.336 223.859,176.207 223.859,175.262 C223.859,174.805 224.191,174.465 224.441,174.324 C224.742,174.148 225.023,174.195 225.023,174.57 C225.023,174.965 224.699,175.379 224.336,175.535 C224.699,175.941 225.48,175.668 225.926,175.41 C226.383,175.145 227.102,174.43 227.102,173.016 C227.102,171.996 226.715,171.512 225.863,172.004 L225.406,172.266 C225.23,172.371 225.156,172.41 225.156,172.297 C225.156,172.191 225.23,172.141 225.312,172.082 C225.387,172.039 225.637,171.875 225.719,171.816 C225.977,171.656 226.332,171.422 226.645,170.742 C226.914,170.129 226.934,169.516 226.934,169.391 C226.934,168.453 226.363,168.555 225.938,168.801 C225.562,169.016 224.875,169.547 224.555,170.242 C224.711,170.152 225.199,169.871 225.199,170.391 C225.199,170.691 224.992,171.043 224.668,171.227 C224.367,171.402 224.137,171.336 224.137,170.992 C224.137,170.203 224.93,169.125 225.977,168.516 C226.977,167.941 227.891,167.996 227.891,168.848 C227.891,169.668 227.289,170.746 226.438,171.516 C227.516,171.109 228.172,171.543 228.172,172.398 z M228.172,172.398" fill="#000000"/>
    <path d="M75.402,258.586 C75.402,258.336 75.184,258.461 74.988,258.574 L71.504,260.586 C71.273,260.719 70.879,260.945 70.422,261.699 C70.059,262.316 69.789,262.949 69.789,263 C69.789,263 69.789,263.105 69.914,263.035 C69.996,262.984 70.016,262.934 70.078,262.812 C70.59,261.719 71.191,261.371 71.398,261.25 L71.992,260.906 C71.66,262.359 71.098,263.941 70.66,265.137 C70.578,265.344 70.578,265.363 70.578,265.434 C70.578,265.633 70.746,265.621 70.879,265.543 C71.191,265.363 71.273,265.023 71.398,264.566 C71.547,264.004 71.547,263.984 71.68,263.387 L72.262,260.75 L73.438,260.074 C73.094,261.809 73,262.312 73,263.008 C73,263.164 73,263.445 73.086,263.75 C73.188,264.148 73.301,264.145 73.457,264.055 C73.668,263.934 73.883,263.621 73.883,263.414 C73.883,263.352 73.883,263.328 73.824,263.219 C73.52,262.645 73.52,261.969 73.52,261.68 C73.52,261.129 73.594,260.523 73.707,259.918 L74.895,259.234 C75.027,259.156 75.402,258.938 75.402,258.586 z M80.426,252.328 C80.426,252.328 80.426,252.379 80.371,252.547 L76.816,264.352 C76.754,264.562 76.723,264.652 76.586,264.73 C76.473,264.797 76.379,264.758 76.379,264.645 C76.379,264.645 76.379,264.59 76.434,264.426 L80.039,252.438 C80.07,252.355 80.145,252.281 80.215,252.242 C80.332,252.176 80.426,252.215 80.426,252.328 z M85.754,255.062 C85.754,256.121 84.809,257.613 83.543,258.348 C82.406,259 81.441,258.871 81.441,257.926 C81.441,257.469 81.773,257.133 82.023,256.988 C82.324,256.812 82.605,256.859 82.605,257.234 C82.605,257.629 82.285,258.043 81.918,258.203 C82.285,258.605 83.062,258.332 83.512,258.074 C83.969,257.809 84.684,257.094 84.684,255.68 C84.684,254.66 84.301,254.176 83.449,254.668 L82.988,254.934 C82.812,255.035 82.742,255.078 82.742,254.961 C82.742,254.859 82.812,254.805 82.898,254.746 C82.969,254.707 83.219,254.539 83.301,254.48 C83.562,254.32 83.914,254.086 84.227,253.406 C84.496,252.793 84.52,252.18 84.52,252.055 C84.52,251.117 83.945,251.219 83.52,251.465 C83.145,251.684 82.461,252.215 82.137,252.91 C82.293,252.82 82.781,252.535 82.781,253.055 C82.781,253.359 82.574,253.707 82.254,253.895 C81.949,254.066 81.723,254 81.723,253.66 C81.723,252.867 82.512,251.789 83.562,251.184 C84.559,250.605 85.477,250.66 85.477,251.512 C85.477,252.332 84.871,253.41 84.02,254.184 C85.102,253.777 85.754,254.211 85.754,255.062 z M85.754,255.062" fill="#000000"/>
    <path d="M158.496,207.441 C158.496,207.391 158.457,207.34 158.371,207.34 C158.277,207.34 158.258,207.402 158.227,207.473 C157.988,208.148 157.32,208.348 156.98,208.348 C156.77,208.348 156.582,208.285 156.367,208.211 C156.012,208.078 155.855,208.035 155.637,208.035 C155.637,208.035 155.449,208.035 155.355,208.066 C155.918,207.461 156.219,207.203 156.594,206.879 C156.594,206.879 157.238,206.32 157.613,205.945 C158.602,204.977 158.828,204.48 158.828,204.438 C158.828,204.332 158.715,204.332 158.715,204.332 C158.641,204.332 158.609,204.355 158.559,204.449 C158.246,204.945 158.027,205.113 157.781,205.113 C157.531,205.113 157.406,204.957 157.25,204.781 C157.051,204.543 156.875,204.332 156.531,204.332 C155.754,204.332 155.273,205.301 155.273,205.52 C155.273,205.57 155.305,205.633 155.398,205.633 C155.492,205.633 155.512,205.582 155.535,205.52 C155.73,205.039 156.336,205.031 156.418,205.031 C156.637,205.031 156.832,205.102 157.074,205.188 C157.488,205.344 157.602,205.344 157.875,205.344 C157.5,205.789 156.625,206.539 156.43,206.703 L155.492,207.578 C154.785,208.273 154.422,208.867 154.422,208.938 C154.422,209.043 154.547,209.043 154.547,209.043 C154.629,209.043 154.648,209.023 154.711,208.906 C154.953,208.543 155.266,208.262 155.598,208.262 C155.836,208.262 155.938,208.355 156.199,208.66 C156.375,208.875 156.562,209.043 156.863,209.043 C157.895,209.043 158.496,207.723 158.496,207.441 z M158.496,207.441" fill="#000000"/>
    <path d="M131.066,226.695 C131.109,226.551 131.109,226.527 131.109,226.457 C131.109,226.27 130.965,226.176 130.809,226.176 C130.703,226.176 130.539,226.238 130.445,226.395 C130.422,226.445 130.34,226.77 130.301,226.957 L130.09,227.785 L129.625,229.656 C129.582,229.812 129.133,230.543 128.449,230.543 C127.918,230.543 127.805,230.086 127.805,229.699 C127.805,229.223 127.98,228.578 128.332,227.66 C128.5,227.234 128.543,227.121 128.543,226.914 C128.543,226.445 128.211,226.062 127.691,226.062 C126.703,226.062 126.316,227.57 126.316,227.66 C126.316,227.766 126.441,227.766 126.441,227.766 C126.547,227.766 126.555,227.746 126.609,227.578 C126.891,226.602 127.305,226.289 127.66,226.289 C127.742,226.289 127.918,226.289 127.918,226.621 C127.918,226.883 127.812,227.152 127.742,227.352 C127.324,228.453 127.137,229.043 127.137,229.535 C127.137,230.457 127.793,230.77 128.406,230.77 C128.812,230.77 129.164,230.594 129.457,230.305 C129.32,230.844 129.195,231.352 128.781,231.902 C128.512,232.258 128.117,232.559 127.637,232.559 C127.492,232.559 127.023,232.527 126.848,232.121 C127.016,232.121 127.148,232.121 127.293,231.996 C127.398,231.902 127.504,231.77 127.504,231.57 C127.504,231.25 127.223,231.207 127.117,231.207 C126.879,231.207 126.535,231.375 126.535,231.883 C126.535,232.402 126.992,232.789 127.637,232.789 C128.707,232.789 129.777,231.84 130.07,230.668 z M131.066,226.695" fill="#000000"/>
    <path d="M176.152,217.816 C176.152,217.715 176.059,217.715 176.027,217.715 C175.934,217.715 175.914,217.754 175.895,217.828 C175.551,218.941 174.844,219.191 174.512,219.191 C174.105,219.191 173.938,218.859 173.938,218.504 C173.938,218.277 174,218.047 174.113,217.59 L174.469,216.164 C174.531,215.895 174.77,214.938 175.496,214.938 C175.551,214.938 175.801,214.938 176.016,215.074 C175.727,215.125 175.52,215.387 175.52,215.637 C175.52,215.801 175.633,216 175.914,216 C176.141,216 176.477,215.812 176.477,215.395 C176.477,214.855 175.863,214.711 175.508,214.711 C174.906,214.711 174.543,215.262 174.418,215.5 C174.156,214.812 173.594,214.711 173.293,214.711 C172.211,214.711 171.621,216.051 171.621,216.312 C171.621,216.414 171.746,216.414 171.746,216.414 C171.828,216.414 171.859,216.395 171.879,216.301 C172.234,215.199 172.918,214.938 173.273,214.938 C173.469,214.938 173.836,215.031 173.836,215.637 C173.836,215.957 173.656,216.652 173.273,218.109 C173.105,218.754 172.742,219.191 172.285,219.191 C172.223,219.191 171.984,219.191 171.766,219.055 C172.023,219.004 172.254,218.785 172.254,218.492 C172.254,218.215 172.023,218.129 171.871,218.129 C171.559,218.129 171.297,218.398 171.297,218.734 C171.297,219.211 171.816,219.418 172.273,219.418 C172.961,219.418 173.336,218.691 173.367,218.629 C173.492,219.012 173.867,219.418 174.488,219.418 C175.559,219.418 176.152,218.078 176.152,217.816 z M176.152,217.816" fill="#000000"/>
    <path d="M151.094,281.41 L151.094,276.887" fill-opacity="0" stroke="#666666" stroke-width="0.261" stroke-linecap="round" stroke-linejoin="round"/>
    <path d="M236.715,232.617 L192.469,207.074" fill-opacity="0" stroke="#666666" stroke-width="0.261" stroke-linecap="round" stroke-linejoin="round"/>
    <path d="M153.574,280.734 L109.328,255.188" fill-opacity="0" stroke="#666666" stroke-width="0.261" stroke-linecap="round" stroke-linejoin="round"/>
    <path d="M148.691,280.734 L236.879,229.598" fill-opacity="0" stroke="#666666" stroke-width="0.261"/>
    <path d="M234.23,233.492 L234.23,228.969" fill-opacity="0" stroke="#666666" stroke-width="0.261" stroke-linecap="round" stroke-linejoin="round"/>
    <g clip-path="url(#Clip_4)" id="surface1998">
      <g clip-path="url(#Clip_3)">
        <path d="M91.402,22.512 C96.379,25.387 101.352,28.258 106.328,31.129 C106.301,28.57 105.945,26.121 105.242,23.66 C100.227,22.957 95.211,22.254 90.195,21.555" fill="#B8B8B8"/>
      </g>
    </g>
    <path d="M89.824,20.926 L86.062,7.289" fill-opacity="0" stroke="#000000" stroke-width="0.783" stroke-linecap="round" stroke-linejoin="round"/>
    <path d="M88.324,6.664 L84.398,1.254 L83.801,7.914 M86.062,7.289 L84.398,1.254" fill-opacity="0" stroke="#000000" stroke-width="0.783"/>
    <path d="M102.48,14.852 L102.781,14.676" fill-opacity="0" stroke="#000000" stroke-width="0.522" stroke-linecap="round" stroke-linejoin="round"/>
    <path d="M103.566,16.031 L106.398,12.59 L102,13.32 M102.781,14.676 L106.398,12.59" fill-opacity="0" stroke="#000000" stroke-width="0.522"/>
    <path d="M98.789,23.207 L90.715,22.074" fill-opacity="0" stroke="#6887FF" stroke-width="0.783" stroke-linecap="round" stroke-linejoin="round"/>
    <path d="M98.465,25.531 L104.992,24.074 L99.117,20.879 M98.789,23.207 L104.992,24.074" fill-opacity="0" stroke="#6887FF" stroke-width="0.783"/>
    <path d="M201.121,185.641 C207.43,186.207 209.488,192.219 209.488,197.543" fill-opacity="0" stroke="#666666" stroke-width="0.522" stroke-linecap="round" stroke-linejoin="round"/>
    <path d="M194.828,207.391 L200.23,207.871" fill-opacity="0" stroke="#000000" stroke-width="0.783" stroke-linecap="round" stroke-linejoin="round"/>
    <path d="M200.02,210.211 L206.465,208.43 L200.438,205.535 M200.23,207.871 L206.465,208.43" fill-opacity="0" stroke="#000000" stroke-width="0.783"/>
    <path d="M193.59,207.688 L203.387,213.344" fill-opacity="0" stroke="#6887FF" stroke-width="0.783" stroke-linecap="round" stroke-linejoin="round"/>
    <path d="M202.211,215.379 L208.809,216.473 L204.559,211.309 M203.387,213.344 L208.809,216.473" fill-opacity="0" stroke="#6887FF" stroke-width="0.783"/>
    <path d="M100.828,243.211 C96.219,248.945 92.461,257.148 92.461,264.773" fill-opacity="0" stroke="#666666" stroke-width="0.522" stroke-linecap="round" stroke-linejoin="round"/>
    <path d="M110.098,255.598 L119.895,261.254" fill-opacity="0" stroke="#6887FF" stroke-width="0.783" stroke-linecap="round" stroke-linejoin="round"/>
    <path d="M118.723,263.285 L125.316,264.383 L121.07,259.219 M119.895,261.254 L125.316,264.383" fill-opacity="0" stroke="#6887FF" stroke-width="0.783"/>
    <path d="M108.176,256.465 L99.184,267.652" fill-opacity="0" stroke="#000000" stroke-width="0.783" stroke-linecap="round" stroke-linejoin="round"/>
    <path d="M97.352,266.18 L95.262,272.531 L101.012,269.121 M99.184,267.652 L95.262,272.531" fill-opacity="0" stroke="#000000" stroke-width="0.783"/>
    <path d="M151.094,230.961 L138.426,223.648" fill-opacity="0" stroke="#000000" stroke-width="0.783" stroke-linecap="round" stroke-linejoin="round"/>
    <g>
      <path d="M138.426,223.648 L140.957,222.398 L134.359,221.301 L138.609,226.465 z M138.426,223.648" fill="#000000"/>
      <path d="M138.426,223.648 L140.957,222.398 L134.359,221.301 L138.609,226.465 z M138.426,223.648" fill-opacity="0" stroke="#000000" stroke-width="0.783"/>
    </g>
    <path d="M151.094,230.961 L151.094,216.336" fill-opacity="0" stroke="#000000" stroke-width="0.783" stroke-linecap="round" stroke-linejoin="round"/>
    <g>
      <path d="M151.094,216.336 L153.441,217.902 L151.094,211.641 L148.746,217.902 z M151.094,216.336" fill="#000000"/>
      <path d="M151.094,216.336 L153.441,217.902 L151.094,211.641 L148.746,217.902 z M151.094,216.336" fill-opacity="0" stroke="#000000" stroke-width="0.783"/>
    </g>
    <path d="M151.094,230.961 L163.762,223.648" fill-opacity="0" stroke="#000000" stroke-width="0.783" stroke-linecap="round" stroke-linejoin="round"/>
    <g>
      <path d="M163.762,223.648 L163.582,226.465 L167.828,221.301 L161.234,222.398 z M163.762,223.648" fill="#000000"/>
      <path d="M163.762,223.648 L163.582,226.465 L167.828,221.301 L161.234,222.398 z M163.762,223.648" fill-opacity="0" stroke="#000000" stroke-width="0.783"/>
    </g>
    <path d="M134.363,221.301 L90.117,195.758" fill-opacity="0" stroke="#666666" stroke-width="0.522" stroke-dasharray="1.044,1.044" stroke-linecap="round" stroke-linejoin="round"/>
    <path d="M90.117,24.105 L90.117,195.758" fill-opacity="0" stroke="#666666" stroke-width="0.522" stroke-dasharray="1.044,1.044" stroke-linecap="round" stroke-linejoin="round"/>
    <path d="M151.094,57.195 L106.852,31.652 L91.926,23.035" fill-opacity="0" stroke="#666666" stroke-width="0.522" stroke-dasharray="1.044,1.044" stroke-linecap="round" stroke-linejoin="round"/>
    <path d="M151.07,57.168 L151.07,228.816" fill-opacity="0" stroke="#666666" stroke-width="0.522" stroke-dasharray="1.044,1.044" stroke-linecap="round" stroke-linejoin="round"/>
    <g>
      <path d="M84.562,214.113 C64.797,180.371 49.828,140.426 51.305,99.898 C52.023,80.18 56.844,59.645 68.164,42.832 C79.625,25.812 96.938,14.203 118.027,13.023 C138.691,11.875 157.965,21.285 172.395,34.957 C187.074,48.867 197.059,67.152 202.719,86.25 C214.355,125.527 208.234,167.492 193.855,204.289 C193.629,204.875 193.398,205.457 193.168,206.039 C193.051,206.332 192.934,206.625 192.812,206.914 C192.656,207.305 192.379,207.008 192.148,206.875 C191.648,206.586 190.93,206.484 191.246,205.68 C191.473,205.094 191.699,204.508 191.922,203.922 C192.82,201.578 193.684,199.219 194.512,196.848 C196.164,192.102 197.672,187.316 199.02,182.473 C201.723,172.754 203.75,162.977 205.016,152.969 C207.605,132.551 207.086,113.219 202.125,93.105 C197.355,73.77 188.324,55.012 174.426,40.324 C160.738,25.855 142.145,15.371 121.402,15.281 C110.363,15.234 101.023,17.773 91.484,23.301 C64.465,38.965 53.914,71.336 52.559,99.52 C50.598,140.258 65.375,179.945 84.562,214.113" fill="#151515"/>
      <path d="M84.562,214.113 C64.797,180.371 49.828,140.426 51.305,99.898 C52.023,80.18 56.844,59.645 68.164,42.832 C79.625,25.812 96.938,14.203 118.027,13.023 C138.691,11.875 157.965,21.285 172.395,34.957 C187.074,48.867 197.059,67.152 202.719,86.25 C214.355,125.527 208.234,167.492 193.855,204.289 C193.629,204.875 193.398,205.457 193.168,206.039 C193.051,206.332 192.934,206.625 192.812,206.914 C192.656,207.305 192.379,207.008 192.148,206.875 C191.648,206.586 190.93,206.484 191.246,205.68 C191.473,205.094 191.699,204.508 191.922,203.922 C192.82,201.578 193.684,199.219 194.512,196.848 C196.164,192.102 197.672,187.316 199.02,182.473 C201.723,172.754 203.75,162.977 205.016,152.969 C207.605,132.551 207.086,113.219 202.125,93.105 C197.355,73.77 188.324,55.012 174.426,40.324 C160.738,25.855 142.145,15.371 121.402,15.281 C110.363,15.234 101.023,17.773 91.484,23.301 C64.465,38.965 53.914,71.336 52.559,99.52 C50.598,140.258 65.375,179.945 84.562,214.113" fill-opacity="0" stroke="#000000" stroke-width="0.052" stroke-linecap="square" stroke-linejoin="round"/>
    </g>
    <g>
      <path d="M194.875,207.391 C194.152,207.324 193.426,207.258 192.699,207.195 C197.816,194.566 201.926,181.516 204.715,168.176 C207.332,155.668 208.789,142.91 208.809,130.133 C208.828,118.074 207.574,105.996 204.832,94.25 C204.41,92.441 203.953,90.633 203.457,88.84 C204.805,93.293 205.879,97.828 206.738,102.398 C207.617,107.047 208.277,111.727 208.734,116.434 C209.68,126.223 209.742,136.098 209.027,145.91 C207.496,166.961 202.41,187.699 194.875,207.391" fill="#E6E6E6"/>
      <path d="M194.875,207.391 C194.152,207.324 193.426,207.258 192.699,207.195 C197.816,194.566 201.926,181.516 204.715,168.176 C207.332,155.668 208.789,142.91 208.809,130.133 C208.828,118.074 207.574,105.996 204.832,94.25 C204.41,92.441 203.953,90.633 203.457,88.84 C204.805,93.293 205.879,97.828 206.738,102.398 C207.617,107.047 208.277,111.727 208.734,116.434 C209.68,126.223 209.742,136.098 209.027,145.91 C207.496,166.961 202.41,187.699 194.875,207.391" fill-opacity="0" stroke="#000000" stroke-width="0.052" stroke-linecap="square" stroke-linejoin="round"/>
    </g>
    <g>
      <path d="M109.035,256.949 C103.219,249.016 97.492,241.016 92.066,232.816 C87.52,225.957 83.188,218.957 79.137,211.793 C71.562,198.398 64.988,184.43 59.84,169.93 C55,156.309 51.422,142.227 49.559,127.895 C47.859,114.812 47.586,101.527 49.242,88.438 C50.812,76.027 54.121,63.789 59.738,52.609 C64.75,42.633 71.605,33.5 80.289,26.5 C84.379,23.203 88.879,20.383 93.648,18.168 C98.336,15.992 103.285,14.406 108.355,13.469 C118.742,11.555 129.637,12.383 139.684,15.629 C133.121,13.711 126.281,12.746 119.465,12.961 C110.223,13.254 101.027,15.711 92.859,20.051 C85.645,23.887 79.23,29.191 73.871,35.371 C68.066,42.059 63.496,49.77 60.055,57.93 C56.289,66.852 53.871,76.309 52.523,85.895 C51.051,96.418 50.871,107.102 51.699,117.695 C52.562,128.711 54.516,139.629 57.32,150.32 C60.316,161.738 64.285,172.895 69.004,183.719 C73.555,194.156 78.805,204.285 84.562,214.113 C85.082,214.996 85.602,215.879 86.129,216.754 C89.555,222.48 93.148,228.105 96.859,233.648 C101.512,240.602 106.352,247.43 111.211,254.242 C110.484,255.145 109.758,256.047 109.035,256.949" fill="#E6E6E6"/>
      <path d="M109.035,256.949 C103.219,249.016 97.492,241.016 92.066,232.816 C87.52,225.957 83.188,218.957 79.137,211.793 C71.562,198.398 64.988,184.43 59.84,169.93 C55,156.309 51.422,142.227 49.559,127.895 C47.859,114.812 47.586,101.527 49.242,88.438 C50.812,76.027 54.121,63.789 59.738,52.609 C64.75,42.633 71.605,33.5 80.289,26.5 C84.379,23.203 88.879,20.383 93.648,18.168 C98.336,15.992 103.285,14.406 108.355,13.469 C118.742,11.555 129.637,12.383 139.684,15.629 C133.121,13.711 126.281,12.746 119.465,12.961 C110.223,13.254 101.027,15.711 92.859,20.051 C85.645,23.887 79.23,29.191 73.871,35.371 C68.066,42.059 63.496,49.77 60.055,57.93 C56.289,66.852 53.871,76.309 52.523,85.895 C51.051,96.418 50.871,107.102 51.699,117.695 C52.562,128.711 54.516,139.629 57.32,150.32 C60.316,161.738 64.285,172.895 69.004,183.719 C73.555,194.156 78.805,204.285 84.562,214.113 C85.082,214.996 85.602,215.879 86.129,216.754 C89.555,222.48 93.148,228.105 96.859,233.648 C101.512,240.602 106.352,247.43 111.211,254.242 C110.484,255.145 109.758,256.047 109.035,256.949" fill-opacity="0" stroke="#000000" stroke-width="0.052" stroke-linecap="square" stroke-linejoin="round"/>
    </g>
    <g>
      <path d="M107.359,255.98 C103.297,250.141 99.25,244.293 95.352,238.34 C93.402,235.363 91.488,232.363 89.609,229.344 C88.672,227.832 87.746,226.316 86.824,224.793 C86.367,224.031 85.91,223.27 85.453,222.504 C85.34,222.312 85.227,222.121 85.113,221.934 C85,221.738 85.23,222.121 85.289,222.215 C85.523,222.59 85.758,222.969 85.988,223.348 C89.742,229.398 93.676,235.32 97.734,241.168 C99.762,244.09 101.816,246.992 103.898,249.879 C104.938,251.324 105.98,252.766 107.027,254.199 C107.551,254.922 108.074,255.637 108.602,256.355 C108.73,256.535 108.863,256.711 108.992,256.891 C109.207,257.184 108.672,256.738 108.516,256.648 C108.133,256.426 107.746,256.207 107.359,255.98" fill="#151515"/>
      <path d="M107.359,255.98 C103.297,250.141 99.25,244.293 95.352,238.34 C93.402,235.363 91.488,232.363 89.609,229.344 C88.672,227.832 87.746,226.316 86.824,224.793 C86.367,224.031 85.91,223.27 85.453,222.504 C85.34,222.312 85.227,222.121 85.113,221.934 C85,221.738 85.23,222.121 85.289,222.215 C85.523,222.59 85.758,222.969 85.988,223.348 C89.742,229.398 93.676,235.32 97.734,241.168 C99.762,244.09 101.816,246.992 103.898,249.879 C104.938,251.324 105.98,252.766 107.027,254.199 C107.551,254.922 108.074,255.637 108.602,256.355 C108.73,256.535 108.863,256.711 108.992,256.891 C109.207,257.184 108.672,256.738 108.516,256.648 C108.133,256.426 107.746,256.207 107.359,255.98" fill-opacity="0" stroke="#000000" stroke-width="0.052" stroke-linecap="square" stroke-linejoin="round"/>
    </g>
    <g>
      <path d="M145.375,20.094 C145.723,20.234 146.062,20.371 146.406,20.516 C155.703,24.406 164.121,30.25 171.379,37.246 C179.242,44.828 185.738,53.766 190.879,63.406 C193.758,68.809 196.211,74.43 198.262,80.195 C193.254,66.73 186.07,53.949 176.559,43.152 C172.137,38.129 167.215,33.535 161.828,29.566 C159.234,27.66 156.535,25.895 153.738,24.297 C151.027,22.746 148.23,21.359 145.375,20.094" fill="#E6E6E6"/>
      <path d="M145.375,20.094 C145.723,20.234 146.062,20.371 146.406,20.516 C155.703,24.406 164.121,30.25 171.379,37.246 C179.242,44.828 185.738,53.766 190.879,63.406 C193.758,68.809 196.211,74.43 198.262,80.195 C193.254,66.73 186.07,53.949 176.559,43.152 C172.137,38.129 167.215,33.535 161.828,29.566 C159.234,27.66 156.535,25.895 153.738,24.297 C151.027,22.746 148.23,21.359 145.375,20.094" fill-opacity="0" stroke="#000000" stroke-width="0.052" stroke-linecap="square" stroke-linejoin="round"/>
    </g>
    <path d="M107.359,255.98 C107.434,256.023 107.5,256.062 107.57,256.102 C108.059,256.387 108.547,256.668 109.035,256.949 C109.758,256.047 110.484,255.145 111.207,254.242 C106.352,247.434 101.512,240.602 96.859,233.648 C93.148,228.105 89.555,222.48 86.129,216.758 C85.605,215.879 85.082,214.996 84.562,214.113 C79.191,204.543 74.23,194.734 69.902,184.652 C65.891,175.305 62.422,165.715 59.648,155.926 C57.039,146.711 55.039,137.324 53.805,127.828 C52.641,118.91 52.152,109.895 52.5,100.906 C52.824,92.43 53.895,83.977 55.879,75.73 C57.715,68.094 60.336,60.641 63.887,53.633 C67.164,47.164 71.234,41.086 76.137,35.742 C80.727,30.742 86.043,26.391 91.949,23.035 C92.324,22.82 92.707,22.613 93.086,22.402 C101.031,18.074 110.035,15.637 119.086,15.316 C128.043,15.004 137.043,16.762 145.379,20.094 C148.23,21.355 151.027,22.75 153.738,24.297 C156.535,25.895 159.234,27.656 161.828,29.566 C167.211,33.535 172.137,38.133 176.559,43.152 C186.07,53.953 193.25,66.73 198.258,80.195 C199.945,84.945 201.359,89.793 202.508,94.695 C205.223,106.273 206.477,118.176 206.484,130.066 C206.496,142.664 205.109,155.246 202.602,167.59 C199.922,180.785 195.961,193.707 191.027,206.23 C191.586,206.551 192.141,206.871 192.703,207.195 C193.426,207.262 194.148,207.324 194.875,207.391 C202.41,187.699 207.5,166.961 209.027,145.91 C209.742,136.098 209.684,126.223 208.73,116.43 C208.277,111.73 207.617,107.047 206.738,102.398 C205.879,97.828 204.805,93.293 203.457,88.84 C200.926,79.652 197.457,70.723 192.977,62.316 C187.711,52.449 181.047,43.297 172.996,35.535 C165.57,28.375 156.965,22.398 147.453,18.391 C144.922,17.324 142.324,16.402 139.684,15.629 C129.637,12.383 118.742,11.555 108.355,13.469 C103.285,14.406 98.336,15.992 93.648,18.168 C88.879,20.383 84.379,23.203 80.289,26.5 C71.605,33.5 64.75,42.633 59.738,52.609 C54.121,63.785 50.812,76.027 49.242,88.438 C47.586,101.531 47.859,114.812 49.559,127.895 C51.422,142.227 55,156.312 59.836,169.93 C64.988,184.43 71.562,198.402 79.137,211.797 C81.039,215.16 83.004,218.492 85.027,221.789 C89.672,229.625 94.555,237.301 99.688,244.828 C102.215,248.566 104.785,252.277 107.359,255.98 z M107.359,255.98" fill-opacity="0" stroke="#000000" stroke-width="0.157" stroke-linecap="round" stroke-linejoin="round"/>
    <path d="M106.875,31.652 C106.848,29.09 106.492,26.645 105.789,24.184 M80.145,31.715 C82.883,35.652 85.91,38.871 90.141,41.312 M84.215,0.5 C77.016,-0.508 73.668,5.094 73.422,11.5 C73.176,17.863 75.035,23 78.059,28.387 M105.789,24.184 C103.336,15.285 94.895,1.996 84.215,0.5 M90.141,41.312 C99.379,46.648 106.875,42.324 106.875,31.652" fill-opacity="0" stroke="#666666" stroke-width="0.157" stroke-linecap="round" stroke-linejoin="round"/>
    <path d="M201.016,185.223 C210.691,158.277 222.609,120.48 221.211,90.57 C219.199,47.535 189.496,36.211 153.273,55.973 L151.094,57.195 C121.035,74.551 96.715,107.461 86.574,140.102 C75.055,177.188 81.289,210.465 101.172,242.871" fill-opacity="0" stroke="#6887FF" stroke-width="1.044" stroke-linecap="round" stroke-linejoin="round"/>
    <path d="M151.094,57.195 L151.094,44.918" fill-opacity="0" stroke="#000000" stroke-width="0.783" stroke-linecap="round" stroke-linejoin="round"/>
    <path d="M153.441,44.918 L151.094,38.656 L148.746,44.918 M151.094,44.918 L151.094,38.656" fill-opacity="0" stroke="#000000" stroke-width="0.783"/>
    <path d="M151.094,57.195 L161.73,51.059" fill-opacity="0" stroke="#000000" stroke-width="0.783" stroke-linecap="round" stroke-linejoin="round"/>
    <path d="M162.902,53.09 L167.152,47.926 L160.555,49.023 M161.73,51.059 L167.152,47.926" fill-opacity="0" stroke="#000000" stroke-width="0.783"/>
    <path d="M151.094,57.195 L161.73,63.336" fill-opacity="0" stroke="#6887FF" stroke-width="0.783" stroke-linecap="round" stroke-linejoin="round"/>
    <path d="M160.555,65.367 L167.152,66.465 L162.902,61.301 M161.73,63.336 L167.152,66.465" fill-opacity="0" stroke="#6887FF" stroke-width="0.783"/>
    <g>
      <path d="M66.378,339.819 L66.378,338.741 L62.534,338.741 L62.534,344.913 L63.753,344.913 L63.753,342.225 L66.143,342.225 L66.143,341.147 L63.753,341.147 L63.753,339.819 z M66.378,339.819" fill="#000000"/>
      <path d="M67.804,340.288 L67.804,341.21 L68.976,341.21 L68.976,343.975 L67.476,343.975 L67.476,344.913 L71.694,344.913 L71.694,343.975 L70.194,343.975 L70.194,340.288 z M68.976,338.022 L68.976,339.444 L70.194,339.444 L70.194,338.022 z M68.976,338.022" fill="#000000"/>
      <path d="M75.292,342.522 C75.292,343.366 74.949,343.897 74.449,343.897 C73.933,343.897 73.605,343.366 73.605,342.522 C73.605,341.679 73.933,341.147 74.449,341.147 C74.949,341.147 75.292,341.71 75.292,342.522 z M76.511,344.569 L76.511,340.288 L75.292,340.288 L75.292,340.866 C75.058,340.429 74.636,340.163 74.105,340.163 C73.574,340.163 73.167,340.366 72.855,340.804 C72.542,341.241 72.386,341.819 72.386,342.554 C72.386,343.975 73.058,344.85 74.12,344.85 C74.683,344.85 75.058,344.647 75.292,344.194 L75.292,344.694 C75.292,345.382 74.98,345.694 74.308,345.694 C73.792,345.694 73.339,345.569 72.87,345.335 L72.87,346.444 C73.37,346.6 73.87,346.663 74.37,346.663 C75.886,346.663 76.511,346.054 76.511,344.569 z M76.511,344.569" fill="#000000"/>
      <path d="M77.734,343.288 C77.734,344.444 78.203,345.038 79.078,345.038 C79.656,345.038 80.078,344.741 80.25,344.225 L80.25,344.913 L81.468,344.913 L81.468,340.288 L80.25,340.288 L80.25,342.944 C80.25,343.647 80,344.038 79.562,344.038 C79.125,344.038 78.953,343.772 78.953,343.116 L78.953,340.288 L77.734,340.288 z M77.734,343.288" fill="#000000"/>
      <path d="M86.941,341.554 L86.941,340.413 C86.66,340.241 86.332,340.163 85.988,340.163 C85.348,340.163 84.832,340.46 84.582,341.007 L84.582,340.288 L83.379,340.288 L83.379,344.913 L84.582,344.913 L84.582,342.772 C84.582,342.163 84.629,341.929 84.769,341.725 C84.973,341.382 85.379,341.194 85.879,341.194 C86.316,341.194 86.676,341.319 86.941,341.554 z M86.941,341.554" fill="#000000"/>
      <path d="M91.836,344.679 L91.836,343.569 C91.242,343.929 90.711,344.069 90.164,344.069 C89.32,344.069 88.899,343.71 88.883,342.991 L92.024,342.991 L92.024,342.507 C92.024,341.022 91.242,340.163 89.852,340.163 C89.18,340.163 88.649,340.397 88.242,340.835 C87.852,341.257 87.649,341.866 87.649,342.616 C87.649,344.179 88.492,345.038 90.039,345.038 C90.695,345.038 91.258,344.929 91.836,344.679 z M90.805,342.085 L88.899,342.085 C88.961,341.46 89.305,341.116 89.852,341.116 C90.477,341.116 90.789,341.444 90.805,342.085 z M90.805,342.085" fill="#000000"/>
    </g>
    <g>
      <path d="M100.126,341.819 C100.657,341.819 100.954,342.225 100.954,342.944 C100.954,343.663 100.657,344.054 100.126,344.054 C99.594,344.054 99.313,343.663 99.313,342.944 C99.313,342.225 99.594,341.819 100.126,341.819 z M101.735,338.882 C101.313,338.71 100.891,338.632 100.516,338.632 C98.844,338.632 98.016,339.71 98.016,341.835 C98.016,344.085 98.657,345.038 100.157,345.038 C101.391,345.038 102.11,344.241 102.11,342.866 C102.11,341.569 101.469,340.835 100.36,340.835 C99.813,340.835 99.423,341.022 99.157,341.382 C99.173,340.225 99.641,339.616 100.532,339.616 C100.907,339.616 101.282,339.741 101.735,339.991 z M101.735,338.882" fill="#000000"/>
      <path d="M104.427,343.397 L104.427,344.913 L105.802,344.913 L105.802,343.397 z M104.427,343.397" fill="#000000"/>
      <path d="M110.321,341.819 C110.853,341.819 111.15,342.225 111.15,342.944 C111.15,343.663 110.853,344.054 110.321,344.054 C109.79,344.054 109.509,343.663 109.509,342.944 C109.509,342.225 109.79,341.819 110.321,341.819 z M111.931,338.882 C111.509,338.71 111.087,338.632 110.712,338.632 C109.04,338.632 108.212,339.71 108.212,341.835 C108.212,344.085 108.853,345.038 110.353,345.038 C111.587,345.038 112.306,344.241 112.306,342.866 C112.306,341.569 111.665,340.835 110.556,340.835 C110.009,340.835 109.618,341.022 109.353,341.382 C109.368,340.225 109.837,339.616 110.728,339.616 C111.103,339.616 111.478,339.741 111.931,339.991 z M111.931,338.882" fill="#000000"/>
    </g>
    <path d="M119.111,341.866 L119.111,343.069 L121.72,343.069 L121.72,341.866 z M119.111,341.866" fill="#000000"/>
    <path d="M129.682,344.913 L132.088,344.913 L132.088,344.475 L131.307,344.475 L131.307,339.225 L133.119,339.225 L133.119,340.194 L133.619,340.194 L133.619,338.741 L128.135,338.741 L128.135,340.194 L128.651,340.194 L128.651,339.225 L130.463,339.225 L130.463,344.475 L129.682,344.475 z M129.682,344.913" fill="#000000"/>
    <g>
      <path d="M137.639,342.788 C137.607,341.241 136.889,340.397 135.545,340.397 C134.935,340.397 134.42,340.616 134.045,341.038 C133.67,341.46 133.467,342.022 133.467,342.71 C133.467,343.413 133.67,343.975 134.045,344.397 C134.435,344.819 134.951,345.038 135.607,345.038 C136.654,345.038 137.326,344.538 137.56,343.585 L136.951,343.585 C136.779,344.272 136.342,344.632 135.685,344.632 C134.81,344.632 134.357,344.022 134.357,342.835 L134.357,342.788 z M136.732,342.35 L134.357,342.35 C134.451,341.335 134.842,340.804 135.545,340.804 C136.295,340.804 136.701,341.335 136.732,342.35 z M136.732,342.35" fill="#000000"/>
      <path d="M138.527,344.663 C139.074,344.913 139.605,345.038 140.183,345.038 C141.292,345.038 141.964,344.538 141.964,343.694 C141.964,343.085 141.636,342.725 140.792,342.46 L140.199,342.272 C139.449,342.038 139.261,341.85 139.261,341.475 C139.261,341.038 139.589,340.804 140.23,340.804 C140.871,340.804 141.261,341.147 141.292,341.71 L141.73,341.71 L141.73,340.757 C141.199,340.522 140.667,340.397 140.214,340.397 C139.167,340.397 138.542,340.882 138.542,341.679 C138.542,342.257 138.855,342.585 139.621,342.835 L140.167,343.022 C140.589,343.163 140.871,343.288 140.996,343.413 C141.121,343.522 141.199,343.679 141.199,343.866 C141.199,344.35 140.824,344.632 140.136,344.632 C139.386,344.632 138.996,344.288 138.98,343.647 L138.527,343.647 z M138.527,344.663" fill="#000000"/>
      <path d="M143.324,340.96 L143.324,343.757 C143.324,344.679 143.637,345.038 144.527,345.038 C145.324,345.038 145.699,344.679 145.746,343.882 L145.168,343.882 C145.152,344.397 144.98,344.632 144.59,344.632 C144.387,344.632 144.262,344.569 144.184,344.475 C144.105,344.366 144.074,344.132 144.074,343.757 L144.074,340.96 L145.512,340.96 L145.512,340.522 L144.074,340.522 L144.074,339.147 L143.324,339.147 L143.324,340.522 L142.652,340.522 L142.652,340.96 z M143.324,340.96" fill="#000000"/>
    </g>
    <g>
      <path d="M152.859,343.585 L152.249,343.585 C152.093,344.272 151.703,344.632 151.062,344.632 C150.234,344.632 149.812,343.991 149.812,342.71 C149.812,341.444 150.234,340.804 151.062,340.804 C151.781,340.804 152.156,341.147 152.265,341.913 L152.703,341.913 L152.703,340.788 C152.156,340.522 151.593,340.397 151.046,340.397 C150.406,340.397 149.89,340.616 149.499,341.038 C149.124,341.444 148.921,342.007 148.921,342.71 C148.921,343.413 149.124,343.975 149.499,344.397 C149.89,344.819 150.406,345.038 151.046,345.038 C152.015,345.038 152.64,344.538 152.859,343.585 z M152.859,343.585" fill="#000000"/>
      <path d="M156.617,343.538 C156.617,344.163 156.195,344.585 155.554,344.585 C154.914,344.585 154.507,344.194 154.507,343.585 C154.507,342.929 154.882,342.6 155.632,342.6 L156.617,342.6 z M157.367,342.163 C157.367,341.022 156.726,340.397 155.507,340.397 C155.023,340.397 154.539,340.507 154.007,340.741 L154.007,341.632 L154.398,341.632 C154.492,341.085 154.851,340.804 155.445,340.804 C156.195,340.804 156.617,341.194 156.617,341.85 L156.617,342.163 L155.539,342.163 C154.351,342.163 153.664,342.679 153.664,343.585 C153.664,344.475 154.273,345.038 155.257,345.038 C155.835,345.038 156.273,344.85 156.617,344.444 L156.617,344.913 L158.054,344.913 L158.054,344.475 L157.367,344.475 z M157.367,342.163" fill="#000000"/>
      <path d="M158.758,344.663 C159.304,344.913 159.836,345.038 160.414,345.038 C161.523,345.038 162.195,344.538 162.195,343.694 C162.195,343.085 161.867,342.725 161.023,342.46 L160.429,342.272 C159.679,342.038 159.492,341.85 159.492,341.475 C159.492,341.038 159.82,340.804 160.461,340.804 C161.101,340.804 161.492,341.147 161.523,341.71 L161.961,341.71 L161.961,340.757 C161.429,340.522 160.898,340.397 160.445,340.397 C159.398,340.397 158.773,340.882 158.773,341.679 C158.773,342.257 159.086,342.585 159.851,342.835 L160.398,343.022 C160.82,343.163 161.101,343.288 161.226,343.413 C161.351,343.522 161.429,343.679 161.429,343.866 C161.429,344.35 161.054,344.632 160.367,344.632 C159.617,344.632 159.226,344.288 159.211,343.647 L158.758,343.647 z M158.758,344.663" fill="#000000"/>
      <path d="M167.227,342.788 C167.196,341.241 166.477,340.397 165.133,340.397 C164.524,340.397 164.008,340.616 163.633,341.038 C163.258,341.46 163.055,342.022 163.055,342.71 C163.055,343.413 163.258,343.975 163.633,344.397 C164.024,344.819 164.539,345.038 165.196,345.038 C166.242,345.038 166.914,344.538 167.149,343.585 L166.539,343.585 C166.367,344.272 165.93,344.632 165.274,344.632 C164.399,344.632 163.946,344.022 163.946,342.835 L163.946,342.788 z M166.321,342.35 L163.946,342.35 C164.039,341.335 164.43,340.804 165.133,340.804 C165.883,340.804 166.289,341.335 166.321,342.35 z M166.321,342.35" fill="#000000"/>
    </g>
    <g>
      <path d="M172.886,344.632 C172.074,344.632 171.652,343.975 171.652,342.71 C171.652,341.46 172.074,340.804 172.886,340.804 C173.699,340.804 174.12,341.46 174.12,342.71 C174.12,343.975 173.699,344.632 172.886,344.632 z M172.886,345.038 C173.527,345.038 174.042,344.819 174.433,344.397 C174.824,343.975 175.011,343.413 175.011,342.71 C175.011,342.007 174.824,341.444 174.433,341.038 C174.042,340.616 173.527,340.397 172.886,340.397 C172.245,340.397 171.73,340.616 171.339,341.038 C170.964,341.444 170.761,342.007 170.761,342.71 C170.761,343.413 170.964,343.975 171.339,344.397 C171.73,344.819 172.245,345.038 172.886,345.038 z M172.886,345.038" fill="#000000"/>
      <path d="M179.078,339.522 L179.078,338.679 C178.718,338.538 178.343,338.475 177.984,338.475 C176.984,338.475 176.468,338.991 176.468,339.96 L176.468,340.522 L175.75,340.522 L175.75,340.96 L176.468,340.96 L176.468,344.475 L175.75,344.475 L175.75,344.913 L178.203,344.913 L178.203,344.475 L177.234,344.475 L177.234,340.96 L178.453,340.96 L178.453,340.522 L177.234,340.522 L177.234,339.944 C177.234,339.147 177.437,338.882 178,338.882 C178.437,338.882 178.672,339.1 178.687,339.522 z M179.078,339.522" fill="#000000"/>
    </g>
    <path d="M184.638,343.538 C184.638,344.163 184.216,344.585 183.576,344.585 C182.935,344.585 182.529,344.194 182.529,343.585 C182.529,342.929 182.904,342.6 183.654,342.6 L184.638,342.6 z M185.388,342.163 C185.388,341.022 184.748,340.397 183.529,340.397 C183.045,340.397 182.56,340.507 182.029,340.741 L182.029,341.632 L182.42,341.632 C182.513,341.085 182.873,340.804 183.466,340.804 C184.216,340.804 184.638,341.194 184.638,341.85 L184.638,342.163 L183.56,342.163 C182.373,342.163 181.685,342.679 181.685,343.585 C181.685,344.475 182.295,345.038 183.279,345.038 C183.857,345.038 184.295,344.85 184.638,344.444 L184.638,344.913 L186.076,344.913 L186.076,344.475 L185.388,344.475 z M185.388,342.163" fill="#000000"/>
    <g>
      <path d="M193.363,343.585 L192.753,343.585 C192.597,344.272 192.206,344.632 191.566,344.632 C190.738,344.632 190.316,343.991 190.316,342.71 C190.316,341.444 190.738,340.804 191.566,340.804 C192.285,340.804 192.66,341.147 192.769,341.913 L193.206,341.913 L193.206,340.788 C192.66,340.522 192.097,340.397 191.55,340.397 C190.91,340.397 190.394,340.616 190.003,341.038 C189.628,341.444 189.425,342.007 189.425,342.71 C189.425,343.413 189.628,343.975 190.003,344.397 C190.394,344.819 190.91,345.038 191.55,345.038 C192.519,345.038 193.144,344.538 193.363,343.585 z M193.363,343.585" fill="#000000"/>
      <path d="M196.292,344.632 C195.48,344.632 195.058,343.975 195.058,342.71 C195.058,341.46 195.48,340.804 196.292,340.804 C197.105,340.804 197.527,341.46 197.527,342.71 C197.527,343.975 197.105,344.632 196.292,344.632 z M196.292,345.038 C196.933,345.038 197.449,344.819 197.839,344.397 C198.23,343.975 198.417,343.413 198.417,342.71 C198.417,342.007 198.23,341.444 197.839,341.038 C197.449,340.616 196.933,340.397 196.292,340.397 C195.652,340.397 195.136,340.616 194.746,341.038 C194.371,341.444 194.167,342.007 194.167,342.71 C194.167,343.413 194.371,343.975 194.746,344.397 C195.136,344.819 195.652,345.038 196.292,345.038 z M196.292,345.038" fill="#000000"/>
      <path d="M199.187,344.913 L201.297,344.913 L201.297,344.475 L200.64,344.475 L200.64,342.46 C200.64,341.475 201.015,340.944 201.719,340.944 C202.39,340.944 202.625,341.272 202.625,342.35 L202.625,344.475 L201.953,344.475 L201.953,344.913 L204.062,344.913 L204.062,344.475 L203.39,344.475 L203.39,342.116 C203.39,340.929 202.937,340.397 201.969,340.397 C201.375,340.397 200.922,340.71 200.64,341.304 L200.64,340.522 L199.156,340.522 L199.156,340.96 L199.875,340.96 L199.875,344.475 L199.187,344.475 z M199.187,344.913" fill="#000000"/>
      <path d="M204.766,344.663 C205.313,344.913 205.844,345.038 206.422,345.038 C207.531,345.038 208.203,344.538 208.203,343.694 C208.203,343.085 207.875,342.725 207.031,342.46 L206.438,342.272 C205.688,342.038 205.5,341.85 205.5,341.475 C205.5,341.038 205.828,340.804 206.469,340.804 C207.11,340.804 207.5,341.147 207.531,341.71 L207.969,341.71 L207.969,340.757 C207.438,340.522 206.906,340.397 206.453,340.397 C205.406,340.397 204.781,340.882 204.781,341.679 C204.781,342.257 205.094,342.585 205.86,342.835 L206.406,343.022 C206.828,343.163 207.11,343.288 207.235,343.413 C207.36,343.522 207.438,343.679 207.438,343.866 C207.438,344.35 207.063,344.632 206.375,344.632 C205.625,344.632 205.235,344.288 205.219,343.647 L204.766,343.647 z M204.766,344.663" fill="#000000"/>
      <path d="M209.563,340.96 L209.563,343.757 C209.563,344.679 209.876,345.038 210.766,345.038 C211.563,345.038 211.938,344.679 211.985,343.882 L211.407,343.882 C211.391,344.397 211.219,344.632 210.829,344.632 C210.626,344.632 210.501,344.569 210.423,344.475 C210.344,344.366 210.313,344.132 210.313,343.757 L210.313,340.96 L211.751,340.96 L211.751,340.522 L210.313,340.522 L210.313,339.147 L209.563,339.147 L209.563,340.522 L208.891,340.522 L208.891,340.96 z M209.563,340.96" fill="#000000"/>
      <path d="M216.092,340.507 C215.796,340.444 215.514,340.397 215.28,340.397 C214.592,340.397 214.139,340.694 213.842,341.304 L213.842,340.522 L212.358,340.522 L212.358,340.944 L213.077,340.944 L213.077,344.475 L212.389,344.475 L212.389,344.913 L214.717,344.913 L214.717,344.475 L213.842,344.475 L213.842,342.46 C213.842,341.491 214.249,340.96 214.999,340.96 C215.421,340.96 215.624,341.163 215.655,341.616 L216.092,341.616 z M216.092,340.507" fill="#000000"/>
      <path d="M219.468,343.538 C219.468,344.163 219.047,344.585 218.406,344.585 C217.765,344.585 217.359,344.194 217.359,343.585 C217.359,342.929 217.734,342.6 218.484,342.6 L219.468,342.6 z M220.218,342.163 C220.218,341.022 219.578,340.397 218.359,340.397 C217.875,340.397 217.39,340.507 216.859,340.741 L216.859,341.632 L217.25,341.632 C217.343,341.085 217.703,340.804 218.297,340.804 C219.047,340.804 219.468,341.194 219.468,341.85 L219.468,342.163 L218.39,342.163 C217.203,342.163 216.515,342.679 216.515,343.585 C216.515,344.475 217.125,345.038 218.109,345.038 C218.687,345.038 219.125,344.85 219.468,344.444 L219.468,344.913 L220.906,344.913 L220.906,344.475 L220.218,344.475 z M220.218,342.163" fill="#000000"/>
      <path d="M221.969,339.147 C221.969,339.413 222.172,339.616 222.437,339.616 C222.703,339.616 222.906,339.413 222.906,339.147 C222.906,338.897 222.687,338.679 222.437,338.679 C222.172,338.679 221.969,338.897 221.969,339.147 z M222.937,344.475 L222.937,340.522 L221.453,340.522 L221.453,340.96 L222.172,340.96 L222.172,344.475 L221.453,344.475 L221.453,344.913 L223.656,344.913 L223.656,344.475 z M222.937,344.475" fill="#000000"/>
      <path d="M224.194,344.913 L226.304,344.913 L226.304,344.475 L225.647,344.475 L225.647,342.46 C225.647,341.475 226.022,340.944 226.725,340.944 C227.397,340.944 227.632,341.272 227.632,342.35 L227.632,344.475 L226.96,344.475 L226.96,344.913 L229.069,344.913 L229.069,344.475 L228.397,344.475 L228.397,342.116 C228.397,340.929 227.944,340.397 226.975,340.397 C226.382,340.397 225.929,340.71 225.647,341.304 L225.647,340.522 L224.163,340.522 L224.163,340.96 L224.882,340.96 L224.882,344.475 L224.194,344.475 z M224.194,344.913" fill="#000000"/>
      <path d="M233.898,342.788 C233.866,341.241 233.148,340.397 231.804,340.397 C231.195,340.397 230.679,340.616 230.304,341.038 C229.929,341.46 229.726,342.022 229.726,342.71 C229.726,343.413 229.929,343.975 230.304,344.397 C230.695,344.819 231.21,345.038 231.866,345.038 C232.913,345.038 233.585,344.538 233.82,343.585 L233.21,343.585 C233.038,344.272 232.601,344.632 231.945,344.632 C231.07,344.632 230.616,344.022 230.616,342.835 L230.616,342.788 z M232.991,342.35 L230.616,342.35 C230.71,341.335 231.101,340.804 231.804,340.804 C232.554,340.804 232.96,341.335 232.991,342.35 z M232.991,342.35" fill="#000000"/>
      <path d="M238.77,344.475 L238.77,338.475 L237.286,338.475 L237.286,338.913 L238.005,338.913 L238.005,341.21 C237.708,340.647 237.255,340.397 236.583,340.397 C236.036,340.397 235.598,340.616 235.255,341.038 C234.911,341.46 234.739,342.022 234.739,342.71 C234.739,343.397 234.911,343.96 235.255,344.382 C235.598,344.819 236.036,345.038 236.583,345.038 C237.255,345.038 237.708,344.772 238.005,344.225 L238.005,344.913 L239.489,344.913 L239.489,344.475 z M238.005,342.929 C238.005,343.991 237.583,344.554 236.817,344.554 C236.036,344.554 235.63,343.929 235.63,342.71 C235.63,341.491 236.036,340.866 236.817,340.866 C237.583,340.866 238.005,341.444 238.005,342.507 z M238.005,342.929" fill="#000000"/>
    </g>
    <g>
      <path d="M245.805,343.538 C245.805,344.163 245.383,344.585 244.742,344.585 C244.102,344.585 243.695,344.194 243.695,343.585 C243.695,342.929 244.07,342.6 244.82,342.6 L245.805,342.6 z M246.555,342.163 C246.555,341.022 245.914,340.397 244.695,340.397 C244.211,340.397 243.727,340.507 243.195,340.741 L243.195,341.632 L243.586,341.632 C243.68,341.085 244.039,340.804 244.633,340.804 C245.383,340.804 245.805,341.194 245.805,341.85 L245.805,342.163 L244.727,342.163 C243.539,342.163 242.852,342.679 242.852,343.585 C242.852,344.475 243.461,345.038 244.445,345.038 C245.024,345.038 245.461,344.85 245.805,344.444 L245.805,344.913 L247.242,344.913 L247.242,344.475 L246.555,344.475 z M246.555,342.163" fill="#000000"/>
      <path d="M251.524,340.507 C251.227,340.444 250.946,340.397 250.711,340.397 C250.024,340.397 249.571,340.694 249.274,341.304 L249.274,340.522 L247.789,340.522 L247.789,340.944 L248.508,340.944 L248.508,344.475 L247.821,344.475 L247.821,344.913 L250.149,344.913 L250.149,344.475 L249.274,344.475 L249.274,342.46 C249.274,341.491 249.68,340.96 250.43,340.96 C250.852,340.96 251.055,341.163 251.086,341.616 L251.524,341.616 z M251.524,340.507" fill="#000000"/>
      <path d="M255.884,343.585 L255.275,343.585 C255.119,344.272 254.728,344.632 254.087,344.632 C253.259,344.632 252.837,343.991 252.837,342.71 C252.837,341.444 253.259,340.804 254.087,340.804 C254.806,340.804 255.181,341.147 255.29,341.913 L255.728,341.913 L255.728,340.788 C255.181,340.522 254.619,340.397 254.072,340.397 C253.431,340.397 252.915,340.616 252.525,341.038 C252.15,341.444 251.947,342.007 251.947,342.71 C251.947,343.413 252.15,343.975 252.525,344.397 C252.915,344.819 253.431,345.038 254.072,345.038 C255.04,345.038 255.665,344.538 255.884,343.585 z M255.884,343.585" fill="#000000"/>
      <path d="M256.611,344.913 L258.72,344.913 L258.72,344.475 L258.064,344.475 L258.064,342.46 C258.064,341.475 258.439,340.96 259.142,340.96 C259.47,340.96 259.72,341.054 259.845,341.257 C259.97,341.444 260.048,341.819 260.048,342.35 L260.048,344.475 L259.376,344.475 L259.376,344.913 L261.486,344.913 L261.486,344.475 L260.814,344.475 L260.814,342.116 C260.814,340.929 260.361,340.397 259.392,340.397 C258.798,340.397 258.345,340.71 258.064,341.304 L258.064,338.475 L256.58,338.475 L256.58,338.913 L257.298,338.913 L257.298,344.475 L256.611,344.475 z M256.611,344.913" fill="#000000"/>
      <path d="M262.518,344.475 C262.518,344.788 262.752,345.038 263.064,345.038 C263.377,345.038 263.611,344.788 263.611,344.475 C263.611,344.179 263.377,343.929 263.064,343.929 C262.752,343.929 262.518,344.179 262.518,344.475 z M262.518,344.475" fill="#000000"/>
    </g>
  </g>
</svg>
