<?xml version="1.0" encoding="UTF-8"?>
<!DOCTYPE svg PUBLIC "-//W3C//DTD SVG 1.1//EN" "http://www.w3.org/Graphics/SVG/1.1/DTD/svg11.dtd">
<svg version="1.1" xmlns="http://www.w3.org/2000/svg" xmlns:xlink="http://www.w3.org/1999/xlink" x="0" y="0" width="426" height="175" viewBox="0, 0, 426, 175">
  <g id="Background">
    <rect x="0" y="0" width="426" height="175" fill="#000000" fill-opacity="0"/>
  </g>
  <defs>
    <clipPath id="Clip_1">
      <path d="M79,10 L218,10 L218,75.57 L79,75.57 z M79,10"/>
    </clipPath>
    <clipPath id="Clip_2">
      <path d="M78,9 L219,9 L219,76 L78,76 z"/>
    </clipPath>
    <clipPath id="Clip_3">
      <path d="M217.676,75 L326.676,75 L326.676,157.57 L217.676,157.57 z M217.676,75"/>
    </clipPath>
    <clipPath id="Clip_4">
      <path d="M217,74 L327,74 L327,158 L217,158 z"/>
    </clipPath>
    <clipPath id="Clip_5">
      <path d="M283,47.906 L288,47.906 L288,54 L283,54 z M283,47.906"/>
    </clipPath>
  </defs>
  <g id="surface1892">
    <g clip-path="url(#Clip_2)" id="surface1901">
      <g clip-path="url(#Clip_1)">
        <path d="M79.293,25.027 L163.039,10.262 L217.703,75.406 z M79.293,25.027" fill="#B8B8B8"/>
      </g>
    </g>
    <g clip-path="url(#Clip_4)" id="surface1900">
      <g clip-path="url(#Clip_3)">
        <path d="M217.703,75.406 L241.516,157.043 L326.551,157.043 z M217.703,75.406" fill="#B8B8B8"/>
      </g>
    </g>
    <path d="M342.66,133.719 L366.824,98.73" fill-opacity="0" stroke="#666666" stroke-width="0.25" stroke-dasharray="1.5,1.5" stroke-linecap="round" stroke-linejoin="round"/>
    <path d="M66.156,50.148 L46.445,87.824" fill-opacity="0" stroke="#666666" stroke-width="0.25" stroke-dasharray="1.5,1.5" stroke-linecap="round" stroke-linejoin="round"/>
    <path d="M79.293,25.027 C102.566,5.5 134.492,-0.129 163.039,10.262 C191.59,20.652 212.426,45.484 217.703,75.406" fill-opacity="0" stroke="#6887FF" stroke-width="1" stroke-dasharray="3,2" stroke-linecap="round" stroke-linejoin="round"/>
    <path d="M326.555,157.043 C301.355,175.941 266.711,175.941 241.516,157.043 C216.316,138.145 206.617,104.887 217.703,75.406" fill-opacity="0" stroke="#6887FF" stroke-width="1" stroke-dasharray="3,2" stroke-linecap="round" stroke-linejoin="round"/>
    <path d="M284.035,100.352 L326.555,157.043" fill-opacity="0" stroke="#B8B8B8" stroke-width="0.5" stroke-linecap="round" stroke-linejoin="round"/>
    <path d="M284.035,100.352 L216.004,120.195" fill-opacity="0" stroke="#B8B8B8" stroke-width="0.5" stroke-linecap="round" stroke-linejoin="round"/>
    <path d="M284.035,100.352 L284.035,171.219" fill-opacity="0" stroke="#B8B8B8" stroke-width="0.5" stroke-linecap="round" stroke-linejoin="round"/>
    <path d="M133.957,90.172 L119.188,6.426" fill-opacity="0" stroke="#B8B8B8" stroke-width="0.5" stroke-linecap="round" stroke-linejoin="round"/>
    <path d="M284.035,100.352 L241.512,157.043" fill-opacity="0" stroke="#B8B8B8" stroke-width="0.5" stroke-linecap="round" stroke-linejoin="round"/>
    <path d="M133.957,90.172 L217.703,75.406" fill-opacity="0" stroke="#B8B8B8" stroke-width="0.5" stroke-linecap="round" stroke-linejoin="round"/>
    <path d="M133.957,90.172 L79.293,25.027" fill-opacity="0" stroke="#B8B8B8" stroke-width="0.5" stroke-linecap="round" stroke-linejoin="round"/>
    <path d="M284.035,100.352 L217.703,75.406" fill-opacity="0" stroke="#B8B8B8" stroke-width="0.5" stroke-linecap="round" stroke-linejoin="round"/>
    <path d="M133.957,90.172 L199.098,35.512" fill-opacity="0" stroke="#B8B8B8" stroke-width="0.5" stroke-linecap="round" stroke-linejoin="round"/>
    <path d="M163.039,10.262 L133.957,90.172" fill-opacity="0" stroke="#B8B8B8" stroke-width="0.5" stroke-linecap="round" stroke-linejoin="round"/>
    <path d="M382.93,75.406 L357.406,24.785" fill-opacity="0" stroke="#000000" stroke-width="1.5" stroke-linecap="round" stroke-linejoin="round"/>
    <path d="M366.824,98.73 L382.93,75.406" fill-opacity="0" stroke="#000000" stroke-width="1.5" stroke-linecap="round" stroke-linejoin="round"/>
    <path d="M326.555,157.043 L342.66,133.719" fill-opacity="0" stroke="#000000" stroke-width="1.5" stroke-linecap="round" stroke-linejoin="round"/>
    <path d="M326.551,157.043 L241.516,157.043 L217.703,75.406" fill-opacity="0" stroke="#000000" stroke-width="1.5" stroke-linecap="round" stroke-linejoin="round"/>
    <path d="M79.293,25.027 L163.039,10.262 L217.703,75.406" fill-opacity="0" stroke="#000000" stroke-width="1.5" stroke-linecap="round" stroke-linejoin="round"/>
    <path d="M79.293,25.027 L66.156,50.148" fill-opacity="0" stroke="#000000" stroke-width="1.5" stroke-linecap="round" stroke-linejoin="round"/>
    <path d="M46.445,87.824 L33.309,112.941" fill-opacity="0" stroke="#000000" stroke-width="1.5" stroke-linecap="round" stroke-linejoin="round"/>
    <path d="M33.309,112.941 L54.867,165.375" fill-opacity="0" stroke="#000000" stroke-width="1.5" stroke-linecap="round" stroke-linejoin="round"/>
    <path d="M216,120.195 L222.051,140.926" fill-opacity="0" stroke="#6887FF" stroke-width="0.75" stroke-linecap="round" stroke-linejoin="round"/>
    <path d="M219.891,141.555 L223.73,146.688 L224.211,140.297 M222.051,140.926 L223.73,146.688" fill-opacity="0" stroke="#6887FF" stroke-width="0.75"/>
    <path d="M284.035,171.219 L305.629,171.219" fill-opacity="0" stroke="#6887FF" stroke-width="0.75" stroke-linecap="round" stroke-linejoin="round"/>
    <path d="M305.629,173.469 L311.629,171.219 L305.629,168.969 M305.629,171.219 L311.629,171.219" fill-opacity="0" stroke="#6887FF" stroke-width="0.75"/>
    <path d="M199.098,35.512 L212.98,52.055" fill-opacity="0" stroke="#6887FF" stroke-width="0.75" stroke-linecap="round" stroke-linejoin="round"/>
    <path d="M211.258,53.5 L216.84,56.652 L214.703,50.609 M212.98,52.055 L216.84,56.652" fill-opacity="0" stroke="#6887FF" stroke-width="0.75"/>
    <path d="M119.188,6.426 L140.457,2.676" fill-opacity="0" stroke="#6887FF" stroke-width="0.75" stroke-linecap="round" stroke-linejoin="round"/>
    <path d="M140.848,4.891 L146.367,1.633 L140.066,0.461 M140.457,2.676 L146.367,1.633" fill-opacity="0" stroke="#6887FF" stroke-width="0.75"/>
    <path d="M217.703,75.406 L210.102,95.621" fill-opacity="0" stroke="#6887FF" stroke-width="0.75" stroke-linecap="round" stroke-linejoin="round"/>
    <path d="M207.996,94.828 L207.988,101.234 L212.207,96.414 M210.102,95.621 L207.988,101.234" fill-opacity="0" stroke="#6887FF" stroke-width="0.75"/>
    <path d="M326.555,157.043 L343.832,144.086" fill-opacity="0" stroke="#6887FF" stroke-width="0.75" stroke-linecap="round" stroke-linejoin="round"/>
    <path d="M345.18,145.887 L348.629,140.484 L342.48,142.285 M343.832,144.086 L348.629,140.484" fill-opacity="0" stroke="#6887FF" stroke-width="0.75"/>
    <path d="M217.703,75.406 L221.453,96.676" fill-opacity="0" stroke="#6887FF" stroke-width="0.75" stroke-linecap="round" stroke-linejoin="round"/>
    <path d="M219.238,97.066 L222.496,102.582 L223.668,96.285 M221.453,96.676 L222.496,102.582" fill-opacity="0" stroke="#6887FF" stroke-width="0.75"/>
    <path d="M79.293,25.027 L95.836,11.148" fill-opacity="0" stroke="#6887FF" stroke-width="0.75" stroke-linecap="round" stroke-linejoin="round"/>
    <path d="M97.285,12.871 L100.434,7.289 L94.391,9.422 M95.836,11.148 L100.434,7.289" fill-opacity="0" stroke="#6887FF" stroke-width="0.75"/>
    <path d="M241.812,156.871 L255.047,166.801" fill-opacity="0" stroke="#000000" stroke-width="2" stroke-linecap="round" stroke-linejoin="round"/>
    <path d="M252.887,169.68 L262.727,172.559 L257.207,163.918 M255.047,166.801 L262.727,172.559" fill-opacity="0" stroke="#000000" stroke-width="2"/>
    <path d="M163.039,10.262 L178.59,15.922" fill-opacity="0" stroke="#000000" stroke-width="2" stroke-linecap="round" stroke-linejoin="round"/>
    <path d="M177.359,19.305 L187.609,19.203 L179.82,12.539 M178.59,15.922 L187.609,19.203" fill-opacity="0" stroke="#000000" stroke-width="2"/>
    <path d="M217.703,75.406 L216.172,91.883" fill-opacity="0" stroke="#000000" stroke-width="2" stroke-linecap="round" stroke-linejoin="round"/>
    <path d="M212.59,91.551 L215.285,101.441 L219.758,92.215 M216.172,91.883 L215.285,101.441" fill-opacity="0" stroke="#000000" stroke-width="2"/>
    <path d="M285.449,171.219 C285.449,170.434 284.816,169.801 284.031,169.801 C283.25,169.801 282.617,170.434 282.617,171.219 C282.617,172 283.25,172.637 284.031,172.637 C284.816,172.637 285.449,172 285.449,171.219 z M285.449,171.219" fill="#B8B8B8"/>
    <path d="M217.418,120.195 C217.418,119.41 216.785,118.777 216,118.777 C215.219,118.777 214.586,119.41 214.586,120.195 C214.586,120.977 215.219,121.613 216,121.613 C216.785,121.613 217.418,120.977 217.418,120.195 z M217.418,120.195" fill="#B8B8B8"/>
    <path d="M200.516,35.512 C200.516,34.727 199.883,34.094 199.102,34.094 C198.316,34.094 197.684,34.727 197.684,35.512 C197.684,36.293 198.316,36.93 199.102,36.93 C199.883,36.93 200.516,36.293 200.516,35.512 z M200.516,35.512" fill="#B8B8B8"/>
    <path d="M120.605,6.426 C120.605,5.645 119.969,5.008 119.188,5.008 C118.406,5.008 117.77,5.645 117.77,6.426 C117.77,7.211 118.406,7.844 119.188,7.844 C119.969,7.844 120.605,7.211 120.605,6.426 z M120.605,6.426" fill="#B8B8B8"/>
    <g>
      <path d="M384.914,75.406 C384.914,74.309 384.027,73.422 382.93,73.422 C381.836,73.422 380.945,74.309 380.945,75.406 C380.945,76.504 381.836,77.391 382.93,77.391 C384.027,77.391 384.914,76.504 384.914,75.406 z M384.914,75.406" fill="#666666"/>
      <path d="M384.914,75.406 C384.914,74.309 384.027,73.422 382.93,73.422 C381.836,73.422 380.945,74.309 380.945,75.406 C380.945,76.504 381.836,77.391 382.93,77.391 C384.027,77.391 384.914,76.504 384.914,75.406 z M384.914,75.406" fill-opacity="0" stroke="#666666" stroke-width="1" stroke-linecap="round" stroke-linejoin="round"/>
    </g>
    <g>
      <path d="M243.496,157.043 C243.496,155.949 242.609,155.059 241.512,155.059 C240.418,155.059 239.527,155.949 239.527,157.043 C239.527,158.141 240.418,159.027 241.512,159.027 C242.609,159.027 243.496,158.141 243.496,157.043 z M243.496,157.043" fill="#666666"/>
      <path d="M243.496,157.043 C243.496,155.949 242.609,155.059 241.512,155.059 C240.418,155.059 239.527,155.949 239.527,157.043 C239.527,158.141 240.418,159.027 241.512,159.027 C242.609,159.027 243.496,158.141 243.496,157.043 z M243.496,157.043" fill-opacity="0" stroke="#666666" stroke-width="1" stroke-linecap="round" stroke-linejoin="round"/>
    </g>
    <g>
      <path d="M165.023,10.262 C165.023,9.168 164.137,8.277 163.039,8.277 C161.945,8.277 161.055,9.168 161.055,10.262 C161.055,11.359 161.945,12.246 163.039,12.246 C164.137,12.246 165.023,11.359 165.023,10.262 z M165.023,10.262" fill="#666666"/>
      <path d="M165.023,10.262 C165.023,9.168 164.137,8.277 163.039,8.277 C161.945,8.277 161.055,9.168 161.055,10.262 C161.055,11.359 161.945,12.246 163.039,12.246 C164.137,12.246 165.023,11.359 165.023,10.262 z M165.023,10.262" fill-opacity="0" stroke="#666666" stroke-width="1" stroke-linecap="round" stroke-linejoin="round"/>
    </g>
    <g>
      <path d="M35.293,112.941 C35.293,111.844 34.406,110.957 33.309,110.957 C32.211,110.957 31.324,111.844 31.324,112.941 C31.324,114.039 32.211,114.926 33.309,114.926 C34.406,114.926 35.293,114.039 35.293,112.941 z M35.293,112.941" fill="#666666"/>
      <path d="M35.293,112.941 C35.293,111.844 34.406,110.957 33.309,110.957 C32.211,110.957 31.324,111.844 31.324,112.941 C31.324,114.039 32.211,114.926 33.309,114.926 C34.406,114.926 35.293,114.039 35.293,112.941 z M35.293,112.941" fill-opacity="0" stroke="#666666" stroke-width="1" stroke-linecap="round" stroke-linejoin="round"/>
    </g>
    <path d="M359.512,25.027 C359.512,23.934 358.625,23.047 357.527,23.047 C356.434,23.047 355.543,23.934 355.543,25.027 C355.543,26.125 356.434,27.012 357.527,27.012 C358.625,27.012 359.512,26.125 359.512,25.027 z M359.512,25.027" fill="#FFFFFF"/>
    <path d="M357.527,22.043 C359.176,22.047 360.512,23.379 360.512,25.027 C360.512,26.676 359.176,28.012 357.527,28.012 C355.879,28.012 354.543,26.676 354.543,25.027 C354.543,23.379 355.879,22.047 357.527,22.043 z M357.527,23.043 C356.434,23.047 355.543,23.934 355.543,25.027 C355.543,26.125 356.434,27.012 357.527,27.012 C358.625,27.012 359.512,26.125 359.512,25.027 C359.512,23.934 358.625,23.047 357.527,23.047 z M357.527,23.043" fill="#000000"/>
    <path d="M328.535,157.043 C328.535,155.949 327.648,155.059 326.555,155.059 C325.457,155.059 324.566,155.949 324.566,157.043 C324.566,158.141 325.457,159.027 326.555,159.027 C327.648,159.027 328.535,158.141 328.535,157.043 z M328.535,157.043" fill="#FFFFFF"/>
    <path d="M326.555,154.059 C328.199,154.059 329.535,155.395 329.535,157.043 C329.535,158.691 328.199,160.027 326.555,160.027 C324.906,160.027 323.566,158.691 323.566,157.043 C323.566,155.395 324.906,154.059 326.555,154.059 z M326.555,155.059 C325.457,155.059 324.566,155.949 324.566,157.043 C324.566,158.141 325.457,159.027 326.555,159.027 C327.648,159.027 328.535,158.141 328.535,157.043 C328.535,155.949 327.648,155.059 326.555,155.059 z M326.555,155.059" fill="#000000"/>
    <path d="M219.688,75.406 C219.688,74.309 218.797,73.422 217.703,73.422 C216.605,73.422 215.719,74.309 215.719,75.406 C215.719,76.504 216.605,77.391 217.703,77.391 C218.797,77.391 219.688,76.504 219.688,75.406 z M219.688,75.406" fill="#FFFFFF"/>
    <path d="M217.703,72.422 C219.352,72.422 220.688,73.758 220.688,75.406 C220.688,77.055 219.352,78.391 217.703,78.391 C216.055,78.391 214.719,77.055 214.719,75.406 C214.719,73.758 216.055,72.422 217.703,72.422 z M217.703,73.422 C216.605,73.422 215.719,74.309 215.719,75.406 C215.719,76.504 216.605,77.391 217.703,77.391 C218.797,77.391 219.688,76.504 219.688,75.406 C219.688,74.309 218.797,73.422 217.703,73.422 z M217.703,73.422" fill="#000000"/>
    <path d="M81.277,25.027 C81.277,23.934 80.391,23.047 79.293,23.047 C78.195,23.047 77.309,23.934 77.309,25.027 C77.309,26.125 78.195,27.012 79.293,27.012 C80.391,27.012 81.277,26.125 81.277,25.027 z M81.277,25.027" fill="#FFFFFF"/>
    <path d="M79.293,22.043 C80.941,22.047 82.277,23.379 82.277,25.027 C82.277,26.676 80.941,28.012 79.293,28.012 C77.645,28.012 76.309,26.676 76.309,25.027 C76.309,23.379 77.645,22.047 79.293,22.043 z M79.293,23.043 C78.195,23.047 77.309,23.934 77.309,25.027 C77.309,26.125 78.195,27.012 79.293,27.012 C80.391,27.012 81.277,26.125 81.277,25.027 C81.277,23.934 80.391,23.047 79.293,23.047 z M79.293,23.043" fill="#000000"/>
    <path d="M56.852,165.375 C56.852,164.281 55.961,163.391 54.867,163.391 C53.77,163.391 52.883,164.281 52.883,165.375 C52.883,166.473 53.77,167.359 54.867,167.359 C55.961,167.359 56.852,166.473 56.852,165.375 z M56.852,165.375" fill="#FFFFFF"/>
    <path d="M54.867,162.391 C56.516,162.391 57.852,163.727 57.852,165.375 C57.852,167.023 56.516,168.359 54.867,168.359 C53.219,168.359 51.883,167.023 51.883,165.375 C51.883,163.727 53.219,162.391 54.867,162.391 z M54.867,163.391 C53.77,163.391 52.883,164.281 52.883,165.375 C52.883,166.473 53.77,167.359 54.867,167.359 C55.961,167.359 56.852,166.473 56.852,165.375 C56.852,164.281 55.961,163.391 54.867,163.391 z M54.867,163.391" fill="#000000"/>
    <path d="M42.434,163.898 C42.078,164 41.898,164.34 41.898,164.586 C41.898,164.805 42.066,165.047 42.395,165.047 C42.742,165.047 43.113,164.758 43.113,164.27 C43.113,163.742 42.586,163.391 41.977,163.391 C41.41,163.391 41.039,163.82 40.91,164 C40.66,163.582 40.105,163.391 39.535,163.391 C38.281,163.391 37.602,164.617 37.602,164.945 C37.602,165.086 37.754,165.086 37.844,165.086 C37.961,165.086 38.031,165.086 38.07,164.957 C38.359,164.051 39.078,163.75 39.484,163.75 C39.863,163.75 40.043,163.93 40.043,164.25 C40.043,164.438 39.906,164.984 39.816,165.344 L39.477,166.711 C39.328,167.316 38.969,167.617 38.629,167.617 C38.578,167.617 38.352,167.617 38.152,167.465 C38.512,167.367 38.688,167.027 38.688,166.777 C38.688,166.559 38.52,166.32 38.191,166.32 C37.844,166.32 37.473,166.609 37.473,167.098 C37.473,167.625 38,167.977 38.609,167.977 C39.176,167.977 39.547,167.547 39.676,167.367 C39.926,167.785 40.48,167.977 41.051,167.977 C42.305,167.977 42.984,166.75 42.984,166.422 C42.984,166.281 42.832,166.281 42.742,166.281 C42.625,166.281 42.555,166.281 42.516,166.41 C42.227,167.316 41.508,167.617 41.102,167.617 C40.723,167.617 40.543,167.438 40.543,167.117 C40.543,166.91 40.672,166.379 40.762,166.012 C40.832,165.754 41.059,164.816 41.109,164.656 C41.258,164.059 41.609,163.75 41.957,163.75 C42.008,163.75 42.234,163.75 42.434,163.898 z M42.434,163.898" fill="#000000"/>
    <path d="M47.258,167.164 C47.258,166.398 47.168,165.848 46.848,165.359 C46.633,165.035 46.199,164.758 45.641,164.758 C44.023,164.758 44.023,166.66 44.023,167.164 C44.023,167.668 44.023,169.527 45.641,169.527 C47.258,169.527 47.258,167.668 47.258,167.164 z M45.641,169.332 C45.32,169.332 44.895,169.145 44.758,168.574 C44.66,168.16 44.66,167.59 44.66,167.074 C44.66,166.562 44.66,166.035 44.762,165.652 C44.91,165.102 45.355,164.953 45.641,164.953 C46.02,164.953 46.383,165.184 46.508,165.59 C46.617,165.965 46.625,166.465 46.625,167.074 C46.625,167.59 46.625,168.105 46.535,168.543 C46.395,169.18 45.922,169.332 45.641,169.332 z M45.641,169.332" fill="#000000"/>
    <path d="M22.359,110.453 C22,110.551 21.82,110.891 21.82,111.141 C21.82,111.359 21.988,111.598 22.316,111.598 C22.668,111.598 23.035,111.309 23.035,110.82 C23.035,110.293 22.508,109.941 21.898,109.941 C21.332,109.941 20.965,110.371 20.832,110.551 C20.586,110.133 20.027,109.941 19.457,109.941 C18.203,109.941 17.527,111.168 17.527,111.496 C17.527,111.637 17.676,111.637 17.766,111.637 C17.887,111.637 17.953,111.637 17.996,111.508 C18.285,110.602 19,110.301 19.41,110.301 C19.789,110.301 19.969,110.48 19.969,110.801 C19.969,110.988 19.828,111.539 19.738,111.895 L19.398,113.262 C19.25,113.867 18.891,114.168 18.551,114.168 C18.504,114.168 18.273,114.168 18.074,114.02 C18.434,113.918 18.613,113.578 18.613,113.332 C18.613,113.113 18.441,112.871 18.113,112.871 C17.766,112.871 17.398,113.16 17.398,113.648 C17.398,114.176 17.926,114.527 18.531,114.527 C19.102,114.527 19.469,114.098 19.598,113.918 C19.848,114.336 20.406,114.527 20.973,114.527 C22.23,114.527 22.906,113.301 22.906,112.973 C22.906,112.832 22.758,112.832 22.668,112.832 C22.547,112.832 22.477,112.832 22.438,112.961 C22.148,113.867 21.43,114.168 21.023,114.168 C20.645,114.168 20.465,113.988 20.465,113.668 C20.465,113.461 20.594,112.934 20.684,112.562 C20.754,112.305 20.984,111.367 21.031,111.207 C21.184,110.609 21.531,110.301 21.879,110.301 C21.93,110.301 22.16,110.301 22.359,110.453 z M22.359,110.453" fill="#000000"/>
    <path d="M25.922,111.504 C25.922,111.316 25.906,111.309 25.711,111.309 C25.266,111.75 24.629,111.758 24.344,111.758 L24.344,112.008 C24.512,112.008 24.973,112.008 25.355,111.812 L25.355,115.367 C25.355,115.598 25.355,115.688 24.656,115.688 L24.395,115.688 L24.395,115.941 C24.52,115.934 25.375,115.914 25.633,115.914 C25.852,115.914 26.73,115.934 26.883,115.941 L26.883,115.688 L26.617,115.688 C25.922,115.688 25.922,115.598 25.922,115.367 z M25.922,111.504" fill="#000000"/>
    <path d="M393.742,72.883 C393.383,72.98 393.203,73.32 393.203,73.57 C393.203,73.789 393.371,74.027 393.703,74.027 C394.051,74.027 394.418,73.738 394.418,73.25 C394.418,72.723 393.891,72.371 393.281,72.371 C392.715,72.371 392.348,72.801 392.219,72.98 C391.969,72.562 391.41,72.371 390.844,72.371 C389.586,72.371 388.91,73.598 388.91,73.926 C388.91,74.066 389.059,74.066 389.148,74.066 C389.27,74.066 389.336,74.066 389.379,73.938 C389.668,73.031 390.383,72.73 390.793,72.73 C391.172,72.73 391.352,72.91 391.352,73.23 C391.352,73.418 391.211,73.969 391.121,74.324 L390.781,75.691 C390.633,76.297 390.273,76.598 389.938,76.598 C389.887,76.598 389.656,76.598 389.457,76.449 C389.816,76.348 389.996,76.008 389.996,75.762 C389.996,75.543 389.824,75.301 389.496,75.301 C389.148,75.301 388.781,75.59 388.781,76.078 C388.781,76.605 389.309,76.957 389.914,76.957 C390.484,76.957 390.852,76.527 390.98,76.348 C391.23,76.766 391.789,76.957 392.355,76.957 C393.613,76.957 394.289,75.73 394.289,75.402 C394.289,75.262 394.141,75.262 394.051,75.262 C393.93,75.262 393.859,75.262 393.82,75.391 C393.531,76.297 392.816,76.598 392.406,76.598 C392.027,76.598 391.848,76.418 391.848,76.098 C391.848,75.891 391.977,75.363 392.066,74.992 C392.137,74.734 392.367,73.797 392.418,73.637 C392.566,73.039 392.914,72.73 393.262,72.73 C393.312,72.73 393.543,72.73 393.742,72.883 z M393.742,72.883" fill="#000000"/>
    <path d="M395.816,77.93 C395.789,78.02 395.75,78.195 395.75,78.215 C395.75,78.371 395.875,78.441 395.984,78.441 C396.109,78.441 396.223,78.348 396.258,78.285 C396.293,78.223 396.348,78 396.383,77.855 C396.418,77.723 396.496,77.402 396.535,77.227 C396.578,77.074 396.621,76.918 396.656,76.758 C396.73,76.473 396.746,76.418 396.949,76.133 C397.145,75.852 397.473,75.488 397.992,75.488 C398.398,75.488 398.406,75.844 398.406,75.977 C398.406,76.395 398.105,77.172 397.992,77.465 C397.918,77.66 397.891,77.723 397.891,77.84 C397.891,78.211 398.195,78.441 398.551,78.441 C399.25,78.441 399.555,77.477 399.555,77.371 C399.555,77.281 399.465,77.281 399.445,77.281 C399.348,77.281 399.34,77.324 399.312,77.402 C399.152,77.957 398.852,78.246 398.574,78.246 C398.426,78.246 398.398,78.148 398.398,78 C398.398,77.84 398.434,77.75 398.559,77.434 C398.641,77.219 398.93,76.48 398.93,76.09 C398.93,75.414 398.391,75.293 398.023,75.293 C397.441,75.293 397.051,75.648 396.844,75.93 C396.793,75.449 396.383,75.293 396.098,75.293 C395.797,75.293 395.637,75.512 395.547,75.672 C395.395,75.93 395.297,76.328 395.297,76.359 C395.297,76.453 395.395,76.453 395.414,76.453 C395.512,76.453 395.52,76.43 395.566,76.242 C395.672,75.832 395.805,75.488 396.078,75.488 C396.258,75.488 396.305,75.645 396.305,75.832 C396.305,75.965 396.242,76.223 396.195,76.41 C396.145,76.598 396.078,76.883 396.043,77.039 z M395.816,77.93" fill="#000000"/>
    <path d="M405.082,76.793 C405.191,76.793 405.359,76.793 405.359,76.625 C405.359,76.453 405.199,76.453 405.082,76.453 L400.926,76.453 C400.812,76.453 400.645,76.453 400.645,76.621 C400.645,76.793 400.805,76.793 400.926,76.793 z M405.082,76.793" fill="#000000"/>
    <path d="M408.453,73.934 C408.453,73.746 408.441,73.738 408.246,73.738 C407.801,74.18 407.164,74.184 406.879,74.184 L406.879,74.438 C407.047,74.438 407.508,74.438 407.891,74.242 L407.891,77.797 C407.891,78.027 407.891,78.117 407.191,78.117 L406.926,78.117 L406.926,78.371 C407.055,78.363 407.91,78.344 408.168,78.344 C408.387,78.344 409.262,78.363 409.418,78.371 L409.418,78.117 L409.152,78.117 C408.453,78.117 408.453,78.027 408.453,77.797 z M408.453,73.934" fill="#000000"/>
    <path d="M367.785,15.504 C367.426,15.602 367.246,15.941 367.246,16.191 C367.246,16.41 367.414,16.648 367.746,16.648 C368.094,16.648 368.461,16.359 368.461,15.871 C368.461,15.344 367.934,14.996 367.324,14.996 C366.758,14.996 366.391,15.426 366.262,15.602 C366.012,15.184 365.453,14.996 364.887,14.996 C363.629,14.996 362.953,16.223 362.953,16.551 C362.953,16.688 363.102,16.688 363.191,16.688 C363.312,16.688 363.379,16.688 363.422,16.559 C363.711,15.652 364.426,15.355 364.836,15.355 C365.215,15.355 365.395,15.535 365.395,15.852 C365.395,16.043 365.254,16.59 365.164,16.949 L364.824,18.312 C364.676,18.922 364.316,19.219 363.98,19.219 C363.93,19.219 363.699,19.219 363.5,19.07 C363.859,18.973 364.039,18.633 364.039,18.383 C364.039,18.164 363.867,17.926 363.539,17.926 C363.191,17.926 362.824,18.215 362.824,18.703 C362.824,19.23 363.352,19.578 363.957,19.578 C364.527,19.578 364.895,19.148 365.023,18.973 C365.273,19.391 365.832,19.578 366.398,19.578 C367.656,19.578 368.332,18.352 368.332,18.023 C368.332,17.887 368.184,17.887 368.094,17.887 C367.973,17.887 367.902,17.887 367.863,18.016 C367.574,18.922 366.859,19.219 366.449,19.219 C366.07,19.219 365.891,19.039 365.891,18.723 C365.891,18.512 366.02,17.984 366.109,17.617 C366.18,17.355 366.41,16.422 366.461,16.262 C366.609,15.664 366.957,15.355 367.305,15.355 C367.355,15.355 367.586,15.355 367.785,15.504 z M367.785,15.504" fill="#000000"/>
    <path d="M369.859,20.555 C369.832,20.645 369.793,20.816 369.793,20.84 C369.793,20.992 369.918,21.062 370.027,21.062 C370.152,21.062 370.266,20.973 370.301,20.91 C370.336,20.848 370.391,20.621 370.426,20.477 C370.461,20.344 370.539,20.023 370.578,19.848 C370.621,19.695 370.664,19.543 370.699,19.383 C370.773,19.094 370.789,19.039 370.992,18.754 C371.188,18.477 371.516,18.113 372.035,18.113 C372.441,18.113 372.449,18.469 372.449,18.602 C372.449,19.02 372.148,19.793 372.035,20.086 C371.961,20.281 371.934,20.344 371.934,20.461 C371.934,20.832 372.238,21.062 372.594,21.062 C373.293,21.062 373.598,20.102 373.598,19.996 C373.598,19.906 373.508,19.906 373.488,19.906 C373.391,19.906 373.383,19.945 373.355,20.023 C373.195,20.582 372.895,20.867 372.617,20.867 C372.469,20.867 372.441,20.77 372.441,20.621 C372.441,20.461 372.477,20.371 372.602,20.059 C372.684,19.844 372.973,19.102 372.973,18.711 C372.973,18.035 372.434,17.918 372.066,17.918 C371.484,17.918 371.094,18.273 370.887,18.551 C370.836,18.07 370.426,17.918 370.141,17.918 C369.84,17.918 369.68,18.133 369.59,18.293 C369.438,18.551 369.34,18.949 369.34,18.984 C369.34,19.074 369.438,19.074 369.457,19.074 C369.555,19.074 369.562,19.055 369.609,18.867 C369.715,18.453 369.848,18.113 370.121,18.113 C370.301,18.113 370.348,18.266 370.348,18.453 C370.348,18.586 370.285,18.844 370.238,19.031 C370.188,19.223 370.121,19.508 370.086,19.66 z M369.859,20.555" fill="#000000"/>
    <path d="M38.73,143.586 C38.527,143.09 38.285,142.629 38.055,142.363 C37.582,141.824 37.121,141.895 36.887,141.992 C36.457,142.168 36.344,142.688 36.594,143.293 C37.141,144.625 38.449,145.191 39.594,144.719 C40.441,144.371 40.688,143.605 40.285,142.633 C40.207,142.441 39.992,141.938 39.641,141.566 C39.293,141.207 38.871,141.035 38.781,141.074 C38.723,141.098 38.641,141.27 38.668,141.336 C38.684,141.379 38.715,141.387 38.793,141.414 C39.379,141.637 39.777,142.145 40.012,142.723 C40.23,143.254 40.016,143.566 39.594,143.738 C39.453,143.797 39.199,143.867 38.863,143.91 z M38.57,143.953 C37.977,144.039 37.707,143.945 37.535,143.867 C37.172,143.715 36.953,143.41 36.859,143.184 C36.75,142.918 36.742,142.566 37.074,142.43 C37.82,142.125 38.277,143.238 38.57,143.953 z M38.57,143.953" fill="#000000"/>
    <path d="M37.695,138.039 C37.129,138.273 36.746,138.508 36.484,138.895 C36.312,139.152 36.238,139.555 36.406,139.969 C36.898,141.164 38.309,140.586 38.68,140.434 C39.051,140.281 40.43,139.715 39.938,138.516 C39.445,137.32 38.066,137.887 37.695,138.039 z M39.793,138.578 C39.891,138.812 39.879,139.188 39.5,139.461 C39.227,139.66 38.801,139.836 38.418,139.992 C38.043,140.145 37.652,140.309 37.336,140.348 C36.883,140.406 36.641,140.121 36.551,139.91 C36.438,139.629 36.496,139.293 36.758,139.074 C37.004,138.879 37.371,138.723 37.82,138.535 C38.203,138.379 38.586,138.223 38.938,138.156 C39.449,138.066 39.707,138.371 39.793,138.578 z M39.793,138.578" fill="#000000"/>
    <path d="M374.484,42.668 C374.727,43.145 375,43.586 375.254,43.832 C375.766,44.336 376.219,44.23 376.449,44.113 C376.859,43.906 376.934,43.379 376.637,42.793 C375.988,41.508 374.641,41.043 373.535,41.602 C372.719,42.016 372.531,42.797 373.008,43.734 C373.098,43.918 373.355,44.406 373.734,44.75 C374.105,45.082 374.539,45.219 374.625,45.176 C374.684,45.148 374.754,44.969 374.723,44.906 C374.699,44.863 374.672,44.859 374.59,44.836 C373.988,44.656 373.555,44.18 373.273,43.625 C373.016,43.113 373.207,42.785 373.613,42.582 C373.746,42.512 373.996,42.422 374.328,42.355 z M374.617,42.289 C375.199,42.156 375.477,42.227 375.652,42.293 C376.027,42.414 376.27,42.703 376.383,42.922 C376.512,43.18 376.547,43.527 376.227,43.691 C375.508,44.055 374.965,42.98 374.617,42.289 z M374.617,42.289" fill="#000000"/>
    <path d="M373.68,46.797 C373.602,46.809 373.465,46.844 373.449,46.852 C373.34,46.906 373.336,47.02 373.375,47.102 C373.422,47.191 373.523,47.238 373.582,47.238 C373.641,47.242 373.82,47.199 373.938,47.172 C374.043,47.148 374.301,47.09 374.441,47.055 C374.566,47.031 374.691,47.004 374.816,46.973 C375.047,46.926 375.094,46.914 375.371,46.957 C375.641,46.996 376.016,47.098 376.207,47.473 C376.352,47.762 376.102,47.895 376.004,47.941 C375.707,48.094 375.047,48.156 374.797,48.184 C374.629,48.199 374.574,48.203 374.488,48.242 C374.227,48.379 374.172,48.68 374.301,48.934 C374.551,49.43 375.348,49.305 375.422,49.266 C375.488,49.234 375.457,49.168 375.449,49.152 C375.414,49.082 375.379,49.094 375.316,49.102 C374.859,49.188 374.547,49.078 374.445,48.879 C374.395,48.773 374.453,48.719 374.559,48.664 C374.672,48.609 374.75,48.602 375.02,48.578 C375.203,48.559 375.836,48.496 376.113,48.355 C376.598,48.113 376.488,47.684 376.355,47.422 C376.148,47.008 375.75,46.855 375.477,46.809 C375.805,46.602 375.766,46.25 375.66,46.047 C375.555,45.832 375.34,45.797 375.195,45.789 C374.953,45.773 374.637,45.844 374.609,45.859 C374.547,45.891 374.582,45.961 374.59,45.977 C374.625,46.047 374.641,46.043 374.793,46.012 C375.125,45.938 375.418,45.906 375.516,46.102 C375.578,46.23 375.488,46.32 375.352,46.391 C375.258,46.438 375.051,46.484 374.898,46.52 C374.746,46.551 374.52,46.605 374.395,46.637 z M373.68,46.797" fill="#000000"/>
    <path d="M377.828,53.004 C377.867,53.082 377.93,53.203 378.047,53.141 C378.172,53.078 378.113,52.965 378.07,52.879 L376.574,49.91 C376.535,49.832 376.473,49.711 376.355,49.773 C376.23,49.836 376.289,49.949 376.332,50.035 z M377.828,53.004" fill="#000000"/>
    <path d="M381.086,54.383 C381.219,54.316 381.219,54.301 381.148,54.164 C380.676,54.004 380.441,53.551 380.34,53.348 L380.16,53.438 C380.219,53.559 380.387,53.887 380.664,54.09 L378.121,55.371 C377.957,55.453 377.895,55.488 377.641,54.988 L377.547,54.801 L377.367,54.891 C377.418,54.977 377.742,55.582 377.836,55.766 C377.914,55.922 378.215,56.555 378.266,56.668 L378.445,56.578 L378.348,56.391 C378.098,55.891 378.16,55.859 378.328,55.773 z M381.086,54.383" fill="#000000"/>
    <path d="M171.547,0.867 C171.188,0.969 171.008,1.305 171.008,1.555 C171.008,1.773 171.176,2.012 171.508,2.012 C171.855,2.012 172.223,1.723 172.223,1.234 C172.223,0.707 171.695,0.359 171.09,0.359 C170.52,0.359 170.152,0.789 170.023,0.969 C169.773,0.547 169.215,0.359 168.648,0.359 C167.391,0.359 166.715,1.586 166.715,1.914 C166.715,2.055 166.863,2.055 166.953,2.055 C167.074,2.055 167.145,2.055 167.184,1.922 C167.473,1.016 168.188,0.719 168.598,0.719 C168.977,0.719 169.156,0.898 169.156,1.215 C169.156,1.406 169.016,1.953 168.926,2.312 L168.586,3.676 C168.438,4.285 168.078,4.582 167.742,4.582 C167.691,4.582 167.461,4.582 167.262,4.434 C167.621,4.336 167.801,3.996 167.801,3.746 C167.801,3.527 167.633,3.289 167.301,3.289 C166.953,3.289 166.586,3.578 166.586,4.066 C166.586,4.594 167.113,4.941 167.719,4.941 C168.289,4.941 168.656,4.516 168.785,4.336 C169.035,4.754 169.594,4.941 170.16,4.941 C171.418,4.941 172.094,3.719 172.094,3.387 C172.094,3.25 171.945,3.25 171.855,3.25 C171.734,3.25 171.664,3.25 171.625,3.379 C171.336,4.285 170.621,4.582 170.211,4.582 C169.832,4.582 169.652,4.402 169.652,4.086 C169.652,3.875 169.781,3.348 169.871,2.98 C169.941,2.719 170.172,1.785 170.223,1.625 C170.371,1.027 170.719,0.719 171.066,0.719 C171.117,0.719 171.348,0.719 171.547,0.867 z M171.547,0.867" fill="#000000"/>
    <path d="M176.293,5.086 L176.059,5.086 C176.035,5.242 175.965,5.652 175.875,5.723 C175.82,5.762 175.281,5.762 175.184,5.762 L173.902,5.762 C174.633,5.113 174.879,4.918 175.297,4.594 C175.812,4.18 176.293,3.746 176.293,3.086 C176.293,2.242 175.555,1.727 174.66,1.727 C173.797,1.727 173.211,2.332 173.211,2.973 C173.211,3.328 173.512,3.363 173.582,3.363 C173.75,3.363 173.949,3.246 173.949,2.996 C173.949,2.871 173.902,2.625 173.539,2.625 C173.754,2.129 174.23,1.977 174.559,1.977 C175.254,1.977 175.617,2.52 175.617,3.086 C175.617,3.691 175.184,4.172 174.961,4.426 L173.281,6.086 C173.211,6.148 173.211,6.16 173.211,6.355 L176.086,6.355 z M176.293,5.086" fill="#000000"/>
    <path d="M179.004,1.996 C179.004,1.887 178.918,1.734 178.723,1.734 C178.535,1.734 178.332,1.914 178.332,2.117 C178.332,2.234 178.422,2.383 178.613,2.383 C178.812,2.383 179.004,2.187 179.004,1.996 z M177.578,5.539 C177.551,5.633 177.516,5.715 177.516,5.832 C177.516,6.16 177.797,6.426 178.18,6.426 C178.879,6.426 179.184,5.465 179.184,5.359 C179.184,5.27 179.094,5.27 179.074,5.27 C178.977,5.27 178.969,5.309 178.941,5.387 C178.781,5.945 178.473,6.23 178.199,6.23 C178.062,6.23 178.027,6.141 178.027,5.988 C178.027,5.828 178.074,5.695 178.137,5.539 C178.207,5.352 178.285,5.164 178.359,4.98 C178.422,4.816 178.676,4.18 178.703,4.098 C178.723,4.027 178.746,3.941 178.746,3.875 C178.746,3.547 178.465,3.281 178.082,3.281 C177.391,3.281 177.07,4.23 177.07,4.348 C177.07,4.438 177.168,4.438 177.188,4.438 C177.285,4.438 177.293,4.402 177.316,4.328 C177.496,3.727 177.805,3.477 178.062,3.477 C178.172,3.477 178.234,3.531 178.234,3.719 C178.234,3.879 178.195,3.984 178.02,4.418 z M177.578,5.539" fill="#000000"/>
    <path d="M184.75,4.781 C184.863,4.781 185.031,4.781 185.031,4.613 C185.031,4.438 184.867,4.438 184.75,4.438 L180.594,4.438 C180.48,4.438 180.316,4.438 180.316,4.605 C180.316,4.781 180.477,4.781 180.594,4.781 z M184.75,4.781" fill="#000000"/>
    <path d="M188.125,1.922 C188.125,1.734 188.109,1.727 187.914,1.727 C187.469,2.164 186.836,2.172 186.551,2.172 L186.551,2.422 C186.715,2.422 187.176,2.422 187.559,2.227 L187.559,5.785 C187.559,6.016 187.559,6.105 186.863,6.105 L186.598,6.105 L186.598,6.355 C186.723,6.348 187.582,6.328 187.84,6.328 C188.055,6.328 188.934,6.348 189.086,6.355 L189.086,6.105 L188.824,6.105 C188.125,6.105 188.125,6.016 188.125,5.785 z M188.125,1.922" fill="#000000"/>
    <path d="M54.223,17.488 C53.863,17.586 53.684,17.926 53.684,18.176 C53.684,18.395 53.852,18.633 54.18,18.633 C54.531,18.633 54.898,18.344 54.898,17.855 C54.898,17.328 54.371,16.977 53.762,16.977 C53.195,16.977 52.828,17.406 52.695,17.586 C52.449,17.168 51.891,16.977 51.32,16.977 C50.066,16.977 49.391,18.203 49.391,18.531 C49.391,18.672 49.539,18.672 49.629,18.672 C49.746,18.672 49.816,18.672 49.859,18.543 C50.148,17.637 50.863,17.336 51.273,17.336 C51.652,17.336 51.832,17.516 51.832,17.836 C51.832,18.023 51.691,18.574 51.602,18.93 L51.262,20.297 C51.113,20.902 50.754,21.203 50.414,21.203 C50.367,21.203 50.137,21.203 49.938,21.055 C50.297,20.953 50.477,20.613 50.477,20.367 C50.477,20.148 50.305,19.906 49.977,19.906 C49.629,19.906 49.262,20.195 49.262,20.684 C49.262,21.211 49.789,21.562 50.395,21.562 C50.965,21.562 51.332,21.133 51.461,20.953 C51.711,21.371 52.27,21.562 52.836,21.562 C54.09,21.562 54.77,20.336 54.77,20.008 C54.77,19.867 54.621,19.867 54.531,19.867 C54.41,19.867 54.34,19.867 54.301,19.996 C54.012,20.902 53.293,21.203 52.887,21.203 C52.508,21.203 52.328,21.023 52.328,20.703 C52.328,20.496 52.457,19.969 52.547,19.598 C52.617,19.34 52.848,18.402 52.895,18.242 C53.047,17.645 53.395,17.336 53.742,17.336 C53.793,17.336 54.023,17.336 54.223,17.488 z M54.223,17.488" fill="#000000"/>
    <path d="M58.969,21.707 L58.73,21.707 C58.711,21.859 58.641,22.27 58.551,22.34 C58.496,22.383 57.957,22.383 57.859,22.383 L56.578,22.383 C57.309,21.734 57.555,21.539 57.973,21.211 C58.488,20.801 58.969,20.367 58.969,19.703 C58.969,18.859 58.23,18.344 57.336,18.344 C56.473,18.344 55.887,18.953 55.887,19.594 C55.887,19.949 56.188,19.984 56.258,19.984 C56.422,19.984 56.625,19.863 56.625,19.613 C56.625,19.488 56.578,19.246 56.215,19.246 C56.43,18.75 56.906,18.594 57.234,18.594 C57.93,18.594 58.293,19.141 58.293,19.703 C58.293,20.312 57.859,20.793 57.637,21.043 L55.957,22.703 C55.887,22.766 55.887,22.781 55.887,22.977 L58.762,22.977 z M58.969,21.707" fill="#000000"/>
    <path d="M61.676,18.617 C61.676,18.504 61.594,18.352 61.398,18.352 C61.211,18.352 61.008,18.531 61.008,18.734 C61.008,18.855 61.098,19 61.289,19 C61.488,19 61.676,18.805 61.676,18.617 z M60.254,22.16 C60.227,22.25 60.191,22.332 60.191,22.453 C60.191,22.781 60.473,23.043 60.855,23.043 C61.551,23.043 61.859,22.082 61.859,21.977 C61.859,21.887 61.77,21.887 61.746,21.887 C61.648,21.887 61.645,21.93 61.613,22.004 C61.453,22.562 61.148,22.852 60.875,22.852 C60.734,22.852 60.703,22.758 60.703,22.605 C60.703,22.445 60.75,22.312 60.812,22.16 C60.883,21.973 60.961,21.781 61.035,21.602 C61.098,21.434 61.352,20.801 61.379,20.715 C61.398,20.645 61.418,20.562 61.418,20.492 C61.418,20.164 61.141,19.898 60.758,19.898 C60.066,19.898 59.746,20.848 59.746,20.969 C59.746,21.059 59.844,21.059 59.863,21.059 C59.961,21.059 59.969,21.023 59.988,20.945 C60.172,20.348 60.477,20.094 60.734,20.094 C60.848,20.094 60.91,20.152 60.91,20.34 C60.91,20.5 60.867,20.605 60.695,21.035 z M60.254,22.16" fill="#000000"/>
    <path d="M67.426,21.398 C67.535,21.398 67.703,21.398 67.703,21.23 C67.703,21.059 67.543,21.059 67.426,21.059 L63.27,21.059 C63.156,21.059 62.988,21.059 62.988,21.227 C62.988,21.398 63.152,21.398 63.27,21.398 z M67.426,21.398" fill="#000000"/>
    <path d="M71.984,21.707 L71.75,21.707 C71.727,21.859 71.656,22.27 71.566,22.34 C71.512,22.383 70.973,22.383 70.875,22.383 L69.594,22.383 C70.324,21.734 70.57,21.539 70.988,21.211 C71.504,20.801 71.984,20.367 71.984,19.703 C71.984,18.859 71.246,18.344 70.355,18.344 C69.488,18.344 68.902,18.953 68.902,19.594 C68.902,19.949 69.203,19.984 69.273,19.984 C69.441,19.984 69.641,19.863 69.641,19.613 C69.641,19.488 69.594,19.246 69.23,19.246 C69.445,18.75 69.922,18.594 70.25,18.594 C70.945,18.594 71.309,19.141 71.309,19.703 C71.309,20.312 70.875,20.793 70.652,21.043 L68.973,22.703 C68.902,22.766 68.902,22.781 68.902,22.977 L71.777,22.977 z M71.984,21.707" fill="#000000"/>
    <path d="M229.941,67.863 C229.582,67.965 229.402,68.301 229.402,68.551 C229.402,68.77 229.57,69.008 229.898,69.008 C230.25,69.008 230.617,68.719 230.617,68.23 C230.617,67.703 230.09,67.355 229.48,67.355 C228.914,67.355 228.547,67.785 228.414,67.965 C228.168,67.547 227.609,67.355 227.039,67.355 C225.785,67.355 225.109,68.582 225.109,68.91 C225.109,69.051 225.258,69.051 225.348,69.051 C225.465,69.051 225.535,69.051 225.574,68.918 C225.863,68.012 226.582,67.715 226.992,67.715 C227.371,67.715 227.547,67.895 227.547,68.211 C227.547,68.402 227.41,68.949 227.32,69.309 L226.98,70.672 C226.832,71.281 226.473,71.578 226.133,71.578 C226.086,71.578 225.855,71.578 225.656,71.43 C226.016,71.332 226.195,70.992 226.195,70.742 C226.195,70.523 226.023,70.285 225.695,70.285 C225.348,70.285 224.977,70.574 224.977,71.062 C224.977,71.59 225.508,71.938 226.113,71.938 C226.684,71.938 227.051,71.512 227.18,71.332 C227.43,71.75 227.988,71.938 228.555,71.938 C229.809,71.938 230.488,70.715 230.488,70.383 C230.488,70.246 230.34,70.246 230.25,70.246 C230.129,70.246 230.059,70.246 230.02,70.375 C229.73,71.281 229.012,71.578 228.605,71.578 C228.227,71.578 228.047,71.402 228.047,71.082 C228.047,70.871 228.176,70.344 228.266,69.977 C228.336,69.719 228.566,68.781 228.613,68.621 C228.766,68.023 229.113,67.715 229.461,67.715 C229.512,67.715 229.742,67.715 229.941,67.863 z M229.941,67.863" fill="#000000"/>
    <path d="M234.688,72.082 L234.449,72.082 C234.43,72.238 234.359,72.648 234.27,72.719 C234.215,72.758 233.676,72.758 233.578,72.758 L232.297,72.758 C233.027,72.109 233.273,71.914 233.691,71.59 C234.207,71.176 234.688,70.746 234.688,70.082 C234.688,69.238 233.949,68.723 233.055,68.723 C232.191,68.723 231.605,69.328 231.605,69.969 C231.605,70.324 231.906,70.359 231.977,70.359 C232.141,70.359 232.344,70.242 232.344,69.992 C232.344,69.867 232.297,69.621 231.934,69.621 C232.148,69.125 232.625,68.973 232.949,68.973 C233.648,68.973 234.012,69.516 234.012,70.082 C234.012,70.688 233.578,71.168 233.355,71.422 L231.676,73.082 C231.605,73.145 231.605,73.156 231.605,73.352 L234.477,73.352 z M234.688,72.082" fill="#000000"/>
    <path d="M237.395,68.992 C237.395,68.883 237.312,68.73 237.117,68.73 C236.93,68.73 236.727,68.91 236.727,69.113 C236.727,69.23 236.816,69.379 237.004,69.379 C237.207,69.379 237.395,69.184 237.395,68.992 z M235.973,72.535 C235.945,72.629 235.91,72.711 235.91,72.828 C235.91,73.156 236.191,73.422 236.574,73.422 C237.27,73.422 237.578,72.461 237.578,72.355 C237.578,72.266 237.488,72.266 237.465,72.266 C237.367,72.266 237.359,72.305 237.332,72.383 C237.172,72.941 236.867,73.227 236.594,73.227 C236.453,73.227 236.418,73.137 236.418,72.984 C236.418,72.824 236.469,72.691 236.531,72.535 C236.602,72.348 236.68,72.16 236.754,71.98 C236.816,71.812 237.07,71.176 237.098,71.094 C237.117,71.023 237.137,70.941 237.137,70.871 C237.137,70.543 236.859,70.277 236.477,70.277 C235.785,70.277 235.465,71.227 235.465,71.344 C235.465,71.434 235.562,71.434 235.582,71.434 C235.68,71.434 235.688,71.398 235.707,71.324 C235.891,70.723 236.195,70.473 236.453,70.473 C236.566,70.473 236.629,70.527 236.629,70.715 C236.629,70.875 236.586,70.98 236.414,71.414 z M235.973,72.535" fill="#000000"/>
    <path d="M218.582,161.559 C218.223,161.656 218.043,161.996 218.043,162.246 C218.043,162.465 218.215,162.703 218.543,162.703 C218.891,162.703 219.258,162.414 219.258,161.926 C219.258,161.398 218.73,161.051 218.125,161.051 C217.555,161.051 217.188,161.48 217.059,161.656 C216.809,161.238 216.25,161.051 215.684,161.051 C214.43,161.051 213.75,162.277 213.75,162.605 C213.75,162.742 213.898,162.742 213.988,162.742 C214.109,162.742 214.18,162.742 214.219,162.613 C214.508,161.707 215.227,161.41 215.633,161.41 C216.012,161.41 216.191,161.59 216.191,161.906 C216.191,162.098 216.051,162.645 215.961,163.004 L215.625,164.367 C215.473,164.977 215.113,165.273 214.777,165.273 C214.727,165.273 214.496,165.273 214.297,165.125 C214.656,165.023 214.836,164.688 214.836,164.438 C214.836,164.219 214.668,163.98 214.34,163.98 C213.988,163.98 213.621,164.27 213.621,164.758 C213.621,165.285 214.148,165.633 214.758,165.633 C215.324,165.633 215.691,165.203 215.824,165.023 C216.07,165.445 216.629,165.633 217.199,165.633 C218.453,165.633 219.129,164.406 219.129,164.078 C219.129,163.938 218.98,163.938 218.891,163.938 C218.773,163.938 218.703,163.938 218.66,164.07 C218.371,164.977 217.656,165.273 217.246,165.273 C216.867,165.273 216.688,165.094 216.688,164.777 C216.688,164.566 216.82,164.039 216.91,163.672 C216.977,163.41 217.207,162.477 217.258,162.316 C217.406,161.719 217.754,161.41 218.105,161.41 C218.152,161.41 218.383,161.41 218.582,161.559 z M218.582,161.559" fill="#000000"/>
    <path d="M223.328,165.777 L223.094,165.777 C223.07,165.93 223.004,166.344 222.91,166.414 C222.855,166.453 222.32,166.453 222.223,166.453 L220.938,166.453 C221.672,165.805 221.914,165.609 222.332,165.281 C222.848,164.871 223.328,164.438 223.328,163.777 C223.328,162.934 222.59,162.418 221.699,162.418 C220.832,162.418 220.246,163.023 220.246,163.664 C220.246,164.02 220.547,164.055 220.617,164.055 C220.785,164.055 220.988,163.938 220.988,163.688 C220.988,163.559 220.938,163.316 220.574,163.316 C220.793,162.82 221.266,162.668 221.594,162.668 C222.289,162.668 222.652,163.211 222.652,163.777 C222.652,164.383 222.223,164.863 221.996,165.113 L220.316,166.773 C220.246,166.836 220.246,166.852 220.246,167.047 L223.121,167.047 z M223.328,165.777" fill="#000000"/>
    <path d="M226.039,162.688 C226.039,162.578 225.953,162.422 225.758,162.422 C225.57,162.422 225.367,162.605 225.367,162.809 C225.367,162.926 225.461,163.07 225.648,163.07 C225.852,163.07 226.039,162.875 226.039,162.688 z M224.617,166.23 C224.59,166.32 224.555,166.406 224.555,166.523 C224.555,166.852 224.832,167.117 225.215,167.117 C225.914,167.117 226.219,166.156 226.219,166.051 C226.219,165.961 226.129,165.961 226.109,165.961 C226.012,165.961 226.004,166 225.977,166.078 C225.816,166.637 225.508,166.922 225.238,166.922 C225.098,166.922 225.062,166.832 225.062,166.676 C225.062,166.516 225.109,166.383 225.176,166.23 C225.242,166.043 225.32,165.855 225.398,165.672 C225.461,165.504 225.711,164.871 225.738,164.789 C225.758,164.719 225.781,164.633 225.781,164.562 C225.781,164.238 225.5,163.973 225.117,163.973 C224.426,163.973 224.105,164.922 224.105,165.039 C224.105,165.129 224.203,165.129 224.227,165.129 C224.324,165.129 224.328,165.094 224.352,165.016 C224.531,164.418 224.84,164.168 225.098,164.168 C225.207,164.168 225.273,164.223 225.273,164.41 C225.273,164.57 225.23,164.676 225.055,165.109 z M224.617,166.23" fill="#000000"/>
    <path d="M229.828,165.473 L231.961,165.473 C232.051,165.473 232.219,165.473 232.219,165.305 C232.219,165.129 232.059,165.129 231.961,165.129 L229.828,165.129 L229.828,162.988 C229.828,162.898 229.828,162.73 229.66,162.73 C229.484,162.73 229.484,162.891 229.484,162.988 L229.484,165.129 L227.344,165.129 C227.254,165.129 227.086,165.129 227.086,165.297 C227.086,165.473 227.246,165.473 227.344,165.473 L229.484,165.473 L229.484,167.613 C229.484,167.703 229.484,167.871 229.652,167.871 C229.828,167.871 229.828,167.711 229.828,167.613 z M229.828,165.473" fill="#000000"/>
    <path d="M235.051,162.613 C235.051,162.422 235.035,162.418 234.84,162.418 C234.395,162.855 233.762,162.863 233.477,162.863 L233.477,163.113 C233.641,163.113 234.102,163.113 234.484,162.918 L234.484,166.477 C234.484,166.707 234.484,166.797 233.789,166.797 L233.523,166.797 L233.523,167.047 C233.648,167.039 234.508,167.02 234.766,167.02 C234.98,167.02 235.859,167.039 236.012,167.047 L236.012,166.797 L235.75,166.797 C235.051,166.797 235.051,166.707 235.051,166.477 z M235.051,162.613" fill="#000000"/>
    <path d="M337.891,163.488 C337.531,163.59 337.352,163.926 337.352,164.176 C337.352,164.395 337.52,164.637 337.848,164.637 C338.199,164.637 338.566,164.348 338.566,163.859 C338.566,163.328 338.039,162.98 337.43,162.98 C336.863,162.98 336.496,163.41 336.363,163.59 C336.117,163.172 335.559,162.98 334.988,162.98 C333.734,162.98 333.059,164.207 333.059,164.535 C333.059,164.676 333.207,164.676 333.297,164.676 C333.414,164.676 333.484,164.676 333.527,164.547 C333.816,163.637 334.531,163.34 334.941,163.34 C335.32,163.34 335.5,163.52 335.5,163.836 C335.5,164.027 335.359,164.574 335.27,164.934 L334.93,166.297 C334.781,166.906 334.422,167.207 334.082,167.207 C334.035,167.207 333.805,167.207 333.605,167.055 C333.965,166.957 334.145,166.617 334.145,166.367 C334.145,166.148 333.973,165.91 333.645,165.91 C333.297,165.91 332.93,166.199 332.93,166.688 C332.93,167.215 333.457,167.562 334.062,167.562 C334.633,167.562 335,167.137 335.129,166.957 C335.379,167.375 335.938,167.562 336.504,167.562 C337.758,167.562 338.438,166.34 338.438,166.008 C338.438,165.871 338.289,165.871 338.199,165.871 C338.078,165.871 338.008,165.871 337.969,166 C337.68,166.906 336.961,167.207 336.555,167.207 C336.176,167.207 335.996,167.027 335.996,166.707 C335.996,166.496 336.125,165.969 336.215,165.602 C336.285,165.344 336.516,164.406 336.562,164.246 C336.715,163.648 337.062,163.34 337.41,163.34 C337.461,163.34 337.691,163.34 337.891,163.488 z M337.891,163.488" fill="#000000"/>
    <path d="M342.637,167.707 L342.398,167.707 C342.379,167.863 342.309,168.273 342.219,168.344 C342.164,168.387 341.625,168.387 341.527,168.387 L340.246,168.387 C340.977,167.738 341.223,167.543 341.641,167.215 C342.156,166.801 342.637,166.371 342.637,165.707 C342.637,164.863 341.898,164.348 341.004,164.348 C340.141,164.348 339.555,164.953 339.555,165.594 C339.555,165.949 339.855,165.984 339.926,165.984 C340.09,165.984 340.293,165.867 340.293,165.617 C340.293,165.492 340.246,165.246 339.883,165.246 C340.098,164.75 340.574,164.598 340.902,164.598 C341.598,164.598 341.961,165.141 341.961,165.707 C341.961,166.312 341.527,166.797 341.305,167.047 L339.625,168.707 C339.555,168.77 339.555,168.781 339.555,168.977 L342.43,168.977 z M342.637,167.707" fill="#000000"/>
    <path d="M345.344,164.621 C345.344,164.508 345.262,164.355 345.066,164.355 C344.879,164.355 344.676,164.535 344.676,164.738 C344.676,164.855 344.766,165.004 344.957,165.004 C345.156,165.004 345.344,164.809 345.344,164.621 z M343.922,168.16 C343.895,168.254 343.859,168.336 343.859,168.453 C343.859,168.781 344.141,169.047 344.523,169.047 C345.219,169.047 345.527,168.086 345.527,167.98 C345.527,167.891 345.438,167.891 345.414,167.891 C345.316,167.891 345.312,167.934 345.281,168.008 C345.121,168.566 344.816,168.852 344.543,168.852 C344.402,168.852 344.371,168.762 344.371,168.609 C344.371,168.449 344.418,168.316 344.48,168.16 C344.551,167.973 344.629,167.785 344.703,167.605 C344.766,167.438 345.02,166.801 345.047,166.719 C345.066,166.648 345.086,166.566 345.086,166.496 C345.086,166.168 344.809,165.902 344.426,165.902 C343.734,165.902 343.414,166.852 343.414,166.969 C343.414,167.059 343.512,167.059 343.531,167.059 C343.629,167.059 343.637,167.023 343.656,166.949 C343.84,166.348 344.145,166.098 344.402,166.098 C344.516,166.098 344.578,166.152 344.578,166.34 C344.578,166.504 344.535,166.605 344.363,167.039 z M343.922,168.16" fill="#000000"/>
    <path d="M349.133,167.402 L351.27,167.402 C351.359,167.402 351.527,167.402 351.527,167.234 C351.527,167.059 351.367,167.059 351.27,167.059 L349.133,167.059 L349.133,164.918 C349.133,164.828 349.133,164.66 348.965,164.66 C348.793,164.66 348.793,164.82 348.793,164.918 L348.793,167.059 L346.652,167.059 C346.559,167.059 346.395,167.059 346.395,167.227 C346.395,167.402 346.555,167.402 346.652,167.402 L348.793,167.402 L348.793,169.543 C348.793,169.633 348.793,169.801 348.961,169.801 C349.133,169.801 349.133,169.641 349.133,169.543 z M349.133,167.402" fill="#000000"/>
    <path d="M355.543,167.707 L355.305,167.707 C355.285,167.863 355.215,168.273 355.125,168.344 C355.07,168.387 354.531,168.387 354.434,168.387 L353.152,168.387 C353.883,167.738 354.129,167.543 354.547,167.215 C355.062,166.801 355.543,166.371 355.543,165.707 C355.543,164.863 354.805,164.348 353.91,164.348 C353.047,164.348 352.461,164.953 352.461,165.594 C352.461,165.949 352.762,165.984 352.832,165.984 C352.996,165.984 353.199,165.867 353.199,165.617 C353.199,165.492 353.152,165.246 352.789,165.246 C353.004,164.75 353.48,164.598 353.809,164.598 C354.504,164.598 354.867,165.141 354.867,165.707 C354.867,166.312 354.434,166.797 354.211,167.047 L352.531,168.707 C352.461,168.77 352.461,168.781 352.461,168.977 L355.336,168.977 z M355.543,167.707" fill="#000000"/>
    <path d="M188,30.902 C188.344,31.309 188.715,31.672 189.016,31.855 C189.629,32.227 190.047,32.02 190.242,31.855 C190.594,31.555 190.543,31.023 190.121,30.527 C189.191,29.422 187.773,29.285 186.828,30.082 C186.129,30.676 186.129,31.477 186.809,32.281 C186.941,32.441 187.301,32.855 187.75,33.102 C188.188,33.336 188.645,33.371 188.719,33.309 C188.766,33.266 188.793,33.078 188.746,33.023 C188.715,32.984 188.688,32.988 188.602,32.988 C187.977,32.953 187.441,32.59 187.043,32.113 C186.672,31.676 186.781,31.312 187.129,31.02 C187.246,30.922 187.465,30.777 187.773,30.633 z M188.039,30.504 C188.574,30.238 188.863,30.242 189.047,30.266 C189.441,30.297 189.746,30.523 189.902,30.711 C190.09,30.93 190.203,31.262 189.93,31.492 C189.312,32.012 188.535,31.094 188.039,30.504 z M188.039,30.504" fill="#000000"/>
    <path d="M190.055,36.309 L189.934,36.164 C189.828,36.23 189.543,36.402 189.453,36.383 C189.398,36.367 189.121,36.039 189.07,35.98 L188.406,35.195 C189.184,35.309 189.43,35.359 189.844,35.445 C190.363,35.547 190.875,35.617 191.281,35.277 C191.797,34.84 191.73,34.125 191.27,33.578 C190.824,33.051 190.148,33.004 189.758,33.336 C189.539,33.52 189.672,33.719 189.711,33.762 C189.797,33.863 189.973,33.926 190.125,33.797 C190.203,33.734 190.328,33.578 190.141,33.355 C190.555,33.23 190.891,33.441 191.062,33.645 C191.422,34.07 191.277,34.57 190.93,34.863 C190.559,35.176 190.043,35.16 189.773,35.152 L187.891,34.984 C187.816,34.973 187.809,34.98 187.691,35.082 L189.172,36.836 z M190.055,36.309" fill="#000000"/>
    <path d="M193.344,36.371 C193.41,36.312 193.461,36.184 193.359,36.062 C193.262,35.949 193.047,35.918 192.926,36.023 C192.852,36.086 192.809,36.215 192.906,36.332 C193.012,36.453 193.227,36.469 193.344,36.371 z M190.441,37.328 C190.371,37.359 190.305,37.383 190.23,37.441 C190.031,37.613 190.012,37.918 190.211,38.152 C190.57,38.578 191.316,38.27 191.383,38.219 C191.438,38.172 191.391,38.113 191.379,38.102 C191.328,38.043 191.301,38.059 191.238,38.082 C190.812,38.273 190.48,38.23 190.34,38.066 C190.27,37.98 190.305,37.914 190.398,37.832 C190.5,37.75 190.605,37.711 190.73,37.672 C190.883,37.617 191.035,37.566 191.188,37.52 C191.32,37.473 191.84,37.297 191.906,37.27 C191.957,37.25 192.02,37.219 192.062,37.184 C192.262,37.012 192.281,36.707 192.082,36.473 C191.727,36.047 190.98,36.344 190.91,36.402 C190.852,36.449 190.902,36.512 190.914,36.523 C190.965,36.582 190.988,36.57 191.047,36.543 C191.508,36.344 191.82,36.402 191.953,36.559 C192.012,36.629 192.008,36.695 191.895,36.793 C191.797,36.875 191.711,36.902 191.355,37.02 z M190.441,37.328" fill="#000000"/>
    <path d="M194.609,41.32 C194.664,41.391 194.75,41.492 194.855,41.406 C194.961,41.316 194.879,41.219 194.816,41.145 L192.672,38.605 C192.613,38.535 192.527,38.434 192.426,38.52 C192.32,38.609 192.402,38.707 192.461,38.781 z M194.609,41.32" fill="#000000"/>
    <path d="M198.098,41.906 C198.211,41.809 198.207,41.797 198.109,41.68 C197.609,41.633 197.277,41.25 197.129,41.074 L196.977,41.203 C197.062,41.305 197.301,41.586 197.617,41.719 L195.441,43.555 C195.301,43.676 195.246,43.723 194.887,43.297 L194.75,43.133 L194.598,43.262 C194.664,43.336 195.121,43.848 195.254,44.008 C195.367,44.141 195.805,44.688 195.883,44.785 L196.035,44.656 L195.898,44.492 C195.539,44.066 195.594,44.02 195.734,43.902 z M198.098,41.906" fill="#000000"/>
    <path d="M110.121,13.793 C110.645,13.699 111.148,13.562 111.461,13.398 C112.086,13.051 112.117,12.586 112.074,12.336 C111.996,11.879 111.512,11.656 110.867,11.77 C109.445,12.016 108.613,13.172 108.824,14.391 C108.984,15.293 109.676,15.699 110.711,15.516 C110.918,15.48 111.457,15.379 111.898,15.117 C112.32,14.855 112.578,14.48 112.562,14.387 C112.551,14.324 112.402,14.203 112.332,14.215 C112.281,14.223 112.27,14.25 112.227,14.324 C111.883,14.844 111.301,15.125 110.688,15.23 C110.121,15.328 109.863,15.051 109.785,14.602 C109.758,14.453 109.746,14.188 109.773,13.852 z M109.797,13.559 C109.836,12.961 109.988,12.715 110.102,12.566 C110.328,12.242 110.672,12.094 110.918,12.051 C111.199,12 111.543,12.07 111.605,12.426 C111.742,13.219 110.559,13.426 109.797,13.559 z M109.797,13.559" fill="#000000"/>
    <path d="M115.828,14.742 L115.645,14.773 C115.648,14.898 115.648,15.23 115.586,15.301 C115.547,15.34 115.125,15.414 115.047,15.426 L114.039,15.605 C114.523,14.992 114.691,14.805 114.977,14.488 C115.324,14.094 115.645,13.688 115.555,13.164 C115.438,12.5 114.785,12.195 114.082,12.316 C113.398,12.438 113.02,12.996 113.109,13.5 C113.16,13.781 113.398,13.766 113.453,13.758 C113.586,13.734 113.73,13.613 113.695,13.414 C113.68,13.316 113.605,13.129 113.32,13.18 C113.422,12.762 113.773,12.574 114.035,12.531 C114.582,12.434 114.945,12.812 115.02,13.258 C115.105,13.734 114.828,14.176 114.688,14.402 L113.594,15.941 C113.547,16 113.547,16.012 113.574,16.164 L115.84,15.77 z M115.828,14.742" fill="#000000"/>
    <path d="M117.539,11.934 C117.523,11.848 117.438,11.738 117.281,11.766 C117.133,11.789 117,11.961 117.027,12.121 C117.043,12.215 117.137,12.316 117.285,12.289 C117.445,12.262 117.566,12.082 117.539,11.934 z M116.906,14.922 C116.895,14.996 116.879,15.066 116.895,15.16 C116.941,15.422 117.199,15.59 117.5,15.539 C118.051,15.441 118.16,14.641 118.145,14.559 C118.133,14.488 118.059,14.5 118.043,14.504 C117.969,14.516 117.969,14.551 117.957,14.613 C117.906,15.074 117.703,15.344 117.488,15.383 C117.379,15.398 117.34,15.332 117.316,15.211 C117.297,15.086 117.316,14.977 117.344,14.844 C117.375,14.688 117.41,14.527 117.445,14.375 C117.469,14.234 117.582,13.699 117.59,13.629 C117.598,13.574 117.602,13.504 117.594,13.449 C117.547,13.191 117.293,13.02 116.988,13.074 C116.445,13.168 116.324,13.961 116.34,14.051 C116.352,14.125 116.43,14.109 116.445,14.109 C116.523,14.094 116.523,14.066 116.531,14.004 C116.59,13.504 116.797,13.266 117,13.23 C117.09,13.215 117.145,13.25 117.172,13.398 C117.195,13.523 117.176,13.613 117.098,13.977 z M116.906,14.922" fill="#000000"/>
    <path d="M122.453,13.336 C122.539,13.32 122.672,13.297 122.648,13.168 C122.625,13.031 122.5,13.051 122.406,13.066 L119.129,13.641 C119.043,13.656 118.91,13.676 118.934,13.809 C118.957,13.945 119.082,13.926 119.176,13.91 z M122.453,13.336" fill="#000000"/>
    <path d="M126.086,12.953 L125.898,12.984 C125.906,13.109 125.906,13.441 125.844,13.512 C125.805,13.551 125.383,13.625 125.305,13.637 L124.293,13.812 C124.781,13.203 124.949,13.016 125.234,12.699 C125.582,12.305 125.902,11.898 125.812,11.375 C125.695,10.711 125.043,10.406 124.34,10.527 C123.656,10.645 123.277,11.207 123.367,11.711 C123.414,11.992 123.656,11.977 123.711,11.969 C123.844,11.945 123.988,11.824 123.953,11.625 C123.934,11.527 123.863,11.34 123.578,11.391 C123.68,10.973 124.031,10.785 124.289,10.738 C124.84,10.645 125.199,11.023 125.277,11.469 C125.363,11.945 125.086,12.383 124.945,12.613 L123.848,14.152 C123.805,14.211 123.805,14.223 123.832,14.375 L126.098,13.98 z M126.086,12.953" fill="#000000"/>
    <path d="M236.383,118.223 C236.531,118.734 236.723,119.219 236.922,119.508 C237.336,120.094 237.801,120.074 238.047,120.004 C238.492,119.875 238.66,119.367 238.477,118.742 C238.074,117.355 236.832,116.652 235.645,117 C234.766,117.254 234.441,117.988 234.734,119 C234.793,119.199 234.953,119.723 235.262,120.133 C235.566,120.523 235.969,120.738 236.062,120.711 C236.125,120.695 236.227,120.531 236.207,120.465 C236.191,120.418 236.164,120.41 236.086,120.375 C235.531,120.086 235.188,119.539 235.016,118.941 C234.855,118.391 235.105,118.102 235.539,117.977 C235.684,117.934 235.945,117.891 236.285,117.883 z M236.582,117.871 C237.18,117.848 237.438,117.973 237.598,118.066 C237.945,118.258 238.133,118.582 238.199,118.82 C238.281,119.098 238.25,119.445 237.906,119.547 C237.133,119.77 236.797,118.613 236.582,117.871 z M236.582,117.871" fill="#000000"/>
    <path d="M236.066,124 L236.016,123.816 C235.891,123.836 235.559,123.875 235.484,123.82 C235.441,123.785 235.32,123.375 235.301,123.301 L235.012,122.312 C235.676,122.73 235.879,122.875 236.223,123.121 C236.656,123.426 237.094,123.699 237.605,123.551 C238.254,123.363 238.484,122.68 238.285,121.996 C238.09,121.332 237.496,121.016 237,121.16 C236.727,121.238 236.77,121.477 236.785,121.531 C236.82,121.66 236.957,121.789 237.152,121.73 C237.246,121.703 237.422,121.613 237.344,121.332 C237.77,121.391 237.996,121.719 238.07,121.973 C238.223,122.508 237.887,122.906 237.453,123.031 C236.988,123.168 236.52,122.945 236.277,122.828 L234.629,121.906 C234.562,121.867 234.555,121.871 234.402,121.914 L235.047,124.121 z M236.066,124" fill="#000000"/>
    <path d="M239.047,125.391 C239.133,125.367 239.23,125.266 239.188,125.117 C239.145,124.973 238.961,124.855 238.805,124.902 C238.715,124.93 238.621,125.031 238.664,125.176 C238.707,125.332 238.902,125.434 239.047,125.391 z M236.008,125.09 C235.93,125.086 235.859,125.078 235.766,125.105 C235.516,125.18 235.375,125.453 235.461,125.746 C235.617,126.281 236.422,126.305 236.504,126.281 C236.574,126.262 236.555,126.191 236.547,126.176 C236.527,126.098 236.492,126.102 236.426,126.098 C235.965,126.102 235.676,125.93 235.613,125.719 C235.582,125.613 235.645,125.566 235.762,125.531 C235.887,125.496 236,125.504 236.129,125.516 C236.289,125.527 236.453,125.547 236.609,125.562 C236.75,125.574 237.297,125.625 237.367,125.629 C237.426,125.629 237.492,125.625 237.547,125.609 C237.797,125.539 237.941,125.266 237.855,124.969 C237.699,124.438 236.898,124.406 236.809,124.43 C236.738,124.453 236.762,124.527 236.766,124.543 C236.785,124.617 236.816,124.613 236.879,124.613 C237.379,124.621 237.641,124.801 237.699,124.996 C237.723,125.082 237.695,125.145 237.551,125.188 C237.426,125.223 237.336,125.211 236.965,125.176 z M236.008,125.09" fill="#000000"/>
    <path d="M263.766,151.469 C264.297,151.469 264.816,151.422 265.152,151.309 C265.828,151.078 265.941,150.625 265.941,150.371 C265.941,149.906 265.504,149.605 264.848,149.605 C263.406,149.605 262.387,150.602 262.387,151.836 C262.387,152.754 263,153.27 264.051,153.27 C264.258,153.27 264.809,153.262 265.285,153.078 C265.75,152.895 266.066,152.57 266.066,152.473 C266.066,152.41 265.941,152.266 265.867,152.266 C265.82,152.266 265.805,152.289 265.75,152.355 C265.32,152.809 264.695,152.984 264.074,152.984 C263.5,152.984 263.293,152.664 263.293,152.211 C263.293,152.059 263.324,151.797 263.414,151.469 z M263.484,151.184 C263.629,150.602 263.82,150.387 263.957,150.258 C264.234,149.98 264.602,149.891 264.848,149.891 C265.137,149.891 265.461,150.02 265.461,150.379 C265.461,151.184 264.258,151.184 263.484,151.184 z M263.484,151.184" fill="#000000"/>
    <path d="M269.227,153.387 L269.035,153.387 C269.02,153.508 268.965,153.84 268.891,153.895 C268.848,153.926 268.418,153.926 268.34,153.926 L267.312,153.926 C267.898,153.41 268.094,153.254 268.426,152.988 C268.84,152.66 269.227,152.316 269.227,151.785 C269.227,151.109 268.633,150.695 267.918,150.695 C267.227,150.695 266.758,151.184 266.758,151.695 C266.758,151.98 267,152.008 267.055,152.008 C267.188,152.008 267.352,151.914 267.352,151.711 C267.352,151.613 267.312,151.418 267.023,151.418 C267.195,151.02 267.574,150.898 267.836,150.898 C268.395,150.898 268.684,151.332 268.684,151.785 C268.684,152.27 268.34,152.656 268.16,152.855 L266.816,154.184 C266.758,154.234 266.758,154.246 266.758,154.402 L269.059,154.402 z M269.227,153.387" fill="#000000"/>
    <path d="M271.391,150.914 C271.391,150.824 271.324,150.703 271.168,150.703 C271.02,150.703 270.855,150.848 270.855,151.008 C270.855,151.105 270.93,151.223 271.078,151.223 C271.242,151.223 271.391,151.066 271.391,150.914 z M270.254,153.75 C270.23,153.82 270.203,153.887 270.203,153.984 C270.203,154.246 270.426,154.457 270.734,154.457 C271.293,154.457 271.539,153.688 271.539,153.605 C271.539,153.531 271.465,153.531 271.449,153.531 C271.371,153.531 271.363,153.566 271.344,153.625 C271.215,154.074 270.969,154.301 270.75,154.301 C270.641,154.301 270.609,154.23 270.609,154.105 C270.609,153.977 270.648,153.871 270.699,153.75 C270.758,153.598 270.816,153.449 270.879,153.301 C270.93,153.168 271.129,152.66 271.152,152.594 C271.168,152.539 271.188,152.473 271.188,152.414 C271.188,152.152 270.961,151.941 270.656,151.941 C270.102,151.941 269.848,152.699 269.848,152.793 C269.848,152.867 269.926,152.867 269.941,152.867 C270.02,152.867 270.027,152.84 270.043,152.777 C270.188,152.297 270.434,152.098 270.641,152.098 C270.727,152.098 270.777,152.141 270.777,152.293 C270.777,152.422 270.746,152.504 270.605,152.852 z M270.254,153.75" fill="#000000"/>
    <path d="M274.422,153.141 L276.129,153.141 C276.203,153.141 276.336,153.141 276.336,153.008 C276.336,152.867 276.207,152.867 276.129,152.867 L274.422,152.867 L274.422,151.156 C274.422,151.082 274.422,150.949 274.289,150.949 C274.148,150.949 274.148,151.078 274.148,151.156 L274.148,152.867 L272.438,152.867 C272.363,152.867 272.23,152.867 272.23,153 C272.23,153.141 272.359,153.141 272.438,153.141 L274.148,153.141 L274.148,154.855 C274.148,154.926 274.148,155.059 274.285,155.059 C274.422,155.059 274.422,154.93 274.422,154.855 z M274.422,153.141" fill="#000000"/>
    <path d="M278.602,150.852 C278.602,150.703 278.59,150.695 278.434,150.695 C278.078,151.047 277.57,151.055 277.34,151.055 L277.34,151.254 C277.477,151.254 277.844,151.254 278.148,151.098 L278.148,153.945 C278.148,154.129 278.148,154.199 277.594,154.199 L277.379,154.199 L277.379,154.402 C277.48,154.395 278.168,154.379 278.375,154.379 C278.547,154.379 279.25,154.395 279.371,154.402 L279.371,154.199 L279.16,154.199 C278.602,154.199 278.602,154.129 278.602,153.945 z M278.602,150.852" fill="#000000"/>
    <g>
      <path d="M272.625,51.508 C272.625,50.41 271.738,49.523 270.645,49.523 C269.547,49.523 268.66,50.41 268.66,51.508 C268.66,52.602 269.547,53.492 270.645,53.492 C271.738,53.492 272.625,52.602 272.625,51.508 z M272.625,51.508" fill="#666666"/>
      <path d="M272.625,51.508 C272.625,50.41 271.738,49.523 270.645,49.523 C269.547,49.523 268.66,50.41 268.66,51.508 C268.66,52.602 269.547,53.492 270.645,53.492 C271.738,53.492 272.625,52.602 272.625,51.508 z M272.625,51.508" fill-opacity="0" stroke="#666666" stroke-width="1" stroke-linecap="round" stroke-linejoin="round"/>
    </g>
    <path d="M272.625,40.168 C272.625,39.074 271.738,38.184 270.641,38.184 C269.547,38.184 268.66,39.074 268.66,40.168 C268.66,41.266 269.547,42.152 270.641,42.152 C271.738,42.152 272.625,41.266 272.625,40.168 z M272.625,40.168" fill="#FFFFFF"/>
    <path d="M270.641,37.184 C272.289,37.184 273.625,38.52 273.625,40.168 C273.625,41.816 272.289,43.152 270.641,43.152 C268.992,43.152 267.66,41.816 267.656,40.168 C267.66,38.52 268.992,37.184 270.641,37.184 z M270.641,38.184 C269.547,38.184 268.66,39.074 268.66,40.168 C268.66,41.266 269.547,42.152 270.641,42.152 C271.738,42.152 272.625,41.266 272.625,40.168 C272.625,39.074 271.738,38.184 270.641,38.184 z M270.641,38.184" fill="#000000"/>
    <path d="M282.527,50.434 C282.535,50.387 282.551,50.344 282.551,50.289 C282.551,50.152 282.453,50.074 282.32,50.074 C282.238,50.074 282.023,50.129 281.992,50.418 C281.848,50.121 281.57,49.914 281.25,49.914 C280.344,49.914 279.355,51.031 279.355,52.18 C279.355,52.969 279.84,53.438 280.414,53.438 C280.887,53.438 281.258,53.062 281.34,52.977 L281.348,52.984 C281.18,53.691 281.086,54.02 281.086,54.035 C281.051,54.105 280.781,54.895 279.938,54.895 C279.785,54.895 279.523,54.887 279.297,54.816 C279.539,54.746 279.625,54.539 279.625,54.402 C279.625,54.273 279.539,54.121 279.324,54.121 C279.148,54.121 278.891,54.266 278.891,54.586 C278.891,54.91 279.188,55.07 279.953,55.07 C280.949,55.07 281.523,54.449 281.641,53.973 z M281.492,52.418 C281.441,52.625 281.258,52.824 281.086,52.977 C280.918,53.117 280.668,53.262 280.438,53.262 C280.039,53.262 279.922,52.848 279.922,52.527 C279.922,52.145 280.152,51.207 280.367,50.801 C280.582,50.41 280.926,50.09 281.258,50.09 C281.785,50.09 281.898,50.734 281.898,50.773 C281.898,50.816 281.883,50.863 281.875,50.895 z M281.492,52.418" fill="#000000"/>
    <g clip-path="url(#Clip_5)">
      <path d="M285.148,47.992 C285.148,47.984 285.148,47.906 285.047,47.906 C284.863,47.906 284.281,47.969 284.074,47.984 C284.008,47.992 283.922,48 283.922,48.145 C283.922,48.242 283.992,48.242 284.113,48.242 C284.496,48.242 284.512,48.297 284.512,48.375 L284.488,48.535 L283.332,53.125 C283.301,53.238 283.301,53.254 283.301,53.301 C283.301,53.484 283.461,53.523 283.531,53.523 C283.66,53.523 283.785,53.43 283.824,53.316 L283.977,52.711 L284.152,51.996 C284.199,51.82 284.25,51.645 284.289,51.461 C284.305,51.414 284.367,51.148 284.375,51.102 C284.398,51.031 284.648,50.586 284.918,50.367 C285.094,50.242 285.34,50.09 285.684,50.09 C286.027,50.09 286.113,50.359 286.113,50.648 C286.113,51.078 285.809,51.945 285.617,52.434 C285.555,52.617 285.516,52.711 285.516,52.871 C285.516,53.246 285.793,53.523 286.168,53.523 C286.918,53.523 287.215,52.363 287.215,52.297 C287.215,52.219 287.141,52.219 287.117,52.219 C287.039,52.219 287.039,52.242 286.996,52.363 C286.879,52.785 286.625,53.352 286.184,53.352 C286.051,53.352 285.992,53.27 285.992,53.086 C285.992,52.887 286.066,52.695 286.137,52.52 C286.266,52.18 286.625,51.23 286.625,50.766 C286.625,50.25 286.305,49.914 285.707,49.914 C285.203,49.914 284.82,50.16 284.527,50.527 z M285.148,47.992" fill="#000000"/>
    </g>
    <path d="M291.191,51.262 C291.191,50.434 290.633,49.914 289.914,49.914 C288.848,49.914 287.777,51.047 287.777,52.18 C287.777,52.969 288.312,53.523 289.055,53.523 C290.113,53.523 291.191,52.426 291.191,51.262 z M289.062,53.352 C288.719,53.352 288.367,53.102 288.367,52.48 C288.367,52.09 288.574,51.23 288.832,50.824 C289.23,50.211 289.684,50.09 289.906,50.09 C290.371,50.09 290.609,50.473 290.609,50.949 C290.609,51.262 290.449,52.098 290.145,52.617 C289.867,53.078 289.43,53.352 289.062,53.352 z M289.062,53.352" fill="#000000"/>
    <path d="M294.434,50.457 C294.211,50.465 294.051,50.641 294.051,50.816 C294.051,50.926 294.125,51.047 294.297,51.047 C294.473,51.047 294.664,50.91 294.664,50.602 C294.664,50.242 294.324,49.914 293.715,49.914 C292.664,49.914 292.371,50.727 292.371,51.078 C292.371,51.699 292.961,51.82 293.191,51.867 C293.605,51.945 294.02,52.035 294.02,52.473 C294.02,52.68 293.836,53.352 292.879,53.352 C292.77,53.352 292.156,53.352 291.973,52.926 C292.273,52.969 292.473,52.727 292.473,52.504 C292.473,52.32 292.348,52.227 292.18,52.227 C291.973,52.227 291.73,52.395 291.73,52.75 C291.73,53.207 292.188,53.523 292.871,53.523 C294.164,53.523 294.473,52.562 294.473,52.203 C294.473,51.914 294.324,51.715 294.227,51.621 C294.012,51.398 293.781,51.355 293.43,51.285 C293.145,51.223 292.824,51.164 292.824,50.809 C292.824,50.574 293.016,50.09 293.715,50.09 C293.914,50.09 294.312,50.145 294.434,50.457 z M294.434,50.457" fill="#000000"/>
    <path d="M296.699,50.25 L297.445,50.25 C297.605,50.25 297.688,50.25 297.688,50.09 C297.688,50.004 297.605,50.004 297.461,50.004 L296.762,50.004 C297.047,48.871 297.09,48.711 297.09,48.664 C297.09,48.527 296.992,48.449 296.855,48.449 C296.832,48.449 296.609,48.457 296.539,48.734 L296.227,50.004 L295.477,50.004 C295.32,50.004 295.238,50.004 295.238,50.152 C295.238,50.25 295.301,50.25 295.461,50.25 L296.164,50.25 C295.59,52.512 295.559,52.648 295.559,52.793 C295.559,53.223 295.859,53.523 296.289,53.523 C297.105,53.523 297.559,52.363 297.559,52.297 C297.559,52.219 297.496,52.219 297.461,52.219 C297.391,52.219 297.383,52.242 297.344,52.328 C297,53.16 296.578,53.352 296.309,53.352 C296.141,53.352 296.059,53.246 296.059,52.984 C296.059,52.793 296.074,52.734 296.109,52.602 z M296.699,50.25" fill="#000000"/>
    <path d="M280.145,37.445 C280.145,37.438 280.145,37.359 280.043,37.359 C279.859,37.359 279.277,37.422 279.07,37.438 C279.004,37.445 278.918,37.453 278.918,37.598 C278.918,37.695 278.988,37.695 279.109,37.695 C279.492,37.695 279.508,37.75 279.508,37.828 L279.484,37.988 L278.328,42.578 C278.297,42.691 278.297,42.707 278.297,42.754 C278.297,42.938 278.457,42.977 278.527,42.977 C278.656,42.977 278.781,42.883 278.82,42.77 L278.973,42.164 L279.148,41.449 C279.195,41.273 279.246,41.098 279.285,40.914 C279.301,40.867 279.363,40.602 279.371,40.555 C279.395,40.484 279.645,40.035 279.914,39.82 C280.09,39.695 280.336,39.543 280.68,39.543 C281.023,39.543 281.109,39.812 281.109,40.102 C281.109,40.531 280.805,41.398 280.613,41.887 C280.551,42.07 280.512,42.164 280.512,42.324 C280.512,42.699 280.789,42.977 281.164,42.977 C281.914,42.977 282.211,41.812 282.211,41.75 C282.211,41.672 282.137,41.672 282.113,41.672 C282.035,41.672 282.035,41.695 281.992,41.812 C281.875,42.238 281.621,42.801 281.18,42.801 C281.047,42.801 280.988,42.723 280.988,42.539 C280.988,42.34 281.062,42.148 281.133,41.973 C281.262,41.633 281.621,40.684 281.621,40.219 C281.621,39.703 281.301,39.367 280.703,39.367 C280.199,39.367 279.816,39.613 279.523,39.98 z M280.145,37.445" fill="#000000"/>
    <path d="M285.422,39.879 C285.277,39.582 285.047,39.367 284.688,39.367 C283.758,39.367 282.77,40.539 282.77,41.703 C282.77,42.453 283.207,42.977 283.828,42.977 C283.988,42.977 284.387,42.945 284.863,42.379 C284.93,42.715 285.207,42.977 285.59,42.977 C285.867,42.977 286.051,42.793 286.18,42.539 C286.316,42.254 286.418,41.766 286.418,41.75 C286.418,41.672 286.348,41.672 286.324,41.672 C286.242,41.672 286.234,41.703 286.211,41.812 C286.074,42.332 285.934,42.801 285.605,42.801 C285.391,42.801 285.367,42.594 285.367,42.438 C285.367,42.262 285.383,42.195 285.469,41.848 C285.559,41.512 285.574,41.434 285.645,41.129 L285.934,40.012 C285.988,39.789 285.988,39.773 285.988,39.742 C285.988,39.605 285.895,39.527 285.758,39.527 C285.566,39.527 285.445,39.703 285.422,39.879 z M284.906,41.941 C284.863,42.086 284.863,42.102 284.746,42.238 C284.395,42.676 284.066,42.801 283.844,42.801 C283.445,42.801 283.336,42.363 283.336,42.055 C283.336,41.656 283.59,40.676 283.773,40.309 C284.02,39.836 284.379,39.543 284.699,39.543 C285.215,39.543 285.328,40.195 285.328,40.242 C285.328,40.293 285.312,40.34 285.305,40.379 z M284.906,41.941" fill="#000000"/>
    <path d="M287.359,42.422 C287.336,42.539 287.289,42.723 287.289,42.762 C287.289,42.906 287.402,42.977 287.52,42.977 C287.617,42.977 287.758,42.914 287.816,42.754 C287.824,42.738 287.918,42.363 287.965,42.164 L288.141,41.449 C288.191,41.273 288.238,41.098 288.277,40.914 C288.309,40.777 288.371,40.547 288.379,40.516 C288.5,40.27 288.922,39.543 289.68,39.543 C290.039,39.543 290.109,39.836 290.109,40.102 C290.109,40.594 289.719,41.613 289.594,41.957 C289.52,42.141 289.512,42.238 289.512,42.324 C289.512,42.699 289.793,42.977 290.164,42.977 C290.914,42.977 291.211,41.812 291.211,41.75 C291.211,41.672 291.137,41.672 291.113,41.672 C291.035,41.672 291.035,41.695 290.996,41.812 C290.836,42.355 290.574,42.801 290.184,42.801 C290.047,42.801 289.992,42.723 289.992,42.539 C289.992,42.34 290.062,42.148 290.133,41.973 C290.285,41.551 290.621,40.676 290.621,40.219 C290.621,39.688 290.277,39.367 289.703,39.367 C288.988,39.367 288.598,39.879 288.461,40.062 C288.422,39.613 288.094,39.367 287.727,39.367 C287.359,39.367 287.211,39.68 287.129,39.82 C287.004,40.094 286.891,40.562 286.891,40.594 C286.891,40.676 286.969,40.676 286.984,40.676 C287.066,40.676 287.074,40.668 287.121,40.492 C287.258,39.926 287.418,39.543 287.703,39.543 C287.863,39.543 287.949,39.645 287.949,39.91 C287.949,40.078 287.926,40.164 287.824,40.578 z M287.359,42.422" fill="#000000"/>
    <path d="M295.555,37.445 C295.555,37.438 295.555,37.359 295.453,37.359 C295.332,37.359 294.574,37.43 294.438,37.445 C294.375,37.453 294.328,37.496 294.328,37.598 C294.328,37.695 294.398,37.695 294.52,37.695 C294.902,37.695 294.918,37.75 294.918,37.828 L294.895,37.988 L294.414,39.879 C294.273,39.582 294.039,39.367 293.684,39.367 C292.75,39.367 291.762,40.539 291.762,41.703 C291.762,42.453 292.199,42.977 292.82,42.977 C292.98,42.977 293.379,42.945 293.859,42.379 C293.922,42.715 294.199,42.977 294.582,42.977 C294.863,42.977 295.047,42.793 295.172,42.539 C295.309,42.254 295.41,41.766 295.41,41.75 C295.41,41.672 295.34,41.672 295.316,41.672 C295.234,41.672 295.227,41.703 295.203,41.812 C295.07,42.332 294.926,42.801 294.598,42.801 C294.383,42.801 294.359,42.594 294.359,42.438 C294.359,42.246 294.375,42.188 294.406,42.055 z M293.898,41.941 C293.859,42.086 293.859,42.102 293.738,42.238 C293.387,42.676 293.062,42.801 292.836,42.801 C292.438,42.801 292.328,42.363 292.328,42.055 C292.328,41.656 292.582,40.676 292.766,40.309 C293.012,39.836 293.371,39.543 293.691,39.543 C294.207,39.543 294.32,40.195 294.32,40.242 C294.32,40.293 294.305,40.34 294.297,40.379 z M293.898,41.941" fill="#000000"/>
    <path d="M297.645,37.445 C297.645,37.438 297.645,37.359 297.543,37.359 C297.359,37.359 296.777,37.422 296.57,37.438 C296.504,37.445 296.418,37.453 296.418,37.605 C296.418,37.695 296.496,37.695 296.617,37.695 C297,37.695 297.008,37.766 297.008,37.828 L296.984,37.988 L295.98,41.973 C295.957,42.062 295.938,42.117 295.938,42.246 C295.938,42.699 296.289,42.977 296.664,42.977 C296.926,42.977 297.125,42.82 297.262,42.531 C297.406,42.23 297.5,41.766 297.5,41.75 C297.5,41.672 297.43,41.672 297.406,41.672 C297.324,41.672 297.316,41.703 297.293,41.812 C297.16,42.332 297.008,42.801 296.688,42.801 C296.449,42.801 296.449,42.547 296.449,42.438 C296.449,42.246 296.457,42.203 296.496,42.055 z M297.645,37.445" fill="#000000"/>
    <path d="M299.613,41.051 C299.848,41.051 300.438,41.031 300.836,40.867 C301.391,40.625 301.434,40.156 301.434,40.043 C301.434,39.695 301.129,39.367 300.578,39.367 C299.695,39.367 298.492,40.141 298.492,41.535 C298.492,42.348 298.961,42.977 299.742,42.977 C300.883,42.977 301.551,42.133 301.551,42.039 C301.551,41.988 301.504,41.934 301.457,41.934 C301.414,41.934 301.398,41.949 301.352,42.012 C300.723,42.801 299.855,42.801 299.758,42.801 C299.137,42.801 299.066,42.133 299.066,41.879 C299.066,41.781 299.074,41.535 299.191,41.051 z M299.242,40.875 C299.551,39.664 300.371,39.543 300.578,39.543 C300.953,39.543 301.168,39.773 301.168,40.043 C301.168,40.875 299.895,40.875 299.566,40.875 z M299.242,40.875" fill="#000000"/>
    <path d="M94.043,130.879 L107.137,130.879" fill-opacity="0" stroke="#6887FF" stroke-width="0.75"/>
    <path d="M107.137,133.129 L113.137,130.879 L107.137,128.629 M107.137,130.879 L113.137,130.879" fill-opacity="0" stroke="#6887FF" stroke-width="0.75"/>
    <path d="M94.043,142.215 L102.086,142.215" fill-opacity="0" stroke="#000000" stroke-width="2"/>
    <path d="M102.086,145.816 L111.688,142.215 L102.086,138.617 M102.086,142.215 L111.688,142.215" fill-opacity="0" stroke="#000000" stroke-width="2"/>
    <path d="M123.477,129.543 C123.332,129.246 123.102,129.031 122.742,129.031 C121.809,129.031 120.82,130.203 120.82,131.367 C120.82,132.117 121.262,132.645 121.883,132.645 C122.039,132.645 122.441,132.609 122.918,132.047 C122.98,132.379 123.262,132.645 123.645,132.645 C123.922,132.645 124.105,132.461 124.234,132.203 C124.367,131.918 124.473,131.43 124.473,131.414 C124.473,131.336 124.398,131.336 124.375,131.336 C124.297,131.336 124.289,131.367 124.266,131.48 C124.129,131.996 123.984,132.469 123.66,132.469 C123.445,132.469 123.418,132.262 123.418,132.102 C123.418,131.926 123.438,131.863 123.523,131.512 C123.609,131.176 123.629,131.098 123.699,130.793 L123.984,129.68 C124.043,129.453 124.043,129.438 124.043,129.406 C124.043,129.273 123.945,129.191 123.809,129.191 C123.617,129.191 123.5,129.367 123.477,129.543 z M122.957,131.605 C122.918,131.75 122.918,131.766 122.797,131.902 C122.449,132.34 122.121,132.469 121.898,132.469 C121.5,132.469 121.387,132.031 121.387,131.719 C121.387,131.32 121.641,130.34 121.824,129.973 C122.074,129.504 122.43,129.207 122.75,129.207 C123.27,129.207 123.379,129.863 123.379,129.91 C123.379,129.957 123.363,130.004 123.355,130.043 z M122.957,131.605" fill="#000000"/>
    <path d="M125.418,132.086 C125.395,132.203 125.344,132.387 125.344,132.43 C125.344,132.57 125.457,132.645 125.578,132.645 C125.672,132.645 125.816,132.578 125.871,132.418 C125.887,132.387 126.16,131.305 126.191,131.16 C126.254,130.898 126.398,130.34 126.445,130.125 C126.477,130.02 126.699,129.645 126.891,129.473 C126.957,129.414 127.188,129.207 127.527,129.207 C127.738,129.207 127.855,129.305 127.863,129.305 C127.625,129.344 127.449,129.535 127.449,129.742 C127.449,129.871 127.535,130.02 127.754,130.02 C127.969,130.02 128.191,129.836 128.191,129.551 C128.191,129.273 127.938,129.031 127.527,129.031 C127.012,129.031 126.66,129.422 126.508,129.645 C126.445,129.289 126.16,129.031 125.785,129.031 C125.418,129.031 125.266,129.344 125.195,129.488 C125.051,129.758 124.945,130.234 124.945,130.262 C124.945,130.34 125.027,130.34 125.043,130.34 C125.121,130.34 125.129,130.332 125.18,130.156 C125.312,129.59 125.473,129.207 125.762,129.207 C125.895,129.207 126.008,129.273 126.008,129.574 C126.008,129.742 125.984,129.828 125.879,130.242 z M125.418,132.086" fill="#000000"/>
    <path d="M131.695,129.527 C131.566,129.527 131.457,129.527 131.344,129.637 C131.215,129.758 131.199,129.895 131.199,129.949 C131.199,130.141 131.344,130.227 131.496,130.227 C131.727,130.227 131.941,130.035 131.941,129.719 C131.941,129.328 131.566,129.031 131,129.031 C129.926,129.031 128.863,130.172 128.863,131.297 C128.863,132.012 129.328,132.645 130.156,132.645 C131.297,132.645 131.965,131.797 131.965,131.703 C131.965,131.656 131.918,131.598 131.871,131.598 C131.828,131.598 131.812,131.613 131.766,131.68 C131.137,132.469 130.27,132.469 130.172,132.469 C129.668,132.469 129.453,132.078 129.453,131.598 C129.453,131.273 129.613,130.5 129.887,130.004 C130.133,129.551 130.57,129.207 131.008,129.207 C131.281,129.207 131.582,129.312 131.695,129.527 z M131.695,129.527" fill="#000000"/>
    <path d="M135.836,129.367 L136.586,129.367 C136.746,129.367 136.824,129.367 136.824,129.207 C136.824,129.121 136.746,129.121 136.602,129.121 L135.898,129.121 C136.188,127.988 136.227,127.828 136.227,127.781 C136.227,127.645 136.129,127.566 135.996,127.566 C135.973,127.566 135.746,127.574 135.676,127.852 L135.367,129.121 L134.617,129.121 C134.457,129.121 134.379,129.121 134.379,129.273 C134.379,129.367 134.441,129.367 134.602,129.367 L135.301,129.367 C134.727,131.629 134.695,131.766 134.695,131.91 C134.695,132.34 135,132.645 135.43,132.645 C136.242,132.645 136.695,131.48 136.695,131.414 C136.695,131.336 136.633,131.336 136.602,131.336 C136.527,131.336 136.52,131.359 136.48,131.449 C136.137,132.277 135.715,132.469 135.445,132.469 C135.277,132.469 135.199,132.363 135.199,132.102 C135.199,131.91 135.215,131.855 135.246,131.719 z M135.836,129.367" fill="#000000"/>
    <path d="M140.055,129.543 C139.914,129.246 139.684,129.031 139.324,129.031 C138.391,129.031 137.402,130.203 137.402,131.367 C137.402,132.117 137.84,132.645 138.461,132.645 C138.621,132.645 139.02,132.609 139.5,132.047 C139.562,132.379 139.84,132.645 140.223,132.645 C140.504,132.645 140.688,132.461 140.812,132.203 C140.949,131.918 141.055,131.43 141.055,131.414 C141.055,131.336 140.98,131.336 140.957,131.336 C140.879,131.336 140.871,131.367 140.844,131.48 C140.711,131.996 140.566,132.469 140.238,132.469 C140.023,132.469 140,132.262 140,132.102 C140,131.926 140.016,131.863 140.105,131.512 C140.191,131.176 140.207,131.098 140.281,130.793 L140.566,129.68 C140.621,129.453 140.621,129.438 140.621,129.406 C140.621,129.273 140.527,129.191 140.391,129.191 C140.199,129.191 140.082,129.367 140.055,129.543 z M139.539,131.605 C139.5,131.75 139.5,131.766 139.379,131.902 C139.027,132.34 138.703,132.469 138.477,132.469 C138.078,132.469 137.969,132.031 137.969,131.719 C137.969,131.32 138.223,130.34 138.406,129.973 C138.652,129.504 139.012,129.207 139.332,129.207 C139.848,129.207 139.961,129.863 139.961,129.91 C139.961,129.957 139.945,130.004 139.938,130.043 z M139.539,131.605" fill="#000000"/>
    <path d="M142,132.086 C141.973,132.203 141.926,132.387 141.926,132.43 C141.926,132.57 142.039,132.645 142.156,132.645 C142.254,132.645 142.398,132.578 142.453,132.418 C142.461,132.402 142.555,132.031 142.605,131.828 L142.777,131.113 C142.828,130.938 142.875,130.762 142.914,130.578 C142.945,130.441 143.012,130.211 143.02,130.18 C143.137,129.934 143.559,129.207 144.316,129.207 C144.676,129.207 144.746,129.504 144.746,129.766 C144.746,130.262 144.355,131.281 144.23,131.621 C144.156,131.805 144.148,131.902 144.148,131.988 C144.148,132.363 144.43,132.645 144.805,132.645 C145.555,132.645 145.848,131.48 145.848,131.414 C145.848,131.336 145.777,131.336 145.754,131.336 C145.672,131.336 145.672,131.359 145.633,131.48 C145.473,132.02 145.211,132.469 144.82,132.469 C144.684,132.469 144.629,132.387 144.629,132.203 C144.629,132.004 144.699,131.812 144.773,131.641 C144.922,131.215 145.258,130.34 145.258,129.887 C145.258,129.352 144.914,129.031 144.34,129.031 C143.625,129.031 143.234,129.543 143.098,129.727 C143.059,129.281 142.73,129.031 142.363,129.031 C142,129.031 141.848,129.344 141.766,129.488 C141.641,129.758 141.527,130.227 141.527,130.262 C141.527,130.34 141.609,130.34 141.625,130.34 C141.703,130.34 141.711,130.332 141.758,130.156 C141.895,129.59 142.055,129.207 142.34,129.207 C142.5,129.207 142.59,129.312 142.59,129.574 C142.59,129.742 142.562,129.828 142.461,130.242 z M142,132.086" fill="#000000"/>
    <path d="M149.836,129.551 C149.844,129.504 149.863,129.465 149.863,129.406 C149.863,129.273 149.766,129.191 149.629,129.191 C149.551,129.191 149.336,129.246 149.305,129.535 C149.16,129.238 148.883,129.031 148.562,129.031 C147.652,129.031 146.664,130.148 146.664,131.297 C146.664,132.086 147.152,132.555 147.727,132.555 C148.195,132.555 148.57,132.18 148.648,132.094 L148.656,132.102 C148.492,132.809 148.395,133.137 148.395,133.152 C148.363,133.227 148.094,134.016 147.246,134.016 C147.098,134.016 146.832,134.008 146.609,133.934 C146.848,133.863 146.938,133.656 146.938,133.52 C146.938,133.391 146.848,133.242 146.633,133.242 C146.457,133.242 146.203,133.383 146.203,133.703 C146.203,134.031 146.496,134.188 147.262,134.188 C148.258,134.188 148.832,133.566 148.953,133.09 z M148.801,131.535 C148.754,131.742 148.57,131.941 148.395,132.094 C148.227,132.238 147.98,132.379 147.75,132.379 C147.352,132.379 147.23,131.965 147.23,131.648 C147.23,131.266 147.461,130.324 147.676,129.918 C147.895,129.527 148.234,129.207 148.57,129.207 C149.098,129.207 149.207,129.852 149.207,129.895 C149.207,129.934 149.191,129.98 149.184,130.012 z M148.801,131.535" fill="#000000"/>
    <path d="M151.652,130.715 C151.883,130.715 152.473,130.699 152.871,130.531 C153.43,130.293 153.469,129.82 153.469,129.711 C153.469,129.359 153.164,129.031 152.617,129.031 C151.73,129.031 150.527,129.805 150.527,131.199 C150.527,132.012 150.996,132.645 151.777,132.645 C152.918,132.645 153.59,131.797 153.59,131.703 C153.59,131.656 153.539,131.598 153.492,131.598 C153.453,131.598 153.438,131.613 153.391,131.68 C152.758,132.469 151.891,132.469 151.793,132.469 C151.172,132.469 151.102,131.797 151.102,131.543 C151.102,131.449 151.109,131.199 151.23,130.715 z M151.277,130.539 C151.586,129.328 152.41,129.207 152.617,129.207 C152.992,129.207 153.207,129.438 153.207,129.711 C153.207,130.539 151.93,130.539 151.605,130.539 z M151.277,130.539" fill="#000000"/>
    <path d="M154.574,132.086 C154.551,132.203 154.5,132.387 154.5,132.43 C154.5,132.57 154.613,132.645 154.734,132.645 C154.828,132.645 154.973,132.578 155.027,132.418 C155.035,132.402 155.133,132.031 155.18,131.828 L155.355,131.113 C155.402,130.938 155.449,130.762 155.488,130.578 C155.523,130.441 155.586,130.211 155.594,130.18 C155.715,129.934 156.137,129.207 156.895,129.207 C157.25,129.207 157.324,129.504 157.324,129.766 C157.324,130.262 156.934,131.281 156.805,131.621 C156.734,131.805 156.727,131.902 156.727,131.988 C156.727,132.363 157.004,132.645 157.379,132.645 C158.129,132.645 158.422,131.48 158.422,131.414 C158.422,131.336 158.352,131.336 158.328,131.336 C158.246,131.336 158.246,131.359 158.207,131.48 C158.047,132.02 157.785,132.469 157.395,132.469 C157.258,132.469 157.203,132.387 157.203,132.203 C157.203,132.004 157.273,131.812 157.348,131.641 C157.5,131.215 157.832,130.34 157.832,129.887 C157.832,129.352 157.492,129.031 156.918,129.031 C156.199,129.031 155.809,129.543 155.672,129.727 C155.633,129.281 155.305,129.031 154.941,129.031 C154.574,129.031 154.422,129.344 154.344,129.488 C154.215,129.758 154.102,130.227 154.102,130.262 C154.102,130.34 154.184,130.34 154.199,130.34 C154.277,130.34 154.285,130.332 154.336,130.156 C154.469,129.59 154.629,129.207 154.914,129.207 C155.074,129.207 155.164,129.312 155.164,129.574 C155.164,129.742 155.141,129.828 155.035,130.242 z M154.574,132.086" fill="#000000"/>
    <path d="M160.301,129.367 L161.051,129.367 C161.211,129.367 161.289,129.367 161.289,129.207 C161.289,129.121 161.211,129.121 161.066,129.121 L160.363,129.121 C160.652,127.988 160.691,127.828 160.691,127.781 C160.691,127.645 160.594,127.566 160.461,127.566 C160.438,127.566 160.215,127.574 160.141,127.852 L159.832,129.121 L159.082,129.121 C158.922,129.121 158.844,129.121 158.844,129.273 C158.844,129.367 158.906,129.367 159.066,129.367 L159.766,129.367 C159.191,131.629 159.16,131.766 159.16,131.91 C159.16,132.34 159.465,132.645 159.895,132.645 C160.707,132.645 161.16,131.48 161.16,131.414 C161.16,131.336 161.098,131.336 161.066,131.336 C160.992,131.336 160.984,131.359 160.945,131.449 C160.602,132.277 160.18,132.469 159.91,132.469 C159.742,132.469 159.664,132.363 159.664,132.102 C159.664,131.91 159.68,131.855 159.711,131.719 z M160.301,129.367" fill="#000000"/>
    <path d="M121.086,138.723 C121.086,138.711 121.086,138.633 120.984,138.633 C120.801,138.633 120.219,138.695 120.012,138.711 C119.945,138.723 119.859,138.73 119.859,138.871 C119.859,138.969 119.93,138.969 120.051,138.969 C120.434,138.969 120.449,139.023 120.449,139.102 C120.449,139.16 120.375,139.43 120.336,139.598 L119.684,142.195 C119.586,142.594 119.555,142.723 119.555,143 C119.555,143.758 119.977,144.254 120.566,144.254 C121.508,144.254 122.488,143.066 122.488,141.918 C122.488,141.191 122.066,140.641 121.43,140.641 C121.062,140.641 120.734,140.871 120.496,141.121 z M120.336,141.734 C120.387,141.559 120.387,141.543 120.457,141.453 C120.848,140.938 121.207,140.816 121.414,140.816 C121.699,140.816 121.914,141.055 121.914,141.566 C121.914,142.035 121.652,142.953 121.508,143.254 C121.246,143.789 120.879,144.078 120.566,144.078 C120.297,144.078 120.035,143.863 120.035,143.273 C120.035,143.121 120.035,142.969 120.16,142.465 z M120.336,141.734" fill="#000000"/>
    <path d="M124.094,142.324 C124.324,142.324 124.914,142.309 125.312,142.141 C125.871,141.902 125.91,141.43 125.91,141.32 C125.91,140.969 125.605,140.641 125.059,140.641 C124.172,140.641 122.969,141.414 122.969,142.809 C122.969,143.621 123.438,144.254 124.219,144.254 C125.359,144.254 126.027,143.406 126.027,143.312 C126.027,143.266 125.98,143.207 125.934,143.207 C125.895,143.207 125.879,143.223 125.828,143.289 C125.199,144.078 124.332,144.078 124.234,144.078 C123.613,144.078 123.543,143.406 123.543,143.152 C123.543,143.055 123.551,142.809 123.672,142.324 z M123.719,142.148 C124.027,140.938 124.848,140.816 125.059,140.816 C125.43,140.816 125.648,141.047 125.648,141.32 C125.648,142.148 124.371,142.148 124.043,142.148 z M123.719,142.148" fill="#000000"/>
    <path d="M129.281,141.152 C129.141,140.855 128.906,140.641 128.551,140.641 C127.617,140.641 126.629,141.812 126.629,142.977 C126.629,143.727 127.066,144.254 127.688,144.254 C127.848,144.254 128.246,144.219 128.723,143.652 C128.789,143.988 129.066,144.254 129.449,144.254 C129.73,144.254 129.91,144.07 130.039,143.812 C130.176,143.527 130.277,143.039 130.277,143.023 C130.277,142.945 130.207,142.945 130.184,142.945 C130.102,142.945 130.094,142.977 130.07,143.09 C129.938,143.605 129.793,144.078 129.465,144.078 C129.25,144.078 129.227,143.871 129.227,143.711 C129.227,143.535 129.242,143.473 129.332,143.121 C129.418,142.785 129.434,142.707 129.504,142.402 L129.793,141.289 C129.848,141.062 129.848,141.047 129.848,141.016 C129.848,140.879 129.754,140.801 129.617,140.801 C129.426,140.801 129.305,140.977 129.281,141.152 z M128.766,143.215 C128.723,143.359 128.723,143.375 128.605,143.512 C128.254,143.949 127.926,144.078 127.703,144.078 C127.305,144.078 127.195,143.637 127.195,143.328 C127.195,142.93 127.449,141.949 127.633,141.582 C127.879,141.113 128.238,140.816 128.559,140.816 C129.074,140.816 129.188,141.469 129.188,141.52 C129.188,141.566 129.172,141.613 129.164,141.652 z M128.766,143.215" fill="#000000"/>
    <path d="M131.223,143.695 C131.195,143.812 131.148,143.996 131.148,144.035 C131.148,144.18 131.262,144.254 131.379,144.254 C131.477,144.254 131.621,144.188 131.676,144.027 C131.684,144.012 131.777,143.637 131.828,143.438 L132,142.723 C132.051,142.547 132.098,142.371 132.137,142.188 C132.168,142.051 132.234,141.82 132.242,141.789 C132.359,141.543 132.781,140.816 133.539,140.816 C133.898,140.816 133.969,141.113 133.969,141.375 C133.969,141.574 133.914,141.797 133.852,142.035 L133.629,142.961 L133.469,143.566 C133.438,143.727 133.363,143.996 133.363,144.035 C133.363,144.18 133.477,144.254 133.598,144.254 C133.844,144.254 133.891,144.055 133.953,143.797 C134.066,143.352 134.359,142.188 134.434,141.875 C134.457,141.773 134.879,140.816 135.746,140.816 C136.09,140.816 136.18,141.086 136.18,141.375 C136.18,141.828 135.844,142.738 135.684,143.16 C135.613,143.352 135.582,143.438 135.582,143.598 C135.582,143.973 135.859,144.254 136.234,144.254 C136.984,144.254 137.277,143.09 137.277,143.023 C137.277,142.945 137.207,142.945 137.184,142.945 C137.102,142.945 137.102,142.969 137.062,143.09 C136.941,143.512 136.688,144.078 136.25,144.078 C136.113,144.078 136.059,143.996 136.059,143.812 C136.059,143.613 136.129,143.422 136.203,143.246 C136.352,142.832 136.688,141.949 136.688,141.496 C136.688,140.977 136.371,140.641 135.773,140.641 C135.176,140.641 134.766,140.992 134.473,141.414 C134.465,141.312 134.441,141.039 134.219,140.848 C134.02,140.68 133.762,140.641 133.562,140.641 C132.848,140.641 132.457,141.152 132.32,141.336 C132.281,140.879 131.945,140.641 131.586,140.641 C131.223,140.641 131.07,140.953 130.996,141.098 C130.855,141.375 130.75,141.844 130.75,141.867 C130.75,141.949 130.832,141.949 130.848,141.949 C130.926,141.949 130.934,141.941 130.98,141.766 C131.117,141.199 131.277,140.816 131.562,140.816 C131.691,140.816 131.809,140.879 131.809,141.184 C131.809,141.352 131.785,141.438 131.684,141.852 z M131.223,143.695" fill="#000000"/>
    <path d="M141.375,140.977 L142.125,140.977 C142.285,140.977 142.363,140.977 142.363,140.816 C142.363,140.73 142.285,140.73 142.141,140.73 L141.441,140.73 C141.727,139.598 141.766,139.438 141.766,139.391 C141.766,139.254 141.672,139.176 141.535,139.176 C141.512,139.176 141.289,139.184 141.215,139.461 L140.906,140.73 L140.156,140.73 C139.996,140.73 139.918,140.73 139.918,140.879 C139.918,140.977 139.98,140.977 140.141,140.977 L140.844,140.977 C140.27,143.238 140.238,143.375 140.238,143.52 C140.238,143.949 140.539,144.254 140.969,144.254 C141.781,144.254 142.238,143.09 142.238,143.023 C142.238,142.945 142.172,142.945 142.141,142.945 C142.07,142.945 142.062,142.969 142.023,143.055 C141.68,143.887 141.258,144.078 140.984,144.078 C140.816,144.078 140.738,143.973 140.738,143.711 C140.738,143.52 140.754,143.465 140.785,143.328 z M141.375,140.977" fill="#000000"/>
    <path d="M145.586,141.152 C145.441,140.855 145.211,140.641 144.852,140.641 C143.922,140.641 142.934,141.812 142.934,142.977 C142.934,143.727 143.371,144.254 143.992,144.254 C144.152,144.254 144.551,144.219 145.027,143.652 C145.09,143.988 145.371,144.254 145.754,144.254 C146.031,144.254 146.215,144.07 146.344,143.812 C146.477,143.527 146.582,143.039 146.582,143.023 C146.582,142.945 146.512,142.945 146.488,142.945 C146.406,142.945 146.398,142.977 146.375,143.09 C146.238,143.605 146.098,144.078 145.77,144.078 C145.555,144.078 145.531,143.871 145.531,143.711 C145.531,143.535 145.547,143.473 145.633,143.121 C145.723,142.785 145.738,142.707 145.809,142.402 L146.098,141.289 C146.152,141.062 146.152,141.047 146.152,141.016 C146.152,140.879 146.055,140.801 145.922,140.801 C145.73,140.801 145.609,140.977 145.586,141.152 z M145.066,143.215 C145.027,143.359 145.027,143.375 144.91,143.512 C144.559,143.949 144.23,144.078 144.008,144.078 C143.609,144.078 143.496,143.637 143.496,143.328 C143.496,142.93 143.754,141.949 143.938,141.582 C144.184,141.113 144.543,140.816 144.859,140.816 C145.379,140.816 145.488,141.469 145.488,141.52 C145.488,141.566 145.473,141.613 145.465,141.652 z M145.066,143.215" fill="#000000"/>
    <path d="M147.523,143.695 C147.5,143.812 147.453,143.996 147.453,144.035 C147.453,144.18 147.562,144.254 147.684,144.254 C147.777,144.254 147.922,144.188 147.977,144.027 C147.988,144.012 148.082,143.637 148.129,143.438 L148.305,142.723 C148.352,142.547 148.402,142.371 148.441,142.188 C148.473,142.051 148.535,141.82 148.543,141.789 C148.664,141.543 149.086,140.816 149.844,140.816 C150.203,140.816 150.273,141.113 150.273,141.375 C150.273,141.867 149.883,142.891 149.754,143.23 C149.684,143.414 149.676,143.512 149.676,143.598 C149.676,143.973 149.953,144.254 150.328,144.254 C151.078,144.254 151.375,143.09 151.375,143.023 C151.375,142.945 151.301,142.945 151.277,142.945 C151.199,142.945 151.199,142.969 151.16,143.09 C151,143.629 150.734,144.078 150.344,144.078 C150.211,144.078 150.156,143.996 150.156,143.812 C150.156,143.613 150.227,143.422 150.297,143.246 C150.449,142.824 150.785,141.949 150.785,141.496 C150.785,140.961 150.441,140.641 149.867,140.641 C149.148,140.641 148.758,141.152 148.625,141.336 C148.586,140.887 148.258,140.641 147.891,140.641 C147.523,140.641 147.371,140.953 147.293,141.098 C147.164,141.367 147.055,141.836 147.055,141.867 C147.055,141.949 147.133,141.949 147.148,141.949 C147.23,141.949 147.238,141.941 147.285,141.766 C147.422,141.199 147.578,140.816 147.867,140.816 C148.027,140.816 148.113,140.922 148.113,141.184 C148.113,141.352 148.09,141.438 147.988,141.852 z M147.523,143.695" fill="#000000"/>
    <path d="M155.359,141.16 C155.367,141.113 155.383,141.07 155.383,141.016 C155.383,140.879 155.289,140.801 155.152,140.801 C155.074,140.801 154.859,140.855 154.828,141.145 C154.684,140.848 154.402,140.641 154.086,140.641 C153.176,140.641 152.188,141.758 152.188,142.906 C152.188,143.695 152.676,144.164 153.25,144.164 C153.719,144.164 154.094,143.789 154.172,143.703 L154.18,143.711 C154.012,144.418 153.918,144.746 153.918,144.762 C153.887,144.832 153.613,145.621 152.77,145.621 C152.617,145.621 152.355,145.613 152.133,145.543 C152.371,145.473 152.461,145.266 152.461,145.129 C152.461,145 152.371,144.852 152.156,144.852 C151.98,144.852 151.727,144.992 151.727,145.312 C151.727,145.641 152.02,145.797 152.785,145.797 C153.781,145.797 154.355,145.176 154.477,144.699 z M154.324,143.145 C154.277,143.352 154.094,143.551 153.918,143.703 C153.75,143.844 153.504,143.988 153.273,143.988 C152.875,143.988 152.754,143.574 152.754,143.254 C152.754,142.875 152.984,141.934 153.199,141.527 C153.414,141.137 153.758,140.816 154.094,140.816 C154.617,140.816 154.73,141.461 154.73,141.504 C154.73,141.543 154.715,141.59 154.707,141.621 z M154.324,143.145" fill="#000000"/>
    <path d="M157.188,142.324 C157.418,142.324 158.008,142.309 158.406,142.141 C158.965,141.902 159.004,141.43 159.004,141.32 C159.004,140.969 158.703,140.641 158.152,140.641 C157.266,140.641 156.062,141.414 156.062,142.809 C156.062,143.621 156.535,144.254 157.316,144.254 C158.453,144.254 159.125,143.406 159.125,143.312 C159.125,143.266 159.074,143.207 159.027,143.207 C158.988,143.207 158.973,143.223 158.926,143.289 C158.293,144.078 157.426,144.078 157.332,144.078 C156.707,144.078 156.637,143.406 156.637,143.152 C156.637,143.055 156.645,142.809 156.766,142.324 z M156.812,142.148 C157.125,140.938 157.945,140.816 158.152,140.816 C158.527,140.816 158.742,141.047 158.742,141.32 C158.742,142.148 157.465,142.148 157.141,142.148 z M156.812,142.148" fill="#000000"/>
    <path d="M160.105,143.695 C160.082,143.812 160.035,143.996 160.035,144.035 C160.035,144.18 160.145,144.254 160.266,144.254 C160.359,144.254 160.504,144.188 160.559,144.027 C160.566,144.012 160.664,143.637 160.711,143.438 L160.887,142.723 C160.934,142.547 160.98,142.371 161.023,142.188 C161.055,142.051 161.117,141.82 161.125,141.789 C161.246,141.543 161.668,140.816 162.426,140.816 C162.785,140.816 162.855,141.113 162.855,141.375 C162.855,141.867 162.465,142.891 162.336,143.23 C162.266,143.414 162.258,143.512 162.258,143.598 C162.258,143.973 162.535,144.254 162.91,144.254 C163.66,144.254 163.957,143.09 163.957,143.023 C163.957,142.945 163.883,142.945 163.859,142.945 C163.781,142.945 163.781,142.969 163.738,143.09 C163.582,143.629 163.316,144.078 162.926,144.078 C162.793,144.078 162.734,143.996 162.734,143.812 C162.734,143.613 162.809,143.422 162.879,143.246 C163.031,142.824 163.367,141.949 163.367,141.496 C163.367,140.961 163.023,140.641 162.449,140.641 C161.73,140.641 161.34,141.152 161.207,141.336 C161.164,140.887 160.84,140.641 160.473,140.641 C160.105,140.641 159.953,140.953 159.875,141.098 C159.746,141.367 159.637,141.836 159.637,141.867 C159.637,141.949 159.715,141.949 159.73,141.949 C159.812,141.949 159.82,141.941 159.867,141.766 C160.004,141.199 160.16,140.816 160.449,140.816 C160.609,140.816 160.695,140.922 160.695,141.184 C160.695,141.352 160.672,141.438 160.566,141.852 z M160.105,143.695" fill="#000000"/>
    <path d="M165.828,140.977 L166.578,140.977 C166.738,140.977 166.816,140.977 166.816,140.816 C166.816,140.73 166.738,140.73 166.594,140.73 L165.895,140.73 C166.18,139.598 166.219,139.438 166.219,139.391 C166.219,139.254 166.125,139.176 165.988,139.176 C165.965,139.176 165.742,139.184 165.672,139.461 L165.359,140.73 L164.609,140.73 C164.449,140.73 164.371,140.73 164.371,140.879 C164.371,140.977 164.434,140.977 164.594,140.977 L165.297,140.977 C164.723,143.238 164.691,143.375 164.691,143.52 C164.691,143.949 164.992,144.254 165.422,144.254 C166.234,144.254 166.691,143.09 166.691,143.023 C166.691,142.945 166.625,142.945 166.594,142.945 C166.523,142.945 166.516,142.969 166.477,143.055 C166.133,143.887 165.711,144.078 165.438,144.078 C165.273,144.078 165.191,143.973 165.191,143.711 C165.191,143.52 165.207,143.465 165.238,143.328 z M165.828,140.977" fill="#000000"/>
  </g>
</svg>
