<?xml version="1.0" encoding="UTF-8"?>
<!DOCTYPE svg PUBLIC "-//W3C//DTD SVG 1.1//EN" "http://www.w3.org/Graphics/SVG/1.1/DTD/svg11.dtd">
<svg version="1.1" xmlns="http://www.w3.org/2000/svg" xmlns:xlink="http://www.w3.org/1999/xlink" x="0" y="0" width="425" height="200" viewBox="0, 0, 425, 200">
  <g id="Background">
    <rect x="0" y="0" width="425" height="200" fill="#000000" fill-opacity="0"/>
  </g>
  <defs>
    <clipPath id="Clip_1">
      <path d="M19.785,0 L175.691,0 L175.691,176.242 L19.785,176.242 z M19.785,0"/>
    </clipPath>
    <clipPath id="Clip_2">
      <path d="M19,0 L176,0 L176,177 L19,177 z"/>
    </clipPath>
    <clipPath id="Clip_3">
      <path d="M19.785,0 L175.691,0 L175.691,176.242 L19.785,176.242 z M19.785,0"/>
    </clipPath>
    <clipPath id="Clip_4">
      <path d="M34,95 L37.184,95 L37.184,100.984 L34,100.984 z M34,95"/>
    </clipPath>
    <clipPath id="Clip_5">
      <path d="M88,18 L91.566,18 L91.566,23.855 L88,23.855 z M88,18"/>
    </clipPath>
    <clipPath id="Clip_6">
      <path d="M44,111.047 L50,111.047 L50,117 L44,117 z M44,111.047"/>
    </clipPath>
    <clipPath id="Clip_7">
      <path d="M249.508,0 L405.41,0 L405.41,176.242 L249.508,176.242 z M249.508,0"/>
    </clipPath>
    <clipPath id="Clip_8">
      <path d="M249,0 L406,0 L406,177 L249,177 z"/>
    </clipPath>
    <clipPath id="Clip_9">
      <path d="M249.508,0 L405.41,0 L405.41,176.242 L249.508,176.242 z M249.508,0"/>
    </clipPath>
    <clipPath id="Clip_10">
      <path d="M267.316,107.941 L270.148,118.512 L260.547,121.082 L257.715,110.516 z M267.316,107.941"/>
    </clipPath>
    <clipPath id="Clip_11">
      <path d="M260,110 L266,110 L266,119 L260,119 z M260,110"/>
    </clipPath>
    <clipPath id="Clip_12">
      <path d="M267.316,107.941 L270.148,118.512 L260.547,121.082 L257.715,110.516 z M267.316,107.941"/>
    </clipPath>
    <clipPath id="Clip_13">
      <path d="M266,113 L270,113 L270,119 L266,119 z M266,113"/>
    </clipPath>
  </defs>
  <g id="Background"/>
  <g id="surface1146">
    <g clip-path="url(#Clip_3)">
      <g clip-path="url(#Clip_2)" id="surface1152">
        <g clip-path="url(#Clip_1)"/>
      </g>
    </g>
    <path d="M105.535,54.352 L105.535,139.391" fill-opacity="0" stroke="#666666" stroke-width="0.5" stroke-linecap="round" stroke-linejoin="round"/>
    <path d="M77.188,96.871 L133.879,96.871" fill-opacity="0" stroke="#666666" stroke-width="0.5" stroke-linecap="round" stroke-linejoin="round"/>
    <g>
      <path d="M77.188,54.352 L133.879,54.352 L133.879,139.391 L77.188,139.391 z M77.188,54.352" fill="#FFFFFF"/>
      <path d="M77.188,54.352 L133.879,54.352 L133.879,139.391 L77.188,139.391 z M77.188,54.352" fill-opacity="0" stroke="#000000" stroke-width="1.5" stroke-linecap="round" stroke-linejoin="round"/>
    </g>
    <path d="M46.746,99.707 C46.863,101 47.043,102.258 47.441,103.504 C47.945,105.066 48.879,106.293 49.816,104.461 C50.797,102.543 51.023,98.887 51.023,96.871 C51.023,94.859 50.797,91.207 49.816,89.289 C48.668,87.039 47.773,88.91 47.246,91.078" fill-opacity="0" stroke="#666666" stroke-width="0.5" stroke-linecap="round" stroke-linejoin="round"/>
    <g>
      <path d="M47.246,91.078 L45.934,89.844 L46.746,94.035 L48.891,90.34 z M47.246,91.078" fill="#666666"/>
      <path d="M47.246,91.078 L45.934,89.844 L46.746,94.035 L48.891,90.34 z M47.246,91.078" fill-opacity="0" stroke="#666666" stroke-width="0.5"/>
    </g>
    <g>
      <path d="M48.84,96.305 C48.441,96.305 48.273,96.473 48.273,96.875 C48.273,97.273 48.441,97.441 48.84,97.441 C49.242,97.441 49.406,97.273 49.406,96.875 C49.406,96.473 49.242,96.305 48.84,96.305 z M48.84,96.305" fill="#666666"/>
      <path d="M48.84,96.305 C48.441,96.305 48.273,96.473 48.273,96.875 C48.273,97.273 48.441,97.441 48.84,97.441 C49.242,97.441 49.406,97.273 49.406,96.875 C49.406,96.473 49.242,96.305 48.84,96.305 z M48.84,96.305" fill-opacity="0" stroke="#666666" stroke-width="0.5" stroke-linecap="round" stroke-linejoin="round"/>
    </g>
    <path d="M108.367,22.414 C109.66,22.293 110.922,22.117 112.164,21.715 C113.727,21.211 114.953,20.281 113.121,19.344 C111.203,18.363 107.547,18.137 105.535,18.137 C103.52,18.137 99.867,18.363 97.949,19.344 C95.699,20.492 97.57,21.387 99.738,21.914" fill-opacity="0" stroke="#666666" stroke-width="0.5" stroke-linecap="round" stroke-linejoin="round"/>
    <g>
      <path d="M99.738,21.914 L98.504,23.227 L102.695,22.414 L99.004,20.266 z M99.738,21.914" fill="#666666"/>
      <path d="M99.738,21.914 L98.504,23.227 L102.695,22.414 L99.004,20.266 z M99.738,21.914" fill-opacity="0" stroke="#666666" stroke-width="0.5"/>
    </g>
    <g>
      <path d="M106.102,20.336 C106.102,19.938 105.934,19.77 105.535,19.77 C105.133,19.77 104.969,19.938 104.969,20.336 C104.969,20.738 105.133,20.906 105.535,20.906 C105.934,20.906 106.102,20.738 106.102,20.336 z M106.102,20.336" fill="#666666"/>
      <path d="M106.102,20.336 C106.102,19.938 105.934,19.77 105.535,19.77 C105.133,19.77 104.969,19.938 104.969,20.336 C104.969,20.738 105.133,20.906 105.535,20.906 C105.934,20.906 106.102,20.738 106.102,20.336 z M106.102,20.336" fill-opacity="0" stroke="#666666" stroke-width="0.5" stroke-linecap="round" stroke-linejoin="round"/>
    </g>
    <path d="M105.535,96.871 L105.535,11.836" fill-opacity="0" stroke="#666666" stroke-width="0.5" stroke-dasharray="1.5,1" stroke-linecap="round" stroke-linejoin="round"/>
    <path d="M105.535,96.871 L40.336,96.871" fill-opacity="0" stroke="#666666" stroke-width="0.5" stroke-dasharray="1.5,1" stroke-linecap="round" stroke-linejoin="round"/>
    <path d="M105.535,96.871 L92.441,96.871" fill-opacity="0" stroke="#666666" stroke-width="0.75" stroke-linecap="round" stroke-linejoin="round"/>
    <path d="M92.441,94.625 L86.441,96.875 L92.441,99.125 z M92.441,94.625" fill="#666666"/>
    <path d="M92.441,94.621 L86.441,96.871 L92.441,99.121 z M92.441,94.621" fill-opacity="0" stroke="#666666" stroke-width="0.75"/>
    <path d="M105.535,96.871 L105.535,83.781" fill-opacity="0" stroke="#666666" stroke-width="0.75" stroke-linecap="round" stroke-linejoin="round"/>
    <g>
      <path d="M107.785,83.781 L105.535,77.781 L103.285,83.781 z M107.785,83.781" fill="#666666"/>
      <path d="M107.785,83.781 L105.535,77.781 L103.285,83.781 z M107.785,83.781" fill-opacity="0" stroke="#666666" stroke-width="0.75"/>
    </g>
    <path d="M105.535,95.457 C104.75,95.457 104.117,96.09 104.117,96.871 C104.117,97.656 104.75,98.289 105.535,98.289 C106.316,98.289 106.949,97.656 106.949,96.871 C106.949,96.09 106.316,95.457 105.535,95.457 z M105.535,95.457" fill-opacity="0" stroke="#FF0000" stroke-width="1" stroke-linecap="round" stroke-linejoin="round"/>
    <path d="M108.367,96.871 C108.367,95.309 107.098,94.039 105.535,94.039 C103.969,94.039 102.699,95.309 102.699,96.871 C102.699,98.438 103.969,99.707 105.535,99.707 C107.098,99.707 108.367,98.438 108.367,96.871 z M108.367,96.871" fill="#FFFFFF"/>
    <path d="M105.535,94.039 C107.098,94.039 108.367,95.309 108.367,96.871 C108.367,98.438 107.098,99.707 105.535,99.707 C103.969,99.707 102.699,98.438 102.699,96.871 C102.699,95.309 103.969,94.039 105.535,94.039 z M105.535,95.039 C104.52,95.039 103.699,95.859 103.699,96.871 C103.699,97.887 104.52,98.707 105.535,98.707 C106.547,98.707 107.367,97.887 107.367,96.871 C107.367,95.859 106.547,95.039 105.535,95.039 z M105.535,95.039" fill="#000000"/>
    <path d="M33.559,97.574 C33.559,97.434 33.41,97.434 33.32,97.434 C33.211,97.434 33.172,97.434 33.121,97.484 C33.102,97.504 33.102,97.523 33.043,97.773 C32.844,98.57 32.613,98.77 32.363,98.77 C32.254,98.77 32.137,98.73 32.137,98.402 C32.137,98.25 32.156,98.113 32.195,97.973 L33.57,92.484 C33.609,92.344 33.609,92.312 33.609,92.312 C33.609,92.184 33.5,92.133 33.391,92.133 C33.352,92.133 33.34,92.133 33.32,92.145 L32.035,92.203 C31.895,92.215 31.719,92.223 31.719,92.504 C31.719,92.684 31.895,92.684 31.977,92.684 C32.086,92.684 32.266,92.684 32.395,92.703 L31.855,94.902 C31.707,94.766 31.379,94.547 30.852,94.547 C29.117,94.547 28.039,96.121 28.039,97.484 C28.039,98.711 28.957,99.129 29.785,99.129 C30.492,99.129 31.008,98.738 31.168,98.59 C31.547,99.129 32.207,99.129 32.316,99.129 C32.684,99.129 32.973,98.918 33.18,98.559 C33.43,98.16 33.559,97.625 33.559,97.574 z M31.07,98.121 C30.781,98.461 30.312,98.77 29.836,98.77 C29.215,98.77 29.168,98.23 29.168,98.012 C29.168,97.496 29.504,96.27 29.664,95.879 C29.973,95.152 30.461,94.902 30.871,94.902 C31.457,94.902 31.695,95.371 31.695,95.48 L31.676,95.621 z M31.07,98.121" fill="#000000"/>
    <g clip-path="url(#Clip_4)">
      <path d="M37.188,99.273 L36.949,99.273 C36.93,99.426 36.859,99.84 36.77,99.906 C36.715,99.949 36.176,99.949 36.078,99.949 L34.797,99.949 C35.527,99.301 35.773,99.105 36.191,98.777 C36.707,98.367 37.188,97.934 37.188,97.273 C37.188,96.43 36.449,95.91 35.555,95.91 C34.691,95.91 34.105,96.52 34.105,97.16 C34.105,97.516 34.406,97.551 34.477,97.551 C34.645,97.551 34.844,97.434 34.844,97.18 C34.844,97.055 34.797,96.812 34.434,96.812 C34.648,96.316 35.125,96.164 35.453,96.164 C36.148,96.164 36.512,96.707 36.512,97.273 C36.512,97.879 36.078,98.359 35.855,98.609 L34.176,100.27 C34.105,100.332 34.105,100.348 34.105,100.543 L36.98,100.543 z M37.188,99.273" fill="#000000"/>
    </g>
    <path d="M106.793,6.281 C106.793,6.141 106.641,6.141 106.551,6.141 C106.441,6.141 106.402,6.141 106.352,6.191 C106.332,6.211 106.332,6.23 106.273,6.48 C106.074,7.277 105.844,7.477 105.594,7.477 C105.484,7.477 105.367,7.434 105.367,7.105 C105.367,6.957 105.387,6.816 105.426,6.68 L106.801,1.188 C106.84,1.051 106.84,1.02 106.84,1.02 C106.84,0.891 106.73,0.84 106.621,0.84 C106.582,0.84 106.57,0.84 106.551,0.852 L105.266,0.91 C105.129,0.918 104.949,0.93 104.949,1.207 C104.949,1.387 105.129,1.387 105.207,1.387 C105.316,1.387 105.496,1.387 105.625,1.406 L105.086,3.609 C104.938,3.469 104.609,3.25 104.082,3.25 C102.348,3.25 101.273,4.824 101.273,6.191 C101.273,7.414 102.188,7.832 103.016,7.832 C103.723,7.832 104.242,7.445 104.398,7.297 C104.777,7.832 105.438,7.832 105.547,7.832 C105.914,7.832 106.203,7.625 106.414,7.266 C106.66,6.867 106.793,6.328 106.793,6.281 z M104.301,6.828 C104.012,7.168 103.543,7.477 103.066,7.477 C102.449,7.477 102.398,6.938 102.398,6.719 C102.398,6.199 102.738,4.973 102.895,4.586 C103.203,3.859 103.691,3.609 104.102,3.609 C104.688,3.609 104.93,4.078 104.93,4.188 L104.91,4.328 z M104.301,6.828" fill="#000000"/>
    <path d="M110.195,9.246 L110.195,8.996 L109.93,8.996 C109.234,8.996 109.234,8.906 109.234,8.676 L109.234,4.812 C109.234,4.625 109.219,4.617 109.023,4.617 C108.578,5.059 107.945,5.062 107.656,5.062 L107.656,5.316 C107.824,5.316 108.285,5.316 108.668,5.121 L108.668,8.676 C108.668,8.906 108.668,8.996 107.973,8.996 L107.707,8.996 L107.707,9.246 L108.949,9.219 z M110.195,9.246" fill="#000000"/>
    <path d="M115.707,92.484 C115.707,92.344 115.555,92.344 115.465,92.344 C115.348,92.344 115.277,92.344 115.238,92.473 C114.949,93.379 114.23,93.68 113.824,93.68 C113.445,93.68 113.266,93.5 113.266,93.18 C113.266,92.973 113.395,92.445 113.484,92.074 L113.832,90.719 C113.98,90.121 114.332,89.812 114.68,89.812 C114.73,89.812 114.957,89.812 115.156,89.965 C114.801,90.062 114.621,90.402 114.621,90.652 C114.621,90.871 114.789,91.109 115.117,91.109 C115.465,91.109 115.836,90.82 115.836,90.332 C115.836,89.805 115.309,89.453 114.699,89.453 C114.133,89.453 113.762,89.883 113.633,90.062 C113.383,89.645 112.828,89.453 112.258,89.453 C111.004,89.453 110.324,90.68 110.324,91.008 C110.324,91.148 110.477,91.148 110.566,91.148 C110.684,91.148 110.754,91.148 110.793,91.02 C111.082,90.113 111.801,89.812 112.207,89.812 C112.586,89.812 112.766,89.992 112.766,90.312 C112.766,90.5 112.629,91.051 112.539,91.406 L112.199,92.773 C112.051,93.379 111.691,93.68 111.352,93.68 C111.301,93.68 111.074,93.68 110.875,93.531 C111.23,93.43 111.41,93.09 111.41,92.844 C111.41,92.625 111.242,92.383 110.914,92.383 C110.566,92.383 110.195,92.672 110.195,93.16 C110.195,93.688 110.723,94.039 111.332,94.039 C111.898,94.039 112.27,93.609 112.398,93.43 C112.648,93.848 113.203,94.039 113.773,94.039 C115.027,94.039 115.707,92.812 115.707,92.484 z M115.707,92.484" fill="#000000"/>
    <path d="M87.411,20.442 C87.411,20.332 87.333,20.332 87.301,20.332 C87.192,20.332 87.192,20.379 87.161,20.52 C86.973,21.207 86.739,21.754 86.286,21.754 C86.083,21.754 85.973,21.629 85.973,21.27 C85.973,21.129 86.005,20.879 86.051,20.723 C86.067,20.629 86.098,20.504 86.098,20.395 C86.098,19.457 84.723,19.379 84.161,19.363 C84.489,19.176 84.817,18.91 85.083,18.676 C85.536,18.301 85.833,18.051 86.223,17.879 C86.208,17.942 86.176,18.051 86.176,18.098 C86.176,18.223 86.255,18.457 86.551,18.457 C86.88,18.457 87.098,18.16 87.098,17.91 C87.098,17.832 87.051,17.567 86.692,17.567 C86.083,17.567 85.505,18.067 85.067,18.442 C84.38,19.02 84.145,19.16 83.786,19.285 L83.989,18.504 C84.051,18.238 84.161,17.77 84.161,17.723 C84.161,17.551 84.051,17.457 83.88,17.457 C83.848,17.457 83.567,17.457 83.473,17.817 L82.567,21.473 C82.52,21.613 82.52,21.629 82.52,21.707 C82.52,21.879 82.661,21.973 82.817,21.973 C83.114,21.973 83.176,21.738 83.255,21.41 C83.348,21.051 83.286,21.238 83.723,19.567 C84.551,19.598 85.426,19.77 85.426,20.41 C85.426,20.488 85.426,20.535 85.395,20.645 C85.364,20.801 85.348,20.91 85.348,20.988 C85.348,21.567 85.755,21.973 86.27,21.973 C86.583,21.973 86.848,21.801 87.051,21.457 C87.301,21.035 87.411,20.442 87.411,20.442 z M87.411,20.442" fill="#000000"/>
    <g clip-path="url(#Clip_5)">
      <path d="M91.01,23.357 L91.01,23.107 L90.745,23.107 C90.041,23.107 90.041,23.014 90.041,22.779 L90.041,18.92 C90.041,18.732 90.041,18.732 89.838,18.732 C89.385,19.17 88.76,19.17 88.479,19.17 L88.479,19.42 C88.635,19.42 89.104,19.42 89.479,19.232 L89.479,22.779 C89.479,23.014 89.479,23.107 88.791,23.107 L88.526,23.107 L88.526,23.357 L89.76,23.326 z M91.01,23.357" fill="#000000"/>
    </g>
    <g clip-path="url(#Clip_6)">
      <path d="M49.167,114.633 C49.167,114.523 49.089,114.523 49.058,114.523 C48.948,114.523 48.948,114.57 48.917,114.711 C48.729,115.398 48.495,115.945 48.042,115.945 C47.839,115.945 47.729,115.82 47.729,115.461 C47.729,115.32 47.761,115.07 47.808,114.914 C47.823,114.82 47.854,114.695 47.854,114.586 C47.854,113.648 46.479,113.57 45.917,113.555 C46.245,113.367 46.573,113.101 46.839,112.867 C47.292,112.492 47.589,112.242 47.979,112.07 C47.964,112.133 47.933,112.242 47.933,112.289 C47.933,112.414 48.011,112.648 48.308,112.648 C48.636,112.648 48.854,112.351 48.854,112.101 C48.854,112.023 48.808,111.758 48.448,111.758 C47.839,111.758 47.261,112.258 46.823,112.633 C46.136,113.211 45.901,113.351 45.542,113.476 L45.745,112.695 C45.808,112.43 45.917,111.961 45.917,111.914 C45.917,111.742 45.808,111.648 45.636,111.648 C45.604,111.648 45.323,111.648 45.229,112.008 L44.323,115.664 C44.276,115.805 44.276,115.82 44.276,115.898 C44.276,116.07 44.417,116.164 44.573,116.164 C44.87,116.164 44.933,115.93 45.011,115.601 C45.104,115.242 45.042,115.43 45.479,113.758 C46.308,113.789 47.183,113.961 47.183,114.601 C47.183,114.68 47.183,114.726 47.151,114.836 C47.12,114.992 47.104,115.101 47.104,115.18 C47.104,115.758 47.511,116.164 48.026,116.164 C48.339,116.164 48.604,115.992 48.808,115.648 C49.058,115.226 49.167,114.633 49.167,114.633 z M49.167,114.633" fill="#000000"/>
    </g>
    <path d="M52.985,116.283 L52.751,116.283 C52.735,116.439 52.657,116.845 52.563,116.908 C52.516,116.955 51.985,116.955 51.876,116.955 L50.594,116.955 C51.329,116.314 51.579,116.111 51.985,115.783 C52.501,115.377 52.985,114.939 52.985,114.283 C52.985,113.439 52.251,112.924 51.36,112.924 C50.501,112.924 49.907,113.533 49.907,114.174 C49.907,114.517 50.204,114.564 50.282,114.564 C50.438,114.564 50.641,114.439 50.641,114.189 C50.641,114.064 50.594,113.814 50.235,113.814 C50.454,113.33 50.923,113.174 51.251,113.174 C51.954,113.174 52.313,113.72 52.313,114.283 C52.313,114.892 51.876,115.361 51.657,115.611 L49.985,117.283 C49.907,117.345 49.907,117.361 49.907,117.549 L52.782,117.549 z M52.985,116.283" fill="#000000"/>
    <g>
      <path d="M61.652,164.096 L60.808,164.096 C60.027,165.221 59.636,166.33 59.636,167.486 C59.636,168.643 60.011,169.736 60.808,170.877 L61.652,170.877 C61.011,169.689 60.683,168.58 60.683,167.486 C60.683,166.377 61.011,165.283 61.652,164.096 z M61.652,164.096" fill="#000000"/>
      <path d="M65.412,167.924 L65.849,167.924 L65.849,167.986 C65.849,168.783 65.505,169.236 64.943,169.236 C64.552,169.236 64.318,168.986 64.318,168.611 C64.318,168.096 64.599,167.924 65.412,167.924 z M66.927,167.502 C66.927,166.783 66.787,166.299 66.521,166.018 C66.24,165.752 65.771,165.611 65.083,165.611 C64.537,165.611 64.052,165.689 63.568,165.893 L63.568,166.83 C64.083,166.549 64.568,166.408 65.083,166.408 C65.583,166.408 65.849,166.611 65.849,166.955 L65.849,167.127 L65.083,167.127 C63.771,167.127 63.146,167.58 63.146,168.564 C63.146,169.471 63.708,169.986 64.662,169.986 C65.146,169.986 65.583,169.783 65.849,169.408 L65.849,169.877 L66.927,169.877 z M66.927,167.502" fill="#000000"/>
      <path d="M68.547,164.096 C69.187,165.283 69.515,166.377 69.515,167.486 C69.515,168.58 69.187,169.689 68.547,170.877 L69.39,170.877 C70.187,169.736 70.562,168.643 70.562,167.486 C70.562,166.33 70.172,165.221 69.39,164.096 z M68.547,164.096" fill="#000000"/>
    </g>
    <g>
      <path d="M77.441,169.486 L76.785,169.486 L76.785,169.877 L78.129,169.877 L78.129,169.252 C78.394,169.752 78.8,169.986 79.41,169.986 C79.894,169.986 80.3,169.799 80.597,169.408 C80.91,169.018 81.066,168.518 81.066,167.893 C81.066,167.283 80.91,166.768 80.597,166.393 C80.3,166.002 79.894,165.814 79.41,165.814 C78.8,165.814 78.394,166.049 78.129,166.533 L78.129,164.08 L76.785,164.08 L76.785,164.471 L77.441,164.471 z M78.129,168.096 L78.129,167.705 C78.129,166.752 78.504,166.236 79.191,166.236 C79.894,166.236 80.269,166.799 80.269,167.893 C80.269,168.986 79.894,169.564 79.191,169.564 C78.504,169.564 78.129,169.049 78.129,168.096 z M78.129,168.096" fill="#000000"/>
      <path d="M85.569,167.971 C85.553,166.564 84.897,165.814 83.694,165.814 C83.147,165.814 82.694,166.002 82.35,166.377 C82.006,166.768 81.819,167.268 81.819,167.893 C81.819,168.533 82.006,169.033 82.35,169.408 C82.709,169.799 83.163,169.986 83.741,169.986 C84.694,169.986 85.288,169.549 85.506,168.674 L84.959,168.674 C84.803,169.299 84.413,169.611 83.819,169.611 C83.038,169.611 82.631,169.064 82.631,168.002 L82.631,167.971 z M84.772,167.58 L82.631,167.58 C82.709,166.658 83.069,166.174 83.694,166.174 C84.366,166.174 84.741,166.658 84.772,167.58 z M84.772,167.58" fill="#000000"/>
      <path d="M86.268,169.877 L88.174,169.877 L88.174,169.486 L87.565,169.486 L87.565,167.674 C87.565,166.783 87.909,166.314 88.549,166.314 C89.143,166.314 89.362,166.611 89.362,167.58 L89.362,169.486 L88.768,169.486 L88.768,169.877 L90.659,169.877 L90.659,169.486 L90.049,169.486 L90.049,167.361 C90.049,166.299 89.643,165.814 88.768,165.814 C88.221,165.814 87.831,166.096 87.565,166.627 L87.565,165.924 L86.237,165.924 L86.237,166.314 L86.893,166.314 L86.893,169.486 L86.268,169.486 z M86.268,169.877" fill="#000000"/>
      <path d="M94.864,169.486 L94.864,164.08 L93.536,164.08 L93.536,164.471 L94.176,164.471 L94.176,166.533 C93.911,166.049 93.505,165.814 92.895,165.814 C92.411,165.814 92.02,166.002 91.708,166.393 C91.395,166.768 91.239,167.283 91.239,167.893 C91.239,168.518 91.395,169.018 91.708,169.408 C92.02,169.799 92.411,169.986 92.895,169.986 C93.505,169.986 93.911,169.752 94.176,169.252 L94.176,169.877 L95.52,169.877 L95.52,169.486 z M94.176,168.096 C94.176,169.049 93.801,169.564 93.114,169.564 C92.411,169.564 92.051,168.986 92.051,167.893 C92.051,166.799 92.411,166.236 93.114,166.236 C93.801,166.236 94.176,166.752 94.176,167.705 z M94.176,168.096" fill="#000000"/>
      <path d="M96.476,164.689 C96.476,164.924 96.679,165.111 96.914,165.111 C97.148,165.111 97.335,164.924 97.335,164.689 C97.335,164.455 97.132,164.268 96.914,164.268 C96.679,164.268 96.476,164.455 96.476,164.689 z M97.351,169.486 L97.351,165.924 L96.023,165.924 L96.023,166.314 L96.679,166.314 L96.679,169.486 L96.023,169.486 L96.023,169.877 L98.007,169.877 L98.007,169.486 z M97.351,169.486" fill="#000000"/>
      <path d="M98.493,169.877 L100.399,169.877 L100.399,169.486 L99.79,169.486 L99.79,167.674 C99.79,166.783 100.134,166.314 100.774,166.314 C101.368,166.314 101.587,166.611 101.587,167.58 L101.587,169.486 L100.993,169.486 L100.993,169.877 L102.884,169.877 L102.884,169.486 L102.274,169.486 L102.274,167.361 C102.274,166.299 101.868,165.814 100.993,165.814 C100.446,165.814 100.056,166.096 99.79,166.627 L99.79,165.924 L98.462,165.924 L98.462,166.314 L99.118,166.314 L99.118,169.486 L98.493,169.486 z M98.493,169.877" fill="#000000"/>
      <path d="M107.089,166.314 L107.745,166.314 L107.745,165.924 L106.401,165.924 L106.401,166.533 C106.136,166.049 105.729,165.814 105.12,165.814 C104.636,165.814 104.245,166.002 103.933,166.393 C103.62,166.768 103.464,167.283 103.464,167.893 C103.464,168.518 103.62,169.018 103.933,169.408 C104.245,169.799 104.636,169.986 105.12,169.986 C105.729,169.986 106.136,169.752 106.401,169.252 L106.401,169.799 C106.401,170.768 106.042,171.205 105.245,171.205 C104.62,171.205 104.308,170.971 104.214,170.455 L103.854,170.455 L103.854,171.283 C104.292,171.471 104.761,171.564 105.292,171.564 C106.448,171.564 107.089,170.924 107.089,169.799 z M106.401,167.705 L106.401,168.096 C106.401,169.049 106.026,169.564 105.339,169.564 C104.636,169.564 104.276,168.986 104.276,167.893 C104.276,166.799 104.636,166.236 105.339,166.236 C106.026,166.236 106.401,166.752 106.401,167.705 z M106.401,167.705" fill="#000000"/>
    </g>
    <g>
      <path d="M110.812,169.658 C111.312,169.877 111.781,169.986 112.296,169.986 C113.296,169.986 113.906,169.533 113.906,168.783 C113.906,168.236 113.609,167.908 112.859,167.658 L112.312,167.502 C111.64,167.283 111.468,167.127 111.468,166.783 C111.468,166.377 111.765,166.174 112.343,166.174 C112.937,166.174 113.281,166.486 113.296,167.002 L113.703,167.002 L113.703,166.127 C113.218,165.924 112.75,165.814 112.328,165.814 C111.39,165.814 110.828,166.252 110.828,166.971 C110.828,167.486 111.109,167.783 111.796,168.002 L112.296,168.174 C112.671,168.299 112.921,168.408 113.031,168.518 C113.156,168.627 113.218,168.768 113.218,168.939 C113.218,169.377 112.89,169.611 112.265,169.611 C111.593,169.611 111.234,169.314 111.218,168.736 L110.812,168.736 z M110.812,169.658" fill="#000000"/>
      <path d="M115.128,166.314 L115.128,168.83 C115.128,169.658 115.409,169.986 116.206,169.986 C116.925,169.986 117.269,169.674 117.3,168.939 L116.784,168.939 C116.784,169.408 116.628,169.611 116.269,169.611 C116.097,169.611 115.972,169.564 115.909,169.486 C115.847,169.377 115.816,169.174 115.816,168.83 L115.816,166.314 L117.097,166.314 L117.097,165.924 L115.816,165.924 L115.816,164.689 L115.128,164.689 L115.128,165.924 L114.519,165.924 L114.519,166.314 z M115.128,166.314" fill="#000000"/>
      <path d="M121.005,165.908 C120.739,165.846 120.489,165.814 120.27,165.814 C119.661,165.814 119.255,166.064 118.973,166.627 L118.973,165.924 L117.645,165.924 L117.645,166.314 L118.301,166.314 L118.301,169.486 L117.676,169.486 L117.676,169.877 L119.77,169.877 L119.77,169.486 L118.973,169.486 L118.973,167.674 C118.973,166.799 119.348,166.314 120.02,166.314 C120.395,166.314 120.583,166.502 120.614,166.908 L121.005,166.908 z M121.005,165.908" fill="#000000"/>
      <path d="M124.038,168.627 C124.038,169.205 123.663,169.58 123.085,169.58 C122.507,169.58 122.148,169.236 122.148,168.689 C122.148,168.08 122.476,167.799 123.163,167.799 L124.038,167.799 z M124.726,167.408 C124.726,166.377 124.148,165.814 123.038,165.814 C122.616,165.814 122.179,165.908 121.694,166.111 L121.694,166.924 L122.038,166.924 C122.132,166.424 122.46,166.174 122.991,166.174 C123.663,166.174 124.038,166.518 124.038,167.127 L124.038,167.393 L123.085,167.393 C122.007,167.393 121.382,167.877 121.382,168.689 C121.382,169.486 121.944,169.986 122.819,169.986 C123.351,169.986 123.741,169.814 124.038,169.455 L124.038,169.877 L125.335,169.877 L125.335,169.486 L124.726,169.486 z M124.726,167.408" fill="#000000"/>
      <path d="M126.284,164.689 C126.284,164.924 126.487,165.111 126.721,165.111 C126.956,165.111 127.143,164.924 127.143,164.689 C127.143,164.455 126.94,164.268 126.721,164.268 C126.487,164.268 126.284,164.455 126.284,164.689 z M127.159,169.486 L127.159,165.924 L125.831,165.924 L125.831,166.314 L126.487,166.314 L126.487,169.486 L125.831,169.486 L125.831,169.877 L127.815,169.877 L127.815,169.486 z M127.159,169.486" fill="#000000"/>
      <path d="M128.301,169.877 L130.207,169.877 L130.207,169.486 L129.598,169.486 L129.598,167.674 C129.598,166.783 129.941,166.314 130.582,166.314 C131.176,166.314 131.395,166.611 131.395,167.58 L131.395,169.486 L130.801,169.486 L130.801,169.877 L132.691,169.877 L132.691,169.486 L132.082,169.486 L132.082,167.361 C132.082,166.299 131.676,165.814 130.801,165.814 C130.254,165.814 129.863,166.096 129.598,166.627 L129.598,165.924 L128.27,165.924 L128.27,166.314 L128.926,166.314 L128.926,169.486 L128.301,169.486 z M128.301,169.877" fill="#000000"/>
      <path d="M133.318,169.658 C133.818,169.877 134.287,169.986 134.803,169.986 C135.803,169.986 136.412,169.533 136.412,168.783 C136.412,168.236 136.115,167.908 135.365,167.658 L134.818,167.502 C134.147,167.283 133.975,167.127 133.975,166.783 C133.975,166.377 134.272,166.174 134.85,166.174 C135.443,166.174 135.787,166.486 135.803,167.002 L136.209,167.002 L136.209,166.127 C135.725,165.924 135.256,165.814 134.834,165.814 C133.897,165.814 133.334,166.252 133.334,166.971 C133.334,167.486 133.615,167.783 134.303,168.002 L134.803,168.174 C135.178,168.299 135.428,168.408 135.537,168.518 C135.662,168.627 135.725,168.768 135.725,168.939 C135.725,169.377 135.397,169.611 134.772,169.611 C134.1,169.611 133.74,169.314 133.725,168.736 L133.318,168.736 z M133.318,169.658" fill="#000000"/>
    </g>
    <g clip-path="url(#Clip_9)">
      <g clip-path="url(#Clip_8)" id="surface1151">
        <g clip-path="url(#Clip_7)"/>
      </g>
    </g>
    <path d="M307.875,104.211 L362.633,89.535" fill-opacity="0" stroke="#666666" stroke-width="0.5" stroke-linecap="round" stroke-linejoin="round"/>
    <path d="M324.25,55.801 L346.258,137.945" fill-opacity="0" stroke="#666666" stroke-width="0.5" stroke-linecap="round" stroke-linejoin="round"/>
    <g>
      <path d="M318.879,145.281 L373.641,130.609 L351.629,48.465 L296.867,63.137 z M318.879,145.281" fill="#FFFFFF"/>
      <path d="M318.879,145.281 L373.641,130.609 L351.629,48.465 L296.867,63.137 z M318.879,145.281" fill-opacity="0" stroke="#000000" stroke-width="1.5" stroke-linecap="round" stroke-linejoin="round"/>
    </g>
    <path d="M335.254,11.832 L335.254,96.871" fill-opacity="0" stroke="#6887FF" stroke-width="1" stroke-linecap="round" stroke-linejoin="round"/>
    <path d="M335.254,96.871 L313.246,14.73" fill-opacity="0" stroke="#666666" stroke-width="0.5" stroke-dasharray="1.5,1" stroke-linecap="round" stroke-linejoin="round"/>
    <path d="M335.254,96.871 L270.059,96.871" fill-opacity="0" stroke="#6887FF" stroke-width="1" stroke-linecap="round" stroke-linejoin="round"/>
    <path d="M335.254,96.871 L272.281,113.746" fill-opacity="0" stroke="#666666" stroke-width="0.5" stroke-dasharray="1.5,1" stroke-linecap="round" stroke-linejoin="round"/>
    <path d="M335.254,96.871 L322.164,96.871" fill-opacity="0" stroke="#6887FF" stroke-width="0.75" stroke-linecap="round" stroke-linejoin="round"/>
    <path d="M322.164,94.625 L316.164,96.875 L322.164,99.125 z M322.164,94.625" fill="#6887FF"/>
    <path d="M322.164,94.621 L316.164,96.871 L322.164,99.121 z M322.164,94.621" fill-opacity="0" stroke="#6887FF" stroke-width="0.75"/>
    <path d="M335.254,96.871 L335.254,83.781" fill-opacity="0" stroke="#6887FF" stroke-width="0.75" stroke-linecap="round" stroke-linejoin="round"/>
    <g>
      <path d="M337.504,83.781 L335.254,77.781 L333.004,83.781 z M337.504,83.781" fill="#6887FF"/>
      <path d="M337.504,83.781 L335.254,77.781 L333.004,83.781 z M337.504,83.781" fill-opacity="0" stroke="#6887FF" stroke-width="0.75"/>
    </g>
    <path d="M335.254,31.676 C330.492,31.676 325.895,32.172 321.301,33.184" fill-opacity="0" stroke="#6887FF" stroke-width="0.5" stroke-linecap="round" stroke-linejoin="round"/>
    <g>
      <path d="M321.301,33.184 L321.914,31.488 L318.387,33.895 L322.629,34.402 z M321.301,33.184" fill="#6887FF"/>
      <path d="M321.301,33.184 L321.914,31.488 L318.387,33.895 L322.629,34.402 z M321.301,33.184" fill-opacity="0" stroke="#6887FF" stroke-width="0.5"/>
    </g>
    <path d="M334.887,95.504 C334.133,95.707 333.684,96.484 333.887,97.238 C334.086,97.996 334.863,98.445 335.621,98.242 C336.379,98.039 336.824,97.262 336.625,96.508 C336.422,95.75 335.645,95.301 334.887,95.504 z M334.887,95.504" fill-opacity="0" stroke="#FF0000" stroke-width="1" stroke-linecap="round" stroke-linejoin="round"/>
    <path d="M338.09,96.875 C338.09,95.309 336.82,94.039 335.254,94.039 C333.688,94.039 332.418,95.309 332.418,96.875 C332.418,98.438 333.688,99.707 335.254,99.707 C336.82,99.707 338.09,98.438 338.09,96.875 z M338.09,96.875" fill="#FFFFFF"/>
    <path d="M335.254,94.039 C336.82,94.039 338.09,95.309 338.09,96.871 C338.09,98.438 336.82,99.707 335.254,99.707 C333.688,99.707 332.418,98.438 332.418,96.871 C332.418,95.309 333.688,94.039 335.254,94.039 z M335.254,95.039 C334.242,95.039 333.418,95.859 333.418,96.871 C333.418,97.887 334.242,98.707 335.254,98.707 C336.266,98.707 337.09,97.887 337.09,96.871 C337.09,95.859 336.266,95.039 335.254,95.039 z M335.254,95.039" fill="#000000"/>
    <g clip-path="url(#Clip_11)">
      <g clip-path="url(#Clip_10)">
        <path d="M265.766,116.156 C265.73,116.02 265.586,116.059 265.496,116.082 C265.391,116.113 265.352,116.121 265.316,116.184 C265.305,116.207 265.309,116.227 265.316,116.48 C265.328,117.305 265.16,117.555 264.918,117.621 C264.812,117.648 264.688,117.641 264.602,117.324 C264.562,117.18 264.547,117.039 264.551,116.895 L264.457,111.234 C264.461,111.09 264.453,111.062 264.453,111.062 C264.418,110.938 264.301,110.918 264.191,110.945 C264.156,110.957 264.145,110.957 264.129,110.973 L262.902,111.363 C262.77,111.41 262.602,111.465 262.672,111.734 C262.719,111.906 262.891,111.863 262.969,111.84 C263.074,111.812 263.246,111.766 263.379,111.75 L263.43,114.02 C263.246,113.922 262.875,113.797 262.363,113.934 C260.688,114.379 260.059,116.18 260.41,117.496 C260.727,118.68 261.723,118.848 262.52,118.633 C263.203,118.453 263.602,117.941 263.719,117.758 C264.223,118.18 264.859,118.008 264.965,117.98 C265.32,117.883 265.547,117.605 265.656,117.207 C265.793,116.758 265.777,116.203 265.766,116.156 z M263.5,117.328 C263.309,117.73 262.938,118.152 262.477,118.273 C261.879,118.434 261.691,117.93 261.633,117.715 C261.5,117.215 261.512,115.945 261.562,115.527 C261.676,114.746 262.082,114.379 262.477,114.273 C263.043,114.121 263.395,114.512 263.422,114.617 L263.441,114.758 z M263.5,117.328" fill="#000000"/>
      </g>
    </g>
    <g clip-path="url(#Clip_13)">
      <g clip-path="url(#Clip_12)">
        <path d="M269.711,116.859 L269.48,116.918 C269.5,117.074 269.539,117.488 269.469,117.578 C269.426,117.633 268.906,117.773 268.812,117.797 L267.574,118.129 C268.113,117.316 268.297,117.062 268.617,116.637 C269.008,116.105 269.363,115.566 269.191,114.926 C268.973,114.109 268.125,113.801 267.262,114.035 C266.426,114.258 266.02,114.996 266.184,115.613 C266.277,115.957 266.574,115.914 266.645,115.895 C266.805,115.852 266.969,115.688 266.902,115.445 C266.871,115.324 266.762,115.098 266.41,115.191 C266.492,114.66 266.91,114.387 267.227,114.305 C267.902,114.121 268.391,114.555 268.539,115.102 C268.695,115.688 268.402,116.262 268.25,116.562 L267.059,118.602 C267.008,118.68 267.008,118.691 267.059,118.883 L269.836,118.137 z M269.711,116.859" fill="#000000"/>
      </g>
    </g>
    <path d="M312.871,9.02 C312.836,8.883 312.691,8.922 312.605,8.945 C312.5,8.973 312.461,8.984 312.426,9.047 C312.41,9.07 312.418,9.09 312.422,9.344 C312.438,10.168 312.266,10.418 312.027,10.484 C311.922,10.512 311.793,10.504 311.711,10.188 C311.672,10.043 311.652,9.902 311.656,9.758 L311.562,4.098 C311.566,3.953 311.559,3.926 311.559,3.926 C311.523,3.801 311.406,3.781 311.301,3.809 C311.262,3.82 311.254,3.82 311.234,3.836 L310.008,4.227 C309.879,4.273 309.707,4.328 309.777,4.598 C309.824,4.77 310,4.723 310.074,4.703 C310.18,4.676 310.355,4.629 310.484,4.613 L310.535,6.879 C310.355,6.785 309.98,6.656 309.469,6.793 C307.797,7.242 307.164,9.043 307.516,10.359 C307.836,11.543 308.828,11.711 309.625,11.496 C310.309,11.312 310.711,10.805 310.824,10.617 C311.328,11.039 311.965,10.871 312.07,10.844 C312.426,10.746 312.652,10.469 312.762,10.07 C312.898,9.621 312.883,9.066 312.871,9.02 z M310.609,10.191 C310.418,10.594 310.043,11.016 309.582,11.137 C308.984,11.297 308.797,10.789 308.742,10.578 C308.605,10.078 308.617,8.809 308.672,8.391 C308.781,7.609 309.188,7.242 309.582,7.137 C310.148,6.984 310.504,7.375 310.531,7.48 L310.547,7.621 z M310.609,10.191" fill="#000000"/>
    <path d="M316.93,11.004 L316.863,10.762 L316.609,10.832 C315.934,11.012 315.91,10.922 315.852,10.703 L314.852,6.969 C314.801,6.789 314.789,6.785 314.598,6.836 C314.281,7.375 313.672,7.547 313.395,7.621 L313.457,7.863 C313.621,7.82 314.066,7.699 314.387,7.41 L315.305,10.848 C315.367,11.07 315.391,11.156 314.715,11.336 L314.461,11.406 L314.523,11.648 L315.715,11.301 z M316.93,11.004" fill="#000000"/>
    <path d="M344.789,101.109 C344.789,100.969 344.641,100.969 344.551,100.969 C344.43,100.969 344.359,100.969 344.32,101.098 C344.031,102.004 343.312,102.305 342.906,102.305 C342.527,102.305 342.348,102.125 342.348,101.805 C342.348,101.598 342.477,101.07 342.566,100.699 L342.914,99.344 C343.066,98.746 343.414,98.438 343.762,98.438 C343.812,98.438 344.043,98.438 344.242,98.59 C343.883,98.688 343.703,99.027 343.703,99.277 C343.703,99.496 343.871,99.734 344.199,99.734 C344.551,99.734 344.918,99.445 344.918,98.957 C344.918,98.43 344.391,98.078 343.781,98.078 C343.215,98.078 342.848,98.508 342.715,98.688 C342.469,98.27 341.91,98.078 341.344,98.078 C340.086,98.078 339.41,99.305 339.41,99.633 C339.41,99.773 339.559,99.773 339.648,99.773 C339.77,99.773 339.836,99.773 339.879,99.645 C340.168,98.738 340.883,98.438 341.293,98.438 C341.672,98.438 341.852,98.617 341.852,98.938 C341.852,99.125 341.711,99.676 341.621,100.031 L341.281,101.398 C341.133,102.004 340.773,102.305 340.434,102.305 C340.387,102.305 340.156,102.305 339.957,102.156 C340.316,102.055 340.496,101.715 340.496,101.469 C340.496,101.25 340.324,101.008 339.996,101.008 C339.648,101.008 339.281,101.297 339.281,101.785 C339.281,102.312 339.809,102.664 340.414,102.664 C340.984,102.664 341.352,102.234 341.48,102.055 C341.73,102.473 342.289,102.664 342.855,102.664 C344.113,102.664 344.789,101.438 344.789,101.109 z M344.789,101.109" fill="#000000"/>
    <path d="M344.984,32.352 C344.984,32.254 344.895,32.254 344.867,32.254 C344.766,32.254 344.758,32.293 344.727,32.434 C344.559,33.082 344.379,33.668 343.969,33.668 C343.699,33.668 343.672,33.41 343.672,33.211 C343.672,32.969 343.691,32.902 343.73,32.73 L345.164,26.973 C345.164,26.973 345.164,26.863 345.035,26.863 C344.887,26.863 343.941,26.953 343.77,26.973 C343.691,26.984 343.629,27.031 343.629,27.164 C343.629,27.281 343.719,27.281 343.871,27.281 C344.348,27.281 344.367,27.352 344.367,27.453 L344.34,27.652 L343.738,30.012 C343.562,29.645 343.273,29.375 342.824,29.375 C341.656,29.375 340.422,30.84 340.422,32.293 C340.422,33.23 340.969,33.887 341.746,33.887 C341.945,33.887 342.445,33.848 343.043,33.141 C343.121,33.559 343.473,33.887 343.949,33.887 C344.297,33.887 344.527,33.656 344.688,33.34 C344.855,32.98 344.984,32.352 344.984,32.352 z M343.59,30.641 L343.094,32.594 C343.043,32.773 343.043,32.793 342.895,32.961 C342.453,33.508 342.047,33.668 341.77,33.668 C341.27,33.668 341.129,33.121 341.129,32.73 C341.129,32.234 341.449,31.008 341.68,30.551 C341.988,29.961 342.434,29.594 342.832,29.594 C343.48,29.594 343.621,30.41 343.621,30.469 C343.621,30.531 343.602,30.59 343.59,30.641 z M343.59,30.641" fill="#6887FF"/>
    <path d="M349.738,28.797 C349.738,28.141 349.559,26.754 348.543,26.754 C347.156,26.754 345.625,29.562 345.625,31.844 C345.625,32.781 345.91,33.887 346.82,33.887 C348.223,33.887 349.738,31.027 349.738,28.797 z M348.762,30.16 L346.68,30.16 C346.848,29.523 347.047,28.727 347.445,28.02 C347.715,27.531 348.082,26.973 348.531,26.973 C349.02,26.973 349.082,27.609 349.082,28.18 C349.082,28.668 349,29.176 348.762,30.16 z M348.672,30.48 C348.562,30.938 348.352,31.785 347.973,32.504 C347.625,33.18 347.246,33.668 346.82,33.668 C346.488,33.668 346.281,33.379 346.281,32.453 C346.281,32.035 346.34,31.457 346.598,30.48 z M348.672,30.48" fill="#6887FF"/>
    <path d="M360.113,30.32 C360.113,30.121 359.922,30.121 359.785,30.121 L353.816,30.121 C353.676,30.121 353.488,30.121 353.488,30.32 C353.488,30.52 353.676,30.52 353.828,30.52 L359.773,30.52 C359.922,30.52 360.113,30.52 360.113,30.32 z M360.113,32.254 C360.113,32.055 359.922,32.055 359.773,32.055 L353.828,32.055 C353.676,32.055 353.488,32.055 353.488,32.254 C353.488,32.453 353.676,32.453 353.816,32.453 L359.785,32.453 C359.922,32.453 360.113,32.453 360.113,32.254 z M360.113,32.254" fill="#6887FF"/>
    <path d="M368.535,29.723 C368.535,29.484 368.328,29.484 368.137,29.484 L365.348,29.484 C365.148,29.484 364.762,29.484 364.32,29.953 C363.992,30.312 363.715,30.789 363.715,30.848 C363.715,30.848 363.715,30.949 363.832,30.949 C363.914,30.949 363.934,30.91 363.992,30.828 C364.48,30.062 365.051,30.062 365.258,30.062 L366.086,30.062 L365.109,33.258 C365.07,33.379 365.008,33.59 365.008,33.629 C365.008,33.738 365.078,33.898 365.297,33.898 C365.629,33.898 365.676,33.617 365.707,33.469 L366.375,30.062 L368.047,30.062 C368.176,30.062 368.535,30.062 368.535,29.723 z M368.535,29.723" fill="#6887FF"/>
    <path d="M373.887,32.352 C373.887,32.254 373.797,32.254 373.766,32.254 C373.668,32.254 373.656,32.293 373.625,32.434 C373.457,33.082 373.277,33.668 372.871,33.668 C372.602,33.668 372.57,33.41 372.57,33.211 C372.57,32.969 372.59,32.902 372.629,32.73 L374.066,26.973 C374.066,26.973 374.066,26.863 373.938,26.863 C373.785,26.863 372.84,26.953 372.672,26.973 C372.59,26.984 372.531,27.031 372.531,27.164 C372.531,27.281 372.621,27.281 372.77,27.281 C373.25,27.281 373.27,27.352 373.27,27.453 L373.238,27.652 L372.641,30.012 C372.461,29.645 372.172,29.375 371.723,29.375 C370.559,29.375 369.324,30.84 369.324,32.293 C369.324,33.23 369.871,33.887 370.648,33.887 C370.848,33.887 371.344,33.848 371.941,33.141 C372.023,33.559 372.371,33.887 372.852,33.887 C373.199,33.887 373.426,33.656 373.586,33.34 C373.758,32.98 373.887,32.352 373.887,32.352 z M372.492,30.641 L371.992,32.594 C371.941,32.773 371.941,32.793 371.793,32.961 C371.355,33.508 370.945,33.668 370.668,33.668 C370.168,33.668 370.031,33.121 370.031,32.73 C370.031,32.234 370.348,31.008 370.578,30.551 C370.887,29.961 371.336,29.594 371.734,29.594 C372.383,29.594 372.52,30.41 372.52,30.469 C372.52,30.531 372.5,30.59 372.492,30.641 z M372.492,30.641" fill="#6887FF"/>
    <path d="M378.051,32.234 C378.051,31.875 377.859,31.625 377.742,31.508 C377.473,31.227 377.184,31.176 376.746,31.086 C376.387,31.008 375.988,30.938 375.988,30.488 C375.988,30.199 376.227,29.594 377.105,29.594 C377.352,29.594 377.852,29.664 378,30.051 C377.723,30.062 377.523,30.281 377.523,30.5 C377.523,30.641 377.613,30.789 377.832,30.789 C378.051,30.789 378.289,30.621 378.289,30.23 C378.289,29.781 377.859,29.375 377.105,29.375 C375.789,29.375 375.422,30.391 375.422,30.828 C375.422,31.605 376.156,31.754 376.445,31.816 C376.965,31.914 377.48,32.023 377.48,32.57 C377.48,32.832 377.254,33.668 376.059,33.668 C375.918,33.668 375.152,33.668 374.922,33.141 C375.301,33.191 375.551,32.891 375.551,32.613 C375.551,32.383 375.391,32.262 375.18,32.262 C374.922,32.262 374.625,32.473 374.625,32.922 C374.625,33.488 375.191,33.887 376.047,33.887 C377.66,33.887 378.051,32.684 378.051,32.234 z M378.051,32.234" fill="#6887FF"/>
    <path d="M337.98,6.824 C337.98,6.684 337.832,6.684 337.742,6.684 C337.633,6.684 337.594,6.684 337.543,6.734 C337.523,6.754 337.523,6.773 337.465,7.023 C337.266,7.797 337.047,8.02 336.785,8.02 C336.637,8.02 336.559,7.918 336.559,7.648 C336.559,7.48 336.598,7.32 336.695,6.922 L336.918,6.023 L337.145,5.137 C337.215,4.859 337.336,4.383 337.336,4.312 C337.336,4.102 337.176,3.875 336.867,3.875 C336.707,3.875 336.34,3.965 336.207,4.402 L335.641,6.672 C335.582,6.902 335.512,7.191 335.492,7.371 C335.312,7.609 334.922,8.02 334.414,8.02 C333.828,8.02 333.816,7.52 333.816,7.289 C333.816,6.684 334.125,5.906 334.406,5.188 C334.504,4.93 334.535,4.859 334.535,4.691 C334.535,4.113 333.957,3.793 333.41,3.793 C332.352,3.793 331.855,5.148 331.855,5.348 C331.855,5.488 332.004,5.488 332.094,5.488 C332.215,5.488 332.285,5.488 332.324,5.359 C332.652,4.25 333.191,4.152 333.348,4.152 C333.418,4.152 333.52,4.152 333.52,4.363 C333.52,4.59 333.398,4.871 333.359,4.988 C332.941,6.035 332.75,6.594 332.75,7.082 C332.75,8.219 333.746,8.375 334.336,8.375 C334.625,8.375 335.062,8.336 335.602,7.828 C335.918,8.316 336.496,8.375 336.738,8.375 C337.105,8.375 337.395,8.168 337.602,7.809 C337.852,7.41 337.98,6.871 337.98,6.824 z M337.98,6.824" fill="#6887FF"/>
    <path d="M267.125,95.484 C267.125,94.578 266.449,94.578 266.449,94.578 C266.051,94.578 265.691,94.996 265.691,95.336 C265.691,95.613 265.898,95.734 265.988,95.781 C266.406,96.031 266.488,96.211 266.488,96.41 C266.488,96.629 265.91,98.812 264.742,98.812 C264.027,98.812 264.027,98.215 264.027,98.035 C264.027,97.457 264.305,96.73 264.625,95.934 C264.703,95.734 264.734,95.645 264.734,95.484 C264.734,94.906 264.156,94.586 263.609,94.586 C262.551,94.586 262.055,95.941 262.055,96.141 C262.055,96.281 262.203,96.281 262.293,96.281 C262.414,96.281 262.484,96.281 262.523,96.152 C262.84,95.074 263.371,94.945 263.547,94.945 C263.617,94.945 263.719,94.945 263.719,95.156 C263.719,95.383 263.598,95.672 263.57,95.754 C263.109,96.906 262.961,97.355 262.961,97.836 C262.961,98.891 263.816,99.168 264.684,99.168 C266.398,99.168 267.125,96.34 267.125,95.484 z M267.125,95.484" fill="#6887FF"/>
    <g>
      <path d="M287.51,164.096 L286.667,164.096 C285.885,165.221 285.495,166.33 285.495,167.486 C285.495,168.643 285.87,169.736 286.667,170.877 L287.51,170.877 C286.87,169.689 286.542,168.58 286.542,167.486 C286.542,166.377 286.87,165.283 287.51,164.096 z M287.51,164.096" fill="#000000"/>
      <path d="M291.833,167.799 C291.833,168.611 291.536,169.096 291.067,169.096 C290.599,169.096 290.302,168.611 290.302,167.799 C290.302,167.002 290.599,166.518 291.067,166.518 C291.536,166.518 291.833,167.002 291.833,167.799 z M290.302,166.299 L290.302,164.08 L289.224,164.08 L289.224,169.877 L290.302,169.877 L290.302,169.252 C290.536,169.736 290.911,169.986 291.411,169.986 C292.364,169.986 292.911,169.189 292.911,167.799 C292.911,166.377 292.364,165.611 291.38,165.611 C290.927,165.611 290.567,165.83 290.302,166.299 z M290.302,166.299" fill="#000000"/>
      <path d="M294.406,164.096 C295.046,165.283 295.374,166.377 295.374,167.486 C295.374,168.58 295.046,169.689 294.406,170.877 L295.249,170.877 C296.046,169.736 296.421,168.643 296.421,167.486 C296.421,166.33 296.031,165.221 295.249,164.096 z M294.406,164.096" fill="#000000"/>
    </g>
    <g>
      <path d="M305.457,168.627 C305.457,169.205 305.082,169.58 304.504,169.58 C303.926,169.58 303.567,169.236 303.567,168.689 C303.567,168.08 303.895,167.799 304.582,167.799 L305.457,167.799 z M306.145,167.408 C306.145,166.377 305.567,165.814 304.457,165.814 C304.035,165.814 303.598,165.908 303.113,166.111 L303.113,166.924 L303.457,166.924 C303.551,166.424 303.879,166.174 304.41,166.174 C305.082,166.174 305.457,166.518 305.457,167.127 L305.457,167.393 L304.504,167.393 C303.426,167.393 302.801,167.877 302.801,168.689 C302.801,169.486 303.363,169.986 304.238,169.986 C304.77,169.986 305.16,169.814 305.457,169.455 L305.457,169.877 L306.754,169.877 L306.754,169.486 L306.145,169.486 z M306.145,167.408" fill="#000000"/>
      <path d="M307.281,169.877 L309.187,169.877 L309.187,169.486 L308.578,169.486 L308.578,167.674 C308.578,166.783 308.922,166.314 309.562,166.314 C310.156,166.314 310.375,166.611 310.375,167.58 L310.375,169.486 L309.781,169.486 L309.781,169.877 L311.672,169.877 L311.672,169.486 L311.062,169.486 L311.062,167.361 C311.062,166.299 310.656,165.814 309.781,165.814 C309.234,165.814 308.843,166.096 308.578,166.627 L308.578,165.924 L307.25,165.924 L307.25,166.314 L307.906,166.314 L307.906,169.486 L307.281,169.486 z M307.281,169.877" fill="#000000"/>
      <path d="M315.877,166.314 L316.533,166.314 L316.533,165.924 L315.189,165.924 L315.189,166.533 C314.924,166.049 314.517,165.814 313.908,165.814 C313.424,165.814 313.033,166.002 312.72,166.393 C312.408,166.768 312.252,167.283 312.252,167.893 C312.252,168.518 312.408,169.018 312.72,169.408 C313.033,169.799 313.424,169.986 313.908,169.986 C314.517,169.986 314.924,169.752 315.189,169.252 L315.189,169.799 C315.189,170.768 314.83,171.205 314.033,171.205 C313.408,171.205 313.095,170.971 313.002,170.455 L312.642,170.455 L312.642,171.283 C313.08,171.471 313.549,171.564 314.08,171.564 C315.236,171.564 315.877,170.924 315.877,169.799 z M315.189,167.705 L315.189,168.096 C315.189,169.049 314.814,169.564 314.127,169.564 C313.424,169.564 313.064,168.986 313.064,167.893 C313.064,166.799 313.424,166.236 314.127,166.236 C314.814,166.236 315.189,166.752 315.189,167.705 z M315.189,167.705" fill="#000000"/>
      <path d="M319.458,165.924 L319.458,166.314 L320.051,166.314 L320.051,168.111 C320.051,169.002 319.708,169.486 319.067,169.486 C318.77,169.486 318.567,169.393 318.442,169.221 C318.333,169.033 318.27,168.705 318.27,168.221 L318.27,165.924 L316.958,165.924 L316.958,166.314 L317.583,166.314 L317.583,168.439 C317.583,169.502 317.973,169.986 318.864,169.986 C319.379,169.986 319.801,169.705 320.051,169.174 L320.051,169.877 L321.379,169.877 L321.379,169.486 L320.739,169.486 L320.739,165.924 z M319.458,165.924" fill="#000000"/>
      <path d="M323.225,169.486 L323.225,164.08 L321.881,164.08 L321.881,164.471 L322.538,164.471 L322.538,169.486 L321.881,169.486 L321.881,169.877 L323.881,169.877 L323.881,169.486 z M323.225,169.486" fill="#000000"/>
      <path d="M327.133,168.627 C327.133,169.205 326.758,169.58 326.18,169.58 C325.602,169.58 325.242,169.236 325.242,168.689 C325.242,168.08 325.57,167.799 326.258,167.799 L327.133,167.799 z M327.82,167.408 C327.82,166.377 327.242,165.814 326.133,165.814 C325.711,165.814 325.273,165.908 324.789,166.111 L324.789,166.924 L325.133,166.924 C325.227,166.424 325.555,166.174 326.086,166.174 C326.758,166.174 327.133,166.518 327.133,167.127 L327.133,167.393 L326.18,167.393 C325.102,167.393 324.477,167.877 324.477,168.689 C324.477,169.486 325.039,169.986 325.914,169.986 C326.445,169.986 326.836,169.814 327.133,169.455 L327.133,169.877 L328.43,169.877 L328.43,169.486 L327.82,169.486 z M327.82,167.408" fill="#000000"/>
      <path d="M332.285,165.908 C332.019,165.846 331.769,165.814 331.55,165.814 C330.941,165.814 330.535,166.064 330.253,166.627 L330.253,165.924 L328.925,165.924 L328.925,166.314 L329.581,166.314 L329.581,169.486 L328.956,169.486 L328.956,169.877 L331.05,169.877 L331.05,169.486 L330.253,169.486 L330.253,167.674 C330.253,166.799 330.628,166.314 331.3,166.314 C331.675,166.314 331.863,166.502 331.894,166.908 L332.285,166.908 z M332.285,165.908" fill="#000000"/>
    </g>
    <g>
      <path d="M338.711,169.486 L338.711,164.08 L337.383,164.08 L337.383,164.471 L338.023,164.471 L338.023,166.533 C337.758,166.049 337.351,165.814 336.742,165.814 C336.258,165.814 335.867,166.002 335.554,166.393 C335.242,166.768 335.086,167.283 335.086,167.893 C335.086,168.518 335.242,169.018 335.554,169.408 C335.867,169.799 336.258,169.986 336.742,169.986 C337.351,169.986 337.758,169.752 338.023,169.252 L338.023,169.877 L339.367,169.877 L339.367,169.486 z M338.023,168.096 C338.023,169.049 337.648,169.564 336.961,169.564 C336.258,169.564 335.898,168.986 335.898,167.893 C335.898,166.799 336.258,166.236 336.961,166.236 C337.648,166.236 338.023,166.752 338.023,167.705 z M338.023,168.096" fill="#000000"/>
      <path d="M343.713,167.971 C343.698,166.564 343.042,165.814 341.838,165.814 C341.292,165.814 340.838,166.002 340.495,166.377 C340.151,166.768 339.963,167.268 339.963,167.893 C339.963,168.533 340.151,169.033 340.495,169.408 C340.854,169.799 341.307,169.986 341.885,169.986 C342.838,169.986 343.432,169.549 343.651,168.674 L343.104,168.674 C342.948,169.299 342.557,169.611 341.963,169.611 C341.182,169.611 340.776,169.064 340.776,168.002 L340.776,167.971 z M342.917,167.58 L340.776,167.58 C340.854,166.658 341.213,166.174 341.838,166.174 C342.51,166.174 342.885,166.658 342.917,167.58 z M342.917,167.58" fill="#000000"/>
      <path d="M345.991,169.877 L346.491,169.877 L347.944,166.314 L348.382,166.314 L348.382,165.924 L346.897,165.924 L346.897,166.314 L347.491,166.314 L346.382,169.033 L345.272,166.314 L345.897,166.314 L345.897,165.924 L344.085,165.924 L344.085,166.314 L344.522,166.314 z M345.991,169.877" fill="#000000"/>
      <path d="M349.141,164.689 C349.141,164.924 349.344,165.111 349.578,165.111 C349.813,165.111 350,164.924 350,164.689 C350,164.455 349.797,164.268 349.578,164.268 C349.344,164.268 349.141,164.455 349.141,164.689 z M350.016,169.486 L350.016,165.924 L348.688,165.924 L348.688,166.314 L349.344,166.314 L349.344,169.486 L348.688,169.486 L348.688,169.877 L350.672,169.877 L350.672,169.486 z M350.016,169.486" fill="#000000"/>
      <path d="M353.877,168.627 C353.877,169.205 353.502,169.58 352.923,169.58 C352.345,169.58 351.986,169.236 351.986,168.689 C351.986,168.08 352.314,167.799 353.002,167.799 L353.877,167.799 z M354.564,167.408 C354.564,166.377 353.986,165.814 352.877,165.814 C352.455,165.814 352.017,165.908 351.533,166.111 L351.533,166.924 L351.877,166.924 C351.97,166.424 352.298,166.174 352.83,166.174 C353.502,166.174 353.877,166.518 353.877,167.127 L353.877,167.393 L352.923,167.393 C351.845,167.393 351.22,167.877 351.22,168.689 C351.22,169.486 351.783,169.986 352.658,169.986 C353.189,169.986 353.58,169.814 353.877,169.455 L353.877,169.877 L355.173,169.877 L355.173,169.486 L354.564,169.486 z M354.564,167.408" fill="#000000"/>
      <path d="M356.216,166.314 L356.216,168.83 C356.216,169.658 356.497,169.986 357.294,169.986 C358.013,169.986 358.357,169.674 358.388,168.939 L357.872,168.939 C357.872,169.408 357.716,169.611 357.357,169.611 C357.185,169.611 357.06,169.564 356.997,169.486 C356.935,169.377 356.903,169.174 356.903,168.83 L356.903,166.314 L358.185,166.314 L358.185,165.924 L356.903,165.924 L356.903,164.689 L356.216,164.689 L356.216,165.924 L355.607,165.924 L355.607,166.314 z M356.216,166.314" fill="#000000"/>
      <path d="M359.186,164.689 C359.186,164.924 359.389,165.111 359.624,165.111 C359.858,165.111 360.045,164.924 360.045,164.689 C360.045,164.455 359.842,164.268 359.624,164.268 C359.389,164.268 359.186,164.455 359.186,164.689 z M360.061,169.486 L360.061,165.924 L358.733,165.924 L358.733,166.314 L359.389,166.314 L359.389,169.486 L358.733,169.486 L358.733,169.877 L360.717,169.877 L360.717,169.486 z M360.061,169.486" fill="#000000"/>
      <path d="M363.187,169.611 C362.453,169.611 362.078,169.033 362.078,167.893 C362.078,166.768 362.453,166.174 363.187,166.174 C363.922,166.174 364.297,166.768 364.297,167.893 C364.297,169.033 363.922,169.611 363.187,169.611 z M363.187,169.986 C363.766,169.986 364.234,169.799 364.578,169.408 C364.922,169.033 365.094,168.533 365.094,167.893 C365.094,167.268 364.922,166.752 364.578,166.377 C364.234,166.002 363.766,165.814 363.187,165.814 C362.609,165.814 362.141,166.002 361.797,166.377 C361.453,166.752 361.266,167.268 361.266,167.893 C361.266,168.533 361.453,169.033 361.797,169.408 C362.156,169.799 362.609,169.986 363.187,169.986 z M363.187,169.986" fill="#000000"/>
      <path d="M365.791,169.877 L367.697,169.877 L367.697,169.486 L367.088,169.486 L367.088,167.674 C367.088,166.783 367.432,166.314 368.072,166.314 C368.666,166.314 368.885,166.611 368.885,167.58 L368.885,169.486 L368.291,169.486 L368.291,169.877 L370.182,169.877 L370.182,169.486 L369.572,169.486 L369.572,167.361 C369.572,166.299 369.166,165.814 368.291,165.814 C367.744,165.814 367.354,166.096 367.088,166.627 L367.088,165.924 L365.76,165.924 L365.76,166.314 L366.416,166.314 L366.416,169.486 L365.791,169.486 z M365.791,169.877" fill="#000000"/>
    </g>
    <g>
      <g>
        <path d="M96.945,191.365 L96.945,190.286 L93.101,190.286 L93.101,196.458 L94.32,196.458 L94.32,193.771 L96.711,193.771 L96.711,192.693 L94.32,192.693 L94.32,191.365 z M96.945,191.365" fill="#000000"/>
        <path d="M98.371,191.833 L98.371,192.755 L99.543,192.755 L99.543,195.521 L98.043,195.521 L98.043,196.458 L102.262,196.458 L102.262,195.521 L100.762,195.521 L100.762,191.833 z M99.543,189.568 L99.543,190.99 L100.762,190.99 L100.762,189.568 z M99.543,189.568" fill="#000000"/>
        <path d="M105.86,194.068 C105.86,194.911 105.516,195.443 105.016,195.443 C104.5,195.443 104.172,194.911 104.172,194.068 C104.172,193.225 104.5,192.693 105.016,192.693 C105.516,192.693 105.86,193.256 105.86,194.068 z M107.078,196.115 L107.078,191.833 L105.86,191.833 L105.86,192.411 C105.625,191.975 105.203,191.708 104.672,191.708 C104.141,191.708 103.735,191.911 103.422,192.35 C103.11,192.786 102.953,193.365 102.953,194.1 C102.953,195.521 103.625,196.396 104.688,196.396 C105.25,196.396 105.625,196.193 105.86,195.74 L105.86,196.24 C105.86,196.928 105.547,197.24 104.875,197.24 C104.36,197.24 103.907,197.115 103.438,196.881 L103.438,197.99 C103.938,198.146 104.438,198.208 104.938,198.208 C106.453,198.208 107.078,197.6 107.078,196.115 z M107.078,196.115" fill="#000000"/>
        <path d="M108.301,194.833 C108.301,195.99 108.77,196.583 109.645,196.583 C110.223,196.583 110.645,196.286 110.817,195.771 L110.817,196.458 L112.036,196.458 L112.036,191.833 L110.817,191.833 L110.817,194.49 C110.817,195.193 110.567,195.583 110.13,195.583 C109.692,195.583 109.52,195.318 109.52,194.661 L109.52,191.833 L108.301,191.833 z M108.301,194.833" fill="#000000"/>
        <path d="M117.509,193.1 L117.509,191.958 C117.227,191.786 116.899,191.708 116.556,191.708 C115.915,191.708 115.399,192.006 115.149,192.553 L115.149,191.833 L113.946,191.833 L113.946,196.458 L115.149,196.458 L115.149,194.318 C115.149,193.708 115.196,193.475 115.337,193.271 C115.54,192.928 115.946,192.74 116.446,192.74 C116.884,192.74 117.243,192.865 117.509,193.1 z M117.509,193.1" fill="#000000"/>
        <path d="M122.403,196.225 L122.403,195.115 C121.81,195.475 121.278,195.615 120.732,195.615 C119.888,195.615 119.466,195.256 119.45,194.536 L122.591,194.536 L122.591,194.053 C122.591,192.568 121.81,191.708 120.419,191.708 C119.747,191.708 119.216,191.943 118.81,192.381 C118.419,192.803 118.216,193.411 118.216,194.161 C118.216,195.725 119.06,196.583 120.607,196.583 C121.263,196.583 121.825,196.475 122.403,196.225 z M121.372,193.631 L119.466,193.631 C119.528,193.006 119.872,192.661 120.419,192.661 C121.044,192.661 121.357,192.99 121.372,193.631 z M121.372,193.631" fill="#000000"/>
      </g>
      <g>
        <path d="M130.912,191.646 L130.912,194.083 L129.349,194.083 z M130.802,190.286 L128.459,193.943 L128.459,195.13 L130.912,195.13 L130.912,196.458 L132.084,196.458 L132.084,195.13 L132.756,195.13 L132.756,194.083 L132.084,194.083 L132.084,190.286 z M130.802,190.286" fill="#000000"/>
        <path d="M134.994,194.942 L134.994,196.458 L136.369,196.458 L136.369,194.942 z M134.994,194.942" fill="#000000"/>
        <path d="M139.014,195.38 L139.014,196.458 L142.92,196.458 L142.92,195.38 L141.561,195.38 L141.561,190.286 L140.389,190.286 L139.108,190.583 L139.108,191.693 L140.373,191.38 L140.373,195.38 z M139.014,195.38" fill="#000000"/>
      </g>
      <path d="M149.678,193.411 L149.678,194.614 L152.288,194.614 L152.288,193.411 z M149.678,193.411" fill="#000000"/>
      <g>
        <path d="M164.718,194.818 L163.937,194.818 C163.671,195.693 163.062,196.13 162.124,196.13 C160.781,196.13 160.077,195.178 160.077,193.38 C160.077,191.568 160.781,190.615 162.124,190.615 C163.249,190.615 163.859,191.083 164.062,192.13 L164.546,192.13 L164.546,190.708 C163.64,190.35 162.89,190.178 162.187,190.178 C161.265,190.178 160.515,190.475 159.952,191.053 C159.39,191.646 159.109,192.411 159.109,193.38 C159.109,194.365 159.406,195.146 160.046,195.771 C160.593,196.303 161.296,196.583 162.124,196.583 C163.468,196.583 164.343,195.975 164.718,194.818 z M164.718,194.818" fill="#000000"/>
        <path d="M168.295,192.068 L168.295,192.506 L168.967,192.506 L168.967,194.506 C168.967,195.49 168.592,196.022 167.857,196.022 C167.529,196.022 167.279,195.912 167.138,195.725 C167.013,195.522 166.935,195.162 166.935,194.615 L166.935,192.068 L165.467,192.068 L165.467,192.506 L166.17,192.506 L166.17,194.865 C166.17,196.037 166.607,196.584 167.623,196.584 C168.217,196.584 168.685,196.272 168.967,195.678 L168.967,196.459 L170.482,196.459 L170.482,196.022 L169.748,196.022 L169.748,192.068 z M168.295,192.068" fill="#000000"/>
        <path d="M174.92,192.053 C174.607,191.99 174.342,191.943 174.092,191.943 C173.389,191.943 172.935,192.24 172.623,192.85 L172.623,192.068 L171.107,192.068 L171.107,192.49 L171.842,192.49 L171.842,196.022 L171.154,196.022 L171.154,196.459 L173.529,196.459 L173.529,196.022 L172.623,196.022 L172.623,194.006 C172.623,193.037 173.045,192.506 173.81,192.506 C174.232,192.506 174.451,192.709 174.482,193.162 L174.92,193.162 z M174.92,192.053" fill="#000000"/>
        <path d="M177.064,196.459 L177.627,196.459 L179.283,192.506 L179.783,192.506 L179.783,192.068 L178.096,192.068 L178.096,192.506 L178.767,192.506 L177.502,195.522 L176.252,192.506 L176.971,192.506 L176.971,192.068 L174.892,192.068 L174.892,192.506 L175.408,192.506 z M177.064,196.459" fill="#000000"/>
        <path d="M184.491,194.334 C184.46,192.787 183.726,191.943 182.366,191.943 C181.726,191.943 181.21,192.162 180.82,192.584 C180.429,193.006 180.241,193.568 180.241,194.256 C180.241,194.959 180.429,195.522 180.835,195.943 C181.226,196.365 181.757,196.584 182.413,196.584 C183.491,196.584 184.163,196.084 184.413,195.131 L183.788,195.131 C183.616,195.818 183.179,196.178 182.491,196.178 C181.601,196.178 181.148,195.568 181.148,194.381 L181.148,194.334 z M183.57,193.897 L181.148,193.897 C181.241,192.881 181.648,192.35 182.366,192.35 C183.116,192.35 183.538,192.881 183.57,193.897 z M183.57,193.897" fill="#000000"/>
        <path d="M185.292,193.865 L185.292,194.506 L187.464,194.506 L187.464,193.865 z M185.292,193.865" fill="#000000"/>
        <path d="M191.274,195.084 C191.274,195.709 190.837,196.131 190.196,196.131 C189.54,196.131 189.134,195.74 189.134,195.131 C189.134,194.475 189.509,194.147 190.274,194.147 L191.274,194.147 z M192.056,193.709 C192.056,192.568 191.384,191.943 190.149,191.943 C189.665,191.943 189.165,192.053 188.618,192.287 L188.618,193.178 L189.009,193.178 C189.103,192.631 189.478,192.35 190.087,192.35 C190.837,192.35 191.274,192.74 191.274,193.397 L191.274,193.709 L190.181,193.709 C188.962,193.709 188.274,194.225 188.274,195.131 C188.274,196.022 188.884,196.584 189.899,196.584 C190.493,196.584 190.931,196.397 191.274,195.99 L191.274,196.459 L192.743,196.459 L192.743,196.022 L192.056,196.022 z M192.056,193.709" fill="#000000"/>
        <path d="M193.344,196.459 L195.485,196.459 L195.485,196.022 L194.813,196.022 L194.813,194.006 C194.813,193.022 195.204,192.49 195.923,192.49 C196.61,192.49 196.844,192.818 196.844,193.897 L196.844,196.022 L196.173,196.022 L196.173,196.459 L198.313,196.459 L198.313,196.022 L197.61,196.022 L197.61,193.662 C197.61,192.475 197.173,191.943 196.173,191.943 C195.563,191.943 195.094,192.256 194.813,192.85 L194.813,192.068 L193.298,192.068 L193.298,192.506 L194.032,192.506 L194.032,196.022 L193.344,196.022 z M193.344,196.459" fill="#000000"/>
        <path d="M203.079,192.506 L203.829,192.506 L203.829,192.068 L202.313,192.068 L202.313,192.756 C202.001,192.193 201.548,191.943 200.86,191.943 C200.298,191.943 199.86,192.162 199.501,192.584 C199.157,193.006 198.985,193.568 198.985,194.256 C198.985,194.943 199.157,195.506 199.501,195.928 C199.86,196.365 200.298,196.584 200.86,196.584 C201.548,196.584 202.001,196.318 202.313,195.772 L202.313,196.365 C202.313,197.443 201.891,197.928 200.985,197.928 C200.282,197.928 199.923,197.678 199.813,197.1 L199.407,197.1 L199.407,198.022 C199.907,198.24 200.454,198.334 201.032,198.334 C202.345,198.334 203.079,197.631 203.079,196.365 z M202.313,194.053 L202.313,194.475 C202.313,195.537 201.876,196.1 201.095,196.1 C200.298,196.1 199.891,195.475 199.891,194.256 C199.891,193.037 200.298,192.412 201.095,192.412 C201.876,192.412 202.313,192.99 202.313,194.053 z M202.313,194.053" fill="#000000"/>
        <path d="M205.841,196.021 L205.841,190.021 L204.326,190.021 L204.326,190.458 L205.076,190.458 L205.076,196.021 L204.326,196.021 L204.326,196.458 L206.576,196.458 L206.576,196.021 z M205.841,196.021" fill="#000000"/>
        <path d="M211.527,194.334 C211.496,192.787 210.762,191.943 209.402,191.943 C208.762,191.943 208.246,192.162 207.855,192.584 C207.465,193.006 207.277,193.568 207.277,194.256 C207.277,194.959 207.465,195.522 207.871,195.943 C208.262,196.365 208.793,196.584 209.449,196.584 C210.527,196.584 211.199,196.084 211.449,195.131 L210.824,195.131 C210.652,195.818 210.215,196.178 209.527,196.178 C208.637,196.178 208.184,195.568 208.184,194.381 L208.184,194.334 z M210.605,193.897 L208.184,193.897 C208.277,192.881 208.684,192.35 209.402,192.35 C210.152,192.35 210.574,192.881 210.605,193.897 z M210.605,193.897" fill="#000000"/>
      </g>
      <g>
        <path d="M220.043,192.053 C219.731,191.99 219.465,191.943 219.215,191.943 C218.512,191.943 218.059,192.24 217.746,192.85 L217.746,192.068 L216.231,192.068 L216.231,192.49 L216.965,192.49 L216.965,196.021 L216.277,196.021 L216.277,196.458 L218.652,196.458 L218.652,196.021 L217.746,196.021 L217.746,194.006 C217.746,193.036 218.168,192.506 218.934,192.506 C219.356,192.506 219.574,192.708 219.606,193.161 L220.043,193.161 z M220.043,192.053" fill="#000000"/>
        <path d="M224.734,194.333 C224.703,192.786 223.969,191.943 222.609,191.943 C221.969,191.943 221.453,192.161 221.062,192.583 C220.672,193.006 220.484,193.568 220.484,194.256 C220.484,194.958 220.672,195.521 221.078,195.943 C221.469,196.365 222,196.583 222.656,196.583 C223.734,196.583 224.406,196.083 224.656,195.131 L224.031,195.131 C223.859,195.818 223.422,196.178 222.734,196.178 C221.844,196.178 221.391,195.568 221.391,194.381 L221.391,194.333 z M223.812,193.896 L221.391,193.896 C221.484,192.881 221.891,192.35 222.609,192.35 C223.359,192.35 223.781,192.881 223.812,193.896 z M223.812,193.896" fill="#000000"/>
        <path d="M226.926,194.053 C226.926,192.99 227.348,192.412 228.145,192.412 C228.942,192.412 229.348,193.037 229.348,194.256 C229.348,195.475 228.942,196.1 228.145,196.1 C227.348,196.1 226.926,195.537 226.926,194.475 z M226.16,192.506 L226.16,197.787 L225.41,197.787 L225.41,198.225 L227.66,198.225 L227.66,197.787 L226.926,197.787 L226.926,195.772 C227.238,196.318 227.692,196.584 228.379,196.584 C228.942,196.584 229.379,196.365 229.738,195.928 C230.082,195.506 230.254,194.943 230.254,194.256 C230.254,193.568 230.082,193.006 229.738,192.584 C229.379,192.162 228.942,191.943 228.379,191.943 C227.692,191.943 227.238,192.193 226.926,192.756 L226.926,192.068 L225.41,192.068 L225.41,192.506 z M226.16,192.506" fill="#000000"/>
        <path d="M234.813,192.053 C234.501,191.99 234.235,191.943 233.985,191.943 C233.282,191.943 232.829,192.24 232.517,192.85 L232.517,192.068 L231.001,192.068 L231.001,192.49 L231.735,192.49 L231.735,196.021 L231.048,196.021 L231.048,196.458 L233.423,196.458 L233.423,196.021 L232.517,196.021 L232.517,194.006 C232.517,193.036 232.938,192.506 233.704,192.506 C234.126,192.506 234.345,192.708 234.376,193.161 L234.813,193.161 z M234.813,192.053" fill="#000000"/>
        <path d="M239.505,194.333 C239.473,192.786 238.739,191.943 237.38,191.943 C236.739,191.943 236.223,192.161 235.833,192.583 C235.442,193.006 235.255,193.568 235.255,194.256 C235.255,194.958 235.442,195.521 235.848,195.943 C236.239,196.365 236.77,196.583 237.427,196.583 C238.505,196.583 239.177,196.083 239.427,195.131 L238.802,195.131 C238.63,195.818 238.192,196.178 237.505,196.178 C236.614,196.178 236.161,195.568 236.161,194.381 L236.161,194.333 z M238.583,193.896 L236.161,193.896 C236.255,192.881 236.661,192.35 237.38,192.35 C238.13,192.35 238.552,192.881 238.583,193.896 z M238.583,193.896" fill="#000000"/>
        <path d="M240.415,196.208 C240.962,196.458 241.509,196.583 242.087,196.583 C243.228,196.583 243.915,196.083 243.915,195.24 C243.915,194.631 243.571,194.271 242.728,194.006 L242.103,193.818 C241.353,193.583 241.165,193.396 241.165,193.021 C241.165,192.583 241.493,192.35 242.149,192.35 C242.806,192.35 243.212,192.693 243.228,193.256 L243.681,193.256 L243.681,192.303 C243.134,192.068 242.603,191.943 242.118,191.943 C241.056,191.943 240.431,192.428 240.431,193.225 C240.431,193.803 240.759,194.131 241.524,194.381 L242.087,194.568 C242.509,194.708 242.806,194.833 242.931,194.958 C243.056,195.068 243.134,195.225 243.134,195.411 C243.134,195.896 242.759,196.178 242.056,196.178 C241.29,196.178 240.884,195.833 240.868,195.193 L240.415,195.193 z M240.415,196.208" fill="#000000"/>
        <path d="M249.049,194.333 C249.018,192.786 248.284,191.943 246.924,191.943 C246.284,191.943 245.768,192.161 245.377,192.583 C244.987,193.006 244.799,193.568 244.799,194.256 C244.799,194.958 244.987,195.521 245.393,195.943 C245.784,196.365 246.315,196.583 246.971,196.583 C248.049,196.583 248.721,196.083 248.971,195.131 L248.346,195.131 C248.174,195.818 247.737,196.178 247.049,196.178 C246.159,196.178 245.706,195.568 245.706,194.381 L245.706,194.333 z M248.127,193.896 L245.706,193.896 C245.799,192.881 246.206,192.35 246.924,192.35 C247.674,192.35 248.096,192.881 248.127,193.896 z M248.127,193.896" fill="#000000"/>
        <path d="M249.835,196.458 L251.975,196.458 L251.975,196.021 L251.303,196.021 L251.303,194.006 C251.303,193.021 251.694,192.49 252.413,192.49 C253.1,192.49 253.335,192.818 253.335,193.896 L253.335,196.021 L252.663,196.021 L252.663,196.458 L254.803,196.458 L254.803,196.021 L254.1,196.021 L254.1,193.661 C254.1,192.475 253.663,191.943 252.663,191.943 C252.053,191.943 251.585,192.256 251.303,192.85 L251.303,192.068 L249.788,192.068 L249.788,192.506 L250.522,192.506 L250.522,196.021 L249.835,196.021 z M249.835,196.458" fill="#000000"/>
        <path d="M255.976,192.506 L255.976,195.303 C255.976,196.225 256.304,196.583 257.194,196.583 C258.022,196.583 258.397,196.225 258.444,195.428 L257.851,195.428 C257.851,195.943 257.679,196.178 257.272,196.178 C257.069,196.178 256.944,196.115 256.866,196.021 C256.788,195.911 256.741,195.678 256.741,195.303 L256.741,192.506 L258.21,192.506 L258.21,192.068 L256.741,192.068 L256.741,190.693 L255.976,190.693 L255.976,192.068 L255.288,192.068 L255.288,192.506 z M255.976,192.506" fill="#000000"/>
        <path d="M261.948,195.083 C261.948,195.708 261.51,196.131 260.87,196.131 C260.213,196.131 259.807,195.74 259.807,195.131 C259.807,194.475 260.182,194.146 260.948,194.146 L261.948,194.146 z M262.729,193.708 C262.729,192.568 262.057,191.943 260.823,191.943 C260.338,191.943 259.838,192.053 259.292,192.286 L259.292,193.178 L259.682,193.178 C259.776,192.631 260.151,192.35 260.76,192.35 C261.51,192.35 261.948,192.74 261.948,193.396 L261.948,193.708 L260.854,193.708 C259.635,193.708 258.948,194.225 258.948,195.131 C258.948,196.021 259.557,196.583 260.573,196.583 C261.167,196.583 261.604,196.396 261.948,195.99 L261.948,196.458 L263.417,196.458 L263.417,196.021 L262.729,196.021 z M262.729,193.708" fill="#000000"/>
        <path d="M264.596,192.506 L264.596,195.303 C264.596,196.225 264.924,196.583 265.815,196.583 C266.643,196.583 267.018,196.225 267.065,195.428 L266.471,195.428 C266.471,195.943 266.299,196.178 265.893,196.178 C265.69,196.178 265.565,196.115 265.487,196.021 C265.408,195.911 265.362,195.678 265.362,195.303 L265.362,192.506 L266.83,192.506 L266.83,192.068 L265.362,192.068 L265.362,190.693 L264.596,190.693 L264.596,192.068 L263.908,192.068 L263.908,192.506 z M264.596,192.506" fill="#000000"/>
        <path d="M267.974,190.692 C267.974,190.958 268.178,191.161 268.459,191.161 C268.724,191.161 268.928,190.958 268.928,190.692 C268.928,190.442 268.709,190.225 268.459,190.225 C268.178,190.225 267.974,190.442 267.974,190.692 z M268.959,196.021 L268.959,192.067 L267.443,192.067 L267.443,192.505 L268.178,192.505 L268.178,196.021 L267.443,196.021 L267.443,196.458 L269.693,196.458 L269.693,196.021 z M268.959,196.021" fill="#000000"/>
        <path d="M272.489,196.178 C271.66,196.178 271.239,195.521 271.239,194.256 C271.239,193.006 271.66,192.35 272.489,192.35 C273.332,192.35 273.754,193.006 273.754,194.256 C273.754,195.521 273.332,196.178 272.489,196.178 z M272.489,196.583 C273.145,196.583 273.676,196.365 274.067,195.943 C274.473,195.521 274.66,194.958 274.66,194.256 C274.66,193.553 274.473,192.99 274.067,192.583 C273.676,192.161 273.145,191.943 272.489,191.943 C271.832,191.943 271.317,192.161 270.91,192.583 C270.52,192.99 270.332,193.553 270.332,194.256 C270.332,194.958 270.52,195.521 270.926,195.943 C271.317,196.365 271.848,196.583 272.489,196.583 z M272.489,196.583" fill="#000000"/>
        <path d="M275.454,196.458 L277.595,196.458 L277.595,196.021 L276.923,196.021 L276.923,194.006 C276.923,193.021 277.313,192.49 278.032,192.49 C278.72,192.49 278.954,192.818 278.954,193.896 L278.954,196.021 L278.282,196.021 L278.282,196.458 L280.423,196.458 L280.423,196.021 L279.72,196.021 L279.72,193.661 C279.72,192.475 279.282,191.943 278.282,191.943 C277.673,191.943 277.204,192.256 276.923,192.85 L276.923,192.068 L275.407,192.068 L275.407,192.506 L276.142,192.506 L276.142,196.021 L275.454,196.021 z M275.454,196.458" fill="#000000"/>
      </g>
      <g>
        <path d="M287.216,196.178 C286.388,196.178 285.966,195.522 285.966,194.256 C285.966,193.006 286.388,192.35 287.216,192.35 C288.06,192.35 288.481,193.006 288.481,194.256 C288.481,195.522 288.06,196.178 287.216,196.178 z M287.216,196.584 C287.872,196.584 288.403,196.365 288.794,195.943 C289.2,195.522 289.388,194.959 289.388,194.256 C289.388,193.553 289.2,192.99 288.794,192.584 C288.403,192.162 287.872,191.943 287.216,191.943 C286.56,191.943 286.044,192.162 285.638,192.584 C285.247,192.99 285.06,193.553 285.06,194.256 C285.06,194.959 285.247,195.522 285.653,195.943 C286.044,196.365 286.575,196.584 287.216,196.584 z M287.216,196.584" fill="#000000"/>
        <path d="M293.541,191.068 L293.541,190.225 C293.166,190.083 292.791,190.021 292.416,190.021 C291.4,190.021 290.869,190.536 290.869,191.506 L290.869,192.068 L290.134,192.068 L290.134,192.506 L290.869,192.506 L290.869,196.021 L290.134,196.021 L290.134,196.458 L292.65,196.458 L292.65,196.021 L291.65,196.021 L291.65,192.506 L292.9,192.506 L292.9,192.068 L291.65,192.068 L291.65,191.49 C291.65,190.693 291.869,190.428 292.447,190.428 C292.884,190.428 293.119,190.646 293.134,191.068 z M293.541,191.068" fill="#000000"/>
      </g>
      <g>
        <path d="M297.929,192.506 L297.929,195.303 C297.929,196.225 298.257,196.584 299.147,196.584 C299.976,196.584 300.351,196.225 300.397,195.428 L299.804,195.428 C299.804,195.943 299.632,196.178 299.226,196.178 C299.022,196.178 298.897,196.115 298.819,196.022 C298.741,195.912 298.694,195.678 298.694,195.303 L298.694,192.506 L300.163,192.506 L300.163,192.068 L298.694,192.068 L298.694,190.693 L297.929,190.693 L297.929,192.068 L297.241,192.068 L297.241,192.506 z M297.929,192.506" fill="#000000"/>
        <path d="M300.823,196.458 L302.964,196.458 L302.964,196.021 L302.292,196.021 L302.292,194.006 C302.292,193.021 302.682,192.506 303.401,192.506 C303.745,192.506 303.979,192.6 304.104,192.803 C304.245,192.99 304.323,193.365 304.323,193.896 L304.323,196.021 L303.651,196.021 L303.651,196.458 L305.792,196.458 L305.792,196.021 L305.089,196.021 L305.089,193.661 C305.089,192.475 304.651,191.943 303.651,191.943 C303.042,191.943 302.573,192.256 302.292,192.85 L302.292,190.021 L300.776,190.021 L300.776,190.458 L301.51,190.458 L301.51,196.021 L300.823,196.021 z M300.823,196.458" fill="#000000"/>
        <path d="M310.714,194.334 C310.682,192.787 309.948,191.943 308.589,191.943 C307.948,191.943 307.432,192.162 307.042,192.584 C306.651,193.006 306.464,193.568 306.464,194.256 C306.464,194.959 306.651,195.522 307.057,195.943 C307.448,196.365 307.979,196.584 308.635,196.584 C309.714,196.584 310.385,196.084 310.635,195.131 L310.01,195.131 C309.839,195.818 309.401,196.178 308.714,196.178 C307.823,196.178 307.37,195.568 307.37,194.381 L307.37,194.334 z M309.792,193.897 L307.37,193.897 C307.464,192.881 307.87,192.35 308.589,192.35 C309.339,192.35 309.76,192.881 309.792,193.897 z M309.792,193.897" fill="#000000"/>
      </g>
      <g>
        <path d="M319.229,192.053 C318.917,191.99 318.651,191.943 318.401,191.943 C317.698,191.943 317.245,192.24 316.932,192.85 L316.932,192.068 L315.417,192.068 L315.417,192.49 L316.151,192.49 L316.151,196.022 L315.464,196.022 L315.464,196.459 L317.839,196.459 L317.839,196.022 L316.932,196.022 L316.932,194.006 C316.932,193.037 317.354,192.506 318.12,192.506 C318.542,192.506 318.761,192.709 318.792,193.162 L319.229,193.162 z M319.229,192.053" fill="#000000"/>
        <path d="M321.827,196.178 C320.999,196.178 320.577,195.522 320.577,194.256 C320.577,193.006 320.999,192.35 321.827,192.35 C322.671,192.35 323.092,193.006 323.092,194.256 C323.092,195.522 322.671,196.178 321.827,196.178 z M321.827,196.584 C322.483,196.584 323.014,196.365 323.405,195.943 C323.811,195.522 323.999,194.959 323.999,194.256 C323.999,193.553 323.811,192.99 323.405,192.584 C323.014,192.162 322.483,191.943 321.827,191.943 C321.171,191.943 320.655,192.162 320.249,192.584 C319.858,192.99 319.671,193.553 319.671,194.256 C319.671,194.959 319.858,195.522 320.264,195.943 C320.655,196.365 321.186,196.584 321.827,196.584 z M321.827,196.584" fill="#000000"/>
        <path d="M328.964,196.021 L328.964,190.021 L327.464,190.021 L327.464,190.458 L328.199,190.458 L328.199,192.756 C327.886,192.193 327.433,191.943 326.746,191.943 C326.183,191.943 325.746,192.161 325.386,192.583 C325.042,193.006 324.871,193.568 324.871,194.256 C324.871,194.943 325.042,195.506 325.386,195.928 C325.746,196.365 326.183,196.583 326.746,196.583 C327.433,196.583 327.886,196.318 328.199,195.771 L328.199,196.458 L329.714,196.458 L329.714,196.021 z M328.199,194.475 C328.199,195.536 327.761,196.1 326.98,196.1 C326.183,196.1 325.777,195.475 325.777,194.256 C325.777,193.036 326.183,192.411 326.98,192.411 C327.761,192.411 328.199,192.99 328.199,194.053 z M328.199,194.475" fill="#000000"/>
        <path d="M330.774,196.021 C330.774,196.333 331.008,196.583 331.336,196.583 C331.649,196.583 331.899,196.333 331.899,196.021 C331.899,195.725 331.649,195.475 331.336,195.475 C331.008,195.475 330.774,195.725 330.774,196.021 z M330.774,196.021" fill="#000000"/>
      </g>
    </g>
  </g>
</svg>
