<?xml version="1.0" encoding="UTF-8"?>
<!DOCTYPE svg PUBLIC "-//W3C//DTD SVG 1.1//EN" "http://www.w3.org/Graphics/SVG/1.1/DTD/svg11.dtd">
<svg version="1.1" xmlns="http://www.w3.org/2000/svg" xmlns:xlink="http://www.w3.org/1999/xlink" x="0" y="0" width="425" height="230" viewBox="0, 0, 425, 230">
  <g id="Background">
    <rect x="0" y="0" width="425" height="230" fill="#FFFFFF"/>
  </g>
  <defs>
    <clipPath id="Clip_1">
      <path d="M19.785,0 L175.691,0 L175.691,176.242 L19.785,176.242 z M19.785,0"/>
    </clipPath>
    <clipPath id="Clip_2">
      <path d="M19,0 L176,0 L176,177 L19,177 z"/>
    </clipPath>
    <clipPath id="Clip_3">
      <path d="M19.785,0 L175.691,0 L175.691,176.242 L19.785,176.242 z M19.785,0"/>
    </clipPath>
    <clipPath id="Clip_4">
      <path d="M34,95 L37.184,95 L37.184,100.984 L34,100.984 z M34,95"/>
    </clipPath>
    <clipPath id="Clip_5">
      <path d="M88,18 L91.566,18 L91.566,23.855 L88,23.855 z M88,18"/>
    </clipPath>
    <clipPath id="Clip_6">
      <path d="M44,111.047 L50,111.047 L50,117 L44,117 z M44,111.047"/>
    </clipPath>
    <clipPath id="Clip_7">
      <path d="M249.508,0 L405.41,0 L405.41,176.242 L249.508,176.242 z M249.508,0"/>
    </clipPath>
    <clipPath id="Clip_8">
      <path d="M249,0 L406,0 L406,177 L249,177 z"/>
    </clipPath>
    <clipPath id="Clip_9">
      <path d="M249.508,0 L405.41,0 L405.41,176.242 L249.508,176.242 z M249.508,0"/>
    </clipPath>
    <clipPath id="Clip_10">
      <path d="M267.316,107.941 L270.148,118.512 L260.547,121.082 L257.715,110.516 z M267.316,107.941"/>
    </clipPath>
    <clipPath id="Clip_11">
      <path d="M260,110 L266,110 L266,119 L260,119 z M260,110"/>
    </clipPath>
    <clipPath id="Clip_12">
      <path d="M267.316,107.941 L270.148,118.512 L260.547,121.082 L257.715,110.516 z M267.316,107.941"/>
    </clipPath>
    <clipPath id="Clip_13">
      <path d="M266,113 L270,113 L270,119 L266,119 z M266,113"/>
    </clipPath>
  </defs>
  <g id="surface1146">
    <g clip-path="url(#Clip_3)">
      <g clip-path="url(#Clip_2)" id="surface1152">
        <g clip-path="url(#Clip_1)">
          <path d="M19.785,176.242 L175.691,176.242 L175.691,-8.008 L19.785,-8.008 z M19.785,176.242" fill="#FFFFFF"/>
        </g>
      </g>
    </g>
    <path d="M105.535,54.352 L105.535,139.391" fill-opacity="0" stroke="#666666" stroke-width="0.5" stroke-linecap="round" stroke-linejoin="round"/>
    <path d="M77.188,96.871 L133.879,96.871" fill-opacity="0" stroke="#666666" stroke-width="0.5" stroke-linecap="round" stroke-linejoin="round"/>
    <path d="M77.188,54.352 L133.879,54.352 L133.879,139.391 L77.188,139.391 z M77.188,54.352" fill-opacity="0" stroke="#000000" stroke-width="1.5" stroke-linecap="round" stroke-linejoin="round"/>
    <path d="M46.746,99.707 C46.863,101 47.043,102.258 47.441,103.504 C47.945,105.066 48.879,106.293 49.816,104.461 C50.797,102.543 51.023,98.887 51.023,96.871 C51.023,94.859 50.797,91.207 49.816,89.289 C48.668,87.039 47.773,88.91 47.246,91.078" fill-opacity="0" stroke="#666666" stroke-width="0.5" stroke-linecap="round" stroke-linejoin="round"/>
    <g>
      <path d="M47.246,91.078 L45.934,89.844 L46.746,94.035 L48.891,90.34 z M47.246,91.078" fill="#666666"/>
      <path d="M47.246,91.078 L45.934,89.844 L46.746,94.035 L48.891,90.34 z M47.246,91.078" fill-opacity="0" stroke="#666666" stroke-width="0.5"/>
    </g>
    <g>
      <path d="M48.84,96.305 C48.441,96.305 48.273,96.473 48.273,96.875 C48.273,97.273 48.441,97.441 48.84,97.441 C49.242,97.441 49.406,97.273 49.406,96.875 C49.406,96.473 49.242,96.305 48.84,96.305 z M48.84,96.305" fill="#666666"/>
      <path d="M48.84,96.305 C48.441,96.305 48.273,96.473 48.273,96.875 C48.273,97.273 48.441,97.441 48.84,97.441 C49.242,97.441 49.406,97.273 49.406,96.875 C49.406,96.473 49.242,96.305 48.84,96.305 z M48.84,96.305" fill-opacity="0" stroke="#666666" stroke-width="0.5" stroke-linecap="round" stroke-linejoin="round"/>
    </g>
    <path d="M108.367,22.414 C109.66,22.293 110.922,22.117 112.164,21.715 C113.727,21.211 114.953,20.281 113.121,19.344 C111.203,18.363 107.547,18.137 105.535,18.137 C103.52,18.137 99.867,18.363 97.949,19.344 C95.699,20.492 97.57,21.387 99.738,21.914" fill-opacity="0" stroke="#666666" stroke-width="0.5" stroke-linecap="round" stroke-linejoin="round"/>
    <g>
      <path d="M99.738,21.914 L98.504,23.227 L102.695,22.414 L99.004,20.266 z M99.738,21.914" fill="#666666"/>
      <path d="M99.738,21.914 L98.504,23.227 L102.695,22.414 L99.004,20.266 z M99.738,21.914" fill-opacity="0" stroke="#666666" stroke-width="0.5"/>
    </g>
    <g>
      <path d="M106.102,20.336 C106.102,19.938 105.934,19.77 105.535,19.77 C105.133,19.77 104.969,19.938 104.969,20.336 C104.969,20.738 105.133,20.906 105.535,20.906 C105.934,20.906 106.102,20.738 106.102,20.336 z M106.102,20.336" fill="#666666"/>
      <path d="M106.102,20.336 C106.102,19.938 105.934,19.77 105.535,19.77 C105.133,19.77 104.969,19.938 104.969,20.336 C104.969,20.738 105.133,20.906 105.535,20.906 C105.934,20.906 106.102,20.738 106.102,20.336 z M106.102,20.336" fill-opacity="0" stroke="#666666" stroke-width="0.5" stroke-linecap="round" stroke-linejoin="round"/>
    </g>
    <path d="M105.535,96.871 L105.535,11.836" fill-opacity="0" stroke="#666666" stroke-width="0.5" stroke-dasharray="1.5,1" stroke-linecap="round" stroke-linejoin="round"/>
    <path d="M105.535,96.871 L40.336,96.871" fill-opacity="0" stroke="#666666" stroke-width="0.5" stroke-dasharray="1.5,1" stroke-linecap="round" stroke-linejoin="round"/>
    <path d="M105.535,96.871 L92.441,96.871" fill-opacity="0" stroke="#666666" stroke-width="0.75" stroke-linecap="round" stroke-linejoin="round"/>
    <path d="M92.441,94.625 L86.441,96.875 L92.441,99.125 z M92.441,94.625" fill="#666666"/>
    <path d="M92.441,94.621 L86.441,96.871 L92.441,99.121 z M92.441,94.621" fill-opacity="0" stroke="#666666" stroke-width="0.75"/>
    <path d="M105.535,96.871 L105.535,83.781" fill-opacity="0" stroke="#666666" stroke-width="0.75" stroke-linecap="round" stroke-linejoin="round"/>
    <g>
      <path d="M107.785,83.781 L105.535,77.781 L103.285,83.781 z M107.785,83.781" fill="#666666"/>
      <path d="M107.785,83.781 L105.535,77.781 L103.285,83.781 z M107.785,83.781" fill-opacity="0" stroke="#666666" stroke-width="0.75"/>
    </g>
    <path d="M105.535,95.457 C104.75,95.457 104.117,96.09 104.117,96.871 C104.117,97.656 104.75,98.289 105.535,98.289 C106.316,98.289 106.949,97.656 106.949,96.871 C106.949,96.09 106.316,95.457 105.535,95.457 z M105.535,95.457" fill-opacity="0" stroke="#FF0000" stroke-width="1" stroke-linecap="round" stroke-linejoin="round"/>
    <path d="M108.367,96.871 C108.367,95.309 107.098,94.039 105.535,94.039 C103.969,94.039 102.699,95.309 102.699,96.871 C102.699,98.438 103.969,99.707 105.535,99.707 C107.098,99.707 108.367,98.438 108.367,96.871 z M108.367,96.871" fill="#FFFFFF"/>
    <path d="M105.535,94.039 C107.098,94.039 108.367,95.309 108.367,96.871 C108.367,98.438 107.098,99.707 105.535,99.707 C103.969,99.707 102.699,98.438 102.699,96.871 C102.699,95.309 103.969,94.039 105.535,94.039 z M105.535,95.039 C104.52,95.039 103.699,95.859 103.699,96.871 C103.699,97.887 104.52,98.707 105.535,98.707 C106.547,98.707 107.367,97.887 107.367,96.871 C107.367,95.859 106.547,95.039 105.535,95.039 z M105.535,95.039" fill="#000000"/>
    <path d="M33.559,97.574 C33.559,97.434 33.41,97.434 33.32,97.434 C33.211,97.434 33.172,97.434 33.121,97.484 C33.102,97.504 33.102,97.523 33.043,97.773 C32.844,98.57 32.613,98.77 32.363,98.77 C32.254,98.77 32.137,98.73 32.137,98.402 C32.137,98.25 32.156,98.113 32.195,97.973 L33.57,92.484 C33.609,92.344 33.609,92.312 33.609,92.312 C33.609,92.184 33.5,92.133 33.391,92.133 C33.352,92.133 33.34,92.133 33.32,92.145 L32.035,92.203 C31.895,92.215 31.719,92.223 31.719,92.504 C31.719,92.684 31.895,92.684 31.977,92.684 C32.086,92.684 32.266,92.684 32.395,92.703 L31.855,94.902 C31.707,94.766 31.379,94.547 30.852,94.547 C29.117,94.547 28.039,96.121 28.039,97.484 C28.039,98.711 28.957,99.129 29.785,99.129 C30.492,99.129 31.008,98.738 31.168,98.59 C31.547,99.129 32.207,99.129 32.316,99.129 C32.684,99.129 32.973,98.918 33.18,98.559 C33.43,98.16 33.559,97.625 33.559,97.574 z M31.07,98.121 C30.781,98.461 30.312,98.77 29.836,98.77 C29.215,98.77 29.168,98.23 29.168,98.012 C29.168,97.496 29.504,96.27 29.664,95.879 C29.973,95.152 30.461,94.902 30.871,94.902 C31.457,94.902 31.695,95.371 31.695,95.48 L31.676,95.621 z M31.07,98.121" fill="#000000"/>
    <g clip-path="url(#Clip_4)">
      <path d="M37.188,99.273 L36.949,99.273 C36.93,99.426 36.859,99.84 36.77,99.906 C36.715,99.949 36.176,99.949 36.078,99.949 L34.797,99.949 C35.527,99.301 35.773,99.105 36.191,98.777 C36.707,98.367 37.188,97.934 37.188,97.273 C37.188,96.43 36.449,95.91 35.555,95.91 C34.691,95.91 34.105,96.52 34.105,97.16 C34.105,97.516 34.406,97.551 34.477,97.551 C34.645,97.551 34.844,97.434 34.844,97.18 C34.844,97.055 34.797,96.812 34.434,96.812 C34.648,96.316 35.125,96.164 35.453,96.164 C36.148,96.164 36.512,96.707 36.512,97.273 C36.512,97.879 36.078,98.359 35.855,98.609 L34.176,100.27 C34.105,100.332 34.105,100.348 34.105,100.543 L36.98,100.543 z M37.188,99.273" fill="#000000"/>
    </g>
    <path d="M106.793,6.281 C106.793,6.141 106.641,6.141 106.551,6.141 C106.441,6.141 106.402,6.141 106.352,6.191 C106.332,6.211 106.332,6.23 106.273,6.48 C106.074,7.277 105.844,7.477 105.594,7.477 C105.484,7.477 105.367,7.434 105.367,7.105 C105.367,6.957 105.387,6.816 105.426,6.68 L106.801,1.188 C106.84,1.051 106.84,1.02 106.84,1.02 C106.84,0.891 106.73,0.84 106.621,0.84 C106.582,0.84 106.57,0.84 106.551,0.852 L105.266,0.91 C105.129,0.918 104.949,0.93 104.949,1.207 C104.949,1.387 105.129,1.387 105.207,1.387 C105.316,1.387 105.496,1.387 105.625,1.406 L105.086,3.609 C104.938,3.469 104.609,3.25 104.082,3.25 C102.348,3.25 101.273,4.824 101.273,6.191 C101.273,7.414 102.188,7.832 103.016,7.832 C103.723,7.832 104.242,7.445 104.398,7.297 C104.777,7.832 105.438,7.832 105.547,7.832 C105.914,7.832 106.203,7.625 106.414,7.266 C106.66,6.867 106.793,6.328 106.793,6.281 z M104.301,6.828 C104.012,7.168 103.543,7.477 103.066,7.477 C102.449,7.477 102.398,6.938 102.398,6.719 C102.398,6.199 102.738,4.973 102.895,4.586 C103.203,3.859 103.691,3.609 104.102,3.609 C104.688,3.609 104.93,4.078 104.93,4.188 L104.91,4.328 z M104.301,6.828" fill="#000000"/>
    <path d="M110.195,9.246 L110.195,8.996 L109.93,8.996 C109.234,8.996 109.234,8.906 109.234,8.676 L109.234,4.812 C109.234,4.625 109.219,4.617 109.023,4.617 C108.578,5.059 107.945,5.062 107.656,5.062 L107.656,5.316 C107.824,5.316 108.285,5.316 108.668,5.121 L108.668,8.676 C108.668,8.906 108.668,8.996 107.973,8.996 L107.707,8.996 L107.707,9.246 L108.949,9.219 z M110.195,9.246" fill="#000000"/>
    <path d="M115.707,92.484 C115.707,92.344 115.555,92.344 115.465,92.344 C115.348,92.344 115.277,92.344 115.238,92.473 C114.949,93.379 114.23,93.68 113.824,93.68 C113.445,93.68 113.266,93.5 113.266,93.18 C113.266,92.973 113.395,92.445 113.484,92.074 L113.832,90.719 C113.98,90.121 114.332,89.812 114.68,89.812 C114.73,89.812 114.957,89.812 115.156,89.965 C114.801,90.062 114.621,90.402 114.621,90.652 C114.621,90.871 114.789,91.109 115.117,91.109 C115.465,91.109 115.836,90.82 115.836,90.332 C115.836,89.805 115.309,89.453 114.699,89.453 C114.133,89.453 113.762,89.883 113.633,90.062 C113.383,89.645 112.828,89.453 112.258,89.453 C111.004,89.453 110.324,90.68 110.324,91.008 C110.324,91.148 110.477,91.148 110.566,91.148 C110.684,91.148 110.754,91.148 110.793,91.02 C111.082,90.113 111.801,89.812 112.207,89.812 C112.586,89.812 112.766,89.992 112.766,90.312 C112.766,90.5 112.629,91.051 112.539,91.406 L112.199,92.773 C112.051,93.379 111.691,93.68 111.352,93.68 C111.301,93.68 111.074,93.68 110.875,93.531 C111.23,93.43 111.41,93.09 111.41,92.844 C111.41,92.625 111.242,92.383 110.914,92.383 C110.566,92.383 110.195,92.672 110.195,93.16 C110.195,93.688 110.723,94.039 111.332,94.039 C111.898,94.039 112.27,93.609 112.398,93.43 C112.648,93.848 113.203,94.039 113.773,94.039 C115.027,94.039 115.707,92.812 115.707,92.484 z M115.707,92.484" fill="#000000"/>
    <path d="M87.411,20.442 C87.411,20.332 87.333,20.332 87.301,20.332 C87.192,20.332 87.192,20.379 87.161,20.52 C86.973,21.207 86.739,21.754 86.286,21.754 C86.083,21.754 85.973,21.629 85.973,21.27 C85.973,21.129 86.005,20.879 86.051,20.723 C86.067,20.629 86.098,20.504 86.098,20.395 C86.098,19.457 84.723,19.379 84.161,19.363 C84.489,19.176 84.817,18.91 85.083,18.676 C85.536,18.301 85.833,18.051 86.223,17.879 C86.208,17.942 86.176,18.051 86.176,18.098 C86.176,18.223 86.255,18.457 86.551,18.457 C86.88,18.457 87.098,18.16 87.098,17.91 C87.098,17.832 87.051,17.567 86.692,17.567 C86.083,17.567 85.505,18.067 85.067,18.442 C84.38,19.02 84.145,19.16 83.786,19.285 L83.989,18.504 C84.051,18.238 84.161,17.77 84.161,17.723 C84.161,17.551 84.051,17.457 83.88,17.457 C83.848,17.457 83.567,17.457 83.473,17.817 L82.567,21.473 C82.52,21.613 82.52,21.629 82.52,21.707 C82.52,21.879 82.661,21.973 82.817,21.973 C83.114,21.973 83.176,21.738 83.255,21.41 C83.348,21.051 83.286,21.238 83.723,19.567 C84.551,19.598 85.426,19.77 85.426,20.41 C85.426,20.488 85.426,20.535 85.395,20.645 C85.364,20.801 85.348,20.91 85.348,20.988 C85.348,21.567 85.755,21.973 86.27,21.973 C86.583,21.973 86.848,21.801 87.051,21.457 C87.301,21.035 87.411,20.442 87.411,20.442 z M87.411,20.442" fill="#000000"/>
    <g clip-path="url(#Clip_5)">
      <path d="M91.01,23.357 L91.01,23.107 L90.745,23.107 C90.041,23.107 90.041,23.014 90.041,22.779 L90.041,18.92 C90.041,18.732 90.041,18.732 89.838,18.732 C89.385,19.17 88.76,19.17 88.479,19.17 L88.479,19.42 C88.635,19.42 89.104,19.42 89.479,19.232 L89.479,22.779 C89.479,23.014 89.479,23.107 88.791,23.107 L88.526,23.107 L88.526,23.357 L89.76,23.326 z M91.01,23.357" fill="#000000"/>
    </g>
    <g clip-path="url(#Clip_6)">
      <path d="M49.167,114.633 C49.167,114.523 49.089,114.523 49.058,114.523 C48.948,114.523 48.948,114.57 48.917,114.711 C48.729,115.398 48.495,115.945 48.042,115.945 C47.839,115.945 47.729,115.82 47.729,115.461 C47.729,115.32 47.761,115.07 47.808,114.914 C47.823,114.82 47.854,114.695 47.854,114.586 C47.854,113.648 46.479,113.57 45.917,113.555 C46.245,113.367 46.573,113.101 46.839,112.867 C47.292,112.492 47.589,112.242 47.979,112.07 C47.964,112.133 47.933,112.242 47.933,112.289 C47.933,112.414 48.011,112.648 48.308,112.648 C48.636,112.648 48.854,112.351 48.854,112.101 C48.854,112.023 48.808,111.758 48.448,111.758 C47.839,111.758 47.261,112.258 46.823,112.633 C46.136,113.211 45.901,113.351 45.542,113.476 L45.745,112.695 C45.808,112.43 45.917,111.961 45.917,111.914 C45.917,111.742 45.808,111.648 45.636,111.648 C45.604,111.648 45.323,111.648 45.229,112.008 L44.323,115.664 C44.276,115.805 44.276,115.82 44.276,115.898 C44.276,116.07 44.417,116.164 44.573,116.164 C44.87,116.164 44.933,115.93 45.011,115.601 C45.104,115.242 45.042,115.43 45.479,113.758 C46.308,113.789 47.183,113.961 47.183,114.601 C47.183,114.68 47.183,114.726 47.151,114.836 C47.12,114.992 47.104,115.101 47.104,115.18 C47.104,115.758 47.511,116.164 48.026,116.164 C48.339,116.164 48.604,115.992 48.808,115.648 C49.058,115.226 49.167,114.633 49.167,114.633 z M49.167,114.633" fill="#000000"/>
    </g>
    <path d="M52.985,116.283 L52.751,116.283 C52.735,116.439 52.657,116.845 52.563,116.908 C52.516,116.955 51.985,116.955 51.876,116.955 L50.594,116.955 C51.329,116.314 51.579,116.111 51.985,115.783 C52.501,115.377 52.985,114.939 52.985,114.283 C52.985,113.439 52.251,112.924 51.36,112.924 C50.501,112.924 49.907,113.533 49.907,114.174 C49.907,114.517 50.204,114.564 50.282,114.564 C50.438,114.564 50.641,114.439 50.641,114.189 C50.641,114.064 50.594,113.814 50.235,113.814 C50.454,113.33 50.923,113.174 51.251,113.174 C51.954,113.174 52.313,113.72 52.313,114.283 C52.313,114.892 51.876,115.361 51.657,115.611 L49.985,117.283 C49.907,117.345 49.907,117.361 49.907,117.549 L52.782,117.549 z M52.985,116.283" fill="#000000"/>
    <g>
      <path d="M61.652,188.096 L60.808,188.096 C60.027,189.221 59.636,190.33 59.636,191.486 C59.636,192.643 60.011,193.736 60.808,194.877 L61.652,194.877 C61.011,193.689 60.683,192.58 60.683,191.486 C60.683,190.377 61.011,189.283 61.652,188.096 z M61.652,188.096" fill="#000000"/>
      <path d="M65.412,191.924 L65.849,191.924 L65.849,191.986 C65.849,192.783 65.505,193.236 64.943,193.236 C64.552,193.236 64.318,192.986 64.318,192.611 C64.318,192.096 64.599,191.924 65.412,191.924 z M66.927,191.502 C66.927,190.783 66.787,190.299 66.521,190.018 C66.24,189.752 65.771,189.611 65.083,189.611 C64.537,189.611 64.052,189.689 63.568,189.893 L63.568,190.83 C64.083,190.549 64.568,190.408 65.083,190.408 C65.583,190.408 65.849,190.611 65.849,190.955 L65.849,191.127 L65.083,191.127 C63.771,191.127 63.146,191.58 63.146,192.564 C63.146,193.471 63.708,193.986 64.662,193.986 C65.146,193.986 65.583,193.783 65.849,193.408 L65.849,193.877 L66.927,193.877 z M66.927,191.502" fill="#000000"/>
      <path d="M68.547,188.096 C69.187,189.283 69.515,190.377 69.515,191.486 C69.515,192.58 69.187,193.689 68.547,194.877 L69.39,194.877 C70.187,193.736 70.562,192.643 70.562,191.486 C70.562,190.33 70.172,189.221 69.39,188.096 z M68.547,188.096" fill="#000000"/>
    </g>
    <g>
      <path d="M77.441,193.486 L76.785,193.486 L76.785,193.877 L78.129,193.877 L78.129,193.252 C78.394,193.752 78.8,193.986 79.41,193.986 C79.894,193.986 80.3,193.799 80.597,193.408 C80.91,193.018 81.066,192.518 81.066,191.893 C81.066,191.283 80.91,190.768 80.597,190.393 C80.3,190.002 79.894,189.814 79.41,189.814 C78.8,189.814 78.394,190.049 78.129,190.533 L78.129,188.08 L76.785,188.08 L76.785,188.471 L77.441,188.471 z M78.129,192.096 L78.129,191.705 C78.129,190.752 78.504,190.236 79.191,190.236 C79.894,190.236 80.269,190.799 80.269,191.893 C80.269,192.986 79.894,193.564 79.191,193.564 C78.504,193.564 78.129,193.049 78.129,192.096 z M78.129,192.096" fill="#000000"/>
      <path d="M85.569,191.971 C85.553,190.564 84.897,189.814 83.694,189.814 C83.147,189.814 82.694,190.002 82.35,190.377 C82.006,190.768 81.819,191.268 81.819,191.893 C81.819,192.533 82.006,193.033 82.35,193.408 C82.709,193.799 83.163,193.986 83.741,193.986 C84.694,193.986 85.288,193.549 85.506,192.674 L84.959,192.674 C84.803,193.299 84.413,193.611 83.819,193.611 C83.038,193.611 82.631,193.064 82.631,192.002 L82.631,191.971 z M84.772,191.58 L82.631,191.58 C82.709,190.658 83.069,190.174 83.694,190.174 C84.366,190.174 84.741,190.658 84.772,191.58 z M84.772,191.58" fill="#000000"/>
      <path d="M86.268,193.877 L88.174,193.877 L88.174,193.486 L87.565,193.486 L87.565,191.674 C87.565,190.783 87.909,190.314 88.549,190.314 C89.143,190.314 89.362,190.611 89.362,191.58 L89.362,193.486 L88.768,193.486 L88.768,193.877 L90.659,193.877 L90.659,193.486 L90.049,193.486 L90.049,191.361 C90.049,190.299 89.643,189.814 88.768,189.814 C88.221,189.814 87.831,190.096 87.565,190.627 L87.565,189.924 L86.237,189.924 L86.237,190.314 L86.893,190.314 L86.893,193.486 L86.268,193.486 z M86.268,193.877" fill="#000000"/>
      <path d="M94.864,193.486 L94.864,188.08 L93.536,188.08 L93.536,188.471 L94.176,188.471 L94.176,190.533 C93.911,190.049 93.505,189.814 92.895,189.814 C92.411,189.814 92.02,190.002 91.708,190.393 C91.395,190.768 91.239,191.283 91.239,191.893 C91.239,192.518 91.395,193.018 91.708,193.408 C92.02,193.799 92.411,193.986 92.895,193.986 C93.505,193.986 93.911,193.752 94.176,193.252 L94.176,193.877 L95.52,193.877 L95.52,193.486 z M94.176,192.096 C94.176,193.049 93.801,193.564 93.114,193.564 C92.411,193.564 92.051,192.986 92.051,191.893 C92.051,190.799 92.411,190.236 93.114,190.236 C93.801,190.236 94.176,190.752 94.176,191.705 z M94.176,192.096" fill="#000000"/>
      <path d="M96.476,188.689 C96.476,188.924 96.679,189.111 96.914,189.111 C97.148,189.111 97.335,188.924 97.335,188.689 C97.335,188.455 97.132,188.268 96.914,188.268 C96.679,188.268 96.476,188.455 96.476,188.689 z M97.351,193.486 L97.351,189.924 L96.023,189.924 L96.023,190.314 L96.679,190.314 L96.679,193.486 L96.023,193.486 L96.023,193.877 L98.007,193.877 L98.007,193.486 z M97.351,193.486" fill="#000000"/>
      <path d="M98.493,193.877 L100.399,193.877 L100.399,193.486 L99.79,193.486 L99.79,191.674 C99.79,190.783 100.134,190.314 100.774,190.314 C101.368,190.314 101.587,190.611 101.587,191.58 L101.587,193.486 L100.993,193.486 L100.993,193.877 L102.884,193.877 L102.884,193.486 L102.274,193.486 L102.274,191.361 C102.274,190.299 101.868,189.814 100.993,189.814 C100.446,189.814 100.056,190.096 99.79,190.627 L99.79,189.924 L98.462,189.924 L98.462,190.314 L99.118,190.314 L99.118,193.486 L98.493,193.486 z M98.493,193.877" fill="#000000"/>
      <path d="M107.089,190.314 L107.745,190.314 L107.745,189.924 L106.401,189.924 L106.401,190.533 C106.136,190.049 105.729,189.814 105.12,189.814 C104.636,189.814 104.245,190.002 103.933,190.393 C103.62,190.768 103.464,191.283 103.464,191.893 C103.464,192.518 103.62,193.018 103.933,193.408 C104.245,193.799 104.636,193.986 105.12,193.986 C105.729,193.986 106.136,193.752 106.401,193.252 L106.401,193.799 C106.401,194.768 106.042,195.205 105.245,195.205 C104.62,195.205 104.308,194.971 104.214,194.455 L103.854,194.455 L103.854,195.283 C104.292,195.471 104.761,195.564 105.292,195.564 C106.448,195.564 107.089,194.924 107.089,193.799 z M106.401,191.705 L106.401,192.096 C106.401,193.049 106.026,193.564 105.339,193.564 C104.636,193.564 104.276,192.986 104.276,191.893 C104.276,190.799 104.636,190.236 105.339,190.236 C106.026,190.236 106.401,190.752 106.401,191.705 z M106.401,191.705" fill="#000000"/>
    </g>
    <g>
      <path d="M110.812,193.658 C111.312,193.877 111.781,193.986 112.296,193.986 C113.296,193.986 113.906,193.533 113.906,192.783 C113.906,192.236 113.609,191.908 112.859,191.658 L112.312,191.502 C111.64,191.283 111.468,191.127 111.468,190.783 C111.468,190.377 111.765,190.174 112.343,190.174 C112.937,190.174 113.281,190.486 113.296,191.002 L113.703,191.002 L113.703,190.127 C113.218,189.924 112.75,189.814 112.328,189.814 C111.39,189.814 110.828,190.252 110.828,190.971 C110.828,191.486 111.109,191.783 111.796,192.002 L112.296,192.174 C112.671,192.299 112.921,192.408 113.031,192.518 C113.156,192.627 113.218,192.768 113.218,192.939 C113.218,193.377 112.89,193.611 112.265,193.611 C111.593,193.611 111.234,193.314 111.218,192.736 L110.812,192.736 z M110.812,193.658" fill="#000000"/>
      <path d="M115.128,190.314 L115.128,192.83 C115.128,193.658 115.409,193.986 116.206,193.986 C116.925,193.986 117.269,193.674 117.3,192.939 L116.784,192.939 C116.784,193.408 116.628,193.611 116.269,193.611 C116.097,193.611 115.972,193.564 115.909,193.486 C115.847,193.377 115.816,193.174 115.816,192.83 L115.816,190.314 L117.097,190.314 L117.097,189.924 L115.816,189.924 L115.816,188.689 L115.128,188.689 L115.128,189.924 L114.519,189.924 L114.519,190.314 z M115.128,190.314" fill="#000000"/>
      <path d="M121.005,189.908 C120.739,189.846 120.489,189.814 120.27,189.814 C119.661,189.814 119.255,190.064 118.973,190.627 L118.973,189.924 L117.645,189.924 L117.645,190.314 L118.301,190.314 L118.301,193.486 L117.676,193.486 L117.676,193.877 L119.77,193.877 L119.77,193.486 L118.973,193.486 L118.973,191.674 C118.973,190.799 119.348,190.314 120.02,190.314 C120.395,190.314 120.583,190.502 120.614,190.908 L121.005,190.908 z M121.005,189.908" fill="#000000"/>
      <path d="M124.038,192.627 C124.038,193.205 123.663,193.58 123.085,193.58 C122.507,193.58 122.148,193.236 122.148,192.689 C122.148,192.08 122.476,191.799 123.163,191.799 L124.038,191.799 z M124.726,191.408 C124.726,190.377 124.148,189.814 123.038,189.814 C122.616,189.814 122.179,189.908 121.694,190.111 L121.694,190.924 L122.038,190.924 C122.132,190.424 122.46,190.174 122.991,190.174 C123.663,190.174 124.038,190.518 124.038,191.127 L124.038,191.393 L123.085,191.393 C122.007,191.393 121.382,191.877 121.382,192.689 C121.382,193.486 121.944,193.986 122.819,193.986 C123.351,193.986 123.741,193.814 124.038,193.455 L124.038,193.877 L125.335,193.877 L125.335,193.486 L124.726,193.486 z M124.726,191.408" fill="#000000"/>
      <path d="M126.284,188.689 C126.284,188.924 126.487,189.111 126.721,189.111 C126.956,189.111 127.143,188.924 127.143,188.689 C127.143,188.455 126.94,188.268 126.721,188.268 C126.487,188.268 126.284,188.455 126.284,188.689 z M127.159,193.486 L127.159,189.924 L125.831,189.924 L125.831,190.314 L126.487,190.314 L126.487,193.486 L125.831,193.486 L125.831,193.877 L127.815,193.877 L127.815,193.486 z M127.159,193.486" fill="#000000"/>
      <path d="M128.301,193.877 L130.207,193.877 L130.207,193.486 L129.598,193.486 L129.598,191.674 C129.598,190.783 129.941,190.314 130.582,190.314 C131.176,190.314 131.395,190.611 131.395,191.58 L131.395,193.486 L130.801,193.486 L130.801,193.877 L132.691,193.877 L132.691,193.486 L132.082,193.486 L132.082,191.361 C132.082,190.299 131.676,189.814 130.801,189.814 C130.254,189.814 129.863,190.096 129.598,190.627 L129.598,189.924 L128.27,189.924 L128.27,190.314 L128.926,190.314 L128.926,193.486 L128.301,193.486 z M128.301,193.877" fill="#000000"/>
      <path d="M133.318,193.658 C133.818,193.877 134.287,193.986 134.803,193.986 C135.803,193.986 136.412,193.533 136.412,192.783 C136.412,192.236 136.115,191.908 135.365,191.658 L134.818,191.502 C134.147,191.283 133.975,191.127 133.975,190.783 C133.975,190.377 134.272,190.174 134.85,190.174 C135.443,190.174 135.787,190.486 135.803,191.002 L136.209,191.002 L136.209,190.127 C135.725,189.924 135.256,189.814 134.834,189.814 C133.897,189.814 133.334,190.252 133.334,190.971 C133.334,191.486 133.615,191.783 134.303,192.002 L134.803,192.174 C135.178,192.299 135.428,192.408 135.537,192.518 C135.662,192.627 135.725,192.768 135.725,192.939 C135.725,193.377 135.397,193.611 134.772,193.611 C134.1,193.611 133.74,193.314 133.725,192.736 L133.318,192.736 z M133.318,193.658" fill="#000000"/>
    </g>
    <g clip-path="url(#Clip_9)">
      <g clip-path="url(#Clip_8)" id="surface1151">
        <g clip-path="url(#Clip_7)">
          <path d="M249.508,176.242 L405.41,176.242 L405.41,-8.008 L249.508,-8.008 z M249.508,176.242" fill="#FFFFFF"/>
        </g>
      </g>
    </g>
    <path d="M307.875,104.211 L362.633,89.535" fill-opacity="0" stroke="#666666" stroke-width="0.5" stroke-linecap="round" stroke-linejoin="round"/>
    <path d="M324.25,55.801 L346.258,137.945" fill-opacity="0" stroke="#666666" stroke-width="0.5" stroke-linecap="round" stroke-linejoin="round"/>
    <path d="M318.879,145.281 L373.641,130.609 L351.629,48.465 L296.867,63.137 z M318.879,145.281" fill-opacity="0" stroke="#000000" stroke-width="1.5" stroke-linecap="round" stroke-linejoin="round"/>
    <path d="M335.254,11.832 L335.254,96.871" fill-opacity="0" stroke="#6887FF" stroke-width="1" stroke-linecap="round" stroke-linejoin="round"/>
    <path d="M335.254,96.871 L313.246,14.73" fill-opacity="0" stroke="#666666" stroke-width="0.5" stroke-dasharray="1.5,1" stroke-linecap="round" stroke-linejoin="round"/>
    <path d="M335.254,96.871 L270.059,96.871" fill-opacity="0" stroke="#6887FF" stroke-width="1" stroke-linecap="round" stroke-linejoin="round"/>
    <path d="M335.254,96.871 L272.281,113.746" fill-opacity="0" stroke="#666666" stroke-width="0.5" stroke-dasharray="1.5,1" stroke-linecap="round" stroke-linejoin="round"/>
    <path d="M335.254,96.871 L322.164,96.871" fill-opacity="0" stroke="#6887FF" stroke-width="0.75" stroke-linecap="round" stroke-linejoin="round"/>
    <path d="M322.164,94.625 L316.164,96.875 L322.164,99.125 z M322.164,94.625" fill="#6887FF"/>
    <path d="M322.164,94.621 L316.164,96.871 L322.164,99.121 z M322.164,94.621" fill-opacity="0" stroke="#6887FF" stroke-width="0.75"/>
    <path d="M335.254,96.871 L335.254,83.781" fill-opacity="0" stroke="#6887FF" stroke-width="0.75" stroke-linecap="round" stroke-linejoin="round"/>
    <g>
      <path d="M337.504,83.781 L335.254,77.781 L333.004,83.781 z M337.504,83.781" fill="#6887FF"/>
      <path d="M337.504,83.781 L335.254,77.781 L333.004,83.781 z M337.504,83.781" fill-opacity="0" stroke="#6887FF" stroke-width="0.75"/>
    </g>
    <path d="M335.254,31.676 C330.492,31.676 325.895,32.172 321.301,33.184" fill-opacity="0" stroke="#6887FF" stroke-width="0.5" stroke-linecap="round" stroke-linejoin="round"/>
    <g>
      <path d="M321.301,33.184 L321.914,31.488 L318.387,33.895 L322.629,34.402 z M321.301,33.184" fill="#6887FF"/>
      <path d="M321.301,33.184 L321.914,31.488 L318.387,33.895 L322.629,34.402 z M321.301,33.184" fill-opacity="0" stroke="#6887FF" stroke-width="0.5"/>
    </g>
    <path d="M334.887,95.504 C334.133,95.707 333.684,96.484 333.887,97.238 C334.086,97.996 334.863,98.445 335.621,98.242 C336.379,98.039 336.824,97.262 336.625,96.508 C336.422,95.75 335.645,95.301 334.887,95.504 z M334.887,95.504" fill-opacity="0" stroke="#FF0000" stroke-width="1" stroke-linecap="round" stroke-linejoin="round"/>
    <path d="M338.09,96.875 C338.09,95.309 336.82,94.039 335.254,94.039 C333.688,94.039 332.418,95.309 332.418,96.875 C332.418,98.438 333.688,99.707 335.254,99.707 C336.82,99.707 338.09,98.438 338.09,96.875 z M338.09,96.875" fill="#FFFFFF"/>
    <path d="M335.254,94.039 C336.82,94.039 338.09,95.309 338.09,96.871 C338.09,98.438 336.82,99.707 335.254,99.707 C333.688,99.707 332.418,98.438 332.418,96.871 C332.418,95.309 333.688,94.039 335.254,94.039 z M335.254,95.039 C334.242,95.039 333.418,95.859 333.418,96.871 C333.418,97.887 334.242,98.707 335.254,98.707 C336.266,98.707 337.09,97.887 337.09,96.871 C337.09,95.859 336.266,95.039 335.254,95.039 z M335.254,95.039" fill="#000000"/>
    <g clip-path="url(#Clip_11)">
      <g clip-path="url(#Clip_10)">
        <path d="M265.766,116.156 C265.73,116.02 265.586,116.059 265.496,116.082 C265.391,116.113 265.352,116.121 265.316,116.184 C265.305,116.207 265.309,116.227 265.316,116.48 C265.328,117.305 265.16,117.555 264.918,117.621 C264.812,117.648 264.688,117.641 264.602,117.324 C264.562,117.18 264.547,117.039 264.551,116.895 L264.457,111.234 C264.461,111.09 264.453,111.062 264.453,111.062 C264.418,110.938 264.301,110.918 264.191,110.945 C264.156,110.957 264.145,110.957 264.129,110.973 L262.902,111.363 C262.77,111.41 262.602,111.465 262.672,111.734 C262.719,111.906 262.891,111.863 262.969,111.84 C263.074,111.812 263.246,111.766 263.379,111.75 L263.43,114.02 C263.246,113.922 262.875,113.797 262.363,113.934 C260.688,114.379 260.059,116.18 260.41,117.496 C260.727,118.68 261.723,118.848 262.52,118.633 C263.203,118.453 263.602,117.941 263.719,117.758 C264.223,118.18 264.859,118.008 264.965,117.98 C265.32,117.883 265.547,117.605 265.656,117.207 C265.793,116.758 265.777,116.203 265.766,116.156 z M263.5,117.328 C263.309,117.73 262.938,118.152 262.477,118.273 C261.879,118.434 261.691,117.93 261.633,117.715 C261.5,117.215 261.512,115.945 261.562,115.527 C261.676,114.746 262.082,114.379 262.477,114.273 C263.043,114.121 263.395,114.512 263.422,114.617 L263.441,114.758 z M263.5,117.328" fill="#000000"/>
      </g>
    </g>
    <g clip-path="url(#Clip_13)">
      <g clip-path="url(#Clip_12)">
        <path d="M269.711,116.859 L269.48,116.918 C269.5,117.074 269.539,117.488 269.469,117.578 C269.426,117.633 268.906,117.773 268.812,117.797 L267.574,118.129 C268.113,117.316 268.297,117.062 268.617,116.637 C269.008,116.105 269.363,115.566 269.191,114.926 C268.973,114.109 268.125,113.801 267.262,114.035 C266.426,114.258 266.02,114.996 266.184,115.613 C266.277,115.957 266.574,115.914 266.645,115.895 C266.805,115.852 266.969,115.688 266.902,115.445 C266.871,115.324 266.762,115.098 266.41,115.191 C266.492,114.66 266.91,114.387 267.227,114.305 C267.902,114.121 268.391,114.555 268.539,115.102 C268.695,115.688 268.402,116.262 268.25,116.562 L267.059,118.602 C267.008,118.68 267.008,118.691 267.059,118.883 L269.836,118.137 z M269.711,116.859" fill="#000000"/>
      </g>
    </g>
    <path d="M312.871,9.02 C312.836,8.883 312.691,8.922 312.605,8.945 C312.5,8.973 312.461,8.984 312.426,9.047 C312.41,9.07 312.418,9.09 312.422,9.344 C312.438,10.168 312.266,10.418 312.027,10.484 C311.922,10.512 311.793,10.504 311.711,10.188 C311.672,10.043 311.652,9.902 311.656,9.758 L311.562,4.098 C311.566,3.953 311.559,3.926 311.559,3.926 C311.523,3.801 311.406,3.781 311.301,3.809 C311.262,3.82 311.254,3.82 311.234,3.836 L310.008,4.227 C309.879,4.273 309.707,4.328 309.777,4.598 C309.824,4.77 310,4.723 310.074,4.703 C310.18,4.676 310.355,4.629 310.484,4.613 L310.535,6.879 C310.355,6.785 309.98,6.656 309.469,6.793 C307.797,7.242 307.164,9.043 307.516,10.359 C307.836,11.543 308.828,11.711 309.625,11.496 C310.309,11.312 310.711,10.805 310.824,10.617 C311.328,11.039 311.965,10.871 312.07,10.844 C312.426,10.746 312.652,10.469 312.762,10.07 C312.898,9.621 312.883,9.066 312.871,9.02 z M310.609,10.191 C310.418,10.594 310.043,11.016 309.582,11.137 C308.984,11.297 308.797,10.789 308.742,10.578 C308.605,10.078 308.617,8.809 308.672,8.391 C308.781,7.609 309.188,7.242 309.582,7.137 C310.148,6.984 310.504,7.375 310.531,7.48 L310.547,7.621 z M310.609,10.191" fill="#000000"/>
    <path d="M316.93,11.004 L316.863,10.762 L316.609,10.832 C315.934,11.012 315.91,10.922 315.852,10.703 L314.852,6.969 C314.801,6.789 314.789,6.785 314.598,6.836 C314.281,7.375 313.672,7.547 313.395,7.621 L313.457,7.863 C313.621,7.82 314.066,7.699 314.387,7.41 L315.305,10.848 C315.367,11.07 315.391,11.156 314.715,11.336 L314.461,11.406 L314.523,11.648 L315.715,11.301 z M316.93,11.004" fill="#000000"/>
    <path d="M344.789,101.109 C344.789,100.969 344.641,100.969 344.551,100.969 C344.43,100.969 344.359,100.969 344.32,101.098 C344.031,102.004 343.312,102.305 342.906,102.305 C342.527,102.305 342.348,102.125 342.348,101.805 C342.348,101.598 342.477,101.07 342.566,100.699 L342.914,99.344 C343.066,98.746 343.414,98.438 343.762,98.438 C343.812,98.438 344.043,98.438 344.242,98.59 C343.883,98.688 343.703,99.027 343.703,99.277 C343.703,99.496 343.871,99.734 344.199,99.734 C344.551,99.734 344.918,99.445 344.918,98.957 C344.918,98.43 344.391,98.078 343.781,98.078 C343.215,98.078 342.848,98.508 342.715,98.688 C342.469,98.27 341.91,98.078 341.344,98.078 C340.086,98.078 339.41,99.305 339.41,99.633 C339.41,99.773 339.559,99.773 339.648,99.773 C339.77,99.773 339.836,99.773 339.879,99.645 C340.168,98.738 340.883,98.438 341.293,98.438 C341.672,98.438 341.852,98.617 341.852,98.938 C341.852,99.125 341.711,99.676 341.621,100.031 L341.281,101.398 C341.133,102.004 340.773,102.305 340.434,102.305 C340.387,102.305 340.156,102.305 339.957,102.156 C340.316,102.055 340.496,101.715 340.496,101.469 C340.496,101.25 340.324,101.008 339.996,101.008 C339.648,101.008 339.281,101.297 339.281,101.785 C339.281,102.312 339.809,102.664 340.414,102.664 C340.984,102.664 341.352,102.234 341.48,102.055 C341.73,102.473 342.289,102.664 342.855,102.664 C344.113,102.664 344.789,101.438 344.789,101.109 z M344.789,101.109" fill="#000000"/>
    <path d="M344.984,32.352 C344.984,32.254 344.895,32.254 344.867,32.254 C344.766,32.254 344.758,32.293 344.727,32.434 C344.559,33.082 344.379,33.668 343.969,33.668 C343.699,33.668 343.672,33.41 343.672,33.211 C343.672,32.969 343.691,32.902 343.73,32.73 L345.164,26.973 C345.164,26.973 345.164,26.863 345.035,26.863 C344.887,26.863 343.941,26.953 343.77,26.973 C343.691,26.984 343.629,27.031 343.629,27.164 C343.629,27.281 343.719,27.281 343.871,27.281 C344.348,27.281 344.367,27.352 344.367,27.453 L344.34,27.652 L343.738,30.012 C343.562,29.645 343.273,29.375 342.824,29.375 C341.656,29.375 340.422,30.84 340.422,32.293 C340.422,33.23 340.969,33.887 341.746,33.887 C341.945,33.887 342.445,33.848 343.043,33.141 C343.121,33.559 343.473,33.887 343.949,33.887 C344.297,33.887 344.527,33.656 344.688,33.34 C344.855,32.98 344.984,32.352 344.984,32.352 z M343.59,30.641 L343.094,32.594 C343.043,32.773 343.043,32.793 342.895,32.961 C342.453,33.508 342.047,33.668 341.77,33.668 C341.27,33.668 341.129,33.121 341.129,32.73 C341.129,32.234 341.449,31.008 341.68,30.551 C341.988,29.961 342.434,29.594 342.832,29.594 C343.48,29.594 343.621,30.41 343.621,30.469 C343.621,30.531 343.602,30.59 343.59,30.641 z M343.59,30.641" fill="#6887FF"/>
    <path d="M349.738,28.797 C349.738,28.141 349.559,26.754 348.543,26.754 C347.156,26.754 345.625,29.562 345.625,31.844 C345.625,32.781 345.91,33.887 346.82,33.887 C348.223,33.887 349.738,31.027 349.738,28.797 z M348.762,30.16 L346.68,30.16 C346.848,29.523 347.047,28.727 347.445,28.02 C347.715,27.531 348.082,26.973 348.531,26.973 C349.02,26.973 349.082,27.609 349.082,28.18 C349.082,28.668 349,29.176 348.762,30.16 z M348.672,30.48 C348.562,30.938 348.352,31.785 347.973,32.504 C347.625,33.18 347.246,33.668 346.82,33.668 C346.488,33.668 346.281,33.379 346.281,32.453 C346.281,32.035 346.34,31.457 346.598,30.48 z M348.672,30.48" fill="#6887FF"/>
    <path d="M360.113,30.32 C360.113,30.121 359.922,30.121 359.785,30.121 L353.816,30.121 C353.676,30.121 353.488,30.121 353.488,30.32 C353.488,30.52 353.676,30.52 353.828,30.52 L359.773,30.52 C359.922,30.52 360.113,30.52 360.113,30.32 z M360.113,32.254 C360.113,32.055 359.922,32.055 359.773,32.055 L353.828,32.055 C353.676,32.055 353.488,32.055 353.488,32.254 C353.488,32.453 353.676,32.453 353.816,32.453 L359.785,32.453 C359.922,32.453 360.113,32.453 360.113,32.254 z M360.113,32.254" fill="#6887FF"/>
    <path d="M368.535,29.723 C368.535,29.484 368.328,29.484 368.137,29.484 L365.348,29.484 C365.148,29.484 364.762,29.484 364.32,29.953 C363.992,30.312 363.715,30.789 363.715,30.848 C363.715,30.848 363.715,30.949 363.832,30.949 C363.914,30.949 363.934,30.91 363.992,30.828 C364.48,30.062 365.051,30.062 365.258,30.062 L366.086,30.062 L365.109,33.258 C365.07,33.379 365.008,33.59 365.008,33.629 C365.008,33.738 365.078,33.898 365.297,33.898 C365.629,33.898 365.676,33.617 365.707,33.469 L366.375,30.062 L368.047,30.062 C368.176,30.062 368.535,30.062 368.535,29.723 z M368.535,29.723" fill="#6887FF"/>
    <path d="M373.887,32.352 C373.887,32.254 373.797,32.254 373.766,32.254 C373.668,32.254 373.656,32.293 373.625,32.434 C373.457,33.082 373.277,33.668 372.871,33.668 C372.602,33.668 372.57,33.41 372.57,33.211 C372.57,32.969 372.59,32.902 372.629,32.73 L374.066,26.973 C374.066,26.973 374.066,26.863 373.938,26.863 C373.785,26.863 372.84,26.953 372.672,26.973 C372.59,26.984 372.531,27.031 372.531,27.164 C372.531,27.281 372.621,27.281 372.77,27.281 C373.25,27.281 373.27,27.352 373.27,27.453 L373.238,27.652 L372.641,30.012 C372.461,29.645 372.172,29.375 371.723,29.375 C370.559,29.375 369.324,30.84 369.324,32.293 C369.324,33.23 369.871,33.887 370.648,33.887 C370.848,33.887 371.344,33.848 371.941,33.141 C372.023,33.559 372.371,33.887 372.852,33.887 C373.199,33.887 373.426,33.656 373.586,33.34 C373.758,32.98 373.887,32.352 373.887,32.352 z M372.492,30.641 L371.992,32.594 C371.941,32.773 371.941,32.793 371.793,32.961 C371.355,33.508 370.945,33.668 370.668,33.668 C370.168,33.668 370.031,33.121 370.031,32.73 C370.031,32.234 370.348,31.008 370.578,30.551 C370.887,29.961 371.336,29.594 371.734,29.594 C372.383,29.594 372.52,30.41 372.52,30.469 C372.52,30.531 372.5,30.59 372.492,30.641 z M372.492,30.641" fill="#6887FF"/>
    <path d="M378.051,32.234 C378.051,31.875 377.859,31.625 377.742,31.508 C377.473,31.227 377.184,31.176 376.746,31.086 C376.387,31.008 375.988,30.938 375.988,30.488 C375.988,30.199 376.227,29.594 377.105,29.594 C377.352,29.594 377.852,29.664 378,30.051 C377.723,30.062 377.523,30.281 377.523,30.5 C377.523,30.641 377.613,30.789 377.832,30.789 C378.051,30.789 378.289,30.621 378.289,30.23 C378.289,29.781 377.859,29.375 377.105,29.375 C375.789,29.375 375.422,30.391 375.422,30.828 C375.422,31.605 376.156,31.754 376.445,31.816 C376.965,31.914 377.48,32.023 377.48,32.57 C377.48,32.832 377.254,33.668 376.059,33.668 C375.918,33.668 375.152,33.668 374.922,33.141 C375.301,33.191 375.551,32.891 375.551,32.613 C375.551,32.383 375.391,32.262 375.18,32.262 C374.922,32.262 374.625,32.473 374.625,32.922 C374.625,33.488 375.191,33.887 376.047,33.887 C377.66,33.887 378.051,32.684 378.051,32.234 z M378.051,32.234" fill="#6887FF"/>
    <path d="M337.98,6.824 C337.98,6.684 337.832,6.684 337.742,6.684 C337.633,6.684 337.594,6.684 337.543,6.734 C337.523,6.754 337.523,6.773 337.465,7.023 C337.266,7.797 337.047,8.02 336.785,8.02 C336.637,8.02 336.559,7.918 336.559,7.648 C336.559,7.48 336.598,7.32 336.695,6.922 L336.918,6.023 L337.145,5.137 C337.215,4.859 337.336,4.383 337.336,4.312 C337.336,4.102 337.176,3.875 336.867,3.875 C336.707,3.875 336.34,3.965 336.207,4.402 L335.641,6.672 C335.582,6.902 335.512,7.191 335.492,7.371 C335.312,7.609 334.922,8.02 334.414,8.02 C333.828,8.02 333.816,7.52 333.816,7.289 C333.816,6.684 334.125,5.906 334.406,5.188 C334.504,4.93 334.535,4.859 334.535,4.691 C334.535,4.113 333.957,3.793 333.41,3.793 C332.352,3.793 331.855,5.148 331.855,5.348 C331.855,5.488 332.004,5.488 332.094,5.488 C332.215,5.488 332.285,5.488 332.324,5.359 C332.652,4.25 333.191,4.152 333.348,4.152 C333.418,4.152 333.52,4.152 333.52,4.363 C333.52,4.59 333.398,4.871 333.359,4.988 C332.941,6.035 332.75,6.594 332.75,7.082 C332.75,8.219 333.746,8.375 334.336,8.375 C334.625,8.375 335.062,8.336 335.602,7.828 C335.918,8.316 336.496,8.375 336.738,8.375 C337.105,8.375 337.395,8.168 337.602,7.809 C337.852,7.41 337.98,6.871 337.98,6.824 z M337.98,6.824" fill="#6887FF"/>
    <path d="M267.125,95.484 C267.125,94.578 266.449,94.578 266.449,94.578 C266.051,94.578 265.691,94.996 265.691,95.336 C265.691,95.613 265.898,95.734 265.988,95.781 C266.406,96.031 266.488,96.211 266.488,96.41 C266.488,96.629 265.91,98.812 264.742,98.812 C264.027,98.812 264.027,98.215 264.027,98.035 C264.027,97.457 264.305,96.73 264.625,95.934 C264.703,95.734 264.734,95.645 264.734,95.484 C264.734,94.906 264.156,94.586 263.609,94.586 C262.551,94.586 262.055,95.941 262.055,96.141 C262.055,96.281 262.203,96.281 262.293,96.281 C262.414,96.281 262.484,96.281 262.523,96.152 C262.84,95.074 263.371,94.945 263.547,94.945 C263.617,94.945 263.719,94.945 263.719,95.156 C263.719,95.383 263.598,95.672 263.57,95.754 C263.109,96.906 262.961,97.355 262.961,97.836 C262.961,98.891 263.816,99.168 264.684,99.168 C266.398,99.168 267.125,96.34 267.125,95.484 z M267.125,95.484" fill="#6887FF"/>
    <g>
      <path d="M287.51,188.096 L286.667,188.096 C285.885,189.221 285.495,190.33 285.495,191.486 C285.495,192.643 285.87,193.736 286.667,194.877 L287.51,194.877 C286.87,193.689 286.542,192.58 286.542,191.486 C286.542,190.377 286.87,189.283 287.51,188.096 z M287.51,188.096" fill="#000000"/>
      <path d="M291.833,191.799 C291.833,192.611 291.536,193.096 291.067,193.096 C290.599,193.096 290.302,192.611 290.302,191.799 C290.302,191.002 290.599,190.518 291.067,190.518 C291.536,190.518 291.833,191.002 291.833,191.799 z M290.302,190.299 L290.302,188.08 L289.224,188.08 L289.224,193.877 L290.302,193.877 L290.302,193.252 C290.536,193.736 290.911,193.986 291.411,193.986 C292.364,193.986 292.911,193.189 292.911,191.799 C292.911,190.377 292.364,189.611 291.38,189.611 C290.927,189.611 290.567,189.83 290.302,190.299 z M290.302,190.299" fill="#000000"/>
      <path d="M294.406,188.096 C295.046,189.283 295.374,190.377 295.374,191.486 C295.374,192.58 295.046,193.689 294.406,194.877 L295.249,194.877 C296.046,193.736 296.421,192.643 296.421,191.486 C296.421,190.33 296.031,189.221 295.249,188.096 z M294.406,188.096" fill="#000000"/>
    </g>
    <g>
      <path d="M305.457,192.627 C305.457,193.205 305.082,193.58 304.504,193.58 C303.926,193.58 303.567,193.236 303.567,192.689 C303.567,192.08 303.895,191.799 304.582,191.799 L305.457,191.799 z M306.145,191.408 C306.145,190.377 305.567,189.814 304.457,189.814 C304.035,189.814 303.598,189.908 303.113,190.111 L303.113,190.924 L303.457,190.924 C303.551,190.424 303.879,190.174 304.41,190.174 C305.082,190.174 305.457,190.518 305.457,191.127 L305.457,191.393 L304.504,191.393 C303.426,191.393 302.801,191.877 302.801,192.689 C302.801,193.486 303.363,193.986 304.238,193.986 C304.77,193.986 305.16,193.814 305.457,193.455 L305.457,193.877 L306.754,193.877 L306.754,193.486 L306.145,193.486 z M306.145,191.408" fill="#000000"/>
      <path d="M307.281,193.877 L309.187,193.877 L309.187,193.486 L308.578,193.486 L308.578,191.674 C308.578,190.783 308.922,190.314 309.562,190.314 C310.156,190.314 310.375,190.611 310.375,191.58 L310.375,193.486 L309.781,193.486 L309.781,193.877 L311.672,193.877 L311.672,193.486 L311.062,193.486 L311.062,191.361 C311.062,190.299 310.656,189.814 309.781,189.814 C309.234,189.814 308.843,190.096 308.578,190.627 L308.578,189.924 L307.25,189.924 L307.25,190.314 L307.906,190.314 L307.906,193.486 L307.281,193.486 z M307.281,193.877" fill="#000000"/>
      <path d="M315.877,190.314 L316.533,190.314 L316.533,189.924 L315.189,189.924 L315.189,190.533 C314.924,190.049 314.517,189.814 313.908,189.814 C313.424,189.814 313.033,190.002 312.72,190.393 C312.408,190.768 312.252,191.283 312.252,191.893 C312.252,192.518 312.408,193.018 312.72,193.408 C313.033,193.799 313.424,193.986 313.908,193.986 C314.517,193.986 314.924,193.752 315.189,193.252 L315.189,193.799 C315.189,194.768 314.83,195.205 314.033,195.205 C313.408,195.205 313.095,194.971 313.002,194.455 L312.642,194.455 L312.642,195.283 C313.08,195.471 313.549,195.564 314.08,195.564 C315.236,195.564 315.877,194.924 315.877,193.799 z M315.189,191.705 L315.189,192.096 C315.189,193.049 314.814,193.564 314.127,193.564 C313.424,193.564 313.064,192.986 313.064,191.893 C313.064,190.799 313.424,190.236 314.127,190.236 C314.814,190.236 315.189,190.752 315.189,191.705 z M315.189,191.705" fill="#000000"/>
      <path d="M319.458,189.924 L319.458,190.314 L320.051,190.314 L320.051,192.111 C320.051,193.002 319.708,193.486 319.067,193.486 C318.77,193.486 318.567,193.393 318.442,193.221 C318.333,193.033 318.27,192.705 318.27,192.221 L318.27,189.924 L316.958,189.924 L316.958,190.314 L317.583,190.314 L317.583,192.439 C317.583,193.502 317.973,193.986 318.864,193.986 C319.379,193.986 319.801,193.705 320.051,193.174 L320.051,193.877 L321.379,193.877 L321.379,193.486 L320.739,193.486 L320.739,189.924 z M319.458,189.924" fill="#000000"/>
      <path d="M323.225,193.486 L323.225,188.08 L321.881,188.08 L321.881,188.471 L322.538,188.471 L322.538,193.486 L321.881,193.486 L321.881,193.877 L323.881,193.877 L323.881,193.486 z M323.225,193.486" fill="#000000"/>
      <path d="M327.133,192.627 C327.133,193.205 326.758,193.58 326.18,193.58 C325.602,193.58 325.242,193.236 325.242,192.689 C325.242,192.08 325.57,191.799 326.258,191.799 L327.133,191.799 z M327.82,191.408 C327.82,190.377 327.242,189.814 326.133,189.814 C325.711,189.814 325.273,189.908 324.789,190.111 L324.789,190.924 L325.133,190.924 C325.227,190.424 325.555,190.174 326.086,190.174 C326.758,190.174 327.133,190.518 327.133,191.127 L327.133,191.393 L326.18,191.393 C325.102,191.393 324.477,191.877 324.477,192.689 C324.477,193.486 325.039,193.986 325.914,193.986 C326.445,193.986 326.836,193.814 327.133,193.455 L327.133,193.877 L328.43,193.877 L328.43,193.486 L327.82,193.486 z M327.82,191.408" fill="#000000"/>
      <path d="M332.285,189.908 C332.019,189.846 331.769,189.814 331.55,189.814 C330.941,189.814 330.535,190.064 330.253,190.627 L330.253,189.924 L328.925,189.924 L328.925,190.314 L329.581,190.314 L329.581,193.486 L328.956,193.486 L328.956,193.877 L331.05,193.877 L331.05,193.486 L330.253,193.486 L330.253,191.674 C330.253,190.799 330.628,190.314 331.3,190.314 C331.675,190.314 331.863,190.502 331.894,190.908 L332.285,190.908 z M332.285,189.908" fill="#000000"/>
    </g>
    <g>
      <path d="M338.711,193.486 L338.711,188.08 L337.383,188.08 L337.383,188.471 L338.023,188.471 L338.023,190.533 C337.758,190.049 337.351,189.814 336.742,189.814 C336.258,189.814 335.867,190.002 335.554,190.393 C335.242,190.768 335.086,191.283 335.086,191.893 C335.086,192.518 335.242,193.018 335.554,193.408 C335.867,193.799 336.258,193.986 336.742,193.986 C337.351,193.986 337.758,193.752 338.023,193.252 L338.023,193.877 L339.367,193.877 L339.367,193.486 z M338.023,192.096 C338.023,193.049 337.648,193.564 336.961,193.564 C336.258,193.564 335.898,192.986 335.898,191.893 C335.898,190.799 336.258,190.236 336.961,190.236 C337.648,190.236 338.023,190.752 338.023,191.705 z M338.023,192.096" fill="#000000"/>
      <path d="M343.713,191.971 C343.698,190.564 343.042,189.814 341.838,189.814 C341.292,189.814 340.838,190.002 340.495,190.377 C340.151,190.768 339.963,191.268 339.963,191.893 C339.963,192.533 340.151,193.033 340.495,193.408 C340.854,193.799 341.307,193.986 341.885,193.986 C342.838,193.986 343.432,193.549 343.651,192.674 L343.104,192.674 C342.948,193.299 342.557,193.611 341.963,193.611 C341.182,193.611 340.776,193.064 340.776,192.002 L340.776,191.971 z M342.917,191.58 L340.776,191.58 C340.854,190.658 341.213,190.174 341.838,190.174 C342.51,190.174 342.885,190.658 342.917,191.58 z M342.917,191.58" fill="#000000"/>
      <path d="M345.991,193.877 L346.491,193.877 L347.944,190.314 L348.382,190.314 L348.382,189.924 L346.897,189.924 L346.897,190.314 L347.491,190.314 L346.382,193.033 L345.272,190.314 L345.897,190.314 L345.897,189.924 L344.085,189.924 L344.085,190.314 L344.522,190.314 z M345.991,193.877" fill="#000000"/>
      <path d="M349.141,188.689 C349.141,188.924 349.344,189.111 349.578,189.111 C349.813,189.111 350,188.924 350,188.689 C350,188.455 349.797,188.268 349.578,188.268 C349.344,188.268 349.141,188.455 349.141,188.689 z M350.016,193.486 L350.016,189.924 L348.688,189.924 L348.688,190.314 L349.344,190.314 L349.344,193.486 L348.688,193.486 L348.688,193.877 L350.672,193.877 L350.672,193.486 z M350.016,193.486" fill="#000000"/>
      <path d="M353.877,192.627 C353.877,193.205 353.502,193.58 352.923,193.58 C352.345,193.58 351.986,193.236 351.986,192.689 C351.986,192.08 352.314,191.799 353.002,191.799 L353.877,191.799 z M354.564,191.408 C354.564,190.377 353.986,189.814 352.877,189.814 C352.455,189.814 352.017,189.908 351.533,190.111 L351.533,190.924 L351.877,190.924 C351.97,190.424 352.298,190.174 352.83,190.174 C353.502,190.174 353.877,190.518 353.877,191.127 L353.877,191.393 L352.923,191.393 C351.845,191.393 351.22,191.877 351.22,192.689 C351.22,193.486 351.783,193.986 352.658,193.986 C353.189,193.986 353.58,193.814 353.877,193.455 L353.877,193.877 L355.173,193.877 L355.173,193.486 L354.564,193.486 z M354.564,191.408" fill="#000000"/>
      <path d="M356.216,190.314 L356.216,192.83 C356.216,193.658 356.497,193.986 357.294,193.986 C358.013,193.986 358.357,193.674 358.388,192.939 L357.872,192.939 C357.872,193.408 357.716,193.611 357.357,193.611 C357.185,193.611 357.06,193.564 356.997,193.486 C356.935,193.377 356.903,193.174 356.903,192.83 L356.903,190.314 L358.185,190.314 L358.185,189.924 L356.903,189.924 L356.903,188.689 L356.216,188.689 L356.216,189.924 L355.607,189.924 L355.607,190.314 z M356.216,190.314" fill="#000000"/>
      <path d="M359.186,188.689 C359.186,188.924 359.389,189.111 359.624,189.111 C359.858,189.111 360.045,188.924 360.045,188.689 C360.045,188.455 359.842,188.268 359.624,188.268 C359.389,188.268 359.186,188.455 359.186,188.689 z M360.061,193.486 L360.061,189.924 L358.733,189.924 L358.733,190.314 L359.389,190.314 L359.389,193.486 L358.733,193.486 L358.733,193.877 L360.717,193.877 L360.717,193.486 z M360.061,193.486" fill="#000000"/>
      <path d="M363.187,193.611 C362.453,193.611 362.078,193.033 362.078,191.893 C362.078,190.768 362.453,190.174 363.187,190.174 C363.922,190.174 364.297,190.768 364.297,191.893 C364.297,193.033 363.922,193.611 363.187,193.611 z M363.187,193.986 C363.766,193.986 364.234,193.799 364.578,193.408 C364.922,193.033 365.094,192.533 365.094,191.893 C365.094,191.268 364.922,190.752 364.578,190.377 C364.234,190.002 363.766,189.814 363.187,189.814 C362.609,189.814 362.141,190.002 361.797,190.377 C361.453,190.752 361.266,191.268 361.266,191.893 C361.266,192.533 361.453,193.033 361.797,193.408 C362.156,193.799 362.609,193.986 363.187,193.986 z M363.187,193.986" fill="#000000"/>
      <path d="M365.791,193.877 L367.697,193.877 L367.697,193.486 L367.088,193.486 L367.088,191.674 C367.088,190.783 367.432,190.314 368.072,190.314 C368.666,190.314 368.885,190.611 368.885,191.58 L368.885,193.486 L368.291,193.486 L368.291,193.877 L370.182,193.877 L370.182,193.486 L369.572,193.486 L369.572,191.361 C369.572,190.299 369.166,189.814 368.291,189.814 C367.744,189.814 367.354,190.096 367.088,190.627 L367.088,189.924 L365.76,189.924 L365.76,190.314 L366.416,190.314 L366.416,193.486 L365.791,193.486 z M365.791,193.877" fill="#000000"/>
    </g>
    <g>
      <g>
        <path d="M96.945,220.364 L96.945,219.286 L93.101,219.286 L93.101,225.458 L94.32,225.458 L94.32,222.771 L96.711,222.771 L96.711,221.692 L94.32,221.692 L94.32,220.364 z M96.945,220.364" fill="#000000"/>
        <path d="M98.371,220.833 L98.371,221.755 L99.543,221.755 L99.543,224.521 L98.043,224.521 L98.043,225.458 L102.262,225.458 L102.262,224.521 L100.762,224.521 L100.762,220.833 z M99.543,218.567 L99.543,219.989 L100.762,219.989 L100.762,218.567 z M99.543,218.567" fill="#000000"/>
        <path d="M105.86,223.067 C105.86,223.911 105.516,224.442 105.016,224.442 C104.5,224.442 104.172,223.911 104.172,223.067 C104.172,222.224 104.5,221.692 105.016,221.692 C105.516,221.692 105.86,222.255 105.86,223.067 z M107.078,225.114 L107.078,220.833 L105.86,220.833 L105.86,221.411 C105.625,220.974 105.203,220.708 104.672,220.708 C104.141,220.708 103.735,220.911 103.422,221.349 C103.11,221.786 102.953,222.364 102.953,223.099 C102.953,224.521 103.625,225.396 104.688,225.396 C105.25,225.396 105.625,225.192 105.86,224.739 L105.86,225.239 C105.86,225.927 105.547,226.239 104.875,226.239 C104.36,226.239 103.907,226.114 103.438,225.88 L103.438,226.989 C103.938,227.146 104.438,227.208 104.938,227.208 C106.453,227.208 107.078,226.599 107.078,225.114 z M107.078,225.114" fill="#000000"/>
        <path d="M108.301,223.833 C108.301,224.989 108.77,225.583 109.645,225.583 C110.223,225.583 110.645,225.286 110.817,224.771 L110.817,225.458 L112.036,225.458 L112.036,220.833 L110.817,220.833 L110.817,223.489 C110.817,224.192 110.567,224.583 110.13,224.583 C109.692,224.583 109.52,224.317 109.52,223.661 L109.52,220.833 L108.301,220.833 z M108.301,223.833" fill="#000000"/>
        <path d="M117.509,222.099 L117.509,220.958 C117.227,220.786 116.899,220.708 116.556,220.708 C115.915,220.708 115.399,221.005 115.149,221.552 L115.149,220.833 L113.946,220.833 L113.946,225.458 L115.149,225.458 L115.149,223.317 C115.149,222.708 115.196,222.474 115.337,222.271 C115.54,221.927 115.946,221.739 116.446,221.739 C116.884,221.739 117.243,221.864 117.509,222.099 z M117.509,222.099" fill="#000000"/>
        <path d="M122.403,225.224 L122.403,224.114 C121.81,224.474 121.278,224.614 120.732,224.614 C119.888,224.614 119.466,224.255 119.45,223.536 L122.591,223.536 L122.591,223.052 C122.591,221.567 121.81,220.708 120.419,220.708 C119.747,220.708 119.216,220.942 118.81,221.38 C118.419,221.802 118.216,222.411 118.216,223.161 C118.216,224.724 119.06,225.583 120.607,225.583 C121.263,225.583 121.825,225.474 122.403,225.224 z M121.372,222.63 L119.466,222.63 C119.528,222.005 119.872,221.661 120.419,221.661 C121.044,221.661 121.357,221.989 121.372,222.63 z M121.372,222.63" fill="#000000"/>
      </g>
      <g>
        <path d="M130.912,220.646 L130.912,223.083 L129.349,223.083 z M130.802,219.286 L128.459,222.942 L128.459,224.13 L130.912,224.13 L130.912,225.458 L132.084,225.458 L132.084,224.13 L132.756,224.13 L132.756,223.083 L132.084,223.083 L132.084,219.286 z M130.802,219.286" fill="#000000"/>
        <path d="M134.994,223.942 L134.994,225.458 L136.369,225.458 L136.369,223.942 z M134.994,223.942" fill="#000000"/>
        <path d="M139.014,224.38 L139.014,225.458 L142.92,225.458 L142.92,224.38 L141.561,224.38 L141.561,219.286 L140.389,219.286 L139.108,219.583 L139.108,220.692 L140.373,220.38 L140.373,224.38 z M139.014,224.38" fill="#000000"/>
      </g>
      <path d="M149.678,222.411 L149.678,223.614 L152.288,223.614 L152.288,222.411 z M149.678,222.411" fill="#000000"/>
      <g>
        <path d="M164.718,223.817 L163.937,223.817 C163.671,224.692 163.062,225.13 162.124,225.13 C160.781,225.13 160.077,224.177 160.077,222.38 C160.077,220.567 160.781,219.614 162.124,219.614 C163.249,219.614 163.859,220.083 164.062,221.13 L164.546,221.13 L164.546,219.708 C163.64,219.349 162.89,219.177 162.187,219.177 C161.265,219.177 160.515,219.474 159.952,220.052 C159.39,220.646 159.109,221.411 159.109,222.38 C159.109,223.364 159.406,224.146 160.046,224.771 C160.593,225.302 161.296,225.583 162.124,225.583 C163.468,225.583 164.343,224.974 164.718,223.817 z M164.718,223.817" fill="#000000"/>
        <path d="M168.295,221.067 L168.295,221.505 L168.967,221.505 L168.967,223.505 C168.967,224.489 168.592,225.021 167.857,225.021 C167.529,225.021 167.279,224.911 167.138,224.724 C167.013,224.521 166.935,224.161 166.935,223.614 L166.935,221.067 L165.467,221.067 L165.467,221.505 L166.17,221.505 L166.17,223.864 C166.17,225.036 166.607,225.583 167.623,225.583 C168.217,225.583 168.685,225.271 168.967,224.677 L168.967,225.458 L170.482,225.458 L170.482,225.021 L169.748,225.021 L169.748,221.067 z M168.295,221.067" fill="#000000"/>
        <path d="M174.92,221.052 C174.607,220.989 174.342,220.942 174.092,220.942 C173.389,220.942 172.935,221.239 172.623,221.849 L172.623,221.067 L171.107,221.067 L171.107,221.489 L171.842,221.489 L171.842,225.021 L171.154,225.021 L171.154,225.458 L173.529,225.458 L173.529,225.021 L172.623,225.021 L172.623,223.005 C172.623,222.036 173.045,221.505 173.81,221.505 C174.232,221.505 174.451,221.708 174.482,222.161 L174.92,222.161 z M174.92,221.052" fill="#000000"/>
        <path d="M177.064,225.458 L177.627,225.458 L179.283,221.505 L179.783,221.505 L179.783,221.067 L178.096,221.067 L178.096,221.505 L178.767,221.505 L177.502,224.521 L176.252,221.505 L176.971,221.505 L176.971,221.067 L174.892,221.067 L174.892,221.505 L175.408,221.505 z M177.064,225.458" fill="#000000"/>
        <path d="M184.491,223.333 C184.46,221.786 183.726,220.942 182.366,220.942 C181.726,220.942 181.21,221.161 180.82,221.583 C180.429,222.005 180.241,222.567 180.241,223.255 C180.241,223.958 180.429,224.521 180.835,224.942 C181.226,225.364 181.757,225.583 182.413,225.583 C183.491,225.583 184.163,225.083 184.413,224.13 L183.788,224.13 C183.616,224.817 183.179,225.177 182.491,225.177 C181.601,225.177 181.148,224.567 181.148,223.38 L181.148,223.333 z M183.57,222.896 L181.148,222.896 C181.241,221.88 181.648,221.349 182.366,221.349 C183.116,221.349 183.538,221.88 183.57,222.896 z M183.57,222.896" fill="#000000"/>
        <path d="M185.292,222.864 L185.292,223.505 L187.464,223.505 L187.464,222.864 z M185.292,222.864" fill="#000000"/>
        <path d="M191.274,224.083 C191.274,224.708 190.837,225.13 190.196,225.13 C189.54,225.13 189.134,224.739 189.134,224.13 C189.134,223.474 189.509,223.146 190.274,223.146 L191.274,223.146 z M192.056,222.708 C192.056,221.567 191.384,220.942 190.149,220.942 C189.665,220.942 189.165,221.052 188.618,221.286 L188.618,222.177 L189.009,222.177 C189.103,221.63 189.478,221.349 190.087,221.349 C190.837,221.349 191.274,221.739 191.274,222.396 L191.274,222.708 L190.181,222.708 C188.962,222.708 188.274,223.224 188.274,224.13 C188.274,225.021 188.884,225.583 189.899,225.583 C190.493,225.583 190.931,225.396 191.274,224.989 L191.274,225.458 L192.743,225.458 L192.743,225.021 L192.056,225.021 z M192.056,222.708" fill="#000000"/>
        <path d="M193.344,225.458 L195.485,225.458 L195.485,225.021 L194.813,225.021 L194.813,223.005 C194.813,222.021 195.204,221.489 195.923,221.489 C196.61,221.489 196.844,221.817 196.844,222.896 L196.844,225.021 L196.173,225.021 L196.173,225.458 L198.313,225.458 L198.313,225.021 L197.61,225.021 L197.61,222.661 C197.61,221.474 197.173,220.942 196.173,220.942 C195.563,220.942 195.094,221.255 194.813,221.849 L194.813,221.067 L193.298,221.067 L193.298,221.505 L194.032,221.505 L194.032,225.021 L193.344,225.021 z M193.344,225.458" fill="#000000"/>
        <path d="M203.079,221.505 L203.829,221.505 L203.829,221.067 L202.313,221.067 L202.313,221.755 C202.001,221.192 201.548,220.942 200.86,220.942 C200.298,220.942 199.86,221.161 199.501,221.583 C199.157,222.005 198.985,222.567 198.985,223.255 C198.985,223.942 199.157,224.505 199.501,224.927 C199.86,225.364 200.298,225.583 200.86,225.583 C201.548,225.583 202.001,225.317 202.313,224.771 L202.313,225.364 C202.313,226.442 201.891,226.927 200.985,226.927 C200.282,226.927 199.923,226.677 199.813,226.099 L199.407,226.099 L199.407,227.021 C199.907,227.239 200.454,227.333 201.032,227.333 C202.345,227.333 203.079,226.63 203.079,225.364 z M202.313,223.052 L202.313,223.474 C202.313,224.536 201.876,225.099 201.095,225.099 C200.298,225.099 199.891,224.474 199.891,223.255 C199.891,222.036 200.298,221.411 201.095,221.411 C201.876,221.411 202.313,221.989 202.313,223.052 z M202.313,223.052" fill="#000000"/>
        <path d="M205.841,225.021 L205.841,219.021 L204.326,219.021 L204.326,219.458 L205.076,219.458 L205.076,225.021 L204.326,225.021 L204.326,225.458 L206.576,225.458 L206.576,225.021 z M205.841,225.021" fill="#000000"/>
        <path d="M211.527,223.333 C211.496,221.786 210.762,220.942 209.402,220.942 C208.762,220.942 208.246,221.161 207.855,221.583 C207.465,222.005 207.277,222.567 207.277,223.255 C207.277,223.958 207.465,224.521 207.871,224.942 C208.262,225.364 208.793,225.583 209.449,225.583 C210.527,225.583 211.199,225.083 211.449,224.13 L210.824,224.13 C210.652,224.817 210.215,225.177 209.527,225.177 C208.637,225.177 208.184,224.567 208.184,223.38 L208.184,223.333 z M210.605,222.896 L208.184,222.896 C208.277,221.88 208.684,221.349 209.402,221.349 C210.152,221.349 210.574,221.88 210.605,222.896 z M210.605,222.896" fill="#000000"/>
      </g>
      <g>
        <path d="M220.043,221.052 C219.731,220.989 219.465,220.942 219.215,220.942 C218.512,220.942 218.059,221.239 217.746,221.849 L217.746,221.067 L216.231,221.067 L216.231,221.489 L216.965,221.489 L216.965,225.021 L216.277,225.021 L216.277,225.458 L218.652,225.458 L218.652,225.021 L217.746,225.021 L217.746,223.005 C217.746,222.036 218.168,221.505 218.934,221.505 C219.356,221.505 219.574,221.708 219.606,222.161 L220.043,222.161 z M220.043,221.052" fill="#000000"/>
        <path d="M224.734,223.333 C224.703,221.786 223.969,220.942 222.609,220.942 C221.969,220.942 221.453,221.161 221.062,221.583 C220.672,222.005 220.484,222.567 220.484,223.255 C220.484,223.958 220.672,224.521 221.078,224.942 C221.469,225.364 222,225.583 222.656,225.583 C223.734,225.583 224.406,225.083 224.656,224.13 L224.031,224.13 C223.859,224.817 223.422,225.177 222.734,225.177 C221.844,225.177 221.391,224.567 221.391,223.38 L221.391,223.333 z M223.812,222.896 L221.391,222.896 C221.484,221.88 221.891,221.349 222.609,221.349 C223.359,221.349 223.781,221.88 223.812,222.896 z M223.812,222.896" fill="#000000"/>
        <path d="M226.926,223.052 C226.926,221.989 227.348,221.411 228.145,221.411 C228.942,221.411 229.348,222.036 229.348,223.255 C229.348,224.474 228.942,225.099 228.145,225.099 C227.348,225.099 226.926,224.536 226.926,223.474 z M226.16,221.505 L226.16,226.786 L225.41,226.786 L225.41,227.224 L227.66,227.224 L227.66,226.786 L226.926,226.786 L226.926,224.771 C227.238,225.317 227.692,225.583 228.379,225.583 C228.942,225.583 229.379,225.364 229.738,224.927 C230.082,224.505 230.254,223.942 230.254,223.255 C230.254,222.567 230.082,222.005 229.738,221.583 C229.379,221.161 228.942,220.942 228.379,220.942 C227.692,220.942 227.238,221.192 226.926,221.755 L226.926,221.067 L225.41,221.067 L225.41,221.505 z M226.16,221.505" fill="#000000"/>
        <path d="M234.813,221.052 C234.501,220.989 234.235,220.942 233.985,220.942 C233.282,220.942 232.829,221.239 232.517,221.849 L232.517,221.067 L231.001,221.067 L231.001,221.489 L231.735,221.489 L231.735,225.021 L231.048,225.021 L231.048,225.458 L233.423,225.458 L233.423,225.021 L232.517,225.021 L232.517,223.005 C232.517,222.036 232.938,221.505 233.704,221.505 C234.126,221.505 234.345,221.708 234.376,222.161 L234.813,222.161 z M234.813,221.052" fill="#000000"/>
        <path d="M239.505,223.333 C239.473,221.786 238.739,220.942 237.38,220.942 C236.739,220.942 236.223,221.161 235.833,221.583 C235.442,222.005 235.255,222.567 235.255,223.255 C235.255,223.958 235.442,224.521 235.848,224.942 C236.239,225.364 236.77,225.583 237.427,225.583 C238.505,225.583 239.177,225.083 239.427,224.13 L238.802,224.13 C238.63,224.817 238.192,225.177 237.505,225.177 C236.614,225.177 236.161,224.567 236.161,223.38 L236.161,223.333 z M238.583,222.896 L236.161,222.896 C236.255,221.88 236.661,221.349 237.38,221.349 C238.13,221.349 238.552,221.88 238.583,222.896 z M238.583,222.896" fill="#000000"/>
        <path d="M240.415,225.208 C240.962,225.458 241.509,225.583 242.087,225.583 C243.228,225.583 243.915,225.083 243.915,224.239 C243.915,223.63 243.571,223.271 242.728,223.005 L242.103,222.817 C241.353,222.583 241.165,222.396 241.165,222.021 C241.165,221.583 241.493,221.349 242.149,221.349 C242.806,221.349 243.212,221.692 243.228,222.255 L243.681,222.255 L243.681,221.302 C243.134,221.067 242.603,220.942 242.118,220.942 C241.056,220.942 240.431,221.427 240.431,222.224 C240.431,222.802 240.759,223.13 241.524,223.38 L242.087,223.567 C242.509,223.708 242.806,223.833 242.931,223.958 C243.056,224.067 243.134,224.224 243.134,224.411 C243.134,224.896 242.759,225.177 242.056,225.177 C241.29,225.177 240.884,224.833 240.868,224.192 L240.415,224.192 z M240.415,225.208" fill="#000000"/>
        <path d="M249.049,223.333 C249.018,221.786 248.284,220.942 246.924,220.942 C246.284,220.942 245.768,221.161 245.377,221.583 C244.987,222.005 244.799,222.567 244.799,223.255 C244.799,223.958 244.987,224.521 245.393,224.942 C245.784,225.364 246.315,225.583 246.971,225.583 C248.049,225.583 248.721,225.083 248.971,224.13 L248.346,224.13 C248.174,224.817 247.737,225.177 247.049,225.177 C246.159,225.177 245.706,224.567 245.706,223.38 L245.706,223.333 z M248.127,222.896 L245.706,222.896 C245.799,221.88 246.206,221.349 246.924,221.349 C247.674,221.349 248.096,221.88 248.127,222.896 z M248.127,222.896" fill="#000000"/>
        <path d="M249.835,225.458 L251.975,225.458 L251.975,225.021 L251.303,225.021 L251.303,223.005 C251.303,222.021 251.694,221.489 252.413,221.489 C253.1,221.489 253.335,221.817 253.335,222.896 L253.335,225.021 L252.663,225.021 L252.663,225.458 L254.803,225.458 L254.803,225.021 L254.1,225.021 L254.1,222.661 C254.1,221.474 253.663,220.942 252.663,220.942 C252.053,220.942 251.585,221.255 251.303,221.849 L251.303,221.067 L249.788,221.067 L249.788,221.505 L250.522,221.505 L250.522,225.021 L249.835,225.021 z M249.835,225.458" fill="#000000"/>
        <path d="M255.976,221.505 L255.976,224.302 C255.976,225.224 256.304,225.583 257.194,225.583 C258.022,225.583 258.397,225.224 258.444,224.427 L257.851,224.427 C257.851,224.942 257.679,225.177 257.272,225.177 C257.069,225.177 256.944,225.114 256.866,225.021 C256.788,224.911 256.741,224.677 256.741,224.302 L256.741,221.505 L258.21,221.505 L258.21,221.067 L256.741,221.067 L256.741,219.692 L255.976,219.692 L255.976,221.067 L255.288,221.067 L255.288,221.505 z M255.976,221.505" fill="#000000"/>
        <path d="M261.948,224.083 C261.948,224.708 261.51,225.13 260.87,225.13 C260.213,225.13 259.807,224.739 259.807,224.13 C259.807,223.474 260.182,223.146 260.948,223.146 L261.948,223.146 z M262.729,222.708 C262.729,221.567 262.057,220.942 260.823,220.942 C260.338,220.942 259.838,221.052 259.292,221.286 L259.292,222.177 L259.682,222.177 C259.776,221.63 260.151,221.349 260.76,221.349 C261.51,221.349 261.948,221.739 261.948,222.396 L261.948,222.708 L260.854,222.708 C259.635,222.708 258.948,223.224 258.948,224.13 C258.948,225.021 259.557,225.583 260.573,225.583 C261.167,225.583 261.604,225.396 261.948,224.989 L261.948,225.458 L263.417,225.458 L263.417,225.021 L262.729,225.021 z M262.729,222.708" fill="#000000"/>
        <path d="M264.596,221.505 L264.596,224.302 C264.596,225.224 264.924,225.583 265.815,225.583 C266.643,225.583 267.018,225.224 267.065,224.427 L266.471,224.427 C266.471,224.942 266.299,225.177 265.893,225.177 C265.69,225.177 265.565,225.114 265.487,225.021 C265.408,224.911 265.362,224.677 265.362,224.302 L265.362,221.505 L266.83,221.505 L266.83,221.067 L265.362,221.067 L265.362,219.692 L264.596,219.692 L264.596,221.067 L263.908,221.067 L263.908,221.505 z M264.596,221.505" fill="#000000"/>
        <path d="M267.974,219.692 C267.974,219.958 268.178,220.161 268.459,220.161 C268.724,220.161 268.928,219.958 268.928,219.692 C268.928,219.442 268.709,219.224 268.459,219.224 C268.178,219.224 267.974,219.442 267.974,219.692 z M268.959,225.021 L268.959,221.067 L267.443,221.067 L267.443,221.505 L268.178,221.505 L268.178,225.021 L267.443,225.021 L267.443,225.458 L269.693,225.458 L269.693,225.021 z M268.959,225.021" fill="#000000"/>
        <path d="M272.489,225.177 C271.66,225.177 271.239,224.521 271.239,223.255 C271.239,222.005 271.66,221.349 272.489,221.349 C273.332,221.349 273.754,222.005 273.754,223.255 C273.754,224.521 273.332,225.177 272.489,225.177 z M272.489,225.583 C273.145,225.583 273.676,225.364 274.067,224.942 C274.473,224.521 274.66,223.958 274.66,223.255 C274.66,222.552 274.473,221.989 274.067,221.583 C273.676,221.161 273.145,220.942 272.489,220.942 C271.832,220.942 271.317,221.161 270.91,221.583 C270.52,221.989 270.332,222.552 270.332,223.255 C270.332,223.958 270.52,224.521 270.926,224.942 C271.317,225.364 271.848,225.583 272.489,225.583 z M272.489,225.583" fill="#000000"/>
        <path d="M275.454,225.458 L277.595,225.458 L277.595,225.021 L276.923,225.021 L276.923,223.005 C276.923,222.021 277.313,221.489 278.032,221.489 C278.72,221.489 278.954,221.817 278.954,222.896 L278.954,225.021 L278.282,225.021 L278.282,225.458 L280.423,225.458 L280.423,225.021 L279.72,225.021 L279.72,222.661 C279.72,221.474 279.282,220.942 278.282,220.942 C277.673,220.942 277.204,221.255 276.923,221.849 L276.923,221.067 L275.407,221.067 L275.407,221.505 L276.142,221.505 L276.142,225.021 L275.454,225.021 z M275.454,225.458" fill="#000000"/>
      </g>
      <g>
        <path d="M287.216,225.177 C286.388,225.177 285.966,224.521 285.966,223.255 C285.966,222.005 286.388,221.349 287.216,221.349 C288.06,221.349 288.481,222.005 288.481,223.255 C288.481,224.521 288.06,225.177 287.216,225.177 z M287.216,225.583 C287.872,225.583 288.403,225.364 288.794,224.942 C289.2,224.521 289.388,223.958 289.388,223.255 C289.388,222.552 289.2,221.989 288.794,221.583 C288.403,221.161 287.872,220.942 287.216,220.942 C286.56,220.942 286.044,221.161 285.638,221.583 C285.247,221.989 285.06,222.552 285.06,223.255 C285.06,223.958 285.247,224.521 285.653,224.942 C286.044,225.364 286.575,225.583 287.216,225.583 z M287.216,225.583" fill="#000000"/>
        <path d="M293.541,220.067 L293.541,219.224 C293.166,219.083 292.791,219.021 292.416,219.021 C291.4,219.021 290.869,219.536 290.869,220.505 L290.869,221.067 L290.134,221.067 L290.134,221.505 L290.869,221.505 L290.869,225.021 L290.134,225.021 L290.134,225.458 L292.65,225.458 L292.65,225.021 L291.65,225.021 L291.65,221.505 L292.9,221.505 L292.9,221.067 L291.65,221.067 L291.65,220.489 C291.65,219.692 291.869,219.427 292.447,219.427 C292.884,219.427 293.119,219.646 293.134,220.067 z M293.541,220.067" fill="#000000"/>
      </g>
      <g>
        <path d="M297.929,221.505 L297.929,224.302 C297.929,225.224 298.257,225.583 299.147,225.583 C299.976,225.583 300.351,225.224 300.397,224.427 L299.804,224.427 C299.804,224.942 299.632,225.177 299.226,225.177 C299.022,225.177 298.897,225.114 298.819,225.021 C298.741,224.911 298.694,224.677 298.694,224.302 L298.694,221.505 L300.163,221.505 L300.163,221.067 L298.694,221.067 L298.694,219.692 L297.929,219.692 L297.929,221.067 L297.241,221.067 L297.241,221.505 z M297.929,221.505" fill="#000000"/>
        <path d="M300.823,225.458 L302.964,225.458 L302.964,225.021 L302.292,225.021 L302.292,223.005 C302.292,222.021 302.682,221.505 303.401,221.505 C303.745,221.505 303.979,221.599 304.104,221.802 C304.245,221.989 304.323,222.364 304.323,222.896 L304.323,225.021 L303.651,225.021 L303.651,225.458 L305.792,225.458 L305.792,225.021 L305.089,225.021 L305.089,222.661 C305.089,221.474 304.651,220.942 303.651,220.942 C303.042,220.942 302.573,221.255 302.292,221.849 L302.292,219.021 L300.776,219.021 L300.776,219.458 L301.51,219.458 L301.51,225.021 L300.823,225.021 z M300.823,225.458" fill="#000000"/>
        <path d="M310.714,223.333 C310.682,221.786 309.948,220.942 308.589,220.942 C307.948,220.942 307.432,221.161 307.042,221.583 C306.651,222.005 306.464,222.567 306.464,223.255 C306.464,223.958 306.651,224.521 307.057,224.942 C307.448,225.364 307.979,225.583 308.635,225.583 C309.714,225.583 310.385,225.083 310.635,224.13 L310.01,224.13 C309.839,224.817 309.401,225.177 308.714,225.177 C307.823,225.177 307.37,224.567 307.37,223.38 L307.37,223.333 z M309.792,222.896 L307.37,222.896 C307.464,221.88 307.87,221.349 308.589,221.349 C309.339,221.349 309.76,221.88 309.792,222.896 z M309.792,222.896" fill="#000000"/>
      </g>
      <g>
        <path d="M319.229,221.052 C318.917,220.989 318.651,220.942 318.401,220.942 C317.698,220.942 317.245,221.239 316.932,221.849 L316.932,221.067 L315.417,221.067 L315.417,221.489 L316.151,221.489 L316.151,225.021 L315.464,225.021 L315.464,225.458 L317.839,225.458 L317.839,225.021 L316.932,225.021 L316.932,223.005 C316.932,222.036 317.354,221.505 318.12,221.505 C318.542,221.505 318.761,221.708 318.792,222.161 L319.229,222.161 z M319.229,221.052" fill="#000000"/>
        <path d="M321.827,225.177 C320.999,225.177 320.577,224.521 320.577,223.255 C320.577,222.005 320.999,221.349 321.827,221.349 C322.671,221.349 323.092,222.005 323.092,223.255 C323.092,224.521 322.671,225.177 321.827,225.177 z M321.827,225.583 C322.483,225.583 323.014,225.364 323.405,224.942 C323.811,224.521 323.999,223.958 323.999,223.255 C323.999,222.552 323.811,221.989 323.405,221.583 C323.014,221.161 322.483,220.942 321.827,220.942 C321.171,220.942 320.655,221.161 320.249,221.583 C319.858,221.989 319.671,222.552 319.671,223.255 C319.671,223.958 319.858,224.521 320.264,224.942 C320.655,225.364 321.186,225.583 321.827,225.583 z M321.827,225.583" fill="#000000"/>
        <path d="M328.964,225.021 L328.964,219.021 L327.464,219.021 L327.464,219.458 L328.199,219.458 L328.199,221.755 C327.886,221.192 327.433,220.942 326.746,220.942 C326.183,220.942 325.746,221.161 325.386,221.583 C325.042,222.005 324.871,222.567 324.871,223.255 C324.871,223.942 325.042,224.505 325.386,224.927 C325.746,225.364 326.183,225.583 326.746,225.583 C327.433,225.583 327.886,225.317 328.199,224.771 L328.199,225.458 L329.714,225.458 L329.714,225.021 z M328.199,223.474 C328.199,224.536 327.761,225.099 326.98,225.099 C326.183,225.099 325.777,224.474 325.777,223.255 C325.777,222.036 326.183,221.411 326.98,221.411 C327.761,221.411 328.199,221.989 328.199,223.052 z M328.199,223.474" fill="#000000"/>
        <path d="M330.774,225.021 C330.774,225.333 331.008,225.583 331.336,225.583 C331.649,225.583 331.899,225.333 331.899,225.021 C331.899,224.724 331.649,224.474 331.336,224.474 C331.008,224.474 330.774,224.724 330.774,225.021 z M330.774,225.021" fill="#000000"/>
      </g>
    </g>
  </g>
</svg>
