<?xml version="1.0" encoding="UTF-8"?>
<!DOCTYPE svg PUBLIC "-//W3C//DTD SVG 1.1//EN" "http://www.w3.org/Graphics/SVG/1.1/DTD/svg11.dtd">
<svg version="1.1" xmlns="http://www.w3.org/2000/svg" xmlns:xlink="http://www.w3.org/1999/xlink" x="0" y="0" width="333" height="51" viewBox="0, 0, 333, 51">
  <g id="Background">
    <rect x="0" y="0" width="333" height="51" fill="#000000" fill-opacity="0"/>
  </g>
  <defs>
    <clipPath id="Clip_1">
      <path d="M0,-0 L333,-0 L333,30.082 L0,30.082 z M0,-0"/>
    </clipPath>
    <clipPath id="Clip_2">
      <path d="M0,0 L333,0 L333,31 L0,31 z"/>
    </clipPath>
    <clipPath id="Clip_3">
      <path d="M0,-0 L333,-0 L333,30.082 L0,30.082 z M0,-0"/>
    </clipPath>
  </defs>
  <g id="surface1166">
    <g clip-path="url(#Clip_3)">
      <g clip-path="url(#Clip_2)" id="surface1169">
        <g clip-path="url(#Clip_1)"/>
      </g>
    </g>
    <path d="M4.293,12.992 C4.293,12.633 4.105,12.383 3.984,12.266 C3.715,11.984 3.426,11.934 2.988,11.848 C2.629,11.766 2.23,11.695 2.23,11.25 C2.23,10.961 2.469,10.352 3.348,10.352 C3.598,10.352 4.094,10.422 4.242,10.809 C3.965,10.82 3.766,11.039 3.766,11.258 C3.766,11.398 3.855,11.547 4.074,11.547 C4.293,11.547 4.531,11.379 4.531,10.988 C4.531,10.539 4.105,10.133 3.348,10.133 C2.031,10.133 1.664,11.148 1.664,11.586 C1.664,12.363 2.398,12.512 2.688,12.574 C3.207,12.672 3.727,12.781 3.727,13.332 C3.727,13.59 3.496,14.426 2.301,14.426 C2.16,14.426 1.395,14.426 1.164,13.898 C1.543,13.949 1.793,13.648 1.793,13.371 C1.793,13.141 1.633,13.02 1.426,13.02 C1.164,13.02 0.867,13.23 0.867,13.68 C0.867,14.246 1.434,14.645 2.289,14.645 C3.906,14.645 4.293,13.441 4.293,12.992 z M4.293,12.992" fill="#000000"/>
    <path d="M183.379,17.262 C183.379,17.16 183.32,17.16 183.219,17.152 C182.434,17.102 182.062,16.652 181.973,16.293 C181.945,16.184 181.945,16.164 181.945,15.816 L181.945,14.32 C181.945,14.023 181.945,13.516 181.922,13.414 C181.793,12.758 181.156,12.5 180.77,12.391 C181.945,12.051 181.945,11.344 181.945,11.062 L181.945,9.27 C181.945,8.555 181.945,8.332 182.184,8.086 C182.363,7.906 182.59,7.668 183.289,7.625 C183.34,7.617 183.379,7.578 183.379,7.516 C183.379,7.406 183.297,7.406 183.18,7.406 C182.184,7.406 181.297,7.914 181.277,8.633 L181.277,10.457 C181.277,11.391 181.277,11.551 181.016,11.832 C180.879,11.969 180.609,12.238 179.98,12.277 C179.91,12.277 179.84,12.289 179.84,12.391 C179.84,12.488 179.902,12.488 180,12.5 C180.43,12.527 181.277,12.738 181.277,13.734 L181.277,15.707 C181.277,16.285 181.277,16.621 181.793,16.992 C182.223,17.289 182.871,17.371 183.18,17.371 C183.297,17.371 183.379,17.371 183.379,17.262 z M183.379,17.262" fill="#000000"/>
    <path d="M190.074,13.406 C190.074,13.266 189.922,13.266 189.832,13.266 C189.723,13.266 189.684,13.266 189.633,13.316 C189.613,13.336 189.613,13.355 189.555,13.605 C189.355,14.402 189.125,14.602 188.879,14.602 C188.77,14.602 188.648,14.562 188.648,14.23 C188.648,14.082 188.668,13.941 188.707,13.805 L190.082,8.312 C190.121,8.176 190.121,8.145 190.121,8.145 C190.121,8.016 190.012,7.965 189.902,7.965 C189.863,7.965 189.855,7.965 189.832,7.977 L188.547,8.035 C188.41,8.047 188.23,8.055 188.23,8.332 C188.23,8.512 188.41,8.512 188.488,8.512 C188.598,8.512 188.777,8.512 188.906,8.535 L188.371,10.734 C188.219,10.594 187.891,10.375 187.363,10.375 C185.629,10.375 184.555,11.949 184.555,13.316 C184.555,14.539 185.469,14.961 186.297,14.961 C187.004,14.961 187.523,14.57 187.684,14.422 C188.062,14.961 188.719,14.961 188.828,14.961 C189.195,14.961 189.484,14.75 189.695,14.391 C189.945,13.992 190.074,13.453 190.074,13.406 z M187.582,13.953 C187.293,14.293 186.824,14.602 186.348,14.602 C185.73,14.602 185.68,14.062 185.68,13.844 C185.68,13.324 186.02,12.102 186.176,11.711 C186.488,10.984 186.977,10.734 187.383,10.734 C187.973,10.734 188.211,11.203 188.211,11.312 L188.191,11.453 z M187.582,13.953" fill="#000000"/>
    <path d="M193.766,15.168 C193.766,14.625 193.316,14.078 192.551,13.918 C193.281,13.656 193.547,13.133 193.547,12.707 C193.547,12.156 192.914,11.742 192.141,11.742 C191.363,11.742 190.773,12.121 190.773,12.68 C190.773,12.914 190.926,13.047 191.133,13.047 C191.352,13.047 191.488,12.887 191.488,12.691 C191.488,12.488 191.352,12.344 191.133,12.328 C191.379,12.023 191.859,11.945 192.117,11.945 C192.434,11.945 192.871,12.098 192.871,12.707 C192.871,13 192.773,13.32 192.594,13.535 C192.363,13.801 192.168,13.816 191.816,13.836 C191.645,13.852 191.629,13.852 191.594,13.855 C191.594,13.855 191.523,13.871 191.523,13.949 C191.523,14.047 191.586,14.047 191.707,14.047 L192.082,14.047 C192.625,14.047 193.016,14.422 193.016,15.168 C193.016,16.031 192.516,16.289 192.109,16.289 C191.832,16.289 191.219,16.215 190.926,15.801 C191.254,15.789 191.328,15.559 191.328,15.41 C191.328,15.188 191.164,15.027 190.945,15.027 C190.75,15.027 190.555,15.148 190.555,15.434 C190.555,16.09 191.281,16.516 192.125,16.516 C193.094,16.516 193.766,15.867 193.766,15.168 z M193.766,15.168" fill="#000000"/>
    <path d="M196.672,14.871 C196.672,14.211 196.422,13.824 196.035,13.824 C195.707,13.824 195.508,14.074 195.508,14.352 C195.508,14.621 195.707,14.879 196.035,14.879 C196.152,14.879 196.281,14.84 196.383,14.75 C196.414,14.73 196.434,14.719 196.434,14.719 C196.434,14.719 196.453,14.73 196.453,14.871 C196.453,15.605 196.105,16.203 195.773,16.531 C195.664,16.645 195.664,16.664 195.664,16.691 C195.664,16.762 195.715,16.801 195.766,16.801 C195.875,16.801 196.672,16.035 196.672,14.871 z M196.672,14.871" fill="#000000"/>
    <path d="M205.043,13.406 C205.043,13.266 204.895,13.266 204.805,13.266 C204.695,13.266 204.656,13.266 204.605,13.316 C204.586,13.336 204.586,13.355 204.527,13.605 C204.328,14.402 204.098,14.602 203.848,14.602 C203.738,14.602 203.621,14.562 203.621,14.23 C203.621,14.082 203.641,13.941 203.68,13.805 L205.055,8.312 C205.094,8.176 205.094,8.145 205.094,8.145 C205.094,8.016 204.984,7.965 204.875,7.965 C204.836,7.965 204.824,7.965 204.805,7.977 L203.52,8.035 C203.379,8.047 203.199,8.055 203.199,8.332 C203.199,8.512 203.379,8.512 203.461,8.512 C203.57,8.512 203.75,8.512 203.879,8.535 L203.34,10.734 C203.191,10.594 202.863,10.375 202.336,10.375 C200.602,10.375 199.523,11.949 199.523,13.316 C199.523,14.539 200.441,14.961 201.27,14.961 C201.977,14.961 202.492,14.57 202.652,14.422 C203.031,14.961 203.688,14.961 203.797,14.961 C204.168,14.961 204.457,14.75 204.664,14.391 C204.914,13.992 205.043,13.453 205.043,13.406 z M202.555,13.953 C202.266,14.293 201.797,14.602 201.316,14.602 C200.699,14.602 200.652,14.062 200.652,13.844 C200.652,13.324 200.988,12.102 201.148,11.711 C201.457,10.984 201.945,10.734 202.355,10.734 C202.941,10.734 203.18,11.203 203.18,11.312 L203.16,11.453 z M202.555,13.953" fill="#000000"/>
    <path d="M208.449,16.375 L208.449,16.125 L208.184,16.125 C207.488,16.125 207.488,16.031 207.488,15.801 L207.488,11.938 C207.488,11.75 207.473,11.742 207.277,11.742 C206.832,12.184 206.195,12.191 205.91,12.191 L205.91,12.441 C206.078,12.441 206.539,12.441 206.922,12.246 L206.922,15.801 C206.922,16.031 206.922,16.125 206.227,16.125 L205.961,16.125 L205.961,16.375 L207.203,16.348 z M208.449,16.375" fill="#000000"/>
    <path d="M211.641,14.871 C211.641,14.211 211.395,13.824 211.004,13.824 C210.676,13.824 210.477,14.074 210.477,14.352 C210.477,14.621 210.676,14.879 211.004,14.879 C211.125,14.879 211.254,14.84 211.355,14.75 C211.383,14.73 211.402,14.719 211.402,14.719 C211.402,14.719 211.422,14.73 211.422,14.871 C211.422,15.605 211.074,16.203 210.746,16.531 C210.637,16.645 210.637,16.664 210.637,16.691 C210.637,16.762 210.688,16.801 210.734,16.801 C210.844,16.801 211.641,16.035 211.641,14.871 z M211.641,14.871" fill="#000000"/>
    <path d="M220.016,13.406 C220.016,13.266 219.867,13.266 219.777,13.266 C219.668,13.266 219.629,13.266 219.578,13.316 C219.559,13.336 219.559,13.355 219.5,13.605 C219.297,14.402 219.07,14.602 218.82,14.602 C218.711,14.602 218.59,14.562 218.59,14.23 C218.59,14.082 218.613,13.941 218.652,13.805 L220.027,8.312 C220.066,8.176 220.066,8.145 220.066,8.145 C220.066,8.016 219.957,7.965 219.848,7.965 C219.809,7.965 219.797,7.965 219.777,7.977 L218.492,8.035 C218.352,8.047 218.172,8.055 218.172,8.332 C218.172,8.512 218.352,8.512 218.434,8.512 C218.543,8.512 218.723,8.512 218.852,8.535 L218.312,10.734 C218.164,10.594 217.836,10.375 217.305,10.375 C215.574,10.375 214.496,11.949 214.496,13.316 C214.496,14.539 215.414,14.961 216.242,14.961 C216.949,14.961 217.465,14.57 217.625,14.422 C218.004,14.961 218.66,14.961 218.77,14.961 C219.141,14.961 219.43,14.75 219.637,14.391 C219.887,13.992 220.016,13.453 220.016,13.406 z M217.527,13.953 C217.238,14.293 216.77,14.602 216.289,14.602 C215.672,14.602 215.621,14.062 215.621,13.844 C215.621,13.324 215.961,12.102 216.121,11.711 C216.43,10.984 216.918,10.734 217.328,10.734 C217.914,10.734 218.152,11.203 218.152,11.312 L218.133,11.453 z M217.527,13.953" fill="#000000"/>
    <path d="M223.645,15.105 L223.406,15.105 C223.387,15.258 223.316,15.672 223.227,15.738 C223.168,15.781 222.633,15.781 222.535,15.781 L221.25,15.781 C221.984,15.133 222.227,14.938 222.648,14.609 C223.164,14.199 223.645,13.766 223.645,13.105 C223.645,12.262 222.906,11.742 222.012,11.742 C221.148,11.742 220.562,12.352 220.562,12.992 C220.562,13.348 220.863,13.383 220.93,13.383 C221.098,13.383 221.301,13.266 221.301,13.012 C221.301,12.887 221.25,12.645 220.891,12.645 C221.105,12.148 221.578,11.996 221.906,11.996 C222.605,11.996 222.969,12.539 222.969,13.105 C222.969,13.711 222.535,14.191 222.312,14.441 L220.633,16.102 C220.562,16.164 220.562,16.18 220.562,16.375 L223.434,16.375 z M223.645,15.105" fill="#000000"/>
    <path d="M228.848,12.391 C228.848,12.289 228.785,12.289 228.688,12.277 C228.258,12.25 227.41,12.039 227.41,11.043 L227.41,9.07 C227.41,8.492 227.41,8.156 226.895,7.785 C226.465,7.496 225.828,7.406 225.508,7.406 C225.41,7.406 225.309,7.406 225.309,7.516 C225.309,7.617 225.371,7.617 225.469,7.625 C226.258,7.676 226.625,8.125 226.715,8.484 C226.742,8.594 226.742,8.613 226.742,8.961 L226.742,10.457 C226.742,10.754 226.742,11.262 226.766,11.363 C226.895,12.02 227.531,12.277 227.918,12.391 C226.742,12.727 226.742,13.434 226.742,13.715 L226.742,15.508 C226.742,16.223 226.742,16.445 226.504,16.691 C226.324,16.871 226.098,17.109 225.398,17.152 C225.348,17.16 225.309,17.199 225.309,17.262 C225.309,17.371 225.41,17.371 225.508,17.371 C226.504,17.371 227.391,16.863 227.41,16.145 L227.41,14.32 C227.41,13.387 227.41,13.227 227.672,12.945 C227.809,12.809 228.078,12.539 228.707,12.5 C228.777,12.5 228.848,12.488 228.848,12.391 z M228.848,12.391" fill="#000000"/>
    <path d="M78.566,17.262 C78.566,17.16 78.508,17.16 78.41,17.152 C77.621,17.102 77.254,16.652 77.164,16.293 C77.133,16.184 77.133,16.164 77.133,15.816 L77.133,14.32 C77.133,14.023 77.133,13.516 77.113,13.414 C76.984,12.758 76.348,12.5 75.957,12.391 C77.133,12.051 77.133,11.344 77.133,11.062 L77.133,9.27 C77.133,8.555 77.133,8.332 77.371,8.086 C77.551,7.906 77.781,7.668 78.477,7.625 C78.527,7.617 78.566,7.578 78.566,7.516 C78.566,7.406 78.488,7.406 78.367,7.406 C77.371,7.406 76.484,7.914 76.465,8.633 L76.465,10.457 C76.465,11.391 76.465,11.551 76.207,11.832 C76.066,11.969 75.797,12.238 75.172,12.277 C75.102,12.277 75.031,12.289 75.031,12.391 C75.031,12.488 75.09,12.488 75.191,12.5 C75.617,12.527 76.465,12.738 76.465,13.734 L76.465,15.707 C76.465,16.285 76.465,16.621 76.984,16.992 C77.414,17.289 78.059,17.371 78.367,17.371 C78.488,17.371 78.566,17.371 78.566,17.262 z M78.566,17.262" fill="#000000"/>
    <path d="M83.07,13.406 C83.07,13.266 82.922,13.266 82.832,13.266 C82.664,13.266 82.652,13.277 82.582,13.426 C82.203,14.281 81.645,14.602 81.258,14.602 C81.168,14.602 81.02,14.602 81.02,14.23 C81.02,14.043 81.047,13.934 81.078,13.805 L81.805,10.926 L82.691,10.926 C82.891,10.926 82.91,10.926 82.961,10.875 C83.02,10.836 83.051,10.695 83.051,10.637 C83.051,10.457 82.883,10.457 82.723,10.457 L81.926,10.457 L82.246,9.172 C82.285,9.012 82.285,8.953 82.285,8.91 C82.285,8.594 82.023,8.473 81.816,8.473 C81.668,8.473 81.398,8.543 81.238,8.82 C81.199,8.902 81.078,9.359 81.008,9.641 C80.969,9.809 80.969,9.828 80.809,10.457 L79.914,10.457 C79.715,10.457 79.543,10.457 79.543,10.746 C79.543,10.926 79.703,10.926 79.883,10.926 L80.691,10.926 L80.121,13.195 C80.051,13.453 79.953,13.875 79.953,13.984 C79.953,14.629 80.59,14.961 81.207,14.961 C82.395,14.961 83.07,13.574 83.07,13.406 z M83.07,13.406" fill="#000000"/>
    <path d="M85.457,14.871 C85.457,14.211 85.207,13.824 84.816,13.824 C84.488,13.824 84.289,14.074 84.289,14.352 C84.289,14.621 84.488,14.879 84.816,14.879 C84.938,14.879 85.066,14.84 85.168,14.75 C85.195,14.73 85.215,14.719 85.215,14.719 C85.215,14.719 85.234,14.73 85.234,14.871 C85.234,15.605 84.887,16.203 84.559,16.531 C84.449,16.645 84.449,16.664 84.449,16.691 C84.449,16.762 84.5,16.801 84.547,16.801 C84.656,16.801 85.457,16.035 85.457,14.871 z M85.457,14.871" fill="#000000"/>
    <path d="M94.309,13.406 C94.309,13.266 94.156,13.266 94.066,13.266 C93.957,13.266 93.918,13.266 93.867,13.316 C93.848,13.336 93.848,13.355 93.789,13.605 C93.59,14.383 93.371,14.602 93.113,14.602 C92.961,14.602 92.883,14.5 92.883,14.23 C92.883,14.062 92.922,13.902 93.023,13.504 L93.242,12.609 L93.469,11.723 C93.539,11.441 93.66,10.965 93.66,10.895 C93.66,10.684 93.5,10.457 93.191,10.457 C93.031,10.457 92.664,10.547 92.535,10.984 L91.965,13.254 C91.906,13.484 91.836,13.773 91.816,13.953 C91.637,14.191 91.25,14.602 90.742,14.602 C90.152,14.602 90.141,14.102 90.141,13.875 C90.141,13.266 90.453,12.488 90.73,11.77 C90.828,11.512 90.859,11.441 90.859,11.273 C90.859,10.695 90.281,10.375 89.734,10.375 C88.68,10.375 88.18,11.73 88.18,11.93 C88.18,12.07 88.328,12.07 88.418,12.07 C88.539,12.07 88.609,12.07 88.648,11.941 C88.977,10.836 89.516,10.734 89.676,10.734 C89.742,10.734 89.844,10.734 89.844,10.945 C89.844,11.172 89.723,11.453 89.684,11.57 C89.266,12.617 89.078,13.176 89.078,13.664 C89.078,14.801 90.074,14.961 90.66,14.961 C90.949,14.961 91.387,14.918 91.926,14.41 C92.246,14.898 92.824,14.961 93.062,14.961 C93.43,14.961 93.719,14.75 93.93,14.391 C94.176,13.992 94.309,13.453 94.309,13.406 z M94.309,13.406" fill="#000000"/>
    <path d="M96.668,14.871 C96.668,14.211 96.418,13.824 96.031,13.824 C95.703,13.824 95.504,14.074 95.504,14.352 C95.504,14.621 95.703,14.879 96.031,14.879 C96.148,14.879 96.281,14.84 96.379,14.75 C96.41,14.73 96.43,14.719 96.43,14.719 C96.43,14.719 96.449,14.73 96.449,14.871 C96.449,15.605 96.102,16.203 95.77,16.531 C95.66,16.645 95.66,16.664 95.66,16.691 C95.66,16.762 95.711,16.801 95.762,16.801 C95.871,16.801 96.668,16.035 96.668,14.871 z M96.668,14.871" fill="#000000"/>
    <path d="M104.465,11.273 C104.465,10.367 103.785,10.367 103.785,10.367 C103.387,10.367 103.027,10.785 103.027,11.125 C103.027,11.402 103.238,11.523 103.328,11.57 C103.746,11.82 103.828,12 103.828,12.199 C103.828,12.418 103.25,14.602 102.082,14.602 C101.367,14.602 101.367,14.004 101.367,13.824 C101.367,13.246 101.645,12.52 101.965,11.723 C102.043,11.523 102.074,11.434 102.074,11.273 C102.074,10.695 101.496,10.375 100.945,10.375 C99.891,10.375 99.395,11.73 99.395,11.93 C99.395,12.07 99.543,12.07 99.633,12.07 C99.75,12.07 99.82,12.07 99.859,11.941 C100.18,10.863 100.707,10.734 100.887,10.734 C100.957,10.734 101.055,10.734 101.055,10.945 C101.055,11.172 100.938,11.461 100.906,11.543 C100.449,12.699 100.301,13.145 100.301,13.625 C100.301,14.68 101.156,14.961 102.023,14.961 C103.738,14.961 104.465,12.129 104.465,11.273 z M104.465,11.273" fill="#000000"/>
    <path d="M109.344,12.391 C109.344,12.289 109.281,12.289 109.184,12.277 C108.754,12.25 107.906,12.039 107.906,11.043 L107.906,9.07 C107.906,8.492 107.906,8.156 107.391,7.785 C106.961,7.496 106.324,7.406 106.004,7.406 C105.906,7.406 105.805,7.406 105.805,7.516 C105.805,7.617 105.867,7.617 105.965,7.625 C106.754,7.676 107.121,8.125 107.211,8.484 C107.242,8.594 107.242,8.613 107.242,8.961 L107.242,10.457 C107.242,10.754 107.242,11.262 107.262,11.363 C107.391,12.02 108.027,12.277 108.414,12.391 C107.242,12.727 107.242,13.434 107.242,13.715 L107.242,15.508 C107.242,16.223 107.242,16.445 107,16.691 C106.82,16.871 106.594,17.109 105.895,17.152 C105.844,17.16 105.805,17.199 105.805,17.262 C105.805,17.371 105.906,17.371 106.004,17.371 C107,17.371 107.887,16.863 107.906,16.145 L107.906,14.32 C107.906,13.387 107.906,13.227 108.168,12.945 C108.305,12.809 108.574,12.539 109.203,12.5 C109.273,12.5 109.344,12.488 109.344,12.391 z M109.344,12.391" fill="#000000"/>
    <path d="M42.473,5.852 C42.473,5.715 42.32,5.715 42.234,5.715 C42.113,5.715 42.043,5.715 42.004,5.844 C41.715,6.75 40.996,7.047 40.59,7.047 C40.211,7.047 40.031,6.871 40.031,6.551 C40.031,6.34 40.16,5.812 40.25,5.445 L40.598,4.09 C40.75,3.492 41.098,3.184 41.445,3.184 C41.496,3.184 41.723,3.184 41.922,3.332 C41.566,3.434 41.387,3.77 41.387,4.02 C41.387,4.238 41.555,4.477 41.883,4.477 C42.234,4.477 42.602,4.191 42.602,3.703 C42.602,3.172 42.074,2.824 41.465,2.824 C40.898,2.824 40.527,3.254 40.398,3.434 C40.148,3.016 39.594,2.824 39.023,2.824 C37.77,2.824 37.094,4.051 37.094,4.379 C37.094,4.52 37.242,4.52 37.332,4.52 C37.449,4.52 37.52,4.52 37.559,4.391 C37.848,3.48 38.566,3.184 38.977,3.184 C39.352,3.184 39.531,3.363 39.531,3.68 C39.531,3.871 39.395,4.418 39.305,4.777 L38.965,6.141 C38.816,6.75 38.457,7.047 38.117,7.047 C38.066,7.047 37.84,7.047 37.641,6.898 C38,6.801 38.18,6.461 38.18,6.211 C38.18,5.992 38.008,5.754 37.68,5.754 C37.332,5.754 36.961,6.043 36.961,6.531 C36.961,7.059 37.492,7.406 38.098,7.406 C38.664,7.406 39.035,6.98 39.164,6.801 C39.414,7.219 39.973,7.406 40.539,7.406 C41.793,7.406 42.473,6.184 42.473,5.852 z M42.473,5.852" fill="#6887FF"/>
    <path d="M19.023,12.934 L54.793,12.934" fill-opacity="0" stroke="#6887FF" stroke-width="0.75"/>
    <path d="M54.793,15.184 L60.793,12.934 L54.793,10.684 M54.793,12.934 L60.793,12.934" fill-opacity="0" stroke="#6887FF" stroke-width="0.75"/>
    <path d="M146.648,2.316 C146.648,1.66 146.469,0.273 145.453,0.273 C144.07,0.273 142.535,3.082 142.535,5.363 C142.535,6.301 142.824,7.406 143.73,7.406 C145.137,7.406 146.648,4.547 146.648,2.316 z M145.672,3.68 L143.59,3.68 C143.762,3.043 143.961,2.246 144.359,1.539 C144.625,1.051 144.996,0.492 145.445,0.492 C145.934,0.492 145.992,1.133 145.992,1.699 C145.992,2.188 145.91,2.695 145.672,3.68 z M145.582,4 C145.473,4.457 145.266,5.305 144.887,6.023 C144.539,6.699 144.16,7.188 143.73,7.188 C143.402,7.188 143.191,6.898 143.191,5.973 C143.191,5.555 143.254,4.977 143.512,4 z M145.582,4" fill="#6887FF"/>
    <path d="M123.832,12.934 L159.602,12.934" fill-opacity="0" stroke="#6887FF" stroke-width="0.75"/>
    <path d="M159.602,15.184 L165.602,12.934 L159.602,10.684 M159.602,12.934 L165.602,12.934" fill-opacity="0" stroke="#6887FF" stroke-width="0.75"/>
    <path d="M304.168,9.574 C304.168,9.336 303.957,9.336 303.77,9.336 L300.98,9.336 C300.781,9.336 300.391,9.336 299.953,9.805 C299.625,10.16 299.344,10.641 299.344,10.699 C299.344,10.699 299.344,10.801 299.465,10.801 C299.543,10.801 299.562,10.762 299.625,10.68 C300.113,9.914 300.68,9.914 300.891,9.914 L301.715,9.914 L300.738,13.109 C300.699,13.23 300.641,13.441 300.641,13.48 C300.641,13.59 300.711,13.75 300.93,13.75 C301.258,13.75 301.309,13.469 301.336,13.32 L302.004,9.914 L303.68,9.914 C303.809,9.914 304.168,9.914 304.168,9.574 z M304.168,9.574" fill="#000000"/>
    <path d="M306.031,13.617 C306.031,12.961 305.781,12.574 305.391,12.574 C305.062,12.574 304.863,12.82 304.863,13.102 C304.863,13.371 305.062,13.629 305.391,13.629 C305.512,13.629 305.641,13.59 305.742,13.5 C305.77,13.48 305.789,13.469 305.789,13.469 C305.789,13.469 305.812,13.48 305.812,13.617 C305.812,14.355 305.461,14.953 305.133,15.281 C305.023,15.391 305.023,15.414 305.023,15.441 C305.023,15.512 305.074,15.551 305.125,15.551 C305.234,15.551 306.031,14.785 306.031,13.617 z M306.031,13.617" fill="#000000"/>
    <path d="M313.871,12.203 C313.871,12.105 313.781,12.105 313.75,12.105 C313.652,12.105 313.641,12.145 313.613,12.285 C313.422,12.973 313.191,13.52 312.746,13.52 C312.535,13.52 312.426,13.391 312.426,13.043 C312.426,12.891 312.465,12.652 312.504,12.484 C312.527,12.395 312.555,12.266 312.555,12.156 C312.555,11.219 311.18,11.148 310.621,11.129 C310.953,10.949 311.27,10.68 311.539,10.449 C311.996,10.062 312.285,9.824 312.684,9.652 C312.664,9.703 312.637,9.824 312.637,9.875 C312.637,9.992 312.703,10.223 313.016,10.223 C313.332,10.223 313.551,9.934 313.551,9.684 C313.551,9.594 313.512,9.336 313.152,9.336 C312.547,9.336 311.957,9.832 311.52,10.203 C310.844,10.781 310.602,10.93 310.246,11.047 L310.445,10.273 C310.504,10.012 310.621,9.543 310.621,9.496 C310.621,9.324 310.504,9.227 310.332,9.227 C310.305,9.227 310.023,9.227 309.934,9.586 L309.02,13.242 C308.98,13.379 308.98,13.398 308.98,13.469 C308.98,13.648 309.117,13.738 309.27,13.738 C309.566,13.738 309.625,13.5 309.707,13.18 C309.805,12.82 309.746,13.012 310.176,11.336 C311.012,11.367 311.879,11.535 311.879,12.184 C311.879,12.254 311.879,12.305 311.859,12.402 C311.816,12.562 311.809,12.672 311.809,12.754 C311.809,13.34 312.207,13.738 312.727,13.738 C313.043,13.738 313.305,13.559 313.504,13.219 C313.75,12.801 313.871,12.203 313.871,12.203 z M313.871,12.203" fill="#000000"/>
    <path d="M317.473,15.125 L317.473,14.871 L317.207,14.871 C316.508,14.871 316.508,14.781 316.508,14.551 L316.508,10.688 C316.508,10.5 316.496,10.492 316.301,10.492 C315.855,10.934 315.219,10.938 314.934,10.938 L314.934,11.191 C315.102,11.191 315.562,11.191 315.945,10.996 L315.945,14.551 C315.945,14.781 315.945,14.871 315.246,14.871 L314.98,14.871 L314.98,15.125 L316.223,15.094 z M317.473,15.125" fill="#000000"/>
    <path d="M320.664,13.617 C320.664,12.961 320.414,12.574 320.027,12.574 C319.699,12.574 319.5,12.82 319.5,13.102 C319.5,13.371 319.699,13.629 320.027,13.629 C320.148,13.629 320.277,13.59 320.375,13.5 C320.406,13.48 320.426,13.469 320.426,13.469 C320.426,13.469 320.445,13.48 320.445,13.617 C320.445,14.355 320.098,14.953 319.77,15.281 C319.66,15.391 319.66,15.414 319.66,15.441 C319.66,15.512 319.707,15.551 319.758,15.551 C319.867,15.551 320.664,14.785 320.664,13.617 z M320.664,13.617" fill="#000000"/>
    <path d="M328.516,12.203 C328.516,12.105 328.426,12.105 328.395,12.105 C328.297,12.105 328.285,12.145 328.258,12.285 C328.066,12.973 327.836,13.52 327.391,13.52 C327.18,13.52 327.07,13.391 327.07,13.043 C327.07,12.891 327.109,12.652 327.148,12.484 C327.172,12.395 327.199,12.266 327.199,12.156 C327.199,11.219 325.824,11.148 325.266,11.129 C325.598,10.949 325.914,10.68 326.184,10.449 C326.641,10.062 326.93,9.824 327.328,9.652 C327.309,9.703 327.281,9.824 327.281,9.875 C327.281,9.992 327.348,10.223 327.66,10.223 C327.977,10.223 328.195,9.934 328.195,9.684 C328.195,9.594 328.156,9.336 327.797,9.336 C327.191,9.336 326.602,9.832 326.164,10.203 C325.488,10.781 325.246,10.93 324.891,11.047 L325.09,10.273 C325.148,10.012 325.266,9.543 325.266,9.496 C325.266,9.324 325.148,9.227 324.977,9.227 C324.949,9.227 324.668,9.227 324.578,9.586 L323.664,13.242 C323.625,13.379 323.625,13.398 323.625,13.469 C323.625,13.648 323.762,13.738 323.914,13.738 C324.211,13.738 324.27,13.5 324.352,13.18 C324.449,12.82 324.391,13.012 324.82,11.336 C325.656,11.367 326.523,11.535 326.523,12.184 C326.523,12.254 326.523,12.305 326.504,12.402 C326.461,12.562 326.453,12.672 326.453,12.754 C326.453,13.34 326.852,13.738 327.371,13.738 C327.688,13.738 327.945,13.559 328.148,13.219 C328.395,12.801 328.516,12.203 328.516,12.203 z M328.516,12.203" fill="#000000"/>
    <path d="M332.332,13.855 L332.094,13.855 C332.074,14.008 332.004,14.418 331.914,14.488 C331.859,14.531 331.32,14.531 331.223,14.531 L329.941,14.531 C330.672,13.883 330.918,13.688 331.336,13.359 C331.852,12.945 332.332,12.516 332.332,11.852 C332.332,11.008 331.594,10.492 330.699,10.492 C329.836,10.492 329.25,11.098 329.25,11.742 C329.25,12.098 329.551,12.133 329.617,12.133 C329.785,12.133 329.988,12.012 329.988,11.762 C329.988,11.637 329.941,11.391 329.578,11.391 C329.793,10.898 330.27,10.742 330.594,10.742 C331.293,10.742 331.656,11.289 331.656,11.852 C331.656,12.461 331.223,12.941 331,13.191 L329.32,14.852 C329.25,14.914 329.25,14.93 329.25,15.125 L332.121,15.125 z M332.332,13.855" fill="#000000"/>
    <path d="M243.336,12.891 L279.105,12.891" fill-opacity="0" stroke="#666666" stroke-width="0.75"/>
    <path d="M279.105,15.141 L285.105,12.891 L279.105,10.641 M279.105,12.891 L285.105,12.891" fill-opacity="0" stroke="#666666" stroke-width="0.75"/>
    <g>
      <path d="M55.947,43.319 L55.947,42.241 L52.103,42.241 L52.103,48.413 L53.322,48.413 L53.322,45.726 L55.712,45.726 L55.712,44.647 L53.322,44.647 L53.322,43.319 z M55.947,43.319" fill="#000000"/>
      <path d="M57.373,43.788 L57.373,44.71 L58.545,44.71 L58.545,47.476 L57.045,47.476 L57.045,48.413 L61.263,48.413 L61.263,47.476 L59.763,47.476 L59.763,43.788 z M58.545,41.522 L58.545,42.944 L59.763,42.944 L59.763,41.522 z M58.545,41.522" fill="#000000"/>
      <path d="M64.861,46.022 C64.861,46.866 64.518,47.397 64.018,47.397 C63.502,47.397 63.174,46.866 63.174,46.022 C63.174,45.179 63.502,44.647 64.018,44.647 C64.518,44.647 64.861,45.21 64.861,46.022 z M66.08,48.069 L66.08,43.788 L64.861,43.788 L64.861,44.366 C64.627,43.929 64.205,43.663 63.674,43.663 C63.143,43.663 62.736,43.866 62.424,44.304 C62.111,44.741 61.955,45.319 61.955,46.054 C61.955,47.476 62.627,48.351 63.689,48.351 C64.252,48.351 64.627,48.147 64.861,47.694 L64.861,48.194 C64.861,48.882 64.549,49.194 63.877,49.194 C63.361,49.194 62.908,49.069 62.439,48.835 L62.439,49.944 C62.939,50.101 63.439,50.163 63.939,50.163 C65.455,50.163 66.08,49.554 66.08,48.069 z M66.08,48.069" fill="#000000"/>
      <path d="M67.303,46.788 C67.303,47.944 67.772,48.538 68.647,48.538 C69.225,48.538 69.647,48.241 69.819,47.726 L69.819,48.413 L71.037,48.413 L71.037,43.788 L69.819,43.788 L69.819,46.444 C69.819,47.147 69.569,47.538 69.131,47.538 C68.694,47.538 68.522,47.272 68.522,46.616 L68.522,43.788 L67.303,43.788 z M67.303,46.788" fill="#000000"/>
      <path d="M76.51,45.054 L76.51,43.913 C76.229,43.741 75.901,43.663 75.557,43.663 C74.917,43.663 74.401,43.96 74.151,44.507 L74.151,43.788 L72.948,43.788 L72.948,48.413 L74.151,48.413 L74.151,46.272 C74.151,45.663 74.198,45.429 74.338,45.226 C74.542,44.882 74.948,44.694 75.448,44.694 C75.885,44.694 76.245,44.819 76.51,45.054 z M76.51,45.054" fill="#000000"/>
      <path d="M81.405,48.179 L81.405,47.069 C80.811,47.429 80.28,47.569 79.733,47.569 C78.889,47.569 78.468,47.21 78.452,46.491 L81.593,46.491 L81.593,46.007 C81.593,44.522 80.811,43.663 79.421,43.663 C78.749,43.663 78.218,43.897 77.811,44.335 C77.421,44.757 77.218,45.366 77.218,46.116 C77.218,47.679 78.061,48.538 79.608,48.538 C80.264,48.538 80.827,48.429 81.405,48.179 z M80.374,45.585 L78.468,45.585 C78.53,44.96 78.874,44.616 79.421,44.616 C80.046,44.616 80.358,44.944 80.374,45.585 z M80.374,45.585" fill="#000000"/>
    </g>
    <g>
      <path d="M89.913,43.601 L89.913,46.038 L88.351,46.038 z M89.804,42.241 L87.46,45.897 L87.46,47.085 L89.913,47.085 L89.913,48.413 L91.085,48.413 L91.085,47.085 L91.757,47.085 L91.757,46.038 L91.085,46.038 L91.085,42.241 z M89.804,42.241" fill="#000000"/>
      <path d="M93.996,46.897 L93.996,48.413 L95.371,48.413 L95.371,46.897 z M93.996,46.897" fill="#000000"/>
      <path d="M99.031,47.335 C99.234,47.132 99.516,46.835 99.875,46.476 C100.531,45.835 100.937,45.413 101.078,45.226 C101.484,44.71 101.625,44.319 101.625,43.835 C101.625,42.788 100.828,42.132 99.516,42.132 C99,42.132 98.422,42.241 97.844,42.46 L97.844,43.601 C98.422,43.257 98.984,43.085 99.422,43.085 C100.031,43.085 100.391,43.397 100.391,43.944 C100.391,44.319 100.219,44.647 99.797,45.132 C99.625,45.319 99.156,45.835 98.375,46.663 L97.703,47.366 L97.703,48.413 L101.625,48.413 L101.625,47.335 z M99.031,47.335" fill="#000000"/>
    </g>
    <path d="M108.68,45.366 L108.68,46.569 L111.289,46.569 L111.289,45.366 z M108.68,45.366" fill="#000000"/>
    <g>
      <path d="M118.407,48.116 C119.126,48.397 119.845,48.538 120.517,48.538 C122.032,48.538 122.813,47.929 122.813,46.726 C122.813,45.851 122.376,45.366 121.251,45.038 L120.485,44.804 C119.938,44.647 119.579,44.476 119.392,44.304 C119.22,44.132 119.142,43.913 119.142,43.616 C119.142,42.929 119.61,42.569 120.485,42.569 C121.47,42.569 121.938,42.929 122.032,43.804 L122.501,43.804 L122.501,42.491 C121.72,42.257 121.032,42.132 120.47,42.132 C119.11,42.132 118.345,42.726 118.345,43.788 C118.345,44.241 118.454,44.616 118.688,44.882 C118.938,45.147 119.36,45.366 119.954,45.554 L120.767,45.804 C121.267,45.944 121.595,46.101 121.735,46.257 C121.907,46.429 121.985,46.647 121.985,46.944 C121.985,47.694 121.454,48.085 120.47,48.085 C119.423,48.085 118.907,47.647 118.892,46.71 L118.407,46.71 z M118.407,48.116" fill="#000000"/>
      <path d="M126.427,44.022 L126.427,44.46 L127.083,44.46 L127.083,46.46 C127.083,47.444 126.708,47.976 126.005,47.976 C125.677,47.976 125.427,47.866 125.302,47.679 C125.177,47.476 125.099,47.116 125.099,46.569 L125.099,44.022 L123.661,44.022 L123.661,44.46 L124.349,44.46 L124.349,46.819 C124.349,47.991 124.786,48.538 125.771,48.538 C126.349,48.538 126.802,48.226 127.083,47.632 L127.083,48.413 L128.567,48.413 L128.567,47.976 L127.849,47.976 L127.849,44.022 z M126.427,44.022" fill="#000000"/>
      <path d="M133.24,47.085 L132.63,47.085 C132.474,47.772 132.083,48.132 131.443,48.132 C130.615,48.132 130.193,47.491 130.193,46.21 C130.193,44.944 130.615,44.304 131.443,44.304 C132.162,44.304 132.537,44.647 132.646,45.413 L133.083,45.413 L133.083,44.288 C132.537,44.022 131.974,43.897 131.427,43.897 C130.787,43.897 130.271,44.116 129.88,44.538 C129.505,44.944 129.302,45.507 129.302,46.21 C129.302,46.913 129.505,47.476 129.88,47.897 C130.271,48.319 130.787,48.538 131.427,48.538 C132.396,48.538 133.021,48.038 133.24,47.085 z M133.24,47.085" fill="#000000"/>
      <path d="M137.982,47.085 L137.373,47.085 C137.216,47.772 136.826,48.132 136.185,48.132 C135.357,48.132 134.935,47.491 134.935,46.21 C134.935,44.944 135.357,44.304 136.185,44.304 C136.904,44.304 137.279,44.647 137.388,45.413 L137.826,45.413 L137.826,44.288 C137.279,44.022 136.716,43.897 136.169,43.897 C135.529,43.897 135.013,44.116 134.623,44.538 C134.248,44.944 134.044,45.507 134.044,46.21 C134.044,46.913 134.248,47.476 134.623,47.897 C135.013,48.319 135.529,48.538 136.169,48.538 C137.138,48.538 137.763,48.038 137.982,47.085 z M137.982,47.085" fill="#000000"/>
      <path d="M142.959,46.288 C142.927,44.741 142.209,43.897 140.865,43.897 C140.255,43.897 139.74,44.116 139.365,44.538 C138.99,44.96 138.787,45.522 138.787,46.21 C138.787,46.913 138.99,47.476 139.365,47.897 C139.755,48.319 140.271,48.538 140.927,48.538 C141.974,48.538 142.646,48.038 142.88,47.085 L142.271,47.085 C142.099,47.772 141.662,48.132 141.005,48.132 C140.13,48.132 139.677,47.522 139.677,46.335 L139.677,46.288 z M142.052,45.851 L139.677,45.851 C139.771,44.835 140.162,44.304 140.865,44.304 C141.615,44.304 142.021,44.835 142.052,45.851 z M142.052,45.851" fill="#000000"/>
      <path d="M143.847,48.163 C144.394,48.413 144.925,48.538 145.503,48.538 C146.612,48.538 147.284,48.038 147.284,47.194 C147.284,46.585 146.956,46.226 146.112,45.96 L145.519,45.772 C144.769,45.538 144.581,45.351 144.581,44.976 C144.581,44.538 144.909,44.304 145.55,44.304 C146.191,44.304 146.581,44.647 146.612,45.21 L147.05,45.21 L147.05,44.257 C146.519,44.022 145.987,43.897 145.534,43.897 C144.487,43.897 143.862,44.382 143.862,45.179 C143.862,45.757 144.175,46.085 144.941,46.335 L145.487,46.522 C145.909,46.663 146.191,46.788 146.316,46.913 C146.441,47.022 146.519,47.179 146.519,47.366 C146.519,47.851 146.144,48.132 145.456,48.132 C144.706,48.132 144.316,47.788 144.3,47.147 L143.847,47.147 z M143.847,48.163" fill="#000000"/>
      <path d="M148.191,48.163 C148.738,48.413 149.269,48.538 149.847,48.538 C150.957,48.538 151.629,48.038 151.629,47.194 C151.629,46.585 151.3,46.226 150.457,45.96 L149.863,45.772 C149.113,45.538 148.925,45.351 148.925,44.976 C148.925,44.538 149.254,44.304 149.894,44.304 C150.535,44.304 150.925,44.647 150.957,45.21 L151.394,45.21 L151.394,44.257 C150.863,44.022 150.332,43.897 149.879,43.897 C148.832,43.897 148.207,44.382 148.207,45.179 C148.207,45.757 148.519,46.085 149.285,46.335 L149.832,46.522 C150.254,46.663 150.535,46.788 150.66,46.913 C150.785,47.022 150.863,47.179 150.863,47.366 C150.863,47.851 150.488,48.132 149.8,48.132 C149.05,48.132 148.66,47.788 148.644,47.147 L148.191,47.147 z M148.191,48.163" fill="#000000"/>
      <path d="M152.895,42.647 C152.895,42.913 153.098,43.116 153.363,43.116 C153.629,43.116 153.832,42.913 153.832,42.647 C153.832,42.397 153.613,42.179 153.363,42.179 C153.098,42.179 152.895,42.397 152.895,42.647 z M153.863,47.976 L153.863,44.022 L152.379,44.022 L152.379,44.46 L153.098,44.46 L153.098,47.976 L152.379,47.976 L152.379,48.413 L154.582,48.413 L154.582,47.976 z M153.863,47.976" fill="#000000"/>
      <path d="M157.323,48.132 C156.511,48.132 156.089,47.476 156.089,46.21 C156.089,44.96 156.511,44.304 157.323,44.304 C158.136,44.304 158.558,44.96 158.558,46.21 C158.558,47.476 158.136,48.132 157.323,48.132 z M157.323,48.538 C157.964,48.538 158.48,48.319 158.87,47.897 C159.261,47.476 159.448,46.913 159.448,46.21 C159.448,45.507 159.261,44.944 158.87,44.538 C158.48,44.116 157.964,43.897 157.323,43.897 C156.683,43.897 156.167,44.116 155.776,44.538 C155.401,44.944 155.198,45.507 155.198,46.21 C155.198,46.913 155.401,47.476 155.776,47.897 C156.167,48.319 156.683,48.538 157.323,48.538 z M157.323,48.538" fill="#000000"/>
      <path d="M160.218,48.413 L162.327,48.413 L162.327,47.976 L161.671,47.976 L161.671,45.96 C161.671,44.976 162.046,44.444 162.749,44.444 C163.421,44.444 163.656,44.772 163.656,45.851 L163.656,47.976 L162.984,47.976 L162.984,48.413 L165.093,48.413 L165.093,47.976 L164.421,47.976 L164.421,45.616 C164.421,44.429 163.968,43.897 162.999,43.897 C162.406,43.897 161.952,44.21 161.671,44.804 L161.671,44.022 L160.187,44.022 L160.187,44.46 L160.906,44.46 L160.906,47.976 L160.218,47.976 z M160.218,48.413" fill="#000000"/>
    </g>
    <g>
      <path d="M170.568,48.132 C169.755,48.132 169.333,47.476 169.333,46.21 C169.333,44.96 169.755,44.304 170.568,44.304 C171.38,44.304 171.802,44.96 171.802,46.21 C171.802,47.476 171.38,48.132 170.568,48.132 z M170.568,48.538 C171.208,48.538 171.724,48.319 172.115,47.897 C172.505,47.476 172.693,46.913 172.693,46.21 C172.693,45.507 172.505,44.944 172.115,44.538 C171.724,44.116 171.208,43.897 170.568,43.897 C169.927,43.897 169.411,44.116 169.021,44.538 C168.646,44.944 168.443,45.507 168.443,46.21 C168.443,46.913 168.646,47.476 169.021,47.897 C169.411,48.319 169.927,48.538 170.568,48.538 z M170.568,48.538" fill="#000000"/>
      <path d="M176.759,43.022 L176.759,42.179 C176.4,42.038 176.025,41.976 175.666,41.976 C174.666,41.976 174.15,42.491 174.15,43.46 L174.15,44.022 L173.431,44.022 L173.431,44.46 L174.15,44.46 L174.15,47.976 L173.431,47.976 L173.431,48.413 L175.884,48.413 L175.884,47.976 L174.916,47.976 L174.916,44.46 L176.134,44.46 L176.134,44.022 L174.916,44.022 L174.916,43.444 C174.916,42.647 175.119,42.382 175.681,42.382 C176.119,42.382 176.353,42.601 176.369,43.022 z M176.759,43.022" fill="#000000"/>
    </g>
    <g>
      <path d="M179.867,44.46 L179.867,47.257 C179.867,48.179 180.179,48.538 181.07,48.538 C181.867,48.538 182.242,48.179 182.289,47.382 L181.711,47.382 C181.695,47.897 181.523,48.132 181.132,48.132 C180.929,48.132 180.804,48.069 180.726,47.976 C180.648,47.866 180.617,47.632 180.617,47.257 L180.617,44.46 L182.054,44.46 L182.054,44.022 L180.617,44.022 L180.617,42.647 L179.867,42.647 L179.867,44.022 L179.195,44.022 L179.195,44.46 z M179.867,44.46" fill="#000000"/>
      <path d="M182.693,48.413 L184.802,48.413 L184.802,47.976 L184.146,47.976 L184.146,45.96 C184.146,44.976 184.521,44.46 185.224,44.46 C185.552,44.46 185.802,44.554 185.927,44.757 C186.052,44.944 186.13,45.319 186.13,45.851 L186.13,47.976 L185.459,47.976 L185.459,48.413 L187.568,48.413 L187.568,47.976 L186.896,47.976 L186.896,45.616 C186.896,44.429 186.443,43.897 185.474,43.897 C184.88,43.897 184.427,44.21 184.146,44.804 L184.146,41.976 L182.662,41.976 L182.662,42.413 L183.38,42.413 L183.38,47.976 L182.693,47.976 z M182.693,48.413" fill="#000000"/>
      <path d="M192.397,46.288 C192.365,44.741 191.647,43.897 190.303,43.897 C189.693,43.897 189.178,44.116 188.803,44.538 C188.428,44.96 188.225,45.522 188.225,46.21 C188.225,46.913 188.428,47.476 188.803,47.897 C189.193,48.319 189.709,48.538 190.365,48.538 C191.412,48.538 192.084,48.038 192.318,47.085 L191.709,47.085 C191.537,47.772 191.1,48.132 190.443,48.132 C189.568,48.132 189.115,47.522 189.115,46.335 L189.115,46.288 z M191.49,45.851 L189.115,45.851 C189.209,44.835 189.6,44.304 190.303,44.304 C191.053,44.304 191.459,44.835 191.49,45.851 z M191.49,45.851" fill="#000000"/>
    </g>
    <g>
      <path d="M199.962,47.976 L199.962,41.976 L198.478,41.976 L198.478,42.413 L199.196,42.413 L199.196,44.71 C198.9,44.147 198.446,43.897 197.775,43.897 C197.228,43.897 196.79,44.116 196.446,44.538 C196.103,44.96 195.931,45.522 195.931,46.21 C195.931,46.897 196.103,47.46 196.446,47.882 C196.79,48.319 197.228,48.538 197.775,48.538 C198.446,48.538 198.9,48.272 199.196,47.726 L199.196,48.413 L200.681,48.413 L200.681,47.976 z M199.196,46.429 C199.196,47.491 198.775,48.054 198.009,48.054 C197.228,48.054 196.821,47.429 196.821,46.21 C196.821,44.991 197.228,44.366 198.009,44.366 C198.775,44.366 199.196,44.944 199.196,46.007 z M199.196,46.429" fill="#000000"/>
      <path d="M205.522,46.288 C205.491,44.741 204.772,43.897 203.429,43.897 C202.819,43.897 202.304,44.116 201.929,44.538 C201.554,44.96 201.351,45.522 201.351,46.21 C201.351,46.913 201.554,47.476 201.929,47.897 C202.319,48.319 202.835,48.538 203.491,48.538 C204.538,48.538 205.21,48.038 205.444,47.085 L204.835,47.085 C204.663,47.772 204.226,48.132 203.569,48.132 C202.694,48.132 202.241,47.522 202.241,46.335 L202.241,46.288 z M204.616,45.851 L202.241,45.851 C202.335,44.835 202.726,44.304 203.429,44.304 C204.179,44.304 204.585,44.835 204.616,45.851 z M204.616,45.851" fill="#000000"/>
      <path d="M210.395,44.46 L211.114,44.46 L211.114,44.022 L209.629,44.022 L209.629,44.71 C209.333,44.147 208.879,43.897 208.208,43.897 C207.661,43.897 207.223,44.116 206.879,44.538 C206.536,44.96 206.364,45.522 206.364,46.21 C206.364,46.897 206.536,47.46 206.879,47.882 C207.223,48.319 207.661,48.538 208.208,48.538 C208.879,48.538 209.333,48.272 209.629,47.726 L209.629,48.319 C209.629,49.397 209.223,49.882 208.333,49.882 C207.645,49.882 207.286,49.632 207.192,49.054 L206.786,49.054 L206.786,49.976 C207.27,50.194 207.801,50.288 208.379,50.288 C209.661,50.288 210.395,49.585 210.395,48.319 z M209.629,46.007 L209.629,46.429 C209.629,47.491 209.208,48.054 208.442,48.054 C207.661,48.054 207.254,47.429 207.254,46.21 C207.254,44.991 207.661,44.366 208.442,44.366 C209.208,44.366 209.629,44.944 209.629,46.007 z M209.629,46.007" fill="#000000"/>
      <path d="M215.408,44.007 C215.112,43.944 214.83,43.897 214.596,43.897 C213.908,43.897 213.455,44.194 213.158,44.804 L213.158,44.022 L211.674,44.022 L211.674,44.444 L212.393,44.444 L212.393,47.976 L211.705,47.976 L211.705,48.413 L214.033,48.413 L214.033,47.976 L213.158,47.976 L213.158,45.96 C213.158,44.991 213.565,44.46 214.315,44.46 C214.737,44.46 214.94,44.663 214.971,45.116 L215.408,45.116 z M215.408,44.007" fill="#000000"/>
      <path d="M220.003,46.288 C219.972,44.741 219.253,43.897 217.909,43.897 C217.3,43.897 216.784,44.116 216.409,44.538 C216.034,44.96 215.831,45.522 215.831,46.21 C215.831,46.913 216.034,47.476 216.409,47.897 C216.8,48.319 217.316,48.538 217.972,48.538 C219.019,48.538 219.691,48.038 219.925,47.085 L219.316,47.085 C219.144,47.772 218.706,48.132 218.05,48.132 C217.175,48.132 216.722,47.522 216.722,46.335 L216.722,46.288 z M219.097,45.851 L216.722,45.851 C216.816,44.835 217.206,44.304 217.909,44.304 C218.659,44.304 219.066,44.835 219.097,45.851 z M219.097,45.851" fill="#000000"/>
      <path d="M225.016,46.288 C224.985,44.741 224.266,43.897 222.923,43.897 C222.313,43.897 221.798,44.116 221.423,44.538 C221.048,44.96 220.845,45.522 220.845,46.21 C220.845,46.913 221.048,47.476 221.423,47.897 C221.813,48.319 222.329,48.538 222.985,48.538 C224.032,48.538 224.704,48.038 224.938,47.085 L224.329,47.085 C224.157,47.772 223.72,48.132 223.063,48.132 C222.188,48.132 221.735,47.522 221.735,46.335 L221.735,46.288 z M224.11,45.851 L221.735,45.851 C221.829,44.835 222.22,44.304 222.923,44.304 C223.673,44.304 224.079,44.835 224.11,45.851 z M224.11,45.851" fill="#000000"/>
      <path d="M225.905,48.163 C226.452,48.413 226.983,48.538 227.561,48.538 C228.67,48.538 229.342,48.038 229.342,47.194 C229.342,46.585 229.014,46.226 228.17,45.96 L227.577,45.772 C226.827,45.538 226.639,45.351 226.639,44.976 C226.639,44.538 226.967,44.304 227.608,44.304 C228.248,44.304 228.639,44.647 228.67,45.21 L229.108,45.21 L229.108,44.257 C228.577,44.022 228.045,43.897 227.592,43.897 C226.545,43.897 225.92,44.382 225.92,45.179 C225.92,45.757 226.233,46.085 226.998,46.335 L227.545,46.522 C227.967,46.663 228.248,46.788 228.373,46.913 C228.498,47.022 228.577,47.179 228.577,47.366 C228.577,47.851 228.202,48.132 227.514,48.132 C226.764,48.132 226.373,47.788 226.358,47.147 L225.905,47.147 z M225.905,48.163" fill="#000000"/>
    </g>
    <g>
      <path d="M235.02,48.132 C234.207,48.132 233.786,47.476 233.786,46.21 C233.786,44.96 234.207,44.304 235.02,44.304 C235.832,44.304 236.254,44.96 236.254,46.21 C236.254,47.476 235.832,48.132 235.02,48.132 z M235.02,48.538 C235.661,48.538 236.176,48.319 236.567,47.897 C236.957,47.476 237.145,46.913 237.145,46.21 C237.145,45.507 236.957,44.944 236.567,44.538 C236.176,44.116 235.661,43.897 235.02,43.897 C234.379,43.897 233.864,44.116 233.473,44.538 C233.098,44.944 232.895,45.507 232.895,46.21 C232.895,46.913 233.098,47.476 233.473,47.897 C233.864,48.319 234.379,48.538 235.02,48.538 z M235.02,48.538" fill="#000000"/>
      <path d="M241.212,43.022 L241.212,42.179 C240.852,42.038 240.477,41.976 240.118,41.976 C239.118,41.976 238.602,42.491 238.602,43.46 L238.602,44.022 L237.883,44.022 L237.883,44.46 L238.602,44.46 L238.602,47.976 L237.883,47.976 L237.883,48.413 L240.337,48.413 L240.337,47.976 L239.368,47.976 L239.368,44.46 L240.587,44.46 L240.587,44.022 L239.368,44.022 L239.368,43.444 C239.368,42.647 239.571,42.382 240.133,42.382 C240.571,42.382 240.805,42.601 240.821,43.022 z M241.212,43.022" fill="#000000"/>
    </g>
    <g>
      <path d="M247.038,43.022 L247.038,42.179 C246.678,42.038 246.303,41.976 245.944,41.976 C244.944,41.976 244.428,42.491 244.428,43.46 L244.428,44.022 L243.71,44.022 L243.71,44.46 L244.428,44.46 L244.428,47.976 L243.71,47.976 L243.71,48.413 L246.163,48.413 L246.163,47.976 L245.194,47.976 L245.194,44.46 L246.413,44.46 L246.413,44.022 L245.194,44.022 L245.194,43.444 C245.194,42.647 245.397,42.382 245.96,42.382 C246.397,42.382 246.632,42.601 246.647,43.022 z M247.038,43.022" fill="#000000"/>
      <path d="M250.577,44.007 C250.28,43.944 249.999,43.897 249.765,43.897 C249.077,43.897 248.624,44.194 248.327,44.804 L248.327,44.022 L246.843,44.022 L246.843,44.444 L247.562,44.444 L247.562,47.976 L246.874,47.976 L246.874,48.413 L249.202,48.413 L249.202,47.976 L248.327,47.976 L248.327,45.96 C248.327,44.991 248.734,44.46 249.484,44.46 C249.905,44.46 250.109,44.663 250.14,45.116 L250.577,45.116 z M250.577,44.007" fill="#000000"/>
      <path d="M255.172,46.288 C255.141,44.741 254.422,43.897 253.078,43.897 C252.469,43.897 251.953,44.116 251.578,44.538 C251.203,44.96 251,45.522 251,46.21 C251,46.913 251.203,47.476 251.578,47.897 C251.969,48.319 252.485,48.538 253.141,48.538 C254.188,48.538 254.86,48.038 255.094,47.085 L254.485,47.085 C254.313,47.772 253.875,48.132 253.219,48.132 C252.344,48.132 251.891,47.522 251.891,46.335 L251.891,46.288 z M254.266,45.851 L251.891,45.851 C251.985,44.835 252.375,44.304 253.078,44.304 C253.828,44.304 254.235,44.835 254.266,45.851 z M254.266,45.851" fill="#000000"/>
      <path d="M260.185,46.288 C260.154,44.741 259.435,43.897 258.092,43.897 C257.482,43.897 256.967,44.116 256.592,44.538 C256.217,44.96 256.013,45.522 256.013,46.21 C256.013,46.913 256.217,47.476 256.592,47.897 C256.982,48.319 257.498,48.538 258.154,48.538 C259.201,48.538 259.873,48.038 260.107,47.085 L259.498,47.085 C259.326,47.772 258.888,48.132 258.232,48.132 C257.357,48.132 256.904,47.522 256.904,46.335 L256.904,46.288 z M259.279,45.851 L256.904,45.851 C256.998,44.835 257.388,44.304 258.092,44.304 C258.842,44.304 259.248,44.835 259.279,45.851 z M259.279,45.851" fill="#000000"/>
      <path d="M265.058,47.976 L265.058,41.976 L263.574,41.976 L263.574,42.413 L264.292,42.413 L264.292,44.71 C263.995,44.147 263.542,43.897 262.87,43.897 C262.324,43.897 261.886,44.116 261.542,44.538 C261.199,44.96 261.027,45.522 261.027,46.21 C261.027,46.897 261.199,47.46 261.542,47.882 C261.886,48.319 262.324,48.538 262.87,48.538 C263.542,48.538 263.995,48.272 264.292,47.726 L264.292,48.413 L265.777,48.413 L265.777,47.976 z M264.292,46.429 C264.292,47.491 263.87,48.054 263.105,48.054 C262.324,48.054 261.917,47.429 261.917,46.21 C261.917,44.991 262.324,44.366 263.105,44.366 C263.87,44.366 264.292,44.944 264.292,46.007 z M264.292,46.429" fill="#000000"/>
      <path d="M268.571,48.132 C267.759,48.132 267.337,47.476 267.337,46.21 C267.337,44.96 267.759,44.304 268.571,44.304 C269.384,44.304 269.806,44.96 269.806,46.21 C269.806,47.476 269.384,48.132 268.571,48.132 z M268.571,48.538 C269.212,48.538 269.728,48.319 270.118,47.897 C270.509,47.476 270.696,46.913 270.696,46.21 C270.696,45.507 270.509,44.944 270.118,44.538 C269.728,44.116 269.212,43.897 268.571,43.897 C267.931,43.897 267.415,44.116 267.025,44.538 C266.65,44.944 266.446,45.507 266.446,46.21 C266.446,46.913 266.65,47.476 267.025,47.897 C267.415,48.319 267.931,48.538 268.571,48.538 z M268.571,48.538" fill="#000000"/>
      <path d="M275.513,44.866 C275.341,44.257 274.872,43.897 274.201,43.897 C273.654,43.897 273.201,44.21 272.919,44.804 L272.919,44.022 L271.435,44.022 L271.435,44.444 L272.154,44.444 L272.154,47.976 L271.466,47.976 L271.466,48.413 L273.576,48.413 L273.576,47.976 L272.919,47.976 L272.919,45.96 C272.919,44.976 273.279,44.46 273.966,44.46 C274.576,44.46 274.81,44.804 274.81,45.679 L274.81,47.976 L274.154,47.976 L274.154,48.413 L276.232,48.413 L276.232,47.976 L275.576,47.976 L275.576,45.96 C275.576,44.976 275.935,44.46 276.622,44.46 C277.232,44.46 277.482,44.819 277.482,45.71 L277.482,47.976 L276.81,47.976 L276.81,48.413 L278.919,48.413 L278.919,47.976 L278.232,47.976 L278.232,45.616 C278.232,44.46 277.794,43.897 276.857,43.897 C276.263,43.897 275.81,44.226 275.513,44.866 z M275.513,44.866" fill="#000000"/>
      <path d="M279.947,47.976 C279.947,48.288 280.182,48.538 280.494,48.538 C280.807,48.538 281.041,48.288 281.041,47.976 C281.041,47.679 280.807,47.429 280.494,47.429 C280.182,47.429 279.947,47.679 279.947,47.976 z M279.947,47.976" fill="#000000"/>
    </g>
  </g>
</svg>
