<?xml version="1.0" encoding="UTF-8"?>
<!DOCTYPE svg PUBLIC "-//W3C//DTD SVG 1.1//EN" "http://www.w3.org/Graphics/SVG/1.1/DTD/svg11.dtd">
<svg version="1.1" xmlns="http://www.w3.org/2000/svg" xmlns:xlink="http://www.w3.org/1999/xlink" x="0" y="0" width="250" height="100" viewBox="0, 0, 250, 100">
  <g id="Background">
    <rect x="0" y="0" width="250" height="100" fill="#FFFFFF"/>
  </g>
  <g id="Background"/>
  <g id="Calque_1">
    <g>
      <path d="M53.29,79.436 L52.557,81.941 Q53.305,81.931 53.53,81.882 Q53.897,81.809 54.196,81.572 Q54.494,81.334 54.695,80.914 L54.885,80.914 L54.127,83.531 L53.931,83.531 Q53.98,83.277 53.98,83.125 Q53.98,82.822 53.856,82.641 Q53.731,82.46 53.535,82.394 Q53.339,82.328 52.459,82.308 L51.862,84.378 L51.744,84.793 Q51.72,84.916 51.72,85.033 Q51.72,85.204 51.786,85.302 Q51.852,85.4 51.999,85.456 Q52.146,85.513 52.557,85.518 L52.503,85.699 L49.19,85.699 L49.244,85.518 Q49.724,85.518 49.944,85.339 Q50.164,85.16 50.34,84.559 L51.524,80.498 Q51.71,79.857 51.72,79.676 Q51.71,79.505 51.563,79.385 Q51.417,79.265 50.962,79.245 L51.011,79.064 L56.431,79.064 L55.986,80.816 L55.805,80.816 Q55.776,80.268 55.634,80.001 Q55.492,79.735 55.167,79.585 Q54.841,79.436 54.127,79.436 z" fill="#000000"/>
      <path d="M58.101,78.913 Q58.405,78.913 58.613,79.123 Q58.82,79.333 58.82,79.632 Q58.82,79.93 58.61,80.141 Q58.4,80.351 58.101,80.351 Q57.808,80.351 57.597,80.141 Q57.387,79.93 57.387,79.632 Q57.387,79.333 57.595,79.123 Q57.803,78.913 58.101,78.913 z M58.405,81.163 L57.402,84.642 Q57.318,84.94 57.318,85.033 Q57.318,85.087 57.362,85.134 Q57.407,85.18 57.455,85.18 Q57.539,85.18 57.622,85.107 Q57.842,84.926 58.15,84.451 L58.317,84.549 Q57.578,85.836 56.746,85.836 Q56.428,85.836 56.24,85.657 Q56.051,85.478 56.051,85.204 Q56.051,85.023 56.134,84.745 L56.815,82.406 Q56.912,82.068 56.912,81.897 Q56.912,81.789 56.819,81.706 Q56.726,81.623 56.565,81.623 Q56.492,81.623 56.389,81.628 L56.452,81.432 L58.111,81.163 z" fill="#000000"/>
      <path d="M62.486,81.462 L63.788,81.462 L63.631,82 L62.956,82 Q63.113,82.288 63.113,82.548 Q63.113,82.993 62.87,83.37 Q62.628,83.746 62.156,83.972 Q61.684,84.197 61.107,84.197 Q60.955,84.197 60.772,84.175 Q60.588,84.153 60.373,84.113 Q60.05,84.28 59.967,84.378 Q59.908,84.446 59.908,84.519 Q59.908,84.608 59.981,84.671 Q60.109,84.784 60.358,84.838 Q61.356,85.053 61.674,85.185 Q62.11,85.366 62.332,85.65 Q62.555,85.933 62.555,86.335 Q62.555,86.946 61.992,87.404 Q61.43,87.861 60.25,87.861 Q59.062,87.861 58.499,87.47 Q58.093,87.186 58.093,86.795 Q58.093,86.496 58.36,86.242 Q58.626,85.987 59.502,85.792 Q59.203,85.625 59.101,85.488 Q58.959,85.302 58.959,85.102 Q58.959,84.774 59.221,84.524 Q59.482,84.275 60.099,84.03 Q59.619,83.839 59.407,83.539 Q59.194,83.238 59.194,82.836 Q59.194,82.411 59.451,82.027 Q59.707,81.643 60.209,81.403 Q60.71,81.163 61.361,81.163 Q61.777,81.163 62.1,81.256 Q62.266,81.305 62.486,81.462 z M61.464,81.403 Q61.224,81.403 61.058,81.559 Q60.794,81.799 60.595,82.362 Q60.397,82.925 60.397,83.428 Q60.397,83.668 60.537,83.808 Q60.676,83.947 60.882,83.947 Q61.082,83.947 61.229,83.81 Q61.508,83.541 61.713,82.951 Q61.919,82.362 61.919,81.882 Q61.919,81.667 61.787,81.535 Q61.655,81.403 61.464,81.403 z M59.776,85.904 Q59.311,86.085 59.142,86.296 Q58.974,86.506 58.974,86.751 Q58.974,87.069 59.309,87.325 Q59.644,87.582 60.378,87.582 Q60.989,87.582 61.263,87.36 Q61.537,87.137 61.537,86.839 Q61.537,86.574 61.285,86.408 Q61.033,86.242 60.319,86.061 Q59.986,85.973 59.776,85.904 z" fill="#000000"/>
      <path d="M66.3,81.163 L65.351,84.49 Q65.282,84.72 65.282,84.808 Q65.282,84.852 65.317,84.877 Q65.356,84.916 65.41,84.916 Q65.635,84.916 66.011,84.515 Q66.55,83.932 67.142,82.841 L67.587,81.344 L68.825,81.3 L67.885,84.529 Q67.768,84.94 67.768,84.999 Q67.768,85.038 67.805,85.08 Q67.841,85.121 67.88,85.121 Q67.949,85.121 68.012,85.063 Q68.189,84.921 68.477,84.49 L68.644,84.608 Q67.964,85.836 67.146,85.836 Q66.843,85.836 66.669,85.681 Q66.496,85.527 66.496,85.278 Q66.496,85.014 66.618,84.608 L66.858,83.781 Q66.222,84.705 65.933,85.028 Q65.493,85.513 65.192,85.674 Q64.891,85.836 64.617,85.836 Q64.358,85.836 64.169,85.645 Q63.981,85.454 63.981,85.16 Q63.981,84.911 64.103,84.49 L64.656,82.533 Q64.793,82.054 64.793,81.887 Q64.793,81.814 64.754,81.758 Q64.715,81.701 64.624,81.67 Q64.534,81.638 64.289,81.638 L64.338,81.452 L66.006,81.163 z" fill="#000000"/>
      <path d="M71.601,81.163 L70.862,83.913 Q71.772,81.902 72.232,81.437 Q72.501,81.163 72.8,81.163 Q73.005,81.163 73.132,81.312 Q73.26,81.462 73.26,81.736 Q73.26,82.21 73.03,82.533 Q72.883,82.739 72.702,82.739 Q72.506,82.739 72.408,82.558 Q72.31,82.377 72.271,82.345 Q72.232,82.313 72.188,82.313 Q72.139,82.313 72.085,82.342 Q71.978,82.401 71.804,82.629 Q71.63,82.856 71.376,83.389 Q71.122,83.923 70.98,84.292 Q70.838,84.661 70.583,85.699 L69.399,85.699 L70.207,82.455 Q70.295,82.093 70.295,81.975 Q70.295,81.843 70.248,81.77 Q70.202,81.696 70.121,81.662 Q70.04,81.628 69.786,81.628 L69.83,81.486 L71.307,81.163 z" fill="#000000"/>
      <path d="M74.71,83.864 Q74.666,84.182 74.666,84.387 Q74.666,84.754 74.879,84.975 Q75.092,85.195 75.449,85.195 Q75.791,85.195 76.136,85.028 Q76.481,84.862 76.936,84.446 L77.083,84.578 Q76.52,85.258 75.987,85.547 Q75.454,85.836 74.808,85.836 Q73.991,85.836 73.678,85.444 Q73.365,85.053 73.365,84.539 Q73.365,83.737 73.832,82.934 Q74.299,82.132 75.104,81.648 Q75.909,81.163 76.721,81.163 Q77.132,81.163 77.342,81.359 Q77.553,81.555 77.553,81.853 Q77.553,82.21 77.347,82.548 Q77.063,83.008 76.633,83.289 Q76.202,83.57 75.669,83.717 Q75.312,83.815 74.71,83.864 z M74.754,83.609 Q75.185,83.546 75.422,83.436 Q75.659,83.326 75.887,83.084 Q76.114,82.841 76.281,82.472 Q76.447,82.103 76.447,81.78 Q76.447,81.643 76.371,81.564 Q76.295,81.486 76.178,81.486 Q75.943,81.486 75.65,81.814 Q75.111,82.411 74.754,83.609 z" fill="#000000"/>
      <path d="M81.348,82.093 L81.411,81.882 Q82.091,81.785 82.507,81.594 Q83.065,81.349 83.319,81.021 Q83.574,80.693 83.574,80.317 Q83.574,79.994 83.344,79.764 Q83.114,79.534 82.771,79.534 Q82.502,79.534 82.272,79.676 Q82.043,79.818 81.773,80.17 L81.578,80.072 Q81.989,79.456 82.402,79.191 Q82.816,78.927 83.329,78.927 Q83.975,78.927 84.376,79.292 Q84.777,79.656 84.777,80.165 Q84.777,80.566 84.582,80.865 Q84.386,81.163 84.004,81.383 Q83.726,81.545 83.129,81.711 Q83.672,81.946 83.892,82.24 Q84.22,82.675 84.22,83.291 Q84.22,84.446 83.222,85.2 Q82.385,85.836 81.284,85.836 Q80.697,85.836 80.399,85.615 Q80.193,85.464 80.193,85.214 Q80.193,84.989 80.35,84.842 Q80.506,84.696 80.736,84.696 Q80.854,84.696 80.961,84.745 Q81.147,84.823 81.519,85.075 Q81.891,85.327 82.135,85.327 Q82.439,85.327 82.669,85.019 Q83.006,84.564 83.006,83.879 Q83.006,83.345 82.791,82.944 Q82.576,82.543 82.238,82.35 Q81.901,82.156 81.348,82.093 z" fill="#000000"/>
      <path d="M87.192,81.173 Q87.525,81.173 87.759,81.41 Q87.994,81.648 87.994,81.98 Q87.994,82.313 87.759,82.548 Q87.525,82.783 87.187,82.783 Q86.854,82.783 86.619,82.548 Q86.385,82.313 86.385,81.98 Q86.385,81.648 86.619,81.41 Q86.854,81.173 87.192,81.173 z M86.301,84.231 Q86.639,84.231 86.874,84.466 Q87.109,84.701 87.109,85.033 Q87.109,85.366 86.871,85.601 Q86.634,85.836 86.301,85.836 Q85.969,85.836 85.734,85.601 Q85.499,85.366 85.499,85.033 Q85.499,84.701 85.734,84.466 Q85.969,84.231 86.301,84.231 z" fill="#000000"/>
      <path d="M90.959,85.85 L91.507,83.389 L91.673,83.389 Q91.639,83.746 91.639,83.981 Q91.639,84.652 92.067,85.072 Q92.495,85.493 93.185,85.493 Q93.826,85.493 94.159,85.099 Q94.491,84.705 94.491,84.192 Q94.491,83.859 94.34,83.585 Q94.11,83.179 93.112,82.156 Q92.627,81.667 92.49,81.427 Q92.265,81.031 92.265,80.596 Q92.265,79.901 92.784,79.407 Q93.302,78.913 94.115,78.913 Q94.389,78.913 94.633,78.966 Q94.785,78.996 95.186,79.162 Q95.47,79.275 95.499,79.284 Q95.568,79.299 95.651,79.299 Q95.793,79.299 95.896,79.226 Q95.998,79.152 96.135,78.913 L96.321,78.913 L95.812,81.114 L95.646,81.114 Q95.666,80.821 95.666,80.64 Q95.666,80.048 95.274,79.671 Q94.883,79.294 94.242,79.294 Q93.733,79.294 93.415,79.593 Q93.097,79.891 93.097,80.283 Q93.097,80.625 93.3,80.936 Q93.503,81.246 94.235,81.948 Q94.966,82.651 95.181,83.044 Q95.396,83.438 95.396,83.883 Q95.396,84.387 95.13,84.86 Q94.863,85.332 94.364,85.591 Q93.865,85.85 93.273,85.85 Q92.98,85.85 92.725,85.796 Q92.471,85.743 91.913,85.532 Q91.722,85.459 91.595,85.459 Q91.306,85.459 91.145,85.85 z" fill="#000000"/>
      <path d="M99.785,84.632 Q99.277,85.244 98.758,85.53 Q98.239,85.816 97.662,85.816 Q96.967,85.816 96.578,85.425 Q96.189,85.033 96.189,84.373 Q96.189,83.624 96.608,82.9 Q97.026,82.176 97.733,81.723 Q98.44,81.271 99.12,81.271 Q99.653,81.271 99.918,81.493 Q100.182,81.716 100.182,82.039 Q100.182,82.342 99.996,82.558 Q99.859,82.724 99.658,82.724 Q99.507,82.724 99.406,82.626 Q99.306,82.528 99.306,82.381 Q99.306,82.288 99.343,82.21 Q99.379,82.132 99.494,82.022 Q99.609,81.912 99.634,81.863 Q99.658,81.814 99.658,81.76 Q99.658,81.657 99.565,81.589 Q99.423,81.491 99.164,81.491 Q98.685,81.491 98.215,81.829 Q97.745,82.166 97.413,82.788 Q97.011,83.541 97.011,84.294 Q97.011,84.793 97.295,85.085 Q97.579,85.376 98.068,85.376 Q98.445,85.376 98.814,85.187 Q99.184,84.999 99.644,84.505 z" fill="#000000"/>
      <path d="M103.238,78.741 L101.863,83.492 Q102.754,82.151 103.253,81.711 Q103.752,81.271 104.207,81.271 Q104.442,81.271 104.598,81.432 Q104.755,81.594 104.755,81.863 Q104.755,82.186 104.618,82.646 L104.021,84.696 Q103.908,85.067 103.908,85.107 Q103.908,85.175 103.95,85.219 Q103.992,85.263 104.045,85.263 Q104.109,85.263 104.192,85.2 Q104.471,84.984 104.745,84.603 L104.897,84.696 Q104.73,84.955 104.434,85.266 Q104.138,85.576 103.925,85.696 Q103.713,85.816 103.546,85.816 Q103.365,85.816 103.25,85.701 Q103.135,85.586 103.135,85.405 Q103.135,85.19 103.307,84.603 L103.869,82.646 Q103.977,82.279 103.977,82.068 Q103.977,81.97 103.916,81.912 Q103.855,81.853 103.757,81.853 Q103.615,81.853 103.434,81.961 Q103.101,82.166 102.666,82.724 Q102.548,82.876 101.883,83.947 Q101.677,84.29 101.545,84.696 L101.232,85.699 L100.498,85.699 L102.108,80.101 L102.279,79.495 Q102.279,79.368 102.174,79.27 Q102.069,79.172 101.917,79.172 Q101.829,79.172 101.648,79.201 L101.545,79.216 L101.545,79.025 z" fill="#000000"/>
      <path d="M106.516,83.854 Q106.482,84.099 106.482,84.26 Q106.482,84.696 106.79,85.001 Q107.099,85.307 107.539,85.307 Q107.891,85.307 108.217,85.163 Q108.542,85.019 109.183,84.524 L109.286,84.666 Q108.126,85.816 107.074,85.816 Q106.36,85.816 105.998,85.366 Q105.636,84.916 105.636,84.373 Q105.636,83.644 106.086,82.88 Q106.536,82.117 107.216,81.694 Q107.896,81.271 108.615,81.271 Q109.134,81.271 109.383,81.481 Q109.633,81.692 109.633,81.98 Q109.633,82.386 109.31,82.758 Q108.884,83.243 108.058,83.541 Q107.51,83.742 106.516,83.854 z M106.551,83.614 Q107.275,83.531 107.73,83.331 Q108.332,83.062 108.632,82.687 Q108.933,82.313 108.933,81.975 Q108.933,81.77 108.804,81.643 Q108.674,81.515 108.434,81.515 Q107.935,81.515 107.375,82.046 Q106.815,82.577 106.551,83.614 z" fill="#000000"/>
      <path d="M111.877,81.271 L111.241,83.477 Q111.667,82.699 111.965,82.308 Q112.43,81.701 112.87,81.427 Q113.13,81.271 113.413,81.271 Q113.658,81.271 113.819,81.427 Q113.981,81.584 113.981,81.829 Q113.981,82.068 113.868,82.455 L113.521,83.698 Q114.319,82.205 115.033,81.604 Q115.429,81.271 115.816,81.271 Q116.041,81.271 116.185,81.425 Q116.329,81.579 116.329,81.902 Q116.329,82.186 116.241,82.504 L115.703,84.407 Q115.527,85.028 115.527,85.097 Q115.527,85.165 115.571,85.214 Q115.6,85.248 115.649,85.248 Q115.698,85.248 115.821,85.156 Q116.099,84.94 116.344,84.588 L116.506,84.691 Q116.383,84.886 116.073,85.229 Q115.762,85.571 115.542,85.694 Q115.322,85.816 115.136,85.816 Q114.964,85.816 114.849,85.699 Q114.734,85.581 114.734,85.41 Q114.734,85.175 114.935,84.466 L115.38,82.895 Q115.532,82.352 115.542,82.293 Q115.556,82.2 115.556,82.112 Q115.556,81.99 115.503,81.922 Q115.444,81.853 115.37,81.853 Q115.165,81.853 114.935,82.063 Q114.26,82.685 113.673,83.805 Q113.286,84.544 112.949,85.699 L112.21,85.699 L113.046,82.739 Q113.183,82.259 113.183,82.098 Q113.183,81.966 113.13,81.902 Q113.076,81.838 112.998,81.838 Q112.836,81.838 112.655,81.956 Q112.362,82.147 111.899,82.773 Q111.437,83.399 111.182,83.972 Q111.06,84.241 110.6,85.699 L109.876,85.699 L110.781,82.528 L110.899,82.117 Q110.933,82.024 110.933,81.98 Q110.933,81.873 110.835,81.787 Q110.737,81.701 110.586,81.701 Q110.522,81.701 110.233,81.76 L110.189,81.579 z" fill="#000000"/>
      <path d="M118.15,83.854 Q118.116,84.099 118.116,84.26 Q118.116,84.696 118.424,85.001 Q118.732,85.307 119.172,85.307 Q119.525,85.307 119.85,85.163 Q120.175,85.019 120.816,84.524 L120.919,84.666 Q119.759,85.816 118.708,85.816 Q117.993,85.816 117.631,85.366 Q117.269,84.916 117.269,84.373 Q117.269,83.644 117.719,82.88 Q118.169,82.117 118.849,81.694 Q119.529,81.271 120.249,81.271 Q120.767,81.271 121.017,81.481 Q121.266,81.692 121.266,81.98 Q121.266,82.386 120.943,82.758 Q120.518,83.243 119.691,83.541 Q119.143,83.742 118.15,83.854 z M118.184,83.614 Q118.908,83.531 119.363,83.331 Q119.965,83.062 120.266,82.687 Q120.567,82.313 120.567,81.975 Q120.567,81.77 120.437,81.643 Q120.307,81.515 120.068,81.515 Q119.569,81.515 119.008,82.046 Q118.448,82.577 118.184,83.614 z" fill="#000000"/>
      <path d="M128.511,82.802 Q128.511,83.536 128.123,84.255 Q127.734,84.975 127.039,85.395 Q126.344,85.816 125.688,85.816 Q125.018,85.816 124.595,85.388 Q124.172,84.96 124.172,84.28 Q124.172,83.561 124.585,82.836 Q124.999,82.112 125.691,81.692 Q126.383,81.271 127.029,81.271 Q127.675,81.271 128.093,81.696 Q128.511,82.122 128.511,82.802 z M127.699,82.465 Q127.699,82.01 127.477,81.767 Q127.254,81.525 126.902,81.525 Q126.183,81.525 125.578,82.555 Q124.974,83.585 124.974,84.603 Q124.974,85.067 125.209,85.319 Q125.444,85.571 125.801,85.571 Q126.491,85.571 127.095,84.546 Q127.699,83.521 127.699,82.465 z" fill="#000000"/>
      <path d="M131.873,81.388 L131.785,81.711 L131.071,81.711 L130.532,83.849 Q130.175,85.263 129.813,86.036 Q129.3,87.127 128.708,87.543 Q128.257,87.861 127.807,87.861 Q127.514,87.861 127.308,87.685 Q127.157,87.563 127.157,87.367 Q127.157,87.21 127.281,87.095 Q127.406,86.98 127.587,86.98 Q127.719,86.98 127.81,87.064 Q127.9,87.147 127.9,87.254 Q127.9,87.362 127.798,87.455 Q127.719,87.524 127.719,87.558 Q127.719,87.602 127.753,87.626 Q127.798,87.661 127.89,87.661 Q128.101,87.661 128.333,87.528 Q128.566,87.396 128.747,87.135 Q128.928,86.873 129.089,86.379 Q129.158,86.173 129.456,85.023 L130.307,81.711 L129.456,81.711 L129.525,81.388 Q129.931,81.388 130.092,81.332 Q130.254,81.276 130.388,81.117 Q130.523,80.958 130.738,80.522 Q131.027,79.935 131.291,79.612 Q131.653,79.177 132.052,78.959 Q132.45,78.741 132.803,78.741 Q133.174,78.741 133.399,78.93 Q133.625,79.118 133.625,79.338 Q133.625,79.51 133.512,79.627 Q133.399,79.744 133.223,79.744 Q133.072,79.744 132.976,79.656 Q132.881,79.568 132.881,79.446 Q132.881,79.368 132.944,79.253 Q133.008,79.138 133.008,79.099 Q133.008,79.03 132.964,78.996 Q132.9,78.947 132.778,78.947 Q132.47,78.947 132.225,79.143 Q131.897,79.402 131.638,79.955 Q131.506,80.243 131.154,81.388 z" fill="#000000"/>
      <path d="M136.707,78.741 L135.743,82.122 Q136.212,81.633 136.562,81.452 Q136.912,81.271 137.294,81.271 Q137.832,81.271 138.174,81.628 Q138.517,81.985 138.517,82.597 Q138.517,83.384 138.067,84.165 Q137.617,84.945 136.937,85.381 Q136.256,85.816 135.596,85.816 Q134.857,85.816 134.079,85.263 L135.567,80.141 Q135.738,79.549 135.738,79.446 Q135.738,79.319 135.66,79.255 Q135.547,79.167 135.327,79.167 Q135.224,79.167 135.014,79.201 L135.014,79.015 z M134.813,85.317 Q135.302,85.586 135.674,85.586 Q136.105,85.586 136.567,85.271 Q137.03,84.955 137.37,84.206 Q137.71,83.458 137.71,82.695 Q137.71,82.244 137.487,81.99 Q137.264,81.736 136.961,81.736 Q136.506,81.736 136.071,82.1 Q135.635,82.465 135.449,83.115 z" fill="#000000"/>
      <path d="M140.401,83.854 Q140.367,84.099 140.367,84.26 Q140.367,84.696 140.675,85.001 Q140.983,85.307 141.423,85.307 Q141.776,85.307 142.101,85.163 Q142.426,85.019 143.067,84.524 L143.17,84.666 Q142.01,85.816 140.959,85.816 Q140.244,85.816 139.882,85.366 Q139.52,84.916 139.52,84.373 Q139.52,83.644 139.97,82.88 Q140.42,82.117 141.1,81.694 Q141.781,81.271 142.5,81.271 Q143.018,81.271 143.268,81.481 Q143.517,81.692 143.517,81.98 Q143.517,82.386 143.194,82.758 Q142.769,83.243 141.942,83.541 Q141.394,83.742 140.401,83.854 z M140.435,83.614 Q141.159,83.531 141.614,83.331 Q142.216,83.062 142.517,82.687 Q142.818,82.313 142.818,81.975 Q142.818,81.77 142.688,81.643 Q142.558,81.515 142.319,81.515 Q141.82,81.515 141.259,82.046 Q140.699,82.577 140.435,83.614 z" fill="#000000"/>
      <path d="M145.801,81.271 L145.15,83.497 Q146.065,82.132 146.552,81.701 Q147.039,81.271 147.489,81.271 Q147.733,81.271 147.892,81.432 Q148.051,81.594 148.051,81.853 Q148.051,82.147 147.909,82.636 L147.312,84.696 Q147.21,85.053 147.21,85.131 Q147.21,85.2 147.249,85.246 Q147.288,85.293 147.332,85.293 Q147.391,85.293 147.474,85.229 Q147.733,85.023 148.041,84.603 L148.193,84.696 Q147.738,85.346 147.332,85.625 Q147.048,85.816 146.823,85.816 Q146.642,85.816 146.535,85.706 Q146.427,85.596 146.427,85.41 Q146.427,85.175 146.593,84.603 L147.161,82.636 Q147.268,82.269 147.268,82.063 Q147.268,81.966 147.205,81.904 Q147.141,81.843 147.048,81.843 Q146.911,81.843 146.72,81.961 Q146.358,82.181 145.967,82.687 Q145.576,83.194 145.14,83.981 Q144.91,84.397 144.759,84.891 L144.514,85.699 L143.78,85.699 L144.671,82.636 Q144.827,82.083 144.827,81.97 Q144.827,81.863 144.741,81.782 Q144.656,81.701 144.529,81.701 Q144.47,81.701 144.323,81.721 L144.137,81.75 L144.108,81.574 z" fill="#000000"/>
      <path d="M153.985,78.741 L152.302,84.515 Q152.165,84.984 152.165,85.131 Q152.165,85.18 152.207,85.224 Q152.248,85.268 152.292,85.268 Q152.356,85.268 152.444,85.204 Q152.61,85.087 153.002,84.617 L153.168,84.72 Q152.816,85.209 152.456,85.513 Q152.097,85.816 151.783,85.816 Q151.617,85.816 151.509,85.699 Q151.402,85.581 151.402,85.366 Q151.402,85.087 151.549,84.617 L151.739,84.011 Q151.03,85.107 150.448,85.527 Q150.047,85.816 149.68,85.816 Q149.308,85.816 149.031,85.486 Q148.755,85.156 148.755,84.588 Q148.755,83.859 149.22,83.032 Q149.685,82.205 150.448,81.687 Q151.05,81.271 151.554,81.271 Q151.818,81.271 152.009,81.378 Q152.199,81.486 152.385,81.736 L152.865,80.033 Q152.919,79.852 152.953,79.744 Q153.011,79.549 153.011,79.421 Q153.011,79.319 152.938,79.25 Q152.835,79.167 152.674,79.167 Q152.561,79.167 152.302,79.201 L152.302,79.02 z M152.17,82.215 Q152.17,81.902 151.989,81.711 Q151.808,81.52 151.529,81.52 Q150.913,81.52 150.245,82.538 Q149.577,83.556 149.577,84.485 Q149.577,84.852 149.738,85.045 Q149.9,85.239 150.125,85.239 Q150.634,85.239 151.402,84.138 Q152.17,83.037 152.17,82.215 z" fill="#000000"/>
      <path d="M155.85,79.328 Q156.055,79.328 156.197,79.47 Q156.339,79.612 156.339,79.818 Q156.339,80.018 156.195,80.163 Q156.051,80.307 155.85,80.307 Q155.649,80.307 155.505,80.163 Q155.361,80.018 155.361,79.818 Q155.361,79.612 155.503,79.47 Q155.644,79.328 155.85,79.328 z M155.914,81.271 L154.945,84.701 Q154.847,85.048 154.847,85.116 Q154.847,85.195 154.893,85.244 Q154.94,85.293 155.004,85.293 Q155.077,85.293 155.18,85.214 Q155.459,84.994 155.742,84.588 L155.914,84.701 Q155.581,85.209 155.131,85.557 Q154.798,85.816 154.495,85.816 Q154.294,85.816 154.167,85.696 Q154.04,85.576 154.04,85.395 Q154.04,85.214 154.162,84.793 L154.798,82.602 Q154.955,82.063 154.955,81.926 Q154.955,81.819 154.879,81.75 Q154.803,81.682 154.671,81.682 Q154.563,81.682 154.226,81.736 L154.226,81.545 z" fill="#000000"/>
      <path d="M158.579,81.271 L157.929,83.497 Q158.844,82.132 159.33,81.701 Q159.817,81.271 160.267,81.271 Q160.512,81.271 160.671,81.432 Q160.83,81.594 160.83,81.853 Q160.83,82.147 160.688,82.636 L160.091,84.696 Q159.989,85.053 159.989,85.131 Q159.989,85.2 160.028,85.246 Q160.067,85.293 160.111,85.293 Q160.17,85.293 160.253,85.229 Q160.512,85.023 160.82,84.603 L160.972,84.696 Q160.517,85.346 160.111,85.625 Q159.827,85.816 159.602,85.816 Q159.421,85.816 159.313,85.706 Q159.206,85.596 159.206,85.41 Q159.206,85.175 159.372,84.603 L159.94,82.636 Q160.047,82.269 160.047,82.063 Q160.047,81.966 159.984,81.904 Q159.92,81.843 159.827,81.843 Q159.69,81.843 159.499,81.961 Q159.137,82.181 158.746,82.687 Q158.354,83.194 157.919,83.981 Q157.689,84.397 157.537,84.891 L157.293,85.699 L156.559,85.699 L157.449,82.636 Q157.606,82.083 157.606,81.97 Q157.606,81.863 157.52,81.782 Q157.435,81.701 157.307,81.701 Q157.249,81.701 157.102,81.721 L156.916,81.75 L156.887,81.574 z" fill="#000000"/>
      <path d="M166.563,81.574 L166.421,82.083 L165.604,82.083 Q165.697,82.347 165.697,82.577 Q165.697,83.223 165.149,83.727 Q164.596,84.231 163.633,84.285 Q163.114,84.441 162.855,84.656 Q162.757,84.735 162.757,84.818 Q162.757,84.916 162.845,84.997 Q162.933,85.077 163.29,85.16 L164.239,85.381 Q165.027,85.567 165.281,85.821 Q165.531,86.08 165.531,86.418 Q165.531,86.819 165.235,87.152 Q164.939,87.484 164.369,87.673 Q163.799,87.861 163.109,87.861 Q162.502,87.861 162.003,87.717 Q161.504,87.572 161.289,87.328 Q161.074,87.083 161.074,86.824 Q161.074,86.614 161.213,86.386 Q161.353,86.159 161.563,86.012 Q161.695,85.919 162.312,85.571 Q162.087,85.395 162.087,85.185 Q162.087,84.989 162.285,84.769 Q162.483,84.549 163.124,84.285 Q162.586,84.182 162.27,83.835 Q161.954,83.487 161.954,83.062 Q161.954,82.367 162.564,81.819 Q163.173,81.271 164.185,81.271 Q164.552,81.271 164.787,81.344 Q165.022,81.418 165.242,81.574 z M164.866,82.342 Q164.866,81.951 164.648,81.726 Q164.43,81.501 164.078,81.501 Q163.525,81.501 163.165,82.056 Q162.806,82.611 162.806,83.213 Q162.806,83.59 163.036,83.83 Q163.266,84.069 163.593,84.069 Q163.853,84.069 164.095,83.927 Q164.337,83.786 164.504,83.536 Q164.67,83.287 164.768,82.9 Q164.866,82.514 164.866,82.342 z M162.522,85.699 Q162.126,85.88 161.923,86.163 Q161.72,86.447 161.72,86.721 Q161.72,87.044 162.013,87.254 Q162.434,87.558 163.246,87.558 Q163.946,87.558 164.442,87.32 Q164.939,87.083 164.939,86.706 Q164.939,86.516 164.755,86.344 Q164.572,86.173 164.044,86.066 Q163.755,86.007 162.522,85.699 z" fill="#000000"/>
      <path d="M172.463,81.271 L172.165,82.773 L171.983,82.773 Q171.959,82.117 171.705,81.819 Q171.45,81.52 171.073,81.52 Q170.77,81.52 170.592,81.687 Q170.413,81.853 170.413,82.088 Q170.413,82.249 170.484,82.396 Q170.555,82.543 170.795,82.807 Q171.431,83.502 171.617,83.854 Q171.802,84.206 171.802,84.519 Q171.802,85.028 171.379,85.422 Q170.956,85.816 170.31,85.816 Q169.958,85.816 169.498,85.65 Q169.337,85.591 169.249,85.591 Q169.028,85.591 168.916,85.816 L168.735,85.816 L169.033,84.231 L169.214,84.231 Q169.244,84.975 169.523,85.283 Q169.801,85.591 170.286,85.591 Q170.658,85.591 170.875,85.383 Q171.093,85.175 171.093,84.872 Q171.093,84.676 171.015,84.51 Q170.878,84.216 170.44,83.698 Q170.002,83.179 169.877,82.92 Q169.752,82.66 169.752,82.401 Q169.752,81.926 170.097,81.599 Q170.442,81.271 170.985,81.271 Q171.142,81.271 171.269,81.295 Q171.338,81.31 171.59,81.405 Q171.842,81.501 171.925,81.501 Q172.135,81.501 172.277,81.271 z" fill="#000000"/>
      <path d="M175.345,80.057 L174.963,81.388 L175.732,81.388 L175.648,81.696 L174.885,81.696 L174.044,84.583 Q173.907,85.048 173.907,85.185 Q173.907,85.268 173.946,85.312 Q173.985,85.356 174.039,85.356 Q174.161,85.356 174.362,85.185 Q174.479,85.087 174.885,84.583 L175.047,84.705 Q174.596,85.361 174.195,85.63 Q173.921,85.816 173.642,85.816 Q173.427,85.816 173.29,85.681 Q173.153,85.547 173.153,85.337 Q173.153,85.072 173.31,84.529 L174.127,81.696 L173.388,81.696 L173.437,81.506 Q173.975,81.359 174.332,81.068 Q174.689,80.777 175.13,80.057 z" fill="#000000"/>
      <path d="M176.025,81.545 L177.712,81.271 L177.008,83.649 Q177.864,82.186 178.564,81.604 Q178.96,81.271 179.21,81.271 Q179.371,81.271 179.464,81.366 Q179.557,81.462 179.557,81.643 Q179.557,81.966 179.391,82.259 Q179.273,82.479 179.053,82.479 Q178.94,82.479 178.86,82.406 Q178.779,82.333 178.759,82.181 Q178.75,82.088 178.715,82.059 Q178.676,82.019 178.622,82.019 Q178.539,82.019 178.466,82.059 Q178.339,82.127 178.079,82.44 Q177.673,82.92 177.199,83.683 Q176.993,84.006 176.846,84.412 Q176.641,84.97 176.612,85.082 L176.455,85.699 L175.706,85.699 L176.612,82.66 Q176.768,82.132 176.768,81.907 Q176.768,81.819 176.695,81.76 Q176.597,81.682 176.435,81.682 Q176.333,81.682 176.059,81.726 z" fill="#000000"/>
      <path d="M180.609,83.854 Q180.575,84.099 180.575,84.26 Q180.575,84.696 180.883,85.001 Q181.191,85.307 181.632,85.307 Q181.984,85.307 182.309,85.163 Q182.635,85.019 183.276,84.524 L183.378,84.666 Q182.219,85.816 181.167,85.816 Q180.453,85.816 180.091,85.366 Q179.729,84.916 179.729,84.373 Q179.729,83.644 180.179,82.88 Q180.629,82.117 181.309,81.694 Q181.989,81.271 182.708,81.271 Q183.227,81.271 183.476,81.481 Q183.726,81.692 183.726,81.98 Q183.726,82.386 183.403,82.758 Q182.977,83.243 182.15,83.541 Q181.602,83.742 180.609,83.854 z M180.643,83.614 Q181.368,83.531 181.823,83.331 Q182.424,83.062 182.725,82.687 Q183.026,82.313 183.026,81.975 Q183.026,81.77 182.896,81.643 Q182.767,81.515 182.527,81.515 Q182.028,81.515 181.468,82.046 Q180.908,82.577 180.643,83.614 z" fill="#000000"/>
      <path d="M187.513,81.271 L187.214,82.773 L187.033,82.773 Q187.009,82.117 186.755,81.819 Q186.5,81.52 186.123,81.52 Q185.82,81.52 185.642,81.687 Q185.463,81.853 185.463,82.088 Q185.463,82.249 185.534,82.396 Q185.605,82.543 185.845,82.807 Q186.481,83.502 186.667,83.854 Q186.852,84.206 186.852,84.519 Q186.852,85.028 186.429,85.422 Q186.006,85.816 185.36,85.816 Q185.008,85.816 184.548,85.65 Q184.387,85.591 184.299,85.591 Q184.078,85.591 183.966,85.816 L183.785,85.816 L184.083,84.231 L184.264,84.231 Q184.294,84.975 184.573,85.283 Q184.851,85.591 185.336,85.591 Q185.708,85.591 185.925,85.383 Q186.143,85.175 186.143,84.872 Q186.143,84.676 186.065,84.51 Q185.928,84.216 185.49,83.698 Q185.052,83.179 184.927,82.92 Q184.802,82.66 184.802,82.401 Q184.802,81.926 185.147,81.599 Q185.492,81.271 186.035,81.271 Q186.192,81.271 186.319,81.295 Q186.388,81.31 186.64,81.405 Q186.892,81.501 186.975,81.501 Q187.185,81.501 187.327,81.271 z" fill="#000000"/>
      <path d="M191.427,81.271 L191.129,82.773 L190.948,82.773 Q190.923,82.117 190.669,81.819 Q190.415,81.52 190.038,81.52 Q189.734,81.52 189.556,81.687 Q189.377,81.853 189.377,82.088 Q189.377,82.249 189.448,82.396 Q189.519,82.543 189.759,82.807 Q190.395,83.502 190.581,83.854 Q190.767,84.206 190.767,84.519 Q190.767,85.028 190.344,85.422 Q189.92,85.816 189.275,85.816 Q188.922,85.816 188.462,85.65 Q188.301,85.591 188.213,85.591 Q187.993,85.591 187.88,85.816 L187.699,85.816 L187.998,84.231 L188.179,84.231 Q188.208,84.975 188.487,85.283 Q188.766,85.591 189.25,85.591 Q189.622,85.591 189.84,85.383 Q190.057,85.175 190.057,84.872 Q190.057,84.676 189.979,84.51 Q189.842,84.216 189.404,83.698 Q188.966,83.179 188.842,82.92 Q188.717,82.66 188.717,82.401 Q188.717,81.926 189.062,81.599 Q189.407,81.271 189.95,81.271 Q190.106,81.271 190.234,81.295 Q190.302,81.31 190.554,81.405 Q190.806,81.501 190.889,81.501 Q191.1,81.501 191.241,81.271 z" fill="#000000"/>
      <path d="M192.9,83.854 Q192.866,84.099 192.866,84.26 Q192.866,84.696 193.174,85.001 Q193.483,85.307 193.923,85.307 Q194.275,85.307 194.6,85.163 Q194.926,85.019 195.567,84.524 L195.67,84.666 Q194.51,85.816 193.458,85.816 Q192.744,85.816 192.382,85.366 Q192.02,84.916 192.02,84.373 Q192.02,83.644 192.47,82.88 Q192.92,82.117 193.6,81.694 Q194.28,81.271 194.999,81.271 Q195.518,81.271 195.767,81.481 Q196.017,81.692 196.017,81.98 Q196.017,82.386 195.694,82.758 Q195.268,83.243 194.441,83.541 Q193.894,83.742 192.9,83.854 z M192.935,83.614 Q193.659,83.531 194.114,83.331 Q194.715,83.062 195.016,82.687 Q195.317,82.313 195.317,81.975 Q195.317,81.77 195.188,81.643 Q195.058,81.515 194.818,81.515 Q194.319,81.515 193.759,82.046 Q193.199,82.577 192.935,83.614 z" fill="#000000"/>
      <path d="M199.804,81.271 L199.506,82.773 L199.325,82.773 Q199.3,82.117 199.046,81.819 Q198.791,81.52 198.415,81.52 Q198.111,81.52 197.933,81.687 Q197.754,81.853 197.754,82.088 Q197.754,82.249 197.825,82.396 Q197.896,82.543 198.136,82.807 Q198.772,83.502 198.958,83.854 Q199.144,84.206 199.144,84.519 Q199.144,85.028 198.72,85.422 Q198.297,85.816 197.651,85.816 Q197.299,85.816 196.839,85.65 Q196.678,85.591 196.59,85.591 Q196.369,85.591 196.257,85.816 L196.076,85.816 L196.374,84.231 L196.555,84.231 Q196.585,84.975 196.864,85.283 Q197.143,85.591 197.627,85.591 Q197.999,85.591 198.216,85.383 Q198.434,85.175 198.434,84.872 Q198.434,84.676 198.356,84.51 Q198.219,84.216 197.781,83.698 Q197.343,83.179 197.218,82.92 Q197.094,82.66 197.094,82.401 Q197.094,81.926 197.439,81.599 Q197.783,81.271 198.327,81.271 Q198.483,81.271 198.61,81.295 Q198.679,81.31 198.931,81.405 Q199.183,81.501 199.266,81.501 Q199.476,81.501 199.618,81.271 z" fill="#000000"/>
      <path d="M21.311,59.319 L226.269,63.219 M21.311,59.319 L153.07,16.119 M105.49,31.839 L226.269,63.219" fill-opacity="0" stroke="#412101" stroke-width="1" stroke-dasharray="4,3" stroke-linejoin="round"/>
      <path d="M94.07,41.239 L92.63,40.159 C92.57,40.099 92.51,40.099 92.45,40.039 L91.91,39.319 L91.31,38.599 L90.83,37.819 L90.35,36.979 L89.99,36.139 L89.75,35.239 L89.51,34.399 L89.39,33.499 L89.33,32.539 L89.39,31.639 L89.51,30.799 L89.69,29.899 L89.93,29.059 L90.29,28.219 L90.71,27.379 L91.19,26.599 L91.73,25.879 L92.33,25.159 L92.99,24.439 L93.77,23.779 L94.55,23.179 L95.39,22.579 L96.23,22.039 L97.19,21.559 L98.15,21.139 L98.99,22.939 L98.09,23.359 L97.31,23.779 L96.47,24.259 L95.75,24.739 L94.43,25.819 L93.35,27.019 L92.87,27.679 L92.15,28.999 L91.85,29.659 L91.61,30.319 L91.37,31.759 L91.31,32.479 L91.37,33.199 L91.61,34.639 L91.85,35.359 L92.15,36.019 L92.51,36.739 L92.93,37.399 L93.41,38.059 L94.01,38.719 L93.83,38.599 L95.27,39.679 z M95.39,37.399 L98.87,43.099 L92.21,42.499" fill="#FF0101"/>
      <path d="M115.19,21.139 L116.15,21.559 L117.11,22.039 L118.01,22.579 L118.85,23.119 L119.69,23.719 L120.41,24.379 L121.13,25.099 L121.73,25.819 L122.33,26.599 L122.81,27.379 L123.23,28.159 L123.59,28.999 L123.89,29.899 L124.13,30.799 L124.25,31.699 L124.31,32.599 L124.25,33.499 L124.13,34.399 L123.95,35.239 L123.35,36.919 L122.93,37.759 L122.45,38.539 L121.91,39.319 L121.31,40.039 C121.25,40.039 121.19,40.099 121.13,40.159 L119.87,41.179 L118.61,39.619 L119.93,38.599 L119.75,38.719 L120.29,38.119 L120.71,37.459 L121.13,36.859 L121.49,36.199 L121.79,35.479 L121.97,34.819 L122.15,34.099 L122.27,33.379 L122.27,31.939 L122.15,31.219 L121.79,29.779 L121.49,29.119 L121.13,28.399 L120.71,27.739 L120.23,27.139 L119.69,26.479 L119.09,25.879 L118.49,25.339 L117.77,24.799 L116.99,24.259 L116.21,23.779 L115.31,23.359 L114.35,22.939 z M121.73,42.319 L115.07,43.099 L118.43,37.339" fill="#FF0101"/>
      <path d="M19.851,59.119 L13.971,40.339 L15.891,39.739 L21.771,58.519 z M12.351,41.899 L13.431,35.299 L18.111,40.099" fill="#FF0101"/>
      <path d="M109.85,50.419 L104.03,31.639 L105.95,31.039 L111.77,49.819 z M113.39,48.259 L112.31,54.859 L107.63,50.059" fill="#FF0101"/>
      <path d="M224.869,62.419 L234.169,35.719 L236.089,36.379 L226.729,63.079 z M231.949,36.019 L236.809,31.339 L237.649,37.999" fill="#FF0101"/>
      <path d="M94.67,57.679 L104.03,30.979 L105.95,31.639 L96.59,58.339 z M98.81,58.039 L94.01,62.719 L93.17,56.059" fill="#FF0101"/>
      <path d="M139.19,23.059 L139.55,23.539 L139.91,24.079 L140.27,24.559 L140.57,25.159 L140.87,25.699 L141.11,26.239 L141.35,26.839 L141.53,27.439 L141.71,27.979 L141.83,28.579 L141.95,29.779 L141.95,31.039 L141.83,32.239 L141.65,32.899 L141.53,33.499 L141.35,34.039 L141.11,34.639 L140.81,35.239 L140.51,35.779 L140.21,36.379 L139.85,36.919 L139.01,37.999 C138.83,38.179 138.65,38.179 138.47,38.059 C138.29,37.879 138.29,37.639 138.41,37.519 L138.47,37.519 L138.83,36.979 L139.19,36.499 L139.55,35.959 L139.85,35.479 L140.15,34.939 L140.63,33.859 L140.81,33.259 L141.05,32.179 L141.17,31.579 L141.17,30.979 L141.23,30.439 L141.17,29.839 L141.17,29.299 L140.93,28.219 L140.81,27.619 L140.45,26.539 L140.21,26.059 L139.91,25.519 L139.67,24.979 L139.31,24.499 L138.95,23.959 L138.59,23.539 C138.47,23.359 138.47,23.119 138.65,22.999 C138.83,22.879 139.07,22.879 139.19,23.059 z M139.43,27.979 L138.41,22.759 L143.51,24.079 C143.75,24.139 143.87,24.379 143.81,24.559 C143.75,24.739 143.57,24.859 143.33,24.799 L138.77,23.659 L139.25,23.179 L140.21,27.799 C140.21,28.039 140.09,28.219 139.91,28.279 C139.67,28.339 139.49,28.159 139.43,27.979 z M143.39,37.039 L138.23,38.239 L139.37,33.079 C139.43,32.839 139.61,32.719 139.85,32.779 C140.03,32.839 140.15,33.019 140.09,33.259 L139.07,37.819 L138.65,37.399 L143.21,36.319 C143.39,36.259 143.63,36.379 143.69,36.559 C143.69,36.799 143.57,36.979 143.39,37.039" fill="#412101"/>
      <path d="M148.763,24.943 L149.942,24.943 Q149.663,25.51 149.475,26.393 Q149.286,27.276 149.286,27.629 Q149.286,28.084 149.458,28.818 Q149.629,29.552 149.888,30.139 L148.733,30.139 Q148.709,30.041 148.645,29.865 Q148.543,29.571 148.469,29.278 Q147.867,30.256 146.752,30.256 Q145.7,30.256 145.096,29.402 Q144.492,28.549 144.492,27.409 Q144.492,26.332 145.093,25.579 Q145.695,24.825 146.767,24.825 Q147.823,24.825 148.474,25.838 Q148.562,25.481 148.763,24.943 z M145.901,27.555 Q145.901,28.275 146.206,28.722 Q146.512,29.17 147.001,29.17 Q147.471,29.17 147.77,28.774 Q148.068,28.377 148.068,27.555 Q148.068,26.748 147.75,26.332 Q147.432,25.916 146.982,25.916 Q146.512,25.916 146.206,26.347 Q145.901,26.777 145.901,27.555 z" fill="#000000"/>
      <text transform="matrix(1, 0, 0, 1, 151.69, 29.639)">
        <tspan x="-1.4" y="2" font-family="Arial-BoldMT" font-size="6.48" kerning="0" fill="#000000">i</tspan>
      </text>
      <text transform="matrix(1, 0, 0, 1, 166.45, 52.639)">
        <tspan x="-3.56" y="3" font-family="Arial-BoldMT" font-size="10.02" kerning="0" fill="#000000">L</tspan>
      </text>
      <g>
        <text transform="matrix(1, 0, 0, 1, 174.101, 55.139)">
          <tspan x="-5.091" y="2" font-family="Arial-BoldMT" font-size="6.48" kerning="-0.001" fill="#000000">i,i+</tspan>
        </text>
        <text transform="matrix(1, 0, 0, 1, 180.492, 55.139)">
          <tspan x="-2.302" y="2" font-family="Arial-BoldMT" font-size="6.48" kerning="0" fill="#000000">1</tspan>
        </text>
      </g>
      <text transform="matrix(1, 0, 0, 1, 58.93, 54.379)">
        <tspan x="-3.56" y="3" font-family="Arial-BoldMT" font-size="10.02" kerning="0" fill="#000000">L</tspan>
      </text>
      <g>
        <text transform="matrix(1, 0, 0, 1, 66.671, 56.879)">
          <tspan x="-5.18" y="2" font-family="Arial-BoldMT" font-size="6.48" kerning="-0.001" fill="#000000">i-1,</tspan>
        </text>
        <text transform="matrix(1, 0, 0, 1, 72.251, 56.879)">
          <tspan x="-1.4" y="2" font-family="Arial-BoldMT" font-size="6.48" kerning="0" fill="#000000">i</tspan>
        </text>
      </g>
      <text transform="matrix(1, 0, 0, 1, 136.87, 56.119)">
        <tspan x="-3.56" y="3" font-family="Arial-BoldMT" font-size="10.02" kerning="0" fill="#000000">L</tspan>
      </text>
      <g>
        <text transform="matrix(1, 0, 0, 1, 147.4, 58.619)">
          <tspan x="-7.971" y="2" font-family="Arial-BoldMT" font-size="6.48" kerning="-0.001" fill="#000000">i-1,i+</tspan>
        </text>
        <text transform="matrix(1, 0, 0, 1, 156.671, 58.619)">
          <tspan x="-2.302" y="2" font-family="Arial-BoldMT" font-size="6.48" kerning="0" fill="#000000">1</tspan>
        </text>
      </g>
      <text transform="matrix(1, 0, 0, 1, 21.671, 35.599)">
        <tspan x="-3.56" y="3" font-family="Arial-BoldMT" font-size="10.02" kerning="0" fill="#FF0000">F</tspan>
      </text>
      <g>
        <text transform="matrix(1, 0, 0, 1, 29.411, 38.099)">
          <tspan x="-5.18" y="2" font-family="Arial-BoldMT" font-size="6.48" kerning="-0.001" fill="#FF0000">i-1,</tspan>
        </text>
        <text transform="matrix(1, 0, 0, 1, 34.991, 38.099)">
          <tspan x="-1.4" y="2" font-family="Arial-BoldMT" font-size="6.48" kerning="0" fill="#FF0000">i</tspan>
        </text>
      </g>
      <text transform="matrix(1, 0, 0, 1, 118.51, 48.619)">
        <tspan x="-3.56" y="3" font-family="Arial-BoldMT" font-size="10.02" kerning="0" fill="#FF0000">F</tspan>
      </text>
      <g>
        <text transform="matrix(1, 0, 0, 1, 126.25, 51.119)">
          <tspan x="-5.18" y="2" font-family="Arial-BoldMT" font-size="6.48" kerning="-0.001" fill="#FF0000">i-1,</tspan>
        </text>
        <text transform="matrix(1, 0, 0, 1, 131.83, 51.119)">
          <tspan x="-1.4" y="2" font-family="Arial-BoldMT" font-size="6.48" kerning="0" fill="#FF0000">i</tspan>
        </text>
      </g>
      <text transform="matrix(1, 0, 0, 1, 81.431, 47.538)">
        <tspan x="-3.56" y="3" font-family="Arial-BoldMT" font-size="10.02" kerning="0" fill="#FF0000">F</tspan>
      </text>
      <g>
        <text transform="matrix(1, 0, 0, 1, 89.081, 50.039)">
          <tspan x="-5.091" y="2" font-family="Arial-BoldMT" font-size="6.48" kerning="-0.001" fill="#FF0000">i,i+</tspan>
        </text>
        <text transform="matrix(1, 0, 0, 1, 95.472, 50.039)">
          <tspan x="-2.302" y="2" font-family="Arial-BoldMT" font-size="6.48" kerning="0" fill="#FF0000">1</tspan>
        </text>
      </g>
      <text transform="matrix(1, 0, 0, 1, 215.41, 29.659)">
        <tspan x="-3.56" y="3" font-family="Arial-BoldMT" font-size="10.02" kerning="0" fill="#FF0000">F</tspan>
      </text>
      <g>
        <text transform="matrix(1, 0, 0, 1, 223.06, 32.159)">
          <tspan x="-5.091" y="2" font-family="Arial-BoldMT" font-size="6.48" kerning="-0.001" fill="#FF0000">i,i+</tspan>
        </text>
        <text transform="matrix(1, 0, 0, 1, 229.451, 32.159)">
          <tspan x="-2.302" y="2" font-family="Arial-BoldMT" font-size="6.48" kerning="0" fill="#FF0000">1</tspan>
        </text>
      </g>
      <g>
        <text transform="matrix(1, 0, 0, 1, 23.95, 48.859)">
          <tspan x="-3.56" y="3" font-family="Arial-BoldMT" font-size="10.02" kerning="-0.001" fill="#000000">i-</tspan>
        </text>
        <text transform="matrix(1, 0, 0, 1, 29.795, 48.859)">
          <tspan x="-3.286" y="3" font-family="Arial-BoldMT" font-size="10.02" kerning="0" fill="#000000">1</tspan>
        </text>
      </g>
      <g>
        <text transform="matrix(1, 0, 0, 1, 214.822, 53.179)">
          <tspan x="-1.892" y="3" font-family="Arial-BoldMT" font-size="10.02" kerning="-0.024" fill="#000000">i</tspan>
        </text>
        <text transform="matrix(1, 0, 0, 1, 219.129, 53.179)">
          <tspan x="-3.439" y="3" font-family="Arial-BoldMT" font-size="10.02" kerning="0.026" fill="#000000">+</tspan>
        </text>
        <text transform="matrix(1, 0, 0, 1, 224.853, 53.179)">
          <tspan x="-3.286" y="3" font-family="Arial-BoldMT" font-size="10.02" kerning="0" fill="#000000">1</tspan>
        </text>
      </g>
      <text transform="matrix(1, 0, 0, 1, 102.28, 27.839)">
        <tspan x="-1.55" y="2" font-family="Arial-BoldMT" font-size="7.5" kerning="0.016" fill="#000000">i</tspan>
      </text>
      <text transform="matrix(1, 0, 0, 1, 105.524, 18.139)">
        <tspan x="-4.673" y="3" font-family="Arial-BoldMT" font-size="10.02" kerning="0" fill="#FF0000">M</tspan>
      </text>
      <text transform="matrix(1, 0, 0, 1, 110.59, 20.639)">
        <tspan x="-1.4" y="2" font-family="Arial-BoldMT" font-size="6.48" kerning="0" fill="#FF0000">i</tspan>
      </text>
      <path d="M21.791,58.059 C51.97,44.259 82.15,30.399 116.23,31.299 C150.37,32.199 188.41,47.799 226.449,63.399" fill-opacity="0" stroke="#010101" stroke-width="2" stroke-linejoin="round"/>
    </g>
  </g>
</svg>
