<?xml version="1.0" encoding="UTF-8"?>
<!DOCTYPE svg PUBLIC "-//W3C//DTD SVG 1.1//EN" "http://www.w3.org/Graphics/SVG/1.1/DTD/svg11.dtd">
<svg version="1.1" xmlns="http://www.w3.org/2000/svg" xmlns:xlink="http://www.w3.org/1999/xlink" x="0" y="0" width="345" height="285" viewBox="0, 0, 345, 285">
  <g id="Background">
    <rect x="0" y="0" width="345" height="285" fill="#FFFFFF"/>
  </g>
  <defs>
    <clipPath id="Clip_1">
      <path d="M30.867,0 L314.332,0 L314.332,263.766 L30.867,263.766 z M30.867,0"/>
    </clipPath>
    <clipPath id="Clip_2">
      <path d="M30.5,0 L314.5,0 L314.5,264 L30.5,264 z"/>
    </clipPath>
    <clipPath id="Clip_3">
      <path d="M30.867,0 L314.332,0 L314.332,263.766 L30.867,263.766 z M30.867,0"/>
    </clipPath>
    <clipPath id="Clip_4">
      <path d="M202.656,202.52 L193.656,207.715 L185.047,202.742 L194.047,197.547 z M202.656,202.52"/>
    </clipPath>
    <clipPath id="Clip_5">
      <path d="M187.5,199 L199.5,199 L199.5,205 L187.5,205 z M187.5,199"/>
    </clipPath>
    <clipPath id="Clip_6">
      <path d="M202.656,202.52 L193.656,207.715 L185.047,202.742 L194.047,197.547 z M202.656,202.52"/>
    </clipPath>
    <clipPath id="Clip_7">
      <path d="M190.5,203 L198.5,203 L198.5,208 L190.5,208 z M190.5,203"/>
    </clipPath>
  </defs>
  <g id="surface1444">
    <g>
      <g clip-path="url(#Clip_3)">
        <g clip-path="url(#Clip_2)" id="surface1447">
          <g clip-path="url(#Clip_1)">
            <path d="M30.867,263.766 L314.332,263.766 L314.332,-8.359 L30.867,-8.359 z M30.867,263.766" fill="#FFFFFF"/>
          </g>
        </g>
      </g>
      <path d="M301.391,106.695 L44.828,254.82" fill-opacity="0" stroke="#666666" stroke-width="0.25" stroke-dasharray="1.5,0.5,0.5,0.5" stroke-linecap="round" stroke-linejoin="round"/>
      <path d="M44.828,106.695 L301.391,254.82" fill-opacity="0" stroke="#666666" stroke-width="0.25" stroke-dasharray="1.5,0.5,0.5,0.5" stroke-linecap="round" stroke-linejoin="round"/>
      <g>
        <path d="M254.086,112.715 C254.66,112.383 254.441,111.891 253.871,111.691 C253.363,111.512 252.961,111.512 252.484,111.785 C251.91,112.121 252.129,112.613 252.699,112.809 C253.203,112.988 253.609,112.988 254.086,112.715 z M254.086,112.715" fill="#000000"/>
        <path d="M254.086,112.715 C254.66,112.383 254.441,111.891 253.871,111.691 C253.363,111.512 252.961,111.512 252.484,111.785 C251.91,112.121 252.129,112.613 252.699,112.809 C253.203,112.988 253.609,112.988 254.086,112.715 z M254.086,112.715" fill-opacity="0" stroke="#000000" stroke-width="0.25" stroke-linecap="round" stroke-linejoin="round"/>
      </g>
      <g>
        <path d="M93.734,134.934 C94.309,134.602 94.09,134.109 93.52,133.906 C93.012,133.73 92.609,133.73 92.133,134.004 C91.559,134.34 91.777,134.828 92.348,135.031 C92.852,135.207 93.258,135.207 93.734,134.934 z M93.734,134.934" fill="#000000"/>
        <path d="M93.734,134.934 C94.309,134.602 94.09,134.109 93.52,133.906 C93.012,133.73 92.609,133.73 92.133,134.004 C91.559,134.34 91.777,134.828 92.348,135.031 C92.852,135.207 93.258,135.207 93.734,134.934 z M93.734,134.934" fill-opacity="0" stroke="#000000" stroke-width="0.25" stroke-linecap="round" stroke-linejoin="round"/>
      </g>
      <g>
        <path d="M93.777,227.488 C94.352,227.156 94.133,226.664 93.559,226.465 C93.055,226.285 92.652,226.285 92.172,226.562 C91.598,226.895 91.816,227.383 92.387,227.586 C92.895,227.762 93.297,227.766 93.777,227.488 z M93.777,227.488" fill="#000000"/>
        <path d="M93.777,227.488 C94.352,227.156 94.133,226.664 93.559,226.465 C93.055,226.285 92.652,226.285 92.172,226.562 C91.598,226.895 91.816,227.383 92.387,227.586 C92.895,227.762 93.297,227.766 93.777,227.488 z M93.777,227.488" fill-opacity="0" stroke="#000000" stroke-width="0.25" stroke-linecap="round" stroke-linejoin="round"/>
      </g>
      <g>
        <path d="M173.91,181.223 C174.484,180.891 174.266,180.398 173.695,180.199 C173.188,180.023 172.785,180.02 172.309,180.297 C171.734,180.629 171.953,181.121 172.523,181.32 C173.027,181.496 173.434,181.5 173.91,181.223 z M173.91,181.223" fill="#000000"/>
        <path d="M173.91,181.223 C174.484,180.891 174.266,180.398 173.695,180.199 C173.188,180.023 172.785,180.02 172.309,180.297 C171.734,180.629 171.953,181.121 172.523,181.32 C173.027,181.496 173.434,181.5 173.91,181.223 z M173.91,181.223" fill-opacity="0" stroke="#000000" stroke-width="0.25" stroke-linecap="round" stroke-linejoin="round"/>
      </g>
      <g>
        <path d="M254.043,227.488 C254.621,227.156 254.398,226.664 253.828,226.465 C253.324,226.285 252.922,226.285 252.441,226.562 C251.867,226.895 252.086,227.383 252.656,227.586 C253.164,227.762 253.566,227.766 254.043,227.488 z M254.043,227.488" fill="#000000"/>
        <path d="M254.043,227.488 C254.621,227.156 254.398,226.664 253.828,226.465 C253.324,226.285 252.922,226.285 252.441,226.562 C251.867,226.895 252.086,227.383 252.656,227.586 C253.164,227.762 253.566,227.766 254.043,227.488 z M254.043,227.488" fill-opacity="0" stroke="#000000" stroke-width="0.25" stroke-linecap="round" stroke-linejoin="round"/>
      </g>
      <g>
        <path d="M254.086,134.934 C254.66,134.602 254.441,134.109 253.871,133.906 C253.363,133.73 252.961,133.73 252.484,134.004 C251.91,134.34 252.129,134.828 252.699,135.031 C253.203,135.207 253.609,135.207 254.086,134.934 z M254.086,134.934" fill="#000000"/>
        <path d="M254.086,134.934 C254.66,134.602 254.441,134.109 253.871,133.906 C253.363,133.73 252.961,133.73 252.484,134.004 C251.91,134.34 252.129,134.828 252.699,135.031 C253.203,135.207 253.609,135.207 254.086,134.934 z M254.086,134.934" fill-opacity="0" stroke="#000000" stroke-width="0.25" stroke-linecap="round" stroke-linejoin="round"/>
      </g>
      <g>
        <path d="M93.734,205.293 C94.309,204.961 94.09,204.469 93.52,204.27 C93.012,204.094 92.609,204.09 92.133,204.367 C91.559,204.699 91.777,205.191 92.348,205.391 C92.852,205.566 93.258,205.57 93.734,205.293 z M93.734,205.293" fill="#000000"/>
        <path d="M93.734,205.293 C94.309,204.961 94.09,204.469 93.52,204.27 C93.012,204.094 92.609,204.09 92.133,204.367 C91.559,204.699 91.777,205.191 92.348,205.391 C92.852,205.566 93.258,205.57 93.734,205.293 z M93.734,205.293" fill-opacity="0" stroke="#000000" stroke-width="0.25" stroke-linecap="round" stroke-linejoin="round"/>
      </g>
      <g>
        <path d="M93.734,112.715 C94.309,112.383 94.09,111.891 93.52,111.691 C93.012,111.512 92.609,111.512 92.133,111.785 C91.559,112.121 91.777,112.613 92.348,112.809 C92.852,112.988 93.258,112.988 93.734,112.715 z M93.734,112.715" fill="#000000"/>
        <path d="M93.734,112.715 C94.309,112.383 94.09,111.891 93.52,111.691 C93.012,111.512 92.609,111.512 92.133,111.785 C91.559,112.121 91.777,112.613 92.348,112.809 C92.852,112.988 93.258,112.988 93.734,112.715 z M93.734,112.715" fill-opacity="0" stroke="#000000" stroke-width="0.25" stroke-linecap="round" stroke-linejoin="round"/>
      </g>
      <g>
        <path d="M173.91,159.004 C174.484,158.672 174.266,158.18 173.695,157.977 C173.188,157.801 172.785,157.801 172.309,158.074 C171.734,158.41 171.953,158.902 172.523,159.102 C173.027,159.277 173.434,159.281 173.91,159.004 z M173.91,159.004" fill="#000000"/>
        <path d="M173.91,159.004 C174.484,158.672 174.266,158.18 173.695,157.977 C173.188,157.801 172.785,157.801 172.309,158.074 C171.734,158.41 171.953,158.902 172.523,159.102 C173.027,159.277 173.434,159.281 173.91,159.004 z M173.91,159.004" fill-opacity="0" stroke="#000000" stroke-width="0.25" stroke-linecap="round" stroke-linejoin="round"/>
      </g>
      <path d="M82.672,112.25 L82.672,134.469" fill-opacity="0" stroke="#B8B8B8" stroke-width="0.5" stroke-dasharray="1,1" stroke-linecap="round" stroke-linejoin="round"/>
      <path d="M75.008,203.738 L75.008,225.957" fill-opacity="0" stroke="#B8B8B8" stroke-width="0.5" stroke-dasharray="1,1" stroke-linecap="round" stroke-linejoin="round"/>
      <path d="M107.078,203.738 L107.078,225.957" fill-opacity="0" stroke="#B8B8B8" stroke-width="0.5" stroke-dasharray="1,1" stroke-linecap="round" stroke-linejoin="round"/>
      <path d="M94.82,215.176 L94.82,237.398" fill-opacity="0" stroke="#B8B8B8" stroke-width="0.5" stroke-dasharray="1,1" stroke-linecap="round" stroke-linejoin="round"/>
      <path d="M189.145,158.539 L189.145,180.758" fill-opacity="0" stroke="#B8B8B8" stroke-width="0.5" stroke-dasharray="1,1" stroke-linecap="round" stroke-linejoin="round"/>
      <path d="M157.074,158.539 L157.074,180.758" fill-opacity="0" stroke="#B8B8B8" stroke-width="0.5" stroke-dasharray="1,1" stroke-linecap="round" stroke-linejoin="round"/>
      <path d="M237.25,112.242 L237.25,134.461" fill-opacity="0" stroke="#B8B8B8" stroke-width="0.5" stroke-dasharray="1,1" stroke-linecap="round" stroke-linejoin="round"/>
      <path d="M269.32,112.242 L269.32,134.461" fill-opacity="0" stroke="#B8B8B8" stroke-width="0.5" stroke-dasharray="1,1" stroke-linecap="round" stroke-linejoin="round"/>
      <path d="M271.211,203.738 L271.211,225.957" fill-opacity="0" stroke="#B8B8B8" stroke-width="0.5" stroke-dasharray="1,1" stroke-linecap="round" stroke-linejoin="round"/>
      <path d="M239.137,203.738 L239.137,225.957" fill-opacity="0" stroke="#B8B8B8" stroke-width="0.5" stroke-dasharray="1,1" stroke-linecap="round" stroke-linejoin="round"/>
      <path d="M251.395,215.176 L251.395,237.398" fill-opacity="0" stroke="#B8B8B8" stroke-width="0.5" stroke-dasharray="1,1" stroke-linecap="round" stroke-linejoin="round"/>
      <path d="M251.395,196.66 L251.395,215.176" fill-opacity="0" stroke="#B8B8B8" stroke-width="0.5" stroke-dasharray="1,1" stroke-linecap="round" stroke-linejoin="round"/>
      <path d="M103.195,112.25 L103.195,134.469" fill-opacity="0" stroke="#B8B8B8" stroke-width="0.5" stroke-dasharray="1,1" stroke-linecap="round" stroke-linejoin="round"/>
      <path d="M173.109,190.016 L189.145,180.758 L173.109,171.5 L157.074,180.758 z M173.109,190.016" fill-opacity="0" stroke="#6887FF" stroke-width="0.75" stroke-linecap="round" stroke-linejoin="round"/>
      <path d="M173.109,180.688 L152.953,192.324" fill-opacity="0" stroke="#000000" stroke-width="0.5" stroke-linecap="round"/>
      <path d="M152.203,191.027 L149.488,194.324 L153.703,193.625 M152.953,192.324 L149.488,194.324" fill-opacity="0" stroke="#000000" stroke-width="0.5"/>
      <path d="M173.109,180.688 L193.266,192.324" fill-opacity="0" stroke="#000000" stroke-width="0.5" stroke-linecap="round"/>
      <path d="M192.516,193.625 L196.73,194.324 L194.016,191.027 M193.266,192.324 L196.73,194.324" fill-opacity="0" stroke="#000000" stroke-width="0.5"/>
      <path d="M92.934,140.395 L82.672,134.469 L92.934,128.543 L103.195,134.469 z M92.934,140.395" fill-opacity="0" stroke="#000000" stroke-width="0.75" stroke-linecap="round" stroke-linejoin="round"/>
      <path d="M92.934,118.176 L92.934,134.32" fill-opacity="0" stroke="#666666" stroke-width="0.5" stroke-dasharray="1,1" stroke-linecap="round" stroke-linejoin="round"/>
      <g>
        <path d="M92.934,118.176 L82.672,112.25 L82.672,27.078 L92.934,33.004 z M92.934,118.176" fill="#FFFFFF"/>
        <path d="M92.934,118.176 L82.672,112.25 L82.672,27.078 L92.934,33.004 z M92.934,118.176" fill-opacity="0" stroke="#000000" stroke-width="0.5" stroke-linecap="round" stroke-linejoin="round"/>
      </g>
      <g>
        <path d="M103.195,112.25 L92.934,118.176 L92.934,33.004 L103.195,27.078 z M103.195,112.25" fill="#FFFFFF"/>
        <path d="M103.195,112.25 L92.934,118.176 L92.934,33.004 L103.195,27.078 z M103.195,112.25" fill-opacity="0" stroke="#000000" stroke-width="0.5" stroke-linecap="round" stroke-linejoin="round"/>
      </g>
      <g>
        <path d="M92.934,33.004 L82.672,27.078 L92.934,21.152 L103.195,27.078 z M92.934,33.004" fill="#FFFFFF"/>
        <path d="M92.934,33.004 L82.672,27.078 L92.934,21.152 L103.195,27.078 z M92.934,33.004" fill-opacity="0" stroke="#000000" stroke-width="0.5" stroke-linecap="round" stroke-linejoin="round"/>
      </g>
      <path d="M92.934,118.176 L82.672,112.25 L82.672,27.078 L92.934,21.152 L103.195,27.078 L103.195,112.25 z M92.934,118.176" fill-opacity="0" stroke="#000000" stroke-width="1.25" stroke-linecap="round" stroke-linejoin="round"/>
      <g>
        <path d="M93.734,27.539 C94.309,27.207 94.09,26.715 93.52,26.52 C93.012,26.34 92.609,26.34 92.133,26.613 C91.559,26.945 91.777,27.438 92.348,27.637 C92.852,27.812 93.258,27.816 93.734,27.539 z M93.734,27.539" fill="#000000"/>
        <path d="M93.734,27.539 C94.309,27.207 94.09,26.715 93.52,26.52 C93.012,26.34 92.609,26.34 92.133,26.613 C91.559,26.945 91.777,27.438 92.348,27.637 C92.852,27.812 93.258,27.816 93.734,27.539 z M93.734,27.539" fill-opacity="0" stroke="#000000" stroke-width="0.25" stroke-linecap="round" stroke-linejoin="round"/>
      </g>
      <path d="M92.934,27.078 L92.934,8.562" fill-opacity="0" stroke="#666666" stroke-width="0.5" stroke-dasharray="1.5,1" stroke-linecap="round" stroke-linejoin="round"/>
      <path d="M261.301,129.84 C261.629,130.18 261.953,130.52 262.277,130.855 C262.934,131.527 263.594,132.188 264.301,132.824 C265.008,133.461 265.766,134.07 266.613,134.406 C267.461,134.746 268.398,134.812 269.312,134.465" fill-opacity="0" stroke="#000000" stroke-width="0.75" stroke-linecap="round" stroke-linejoin="round"/>
      <path d="M253.293,125.215 C254.199,124.871 255.137,124.934 255.984,125.27 C256.832,125.605 257.59,126.215 258.297,126.852 C259.008,127.484 259.668,128.148 260.32,128.82 C260.648,129.156 260.977,129.5 261.301,129.84" fill-opacity="0" stroke="#000000" stroke-width="0.75" stroke-linecap="round" stroke-linejoin="round"/>
      <path d="M253.285,125.219 C253.285,125.215 253.289,125.215 253.293,125.215" fill-opacity="0" stroke="#000000" stroke-width="0.75" stroke-linecap="round" stroke-linejoin="round"/>
      <path d="M245.266,129.84 C245.73,129.793 246.191,129.75 246.648,129.68 C247.566,129.543 248.465,129.32 249.328,128.965 C250.188,128.613 251.016,128.133 251.645,127.461 C252.273,126.793 252.703,125.934 253.285,125.219" fill-opacity="0" stroke="#000000" stroke-width="0.75" stroke-linecap="round" stroke-linejoin="round"/>
      <path d="M237.25,134.461 C237.832,133.746 238.262,132.887 238.891,132.219 C239.52,131.547 240.344,131.066 241.207,130.715 C242.07,130.359 242.969,130.137 243.883,130 C244.344,129.934 244.805,129.887 245.266,129.84" fill-opacity="0" stroke="#000000" stroke-width="0.75" stroke-linecap="round" stroke-linejoin="round"/>
      <path d="M253.273,143.723 C253.277,143.723 253.281,143.727 253.281,143.73" fill-opacity="0" stroke="#000000" stroke-width="0.75" stroke-linecap="round" stroke-linejoin="round"/>
      <path d="M245.266,139.098 C245.727,139.145 246.191,139.188 246.648,139.258 C247.562,139.395 248.461,139.617 249.328,139.973 C250.191,140.324 251.02,140.809 251.645,141.477 C252.27,142.148 252.699,143.004 253.273,143.723" fill-opacity="0" stroke="#000000" stroke-width="0.75" stroke-linecap="round" stroke-linejoin="round"/>
      <path d="M237.262,134.477 C237.836,135.191 238.262,136.047 238.883,136.715 C239.512,137.387 240.34,137.867 241.203,138.223 C242.066,138.574 242.965,138.801 243.879,138.938 C244.34,139.008 244.805,139.051 245.27,139.098" fill-opacity="0" stroke="#000000" stroke-width="0.75" stroke-linecap="round" stroke-linejoin="round"/>
      <path d="M237.25,134.461 C237.254,134.469 237.258,134.469 237.262,134.477" fill-opacity="0" stroke="#000000" stroke-width="0.75" stroke-linecap="round" stroke-linejoin="round"/>
      <path d="M253.285,143.734 C254.199,144.07 255.137,144.008 255.984,143.668 C256.836,143.328 257.594,142.719 258.301,142.086 C259.008,141.449 259.668,140.789 260.324,140.113 C260.977,139.441 261.629,138.754 262.281,138.082 C262.938,137.406 263.594,136.746 264.305,136.113 C265.012,135.477 265.77,134.867 266.617,134.527 C267.469,134.191 268.406,134.125 269.32,134.461" fill-opacity="0" stroke="#000000" stroke-width="0.75" stroke-linecap="round" stroke-linejoin="round"/>
      <path d="M253.285,121.516 L253.285,134.32" fill-opacity="0" stroke="#666666" stroke-width="0.5" stroke-dasharray="1,1" stroke-linecap="round" stroke-linejoin="round"/>
      <g>
        <path d="M237.25,38.195 C237.832,38.91 238.262,39.77 238.891,40.438 C239.52,41.105 240.344,41.59 241.207,41.941 C242.07,42.297 242.969,42.52 243.883,42.656 C244.801,42.793 245.734,42.84 246.648,42.977 C247.566,43.113 248.465,43.336 249.328,43.688 C250.188,44.043 251.016,44.523 251.645,45.195 C252.273,45.863 252.703,46.723 253.285,47.438 C249.992,56.645 246.816,65.887 243.898,75.219 C240.094,63.062 237.332,51.098 237.25,38.195 z M237.25,38.195" fill="#FFFFFF"/>
        <path d="M237.25,38.195 C237.832,38.91 238.262,39.77 238.891,40.438 C239.52,41.105 240.344,41.59 241.207,41.941 C242.07,42.297 242.969,42.52 243.883,42.656 C244.801,42.793 245.734,42.84 246.648,42.977 C247.566,43.113 248.465,43.336 249.328,43.688 C250.188,44.043 251.016,44.523 251.645,45.195 C252.273,45.863 252.703,46.723 253.285,47.438 C249.992,56.645 246.816,65.887 243.898,75.219 C240.094,63.062 237.332,51.098 237.25,38.195 z M237.25,38.195" fill-opacity="0" stroke="#000000" stroke-width="0.5" stroke-linecap="round" stroke-linejoin="round"/>
      </g>
      <g>
        <path d="M269.32,38.195 C269.199,67.441 262.977,94.258 253.285,121.516 C252.703,120.797 252.277,119.934 251.648,119.262 C251.023,118.59 250.195,118.105 249.328,117.754 C248.469,117.398 247.566,117.176 246.652,117.039 C245.734,116.902 244.801,116.855 243.883,116.719 C242.965,116.582 242.066,116.355 241.203,116.004 C240.34,115.648 239.512,115.168 238.883,114.496 C238.258,113.824 237.832,112.961 237.25,112.242 C237.332,99.34 240.094,87.371 243.898,75.219 C246.816,65.887 249.992,56.645 253.285,47.438 C254.195,47.785 255.137,47.723 255.984,47.387 C256.832,47.051 257.594,46.438 258.301,45.805 C259.008,45.168 259.668,44.508 260.324,43.832 C260.977,43.16 261.629,42.473 262.281,41.797 C262.938,41.125 263.594,40.465 264.305,39.828 C265.012,39.191 265.77,38.582 266.621,38.246 C267.469,37.91 268.406,37.848 269.32,38.195 z M269.32,38.195" fill="#FFFFFF"/>
        <path d="M269.32,38.195 C269.199,67.441 262.977,94.258 253.285,121.516 C252.703,120.797 252.277,119.934 251.648,119.262 C251.023,118.59 250.195,118.105 249.328,117.754 C248.469,117.398 247.566,117.176 246.652,117.039 C245.734,116.902 244.801,116.855 243.883,116.719 C242.965,116.582 242.066,116.355 241.203,116.004 C240.34,115.648 239.512,115.168 238.883,114.496 C238.258,113.824 237.832,112.961 237.25,112.242 C237.332,99.34 240.094,87.371 243.898,75.219 C246.816,65.887 249.992,56.645 253.285,47.438 C254.195,47.785 255.137,47.723 255.984,47.387 C256.832,47.051 257.594,46.438 258.301,45.805 C259.008,45.168 259.668,44.508 260.324,43.832 C260.977,43.16 261.629,42.473 262.281,41.797 C262.938,41.125 263.594,40.465 264.305,39.828 C265.012,39.191 265.77,38.582 266.621,38.246 C267.469,37.91 268.406,37.848 269.32,38.195 z M269.32,38.195" fill-opacity="0" stroke="#000000" stroke-width="0.5" stroke-linecap="round" stroke-linejoin="round"/>
      </g>
      <g>
        <path d="M253.285,121.516 C254.199,121.852 255.137,121.785 255.984,121.449 C256.836,121.109 257.594,120.5 258.301,119.867 C259.008,119.23 259.668,118.57 260.324,117.895 C260.977,117.223 261.629,116.535 262.281,115.863 C262.938,115.188 263.594,114.527 264.305,113.895 C265.012,113.258 265.77,112.648 266.617,112.309 C267.469,111.973 268.406,111.906 269.32,112.242 C269.266,99.754 268.152,87.508 265.914,75.219 C263.031,91.074 258.676,106.359 253.285,121.516 z M253.285,121.516" fill="#FFFFFF"/>
        <path d="M253.285,121.516 C254.199,121.852 255.137,121.785 255.984,121.449 C256.836,121.109 257.594,120.5 258.301,119.867 C259.008,119.23 259.668,118.57 260.324,117.895 C260.977,117.223 261.629,116.535 262.281,115.863 C262.938,115.188 263.594,114.527 264.305,113.895 C265.012,113.258 265.77,112.648 266.617,112.309 C267.469,111.973 268.406,111.906 269.32,112.242 C269.266,99.754 268.152,87.508 265.914,75.219 C263.031,91.074 258.676,106.359 253.285,121.516 z M253.285,121.516" fill-opacity="0" stroke="#000000" stroke-width="0.5" stroke-linecap="round" stroke-linejoin="round"/>
      </g>
      <g>
        <path d="M237.25,38.195 C237.832,38.91 238.262,39.77 238.891,40.438 C239.52,41.105 240.344,41.59 241.207,41.941 C242.07,42.297 242.969,42.52 243.883,42.656 C244.801,42.793 245.734,42.84 246.648,42.977 C247.566,43.113 248.465,43.336 249.328,43.688 C250.188,44.043 251.016,44.523 251.645,45.195 C252.273,45.863 252.703,46.723 253.285,47.438 C254.195,47.785 255.137,47.723 255.984,47.387 C256.832,47.051 257.594,46.438 258.301,45.805 C259.008,45.168 259.668,44.508 260.324,43.832 C260.977,43.16 261.629,42.473 262.281,41.797 C262.938,41.125 263.594,40.465 264.305,39.828 C265.012,39.191 265.77,38.582 266.621,38.246 C267.469,37.91 268.406,37.848 269.32,38.195 C268.406,38.531 267.469,38.465 266.617,38.129 C265.77,37.789 265.012,37.18 264.305,36.543 C263.594,35.91 262.938,35.25 262.281,34.574 C261.629,33.902 260.977,33.215 260.324,32.539 C259.668,31.867 259.008,31.207 258.301,30.57 C257.594,29.938 256.836,29.328 255.984,28.988 C255.137,28.648 254.199,28.586 253.285,28.922 C252.703,29.641 252.277,30.504 251.648,31.176 C251.023,31.848 250.195,32.328 249.328,32.684 C248.469,33.035 247.566,33.262 246.652,33.398 C245.734,33.535 244.801,33.582 243.883,33.719 C242.965,33.855 242.066,34.078 241.203,34.434 C240.34,34.785 239.512,35.27 238.883,35.941 C238.258,36.613 237.832,37.477 237.25,38.195 z M237.25,38.195" fill="#FFFFFF"/>
        <path d="M237.25,38.195 C237.832,38.91 238.262,39.77 238.891,40.438 C239.52,41.105 240.344,41.59 241.207,41.941 C242.07,42.297 242.969,42.52 243.883,42.656 C244.801,42.793 245.734,42.84 246.648,42.977 C247.566,43.113 248.465,43.336 249.328,43.688 C250.188,44.043 251.016,44.523 251.645,45.195 C252.273,45.863 252.703,46.723 253.285,47.438 C254.195,47.785 255.137,47.723 255.984,47.387 C256.832,47.051 257.594,46.438 258.301,45.805 C259.008,45.168 259.668,44.508 260.324,43.832 C260.977,43.16 261.629,42.473 262.281,41.797 C262.938,41.125 263.594,40.465 264.305,39.828 C265.012,39.191 265.77,38.582 266.621,38.246 C267.469,37.91 268.406,37.848 269.32,38.195 C268.406,38.531 267.469,38.465 266.617,38.129 C265.77,37.789 265.012,37.18 264.305,36.543 C263.594,35.91 262.938,35.25 262.281,34.574 C261.629,33.902 260.977,33.215 260.324,32.539 C259.668,31.867 259.008,31.207 258.301,30.57 C257.594,29.938 256.836,29.328 255.984,28.988 C255.137,28.648 254.199,28.586 253.285,28.922 C252.703,29.641 252.277,30.504 251.648,31.176 C251.023,31.848 250.195,32.328 249.328,32.684 C248.469,33.035 247.566,33.262 246.652,33.398 C245.734,33.535 244.801,33.582 243.883,33.719 C242.965,33.855 242.066,34.078 241.203,34.434 C240.34,34.785 239.512,35.27 238.883,35.941 C238.258,36.613 237.832,37.477 237.25,38.195 z M237.25,38.195" fill-opacity="0" stroke="#000000" stroke-width="0.5" stroke-linecap="round" stroke-linejoin="round"/>
      </g>
      <path d="M253.285,28.922 C254.199,28.586 255.137,28.648 255.984,28.988 C256.836,29.328 257.594,29.938 258.301,30.57 C259.008,31.207 259.668,31.867 260.324,32.543 C260.977,33.215 261.629,33.902 262.281,34.574 C262.938,35.25 263.594,35.91 264.305,36.543 C265.012,37.18 265.77,37.789 266.617,38.125 C267.469,38.465 268.406,38.531 269.32,38.195 C269.266,50.684 268.152,62.93 265.914,75.219 C268.152,87.508 269.266,99.754 269.32,112.242 C268.406,111.906 267.469,111.973 266.617,112.309 C265.77,112.648 265.012,113.258 264.305,113.895 C263.594,114.527 262.938,115.188 262.281,115.859 C261.629,116.535 260.977,117.223 260.324,117.895 C259.668,118.57 259.008,119.23 258.301,119.867 C257.594,120.5 256.836,121.109 255.984,121.449 C255.137,121.789 254.199,121.852 253.285,121.516 C252.703,120.797 252.277,119.934 251.648,119.262 C251.023,118.59 250.195,118.109 249.328,117.754 C248.469,117.398 247.566,117.176 246.652,117.039 C245.734,116.902 244.801,116.855 243.883,116.719 C242.965,116.582 242.066,116.355 241.203,116.004 C240.34,115.648 239.512,115.168 238.883,114.496 C238.258,113.824 237.832,112.961 237.25,112.242 C237.332,99.34 240.094,87.375 243.898,75.219 C240.094,63.062 237.332,51.098 237.25,38.195 C237.832,37.477 238.258,36.613 238.883,35.941 C239.512,35.27 240.34,34.785 241.203,34.434 C242.066,34.078 242.965,33.855 243.883,33.719 C244.801,33.582 245.734,33.535 246.652,33.398 C247.566,33.262 248.469,33.035 249.328,32.684 C250.195,32.328 251.023,31.848 251.648,31.176 C252.277,30.504 252.703,29.641 253.285,28.922 z M253.285,28.922" fill-opacity="0" stroke="#000000" stroke-width="1.25" stroke-linecap="round" stroke-linejoin="round"/>
      <path d="M254.086,38.648 C254.66,38.32 254.441,37.824 253.871,37.629 C253.363,37.449 252.961,37.449 252.484,37.723 C251.91,38.055 252.129,38.547 252.699,38.746 C253.203,38.922 253.609,38.926 254.086,38.648 z M254.086,38.648" fill="#000000"/>
      <path d="M254.086,38.648 C254.66,38.316 254.441,37.824 253.871,37.629 C253.363,37.449 252.961,37.449 252.484,37.723 C251.91,38.055 252.129,38.547 252.699,38.746 C253.203,38.922 253.609,38.926 254.086,38.648 z M254.086,38.648" fill-opacity="0" stroke="#000000" stroke-width="0.25" stroke-linecap="round" stroke-linejoin="round"/>
      <path d="M253.285,38.188 L253.285,19.672" fill-opacity="0" stroke="#666666" stroke-width="0.5" stroke-dasharray="1.5,1" stroke-linecap="round" stroke-linejoin="round"/>
      <path d="M94.82,218.883 C93.863,219.176 92.91,219.477 91.957,219.789 C91.004,220.098 90.051,220.418 89.105,220.738 C88.156,221.066 87.211,221.395 86.266,221.73 C85.32,222.066 84.379,222.406 83.438,222.75 C82.496,223.098 81.559,223.449 80.621,223.801 C79.684,224.152 78.746,224.508 77.812,224.871 C76.875,225.23 75.941,225.594 75.008,225.957 C75.852,226.652 76.707,227.34 77.578,228 C78.449,228.66 79.34,229.297 80.25,229.906 C81.16,230.516 82.09,231.094 83.027,231.656 C83.965,232.219 84.918,232.766 85.879,233.281 C86.844,233.801 87.82,234.293 88.809,234.766 C89.793,235.242 90.785,235.699 91.793,236.137 C92.793,236.57 93.809,236.984 94.82,237.395 C95.43,236.879 96.035,236.359 96.641,235.836 C97.246,235.316 97.848,234.789 98.445,234.258 C99.043,233.73 99.637,233.195 100.23,232.66 C100.82,232.125 101.41,231.582 101.996,231.039 C102.578,230.492 103.156,229.941 103.727,229.383 C104.301,228.828 104.871,228.266 105.43,227.695 C105.988,227.125 106.535,226.543 107.078,225.957 C106.43,225.746 105.781,225.535 105.141,225.305 C104.5,225.074 103.863,224.824 103.238,224.559 C102.609,224.293 101.988,224.012 101.379,223.703 C100.77,223.395 100.176,223.062 99.59,222.711 C99.008,222.359 98.434,221.984 97.883,221.586 C97.332,221.184 96.797,220.758 96.289,220.305 C95.781,219.852 95.293,219.371 94.82,218.883 z M94.82,218.883" fill-opacity="0" stroke="#000000" stroke-width="0.75" stroke-linecap="round" stroke-linejoin="round"/>
      <path d="M92.973,226.824 C92.957,219.918 92.945,213.012 92.934,206.105 C92.922,199.152 92.484,192.348 91.012,185.512 C88.121,172.078 81.531,159.219 68.891,151.887" fill-opacity="0" stroke="#666666" stroke-width="0.5" stroke-dasharray="1.5,1" stroke-linecap="round" stroke-linejoin="round"/>
      <g>
        <path d="M107.078,203.738 C106.785,204.055 106.488,204.371 106.195,204.688 C105.871,205.016 105.551,205.348 105.234,205.676 C104.887,206.023 104.543,206.367 104.195,206.715 C103.824,207.07 103.453,207.43 103.082,207.793 C102.688,208.164 102.293,208.539 101.895,208.914 C101.473,209.301 101.055,209.691 100.633,210.078 C100.184,210.484 99.738,210.883 99.293,211.289 C98.82,211.703 98.348,212.125 97.879,212.539 C97.383,212.973 96.883,213.406 96.387,213.836 C95.867,214.285 95.344,214.73 94.82,215.18 C94.793,198.082 90.152,177.328 73.25,167.5 C73.582,166.633 73.914,165.766 74.246,164.898 C74.562,164.066 74.875,163.227 75.191,162.395 C75.488,161.59 75.781,160.785 76.082,159.98 C76.359,159.207 76.637,158.434 76.914,157.66 C77.176,156.918 77.438,156.172 77.699,155.43 C77.941,154.719 78.184,154.008 78.426,153.297 C78.652,152.613 78.879,151.934 79.105,151.254 C79.312,150.602 79.52,149.953 79.727,149.301 C79.914,148.684 80.105,148.062 80.293,147.441 C80.469,146.855 80.641,146.266 80.812,145.676 C101.395,157.648 107.047,182.922 107.078,203.738 z M107.078,203.738" fill="#FFFFFF"/>
        <path d="M107.078,203.738 C106.785,204.055 106.488,204.371 106.195,204.688 C105.871,205.016 105.551,205.348 105.234,205.676 C104.887,206.023 104.543,206.367 104.195,206.715 C103.824,207.07 103.453,207.43 103.082,207.793 C102.688,208.164 102.293,208.539 101.895,208.914 C101.473,209.301 101.055,209.691 100.633,210.078 C100.184,210.484 99.738,210.883 99.293,211.289 C98.82,211.703 98.348,212.125 97.879,212.539 C97.383,212.973 96.883,213.406 96.387,213.836 C95.867,214.285 95.344,214.73 94.82,215.18 C94.793,198.082 90.152,177.328 73.25,167.5 C73.582,166.633 73.914,165.766 74.246,164.898 C74.562,164.066 74.875,163.227 75.191,162.395 C75.488,161.59 75.781,160.785 76.082,159.98 C76.359,159.207 76.637,158.434 76.914,157.66 C77.176,156.918 77.438,156.172 77.699,155.43 C77.941,154.719 78.184,154.008 78.426,153.297 C78.652,152.613 78.879,151.934 79.105,151.254 C79.312,150.602 79.52,149.953 79.727,149.301 C79.914,148.684 80.105,148.062 80.293,147.441 C80.469,146.855 80.641,146.266 80.812,145.676 C101.395,157.648 107.047,182.922 107.078,203.738 z M107.078,203.738" fill-opacity="0" stroke="#000000" stroke-width="0.5" stroke-linecap="round" stroke-linejoin="round"/>
      </g>
      <g>
        <path d="M94.82,215.176 C94.047,214.863 93.273,214.547 92.5,214.23 C91.75,213.898 91.004,213.57 90.254,213.238 C89.531,212.895 88.809,212.551 88.086,212.203 C87.387,211.844 86.688,211.484 85.988,211.125 C85.316,210.754 84.645,210.379 83.973,210.004 C83.324,209.613 82.676,209.227 82.027,208.836 C81.406,208.434 80.781,208.031 80.16,207.629 C79.562,207.211 78.965,206.793 78.367,206.375 C77.793,205.941 77.223,205.512 76.652,205.078 C76.105,204.633 75.555,204.188 75.008,203.738 C74.98,186.645 70.34,165.891 53.438,156.059 C54.254,156.797 55.074,157.523 55.922,158.227 C56.766,158.93 57.637,159.602 58.527,160.246 C59.422,160.887 60.332,161.496 61.27,162.078 C62.199,162.656 63.152,163.207 64.121,163.727 C65.094,164.246 66.078,164.73 67.078,165.184 C68.082,165.633 69.102,166.051 70.129,166.43 C71.164,166.812 72.203,167.16 73.25,167.496 C90.152,177.328 94.793,198.082 94.82,215.176 z M94.82,215.176" fill="#FFFFFF"/>
        <path d="M94.82,215.176 C94.047,214.863 93.273,214.547 92.5,214.23 C91.75,213.898 91.004,213.57 90.254,213.238 C89.531,212.895 88.809,212.551 88.086,212.203 C87.387,211.844 86.688,211.484 85.988,211.125 C85.316,210.754 84.645,210.379 83.973,210.004 C83.324,209.613 82.676,209.227 82.027,208.836 C81.406,208.434 80.781,208.031 80.16,207.629 C79.562,207.211 78.965,206.793 78.367,206.375 C77.793,205.941 77.223,205.512 76.652,205.078 C76.105,204.633 75.555,204.188 75.008,203.738 C74.98,186.645 70.34,165.891 53.438,156.059 C54.254,156.797 55.074,157.523 55.922,158.227 C56.766,158.93 57.637,159.602 58.527,160.246 C59.422,160.887 60.332,161.496 61.27,162.078 C62.199,162.656 63.152,163.207 64.121,163.727 C65.094,164.246 66.078,164.73 67.078,165.184 C68.082,165.633 69.102,166.051 70.129,166.43 C71.164,166.812 72.203,167.16 73.25,167.496 C90.152,177.328 94.793,198.082 94.82,215.176 z M94.82,215.176" fill-opacity="0" stroke="#000000" stroke-width="0.5" stroke-linecap="round" stroke-linejoin="round"/>
      </g>
      <path d="M80.812,145.676 C80.641,146.266 80.469,146.855 80.297,147.445 C80.105,148.062 79.918,148.684 79.727,149.301 C79.52,149.953 79.312,150.602 79.105,151.254 C78.879,151.934 78.652,152.613 78.43,153.297 C78.184,154.008 77.941,154.719 77.699,155.43 C77.438,156.172 77.176,156.914 76.918,157.66 C76.637,158.434 76.359,159.207 76.078,159.98 C75.785,160.785 75.484,161.59 75.191,162.395 C74.875,163.23 74.562,164.066 74.246,164.898 C73.914,165.766 73.582,166.633 73.25,167.5 C72.203,167.16 71.16,166.812 70.133,166.43 C69.102,166.047 68.082,165.633 67.078,165.18 C66.078,164.73 65.094,164.242 64.125,163.727 C63.152,163.207 62.203,162.66 61.27,162.078 C60.336,161.496 59.422,160.887 58.527,160.242 C57.637,159.602 56.766,158.93 55.922,158.227 C55.074,157.527 54.254,156.797 53.438,156.059 C54.129,155.203 54.82,154.348 55.52,153.496 C56.215,152.645 56.914,151.797 57.617,150.953 C58.32,150.105 59.027,149.262 59.738,148.422 C60.449,147.582 61.164,146.746 61.887,145.918 C62.609,145.086 63.336,144.262 64.07,143.441 C64.801,142.621 65.539,141.805 66.289,141 C67.035,140.191 67.793,139.395 68.555,138.602 C69.008,139.121 69.465,139.637 69.945,140.129 C70.43,140.621 70.938,141.086 71.473,141.527 C72.004,141.961 72.562,142.367 73.141,142.746 C73.715,143.121 74.316,143.465 74.93,143.777 C75.543,144.09 76.176,144.371 76.82,144.613 C77.465,144.855 78.125,145.062 78.793,145.234 C79.461,145.41 80.133,145.547 80.812,145.676 z M80.812,145.676" fill="#FFFFFF"/>
      <path d="M80.812,145.676 C80.641,146.266 80.469,146.855 80.297,147.445 C80.105,148.062 79.918,148.684 79.727,149.301 C79.52,149.949 79.312,150.602 79.105,151.25 C78.879,151.934 78.652,152.613 78.43,153.297 C78.184,154.008 77.941,154.719 77.699,155.43 C77.438,156.172 77.176,156.914 76.918,157.66 C76.637,158.434 76.359,159.207 76.078,159.98 C75.785,160.785 75.484,161.59 75.191,162.395 C74.875,163.23 74.562,164.066 74.246,164.898 C73.914,165.766 73.582,166.633 73.25,167.5 C72.203,167.16 71.16,166.812 70.133,166.43 C69.102,166.047 68.082,165.633 67.078,165.18 C66.078,164.73 65.094,164.242 64.125,163.727 C63.152,163.207 62.203,162.66 61.27,162.078 C60.336,161.496 59.422,160.887 58.527,160.242 C57.637,159.602 56.766,158.93 55.922,158.227 C55.074,157.527 54.254,156.797 53.438,156.059 C54.129,155.203 54.82,154.348 55.52,153.496 C56.215,152.645 56.914,151.797 57.617,150.949 C58.32,150.105 59.027,149.262 59.738,148.422 C60.449,147.582 61.164,146.746 61.887,145.918 C62.609,145.086 63.336,144.262 64.07,143.441 C64.801,142.621 65.539,141.805 66.289,141 C67.035,140.191 67.793,139.395 68.555,138.602 C69.008,139.121 69.465,139.637 69.945,140.129 C70.43,140.621 70.938,141.086 71.473,141.527 C72.004,141.961 72.562,142.367 73.141,142.746 C73.715,143.121 74.316,143.465 74.93,143.777 C75.543,144.09 76.176,144.371 76.82,144.613 C77.465,144.855 78.125,145.062 78.793,145.234 C79.461,145.41 80.133,145.547 80.812,145.676 z M80.812,145.676" fill-opacity="0" stroke="#000000" stroke-width="0.5" stroke-linecap="round" stroke-linejoin="round"/>
      <path d="M60.934,161.871 C71.828,172.859 74.984,189.48 75.008,203.738 C75.555,204.184 76.105,204.633 76.652,205.078 C77.223,205.512 77.793,205.941 78.367,206.375 C78.965,206.793 79.562,207.211 80.16,207.629 C80.781,208.031 81.406,208.434 82.027,208.836 C82.676,209.227 83.324,209.613 83.973,210.004 C84.645,210.379 85.316,210.75 85.988,211.125 C86.688,211.484 87.387,211.844 88.086,212.203 C88.809,212.551 89.531,212.895 90.254,213.238 C91.004,213.57 91.75,213.898 92.5,214.23 C93.273,214.547 94.047,214.859 94.82,215.18 C95.344,214.73 95.863,214.285 96.387,213.836 C96.883,213.406 97.383,212.973 97.879,212.543 C98.352,212.125 98.82,211.707 99.293,211.289 C99.738,210.887 100.184,210.48 100.633,210.078 C101.051,209.691 101.477,209.301 101.895,208.914 C102.289,208.539 102.688,208.164 103.082,207.789 C103.453,207.43 103.824,207.07 104.195,206.711 C104.539,206.367 104.887,206.023 105.23,205.676 C105.555,205.348 105.875,205.016 106.191,204.688 C106.488,204.371 106.785,204.055 107.078,203.738 C107.047,182.922 101.395,157.648 80.812,145.676 C80.133,145.547 79.457,145.41 78.793,145.234 C78.125,145.062 77.465,144.855 76.82,144.613 C76.691,144.562 76.562,144.516 76.434,144.461 C74.012,142.199 71.422,140.27 68.555,138.602 C67.793,139.395 67.035,140.191 66.289,141 C65.539,141.805 64.801,142.621 64.066,143.441 C63.336,144.262 62.609,145.086 61.887,145.918 C61.164,146.746 60.449,147.582 59.738,148.422 C59.027,149.262 58.32,150.105 57.617,150.949 C56.914,151.797 56.215,152.645 55.52,153.496 C54.82,154.348 54.129,155.203 53.438,156.059 C54.254,156.797 55.074,157.523 55.922,158.227 C56.766,158.93 57.637,159.602 58.527,160.246 C59.312,160.809 60.117,161.352 60.934,161.871 z M60.934,161.871" fill-opacity="0" stroke="#000000" stroke-width="1.25" stroke-linecap="round" stroke-linejoin="round"/>
      <g>
        <path d="M68.516,152.977 C69.223,153.289 69.547,152.957 69.852,152.352 C70.164,151.738 70.227,151.262 69.508,150.941 C68.805,150.625 68.48,150.961 68.172,151.566 C67.863,152.18 67.797,152.656 68.516,152.977 z M68.516,152.977" fill="#000000"/>
        <path d="M68.516,152.977 C69.223,153.289 69.547,152.957 69.852,152.352 C70.164,151.738 70.227,151.262 69.508,150.941 C68.805,150.625 68.48,150.961 68.172,151.566 C67.863,152.18 67.797,152.656 68.516,152.977 z M68.516,152.977" fill-opacity="0" stroke="#000000" stroke-width="0.25" stroke-linecap="round" stroke-linejoin="round"/>
      </g>
      <path d="M68.891,151.887 L57.695,145.375" fill-opacity="0" stroke="#666666" stroke-width="0.5" stroke-dasharray="1.5,1" stroke-linecap="round" stroke-linejoin="round"/>
      <path d="M271.211,225.957 L269.566,227.297 L267.852,228.594 L266.059,229.848 L264.191,231.059 L262.246,232.223 L260.227,233.344 L258.133,234.422 L255.961,235.457 L253.715,236.449 L251.395,237.398 L249.828,236.059 L248.34,234.758 L246.926,233.508 L245.586,232.297 L244.324,231.133 L243.133,230.012 L242.023,228.934 L240.984,227.898 L240.023,226.906 L239.137,225.957 L240.703,225.445 L242.195,224.891 L243.609,224.293 L244.949,223.648 L246.211,222.965 L247.398,222.234 L248.512,221.461 L249.547,220.645 L250.512,219.785 L251.395,218.879 L253.035,219.395 L254.754,219.949 L256.547,220.547 L258.414,221.188 L260.359,221.875 L262.379,222.605 L264.473,223.375 L266.641,224.191 L268.887,225.055 z M271.211,225.957" fill-opacity="0" stroke="#000000" stroke-width="0.75" stroke-linecap="round" stroke-linejoin="round"/>
      <path d="M253.242,227.023 C253.262,220.105 253.273,213.188 253.281,206.266 C253.293,199.305 253.73,192.484 255.199,185.637 C258.07,172.215 264.656,159.258 277.266,151.922" fill-opacity="0" stroke="#666666" stroke-width="0.5" stroke-dasharray="1.5,1" stroke-linecap="round" stroke-linejoin="round"/>
      <g>
        <path d="M251.395,215.176 C251.422,198.082 256.062,177.328 272.969,167.496 C274.012,167.16 275.055,166.812 276.086,166.43 C277.117,166.051 278.137,165.633 279.137,165.184 C280.141,164.73 281.125,164.246 282.094,163.727 C283.062,163.207 284.016,162.656 284.949,162.078 C285.883,161.496 286.797,160.887 287.691,160.246 C288.582,159.602 289.453,158.93 290.297,158.227 C291.145,157.523 291.965,156.797 292.781,156.059 C275.879,165.891 271.238,186.645 271.207,203.738 C270.363,204.434 269.512,205.121 268.641,205.781 C267.766,206.441 266.879,207.078 265.969,207.688 C265.059,208.297 264.129,208.875 263.191,209.438 C262.25,210 261.305,210.547 260.34,211.062 C259.375,211.582 258.398,212.074 257.41,212.551 C256.426,213.023 255.43,213.48 254.426,213.918 C253.422,214.352 252.41,214.766 251.395,215.176 z M251.395,215.176" fill="#FFFFFF"/>
        <path d="M251.395,215.176 C251.422,198.082 256.062,177.328 272.969,167.496 C274.012,167.16 275.055,166.812 276.086,166.43 C277.117,166.051 278.137,165.633 279.137,165.184 C280.141,164.73 281.125,164.246 282.094,163.727 C283.062,163.207 284.016,162.656 284.949,162.078 C285.883,161.496 286.797,160.887 287.691,160.246 C288.582,159.602 289.453,158.93 290.297,158.227 C291.145,157.523 291.965,156.797 292.781,156.059 C275.879,165.891 271.238,186.645 271.207,203.738 C270.363,204.434 269.512,205.121 268.641,205.781 C267.766,206.441 266.879,207.078 265.969,207.688 C265.059,208.297 264.129,208.875 263.191,209.438 C262.25,210 261.305,210.547 260.34,211.062 C259.375,211.582 258.398,212.074 257.41,212.551 C256.426,213.023 255.43,213.48 254.426,213.918 C253.422,214.352 252.41,214.766 251.395,215.176 z M251.395,215.176" fill-opacity="0" stroke="#000000" stroke-width="0.5" stroke-linecap="round" stroke-linejoin="round"/>
      </g>
      <path d="M265.406,145.676 C244.824,157.648 239.172,182.922 239.141,203.738 C239.684,204.324 240.23,204.906 240.789,205.477 C241.348,206.047 241.918,206.609 242.488,207.164 C243.062,207.723 243.641,208.273 244.223,208.82 C244.805,209.367 245.395,209.906 245.988,210.441 C246.578,210.977 247.176,211.508 247.773,212.039 C248.371,212.57 248.973,213.094 249.574,213.617 C250.18,214.141 250.789,214.66 251.395,215.18 C251.422,198.082 256.062,177.328 272.965,167.5 C272.574,166.473 272.176,165.445 271.789,164.414 C271.398,163.387 271.016,162.355 270.633,161.324 C270.254,160.293 269.875,159.258 269.504,158.223 C269.133,157.188 268.77,156.148 268.41,155.109 C268.051,154.07 267.699,153.027 267.355,151.984 C267.012,150.938 266.676,149.891 266.352,148.84 C266.027,147.789 265.711,146.734 265.406,145.676 z M265.406,145.676" fill="#FFFFFF"/>
      <path d="M265.406,145.676 C244.824,157.648 239.172,182.922 239.141,203.738 C239.684,204.324 240.23,204.906 240.789,205.477 C241.348,206.047 241.918,206.609 242.488,207.164 C243.062,207.719 243.641,208.273 244.223,208.816 C244.805,209.367 245.395,209.906 245.988,210.441 C246.578,210.977 247.176,211.508 247.773,212.039 C248.371,212.57 248.973,213.094 249.574,213.617 C250.18,214.141 250.789,214.66 251.395,215.18 C251.422,198.082 256.062,177.328 272.965,167.5 C272.574,166.473 272.176,165.445 271.789,164.414 C271.398,163.387 271.016,162.355 270.633,161.324 C270.254,160.293 269.875,159.258 269.504,158.223 C269.133,157.188 268.77,156.148 268.41,155.109 C268.051,154.07 267.699,153.027 267.355,151.984 C267.012,150.938 266.676,149.891 266.352,148.84 C266.027,147.789 265.711,146.734 265.406,145.676 z M265.406,145.676" fill-opacity="0" stroke="#000000" stroke-width="0.5" stroke-linecap="round" stroke-linejoin="round"/>
      <path d="M265.406,145.676 C266.082,145.547 266.758,145.41 267.426,145.234 C268.094,145.062 268.754,144.855 269.398,144.613 C270.043,144.371 270.672,144.09 271.289,143.777 C271.902,143.465 272.5,143.121 273.078,142.746 C273.656,142.367 274.215,141.961 274.746,141.527 C275.277,141.086 275.789,140.621 276.27,140.129 C276.754,139.637 277.211,139.121 277.664,138.602 C278.426,139.395 279.184,140.191 279.93,141 C280.68,141.805 281.418,142.621 282.148,143.441 C282.883,144.262 283.609,145.086 284.332,145.918 C285.055,146.746 285.77,147.582 286.477,148.422 C287.191,149.262 287.898,150.105 288.602,150.953 C289.305,151.797 290.004,152.645 290.699,153.496 C291.395,154.348 292.09,155.203 292.781,156.059 C291.965,156.797 291.141,157.527 290.297,158.227 C289.453,158.93 288.582,159.602 287.691,160.242 C286.797,160.887 285.883,161.496 284.949,162.078 C284.016,162.66 283.062,163.207 282.094,163.727 C281.125,164.242 280.141,164.73 279.137,165.18 C278.137,165.633 277.117,166.047 276.086,166.43 C275.055,166.812 274.012,167.16 272.965,167.5 C272.574,166.473 272.176,165.445 271.789,164.414 C271.398,163.387 271.016,162.355 270.633,161.324 C270.254,160.293 269.875,159.258 269.504,158.223 C269.133,157.188 268.77,156.148 268.41,155.109 C268.051,154.07 267.699,153.027 267.355,151.984 C267.012,150.938 266.676,149.891 266.352,148.84 C266.027,147.789 265.711,146.734 265.406,145.676 z M265.406,145.676" fill="#FFFFFF"/>
      <path d="M265.406,145.676 C266.082,145.547 266.758,145.41 267.426,145.234 C268.094,145.062 268.754,144.855 269.398,144.613 C270.043,144.371 270.672,144.09 271.289,143.777 C271.902,143.465 272.5,143.121 273.078,142.746 C273.656,142.367 274.215,141.961 274.746,141.527 C275.277,141.086 275.789,140.621 276.27,140.129 C276.754,139.637 277.211,139.121 277.664,138.602 C278.426,139.395 279.184,140.191 279.93,141 C280.68,141.805 281.418,142.621 282.148,143.441 C282.883,144.262 283.609,145.086 284.332,145.918 C285.055,146.746 285.77,147.582 286.477,148.422 C287.191,149.262 287.898,150.105 288.602,150.949 C289.305,151.797 290.004,152.645 290.699,153.496 C291.395,154.348 292.09,155.203 292.781,156.059 C291.965,156.797 291.141,157.527 290.297,158.227 C289.453,158.93 288.582,159.602 287.691,160.242 C286.797,160.887 285.883,161.496 284.949,162.078 C284.016,162.66 283.062,163.207 282.094,163.727 C281.125,164.242 280.141,164.73 279.137,165.18 C278.137,165.633 277.117,166.047 276.086,166.43 C275.055,166.812 274.012,167.16 272.965,167.5 C272.574,166.473 272.176,165.445 271.789,164.414 C271.398,163.387 271.016,162.355 270.633,161.324 C270.254,160.293 269.875,159.258 269.504,158.223 C269.133,157.188 268.77,156.148 268.41,155.109 C268.051,154.07 267.699,153.027 267.355,151.984 C267.012,150.938 266.676,149.891 266.352,148.84 C266.027,147.789 265.711,146.734 265.406,145.676 z M265.406,145.676" fill-opacity="0" stroke="#000000" stroke-width="0.5" stroke-linecap="round" stroke-linejoin="round"/>
      <path d="M239.137,203.738 C239.172,182.922 244.824,157.648 265.406,145.676 C266.086,145.547 266.758,145.41 267.426,145.234 C268.094,145.062 268.75,144.855 269.398,144.613 C269.527,144.562 269.656,144.516 269.785,144.461 C272.207,142.199 274.797,140.27 277.664,138.602 C278.426,139.395 279.184,140.191 279.93,141 C280.68,141.805 281.418,142.621 282.148,143.441 C282.883,144.262 283.609,145.086 284.332,145.918 C285.051,146.75 285.766,147.582 286.48,148.422 C287.191,149.262 287.898,150.105 288.602,150.953 C289.305,151.797 290.004,152.645 290.699,153.496 C291.395,154.348 292.086,155.203 292.781,156.059 C291.965,156.797 291.141,157.527 290.297,158.227 C289.449,158.93 288.582,159.602 287.688,160.242 C286.902,160.809 286.102,161.352 285.281,161.871 C274.387,172.859 271.23,189.48 271.211,203.738 C270.367,204.438 269.512,205.121 268.641,205.781 C267.766,206.441 266.875,207.078 265.969,207.688 C265.059,208.297 264.129,208.875 263.191,209.438 C262.25,210 261.301,210.547 260.34,211.066 C259.375,211.582 258.395,212.074 257.41,212.547 C256.426,213.023 255.43,213.48 254.426,213.918 C253.422,214.352 252.41,214.766 251.395,215.18 C250.789,214.66 250.184,214.141 249.578,213.617 C248.973,213.094 248.371,212.57 247.773,212.039 C247.176,211.508 246.582,210.977 245.988,210.441 C245.395,209.906 244.805,209.363 244.223,208.82 C243.641,208.273 243.062,207.723 242.488,207.164 C241.918,206.609 241.348,206.047 240.789,205.477 C240.23,204.906 239.684,204.324 239.137,203.738 z M239.137,203.738" fill-opacity="0" stroke="#000000" stroke-width="1.25" stroke-linecap="round" stroke-linejoin="round"/>
      <g>
        <path d="M277.84,152.898 C278.461,152.441 278.336,151.996 277.965,151.43 C277.586,150.855 277.207,150.555 276.57,151.02 C275.945,151.477 276.07,151.922 276.445,152.488 C276.82,153.062 277.203,153.359 277.84,152.898 z M277.84,152.898" fill="#000000"/>
        <path d="M277.84,152.898 C278.461,152.441 278.336,151.996 277.965,151.43 C277.586,150.855 277.207,150.555 276.57,151.02 C275.945,151.477 276.07,151.922 276.445,152.488 C276.82,153.062 277.203,153.359 277.84,152.898 z M277.84,152.898" fill-opacity="0" stroke="#000000" stroke-width="0.25" stroke-linecap="round" stroke-linejoin="round"/>
      </g>
      <path d="M277.266,151.922 C281.016,149.742 284.77,147.559 288.52,145.375" fill-opacity="0" stroke="#666666" stroke-width="0.5" stroke-dasharray="1.5,1" stroke-linecap="round" stroke-linejoin="round"/>
      <path d="M173.109,167.797 L173.109,84.477" fill-opacity="0" stroke="#666666" stroke-width="0.5" stroke-dasharray="1.5,1" stroke-linecap="round" stroke-linejoin="round"/>
      <path d="M173.109,167.797 L173.109,180.426" fill-opacity="0" stroke="#666666" stroke-width="0.5" stroke-dasharray="1,1" stroke-linecap="round" stroke-linejoin="round"/>
      <g>
        <path d="M157.074,84.477 L173.109,93.734 L173.109,167.797 L157.074,158.539 z M157.074,84.477" fill="#FFFFFF"/>
        <path d="M157.074,84.477 L173.109,93.734 L173.109,167.797 L157.074,158.539 z M157.074,84.477" fill-opacity="0" stroke="#6887FF" stroke-width="0.5" stroke-linecap="round" stroke-linejoin="round"/>
      </g>
      <g>
        <path d="M189.145,158.539 L173.109,167.797 L173.109,93.734 L189.145,84.477 z M189.145,158.539" fill="#FFFFFF"/>
        <path d="M189.145,158.539 L173.109,167.797 L173.109,93.734 L189.145,84.477 z M189.145,158.539" fill-opacity="0" stroke="#6887FF" stroke-width="0.5" stroke-linecap="round" stroke-linejoin="round"/>
      </g>
      <g>
        <path d="M173.109,93.734 L189.145,84.477 L173.109,75.219 L157.074,84.477 z M173.109,93.734" fill="#FFFFFF"/>
        <path d="M173.109,93.734 L189.145,84.477 L173.109,75.219 L157.074,84.477 z M173.109,93.734" fill-opacity="0" stroke="#6887FF" stroke-width="0.5" stroke-linecap="round" stroke-linejoin="round"/>
      </g>
      <path d="M189.145,158.539 L173.109,167.797 L157.074,158.539 L157.074,84.477 L173.109,75.219 L189.145,84.477 z M189.145,158.539" fill-opacity="0" stroke="#6887FF" stroke-width="1.25" stroke-linecap="round" stroke-linejoin="round"/>
      <g>
        <path d="M173.91,84.938 C174.484,84.609 174.266,84.113 173.695,83.918 C173.188,83.738 172.785,83.738 172.309,84.012 C171.734,84.344 171.953,84.84 172.523,85.035 C173.027,85.211 173.434,85.215 173.91,84.938 z M173.91,84.938" fill="#000000"/>
        <path d="M173.91,84.938 C174.484,84.609 174.266,84.113 173.695,83.918 C173.188,83.738 172.785,83.738 172.309,84.012 C171.734,84.344 171.953,84.84 172.523,85.035 C173.027,85.211 173.434,85.215 173.91,84.938 z M173.91,84.938" fill-opacity="0" stroke="#000000" stroke-width="0.25" stroke-linecap="round" stroke-linejoin="round"/>
      </g>
      <path d="M173.109,84.477 L173.109,65.961" fill-opacity="0" stroke="#666666" stroke-width="0.5" stroke-dasharray="1.5,1" stroke-linecap="round" stroke-linejoin="round"/>
      <path d="M298.98,141.492 C298.344,142.641 298.246,143.484 298.246,143.746 C298.246,144.152 298.375,144.195 298.535,144.195 C299.41,144.195 300.078,143.457 300.078,143.117 C300.078,143.02 300,143 299.957,143 C299.879,143 299.859,143.039 299.828,143.117 C299.719,143.316 299.27,143.516 298.594,143.527 C298.574,143.477 298.555,143.418 298.555,143.348 C298.555,143.188 298.781,142.25 299.27,141.473 C299.469,141.176 299.48,141.164 299.789,140.957 C300.168,140.695 300.727,140.328 300.777,140.277 C300.785,140.258 300.844,140.199 300.844,140.098 C300.844,139.891 300.625,139.84 300.527,139.84 C300.289,139.84 300.098,139.969 299.977,140.051 L296.164,142.59 C296.453,142.102 296.898,141.066 296.898,140.328 C296.898,140.09 296.898,139.879 296.621,139.879 C295.723,139.879 295.078,140.637 295.078,140.957 C295.078,141.016 295.117,141.074 295.195,141.074 C295.277,141.074 295.297,141.027 295.336,140.957 C295.414,140.777 295.883,140.547 296.562,140.547 C296.59,140.605 296.59,140.695 296.59,140.727 C296.59,141.266 295.895,142.77 295.613,142.957 C295.566,142.988 295.566,143 295.215,143.219 L294.559,143.656 C294.391,143.773 294.309,143.824 294.309,143.973 C294.309,144.223 294.598,144.234 294.629,144.234 C294.867,144.234 295.066,144.094 295.176,144.023 z M298.98,141.492" fill="#000000"/>
      <path d="M303.66,145.676 L303.66,145.426 L303.398,145.426 C302.699,145.426 302.699,145.336 302.699,145.105 L302.699,141.242 C302.699,141.055 302.684,141.047 302.488,141.047 C302.043,141.488 301.41,141.492 301.121,141.492 L301.121,141.746 C301.289,141.746 301.75,141.746 302.133,141.551 L302.133,145.105 C302.133,145.336 302.133,145.426 301.438,145.426 L301.172,145.426 L301.172,145.676 L302.414,145.648 z M303.66,145.676" fill="#000000"/>
      <path d="M253.137,10.641 C252.5,11.785 252.402,12.633 252.402,12.891 C252.402,13.301 252.531,13.34 252.691,13.34 C253.566,13.34 254.234,12.602 254.234,12.262 C254.234,12.164 254.156,12.145 254.113,12.145 C254.035,12.145 254.016,12.184 253.984,12.262 C253.875,12.461 253.426,12.66 252.75,12.672 C252.73,12.621 252.711,12.562 252.711,12.492 C252.711,12.332 252.938,11.398 253.426,10.621 C253.625,10.32 253.637,10.312 253.945,10.102 C254.324,9.844 254.883,9.473 254.93,9.426 C254.941,9.402 255,9.344 255,9.246 C255,9.035 254.781,8.984 254.684,8.984 C254.441,8.984 254.254,9.117 254.133,9.195 L250.32,11.734 C250.609,11.246 251.055,10.211 251.055,9.473 C251.055,9.234 251.055,9.027 250.777,9.027 C249.879,9.027 249.234,9.781 249.234,10.102 C249.234,10.16 249.273,10.223 249.352,10.223 C249.434,10.223 249.453,10.172 249.492,10.102 C249.57,9.922 250.039,9.691 250.719,9.691 C250.746,9.754 250.746,9.844 250.746,9.871 C250.746,10.41 250.051,11.914 249.77,12.105 C249.723,12.133 249.723,12.145 249.371,12.363 L248.715,12.801 C248.547,12.922 248.465,12.973 248.465,13.121 C248.465,13.371 248.754,13.379 248.785,13.379 C249.023,13.379 249.223,13.238 249.332,13.172 z M253.137,10.641" fill="#000000"/>
      <path d="M258.102,13.617 C258.102,13.074 257.656,12.527 256.891,12.367 C257.621,12.105 257.887,11.582 257.887,11.156 C257.887,10.605 257.254,10.191 256.48,10.191 C255.703,10.191 255.113,10.57 255.113,11.129 C255.113,11.363 255.266,11.496 255.473,11.496 C255.691,11.496 255.832,11.336 255.832,11.141 C255.832,10.938 255.691,10.793 255.473,10.777 C255.719,10.473 256.199,10.395 256.457,10.395 C256.773,10.395 257.211,10.547 257.211,11.156 C257.211,11.449 257.113,11.77 256.934,11.984 C256.703,12.25 256.508,12.266 256.156,12.285 C255.984,12.301 255.969,12.301 255.934,12.305 C255.934,12.305 255.863,12.32 255.863,12.398 C255.863,12.496 255.926,12.496 256.047,12.496 L256.422,12.496 C256.969,12.496 257.355,12.871 257.355,13.617 C257.355,14.48 256.855,14.738 256.449,14.738 C256.172,14.738 255.559,14.664 255.266,14.25 C255.594,14.238 255.668,14.008 255.668,13.859 C255.668,13.637 255.504,13.477 255.285,13.477 C255.09,13.477 254.895,13.598 254.895,13.883 C254.895,14.539 255.621,14.965 256.465,14.965 C257.434,14.965 258.102,14.312 258.102,13.617 z M258.102,13.617" fill="#000000"/>
      <path d="M45.199,141.492 C44.562,142.641 44.465,143.484 44.465,143.746 C44.465,144.152 44.594,144.195 44.754,144.195 C45.629,144.195 46.297,143.457 46.297,143.117 C46.297,143.02 46.219,142.996 46.176,142.996 C46.098,142.996 46.078,143.039 46.047,143.117 C45.938,143.316 45.488,143.516 44.812,143.527 C44.793,143.477 44.773,143.418 44.773,143.348 C44.773,143.188 45,142.25 45.488,141.473 C45.688,141.176 45.699,141.164 46.008,140.957 C46.387,140.695 46.945,140.328 46.992,140.277 C47.004,140.258 47.062,140.199 47.062,140.098 C47.062,139.891 46.844,139.84 46.746,139.84 C46.508,139.84 46.316,139.969 46.195,140.051 L42.383,142.59 C42.672,142.102 43.117,141.066 43.117,140.328 C43.117,140.09 43.117,139.879 42.84,139.879 C41.941,139.879 41.297,140.637 41.297,140.957 C41.297,141.016 41.336,141.074 41.414,141.074 C41.496,141.074 41.516,141.027 41.555,140.957 C41.633,140.777 42.102,140.547 42.781,140.547 C42.809,140.605 42.809,140.695 42.809,140.727 C42.809,141.266 42.113,142.77 41.832,142.957 C41.785,142.988 41.785,142.996 41.434,143.219 L40.777,143.656 C40.609,143.773 40.527,143.824 40.527,143.973 C40.527,144.223 40.816,144.234 40.848,144.234 C41.086,144.234 41.285,144.094 41.395,144.023 z M45.199,141.492" fill="#000000"/>
      <path d="M50.102,144.41 L49.867,144.41 C49.844,144.562 49.777,144.973 49.684,145.043 C49.629,145.086 49.094,145.086 48.996,145.086 L47.711,145.086 C48.445,144.438 48.688,144.242 49.105,143.914 C49.621,143.5 50.102,143.07 50.102,142.406 C50.102,141.562 49.363,141.047 48.473,141.047 C47.605,141.047 47.02,141.652 47.02,142.297 C47.02,142.652 47.32,142.688 47.391,142.688 C47.559,142.688 47.762,142.566 47.762,142.316 C47.762,142.191 47.711,141.945 47.348,141.945 C47.566,141.453 48.039,141.297 48.367,141.297 C49.062,141.297 49.426,141.844 49.426,142.406 C49.426,143.012 48.996,143.496 48.77,143.746 L47.09,145.406 C47.02,145.469 47.02,145.48 47.02,145.676 L49.895,145.676 z M50.102,144.41" fill="#000000"/>
      <path d="M94.391,4.477 C94.391,4.449 94.383,4.34 94.293,4.34 C94.293,4.34 94.254,4.34 94.164,4.398 C93.855,4.598 93.484,4.766 93.117,4.766 C92.539,4.766 92.043,4.348 92.043,3.473 C92.043,3.121 92.121,2.746 92.152,2.625 L93.793,2.625 C93.953,2.625 94.133,2.625 94.133,2.457 C94.133,2.316 94.016,2.316 93.844,2.316 L92.23,2.316 C92.469,1.469 93.027,0.891 93.934,0.891 L94.242,0.891 C94.414,0.891 94.57,0.891 94.57,0.723 C94.57,0.582 94.441,0.582 94.273,0.582 L93.926,0.582 C92.629,0.582 91.293,1.578 91.293,3.102 C91.293,4.199 92.043,4.984 93.098,4.984 C93.746,4.984 94.391,4.586 94.391,4.477 z M94.391,4.477" fill="#000000"/>
      <path d="M154.691,203.297 C154.828,203.219 154.699,203.141 154.621,203.098 C154.527,203.043 154.492,203.023 154.398,203.027 C154.363,203.027 154.344,203.039 154.043,203.152 C153.074,203.516 152.676,203.516 152.461,203.391 C152.363,203.336 152.301,203.254 152.629,203.062 C152.777,202.977 152.934,202.906 153.109,202.844 L159.789,200.363 C159.965,200.301 159.992,200.285 159.992,200.285 C160.121,200.211 160.078,200.129 159.984,200.074 C159.949,200.051 159.941,200.047 159.914,200.043 L158.738,199.434 C158.609,199.371 158.445,199.289 158.164,199.449 C157.984,199.551 158.141,199.641 158.211,199.68 C158.305,199.734 158.461,199.824 158.551,199.902 L155.883,200.902 C155.895,200.75 155.828,200.457 155.371,200.195 C153.871,199.328 151.363,199.699 150,200.484 C148.773,201.195 149.148,201.895 149.867,202.309 C150.477,202.66 151.316,202.695 151.602,202.688 C151.395,203.188 151.961,203.516 152.059,203.57 C152.375,203.758 152.836,203.781 153.375,203.676 C153.988,203.57 154.641,203.328 154.691,203.297 z M151.984,202.367 C151.395,202.418 150.684,202.363 150.27,202.125 C149.734,201.816 150.227,201.48 150.445,201.355 C150.965,201.055 152.484,200.516 153.012,200.371 C154.004,200.105 154.676,200.207 155.031,200.41 C155.539,200.703 155.277,201.094 155.168,201.156 L155.012,201.23 z M151.984,202.367" fill="#000000"/>
      <path d="M154.672,206.715 L154.922,206.57 L154.691,206.438 C154.09,206.086 154.18,206.035 154.41,205.902 L158.273,203.672 C158.461,203.562 158.457,203.551 158.285,203.453 C157.461,203.484 156.902,203.172 156.656,203.027 L156.406,203.172 C156.551,203.258 156.949,203.488 157.477,203.566 L153.918,205.621 C153.691,205.754 153.598,205.805 152.996,205.457 L152.766,205.324 L152.516,205.469 L153.617,206.074 z M154.672,206.715" fill="#000000"/>
      <g clip-path="url(#Clip_5)">
        <g clip-path="url(#Clip_4)">
          <path d="M193.984,203.898 C194.125,203.816 193.996,203.742 193.918,203.699 C193.82,203.645 193.789,203.625 193.695,203.629 C193.656,203.629 193.637,203.641 193.336,203.754 C192.367,204.113 191.969,204.117 191.754,203.992 C191.66,203.938 191.594,203.855 191.922,203.664 C192.074,203.578 192.23,203.508 192.402,203.445 L199.082,200.965 C199.258,200.902 199.289,200.887 199.289,200.887 C199.418,200.812 199.371,200.727 199.277,200.672 C199.242,200.652 199.234,200.648 199.207,200.645 L198.035,200.035 C197.902,199.973 197.738,199.887 197.461,200.051 C197.281,200.152 197.434,200.242 197.504,200.281 C197.598,200.336 197.754,200.426 197.848,200.504 L195.18,201.504 C195.188,201.352 195.125,201.059 194.664,200.797 C193.164,199.93 190.66,200.301 189.293,201.086 C188.07,201.793 188.445,202.496 189.16,202.906 C189.773,203.262 190.609,203.297 190.898,203.289 C190.688,203.789 191.258,204.117 191.352,204.172 C191.672,204.359 192.129,204.383 192.672,204.277 C193.285,204.172 193.934,203.926 193.984,203.898 z M191.281,202.969 C190.691,203.02 189.977,202.965 189.562,202.727 C189.027,202.418 189.523,202.082 189.742,201.953 C190.258,201.656 191.777,201.117 192.305,200.973 C193.301,200.707 193.973,200.809 194.324,201.012 C194.832,201.305 194.574,201.695 194.465,201.758 L194.305,201.828 z M191.281,202.969" fill="#000000"/>
        </g>
      </g>
      <g clip-path="url(#Clip_7)">
        <g clip-path="url(#Clip_6)">
          <path d="M195.426,206.695 L195.223,206.574 C195.051,206.652 194.578,206.855 194.43,206.852 C194.34,206.848 193.875,206.578 193.789,206.531 L192.68,205.887 C193.961,205.879 194.367,205.891 195.059,205.91 C195.918,205.93 196.766,205.922 197.43,205.539 C198.273,205.051 198.148,204.383 197.375,203.938 C196.625,203.504 195.512,203.562 194.871,203.934 C194.516,204.137 194.738,204.309 194.801,204.344 C194.945,204.426 195.238,204.461 195.488,204.312 C195.617,204.242 195.816,204.078 195.504,203.895 C196.188,203.719 196.75,203.867 197.035,204.031 C197.637,204.379 197.406,204.875 196.844,205.199 C196.234,205.551 195.379,205.613 194.938,205.645 L191.82,205.762 C191.699,205.766 191.684,205.773 191.488,205.887 L193.977,207.32 z M195.426,206.695" fill="#000000"/>
        </g>
      </g>
      <path d="M174.023,60.344 C174.023,60.207 173.875,60.207 173.785,60.207 C173.676,60.207 173.633,60.207 173.586,60.254 C173.566,60.273 173.566,60.297 173.504,60.543 C173.305,61.34 173.078,61.539 172.828,61.539 C172.719,61.539 172.598,61.5 172.598,61.172 C172.598,61.023 172.617,60.883 172.656,60.742 L174.031,55.254 C174.074,55.113 174.074,55.086 174.074,55.086 C174.074,54.957 173.965,54.906 173.855,54.906 C173.812,54.906 173.805,54.906 173.785,54.914 L172.5,54.977 C172.359,54.984 172.18,54.996 172.18,55.273 C172.18,55.453 172.359,55.453 172.438,55.453 C172.547,55.453 172.727,55.453 172.855,55.473 L172.32,57.676 C172.168,57.535 171.84,57.316 171.312,57.316 C169.578,57.316 168.504,58.891 168.504,60.254 C168.504,61.48 169.422,61.898 170.246,61.898 C170.953,61.898 171.473,61.512 171.633,61.359 C172.012,61.898 172.668,61.898 172.777,61.898 C173.145,61.898 173.434,61.691 173.645,61.332 C173.895,60.934 174.023,60.395 174.023,60.344 z M171.531,60.895 C171.242,61.23 170.773,61.539 170.297,61.539 C169.68,61.539 169.629,61.004 169.629,60.785 C169.629,60.266 169.969,59.039 170.129,58.652 C170.438,57.926 170.926,57.676 171.332,57.676 C171.922,57.676 172.16,58.145 172.16,58.254 L172.141,58.391 z M171.531,60.895" fill="#000000"/>
      <path d="M177.715,62.105 C177.715,61.562 177.27,61.02 176.5,60.859 C177.234,60.594 177.496,60.07 177.496,59.645 C177.496,59.094 176.863,58.684 176.09,58.684 C175.316,58.684 174.723,59.059 174.723,59.617 C174.723,59.855 174.875,59.988 175.086,59.988 C175.301,59.988 175.441,59.828 175.441,59.633 C175.441,59.43 175.301,59.281 175.086,59.27 C175.328,58.961 175.809,58.887 176.066,58.887 C176.383,58.887 176.82,59.039 176.82,59.645 C176.82,59.938 176.723,60.258 176.543,60.477 C176.312,60.738 176.117,60.754 175.77,60.773 C175.594,60.789 175.578,60.789 175.547,60.797 C175.547,60.797 175.477,60.809 175.477,60.887 C175.477,60.984 175.539,60.984 175.656,60.984 L176.031,60.984 C176.578,60.984 176.969,61.359 176.969,62.105 C176.969,62.973 176.465,63.23 176.062,63.23 C175.781,63.23 175.168,63.152 174.875,62.742 C175.203,62.727 175.281,62.496 175.281,62.352 C175.281,62.129 175.113,61.969 174.898,61.969 C174.703,61.969 174.508,62.086 174.508,62.371 C174.508,63.027 175.23,63.453 176.074,63.453 C177.043,63.453 177.715,62.805 177.715,62.105 z M177.715,62.105" fill="#000000"/>
      <g>
        <g>
          <path d="M3.99,277.003 L3.99,275.925 L0.147,275.925 L0.147,282.097 L1.365,282.097 L1.365,279.41 L3.756,279.41 L3.756,278.331 L1.365,278.331 L1.365,277.003 z M3.99,277.003" fill="#000000"/>
          <path d="M5.417,277.472 L5.417,278.394 L6.588,278.394 L6.588,281.16 L5.088,281.16 L5.088,282.097 L9.307,282.097 L9.307,281.16 L7.807,281.16 L7.807,277.472 z M6.588,275.206 L6.588,276.628 L7.807,276.628 L7.807,275.206 z M6.588,275.206" fill="#000000"/>
          <path d="M12.905,279.706 C12.905,280.55 12.561,281.081 12.061,281.081 C11.546,281.081 11.218,280.55 11.218,279.706 C11.218,278.863 11.546,278.331 12.061,278.331 C12.561,278.331 12.905,278.894 12.905,279.706 z M14.124,281.753 L14.124,277.472 L12.905,277.472 L12.905,278.05 C12.671,277.613 12.249,277.347 11.718,277.347 C11.186,277.347 10.78,277.55 10.468,277.988 C10.155,278.425 9.999,279.003 9.999,279.738 C9.999,281.16 10.671,282.035 11.733,282.035 C12.296,282.035 12.671,281.831 12.905,281.378 L12.905,281.878 C12.905,282.566 12.593,282.878 11.921,282.878 C11.405,282.878 10.952,282.753 10.483,282.519 L10.483,283.628 C10.983,283.785 11.483,283.847 11.983,283.847 C13.499,283.847 14.124,283.238 14.124,281.753 z M14.124,281.753" fill="#000000"/>
          <path d="M15.347,280.472 C15.347,281.628 15.815,282.222 16.69,282.222 C17.269,282.222 17.69,281.925 17.862,281.41 L17.862,282.097 L19.081,282.097 L19.081,277.472 L17.862,277.472 L17.862,280.128 C17.862,280.831 17.612,281.222 17.175,281.222 C16.737,281.222 16.565,280.956 16.565,280.3 L16.565,277.472 L15.347,277.472 z M15.347,280.472" fill="#000000"/>
          <path d="M24.554,278.738 L24.554,277.597 C24.273,277.425 23.945,277.347 23.601,277.347 C22.96,277.347 22.445,277.644 22.195,278.191 L22.195,277.472 L20.992,277.472 L20.992,282.097 L22.195,282.097 L22.195,279.956 C22.195,279.347 22.242,279.113 22.382,278.91 C22.585,278.566 22.992,278.378 23.492,278.378 C23.929,278.378 24.288,278.503 24.554,278.738 z M24.554,278.738" fill="#000000"/>
          <path d="M29.449,281.863 L29.449,280.753 C28.855,281.113 28.324,281.253 27.777,281.253 C26.933,281.253 26.511,280.894 26.496,280.175 L29.636,280.175 L29.636,279.691 C29.636,278.206 28.855,277.347 27.464,277.347 C26.793,277.347 26.261,277.581 25.855,278.019 C25.464,278.441 25.261,279.05 25.261,279.8 C25.261,281.363 26.105,282.222 27.652,282.222 C28.308,282.222 28.871,282.113 29.449,281.863 z M28.418,279.269 L26.511,279.269 C26.574,278.644 26.918,278.3 27.464,278.3 C28.089,278.3 28.402,278.628 28.418,279.269 z M28.418,279.269" fill="#000000"/>
        </g>
        <g>
          <path d="M35.879,275.925 L35.879,279.363 C36.332,279.16 36.754,279.05 37.207,279.05 C37.942,279.05 38.426,279.472 38.426,280.113 C38.426,280.816 37.957,281.191 37.113,281.191 C36.629,281.191 36.129,281.081 35.676,280.847 L35.676,281.956 C36.238,282.128 36.77,282.222 37.301,282.222 C38.02,282.222 38.567,282.035 38.988,281.66 C39.395,281.269 39.598,280.769 39.598,280.113 C39.598,279.503 39.41,279.003 39.035,278.613 C38.645,278.222 38.16,278.035 37.551,278.035 C37.301,278.035 37.067,278.066 36.863,278.144 L36.863,277.003 L39.238,277.003 L39.238,275.925 z M35.879,275.925" fill="#000000"/>
          <path d="M42.039,280.581 L42.039,282.097 L43.414,282.097 L43.414,280.581 z M42.039,280.581" fill="#000000"/>
          <path d="M48.153,277.285 L48.153,279.722 L46.59,279.722 z M48.044,275.925 L45.7,279.581 L45.7,280.769 L48.153,280.769 L48.153,282.097 L49.325,282.097 L49.325,280.769 L49.997,280.769 L49.997,279.722 L49.325,279.722 L49.325,275.925 z M48.044,275.925" fill="#000000"/>
        </g>
        <path d="M56.724,279.05 L56.724,280.253 L59.333,280.253 L59.333,279.05 z M56.724,279.05" fill="#000000"/>
        <g>
          <path d="M67.263,282.097 L69.638,282.097 L69.638,281.66 L68.857,281.66 L68.857,276.41 L70.638,276.41 L70.638,277.378 L71.138,277.378 L71.138,275.925 L65.748,275.925 L65.748,277.378 L66.248,277.378 L66.248,276.41 L68.029,276.41 L68.029,281.66 L67.263,281.66 z M67.263,282.097" fill="#000000"/>
          <path d="M73.025,282.894 C72.821,283.41 72.681,283.535 72.384,283.535 C72.056,283.535 71.915,283.378 71.884,283.019 L71.493,283.019 L71.493,283.847 C71.775,283.925 72.04,283.972 72.29,283.972 C72.9,283.972 73.181,283.769 73.446,283.081 L75.431,278.144 L75.915,278.144 L75.915,277.706 L74.29,277.706 L74.29,278.144 L74.931,278.144 L73.712,281.16 L72.509,278.144 L73.196,278.144 L73.196,277.706 L71.196,277.706 L71.196,278.144 L71.696,278.144 L73.306,282.175 z M73.025,282.894" fill="#000000"/>
          <path d="M77.639,279.691 C77.639,278.628 78.045,278.05 78.811,278.05 C79.576,278.05 79.983,278.675 79.983,279.894 C79.983,281.113 79.576,281.738 78.811,281.738 C78.045,281.738 77.639,281.175 77.639,280.113 z M76.889,278.144 L76.889,283.425 L76.17,283.425 L76.17,283.863 L78.358,283.863 L78.358,283.425 L77.639,283.425 L77.639,281.41 C77.936,281.956 78.373,282.222 79.045,282.222 C79.576,282.222 80.014,282.003 80.342,281.566 C80.686,281.144 80.842,280.581 80.842,279.894 C80.842,279.206 80.686,278.644 80.342,278.222 C80.014,277.8 79.576,277.581 79.045,277.581 C78.373,277.581 77.936,277.831 77.639,278.394 L77.639,277.706 L76.17,277.706 L76.17,278.144 z M76.889,278.144" fill="#000000"/>
          <path d="M82.081,276.331 C82.081,276.597 82.284,276.8 82.55,276.8 C82.8,276.8 83.003,276.597 83.003,276.331 C83.003,276.081 82.784,275.863 82.55,275.863 C82.284,275.863 82.081,276.081 82.081,276.331 z M83.034,281.66 L83.034,277.706 L81.566,277.706 L81.566,278.144 L82.284,278.144 L82.284,281.66 L81.566,281.66 L81.566,282.097 L83.738,282.097 L83.738,281.66 z M83.034,281.66" fill="#000000"/>
          <path d="M88.217,280.769 L87.623,280.769 C87.482,281.456 87.092,281.816 86.451,281.816 C85.638,281.816 85.232,281.175 85.232,279.894 C85.232,278.628 85.638,277.988 86.451,277.988 C87.154,277.988 87.529,278.331 87.638,279.097 L88.076,279.097 L88.076,277.972 C87.529,277.706 86.982,277.581 86.435,277.581 C85.81,277.581 85.31,277.8 84.92,278.222 C84.545,278.628 84.357,279.191 84.357,279.894 C84.357,280.597 84.545,281.16 84.92,281.581 C85.31,282.003 85.81,282.222 86.435,282.222 C87.404,282.222 88.013,281.722 88.217,280.769 z M88.217,280.769" fill="#000000"/>
          <path d="M91.914,280.722 C91.914,281.347 91.492,281.769 90.883,281.769 C90.242,281.769 89.852,281.378 89.852,280.769 C89.852,280.113 90.211,279.785 90.945,279.785 L91.914,279.785 z M92.664,279.347 C92.664,278.206 92.023,277.581 90.82,277.581 C90.352,277.581 89.883,277.691 89.352,277.925 L89.352,278.816 L89.727,278.816 C89.82,278.269 90.18,277.988 90.773,277.988 C91.492,277.988 91.914,278.378 91.914,279.035 L91.914,279.347 L90.867,279.347 C89.695,279.347 89.023,279.863 89.023,280.769 C89.023,281.66 89.617,282.222 90.586,282.222 C91.164,282.222 91.586,282.035 91.914,281.628 L91.914,282.097 L93.336,282.097 L93.336,281.66 L92.664,281.66 z M92.664,279.347" fill="#000000"/>
          <path d="M95.271,281.66 L95.271,275.66 L93.802,275.66 L93.802,276.097 L94.521,276.097 L94.521,281.66 L93.802,281.66 L93.802,282.097 L95.99,282.097 L95.99,281.66 z M95.271,281.66" fill="#000000"/>
        </g>
        <g>
          <path d="M103.284,281.66 L103.284,275.66 L101.831,275.66 L101.831,276.097 L102.534,276.097 L102.534,278.394 C102.237,277.831 101.8,277.581 101.128,277.581 C100.597,277.581 100.159,277.8 99.831,278.222 C99.487,278.644 99.331,279.206 99.331,279.894 C99.331,280.581 99.487,281.144 99.831,281.566 C100.159,282.003 100.597,282.222 101.128,282.222 C101.8,282.222 102.237,281.956 102.534,281.41 L102.534,282.097 L104.003,282.097 L104.003,281.66 z M102.534,280.113 C102.534,281.175 102.128,281.738 101.362,281.738 C100.597,281.738 100.206,281.113 100.206,279.894 C100.206,278.675 100.597,278.05 101.362,278.05 C102.128,278.05 102.534,278.628 102.534,279.691 z M102.534,280.113" fill="#000000"/>
          <path d="M108.758,279.972 C108.727,278.425 108.008,277.581 106.711,277.581 C106.102,277.581 105.602,277.8 105.227,278.222 C104.852,278.644 104.664,279.206 104.664,279.894 C104.664,280.597 104.852,281.16 105.227,281.581 C105.617,282.003 106.117,282.222 106.758,282.222 C107.805,282.222 108.445,281.722 108.68,280.769 L108.086,280.769 C107.914,281.456 107.492,281.816 106.836,281.816 C105.977,281.816 105.539,281.206 105.539,280.019 L105.539,279.972 z M107.867,279.535 L105.539,279.535 C105.617,278.519 106.024,277.988 106.711,277.988 C107.445,277.988 107.836,278.519 107.867,279.535 z M107.867,279.535" fill="#000000"/>
          <path d="M112.753,276.706 L112.753,275.863 C112.394,275.722 112.035,275.66 111.675,275.66 C110.707,275.66 110.191,276.175 110.191,277.144 L110.191,277.706 L109.472,277.706 L109.472,278.144 L110.191,278.144 L110.191,281.66 L109.472,281.66 L109.472,282.097 L111.894,282.097 L111.894,281.66 L110.941,281.66 L110.941,278.144 L112.144,278.144 L112.144,277.706 L110.941,277.706 L110.941,277.128 C110.941,276.331 111.144,276.066 111.707,276.066 C112.128,276.066 112.363,276.285 112.363,276.706 z M112.753,276.706" fill="#000000"/>
          <path d="M114.758,281.816 C113.962,281.816 113.555,281.16 113.555,279.894 C113.555,278.644 113.962,277.988 114.758,277.988 C115.571,277.988 115.977,278.644 115.977,279.894 C115.977,281.16 115.571,281.816 114.758,281.816 z M114.758,282.222 C115.399,282.222 115.899,282.003 116.274,281.581 C116.665,281.16 116.852,280.597 116.852,279.894 C116.852,279.191 116.665,278.628 116.274,278.222 C115.899,277.8 115.399,277.581 114.758,277.581 C114.133,277.581 113.618,277.8 113.243,278.222 C112.868,278.628 112.68,279.191 112.68,279.894 C112.68,280.597 112.868,281.16 113.243,281.581 C113.633,282.003 114.133,282.222 114.758,282.222 z M114.758,282.222" fill="#000000"/>
          <path d="M121.259,277.691 C120.962,277.628 120.697,277.581 120.447,277.581 C119.775,277.581 119.337,277.878 119.04,278.488 L119.04,277.706 L117.572,277.706 L117.572,278.128 L118.29,278.128 L118.29,281.66 L117.619,281.66 L117.619,282.097 L119.9,282.097 L119.9,281.66 L119.04,281.66 L119.04,279.644 C119.04,278.675 119.447,278.144 120.181,278.144 C120.587,278.144 120.79,278.347 120.822,278.8 L121.259,278.8 z M121.259,277.691" fill="#000000"/>
          <path d="M125.57,278.55 C125.414,277.941 124.945,277.581 124.274,277.581 C123.742,277.581 123.305,277.894 123.024,278.488 L123.024,277.706 L121.555,277.706 L121.555,278.128 L122.274,278.128 L122.274,281.66 L121.602,281.66 L121.602,282.097 L123.68,282.097 L123.68,281.66 L123.024,281.66 L123.024,279.644 C123.024,278.66 123.383,278.144 124.055,278.144 C124.649,278.144 124.883,278.488 124.883,279.363 L124.883,281.66 L124.242,281.66 L124.242,282.097 L126.289,282.097 L126.289,281.66 L125.633,281.66 L125.633,279.644 C125.633,278.66 125.992,278.144 126.664,278.144 C127.258,278.144 127.508,278.503 127.508,279.394 L127.508,281.66 L126.852,281.66 L126.852,282.097 L128.93,282.097 L128.93,281.66 L128.258,281.66 L128.258,279.3 C128.258,278.144 127.805,277.581 126.899,277.581 C126.32,277.581 125.867,277.91 125.57,278.55 z M125.57,278.55" fill="#000000"/>
          <path d="M132.47,280.722 C132.47,281.347 132.048,281.769 131.439,281.769 C130.798,281.769 130.407,281.378 130.407,280.769 C130.407,280.113 130.767,279.785 131.501,279.785 L132.47,279.785 z M133.22,279.347 C133.22,278.206 132.579,277.581 131.376,277.581 C130.907,277.581 130.439,277.691 129.907,277.925 L129.907,278.816 L130.282,278.816 C130.376,278.269 130.736,277.988 131.329,277.988 C132.048,277.988 132.47,278.378 132.47,279.035 L132.47,279.347 L131.423,279.347 C130.251,279.347 129.579,279.863 129.579,280.769 C129.579,281.66 130.173,282.222 131.142,282.222 C131.72,282.222 132.142,282.035 132.47,281.628 L132.47,282.097 L133.892,282.097 L133.892,281.66 L133.22,281.66 z M133.22,279.347" fill="#000000"/>
          <path d="M135.03,278.144 L135.03,280.941 C135.03,281.863 135.343,282.222 136.202,282.222 C136.999,282.222 137.358,281.863 137.405,281.066 L136.843,281.066 C136.827,281.581 136.671,281.816 136.28,281.816 C136.077,281.816 135.952,281.753 135.874,281.66 C135.811,281.55 135.78,281.316 135.78,280.941 L135.78,278.144 L137.186,278.144 L137.186,277.706 L135.78,277.706 L135.78,276.331 L135.03,276.331 L135.03,277.706 L134.358,277.706 L134.358,278.144 z M135.03,278.144" fill="#000000"/>
          <path d="M138.286,276.331 C138.286,276.597 138.489,276.8 138.755,276.8 C139.005,276.8 139.208,276.597 139.208,276.331 C139.208,276.081 138.989,275.863 138.755,275.863 C138.489,275.863 138.286,276.081 138.286,276.331 z M139.239,281.66 L139.239,277.706 L137.77,277.706 L137.77,278.144 L138.489,278.144 L138.489,281.66 L137.77,281.66 L137.77,282.097 L139.942,282.097 L139.942,281.66 z M139.239,281.66" fill="#000000"/>
          <path d="M142.64,281.816 C141.843,281.816 141.437,281.16 141.437,279.894 C141.437,278.644 141.843,277.988 142.64,277.988 C143.453,277.988 143.859,278.644 143.859,279.894 C143.859,281.16 143.453,281.816 142.64,281.816 z M142.64,282.222 C143.281,282.222 143.781,282.003 144.156,281.581 C144.546,281.16 144.734,280.597 144.734,279.894 C144.734,279.191 144.546,278.628 144.156,278.222 C143.781,277.8 143.281,277.581 142.64,277.581 C142.015,277.581 141.499,277.8 141.124,278.222 C140.749,278.628 140.562,279.191 140.562,279.894 C140.562,280.597 140.749,281.16 141.124,281.581 C141.515,282.003 142.015,282.222 142.64,282.222 z M142.64,282.222" fill="#000000"/>
          <path d="M145.5,282.097 L147.578,282.097 L147.578,281.66 L146.922,281.66 L146.922,279.644 C146.922,278.66 147.281,278.128 147.985,278.128 C148.641,278.128 148.875,278.456 148.875,279.535 L148.875,281.66 L148.219,281.66 L148.219,282.097 L150.281,282.097 L150.281,281.66 L149.625,281.66 L149.625,279.3 C149.625,278.113 149.188,277.581 148.235,277.581 C147.641,277.581 147.203,277.894 146.922,278.488 L146.922,277.706 L145.453,277.706 L145.453,278.144 L146.172,278.144 L146.172,281.66 L145.5,281.66 z M145.5,282.097" fill="#000000"/>
        </g>
        <g>
          <path d="M157.518,278.55 C157.362,277.941 156.893,277.581 156.222,277.581 C155.69,277.581 155.253,277.894 154.972,278.488 L154.972,277.706 L153.503,277.706 L153.503,278.128 L154.222,278.128 L154.222,281.66 L153.55,281.66 L153.55,282.097 L155.628,282.097 L155.628,281.66 L154.972,281.66 L154.972,279.644 C154.972,278.66 155.331,278.144 156.003,278.144 C156.597,278.144 156.831,278.488 156.831,279.363 L156.831,281.66 L156.19,281.66 L156.19,282.097 L158.237,282.097 L158.237,281.66 L157.581,281.66 L157.581,279.644 C157.581,278.66 157.94,278.144 158.612,278.144 C159.206,278.144 159.456,278.503 159.456,279.394 L159.456,281.66 L158.8,281.66 L158.8,282.097 L160.878,282.097 L160.878,281.66 L160.206,281.66 L160.206,279.3 C160.206,278.144 159.753,277.581 158.847,277.581 C158.268,277.581 157.815,277.91 157.518,278.55 z M157.518,278.55" fill="#000000"/>
          <path d="M163.605,281.816 C162.809,281.816 162.402,281.16 162.402,279.894 C162.402,278.644 162.809,277.988 163.605,277.988 C164.418,277.988 164.824,278.644 164.824,279.894 C164.824,281.16 164.418,281.816 163.605,281.816 z M163.605,282.222 C164.246,282.222 164.746,282.003 165.121,281.581 C165.512,281.16 165.699,280.597 165.699,279.894 C165.699,279.191 165.512,278.628 165.121,278.222 C164.746,277.8 164.246,277.581 163.605,277.581 C162.98,277.581 162.465,277.8 162.09,278.222 C161.715,278.628 161.527,279.191 161.527,279.894 C161.527,280.597 161.715,281.16 162.09,281.581 C162.48,282.003 162.98,282.222 163.605,282.222 z M163.605,282.222" fill="#000000"/>
          <path d="M170.497,281.66 L170.497,275.66 L169.044,275.66 L169.044,276.097 L169.747,276.097 L169.747,278.394 C169.45,277.831 169.012,277.581 168.34,277.581 C167.809,277.581 167.372,277.8 167.044,278.222 C166.7,278.644 166.544,279.206 166.544,279.894 C166.544,280.581 166.7,281.144 167.044,281.566 C167.372,282.003 167.809,282.222 168.34,282.222 C169.012,282.222 169.45,281.956 169.747,281.41 L169.747,282.097 L171.215,282.097 L171.215,281.66 z M169.747,280.113 C169.747,281.175 169.34,281.738 168.575,281.738 C167.809,281.738 167.419,281.113 167.419,279.894 C167.419,278.675 167.809,278.05 168.575,278.05 C169.34,278.05 169.747,278.628 169.747,279.691 z M169.747,280.113" fill="#000000"/>
          <path d="M175.97,279.972 C175.939,278.425 175.22,277.581 173.923,277.581 C173.314,277.581 172.814,277.8 172.439,278.222 C172.064,278.644 171.877,279.206 171.877,279.894 C171.877,280.597 172.064,281.16 172.439,281.581 C172.83,282.003 173.33,282.222 173.97,282.222 C175.017,282.222 175.658,281.722 175.892,280.769 L175.298,280.769 C175.127,281.456 174.705,281.816 174.048,281.816 C173.189,281.816 172.752,281.206 172.752,280.019 L172.752,279.972 z M175.08,279.535 L172.752,279.535 C172.83,278.519 173.236,277.988 173.923,277.988 C174.658,277.988 175.048,278.519 175.08,279.535 z M175.08,279.535" fill="#000000"/>
          <path d="M176.856,281.847 C177.388,282.097 177.919,282.222 178.466,282.222 C179.575,282.222 180.231,281.722 180.231,280.878 C180.231,280.269 179.903,279.91 179.075,279.644 L178.481,279.456 C177.747,279.222 177.575,279.035 177.575,278.66 C177.575,278.222 177.888,277.988 178.528,277.988 C179.153,277.988 179.544,278.331 179.575,278.894 L179.997,278.894 L179.997,277.941 C179.466,277.706 178.966,277.581 178.497,277.581 C177.481,277.581 176.856,278.066 176.856,278.863 C176.856,279.441 177.185,279.769 177.919,280.019 L178.466,280.206 C178.872,280.347 179.153,280.472 179.278,280.597 C179.403,280.706 179.466,280.863 179.466,281.05 C179.466,281.535 179.106,281.816 178.435,281.816 C177.7,281.816 177.31,281.472 177.294,280.831 L176.856,280.831 z M176.856,281.847" fill="#000000"/>
        </g>
        <g>
          <path d="M185.837,281.816 C185.04,281.816 184.634,281.16 184.634,279.894 C184.634,278.644 185.04,277.988 185.837,277.988 C186.65,277.988 187.056,278.644 187.056,279.894 C187.056,281.16 186.65,281.816 185.837,281.816 z M185.837,282.222 C186.478,282.222 186.978,282.003 187.353,281.581 C187.744,281.16 187.931,280.597 187.931,279.894 C187.931,279.191 187.744,278.628 187.353,278.222 C186.978,277.8 186.478,277.581 185.837,277.581 C185.212,277.581 184.697,277.8 184.322,278.222 C183.947,278.628 183.759,279.191 183.759,279.894 C183.759,280.597 183.947,281.16 184.322,281.581 C184.712,282.003 185.212,282.222 185.837,282.222 z M185.837,282.222" fill="#000000"/>
          <path d="M191.932,276.706 L191.932,275.863 C191.572,275.722 191.213,275.66 190.854,275.66 C189.885,275.66 189.369,276.175 189.369,277.144 L189.369,277.706 L188.651,277.706 L188.651,278.144 L189.369,278.144 L189.369,281.66 L188.651,281.66 L188.651,282.097 L191.072,282.097 L191.072,281.66 L190.119,281.66 L190.119,278.144 L191.322,278.144 L191.322,277.706 L190.119,277.706 L190.119,277.128 C190.119,276.331 190.322,276.066 190.885,276.066 C191.307,276.066 191.541,276.285 191.541,276.706 z M191.932,276.706" fill="#000000"/>
        </g>
        <g>
          <path d="M198.393,280.769 L197.799,280.769 C197.658,281.456 197.268,281.816 196.627,281.816 C195.815,281.816 195.408,281.175 195.408,279.894 C195.408,278.628 195.815,277.988 196.627,277.988 C197.33,277.988 197.705,278.331 197.815,279.097 L198.252,279.097 L198.252,277.972 C197.705,277.706 197.158,277.581 196.612,277.581 C195.987,277.581 195.487,277.8 195.096,278.222 C194.721,278.628 194.533,279.191 194.533,279.894 C194.533,280.597 194.721,281.16 195.096,281.581 C195.487,282.003 195.987,282.222 196.612,282.222 C197.58,282.222 198.19,281.722 198.393,280.769 z M198.393,280.769" fill="#000000"/>
          <path d="M202.762,277.691 C202.465,277.628 202.2,277.581 201.95,277.581 C201.278,277.581 200.84,277.878 200.544,278.488 L200.544,277.706 L199.075,277.706 L199.075,278.128 L199.794,278.128 L199.794,281.66 L199.122,281.66 L199.122,282.097 L201.403,282.097 L201.403,281.66 L200.544,281.66 L200.544,279.644 C200.544,278.675 200.95,278.144 201.684,278.144 C202.09,278.144 202.294,278.347 202.325,278.8 L202.762,278.8 z M202.762,277.691" fill="#000000"/>
          <path d="M205.261,281.816 C204.464,281.816 204.058,281.16 204.058,279.894 C204.058,278.644 204.464,277.988 205.261,277.988 C206.074,277.988 206.48,278.644 206.48,279.894 C206.48,281.16 206.074,281.816 205.261,281.816 z M205.261,282.222 C205.902,282.222 206.402,282.003 206.777,281.581 C207.167,281.16 207.355,280.597 207.355,279.894 C207.355,279.191 207.167,278.628 206.777,278.222 C206.402,277.8 205.902,277.581 205.261,277.581 C204.636,277.581 204.12,277.8 203.745,278.222 C203.37,278.628 203.183,279.191 203.183,279.894 C203.183,280.597 203.37,281.16 203.745,281.581 C204.136,282.003 204.636,282.222 205.261,282.222 z M205.261,282.222" fill="#000000"/>
          <path d="M208.246,281.847 C208.777,282.097 209.309,282.222 209.856,282.222 C210.965,282.222 211.621,281.722 211.621,280.878 C211.621,280.269 211.293,279.91 210.465,279.644 L209.871,279.456 C209.137,279.222 208.965,279.035 208.965,278.66 C208.965,278.222 209.277,277.988 209.918,277.988 C210.543,277.988 210.934,278.331 210.965,278.894 L211.387,278.894 L211.387,277.941 C210.856,277.706 210.356,277.581 209.887,277.581 C208.871,277.581 208.246,278.066 208.246,278.863 C208.246,279.441 208.574,279.769 209.309,280.019 L209.856,280.206 C210.262,280.347 210.543,280.472 210.668,280.597 C210.793,280.706 210.856,280.863 210.856,281.05 C210.856,281.535 210.496,281.816 209.824,281.816 C209.09,281.816 208.699,281.472 208.684,280.831 L208.246,280.831 z M208.246,281.847" fill="#000000"/>
          <path d="M212.521,281.847 C213.052,282.097 213.583,282.222 214.13,282.222 C215.24,282.222 215.896,281.722 215.896,280.878 C215.896,280.269 215.568,279.91 214.74,279.644 L214.146,279.456 C213.412,279.222 213.24,279.035 213.24,278.66 C213.24,278.222 213.552,277.988 214.193,277.988 C214.818,277.988 215.208,278.331 215.24,278.894 L215.662,278.894 L215.662,277.941 C215.13,277.706 214.63,277.581 214.162,277.581 C213.146,277.581 212.521,278.066 212.521,278.863 C212.521,279.441 212.849,279.769 213.583,280.019 L214.13,280.206 C214.537,280.347 214.818,280.472 214.943,280.597 C215.068,280.706 215.13,280.863 215.13,281.05 C215.13,281.535 214.771,281.816 214.099,281.816 C213.365,281.816 212.974,281.472 212.958,280.831 L212.521,280.831 z M212.521,281.847" fill="#000000"/>
          <path d="M216.686,279.503 L216.686,280.144 L218.78,280.144 L218.78,279.503 z M216.686,279.503" fill="#000000"/>
          <path d="M219.612,281.847 C220.143,282.097 220.675,282.222 221.221,282.222 C222.331,282.222 222.987,281.722 222.987,280.878 C222.987,280.269 222.659,279.91 221.831,279.644 L221.237,279.456 C220.503,279.222 220.331,279.035 220.331,278.66 C220.331,278.222 220.643,277.988 221.284,277.988 C221.909,277.988 222.3,278.331 222.331,278.894 L222.753,278.894 L222.753,277.941 C222.221,277.706 221.721,277.581 221.253,277.581 C220.237,277.581 219.612,278.066 219.612,278.863 C219.612,279.441 219.94,279.769 220.675,280.019 L221.221,280.206 C221.628,280.347 221.909,280.472 222.034,280.597 C222.159,280.706 222.221,280.863 222.221,281.05 C222.221,281.535 221.862,281.816 221.19,281.816 C220.456,281.816 220.065,281.472 220.05,280.831 L219.612,280.831 z M219.612,281.847" fill="#000000"/>
          <path d="M227.934,279.972 C227.902,278.425 227.184,277.581 225.887,277.581 C225.277,277.581 224.777,277.8 224.402,278.222 C224.027,278.644 223.84,279.206 223.84,279.894 C223.84,280.597 224.027,281.16 224.402,281.581 C224.793,282.003 225.293,282.222 225.934,282.222 C226.981,282.222 227.621,281.722 227.856,280.769 L227.262,280.769 C227.09,281.456 226.668,281.816 226.012,281.816 C225.152,281.816 224.715,281.206 224.715,280.019 L224.715,279.972 z M227.043,279.535 L224.715,279.535 C224.793,278.519 225.199,277.988 225.887,277.988 C226.621,277.988 227.012,278.519 227.043,279.535 z M227.043,279.535" fill="#000000"/>
          <path d="M232.632,280.769 L232.039,280.769 C231.898,281.456 231.507,281.816 230.867,281.816 C230.054,281.816 229.648,281.175 229.648,279.894 C229.648,278.628 230.054,277.988 230.867,277.988 C231.57,277.988 231.945,278.331 232.054,279.097 L232.492,279.097 L232.492,277.972 C231.945,277.706 231.398,277.581 230.851,277.581 C230.226,277.581 229.726,277.8 229.335,278.222 C228.96,278.628 228.773,279.191 228.773,279.894 C228.773,280.597 228.96,281.16 229.335,281.581 C229.726,282.003 230.226,282.222 230.851,282.222 C231.82,282.222 232.429,281.722 232.632,280.769 z M232.632,280.769" fill="#000000"/>
          <path d="M233.924,278.144 L233.924,280.941 C233.924,281.863 234.236,282.222 235.096,282.222 C235.892,282.222 236.252,281.863 236.299,281.066 L235.736,281.066 C235.721,281.581 235.564,281.816 235.174,281.816 C234.971,281.816 234.846,281.753 234.767,281.66 C234.705,281.55 234.674,281.316 234.674,280.941 L234.674,278.144 L236.08,278.144 L236.08,277.706 L234.674,277.706 L234.674,276.331 L233.924,276.331 L233.924,277.706 L233.252,277.706 L233.252,278.144 z M233.924,278.144" fill="#000000"/>
          <path d="M237.18,276.331 C237.18,276.597 237.383,276.8 237.649,276.8 C237.899,276.8 238.102,276.597 238.102,276.331 C238.102,276.081 237.883,275.863 237.649,275.863 C237.383,275.863 237.18,276.081 237.18,276.331 z M238.133,281.66 L238.133,277.706 L236.664,277.706 L236.664,278.144 L237.383,278.144 L237.383,281.66 L236.664,281.66 L236.664,282.097 L238.836,282.097 L238.836,281.66 z M238.133,281.66" fill="#000000"/>
          <path d="M241.534,281.816 C240.737,281.816 240.331,281.16 240.331,279.894 C240.331,278.644 240.737,277.988 241.534,277.988 C242.346,277.988 242.753,278.644 242.753,279.894 C242.753,281.16 242.346,281.816 241.534,281.816 z M241.534,282.222 C242.174,282.222 242.674,282.003 243.049,281.581 C243.44,281.16 243.628,280.597 243.628,279.894 C243.628,279.191 243.44,278.628 243.049,278.222 C242.674,277.8 242.174,277.581 241.534,277.581 C240.909,277.581 240.393,277.8 240.018,278.222 C239.643,278.628 239.456,279.191 239.456,279.894 C239.456,280.597 239.643,281.16 240.018,281.581 C240.409,282.003 240.909,282.222 241.534,282.222 z M241.534,282.222" fill="#000000"/>
          <path d="M244.394,282.097 L246.472,282.097 L246.472,281.66 L245.816,281.66 L245.816,279.644 C245.816,278.66 246.175,278.128 246.878,278.128 C247.535,278.128 247.769,278.456 247.769,279.535 L247.769,281.66 L247.113,281.66 L247.113,282.097 L249.175,282.097 L249.175,281.66 L248.519,281.66 L248.519,279.3 C248.519,278.113 248.081,277.581 247.128,277.581 C246.535,277.581 246.097,277.894 245.816,278.488 L245.816,277.706 L244.347,277.706 L244.347,278.144 L245.066,278.144 L245.066,281.66 L244.394,281.66 z M244.394,282.097" fill="#000000"/>
          <path d="M249.885,281.847 C250.416,282.097 250.948,282.222 251.495,282.222 C252.604,282.222 253.26,281.722 253.26,280.878 C253.26,280.269 252.932,279.91 252.104,279.644 L251.51,279.456 C250.776,279.222 250.604,279.035 250.604,278.66 C250.604,278.222 250.916,277.988 251.557,277.988 C252.182,277.988 252.573,278.331 252.604,278.894 L253.026,278.894 L253.026,277.941 C252.495,277.706 251.995,277.581 251.526,277.581 C250.51,277.581 249.885,278.066 249.885,278.863 C249.885,279.441 250.213,279.769 250.948,280.019 L251.495,280.206 C251.901,280.347 252.182,280.472 252.307,280.597 C252.432,280.706 252.495,280.863 252.495,281.05 C252.495,281.535 252.135,281.816 251.463,281.816 C250.729,281.816 250.338,281.472 250.323,280.831 L249.885,280.831 z M249.885,281.847" fill="#000000"/>
        </g>
        <g>
          <path d="M257.187,276.331 C257.187,276.597 257.39,276.8 257.656,276.8 C257.906,276.8 258.109,276.597 258.109,276.331 C258.109,276.081 257.89,275.863 257.656,275.863 C257.39,275.863 257.187,276.081 257.187,276.331 z M258.14,281.66 L258.14,277.706 L256.671,277.706 L256.671,278.144 L257.39,278.144 L257.39,281.66 L256.671,281.66 L256.671,282.097 L258.843,282.097 L258.843,281.66 z M258.14,281.66" fill="#000000"/>
          <path d="M259.385,282.097 L261.463,282.097 L261.463,281.66 L260.806,281.66 L260.806,279.644 C260.806,278.66 261.166,278.128 261.869,278.128 C262.525,278.128 262.76,278.456 262.76,279.535 L262.76,281.66 L262.103,281.66 L262.103,282.097 L264.166,282.097 L264.166,281.66 L263.51,281.66 L263.51,279.3 C263.51,278.113 263.072,277.581 262.119,277.581 C261.525,277.581 261.088,277.894 260.806,278.488 L260.806,277.706 L259.338,277.706 L259.338,278.144 L260.056,278.144 L260.056,281.66 L259.385,281.66 z M259.385,282.097" fill="#000000"/>
        </g>
        <g>
          <path d="M267.535,282.097 L269.91,282.097 L269.91,281.66 L269.145,281.66 L269.145,279.16 L272.02,282.097 L273.426,282.097 L273.426,281.66 L272.738,281.66 L269.816,278.691 L272.426,276.363 L273.113,276.363 L273.113,275.925 L271.098,275.925 L271.098,276.363 L271.754,276.363 L269.145,278.706 L269.145,276.363 L269.91,276.363 L269.91,275.925 L267.535,275.925 L267.535,276.363 L268.316,276.363 L268.316,281.66 L267.535,281.66 z M267.535,282.097" fill="#000000"/>
          <path d="M274.119,276.331 C274.119,276.597 274.322,276.8 274.588,276.8 C274.838,276.8 275.041,276.597 275.041,276.331 C275.041,276.081 274.822,275.863 274.588,275.863 C274.322,275.863 274.119,276.081 274.119,276.331 z M275.072,281.66 L275.072,277.706 L273.604,277.706 L273.604,278.144 L274.322,278.144 L274.322,281.66 L273.604,281.66 L273.604,282.097 L275.775,282.097 L275.775,281.66 z M275.072,281.66" fill="#000000"/>
          <path d="M279.957,277.691 C279.661,277.628 279.395,277.581 279.145,277.581 C278.473,277.581 278.036,277.878 277.739,278.488 L277.739,277.706 L276.27,277.706 L276.27,278.128 L276.989,278.128 L276.989,281.66 L276.317,281.66 L276.317,282.097 L278.598,282.097 L278.598,281.66 L277.739,281.66 L277.739,279.644 C277.739,278.675 278.145,278.144 278.879,278.144 C279.286,278.144 279.489,278.347 279.52,278.8 L279.957,278.8 z M279.957,277.691" fill="#000000"/>
          <path d="M284.237,280.769 L283.644,280.769 C283.503,281.456 283.112,281.816 282.472,281.816 C281.659,281.816 281.253,281.175 281.253,279.894 C281.253,278.628 281.659,277.988 282.472,277.988 C283.175,277.988 283.55,278.331 283.659,279.097 L284.097,279.097 L284.097,277.972 C283.55,277.706 283.003,277.581 282.456,277.581 C281.831,277.581 281.331,277.8 280.941,278.222 C280.566,278.628 280.378,279.191 280.378,279.894 C280.378,280.597 280.566,281.16 280.941,281.581 C281.331,282.003 281.831,282.222 282.456,282.222 C283.425,282.222 284.034,281.722 284.237,280.769 z M284.237,280.769" fill="#000000"/>
          <path d="M284.966,282.097 L287.044,282.097 L287.044,281.66 L286.388,281.66 L286.388,279.644 C286.388,278.66 286.748,278.144 287.451,278.144 C287.779,278.144 288.013,278.238 288.138,278.441 C288.263,278.628 288.341,279.003 288.341,279.535 L288.341,281.66 L287.685,281.66 L287.685,282.097 L289.748,282.097 L289.748,281.66 L289.091,281.66 L289.091,279.3 C289.091,278.113 288.654,277.581 287.701,277.581 C287.107,277.581 286.669,277.894 286.388,278.488 L286.388,275.66 L284.919,275.66 L284.919,276.097 L285.638,276.097 L285.638,281.66 L284.966,281.66 z M284.966,282.097" fill="#000000"/>
          <path d="M290.333,282.097 L292.411,282.097 L292.411,281.66 L291.755,281.66 L291.755,279.644 C291.755,278.66 292.114,278.144 292.817,278.144 C293.145,278.144 293.38,278.238 293.505,278.441 C293.63,278.628 293.708,279.003 293.708,279.535 L293.708,281.66 L293.051,281.66 L293.051,282.097 L295.114,282.097 L295.114,281.66 L294.458,281.66 L294.458,279.3 C294.458,278.113 294.02,277.581 293.067,277.581 C292.473,277.581 292.036,277.894 291.755,278.488 L291.755,275.66 L290.286,275.66 L290.286,276.097 L291.005,276.097 L291.005,281.66 L290.333,281.66 z M290.333,282.097" fill="#000000"/>
          <path d="M297.855,281.816 C297.058,281.816 296.652,281.16 296.652,279.894 C296.652,278.644 297.058,277.988 297.855,277.988 C298.668,277.988 299.074,278.644 299.074,279.894 C299.074,281.16 298.668,281.816 297.855,281.816 z M297.855,282.222 C298.496,282.222 298.996,282.003 299.371,281.581 C299.761,281.16 299.949,280.597 299.949,279.894 C299.949,279.191 299.761,278.628 299.371,278.222 C298.996,277.8 298.496,277.581 297.855,277.581 C297.23,277.581 296.715,277.8 296.34,278.222 C295.965,278.628 295.777,279.191 295.777,279.894 C295.777,280.597 295.965,281.16 296.34,281.581 C296.73,282.003 297.23,282.222 297.855,282.222 z M297.855,282.222" fill="#000000"/>
          <path d="M303.95,276.706 L303.95,275.863 C303.59,275.722 303.231,275.66 302.872,275.66 C301.903,275.66 301.387,276.175 301.387,277.144 L301.387,277.706 L300.668,277.706 L300.668,278.144 L301.387,278.144 L301.387,281.66 L300.668,281.66 L300.668,282.097 L303.09,282.097 L303.09,281.66 L302.137,281.66 L302.137,278.144 L303.34,278.144 L303.34,277.706 L302.137,277.706 L302.137,277.128 C302.137,276.331 302.34,276.066 302.903,276.066 C303.325,276.066 303.559,276.285 303.559,276.706 z M303.95,276.706" fill="#000000"/>
          <path d="M307.033,276.706 L307.033,275.863 C306.673,275.722 306.314,275.66 305.955,275.66 C304.986,275.66 304.47,276.175 304.47,277.144 L304.47,277.706 L303.752,277.706 L303.752,278.144 L304.47,278.144 L304.47,281.66 L303.752,281.66 L303.752,282.097 L306.173,282.097 L306.173,281.66 L305.22,281.66 L305.22,278.144 L306.423,278.144 L306.423,277.706 L305.22,277.706 L305.22,277.128 C305.22,276.331 305.423,276.066 305.986,276.066 C306.408,276.066 306.642,276.285 306.642,276.706 z M307.033,276.706" fill="#000000"/>
        </g>
        <g>
          <path d="M307.757,277.691 L308.069,278.019 C308.819,277.519 309.132,276.878 309.147,275.925 L308.35,275.925 L308.35,276.175 C308.35,276.894 308.178,277.331 307.757,277.691 z M307.757,277.691" fill="#000000"/>
          <path d="M310.281,281.847 C310.813,282.097 311.344,282.222 311.891,282.222 C313,282.222 313.656,281.722 313.656,280.878 C313.656,280.269 313.328,279.91 312.5,279.644 L311.906,279.456 C311.172,279.222 311,279.035 311,278.66 C311,278.222 311.313,277.988 311.953,277.988 C312.578,277.988 312.969,278.331 313,278.894 L313.422,278.894 L313.422,277.941 C312.891,277.706 312.391,277.581 311.922,277.581 C310.906,277.581 310.281,278.066 310.281,278.863 C310.281,279.441 310.61,279.769 311.344,280.019 L311.891,280.206 C312.297,280.347 312.578,280.472 312.703,280.597 C312.828,280.706 312.891,280.863 312.891,281.05 C312.891,281.535 312.531,281.816 311.86,281.816 C311.125,281.816 310.735,281.472 310.719,280.831 L310.281,280.831 z M310.281,281.847" fill="#000000"/>
        </g>
        <g>
          <path d="M317.677,278.144 L317.677,280.941 C317.677,281.863 317.989,282.222 318.849,282.222 C319.646,282.222 320.005,281.863 320.052,281.066 L319.489,281.066 C319.474,281.581 319.317,281.816 318.927,281.816 C318.724,281.816 318.599,281.753 318.521,281.66 C318.458,281.55 318.427,281.316 318.427,280.941 L318.427,278.144 L319.833,278.144 L319.833,277.706 L318.427,277.706 L318.427,276.331 L317.677,276.331 L317.677,277.706 L317.005,277.706 L317.005,278.144 z M317.677,278.144" fill="#000000"/>
          <path d="M320.464,282.097 L322.542,282.097 L322.542,281.66 L321.886,281.66 L321.886,279.644 C321.886,278.66 322.245,278.144 322.948,278.144 C323.277,278.144 323.511,278.238 323.636,278.441 C323.761,278.628 323.839,279.003 323.839,279.535 L323.839,281.66 L323.183,281.66 L323.183,282.097 L325.245,282.097 L325.245,281.66 L324.589,281.66 L324.589,279.3 C324.589,278.113 324.152,277.581 323.198,277.581 C322.605,277.581 322.167,277.894 321.886,278.488 L321.886,275.66 L320.417,275.66 L320.417,276.097 L321.136,276.097 L321.136,281.66 L320.464,281.66 z M320.464,282.097" fill="#000000"/>
          <path d="M330.002,279.972 C329.971,278.425 329.252,277.581 327.955,277.581 C327.346,277.581 326.846,277.8 326.471,278.222 C326.096,278.644 325.909,279.206 325.909,279.894 C325.909,280.597 326.096,281.16 326.471,281.581 C326.862,282.003 327.362,282.222 328.002,282.222 C329.049,282.222 329.69,281.722 329.924,280.769 L329.33,280.769 C329.159,281.456 328.737,281.816 328.08,281.816 C327.221,281.816 326.784,281.206 326.784,280.019 L326.784,279.972 z M329.112,279.535 L326.784,279.535 C326.862,278.519 327.268,277.988 327.955,277.988 C328.69,277.988 329.08,278.519 329.112,279.535 z M329.112,279.535" fill="#000000"/>
          <path d="M332.92,281.816 C332.123,281.816 331.717,281.16 331.717,279.894 C331.717,278.644 332.123,277.988 332.92,277.988 C333.732,277.988 334.138,278.644 334.138,279.894 C334.138,281.16 333.732,281.816 332.92,281.816 z M332.92,282.222 C333.56,282.222 334.06,282.003 334.435,281.581 C334.826,281.16 335.013,280.597 335.013,279.894 C335.013,279.191 334.826,278.628 334.435,278.222 C334.06,277.8 333.56,277.581 332.92,277.581 C332.295,277.581 331.779,277.8 331.404,278.222 C331.029,278.628 330.842,279.191 330.842,279.894 C330.842,280.597 331.029,281.16 331.404,281.581 C331.795,282.003 332.295,282.222 332.92,282.222 z M332.92,282.222" fill="#000000"/>
          <path d="M339.42,277.691 C339.124,277.628 338.858,277.581 338.608,277.581 C337.936,277.581 337.499,277.878 337.202,278.488 L337.202,277.706 L335.733,277.706 L335.733,278.128 L336.452,278.128 L336.452,281.66 L335.78,281.66 L335.78,282.097 L338.061,282.097 L338.061,281.66 L337.202,281.66 L337.202,279.644 C337.202,278.675 337.608,278.144 338.342,278.144 C338.749,278.144 338.952,278.347 338.983,278.8 L339.42,278.8 z M339.42,277.691" fill="#000000"/>
          <path d="M341.216,282.894 C341.013,283.41 340.872,283.535 340.575,283.535 C340.247,283.535 340.107,283.378 340.075,283.019 L339.685,283.019 L339.685,283.847 C339.966,283.925 340.232,283.972 340.482,283.972 C341.091,283.972 341.372,283.769 341.638,283.081 L343.622,278.144 L344.107,278.144 L344.107,277.706 L342.482,277.706 L342.482,278.144 L343.122,278.144 L341.904,281.16 L340.7,278.144 L341.388,278.144 L341.388,277.706 L339.388,277.706 L339.388,278.144 L339.888,278.144 L341.497,282.175 z M341.216,282.894" fill="#000000"/>
        </g>
        <path d="M343.775,281.66 C343.775,281.972 344.01,282.222 344.322,282.222 C344.619,282.222 344.853,281.972 344.853,281.66 C344.853,281.363 344.619,281.113 344.322,281.113 C344.01,281.113 343.775,281.363 343.775,281.66 z M343.775,281.66" fill="#000000"/>
      </g>
    </g>
  </g>
</svg>
