<?xml version="1.0" encoding="UTF-8"?>
<!DOCTYPE svg PUBLIC "-//W3C//DTD SVG 1.1//EN" "http://www.w3.org/Graphics/SVG/1.1/DTD/svg11.dtd">
<svg version="1.1" xmlns="http://www.w3.org/2000/svg" xmlns:xlink="http://www.w3.org/1999/xlink" x="0" y="0" width="397" height="47" viewBox="0, 0, 397, 47">
  <g id="Background">
    <rect x="0" y="0" width="397" height="47" fill="#000000" fill-opacity="0"/>
  </g>
  <g id="Background"/>
  <g id="surface291">
    <path d="M8.273,24.13 L7.757,24.13 C7.742,24.287 7.648,24.74 7.57,24.943 C7.523,25.084 7.476,25.193 6.82,25.193 L6.039,25.193 C6.257,24.709 6.57,24.318 6.898,23.896 C7.523,23.115 8.132,22.334 8.132,21.334 C8.132,20.162 7.148,18.709 4.304,18.709 C1.445,18.709 0.476,20.162 0.476,21.334 C0.476,22.334 1.086,23.115 1.695,23.88 C2.07,24.365 2.351,24.74 2.57,25.193 L1.773,25.193 C1.132,25.193 1.086,25.084 1.039,24.974 C0.961,24.787 0.867,24.24 0.836,24.13 L0.336,24.13 L0.726,26.318 L2.82,26.318 C3.054,26.318 3.164,26.318 3.164,26.021 C3.164,25.255 2.836,24.255 2.679,23.771 C2.398,22.912 2.132,22.13 2.132,21.334 C2.132,20.912 2.195,20.13 2.726,19.646 C3.257,19.162 3.976,19.115 4.304,19.115 C4.867,19.115 5.492,19.271 5.882,19.662 C6.211,19.974 6.461,20.459 6.461,21.334 C6.461,22.099 6.226,22.834 5.961,23.646 C5.757,24.302 5.429,25.255 5.429,26.021 C5.429,26.318 5.539,26.318 5.789,26.318 L7.867,26.318 z M8.273,24.13" fill="#FF0000"/>
    <path d="M11.146,22.908 C11.177,22.798 11.177,22.783 11.177,22.736 C11.177,22.673 11.13,22.564 10.989,22.564 C10.942,22.564 10.942,22.564 10.927,22.579 L9.896,22.626 C9.802,22.626 9.614,22.642 9.614,22.876 C9.614,23.048 9.786,23.048 9.911,23.048 C10.005,23.048 10.146,23.048 10.146,23.079 C10.146,23.111 10.005,23.658 9.88,24.158 L9.474,25.767 C9.317,26.408 9.271,26.579 9.271,26.829 C9.271,27.704 9.88,28.173 10.739,28.173 C12.286,28.173 13.099,26.845 13.099,25.845 C13.099,24.954 12.474,24.486 11.599,24.486 C11.192,24.486 10.88,24.626 10.692,24.72 z M10.755,27.829 C10.146,27.829 10.146,27.283 10.146,27.142 C10.146,26.829 10.349,26.048 10.521,25.392 C10.567,25.236 11.036,24.814 11.552,24.814 C11.88,24.814 12.146,24.986 12.146,25.439 C12.146,25.783 11.896,26.767 11.724,27.126 C11.396,27.783 10.911,27.829 10.755,27.829 z M10.755,27.829" fill="#FF0000"/>
    <path d="M17.33,28.943 C17.33,28.896 17.33,28.88 17.143,28.693 C15.783,27.318 15.44,25.255 15.44,23.599 C15.44,21.693 15.846,19.802 17.19,18.427 C17.33,18.302 17.33,18.287 17.33,18.24 C17.33,18.177 17.283,18.146 17.221,18.146 C17.112,18.146 16.127,18.88 15.487,20.271 C14.924,21.459 14.799,22.677 14.799,23.599 C14.799,24.443 14.924,25.755 15.518,26.99 C16.174,28.334 17.112,29.037 17.221,29.037 C17.283,29.037 17.33,29.005 17.33,28.943 z M17.33,28.943" fill="#FF0000"/>
    <path d="M22.229,22.24 C21.916,22.255 21.697,22.49 21.697,22.724 C21.697,22.88 21.807,23.052 22.041,23.052 C22.276,23.052 22.541,22.865 22.541,22.443 C22.541,21.943 22.072,21.49 21.244,21.49 C19.807,21.49 19.401,22.615 19.401,23.084 C19.401,23.943 20.213,24.099 20.526,24.162 C21.088,24.271 21.666,24.396 21.666,25.005 C21.666,25.287 21.416,26.193 20.104,26.193 C19.947,26.193 19.104,26.193 18.854,25.615 C19.276,25.677 19.541,25.349 19.541,25.037 C19.541,24.787 19.369,24.662 19.135,24.662 C18.854,24.662 18.526,24.896 18.526,25.38 C18.526,26.005 19.151,26.443 20.088,26.443 C21.854,26.443 22.276,25.115 22.276,24.63 C22.276,24.24 22.072,23.959 21.947,23.834 C21.651,23.521 21.338,23.474 20.854,23.38 C20.463,23.287 20.026,23.209 20.026,22.724 C20.026,22.396 20.291,21.74 21.244,21.74 C21.526,21.74 22.057,21.818 22.229,22.24 z M22.229,22.24" fill="#FF0000"/>
    <path d="M26.233,23.599 C26.233,22.74 26.108,21.427 25.514,20.193 C24.858,18.849 23.921,18.146 23.811,18.146 C23.749,18.146 23.702,18.177 23.702,18.24 C23.702,18.287 23.702,18.302 23.905,18.505 C24.968,19.584 25.593,21.318 25.593,23.599 C25.593,25.459 25.186,27.38 23.843,28.755 C23.702,28.88 23.702,28.896 23.702,28.943 C23.702,29.005 23.749,29.037 23.811,29.037 C23.921,29.037 24.905,28.302 25.546,26.912 C26.093,25.724 26.233,24.505 26.233,23.599 z M26.233,23.599" fill="#FF0000"/>
    <path d="M37.852,22.755 C38.009,22.755 38.212,22.755 38.212,22.537 C38.212,22.318 38.009,22.318 37.852,22.318 L31.321,22.318 C31.165,22.318 30.962,22.318 30.962,22.537 C30.962,22.755 31.165,22.755 31.337,22.755 z M37.852,24.865 C38.009,24.865 38.212,24.865 38.212,24.646 C38.212,24.427 38.009,24.427 37.852,24.427 L31.337,24.427 C31.165,24.427 30.962,24.427 30.962,24.646 C30.962,24.865 31.165,24.865 31.321,24.865 z M37.852,24.865" fill="#FF0000"/>
    <path d="M45.427,20.306 L46.177,20.306 L46.177,1.446 L49.052,1.446 L49.052,0.696 L45.427,0.696 z M45.427,20.306" fill="#FF0000"/>
    <path d="M45.427,26.865 L46.177,26.865 L46.177,20.302 L45.427,20.302 z M45.427,26.865" fill="#FF0000"/>
    <path d="M45.427,46.487 L49.052,46.487 L49.052,45.737 L46.177,45.737 L46.177,26.863 L45.427,26.863 z M45.427,46.487" fill="#FF0000"/>
    <path d="M80,8.183 C80,7.308 79.953,6.433 79.562,5.62 C79.062,4.573 78.172,4.401 77.703,4.401 C77.062,4.401 76.265,4.683 75.812,5.698 C75.468,6.448 75.406,7.308 75.406,8.183 C75.406,8.995 75.453,9.979 75.906,10.808 C76.375,11.683 77.172,11.901 77.703,11.901 C78.281,11.901 79.125,11.683 79.593,10.636 C79.953,9.886 80,9.042 80,8.183 z M77.703,11.667 C77.281,11.667 76.625,11.401 76.437,10.354 C76.312,9.698 76.312,8.683 76.312,8.042 C76.312,7.355 76.312,6.636 76.406,6.042 C76.609,4.745 77.422,4.636 77.703,4.636 C78.062,4.636 78.781,4.839 78.984,5.917 C79.093,6.526 79.093,7.355 79.093,8.042 C79.093,8.87 79.093,9.604 78.968,10.308 C78.812,11.339 78.187,11.667 77.703,11.667 z M77.703,11.667" fill="#FF0000"/>
    <path d="M50.384,26.149 C50.337,26.305 50.337,26.321 50.337,26.399 C50.337,26.587 50.493,26.696 50.665,26.696 C50.993,26.696 51.056,26.43 51.134,26.087 C51.243,25.68 51.181,25.899 51.649,24.055 C52.571,24.102 53.524,24.274 53.524,24.993 C53.524,25.071 53.524,25.118 53.493,25.227 C53.446,25.399 53.446,25.524 53.446,25.618 C53.446,26.259 53.884,26.696 54.446,26.696 C54.79,26.696 55.071,26.493 55.29,26.118 C55.571,25.665 55.696,25.04 55.696,25.009 C55.696,24.899 55.602,24.899 55.571,24.899 C55.462,24.899 55.446,24.946 55.415,25.102 C55.212,25.852 54.962,26.446 54.462,26.446 C54.243,26.446 54.118,26.305 54.118,25.93 C54.118,25.759 54.165,25.509 54.196,25.321 C54.227,25.212 54.259,25.071 54.259,24.962 C54.259,23.93 52.759,23.852 52.149,23.837 C52.509,23.634 52.852,23.337 53.149,23.087 C53.649,22.665 53.962,22.399 54.399,22.212 C54.384,22.274 54.352,22.399 54.352,22.462 C54.352,22.587 54.415,22.837 54.759,22.837 C55.102,22.837 55.352,22.524 55.352,22.259 C55.352,22.149 55.306,21.868 54.915,21.868 C54.243,21.868 53.602,22.415 53.118,22.821 C52.384,23.446 52.118,23.618 51.727,23.743 C51.759,23.634 51.899,23.087 51.946,22.899 C52.009,22.618 52.149,22.102 52.149,22.04 C52.149,21.852 52.009,21.743 51.821,21.743 C51.79,21.743 51.493,21.743 51.384,22.149 z M50.384,26.149" fill="#FF0000"/>
    <path d="M59.638,29.196 C59.638,29.149 59.638,29.134 59.451,28.946 C58.091,27.571 57.748,25.509 57.748,23.852 C57.748,21.946 58.154,20.055 59.498,18.68 C59.638,18.555 59.638,18.54 59.638,18.493 C59.638,18.43 59.591,18.399 59.529,18.399 C59.42,18.399 58.435,19.134 57.795,20.524 C57.232,21.712 57.107,22.93 57.107,23.852 C57.107,24.696 57.232,26.009 57.826,27.243 C58.482,28.587 59.42,29.29 59.529,29.29 C59.591,29.29 59.638,29.259 59.638,29.196 z M59.638,29.196" fill="#FF0000"/>
    <path d="M64.537,22.493 C64.224,22.509 64.005,22.743 64.005,22.977 C64.005,23.134 64.115,23.305 64.349,23.305 C64.584,23.305 64.849,23.118 64.849,22.696 C64.849,22.196 64.38,21.743 63.552,21.743 C62.115,21.743 61.708,22.868 61.708,23.337 C61.708,24.196 62.521,24.352 62.833,24.415 C63.396,24.524 63.974,24.649 63.974,25.259 C63.974,25.54 63.724,26.446 62.412,26.446 C62.255,26.446 61.412,26.446 61.162,25.868 C61.583,25.93 61.849,25.602 61.849,25.29 C61.849,25.04 61.677,24.915 61.443,24.915 C61.162,24.915 60.833,25.149 60.833,25.634 C60.833,26.259 61.458,26.696 62.396,26.696 C64.162,26.696 64.584,25.368 64.584,24.884 C64.584,24.493 64.38,24.212 64.255,24.087 C63.958,23.774 63.646,23.727 63.162,23.634 C62.771,23.54 62.333,23.462 62.333,22.977 C62.333,22.649 62.599,21.993 63.552,21.993 C63.833,21.993 64.365,22.071 64.537,22.493 z M64.537,22.493" fill="#FF0000"/>
    <path d="M68.541,23.852 C68.541,22.993 68.416,21.68 67.822,20.446 C67.166,19.102 66.229,18.399 66.119,18.399 C66.057,18.399 66.01,18.43 66.01,18.493 C66.01,18.54 66.01,18.555 66.213,18.759 C67.276,19.837 67.901,21.571 67.901,23.852 C67.901,25.712 67.494,27.634 66.151,29.009 C66.01,29.134 66.01,29.149 66.01,29.196 C66.01,29.259 66.057,29.29 66.119,29.29 C66.229,29.29 67.213,28.555 67.854,27.165 C68.401,25.977 68.541,24.759 68.541,23.852 z M68.541,23.852" fill="#FF0000"/>
    <g>
      <path d="M73.715,24.462 C73.965,24.493 74.856,24.68 74.856,25.462 C74.856,26.009 74.465,26.446 73.621,26.446 C72.699,26.446 72.309,25.837 72.106,24.899 C72.074,24.759 72.059,24.712 71.949,24.712 C71.809,24.712 71.809,24.79 71.809,24.993 L71.809,26.43 C71.809,26.618 71.809,26.696 71.934,26.696 C71.981,26.696 71.996,26.68 72.199,26.477 C72.231,26.446 72.231,26.43 72.418,26.227 C72.902,26.68 73.387,26.696 73.621,26.696 C74.871,26.696 75.371,25.962 75.371,25.18 C75.371,24.602 75.043,24.274 74.918,24.134 C74.559,23.79 74.137,23.696 73.668,23.618 C73.059,23.493 72.34,23.352 72.34,22.727 C72.34,22.337 72.621,21.899 73.559,21.899 C74.746,21.899 74.809,22.868 74.824,23.212 C74.84,23.305 74.934,23.305 74.965,23.305 C75.106,23.305 75.106,23.259 75.106,23.055 L75.106,21.946 C75.106,21.759 75.106,21.68 74.981,21.68 C74.934,21.68 74.902,21.68 74.762,21.821 C74.731,21.852 74.621,21.962 74.574,21.993 C74.168,21.68 73.715,21.68 73.559,21.68 C72.231,21.68 71.809,22.415 71.809,23.024 C71.809,23.415 71.981,23.712 72.277,23.946 C72.621,24.243 72.934,24.305 73.715,24.462 z M73.715,24.462" fill="#FF0000"/>
      <path d="M77.689,21.743 L76.158,21.868 L76.158,22.212 C76.861,22.212 76.955,22.274 76.955,22.805 L76.955,25.743 C76.955,26.227 76.846,26.227 76.111,26.227 L76.111,26.571 C76.455,26.555 77.049,26.54 77.314,26.54 C77.689,26.54 78.08,26.555 78.439,26.571 L78.439,26.227 C77.721,26.227 77.689,26.18 77.689,25.759 z M77.721,19.852 C77.721,19.509 77.455,19.274 77.143,19.274 C76.814,19.274 76.564,19.571 76.564,19.852 C76.564,20.149 76.814,20.43 77.143,20.43 C77.455,20.43 77.721,20.196 77.721,19.852 z M77.721,19.852" fill="#FF0000"/>
      <path d="M79.986,22.821 L79.986,25.743 C79.986,26.227 79.861,26.227 79.126,26.227 L79.126,26.571 C79.517,26.555 80.064,26.54 80.361,26.54 C80.642,26.54 81.22,26.555 81.579,26.571 L81.579,26.227 C80.861,26.227 80.736,26.227 80.736,25.743 L80.736,23.743 C80.736,22.602 81.501,21.993 82.204,21.993 C82.892,21.993 83.017,22.587 83.017,23.196 L83.017,25.743 C83.017,26.227 82.892,26.227 82.157,26.227 L82.157,26.571 C82.548,26.555 83.095,26.54 83.392,26.54 C83.673,26.54 84.251,26.555 84.611,26.571 L84.611,26.227 C84.048,26.227 83.782,26.227 83.767,25.899 L83.767,23.821 C83.767,22.884 83.767,22.54 83.423,22.149 C83.282,21.962 82.923,21.743 82.282,21.743 C81.486,21.743 80.97,22.212 80.673,22.899 L80.673,21.743 L79.126,21.868 L79.126,22.212 C79.892,22.212 79.986,22.29 79.986,22.821 z M79.986,22.821" fill="#FF0000"/>
    </g>
    <path d="M91.626,21.118 C91.626,20.399 91.423,18.884 90.313,18.884 C88.798,18.884 87.11,21.962 87.11,24.462 C87.11,25.477 87.438,26.696 88.423,26.696 C89.954,26.696 91.626,23.555 91.626,21.118 z M88.266,22.618 C88.454,21.915 88.673,21.04 89.11,20.274 C89.407,19.727 89.813,19.118 90.298,19.118 C90.829,19.118 90.907,19.821 90.907,20.446 C90.907,20.977 90.813,21.54 90.548,22.618 z M90.454,22.962 C90.329,23.462 90.11,24.384 89.688,25.18 C89.313,25.915 88.891,26.446 88.423,26.446 C88.063,26.446 87.829,26.134 87.829,25.118 C87.829,24.665 87.907,24.024 88.188,22.962 z M90.454,22.962" fill="#FF0000"/>
    <path d="M95.691,29.196 C95.691,29.149 95.691,29.134 95.504,28.946 C94.145,27.571 93.801,25.509 93.801,23.852 C93.801,21.946 94.207,20.055 95.551,18.68 C95.691,18.555 95.691,18.54 95.691,18.493 C95.691,18.43 95.645,18.399 95.582,18.399 C95.473,18.399 94.488,19.134 93.848,20.524 C93.285,21.712 93.16,22.93 93.16,23.852 C93.16,24.696 93.285,26.009 93.879,27.243 C94.535,28.587 95.473,29.29 95.582,29.29 C95.645,29.29 95.691,29.259 95.691,29.196 z M95.691,29.196" fill="#FF0000"/>
    <path d="M100.59,22.493 C100.277,22.509 100.058,22.743 100.058,22.977 C100.058,23.134 100.168,23.305 100.402,23.305 C100.637,23.305 100.902,23.118 100.902,22.696 C100.902,22.196 100.433,21.743 99.605,21.743 C98.168,21.743 97.762,22.868 97.762,23.337 C97.762,24.196 98.574,24.352 98.887,24.415 C99.449,24.524 100.027,24.649 100.027,25.259 C100.027,25.54 99.777,26.446 98.465,26.446 C98.308,26.446 97.465,26.446 97.215,25.868 C97.637,25.93 97.902,25.602 97.902,25.29 C97.902,25.04 97.73,24.915 97.496,24.915 C97.215,24.915 96.887,25.149 96.887,25.634 C96.887,26.259 97.512,26.696 98.449,26.696 C100.215,26.696 100.637,25.368 100.637,24.884 C100.637,24.493 100.433,24.212 100.308,24.087 C100.012,23.774 99.699,23.727 99.215,23.634 C98.824,23.54 98.387,23.462 98.387,22.977 C98.387,22.649 98.652,21.993 99.605,21.993 C99.887,21.993 100.418,22.071 100.59,22.493 z M100.59,22.493" fill="#FF0000"/>
    <path d="M104.594,23.852 C104.594,22.993 104.469,21.68 103.875,20.446 C103.219,19.102 102.282,18.399 102.172,18.399 C102.11,18.399 102.063,18.43 102.063,18.493 C102.063,18.54 102.063,18.555 102.266,18.759 C103.329,19.837 103.954,21.571 103.954,23.852 C103.954,25.712 103.547,27.634 102.204,29.009 C102.063,29.134 102.063,29.149 102.063,29.196 C102.063,29.259 102.11,29.29 102.172,29.29 C102.282,29.29 103.266,28.555 103.907,27.165 C104.454,25.977 104.594,24.759 104.594,23.852 z M104.594,23.852" fill="#FF0000"/>
    <path d="M49.778,41.054 C49.731,41.21 49.731,41.226 49.731,41.304 C49.731,41.492 49.887,41.601 50.059,41.601 C50.387,41.601 50.449,41.335 50.528,40.992 C50.637,40.585 50.574,40.804 51.043,38.96 C51.965,39.007 52.918,39.179 52.918,39.898 C52.918,39.976 52.918,40.023 52.887,40.132 C52.84,40.304 52.84,40.429 52.84,40.523 C52.84,41.163 53.278,41.601 53.84,41.601 C54.184,41.601 54.465,41.398 54.684,41.023 C54.965,40.57 55.09,39.945 55.09,39.913 C55.09,39.804 54.996,39.804 54.965,39.804 C54.856,39.804 54.84,39.851 54.809,40.007 C54.606,40.757 54.356,41.351 53.856,41.351 C53.637,41.351 53.512,41.21 53.512,40.835 C53.512,40.663 53.559,40.413 53.59,40.226 C53.621,40.117 53.653,39.976 53.653,39.867 C53.653,38.835 52.153,38.757 51.543,38.742 C51.903,38.538 52.246,38.242 52.543,37.992 C53.043,37.57 53.356,37.304 53.793,37.117 C53.778,37.179 53.746,37.304 53.746,37.367 C53.746,37.492 53.809,37.742 54.153,37.742 C54.496,37.742 54.746,37.429 54.746,37.163 C54.746,37.054 54.699,36.773 54.309,36.773 C53.637,36.773 52.996,37.32 52.512,37.726 C51.778,38.351 51.512,38.523 51.121,38.648 C51.153,38.538 51.293,37.992 51.34,37.804 C51.403,37.523 51.543,37.007 51.543,36.945 C51.543,36.757 51.403,36.648 51.215,36.648 C51.184,36.648 50.887,36.648 50.778,37.054 z M49.778,41.054" fill="#FF0000"/>
    <path d="M59.032,44.101 C59.032,44.054 59.032,44.038 58.845,43.851 C57.486,42.476 57.142,40.413 57.142,38.757 C57.142,36.851 57.548,34.96 58.892,33.585 C59.032,33.46 59.032,33.445 59.032,33.398 C59.032,33.335 58.986,33.304 58.923,33.304 C58.814,33.304 57.829,34.038 57.189,35.429 C56.626,36.617 56.501,37.835 56.501,38.757 C56.501,39.601 56.626,40.913 57.22,42.148 C57.876,43.492 58.814,44.195 58.923,44.195 C58.986,44.195 59.032,44.163 59.032,44.101 z M59.032,44.101" fill="#FF0000"/>
    <path d="M63.931,37.398 C63.618,37.413 63.399,37.648 63.399,37.882 C63.399,38.038 63.509,38.21 63.743,38.21 C63.978,38.21 64.243,38.023 64.243,37.601 C64.243,37.101 63.774,36.648 62.946,36.648 C61.509,36.648 61.103,37.773 61.103,38.242 C61.103,39.101 61.915,39.257 62.228,39.32 C62.79,39.429 63.368,39.554 63.368,40.163 C63.368,40.445 63.118,41.351 61.806,41.351 C61.649,41.351 60.806,41.351 60.556,40.773 C60.978,40.835 61.243,40.507 61.243,40.195 C61.243,39.945 61.071,39.82 60.837,39.82 C60.556,39.82 60.228,40.054 60.228,40.538 C60.228,41.163 60.853,41.601 61.79,41.601 C63.556,41.601 63.978,40.273 63.978,39.788 C63.978,39.398 63.774,39.117 63.649,38.992 C63.353,38.679 63.04,38.632 62.556,38.538 C62.165,38.445 61.728,38.367 61.728,37.882 C61.728,37.554 61.993,36.898 62.946,36.898 C63.228,36.898 63.759,36.976 63.931,37.398 z M63.931,37.398" fill="#FF0000"/>
    <path d="M67.935,38.757 C67.935,37.898 67.81,36.585 67.216,35.351 C66.56,34.007 65.623,33.304 65.513,33.304 C65.451,33.304 65.404,33.335 65.404,33.398 C65.404,33.445 65.404,33.46 65.607,33.663 C66.67,34.742 67.295,36.476 67.295,38.757 C67.295,40.617 66.888,42.538 65.545,43.913 C65.404,44.038 65.404,44.054 65.404,44.101 C65.404,44.163 65.451,44.195 65.513,44.195 C65.623,44.195 66.607,43.46 67.248,42.07 C67.795,40.882 67.935,39.663 67.935,38.757 z M67.935,38.757" fill="#FF0000"/>
    <g>
      <path d="M72.125,39.101 C72.125,37.32 73.015,36.867 73.593,36.867 C73.687,36.867 74.375,36.867 74.765,37.273 C74.312,37.304 74.25,37.632 74.25,37.773 C74.25,38.054 74.437,38.273 74.75,38.273 C75.031,38.273 75.25,38.085 75.25,37.757 C75.25,37.023 74.421,36.585 73.578,36.585 C72.218,36.585 71.218,37.773 71.218,39.117 C71.218,40.523 72.296,41.601 73.562,41.601 C75.015,41.601 75.375,40.288 75.375,40.179 C75.375,40.07 75.265,40.07 75.234,40.07 C75.125,40.07 75.109,40.117 75.093,40.179 C74.765,41.195 74.062,41.32 73.656,41.32 C73.078,41.32 72.125,40.851 72.125,39.101 z M72.125,39.101" fill="#FF0000"/>
      <path d="M80.832,39.148 C80.832,37.742 79.738,36.585 78.41,36.585 C77.051,36.585 76.004,37.773 76.004,39.148 C76.004,40.554 77.129,41.601 78.41,41.601 C79.723,41.601 80.832,40.523 80.832,39.148 z M78.41,41.32 C77.941,41.32 77.473,41.101 77.176,40.585 C76.894,40.117 76.894,39.445 76.894,39.054 C76.894,38.632 76.894,38.038 77.16,37.554 C77.457,37.054 77.973,36.835 78.41,36.835 C78.894,36.835 79.363,37.07 79.644,37.538 C79.926,38.007 79.926,38.648 79.926,39.054 C79.926,39.445 79.926,40.038 79.676,40.523 C79.441,41.007 78.957,41.32 78.41,41.32 z M78.41,41.32" fill="#FF0000"/>
      <path d="M83.412,39.367 C83.662,39.398 84.552,39.585 84.552,40.367 C84.552,40.913 84.162,41.351 83.318,41.351 C82.396,41.351 82.005,40.742 81.802,39.804 C81.771,39.663 81.755,39.617 81.646,39.617 C81.505,39.617 81.505,39.695 81.505,39.898 L81.505,41.335 C81.505,41.523 81.505,41.601 81.63,41.601 C81.677,41.601 81.693,41.585 81.896,41.382 C81.927,41.351 81.927,41.335 82.115,41.132 C82.599,41.585 83.083,41.601 83.318,41.601 C84.568,41.601 85.068,40.867 85.068,40.085 C85.068,39.507 84.74,39.179 84.615,39.038 C84.255,38.695 83.833,38.601 83.365,38.523 C82.755,38.398 82.037,38.257 82.037,37.632 C82.037,37.242 82.318,36.804 83.255,36.804 C84.443,36.804 84.505,37.773 84.521,38.117 C84.537,38.21 84.63,38.21 84.662,38.21 C84.802,38.21 84.802,38.163 84.802,37.96 L84.802,36.851 C84.802,36.663 84.802,36.585 84.677,36.585 C84.63,36.585 84.599,36.585 84.458,36.726 C84.427,36.757 84.318,36.867 84.271,36.898 C83.865,36.585 83.412,36.585 83.255,36.585 C81.927,36.585 81.505,37.32 81.505,37.929 C81.505,38.32 81.677,38.617 81.974,38.851 C82.318,39.148 82.63,39.21 83.412,39.367 z M83.412,39.367" fill="#FF0000"/>
    </g>
    <path d="M92.232,36.023 C92.232,35.304 92.029,33.788 90.919,33.788 C89.404,33.788 87.716,36.867 87.716,39.367 C87.716,40.382 88.044,41.601 89.029,41.601 C90.56,41.601 92.232,38.46 92.232,36.023 z M88.872,37.523 C89.06,36.82 89.279,35.945 89.716,35.179 C90.013,34.632 90.419,34.023 90.904,34.023 C91.435,34.023 91.513,34.726 91.513,35.351 C91.513,35.882 91.419,36.445 91.154,37.523 z M91.06,37.867 C90.935,38.367 90.716,39.288 90.294,40.085 C89.919,40.82 89.497,41.351 89.029,41.351 C88.669,41.351 88.435,41.038 88.435,40.023 C88.435,39.57 88.513,38.929 88.794,37.867 z M91.06,37.867" fill="#FF0000"/>
    <path d="M96.297,44.101 C96.297,44.054 96.297,44.038 96.11,43.851 C94.75,42.476 94.407,40.413 94.407,38.757 C94.407,36.851 94.813,34.96 96.157,33.585 C96.297,33.46 96.297,33.445 96.297,33.398 C96.297,33.335 96.25,33.304 96.188,33.304 C96.079,33.304 95.094,34.038 94.454,35.429 C93.891,36.617 93.766,37.835 93.766,38.757 C93.766,39.601 93.891,40.913 94.485,42.148 C95.141,43.492 96.079,44.195 96.188,44.195 C96.25,44.195 96.297,44.163 96.297,44.101 z M96.297,44.101" fill="#FF0000"/>
    <path d="M101.196,37.398 C100.883,37.413 100.664,37.648 100.664,37.882 C100.664,38.038 100.774,38.21 101.008,38.21 C101.243,38.21 101.508,38.023 101.508,37.601 C101.508,37.101 101.039,36.648 100.211,36.648 C98.774,36.648 98.368,37.773 98.368,38.242 C98.368,39.101 99.18,39.257 99.493,39.32 C100.055,39.429 100.633,39.554 100.633,40.163 C100.633,40.445 100.383,41.351 99.071,41.351 C98.914,41.351 98.071,41.351 97.821,40.773 C98.243,40.835 98.508,40.507 98.508,40.195 C98.508,39.945 98.336,39.82 98.102,39.82 C97.821,39.82 97.493,40.054 97.493,40.538 C97.493,41.163 98.118,41.601 99.055,41.601 C100.821,41.601 101.243,40.273 101.243,39.788 C101.243,39.398 101.039,39.117 100.914,38.992 C100.618,38.679 100.305,38.632 99.821,38.538 C99.43,38.445 98.993,38.367 98.993,37.882 C98.993,37.554 99.258,36.898 100.211,36.898 C100.493,36.898 101.024,36.976 101.196,37.398 z M101.196,37.398" fill="#FF0000"/>
    <path d="M105.2,38.757 C105.2,37.898 105.075,36.585 104.481,35.351 C103.825,34.007 102.888,33.304 102.778,33.304 C102.716,33.304 102.669,33.335 102.669,33.398 C102.669,33.445 102.669,33.46 102.872,33.663 C103.935,34.742 104.56,36.476 104.56,38.757 C104.56,40.617 104.153,42.538 102.81,43.913 C102.669,44.038 102.669,44.054 102.669,44.101 C102.669,44.163 102.716,44.195 102.778,44.195 C102.888,44.195 103.872,43.46 104.513,42.07 C105.06,40.882 105.2,39.663 105.2,38.757 z M105.2,38.757" fill="#FF0000"/>
    <path d="M109.239,20.306 L109.989,20.306 L109.989,0.696 L106.364,0.696 L106.364,1.446 L109.239,1.446 z M109.239,20.306" fill="#FF0000"/>
    <path d="M109.239,26.865 L109.989,26.865 L109.989,20.302 L109.239,20.302 z M109.239,26.865" fill="#FF0000"/>
    <path d="M109.239,45.737 L106.364,45.737 L106.364,46.487 L109.989,46.487 L109.989,26.863 L109.239,26.863 z M109.239,45.737" fill="#FF0000"/>
    <path d="M124.089,22.755 C124.245,22.755 124.448,22.755 124.448,22.537 C124.448,22.318 124.245,22.318 124.089,22.318 L117.558,22.318 C117.402,22.318 117.198,22.318 117.198,22.537 C117.198,22.755 117.402,22.755 117.573,22.755 z M124.089,24.865 C124.245,24.865 124.448,24.865 124.448,24.646 C124.448,24.427 124.245,24.427 124.089,24.427 L117.573,24.427 C117.402,24.427 117.198,24.427 117.198,24.646 C117.198,24.865 117.402,24.865 117.558,24.865 z M124.089,24.865" fill="#FF0000"/>
    <g>
      <path d="M128.76,25.427 C128.713,25.584 128.651,25.849 128.651,25.927 C128.651,26.162 128.823,26.412 129.166,26.412 C129.729,26.412 129.854,25.896 129.932,25.615 L130.354,23.959 C131.276,23.974 132.198,24.115 132.198,24.771 C132.198,24.834 132.182,24.959 132.166,25.021 C132.166,25.037 132.135,25.177 132.135,25.287 C132.135,25.974 132.807,26.412 133.526,26.412 C134.62,26.412 135.026,24.787 135.026,24.709 C135.026,24.552 134.854,24.552 134.76,24.552 C134.557,24.552 134.541,24.568 134.479,24.771 C134.401,25.084 134.135,26.005 133.573,26.005 C133.463,26.005 133.291,26.005 133.291,25.584 C133.291,25.552 133.307,25.318 133.354,25.115 C133.401,24.974 133.416,24.849 133.416,24.755 C133.416,24.068 132.713,23.834 132.526,23.771 C132.135,23.662 131.995,23.63 130.979,23.552 C131.26,23.38 131.573,23.115 131.948,22.834 C132.666,22.255 132.854,22.177 133.104,22.037 C133.104,22.068 133.073,22.146 133.073,22.24 C133.073,22.584 133.323,22.755 133.604,22.755 C134.088,22.755 134.385,22.334 134.385,21.99 C134.385,21.849 134.323,21.474 133.823,21.474 C133.073,21.474 132.323,22.068 131.823,22.474 C131.151,23.005 130.87,23.209 130.495,23.38 C130.557,23.146 130.62,22.896 130.682,22.646 C130.807,22.115 130.854,21.959 130.854,21.865 C130.854,21.646 130.682,21.396 130.338,21.396 C130.151,21.396 129.745,21.49 129.62,21.959 L129.245,23.505 z M128.76,25.427" fill="#FF0000"/>
      <path d="M138.449,19.13 C138.496,18.974 138.496,18.959 138.496,18.943 C138.496,18.802 138.371,18.755 138.262,18.755 C138.215,18.755 138.199,18.755 138.184,18.755 L136.778,18.818 C136.621,18.834 136.418,18.849 136.418,19.146 C136.418,19.349 136.637,19.349 136.699,19.349 C136.824,19.349 137.028,19.349 137.168,19.365 C137.074,19.74 136.965,20.209 136.856,20.63 L136.106,23.63 C135.949,24.24 135.949,24.38 135.949,24.63 C135.949,26.021 136.996,26.412 137.809,26.412 C139.778,26.412 140.903,24.63 140.903,23.193 C140.903,21.849 139.903,21.396 138.996,21.396 C138.481,21.396 138.043,21.599 137.809,21.74 z M137.824,26.005 C137.403,26.005 137.043,25.787 137.043,25.115 C137.043,24.755 137.153,24.349 137.231,24.021 C137.34,23.599 137.528,22.849 137.606,22.521 C137.653,22.334 138.278,21.787 138.949,21.787 C139.621,21.787 139.668,22.365 139.668,22.615 C139.668,23.177 139.309,24.521 139.121,24.943 C138.762,25.834 138.153,26.005 137.824,26.005 z M137.824,26.005" fill="#FF0000"/>
    </g>
    <path d="M144.678,28.943 C144.678,28.896 144.678,28.88 144.491,28.693 C143.132,27.318 142.788,25.255 142.788,23.599 C142.788,21.693 143.194,19.802 144.538,18.427 C144.678,18.302 144.678,18.287 144.678,18.24 C144.678,18.177 144.632,18.146 144.569,18.146 C144.46,18.146 143.475,18.88 142.835,20.271 C142.272,21.459 142.147,22.677 142.147,23.599 C142.147,24.443 142.272,25.755 142.866,26.99 C143.522,28.334 144.46,29.037 144.569,29.037 C144.632,29.037 144.678,29.005 144.678,28.943 z M144.678,28.943" fill="#FF0000"/>
    <path d="M149.577,22.24 C149.264,22.255 149.045,22.49 149.045,22.724 C149.045,22.88 149.155,23.052 149.389,23.052 C149.623,23.052 149.889,22.865 149.889,22.443 C149.889,21.943 149.42,21.49 148.592,21.49 C147.155,21.49 146.748,22.615 146.748,23.084 C146.748,23.943 147.561,24.099 147.873,24.162 C148.436,24.271 149.014,24.396 149.014,25.005 C149.014,25.287 148.764,26.193 147.452,26.193 C147.295,26.193 146.452,26.193 146.202,25.615 C146.623,25.677 146.889,25.349 146.889,25.037 C146.889,24.787 146.717,24.662 146.483,24.662 C146.202,24.662 145.873,24.896 145.873,25.38 C145.873,26.005 146.498,26.443 147.436,26.443 C149.202,26.443 149.623,25.115 149.623,24.63 C149.623,24.24 149.42,23.959 149.295,23.834 C148.998,23.521 148.686,23.474 148.202,23.38 C147.811,23.287 147.373,23.209 147.373,22.724 C147.373,22.396 147.639,21.74 148.592,21.74 C148.873,21.74 149.405,21.818 149.577,22.24 z M149.577,22.24" fill="#FF0000"/>
    <path d="M153.581,23.599 C153.581,22.74 153.456,21.427 152.863,20.193 C152.206,18.849 151.269,18.146 151.159,18.146 C151.097,18.146 151.05,18.177 151.05,18.24 C151.05,18.287 151.05,18.302 151.253,18.505 C152.316,19.584 152.941,21.318 152.941,23.599 C152.941,25.459 152.534,27.38 151.191,28.755 C151.05,28.88 151.05,28.896 151.05,28.943 C151.05,29.005 151.097,29.037 151.159,29.037 C151.269,29.037 152.253,28.302 152.894,26.912 C153.441,25.724 153.581,24.505 153.581,23.599 z M153.581,23.599" fill="#FF0000"/>
    <g>
      <path d="M372.776,27.771 L372.776,27.318 C372.323,26.99 371.979,26.552 371.776,25.959 C371.573,25.38 371.479,24.568 371.479,23.521 C371.479,22.474 371.573,21.662 371.776,21.068 C371.979,20.49 372.323,20.052 372.776,19.724 L372.776,19.271 C371.307,19.927 370.557,21.365 370.557,23.521 C370.557,25.662 371.307,27.099 372.776,27.771 z M372.776,27.771" fill="#000000"/>
      <path d="M374.346,19.849 L374.346,21.037 L374.846,21.037 C374.924,20.287 375.377,19.88 376.189,19.88 C377.002,19.88 377.455,20.318 377.455,21.115 C377.455,21.99 376.939,22.427 375.861,22.427 L375.643,22.427 L375.643,22.896 L376.064,22.896 C377.143,22.896 377.689,23.443 377.689,24.505 C377.689,25.427 377.127,26.005 376.205,26.005 C375.252,26.005 374.721,25.552 374.658,24.677 L374.143,24.677 L374.143,25.99 C374.814,26.302 375.471,26.443 376.189,26.443 C377.783,26.443 378.643,25.755 378.643,24.49 C378.643,23.459 378.002,22.787 376.893,22.63 C377.83,22.443 378.361,21.865 378.361,21.052 C378.361,20.052 377.596,19.443 376.268,19.443 C375.705,19.443 375.049,19.584 374.346,19.849 z M374.346,19.849" fill="#000000"/>
      <path d="M380.212,25.849 C380.212,26.193 380.462,26.443 380.806,26.443 C381.149,26.443 381.415,26.177 381.415,25.849 C381.415,25.505 381.149,25.24 380.806,25.24 C380.462,25.24 380.212,25.505 380.212,25.849 z M380.212,25.849" fill="#000000"/>
      <path d="M386.942,19.568 L383.364,19.568 L383.364,22.959 L383.754,22.959 C384.083,22.552 384.489,22.365 385.036,22.365 C385.989,22.365 386.504,23.005 386.504,24.177 C386.504,25.349 385.989,26.005 385.036,26.005 C384.145,26.005 383.645,25.537 383.583,24.677 L383.067,24.677 L383.067,25.99 C383.754,26.302 384.411,26.443 385.036,26.443 C386.583,26.443 387.458,25.615 387.458,24.177 C387.458,23.49 387.254,22.927 386.833,22.521 C386.411,22.115 385.833,21.912 385.098,21.912 C384.583,21.912 384.161,22.021 383.848,22.24 L383.848,20.302 L386.942,20.302 z M386.942,19.568" fill="#000000"/>
      <path d="M389.371,21.177 C389.449,20.318 389.918,19.88 390.793,19.88 C391.605,19.88 392.121,20.427 392.121,21.349 C392.121,22.162 391.761,22.88 390.855,23.787 L388.808,25.834 L388.808,26.318 L393.168,26.318 L393.168,24.74 L392.636,24.74 L392.636,25.584 L389.824,25.584 L391.527,23.865 L391.683,23.709 C392.605,22.802 393.074,22.005 393.074,21.349 C393.074,20.162 392.199,19.443 390.793,19.443 C390.168,19.443 389.496,19.63 388.855,19.974 L388.855,21.177 z M389.371,21.177" fill="#000000"/>
      <path d="M394.737,27.771 C396.206,27.099 396.956,25.662 396.956,23.521 C396.956,21.365 396.206,19.927 394.737,19.271 L394.737,19.724 C395.206,20.052 395.534,20.49 395.737,21.068 C395.94,21.662 396.049,22.474 396.049,23.521 C396.049,24.568 395.94,25.38 395.737,25.959 C395.534,26.552 395.206,26.99 394.737,27.318 z M394.737,27.771" fill="#000000"/>
    </g>
  </g>
</svg>
