<?xml version="1.0" encoding="UTF-8"?>
<!DOCTYPE svg PUBLIC "-//W3C//DTD SVG 1.1//EN" "http://www.w3.org/Graphics/SVG/1.1/DTD/svg11.dtd">
<svg version="1.1" xmlns="http://www.w3.org/2000/svg" xmlns:xlink="http://www.w3.org/1999/xlink" x="0" y="0" width="397" height="62" viewBox="0, 0, 397, 62">
  <g id="Background">
    <rect x="0" y="0" width="397" height="62" fill="#000000" fill-opacity="0"/>
  </g>
  <g id="Background"/>
  <g id="surface401">
    <g>
      <path d="M0.292,15.418 C0.245,15.574 0.182,15.839 0.182,15.918 C0.182,16.152 0.354,16.402 0.698,16.402 C1.26,16.402 1.385,15.886 1.464,15.605 L1.885,13.949 C2.807,13.964 3.729,14.105 3.729,14.761 C3.729,14.824 3.714,14.949 3.698,15.011 C3.698,15.027 3.667,15.168 3.667,15.277 C3.667,15.964 4.339,16.402 5.057,16.402 C6.151,16.402 6.557,14.777 6.557,14.699 C6.557,14.543 6.385,14.543 6.292,14.543 C6.089,14.543 6.073,14.558 6.01,14.761 C5.932,15.074 5.667,15.996 5.104,15.996 C4.995,15.996 4.823,15.996 4.823,15.574 C4.823,15.543 4.839,15.308 4.885,15.105 C4.932,14.964 4.948,14.839 4.948,14.746 C4.948,14.058 4.245,13.824 4.057,13.761 C3.667,13.652 3.526,13.621 2.51,13.543 C2.792,13.371 3.104,13.105 3.479,12.824 C4.198,12.246 4.385,12.168 4.635,12.027 C4.635,12.058 4.604,12.136 4.604,12.23 C4.604,12.574 4.854,12.746 5.135,12.746 C5.62,12.746 5.917,12.324 5.917,11.98 C5.917,11.839 5.854,11.464 5.354,11.464 C4.604,11.464 3.854,12.058 3.354,12.464 C2.682,12.996 2.401,13.199 2.026,13.371 C2.089,13.136 2.151,12.886 2.214,12.636 C2.339,12.105 2.385,11.949 2.385,11.855 C2.385,11.636 2.214,11.386 1.87,11.386 C1.682,11.386 1.276,11.48 1.151,11.949 L0.776,13.496 z M0.292,15.418" fill="#FF0000"/>
      <path d="M9.981,9.121 C10.028,8.964 10.028,8.949 10.028,8.933 C10.028,8.793 9.903,8.746 9.793,8.746 C9.746,8.746 9.731,8.746 9.715,8.746 L8.309,8.808 C8.153,8.824 7.95,8.839 7.95,9.136 C7.95,9.339 8.168,9.339 8.231,9.339 C8.356,9.339 8.559,9.339 8.7,9.355 C8.606,9.73 8.496,10.199 8.387,10.621 L7.637,13.621 C7.481,14.23 7.481,14.371 7.481,14.621 C7.481,16.011 8.528,16.402 9.34,16.402 C11.309,16.402 12.434,14.621 12.434,13.183 C12.434,11.839 11.434,11.386 10.528,11.386 C10.012,11.386 9.575,11.589 9.34,11.73 z M9.356,15.996 C8.934,15.996 8.575,15.777 8.575,15.105 C8.575,14.746 8.684,14.339 8.762,14.011 C8.871,13.589 9.059,12.839 9.137,12.511 C9.184,12.324 9.809,11.777 10.481,11.777 C11.153,11.777 11.2,12.355 11.2,12.605 C11.2,13.168 10.84,14.511 10.653,14.933 C10.293,15.824 9.684,15.996 9.356,15.996 z M9.356,15.996" fill="#FF0000"/>
    </g>
    <path d="M18.162,9.908 C18.303,9.908 18.474,9.908 18.474,9.736 C18.474,9.548 18.303,9.548 18.162,9.548 L13.599,9.548 C13.474,9.548 13.303,9.548 13.303,9.736 C13.303,9.908 13.474,9.908 13.599,9.908 z M18.162,9.908" fill="#FF0000"/>
    <path d="M14.974,14.595 C14.974,14.424 14.849,14.283 14.662,14.283 C14.459,14.283 14.224,14.486 14.224,14.72 C14.224,14.892 14.349,15.017 14.537,15.017 C14.74,15.017 14.974,14.83 14.974,14.595 z M13.818,17.517 L13.381,18.611 C13.334,18.736 13.303,18.83 13.303,18.97 C13.303,19.361 13.599,19.642 14.021,19.642 C14.803,19.642 15.131,18.533 15.131,18.424 C15.131,18.345 15.068,18.314 15.006,18.314 C14.912,18.314 14.896,18.377 14.865,18.455 C14.693,19.095 14.365,19.424 14.037,19.424 C13.943,19.424 13.849,19.377 13.849,19.174 C13.849,18.97 13.912,18.83 14.006,18.58 C14.084,18.377 14.162,18.158 14.256,17.939 L14.506,17.299 C14.568,17.111 14.678,16.861 14.678,16.72 C14.678,16.33 14.349,16.049 13.943,16.049 C13.178,16.049 12.834,17.158 12.834,17.267 C12.834,17.345 12.896,17.377 12.959,17.377 C13.068,17.377 13.068,17.33 13.099,17.252 C13.318,16.486 13.678,16.267 13.928,16.267 C14.037,16.267 14.115,16.314 14.115,16.533 C14.115,16.611 14.099,16.72 14.021,16.97 z M13.818,17.517" fill="#FF0000"/>
    <path d="M23.294,18.933 C23.294,18.886 23.294,18.871 23.106,18.683 C21.747,17.308 21.403,15.246 21.403,13.589 C21.403,11.683 21.809,9.793 23.153,8.418 C23.294,8.293 23.294,8.277 23.294,8.23 C23.294,8.168 23.247,8.136 23.184,8.136 C23.075,8.136 22.091,8.871 21.45,10.261 C20.888,11.449 20.763,12.668 20.763,13.589 C20.763,14.433 20.888,15.746 21.481,16.98 C22.138,18.324 23.075,19.027 23.184,19.027 C23.247,19.027 23.294,18.996 23.294,18.933 z M23.294,18.933" fill="#FF0000"/>
    <path d="M26.676,11.98 L27.645,11.98 C27.864,11.98 27.88,11.98 27.942,11.918 C28.005,11.886 28.036,11.73 28.036,11.668 C28.036,11.464 27.848,11.464 27.676,11.464 L26.801,11.464 L27.161,10.058 C27.192,9.886 27.192,9.824 27.192,9.777 C27.192,9.433 26.911,9.293 26.692,9.293 C26.52,9.293 26.223,9.371 26.051,9.683 C26.005,9.761 25.88,10.261 25.801,10.574 L25.583,11.464 L24.598,11.464 C24.38,11.464 24.192,11.464 24.192,11.777 C24.192,11.98 24.38,11.98 24.567,11.98 L25.458,11.98 L24.833,14.464 C24.755,14.746 24.645,15.214 24.645,15.324 C24.645,16.043 25.348,16.402 26.02,16.402 C27.317,16.402 28.067,14.886 28.067,14.699 C28.067,14.543 27.895,14.543 27.801,14.543 C27.614,14.543 27.598,14.558 27.52,14.714 C27.114,15.652 26.505,15.996 26.083,15.996 C25.973,15.996 25.817,15.996 25.817,15.605 C25.817,15.386 25.848,15.277 25.88,15.136 z M26.676,11.98" fill="#FF0000"/>
    <path d="M31.754,10.756 C31.817,10.803 31.848,10.803 31.879,10.803 C32.004,10.803 32.129,10.694 32.129,10.553 C32.129,10.397 32.036,10.366 31.926,10.319 C31.395,10.069 31.192,9.975 30.801,9.819 L31.739,9.397 C31.801,9.366 31.957,9.303 32.02,9.272 C32.098,9.225 32.129,9.147 32.129,9.084 C32.129,8.975 32.082,8.834 31.832,8.834 L30.692,9.616 L30.801,8.428 C30.817,8.303 30.801,8.1 30.567,8.1 C30.426,8.1 30.317,8.225 30.332,8.334 L30.332,8.428 L30.442,9.616 L29.395,8.881 C29.317,8.834 29.301,8.834 29.254,8.834 C29.129,8.834 29.02,8.928 29.02,9.084 C29.02,9.225 29.098,9.256 29.207,9.319 C29.754,9.569 29.942,9.647 30.332,9.819 L29.395,10.241 C29.332,10.256 29.176,10.334 29.114,10.35 C29.036,10.397 29.02,10.475 29.02,10.553 C29.02,10.694 29.129,10.803 29.254,10.803 C29.317,10.803 29.332,10.803 29.536,10.663 L30.442,10.022 L30.332,11.303 C30.332,11.459 30.473,11.538 30.567,11.538 C30.676,11.538 30.801,11.459 30.801,11.303 C30.801,11.225 30.77,10.959 30.77,10.866 C30.739,10.6 30.707,10.303 30.692,10.022 z M31.754,10.756" fill="#FF0000"/>
    <path d="M30.832,14.036 C30.832,13.865 30.707,13.724 30.52,13.724 C30.317,13.724 30.082,13.927 30.082,14.161 C30.082,14.333 30.207,14.458 30.395,14.458 C30.598,14.458 30.832,14.271 30.832,14.036 z M29.676,16.958 L29.239,18.052 C29.192,18.177 29.161,18.271 29.161,18.411 C29.161,18.802 29.457,19.083 29.879,19.083 C30.661,19.083 30.989,17.974 30.989,17.865 C30.989,17.786 30.926,17.755 30.864,17.755 C30.77,17.755 30.754,17.818 30.723,17.896 C30.551,18.536 30.223,18.865 29.895,18.865 C29.801,18.865 29.707,18.818 29.707,18.615 C29.707,18.411 29.77,18.271 29.864,18.021 C29.942,17.818 30.02,17.599 30.114,17.38 L30.364,16.74 C30.426,16.552 30.536,16.302 30.536,16.161 C30.536,15.771 30.207,15.49 29.801,15.49 C29.036,15.49 28.692,16.599 28.692,16.708 C28.692,16.786 28.754,16.818 28.817,16.818 C28.926,16.818 28.926,16.771 28.957,16.693 C29.176,15.927 29.536,15.708 29.786,15.708 C29.895,15.708 29.973,15.755 29.973,15.974 C29.973,16.052 29.957,16.161 29.879,16.411 z M29.676,16.958" fill="#FF0000"/>
    <path d="M36.346,13.589 C36.346,12.73 36.221,11.418 35.627,10.183 C34.971,8.839 34.033,8.136 33.924,8.136 C33.861,8.136 33.814,8.168 33.814,8.23 C33.814,8.277 33.814,8.293 34.018,8.496 C35.08,9.574 35.705,11.308 35.705,13.589 C35.705,15.449 35.299,17.371 33.955,18.746 C33.814,18.871 33.814,18.886 33.814,18.933 C33.814,18.996 33.861,19.027 33.924,19.027 C34.033,19.027 35.018,18.293 35.658,16.902 C36.205,15.714 36.346,14.496 36.346,13.589 z M36.346,13.589" fill="#FF0000"/>
    <path d="M47.965,12.746 C48.121,12.746 48.324,12.746 48.324,12.527 C48.324,12.308 48.121,12.308 47.965,12.308 L41.433,12.308 C41.277,12.308 41.074,12.308 41.074,12.527 C41.074,12.746 41.277,12.746 41.449,12.746 z M47.965,14.855 C48.121,14.855 48.324,14.855 48.324,14.636 C48.324,14.418 48.121,14.418 47.965,14.418 L41.449,14.418 C41.277,14.418 41.074,14.418 41.074,14.636 C41.074,14.855 41.277,14.855 41.433,14.855 z M47.965,14.855" fill="#FF0000"/>
    <path d="M54.563,8.084 L55.719,6.959 C57.422,5.459 58.063,4.866 58.063,3.788 C58.063,2.538 57.094,1.663 55.751,1.663 C54.532,1.663 53.719,2.663 53.719,3.631 C53.719,4.256 54.266,4.256 54.297,4.256 C54.485,4.256 54.86,4.116 54.86,3.678 C54.86,3.381 54.672,3.1 54.282,3.1 C54.204,3.1 54.172,3.1 54.141,3.116 C54.391,2.413 54.985,2.006 55.61,2.006 C56.61,2.006 57.079,2.881 57.079,3.788 C57.079,4.647 56.532,5.522 55.938,6.194 L53.844,8.522 C53.719,8.647 53.719,8.663 53.719,8.928 L57.766,8.928 L58.063,7.038 L57.797,7.038 C57.735,7.35 57.672,7.834 57.563,8.006 C57.485,8.084 56.766,8.084 56.516,8.084 z M54.563,8.084" fill="#FF0000"/>
    <path d="M66.586,5.475 C66.664,5.163 66.789,4.647 66.789,4.569 C66.789,4.334 66.617,4.084 66.274,4.084 C66.102,4.084 65.695,4.178 65.555,4.663 C65.524,4.819 65.024,6.788 64.945,7.147 C64.867,7.397 64.805,7.725 64.774,7.913 C64.586,8.178 64.149,8.616 63.602,8.616 C62.961,8.616 62.945,8.084 62.945,7.834 C62.945,7.163 63.274,6.303 63.586,5.522 C63.695,5.241 63.727,5.163 63.727,4.975 C63.727,4.35 63.102,4.006 62.492,4.006 C61.336,4.006 60.789,5.475 60.789,5.694 C60.789,5.85 60.961,5.85 61.055,5.85 C61.18,5.85 61.258,5.85 61.305,5.709 C61.664,4.506 62.258,4.397 62.43,4.397 C62.508,4.397 62.617,4.397 62.617,4.616 C62.617,4.866 62.492,5.178 62.445,5.303 C61.977,6.459 61.774,7.069 61.774,7.6 C61.774,8.834 62.867,9.022 63.508,9.022 C63.82,9.022 64.305,8.975 64.899,8.413 C65.242,8.944 65.883,9.022 66.133,9.022 C66.539,9.022 66.852,8.788 67.086,8.397 C67.367,7.959 67.508,7.366 67.508,7.319 C67.508,7.163 67.336,7.163 67.242,7.163 C67.117,7.163 67.07,7.163 67.024,7.209 C66.992,7.241 66.992,7.256 66.93,7.538 C66.711,8.381 66.477,8.616 66.195,8.616 C66.024,8.616 65.945,8.506 65.945,8.225 C65.945,8.038 65.992,7.866 66.102,7.428 C66.164,7.116 66.274,6.678 66.336,6.444 z M66.586,5.475" fill="#FF0000"/>
    <path d="M70.249,5.595 C70.249,5.424 70.124,5.283 69.937,5.283 C69.734,5.283 69.499,5.486 69.499,5.72 C69.499,5.892 69.624,6.017 69.812,6.017 C70.015,6.017 70.249,5.83 70.249,5.595 z M69.093,8.517 L68.656,9.611 C68.609,9.736 68.578,9.83 68.578,9.97 C68.578,10.361 68.874,10.642 69.296,10.642 C70.078,10.642 70.406,9.533 70.406,9.424 C70.406,9.345 70.343,9.314 70.281,9.314 C70.187,9.314 70.171,9.377 70.14,9.455 C69.968,10.095 69.64,10.424 69.312,10.424 C69.218,10.424 69.124,10.377 69.124,10.174 C69.124,9.97 69.187,9.83 69.281,9.58 C69.359,9.377 69.437,9.158 69.531,8.939 L69.781,8.299 C69.843,8.111 69.953,7.861 69.953,7.72 C69.953,7.33 69.624,7.049 69.218,7.049 C68.453,7.049 68.109,8.158 68.109,8.267 C68.109,8.345 68.171,8.377 68.234,8.377 C68.343,8.377 68.343,8.33 68.374,8.252 C68.593,7.486 68.953,7.267 69.203,7.267 C69.312,7.267 69.39,7.314 69.39,7.533 C69.39,7.611 69.374,7.72 69.296,7.97 z M69.093,8.517" fill="#FF0000"/>
    <path d="M76.32,8.752 C76.461,8.752 76.632,8.752 76.632,8.58 C76.632,8.392 76.461,8.392 76.32,8.392 L71.757,8.392 C71.632,8.392 71.461,8.392 71.461,8.58 C71.461,8.752 71.632,8.752 71.757,8.752 z M76.32,8.752" fill="#FF0000"/>
    <path d="M79.844,5.486 C79.844,5.267 79.829,5.267 79.61,5.267 C79.282,5.58 78.86,5.767 78.11,5.767 L78.11,6.033 C78.329,6.033 78.751,6.033 79.219,5.83 L79.219,9.908 C79.219,10.205 79.188,10.299 78.438,10.299 L78.157,10.299 L78.157,10.564 C78.485,10.533 79.173,10.533 79.532,10.533 C79.891,10.533 80.579,10.533 80.907,10.564 L80.907,10.299 L80.626,10.299 C79.876,10.299 79.844,10.205 79.844,9.908 z M79.844,5.486" fill="#FF0000"/>
    <path d="M88.75,5.897 L86.563,3.725 C86.438,3.6 86.407,3.569 86.329,3.569 C86.219,3.569 86.11,3.678 86.11,3.788 C86.11,3.866 86.125,3.897 86.25,4.006 L88.422,6.209 L86.25,8.397 C86.125,8.506 86.11,8.538 86.11,8.616 C86.11,8.725 86.219,8.834 86.329,8.834 C86.407,8.834 86.438,8.803 86.563,8.678 L88.735,6.506 L90.985,8.772 C91.016,8.772 91.094,8.834 91.157,8.834 C91.282,8.834 91.375,8.725 91.375,8.616 C91.375,8.584 91.375,8.553 91.344,8.491 C91.329,8.475 89.594,6.756 89.047,6.209 L91.047,4.209 C91.094,4.147 91.266,4.006 91.313,3.928 C91.329,3.913 91.375,3.866 91.375,3.788 C91.375,3.678 91.282,3.569 91.157,3.569 C91.063,3.569 91.016,3.616 90.907,3.741 z M88.75,5.897" fill="#FF0000"/>
    <path d="M98.159,4.6 L99.128,4.6 C99.347,4.6 99.363,4.6 99.425,4.538 C99.488,4.506 99.519,4.35 99.519,4.288 C99.519,4.084 99.331,4.084 99.159,4.084 L98.284,4.084 L98.644,2.678 C98.675,2.506 98.675,2.444 98.675,2.397 C98.675,2.053 98.394,1.913 98.175,1.913 C98.003,1.913 97.706,1.991 97.534,2.303 C97.488,2.381 97.363,2.881 97.284,3.194 L97.066,4.084 L96.081,4.084 C95.863,4.084 95.675,4.084 95.675,4.397 C95.675,4.6 95.863,4.6 96.05,4.6 L96.941,4.6 L96.316,7.084 C96.238,7.366 96.128,7.834 96.128,7.944 C96.128,8.663 96.831,9.022 97.503,9.022 C98.8,9.022 99.55,7.506 99.55,7.319 C99.55,7.163 99.378,7.163 99.284,7.163 C99.097,7.163 99.081,7.178 99.003,7.334 C98.597,8.272 97.988,8.616 97.566,8.616 C97.456,8.616 97.3,8.616 97.3,8.225 C97.3,8.006 97.331,7.897 97.363,7.756 z M98.159,4.6" fill="#FF0000"/>
    <path d="M103.237,3.922 C103.3,3.969 103.331,3.969 103.362,3.969 C103.487,3.969 103.612,3.86 103.612,3.719 C103.612,3.563 103.519,3.532 103.409,3.485 C102.878,3.235 102.675,3.141 102.284,2.985 L103.222,2.563 C103.284,2.532 103.44,2.469 103.503,2.438 C103.581,2.391 103.612,2.313 103.612,2.25 C103.612,2.141 103.565,2 103.315,2 L102.175,2.782 L102.284,1.594 C102.3,1.469 102.284,1.266 102.05,1.266 C101.909,1.266 101.8,1.391 101.815,1.5 L101.815,1.594 L101.925,2.782 L100.878,2.047 C100.8,2 100.784,2 100.737,2 C100.612,2 100.503,2.094 100.503,2.25 C100.503,2.391 100.581,2.422 100.69,2.485 C101.237,2.735 101.425,2.813 101.815,2.985 L100.878,3.407 C100.815,3.422 100.659,3.5 100.597,3.516 C100.519,3.563 100.503,3.641 100.503,3.719 C100.503,3.86 100.612,3.969 100.737,3.969 C100.8,3.969 100.815,3.969 101.019,3.829 L101.925,3.188 L101.815,4.469 C101.815,4.625 101.956,4.704 102.05,4.704 C102.159,4.704 102.284,4.625 102.284,4.469 C102.284,4.391 102.253,4.125 102.253,4.032 C102.222,3.766 102.19,3.469 102.175,3.188 z M103.237,3.922" fill="#FF0000"/>
    <path d="M102.315,7.014 C102.315,6.843 102.19,6.702 102.003,6.702 C101.8,6.702 101.565,6.905 101.565,7.139 C101.565,7.311 101.69,7.436 101.878,7.436 C102.081,7.436 102.315,7.249 102.315,7.014 z M101.159,9.936 L100.722,11.03 C100.675,11.155 100.644,11.249 100.644,11.389 C100.644,11.78 100.94,12.061 101.362,12.061 C102.144,12.061 102.472,10.952 102.472,10.843 C102.472,10.764 102.409,10.733 102.347,10.733 C102.253,10.733 102.237,10.796 102.206,10.874 C102.034,11.514 101.706,11.843 101.378,11.843 C101.284,11.843 101.19,11.796 101.19,11.593 C101.19,11.389 101.253,11.249 101.347,10.999 C101.425,10.796 101.503,10.577 101.597,10.358 L101.847,9.718 C101.909,9.53 102.019,9.28 102.019,9.139 C102.019,8.749 101.69,8.468 101.284,8.468 C100.519,8.468 100.175,9.577 100.175,9.686 C100.175,9.764 100.237,9.796 100.3,9.796 C100.409,9.796 100.409,9.749 100.44,9.671 C100.659,8.905 101.019,8.686 101.269,8.686 C101.378,8.686 101.456,8.733 101.456,8.952 C101.456,9.03 101.44,9.139 101.362,9.389 z M101.159,9.936" fill="#FF0000"/>
    <g>
      <path d="M53.171,13.582 L104.671,13.582" fill="#FF0000"/>
      <path d="M53.171,13.582 L104.671,13.582" fill-opacity="0" stroke="#FF0000" stroke-width="0.436" stroke-miterlimit="10"/>
    </g>
    <path d="M65.222,15.979 C65.222,15.807 65.222,15.619 65.004,15.619 C64.785,15.619 64.785,15.854 64.785,16.01 L64.785,26.119 C64.785,26.291 64.785,26.51 65.004,26.51 C65.222,26.51 65.222,26.322 65.222,26.151 z M67.347,16.01 C67.347,15.838 67.347,15.619 67.129,15.619 C66.91,15.619 66.91,15.807 66.91,15.979 L66.91,26.151 C66.91,26.322 66.91,26.51 67.129,26.51 C67.347,26.51 67.347,26.276 67.347,26.119 z M67.347,16.01" fill="#FF0000"/>
    <path d="M71.224,21.416 C71.959,21.416 72.662,21.354 73.115,21.197 C74.052,20.885 74.209,20.26 74.209,19.916 C74.209,19.276 73.599,18.869 72.709,18.869 C70.74,18.869 69.334,20.229 69.334,21.916 C69.334,23.166 70.177,23.885 71.615,23.885 C71.896,23.885 72.646,23.869 73.302,23.619 C73.943,23.369 74.381,22.916 74.381,22.791 C74.381,22.697 74.209,22.51 74.099,22.51 C74.037,22.51 74.021,22.541 73.943,22.619 C73.349,23.244 72.506,23.479 71.646,23.479 C70.865,23.479 70.584,23.057 70.584,22.432 C70.584,22.213 70.631,21.854 70.74,21.416 z M70.849,21.026 C71.037,20.229 71.302,19.932 71.49,19.76 C71.865,19.369 72.365,19.26 72.709,19.26 C73.099,19.26 73.552,19.432 73.552,19.916 C73.552,21.026 71.896,21.026 70.849,21.026 z M70.849,21.026" fill="#FF0000"/>
    <path d="M77.216,20.458 C77.216,20.287 77.091,20.146 76.904,20.146 C76.701,20.146 76.466,20.349 76.466,20.583 C76.466,20.755 76.591,20.88 76.779,20.88 C76.982,20.88 77.216,20.693 77.216,20.458 z M76.06,23.38 L75.623,24.474 C75.576,24.599 75.545,24.693 75.545,24.833 C75.545,25.224 75.841,25.505 76.263,25.505 C77.045,25.505 77.373,24.396 77.373,24.287 C77.373,24.208 77.31,24.177 77.248,24.177 C77.154,24.177 77.138,24.24 77.107,24.318 C76.935,24.958 76.607,25.287 76.279,25.287 C76.185,25.287 76.091,25.24 76.091,25.037 C76.091,24.833 76.154,24.693 76.248,24.443 C76.326,24.24 76.404,24.021 76.498,23.802 L76.748,23.162 C76.81,22.974 76.92,22.724 76.92,22.583 C76.92,22.193 76.591,21.912 76.185,21.912 C75.42,21.912 75.076,23.021 75.076,23.13 C75.076,23.208 75.138,23.24 75.201,23.24 C75.31,23.24 75.31,23.193 75.341,23.115 C75.56,22.349 75.92,22.13 76.17,22.13 C76.279,22.13 76.357,22.177 76.357,22.396 C76.357,22.474 76.341,22.583 76.263,22.833 z M76.06,23.38" fill="#FF0000"/>
    <path d="M83.287,23.615 C83.428,23.615 83.599,23.615 83.599,23.443 C83.599,23.255 83.428,23.255 83.287,23.255 L78.724,23.255 C78.599,23.255 78.428,23.255 78.428,23.443 C78.428,23.615 78.599,23.615 78.724,23.615 z M83.287,23.615" fill="#FF0000"/>
    <path d="M86.811,20.349 C86.811,20.13 86.796,20.13 86.577,20.13 C86.249,20.443 85.827,20.63 85.077,20.63 L85.077,20.896 C85.296,20.896 85.718,20.896 86.186,20.693 L86.186,24.771 C86.186,25.068 86.155,25.162 85.405,25.162 L85.124,25.162 L85.124,25.427 C85.452,25.396 86.14,25.396 86.499,25.396 C86.858,25.396 87.546,25.396 87.874,25.427 L87.874,25.162 L87.593,25.162 C86.843,25.162 86.811,25.068 86.811,24.771 z M86.811,20.349" fill="#FF0000"/>
    <path d="M90.918,15.979 C90.918,15.807 90.918,15.619 90.7,15.619 C90.481,15.619 90.481,15.854 90.481,16.01 L90.481,26.119 C90.481,26.291 90.481,26.51 90.7,26.51 C90.918,26.51 90.918,26.322 90.918,26.151 z M93.043,16.01 C93.043,15.838 93.043,15.619 92.825,15.619 C92.606,15.619 92.606,15.807 92.606,15.979 L92.606,26.151 C92.606,26.322 92.606,26.51 92.825,26.51 C93.043,26.51 93.043,26.276 93.043,26.119 z M93.043,16.01" fill="#FF0000"/>
    <g>
      <path d="M367.112,17.761 L367.112,17.308 C366.658,16.98 366.315,16.543 366.112,15.949 C365.908,15.371 365.815,14.558 365.815,13.511 C365.815,12.464 365.908,11.652 366.112,11.058 C366.315,10.48 366.658,10.043 367.112,9.714 L367.112,9.261 C365.643,9.918 364.893,11.355 364.893,13.511 C364.893,15.652 365.643,17.089 367.112,17.761 z M367.112,17.761" fill="#FF0000"/>
      <path d="M368.681,9.839 L368.681,11.027 L369.181,11.027 C369.259,10.277 369.712,9.871 370.525,9.871 C371.337,9.871 371.79,10.308 371.79,11.105 C371.79,11.98 371.275,12.418 370.197,12.418 L369.978,12.418 L369.978,12.886 L370.4,12.886 C371.478,12.886 372.025,13.433 372.025,14.496 C372.025,15.418 371.462,15.996 370.54,15.996 C369.587,15.996 369.056,15.543 368.994,14.668 L368.478,14.668 L368.478,15.98 C369.15,16.293 369.806,16.433 370.525,16.433 C372.119,16.433 372.978,15.746 372.978,14.48 C372.978,13.449 372.337,12.777 371.228,12.621 C372.165,12.433 372.697,11.855 372.697,11.043 C372.697,10.043 371.931,9.433 370.603,9.433 C370.04,9.433 369.384,9.574 368.681,9.839 z M368.681,9.839" fill="#FF0000"/>
      <path d="M374.547,15.839 C374.547,16.183 374.797,16.433 375.141,16.433 C375.485,16.433 375.75,16.168 375.75,15.839 C375.75,15.496 375.485,15.23 375.141,15.23 C374.797,15.23 374.547,15.496 374.547,15.839 z M374.547,15.839" fill="#FF0000"/>
      <path d="M381.84,10.011 L381.84,9.558 L377.402,9.558 L377.402,11.136 L377.934,11.136 L377.934,10.293 L381.043,10.293 L378.527,16.308 L379.199,16.308 z M381.84,10.011" fill="#FF0000"/>
      <path d="M385.753,14.027 L383.44,14.027 L385.753,10.418 z M387.737,16.308 L387.737,15.824 L386.659,15.824 L386.659,14.496 L387.94,14.496 L387.94,14.027 L386.659,14.027 L386.659,9.433 L385.769,9.433 L382.8,14.011 L382.8,14.496 L385.753,14.496 L385.753,15.824 L384.675,15.824 L384.675,16.308 z M387.737,16.308" fill="#FF0000"/>
      <path d="M392.104,14.793 C392.104,15.496 391.635,15.949 390.947,15.949 C390.244,15.949 389.807,15.527 389.807,14.855 C389.807,14.136 390.197,13.777 391.025,13.777 L392.104,13.777 z M392.932,13.308 C392.932,12.043 392.229,11.371 390.885,11.371 C390.369,11.371 389.838,11.496 389.244,11.746 L389.244,12.714 L389.682,12.714 C389.775,12.121 390.182,11.808 390.838,11.808 C391.635,11.808 392.104,12.23 392.104,12.964 L392.104,13.293 L390.932,13.293 C389.635,13.293 388.885,13.871 388.885,14.855 C388.885,15.824 389.541,16.433 390.619,16.433 C391.26,16.433 391.729,16.23 392.104,15.793 L392.104,16.308 L393.682,16.308 L393.682,15.824 L392.932,15.824 z M392.932,13.308" fill="#FF0000"/>
      <path d="M394.599,17.761 C396.068,17.089 396.818,15.652 396.818,13.511 C396.818,11.355 396.068,9.918 394.599,9.261 L394.599,9.714 C395.068,10.043 395.396,10.48 395.599,11.058 C395.802,11.652 395.911,12.464 395.911,13.511 C395.911,14.558 395.802,15.371 395.599,15.949 C395.396,16.543 395.068,16.98 394.599,17.308 z M394.599,17.761" fill="#FF0000"/>
    </g>
    <g>
      <path d="M0.292,49.642 C0.245,49.798 0.182,50.063 0.182,50.142 C0.182,50.376 0.354,50.626 0.698,50.626 C1.26,50.626 1.385,50.11 1.464,49.829 L1.885,48.173 C2.807,48.188 3.729,48.329 3.729,48.985 C3.729,49.048 3.714,49.173 3.698,49.235 C3.698,49.251 3.667,49.392 3.667,49.501 C3.667,50.188 4.339,50.626 5.057,50.626 C6.151,50.626 6.557,49.001 6.557,48.923 C6.557,48.767 6.385,48.767 6.292,48.767 C6.089,48.767 6.073,48.782 6.01,48.985 C5.932,49.298 5.667,50.22 5.104,50.22 C4.995,50.22 4.823,50.22 4.823,49.798 C4.823,49.767 4.839,49.532 4.885,49.329 C4.932,49.188 4.948,49.063 4.948,48.97 C4.948,48.282 4.245,48.048 4.057,47.985 C3.667,47.876 3.526,47.845 2.51,47.767 C2.792,47.595 3.104,47.329 3.479,47.048 C4.198,46.47 4.385,46.392 4.635,46.251 C4.635,46.282 4.604,46.36 4.604,46.454 C4.604,46.798 4.854,46.97 5.135,46.97 C5.62,46.97 5.917,46.548 5.917,46.204 C5.917,46.063 5.854,45.688 5.354,45.688 C4.604,45.688 3.854,46.282 3.354,46.688 C2.682,47.22 2.401,47.423 2.026,47.595 C2.089,47.36 2.151,47.11 2.214,46.86 C2.339,46.329 2.385,46.173 2.385,46.079 C2.385,45.86 2.214,45.61 1.87,45.61 C1.682,45.61 1.276,45.704 1.151,46.173 L0.776,47.72 z M0.292,49.642" fill="#FF0000"/>
      <path d="M9.981,43.345 C10.028,43.188 10.028,43.173 10.028,43.157 C10.028,43.017 9.903,42.97 9.793,42.97 C9.746,42.97 9.731,42.97 9.715,42.97 L8.309,43.032 C8.153,43.048 7.95,43.063 7.95,43.36 C7.95,43.563 8.168,43.563 8.231,43.563 C8.356,43.563 8.559,43.563 8.7,43.579 C8.606,43.954 8.496,44.423 8.387,44.845 L7.637,47.845 C7.481,48.454 7.481,48.595 7.481,48.845 C7.481,50.235 8.528,50.626 9.34,50.626 C11.309,50.626 12.434,48.845 12.434,47.407 C12.434,46.063 11.434,45.61 10.528,45.61 C10.012,45.61 9.575,45.813 9.34,45.954 z M9.356,50.22 C8.934,50.22 8.575,50.001 8.575,49.329 C8.575,48.97 8.684,48.563 8.762,48.235 C8.871,47.813 9.059,47.063 9.137,46.735 C9.184,46.548 9.809,46.001 10.481,46.001 C11.153,46.001 11.2,46.579 11.2,46.829 C11.2,47.392 10.84,48.735 10.653,49.157 C10.293,50.048 9.684,50.22 9.356,50.22 z M9.356,50.22" fill="#FF0000"/>
    </g>
    <path d="M16.068,44.132 L18.412,44.132 C18.521,44.132 18.709,44.132 18.709,43.96 C18.709,43.772 18.521,43.772 18.412,43.772 L16.068,43.772 L16.068,41.413 C16.068,41.304 16.068,41.132 15.896,41.132 C15.709,41.132 15.709,41.304 15.709,41.413 L15.709,43.772 L13.349,43.772 C13.24,43.772 13.068,43.772 13.068,43.96 C13.068,44.132 13.24,44.132 13.349,44.132 L15.709,44.132 L15.709,46.491 C15.709,46.6 15.709,46.772 15.896,46.772 C16.068,46.772 16.068,46.6 16.068,46.491 z M16.068,44.132" fill="#FF0000"/>
    <path d="M14.974,48.819 C14.974,48.648 14.849,48.507 14.662,48.507 C14.459,48.507 14.224,48.71 14.224,48.944 C14.224,49.116 14.349,49.241 14.537,49.241 C14.74,49.241 14.974,49.054 14.974,48.819 z M13.818,51.741 L13.381,52.835 C13.334,52.96 13.303,53.054 13.303,53.194 C13.303,53.585 13.599,53.866 14.021,53.866 C14.803,53.866 15.131,52.757 15.131,52.648 C15.131,52.569 15.068,52.538 15.006,52.538 C14.912,52.538 14.896,52.601 14.865,52.679 C14.693,53.319 14.365,53.648 14.037,53.648 C13.943,53.648 13.849,53.601 13.849,53.398 C13.849,53.194 13.912,53.054 14.006,52.804 C14.084,52.601 14.162,52.382 14.256,52.163 L14.506,51.523 C14.568,51.335 14.678,51.085 14.678,50.944 C14.678,50.554 14.349,50.273 13.943,50.273 C13.178,50.273 12.834,51.382 12.834,51.491 C12.834,51.569 12.896,51.601 12.959,51.601 C13.068,51.601 13.068,51.554 13.099,51.476 C13.318,50.71 13.678,50.491 13.928,50.491 C14.037,50.491 14.115,50.538 14.115,50.757 C14.115,50.835 14.099,50.944 14.021,51.194 z M13.818,51.741" fill="#FF0000"/>
    <path d="M23.294,53.157 C23.294,53.11 23.294,53.095 23.106,52.907 C21.747,51.532 21.403,49.47 21.403,47.813 C21.403,45.907 21.809,44.017 23.153,42.642 C23.294,42.517 23.294,42.501 23.294,42.454 C23.294,42.392 23.247,42.36 23.184,42.36 C23.075,42.36 22.091,43.095 21.45,44.485 C20.888,45.673 20.763,46.892 20.763,47.813 C20.763,48.657 20.888,49.97 21.481,51.204 C22.138,52.548 23.075,53.251 23.184,53.251 C23.247,53.251 23.294,53.22 23.294,53.157 z M23.294,53.157" fill="#FF0000"/>
    <path d="M26.676,46.204 L27.645,46.204 C27.864,46.204 27.88,46.204 27.942,46.142 C28.005,46.11 28.036,45.954 28.036,45.892 C28.036,45.688 27.848,45.688 27.676,45.688 L26.801,45.688 L27.161,44.282 C27.192,44.11 27.192,44.048 27.192,44.001 C27.192,43.657 26.911,43.517 26.692,43.517 C26.52,43.517 26.223,43.595 26.051,43.907 C26.005,43.985 25.88,44.485 25.801,44.798 L25.583,45.688 L24.598,45.688 C24.38,45.688 24.192,45.688 24.192,46.001 C24.192,46.204 24.38,46.204 24.567,46.204 L25.458,46.204 L24.833,48.688 C24.755,48.97 24.645,49.438 24.645,49.548 C24.645,50.267 25.348,50.626 26.02,50.626 C27.317,50.626 28.067,49.11 28.067,48.923 C28.067,48.767 27.895,48.767 27.801,48.767 C27.614,48.767 27.598,48.782 27.52,48.938 C27.114,49.876 26.505,50.22 26.083,50.22 C25.973,50.22 25.817,50.22 25.817,49.829 C25.817,49.61 25.848,49.501 25.88,49.36 z M26.676,46.204" fill="#FF0000"/>
    <path d="M31.754,44.98 C31.817,45.027 31.848,45.027 31.879,45.027 C32.004,45.027 32.129,44.918 32.129,44.777 C32.129,44.621 32.036,44.59 31.926,44.543 C31.395,44.293 31.192,44.199 30.801,44.043 L31.739,43.621 C31.801,43.59 31.957,43.527 32.02,43.496 C32.098,43.449 32.129,43.371 32.129,43.308 C32.129,43.199 32.082,43.058 31.832,43.058 L30.692,43.84 L30.801,42.652 C30.817,42.527 30.801,42.324 30.567,42.324 C30.426,42.324 30.317,42.449 30.332,42.558 L30.332,42.652 L30.442,43.84 L29.395,43.105 C29.317,43.058 29.301,43.058 29.254,43.058 C29.129,43.058 29.02,43.152 29.02,43.308 C29.02,43.449 29.098,43.48 29.207,43.543 C29.754,43.793 29.942,43.871 30.332,44.043 L29.395,44.465 C29.332,44.48 29.176,44.558 29.114,44.574 C29.036,44.621 29.02,44.699 29.02,44.777 C29.02,44.918 29.129,45.027 29.254,45.027 C29.317,45.027 29.332,45.027 29.536,44.887 L30.442,44.246 L30.332,45.527 C30.332,45.683 30.473,45.762 30.567,45.762 C30.676,45.762 30.801,45.683 30.801,45.527 C30.801,45.449 30.77,45.183 30.77,45.09 C30.739,44.824 30.707,44.527 30.692,44.246 z M31.754,44.98" fill="#FF0000"/>
    <path d="M30.832,48.26 C30.832,48.089 30.707,47.948 30.52,47.948 C30.317,47.948 30.082,48.151 30.082,48.385 C30.082,48.557 30.207,48.682 30.395,48.682 C30.598,48.682 30.832,48.495 30.832,48.26 z M29.676,51.182 L29.239,52.276 C29.192,52.401 29.161,52.495 29.161,52.635 C29.161,53.026 29.457,53.307 29.879,53.307 C30.661,53.307 30.989,52.198 30.989,52.089 C30.989,52.01 30.926,51.979 30.864,51.979 C30.77,51.979 30.754,52.042 30.723,52.12 C30.551,52.76 30.223,53.089 29.895,53.089 C29.801,53.089 29.707,53.042 29.707,52.839 C29.707,52.635 29.77,52.495 29.864,52.245 C29.942,52.042 30.02,51.823 30.114,51.604 L30.364,50.964 C30.426,50.776 30.536,50.526 30.536,50.385 C30.536,49.995 30.207,49.714 29.801,49.714 C29.036,49.714 28.692,50.823 28.692,50.932 C28.692,51.01 28.754,51.042 28.817,51.042 C28.926,51.042 28.926,50.995 28.957,50.917 C29.176,50.151 29.536,49.932 29.786,49.932 C29.895,49.932 29.973,49.979 29.973,50.198 C29.973,50.276 29.957,50.385 29.879,50.635 z M29.676,51.182" fill="#FF0000"/>
    <path d="M36.346,47.813 C36.346,46.954 36.221,45.642 35.627,44.407 C34.971,43.063 34.033,42.36 33.924,42.36 C33.861,42.36 33.814,42.392 33.814,42.454 C33.814,42.501 33.814,42.517 34.018,42.72 C35.08,43.798 35.705,45.532 35.705,47.813 C35.705,49.673 35.299,51.595 33.955,52.97 C33.814,53.095 33.814,53.11 33.814,53.157 C33.814,53.22 33.861,53.251 33.924,53.251 C34.033,53.251 35.018,52.517 35.658,51.126 C36.205,49.938 36.346,48.72 36.346,47.813 z M36.346,47.813" fill="#FF0000"/>
    <path d="M47.965,46.97 C48.121,46.97 48.324,46.97 48.324,46.751 C48.324,46.532 48.121,46.532 47.965,46.532 L41.433,46.532 C41.277,46.532 41.074,46.532 41.074,46.751 C41.074,46.97 41.277,46.97 41.449,46.97 z M47.965,49.079 C48.121,49.079 48.324,49.079 48.324,48.86 C48.324,48.642 48.121,48.642 47.965,48.642 L41.449,48.642 C41.277,48.642 41.074,48.642 41.074,48.86 C41.074,49.079 41.277,49.079 41.433,49.079 z M47.965,49.079" fill="#FF0000"/>
    <path d="M54.563,42.308 L55.719,41.183 C57.422,39.683 58.063,39.09 58.063,38.012 C58.063,36.762 57.094,35.887 55.751,35.887 C54.532,35.887 53.719,36.887 53.719,37.855 C53.719,38.48 54.266,38.48 54.297,38.48 C54.485,38.48 54.86,38.34 54.86,37.902 C54.86,37.605 54.672,37.324 54.282,37.324 C54.204,37.324 54.172,37.324 54.141,37.34 C54.391,36.637 54.985,36.23 55.61,36.23 C56.61,36.23 57.079,37.105 57.079,38.012 C57.079,38.871 56.532,39.746 55.938,40.418 L53.844,42.746 C53.719,42.871 53.719,42.887 53.719,43.152 L57.766,43.152 L58.063,41.262 L57.797,41.262 C57.735,41.574 57.672,42.058 57.563,42.23 C57.485,42.308 56.766,42.308 56.516,42.308 z M54.563,42.308" fill="#FF0000"/>
    <path d="M63.195,38.824 L64.164,38.824 C64.383,38.824 64.399,38.824 64.461,38.762 C64.524,38.73 64.555,38.574 64.555,38.512 C64.555,38.308 64.367,38.308 64.195,38.308 L63.32,38.308 L63.68,36.902 C63.711,36.73 63.711,36.668 63.711,36.621 C63.711,36.277 63.43,36.137 63.211,36.137 C63.039,36.137 62.742,36.215 62.57,36.527 C62.524,36.605 62.399,37.105 62.32,37.418 L62.102,38.308 L61.117,38.308 C60.899,38.308 60.711,38.308 60.711,38.621 C60.711,38.824 60.899,38.824 61.086,38.824 L61.977,38.824 L61.352,41.308 C61.274,41.59 61.164,42.058 61.164,42.168 C61.164,42.887 61.867,43.246 62.539,43.246 C63.836,43.246 64.586,41.73 64.586,41.543 C64.586,41.387 64.414,41.387 64.32,41.387 C64.133,41.387 64.117,41.402 64.039,41.558 C63.633,42.496 63.024,42.84 62.602,42.84 C62.492,42.84 62.336,42.84 62.336,42.449 C62.336,42.23 62.367,42.121 62.399,41.98 z M63.195,38.824" fill="#FF0000"/>
    <path d="M68.272,38.146 C68.335,38.193 68.366,38.193 68.397,38.193 C68.522,38.193 68.647,38.084 68.647,37.943 C68.647,37.787 68.554,37.756 68.444,37.709 C67.913,37.459 67.71,37.365 67.319,37.209 L68.257,36.787 C68.319,36.756 68.475,36.693 68.538,36.662 C68.616,36.615 68.647,36.537 68.647,36.474 C68.647,36.365 68.6,36.224 68.35,36.224 L67.21,37.006 L67.319,35.818 C67.335,35.693 67.319,35.49 67.085,35.49 C66.944,35.49 66.835,35.615 66.85,35.724 L66.85,35.818 L66.96,37.006 L65.913,36.271 C65.835,36.224 65.819,36.224 65.772,36.224 C65.647,36.224 65.538,36.318 65.538,36.474 C65.538,36.615 65.616,36.646 65.725,36.709 C66.272,36.959 66.46,37.037 66.85,37.209 L65.913,37.631 C65.85,37.646 65.694,37.724 65.632,37.74 C65.554,37.787 65.538,37.865 65.538,37.943 C65.538,38.084 65.647,38.193 65.772,38.193 C65.835,38.193 65.85,38.193 66.054,38.053 L66.96,37.412 L66.85,38.693 C66.85,38.849 66.991,38.928 67.085,38.928 C67.194,38.928 67.319,38.849 67.319,38.693 C67.319,38.615 67.288,38.349 67.288,38.256 C67.257,37.99 67.225,37.693 67.21,37.412 z M68.272,38.146" fill="#FF0000"/>
    <path d="M67.35,41.238 C67.35,41.067 67.225,40.926 67.038,40.926 C66.835,40.926 66.6,41.129 66.6,41.363 C66.6,41.535 66.725,41.66 66.913,41.66 C67.116,41.66 67.35,41.473 67.35,41.238 z M66.194,44.16 L65.757,45.254 C65.71,45.379 65.679,45.473 65.679,45.613 C65.679,46.004 65.975,46.285 66.397,46.285 C67.179,46.285 67.507,45.176 67.507,45.067 C67.507,44.988 67.444,44.957 67.382,44.957 C67.288,44.957 67.272,45.02 67.241,45.098 C67.069,45.738 66.741,46.067 66.413,46.067 C66.319,46.067 66.225,46.02 66.225,45.817 C66.225,45.613 66.288,45.473 66.382,45.223 C66.46,45.02 66.538,44.801 66.632,44.582 L66.882,43.942 C66.944,43.754 67.054,43.504 67.054,43.363 C67.054,42.973 66.725,42.692 66.319,42.692 C65.554,42.692 65.21,43.801 65.21,43.91 C65.21,43.988 65.272,44.02 65.335,44.02 C65.444,44.02 65.444,43.973 65.475,43.895 C65.694,43.129 66.054,42.91 66.304,42.91 C66.413,42.91 66.491,42.957 66.491,43.176 C66.491,43.254 66.475,43.363 66.397,43.613 z M66.194,44.16" fill="#FF0000"/>
    <path d="M76.382,40.121 L74.195,37.949 C74.07,37.824 74.039,37.793 73.961,37.793 C73.851,37.793 73.742,37.902 73.742,38.012 C73.742,38.09 73.757,38.121 73.882,38.23 L76.054,40.433 L73.882,42.621 C73.757,42.73 73.742,42.762 73.742,42.84 C73.742,42.949 73.851,43.058 73.961,43.058 C74.039,43.058 74.07,43.027 74.195,42.902 L76.367,40.73 L78.617,42.996 C78.648,42.996 78.726,43.058 78.789,43.058 C78.914,43.058 79.007,42.949 79.007,42.84 C79.007,42.808 79.007,42.777 78.976,42.715 C78.961,42.699 77.226,40.98 76.679,40.433 L78.679,38.433 C78.726,38.371 78.898,38.23 78.945,38.152 C78.961,38.137 79.007,38.09 79.007,38.012 C79.007,37.902 78.914,37.793 78.789,37.793 C78.695,37.793 78.648,37.84 78.539,37.965 z M76.382,40.121" fill="#FF0000"/>
    <path d="M89.182,39.699 C89.26,39.387 89.385,38.871 89.385,38.793 C89.385,38.558 89.213,38.308 88.87,38.308 C88.698,38.308 88.291,38.402 88.151,38.887 C88.12,39.043 87.62,41.012 87.541,41.371 C87.463,41.621 87.401,41.949 87.37,42.137 C87.182,42.402 86.745,42.84 86.198,42.84 C85.557,42.84 85.541,42.308 85.541,42.058 C85.541,41.387 85.87,40.527 86.182,39.746 C86.291,39.465 86.323,39.387 86.323,39.199 C86.323,38.574 85.698,38.23 85.088,38.23 C83.932,38.23 83.385,39.699 83.385,39.918 C83.385,40.074 83.557,40.074 83.651,40.074 C83.776,40.074 83.854,40.074 83.901,39.933 C84.26,38.73 84.854,38.621 85.026,38.621 C85.104,38.621 85.213,38.621 85.213,38.84 C85.213,39.09 85.088,39.402 85.041,39.527 C84.573,40.683 84.37,41.293 84.37,41.824 C84.37,43.058 85.463,43.246 86.104,43.246 C86.416,43.246 86.901,43.199 87.495,42.637 C87.838,43.168 88.479,43.246 88.729,43.246 C89.135,43.246 89.448,43.012 89.682,42.621 C89.963,42.183 90.104,41.59 90.104,41.543 C90.104,41.387 89.932,41.387 89.838,41.387 C89.713,41.387 89.666,41.387 89.62,41.433 C89.588,41.465 89.588,41.48 89.526,41.762 C89.307,42.605 89.073,42.84 88.791,42.84 C88.62,42.84 88.541,42.73 88.541,42.449 C88.541,42.262 88.588,42.09 88.698,41.652 C88.76,41.34 88.87,40.902 88.932,40.668 z M89.182,39.699" fill="#FF0000"/>
    <path d="M92.845,39.819 C92.845,39.648 92.72,39.507 92.533,39.507 C92.33,39.507 92.095,39.71 92.095,39.944 C92.095,40.116 92.22,40.241 92.408,40.241 C92.611,40.241 92.845,40.054 92.845,39.819 z M91.689,42.741 L91.252,43.835 C91.205,43.96 91.174,44.054 91.174,44.194 C91.174,44.585 91.47,44.866 91.892,44.866 C92.674,44.866 93.002,43.757 93.002,43.648 C93.002,43.569 92.939,43.538 92.877,43.538 C92.783,43.538 92.767,43.601 92.736,43.679 C92.564,44.319 92.236,44.648 91.908,44.648 C91.814,44.648 91.72,44.601 91.72,44.398 C91.72,44.194 91.783,44.054 91.877,43.804 C91.955,43.601 92.033,43.382 92.127,43.163 L92.377,42.523 C92.439,42.335 92.549,42.085 92.549,41.944 C92.549,41.554 92.22,41.273 91.814,41.273 C91.049,41.273 90.705,42.382 90.705,42.491 C90.705,42.569 90.767,42.601 90.83,42.601 C90.939,42.601 90.939,42.554 90.97,42.476 C91.189,41.71 91.549,41.491 91.799,41.491 C91.908,41.491 91.986,41.538 91.986,41.757 C91.986,41.835 91.97,41.944 91.892,42.194 z M91.689,42.741" fill="#FF0000"/>
    <g>
      <path d="M53.171,47.805 L93.851,47.805" fill="#FF0000"/>
      <path d="M53.171,47.805 L93.851,47.805" fill-opacity="0" stroke="#FF0000" stroke-width="0.436" stroke-miterlimit="10"/>
    </g>
    <path d="M65.222,50.203 C65.222,50.031 65.222,49.843 65.004,49.843 C64.785,49.843 64.785,50.078 64.785,50.234 L64.785,60.343 C64.785,60.515 64.785,60.734 65.004,60.734 C65.222,60.734 65.222,60.546 65.222,60.375 z M67.347,50.234 C67.347,50.062 67.347,49.843 67.129,49.843 C66.91,49.843 66.91,50.031 66.91,50.203 L66.91,60.375 C66.91,60.546 66.91,60.734 67.129,60.734 C67.347,60.734 67.347,60.5 67.347,60.343 z M67.347,50.234" fill="#FF0000"/>
    <path d="M71.224,55.64 C71.959,55.64 72.662,55.578 73.115,55.421 C74.052,55.109 74.209,54.484 74.209,54.14 C74.209,53.5 73.599,53.093 72.709,53.093 C70.74,53.093 69.334,54.453 69.334,56.14 C69.334,57.39 70.177,58.109 71.615,58.109 C71.896,58.109 72.646,58.093 73.302,57.843 C73.943,57.593 74.381,57.14 74.381,57.015 C74.381,56.921 74.209,56.734 74.099,56.734 C74.037,56.734 74.021,56.765 73.943,56.843 C73.349,57.468 72.506,57.703 71.646,57.703 C70.865,57.703 70.584,57.281 70.584,56.656 C70.584,56.437 70.631,56.078 70.74,55.64 z M70.849,55.25 C71.037,54.453 71.302,54.156 71.49,53.984 C71.865,53.593 72.365,53.484 72.709,53.484 C73.099,53.484 73.552,53.656 73.552,54.14 C73.552,55.25 71.896,55.25 70.849,55.25 z M70.849,55.25" fill="#FF0000"/>
    <path d="M77.216,54.682 C77.216,54.511 77.091,54.37 76.904,54.37 C76.701,54.37 76.466,54.573 76.466,54.807 C76.466,54.979 76.591,55.104 76.779,55.104 C76.982,55.104 77.216,54.917 77.216,54.682 z M76.06,57.604 L75.623,58.698 C75.576,58.823 75.545,58.917 75.545,59.057 C75.545,59.448 75.841,59.729 76.263,59.729 C77.045,59.729 77.373,58.62 77.373,58.511 C77.373,58.432 77.31,58.401 77.248,58.401 C77.154,58.401 77.138,58.464 77.107,58.542 C76.935,59.182 76.607,59.511 76.279,59.511 C76.185,59.511 76.091,59.464 76.091,59.261 C76.091,59.057 76.154,58.917 76.248,58.667 C76.326,58.464 76.404,58.245 76.498,58.026 L76.748,57.386 C76.81,57.198 76.92,56.948 76.92,56.807 C76.92,56.417 76.591,56.136 76.185,56.136 C75.42,56.136 75.076,57.245 75.076,57.354 C75.076,57.432 75.138,57.464 75.201,57.464 C75.31,57.464 75.31,57.417 75.341,57.339 C75.56,56.573 75.92,56.354 76.17,56.354 C76.279,56.354 76.357,56.401 76.357,56.62 C76.357,56.698 76.341,56.807 76.263,57.057 z M76.06,57.604" fill="#FF0000"/>
    <path d="M80.097,50.203 C80.097,50.031 80.097,49.843 79.879,49.843 C79.66,49.843 79.66,50.078 79.66,50.234 L79.66,60.343 C79.66,60.515 79.66,60.734 79.879,60.734 C80.097,60.734 80.097,60.546 80.097,60.375 z M82.222,50.234 C82.222,50.062 82.222,49.843 82.004,49.843 C81.785,49.843 81.785,50.031 81.785,50.203 L81.785,60.375 C81.785,60.546 81.785,60.734 82.004,60.734 C82.222,60.734 82.222,60.5 82.222,60.343 z M82.222,50.234" fill="#FF0000"/>
    <g>
      <path d="M366.704,51.985 L366.704,51.532 C366.25,51.204 365.907,50.767 365.704,50.173 C365.5,49.595 365.407,48.782 365.407,47.735 C365.407,46.688 365.5,45.876 365.704,45.282 C365.907,44.704 366.25,44.267 366.704,43.938 L366.704,43.485 C365.235,44.142 364.485,45.579 364.485,47.735 C364.485,49.876 365.235,51.313 366.704,51.985 z M366.704,51.985" fill="#FF0000"/>
      <path d="M368.273,44.063 L368.273,45.251 L368.773,45.251 C368.851,44.501 369.304,44.095 370.117,44.095 C370.929,44.095 371.382,44.532 371.382,45.329 C371.382,46.204 370.867,46.642 369.789,46.642 L369.57,46.642 L369.57,47.11 L369.992,47.11 C371.07,47.11 371.617,47.657 371.617,48.72 C371.617,49.642 371.054,50.22 370.132,50.22 C369.179,50.22 368.648,49.767 368.586,48.892 L368.07,48.892 L368.07,50.204 C368.742,50.517 369.398,50.657 370.117,50.657 C371.711,50.657 372.57,49.97 372.57,48.704 C372.57,47.673 371.929,47.001 370.82,46.845 C371.757,46.657 372.289,46.079 372.289,45.267 C372.289,44.267 371.523,43.657 370.195,43.657 C369.632,43.657 368.976,43.798 368.273,44.063 z M368.273,44.063" fill="#FF0000"/>
      <path d="M374.139,50.063 C374.139,50.407 374.389,50.657 374.733,50.657 C375.077,50.657 375.342,50.392 375.342,50.063 C375.342,49.72 375.077,49.454 374.733,49.454 C374.389,49.454 374.139,49.72 374.139,50.063 z M374.139,50.063" fill="#FF0000"/>
      <path d="M381.432,44.235 L381.432,43.782 L376.994,43.782 L376.994,45.36 L377.526,45.36 L377.526,44.517 L380.635,44.517 L378.119,50.532 L378.791,50.532 z M381.432,44.235" fill="#FF0000"/>
      <path d="M385.345,48.251 L383.032,48.251 L385.345,44.642 z M387.329,50.532 L387.329,50.048 L386.251,50.048 L386.251,48.72 L387.532,48.72 L387.532,48.251 L386.251,48.251 L386.251,43.657 L385.361,43.657 L382.392,48.235 L382.392,48.72 L385.345,48.72 L385.345,50.048 L384.267,50.048 L384.267,50.532 z M387.329,50.532" fill="#FF0000"/>
      <path d="M389.071,50.048 L388.274,50.048 L388.274,50.532 L389.914,50.532 L389.914,49.782 C390.227,50.392 390.727,50.657 391.461,50.657 C392.055,50.657 392.539,50.423 392.914,49.954 C393.289,49.485 393.477,48.876 393.477,48.126 C393.477,47.376 393.289,46.767 392.914,46.298 C392.539,45.829 392.055,45.595 391.461,45.595 C390.727,45.595 390.227,45.876 389.914,46.47 L389.914,43.485 L388.274,43.485 L388.274,43.97 L389.071,43.97 z M389.914,48.36 L389.914,47.892 C389.914,46.735 390.367,46.11 391.211,46.11 C392.055,46.11 392.508,46.782 392.508,48.126 C392.508,49.454 392.055,50.142 391.211,50.142 C390.367,50.142 389.914,49.517 389.914,48.36 z M389.914,48.36" fill="#FF0000"/>
      <path d="M394.599,51.985 C396.068,51.313 396.818,49.876 396.818,47.735 C396.818,45.579 396.068,44.142 394.599,43.485 L394.599,43.938 C395.068,44.267 395.396,44.704 395.599,45.282 C395.802,45.876 395.911,46.688 395.911,47.735 C395.911,48.782 395.802,49.595 395.599,50.173 C395.396,50.767 395.068,51.204 394.599,51.532 z M394.599,51.985" fill="#FF0000"/>
    </g>
  </g>
</svg>
