<?xml version="1.0" encoding="UTF-8"?>
<!DOCTYPE svg PUBLIC "-//W3C//DTD SVG 1.1//EN" "http://www.w3.org/Graphics/SVG/1.1/DTD/svg11.dtd">
<svg version="1.1" xmlns="http://www.w3.org/2000/svg" xmlns:xlink="http://www.w3.org/1999/xlink" x="0" y="0" width="300" height="300" viewBox="0, 0, 300, 300">
  <g id="tess" transform="translate(0, 0)">
    <g>
      <path d="M118.96,126.213 C118.96,127.224 118.96,134.74 118.96,135.751 C117.852,135.751 103.888,135.751 103.888,135.751 L103.888,145.101 C103.888,145.101 117.08,145.101 118.188,145.101 C118.188,146.115 118.188,153.631 118.188,154.634 C117.08,154.634 103.888,154.634 103.888,154.634 L103.888,164.249 C103.888,164.249 117.852,164.249 118.96,164.249 C118.96,165.257 118.96,172.776 118.96,173.785 C117.839,173.785 93.541,173.785 92.414,173.785 C92.414,172.629 92.414,127.371 92.414,126.213 C93.541,126.213 117.839,126.213 118.96,126.213" fill="#666666"/>
      <path d="M59.831,174.386 L62.129,174.386 L84.26,125.611 L82.086,125.611 L59.831,174.386" fill="#666666"/>
      <path d="M129.959,174.386 L132.262,174.386 L154.381,125.611 L152.206,125.611 L129.959,174.386" fill="#666666"/>
      <path d="M183.198,160.023 C183.198,156.186 178.358,154.813 175.472,153.998 L175.062,153.883 C167.123,151.625 162.301,149.61 162.301,140.681 C162.301,131.255 168.822,124.921 178.521,124.921 C183.025,124.921 188.461,126.297 192.584,128.414 C192.148,129.378 188.742,136.847 188.742,136.847 C188.745,136.833 188.619,137.08 188.495,137.327 C186.011,135.447 183.161,134.325 180.33,134.325 C177.822,134.325 174.295,135.775 174.295,139.003 C174.295,142.275 178.064,143.493 180.312,144.226 C180.351,144.237 183.589,145.208 183.589,145.208 C191.61,147.575 195.192,151.506 195.192,157.956 C195.192,163.639 193.564,167.904 190.355,170.628 C186.969,173.496 182.192,175.079 176.903,175.079 C171.43,175.079 165.994,173.391 161.133,170.255 C161.529,169.393 165.085,161.549 165.416,160.824 C169.174,163.96 172.798,165.541 176.451,165.541 C179.7,165.541 183.198,163.815 183.198,160.023" fill="#666666"/>
      <path d="M257.615,160.023 C257.615,156.186 252.778,154.813 249.888,153.998 L249.481,153.883 C241.54,151.625 236.718,149.61 236.718,140.681 C236.718,131.255 243.24,124.921 252.935,124.921 C257.442,124.921 262.876,126.297 267.005,128.414 C266.563,129.378 263.159,136.847 263.159,136.847 C263.162,136.833 263.038,137.08 262.913,137.327 C260.428,135.447 257.578,134.325 254.752,134.325 C252.239,134.325 248.709,135.775 248.709,139.003 C248.709,142.275 252.479,143.493 254.731,144.226 C254.768,144.237 258.004,145.208 258.004,145.208 C266.027,147.575 269.61,151.506 269.61,157.956 C269.61,163.639 267.984,167.904 264.769,170.628 C261.384,173.496 256.606,175.079 251.318,175.079 C245.847,175.079 240.414,173.391 235.549,170.255 C235.947,169.393 239.502,161.549 239.832,160.824 C243.592,163.96 247.215,165.541 250.865,165.541 C254.118,165.541 257.615,163.815 257.615,160.023" fill="#666666"/>
      <path d="M204.092,174.386 L206.396,174.386 L228.527,125.611 L226.348,125.611 L204.092,174.386" fill="#666666"/>
      <path d="M56.391,126.213 L19.61,126.213 L19.61,135.751 C20.676,135.751 30.083,135.751 30.083,135.751 C30.083,135.751 30.083,172.616 30.083,173.785 L41.565,173.785 C41.565,172.616 41.565,135.751 41.565,135.751 C41.565,135.751 47.551,135.751 52.036,135.751 L56.391,126.213" fill="#666666"/>
      <path d="M118.96,126.213 C118.96,127.224 118.96,134.74 118.96,135.751 C117.852,135.751 103.888,135.751 103.888,135.751 L103.888,145.101 C103.888,145.101 117.08,145.101 118.188,145.101 C118.188,146.115 118.188,153.631 118.188,154.634 C117.08,154.634 103.888,154.634 103.888,154.634 L103.888,164.249 C103.888,164.249 117.852,164.249 118.96,164.249 C118.96,165.257 118.96,172.776 118.96,173.785 C117.839,173.785 93.541,173.785 92.414,173.785 C92.414,172.629 92.414,127.371 92.414,126.213 C93.541,126.213 117.839,126.213 118.96,126.213" fill="#666666"/>
      <path d="M59.831,174.386 L62.129,174.386 L84.26,125.611 L82.086,125.611 L59.831,174.386" fill="#666666"/>
      <path d="M129.959,174.386 L132.262,174.386 L154.381,125.611 L152.206,125.611 L129.959,174.386" fill="#666666"/>
      <path d="M183.198,160.023 C183.198,156.186 178.358,154.813 175.472,153.998 L175.062,153.883 C167.123,151.625 162.301,149.61 162.301,140.681 C162.301,131.255 168.822,124.921 178.521,124.921 C183.025,124.921 188.461,126.297 192.584,128.414 C192.148,129.378 188.742,136.847 188.742,136.847 C188.745,136.833 188.619,137.08 188.495,137.327 C186.011,135.447 183.161,134.325 180.33,134.325 C177.822,134.325 174.295,135.775 174.295,139.003 C174.295,142.275 178.064,143.493 180.312,144.226 C180.351,144.237 183.589,145.208 183.589,145.208 C191.61,147.575 195.192,151.506 195.192,157.956 C195.192,163.639 193.564,167.904 190.355,170.628 C186.969,173.496 182.192,175.079 176.903,175.079 C171.43,175.079 165.994,173.391 161.133,170.255 C161.529,169.393 165.085,161.549 165.416,160.824 C169.174,163.96 172.798,165.541 176.451,165.541 C179.7,165.541 183.198,163.815 183.198,160.023" fill="#666666"/>
      <path d="M257.615,160.023 C257.615,156.186 252.778,154.813 249.888,153.998 L249.481,153.883 C241.54,151.625 236.718,149.61 236.718,140.681 C236.718,131.255 243.24,124.921 252.935,124.921 C257.442,124.921 262.876,126.297 267.005,128.414 C266.563,129.378 263.159,136.847 263.159,136.847 C263.162,136.833 263.038,137.08 262.913,137.327 C260.428,135.447 257.578,134.325 254.752,134.325 C252.239,134.325 248.709,135.775 248.709,139.003 C248.709,142.275 252.479,143.493 254.731,144.226 C254.768,144.237 258.004,145.208 258.004,145.208 C266.027,147.575 269.61,151.506 269.61,157.956 C269.61,163.639 267.984,167.904 264.769,170.628 C261.384,173.496 256.606,175.079 251.318,175.079 C245.847,175.079 240.414,173.391 235.549,170.255 C235.947,169.393 239.502,161.549 239.832,160.824 C243.592,163.96 247.215,165.541 250.865,165.541 C254.118,165.541 257.615,163.815 257.615,160.023" fill="#666666"/>
      <path d="M204.092,174.386 L206.396,174.386 L228.527,125.611 L226.348,125.611 L204.092,174.386" fill="#666666"/>
      <path d="M56.391,126.213 L19.61,126.213 L19.61,135.751 C20.676,135.751 30.083,135.751 30.083,135.751 C30.083,135.751 30.083,172.616 30.083,173.785 L41.565,173.785 C41.565,172.616 41.565,135.751 41.565,135.751 C41.565,135.751 47.551,135.751 52.036,135.751 L56.391,126.213" fill="#666666"/>
    </g>
  </g>
</svg>
