<?xml version="1.0" encoding="UTF-8"?>
<!DOCTYPE svg PUBLIC "-//W3C//DTD SVG 1.1//EN" "http://www.w3.org/Graphics/SVG/1.1/DTD/svg11.dtd">
<svg version="1.1" xmlns="http://www.w3.org/2000/svg" xmlns:xlink="http://www.w3.org/1999/xlink" x="0" y="0" width="283.465" height="226.772" viewBox="0, 0, 283.465, 226.772">
  <g id="Background">
    <rect x="0" y="0" width="283.465" height="226.772" fill="#000000" fill-opacity="0"/>
  </g>
  <g id="Calque_1">
    <g>
      <text transform="matrix(1, 0, -0, 1, 26.143, 15.485)">
        <tspan x="-5.49" y="3.5" font-family="TimesNewRomanPSMT" font-size="10.98" kerning="0" fill="#000000"> </tspan>
      </text>
      <text transform="matrix(1, 0, -0, 1, 257.321, 73.265)">
        <tspan x="-5.49" y="3.5" font-family="TimesNewRomanPSMT" font-size="10.98" kerning="0" fill="#000000"> </tspan>
      </text>
      <path d="M64.472,90.722 L63.739,93.227 Q64.487,93.217 64.712,93.168 Q65.079,93.095 65.378,92.858 Q65.676,92.62 65.877,92.2 L66.067,92.2 L65.309,94.817 L65.113,94.817 Q65.162,94.563 65.162,94.411 Q65.162,94.108 65.038,93.927 Q64.913,93.746 64.717,93.68 Q64.521,93.614 63.641,93.594 L63.044,95.664 L62.926,96.079 Q62.902,96.202 62.902,96.319 Q62.902,96.49 62.968,96.588 Q63.034,96.686 63.181,96.742 Q63.328,96.799 63.739,96.804 L63.685,96.985 L60.372,96.985 L60.426,96.804 Q60.906,96.804 61.126,96.625 Q61.346,96.446 61.522,95.845 L62.706,91.784 Q62.892,91.143 62.902,90.962 Q62.892,90.791 62.745,90.671 Q62.599,90.551 62.144,90.531 L62.193,90.35 L67.613,90.35 L67.168,92.102 L66.987,92.102 Q66.958,91.554 66.816,91.287 Q66.674,91.021 66.349,90.871 Q66.023,90.722 65.309,90.722 z" fill="#000000"/>
      <path d="M69.283,90.199 Q69.587,90.199 69.795,90.409 Q70.002,90.619 70.002,90.918 Q70.002,91.216 69.792,91.427 Q69.582,91.637 69.283,91.637 Q68.99,91.637 68.779,91.427 Q68.569,91.216 68.569,90.918 Q68.569,90.619 68.777,90.409 Q68.985,90.199 69.283,90.199 z M69.587,92.449 L68.584,95.928 Q68.5,96.226 68.5,96.319 Q68.5,96.373 68.544,96.42 Q68.589,96.466 68.637,96.466 Q68.721,96.466 68.804,96.393 Q69.024,96.212 69.332,95.737 L69.499,95.835 Q68.76,97.122 67.928,97.122 Q67.61,97.122 67.422,96.943 Q67.233,96.764 67.233,96.49 Q67.233,96.309 67.316,96.031 L67.997,93.692 Q68.094,93.354 68.094,93.183 Q68.094,93.075 68.001,92.992 Q67.908,92.909 67.747,92.909 Q67.674,92.909 67.571,92.914 L67.634,92.718 L69.293,92.449 z" fill="#000000"/>
      <path d="M73.668,92.748 L74.97,92.748 L74.813,93.286 L74.138,93.286 Q74.295,93.574 74.295,93.834 Q74.295,94.279 74.052,94.656 Q73.81,95.032 73.338,95.258 Q72.866,95.483 72.289,95.483 Q72.137,95.483 71.954,95.461 Q71.77,95.439 71.555,95.399 Q71.232,95.566 71.149,95.664 Q71.09,95.732 71.09,95.805 Q71.09,95.894 71.163,95.957 Q71.291,96.07 71.54,96.124 Q72.538,96.339 72.856,96.471 Q73.292,96.652 73.514,96.936 Q73.737,97.219 73.737,97.621 Q73.737,98.232 73.174,98.69 Q72.612,99.147 71.432,99.147 Q70.244,99.147 69.681,98.756 Q69.275,98.472 69.275,98.081 Q69.275,97.782 69.542,97.528 Q69.808,97.273 70.684,97.078 Q70.385,96.911 70.283,96.774 Q70.141,96.588 70.141,96.388 Q70.141,96.06 70.403,95.81 Q70.664,95.561 71.281,95.316 Q70.801,95.125 70.589,94.825 Q70.376,94.524 70.376,94.122 Q70.376,93.697 70.633,93.313 Q70.889,92.929 71.391,92.689 Q71.892,92.449 72.543,92.449 Q72.959,92.449 73.282,92.542 Q73.448,92.591 73.668,92.748 z M72.646,92.689 Q72.406,92.689 72.24,92.845 Q71.976,93.085 71.777,93.648 Q71.579,94.211 71.579,94.714 Q71.579,94.954 71.719,95.094 Q71.858,95.233 72.064,95.233 Q72.264,95.233 72.411,95.096 Q72.69,94.827 72.895,94.237 Q73.101,93.648 73.101,93.168 Q73.101,92.953 72.969,92.821 Q72.837,92.689 72.646,92.689 z M70.958,97.19 Q70.493,97.371 70.324,97.582 Q70.156,97.792 70.156,98.037 Q70.156,98.355 70.491,98.611 Q70.826,98.868 71.56,98.868 Q72.171,98.868 72.445,98.646 Q72.719,98.423 72.719,98.125 Q72.719,97.86 72.467,97.694 Q72.215,97.528 71.501,97.347 Q71.168,97.259 70.958,97.19 z" fill="#000000"/>
      <path d="M77.482,92.449 L76.533,95.776 Q76.464,96.006 76.464,96.094 Q76.464,96.138 76.499,96.163 Q76.538,96.202 76.592,96.202 Q76.817,96.202 77.193,95.801 Q77.732,95.218 78.324,94.127 L78.769,92.63 L80.007,92.586 L79.067,95.815 Q78.95,96.226 78.95,96.285 Q78.95,96.324 78.987,96.366 Q79.023,96.407 79.062,96.407 Q79.131,96.407 79.194,96.349 Q79.371,96.207 79.659,95.776 L79.826,95.894 Q79.146,97.122 78.328,97.122 Q78.025,97.122 77.851,96.967 Q77.678,96.813 77.678,96.564 Q77.678,96.3 77.8,95.894 L78.04,95.067 Q77.404,95.991 77.115,96.314 Q76.675,96.799 76.374,96.96 Q76.073,97.122 75.799,97.122 Q75.54,97.122 75.351,96.931 Q75.163,96.74 75.163,96.446 Q75.163,96.197 75.285,95.776 L75.838,93.819 Q75.975,93.34 75.975,93.173 Q75.975,93.1 75.936,93.044 Q75.897,92.987 75.806,92.956 Q75.716,92.924 75.471,92.924 L75.52,92.738 L77.188,92.449 z" fill="#000000"/>
      <path d="M82.783,92.449 L82.044,95.199 Q82.954,93.188 83.414,92.723 Q83.683,92.449 83.982,92.449 Q84.187,92.449 84.314,92.598 Q84.442,92.748 84.442,93.022 Q84.442,93.496 84.212,93.819 Q84.065,94.025 83.884,94.025 Q83.688,94.025 83.59,93.844 Q83.492,93.663 83.453,93.631 Q83.414,93.599 83.37,93.599 Q83.321,93.599 83.267,93.628 Q83.16,93.687 82.986,93.915 Q82.812,94.142 82.558,94.675 Q82.304,95.209 82.162,95.578 Q82.02,95.947 81.765,96.985 L80.581,96.985 L81.389,93.741 Q81.477,93.379 81.477,93.261 Q81.477,93.129 81.43,93.056 Q81.384,92.982 81.303,92.948 Q81.222,92.914 80.968,92.914 L81.012,92.772 L82.489,92.449 z" fill="#000000"/>
      <path d="M85.892,95.15 Q85.848,95.468 85.848,95.673 Q85.848,96.04 86.061,96.261 Q86.274,96.481 86.631,96.481 Q86.973,96.481 87.318,96.314 Q87.663,96.148 88.118,95.732 L88.265,95.864 Q87.702,96.544 87.169,96.833 Q86.636,97.122 85.99,97.122 Q85.173,97.122 84.86,96.73 Q84.547,96.339 84.547,95.825 Q84.547,95.023 85.014,94.22 Q85.481,93.418 86.286,92.934 Q87.091,92.449 87.903,92.449 Q88.314,92.449 88.524,92.645 Q88.735,92.841 88.735,93.139 Q88.735,93.496 88.529,93.834 Q88.245,94.294 87.815,94.575 Q87.384,94.856 86.851,95.003 Q86.494,95.101 85.892,95.15 z M85.936,94.895 Q86.367,94.832 86.604,94.722 Q86.841,94.612 87.069,94.37 Q87.296,94.127 87.463,93.758 Q87.629,93.389 87.629,93.066 Q87.629,92.929 87.553,92.85 Q87.477,92.772 87.36,92.772 Q87.125,92.772 86.832,93.1 Q86.293,93.697 85.936,94.895 z" fill="#000000"/>
      <path d="M92.53,93.379 L92.593,93.168 Q93.273,93.071 93.689,92.88 Q94.247,92.635 94.501,92.307 Q94.756,91.979 94.756,91.603 Q94.756,91.28 94.526,91.05 Q94.296,90.82 93.953,90.82 Q93.684,90.82 93.454,90.962 Q93.225,91.104 92.955,91.456 L92.76,91.358 Q93.171,90.742 93.584,90.477 Q93.998,90.213 94.511,90.213 Q95.157,90.213 95.558,90.578 Q95.959,90.942 95.959,91.451 Q95.959,91.852 95.764,92.151 Q95.568,92.449 95.186,92.669 Q94.908,92.831 94.311,92.997 Q94.854,93.232 95.074,93.526 Q95.402,93.961 95.402,94.577 Q95.402,95.732 94.404,96.486 Q93.567,97.122 92.466,97.122 Q91.879,97.122 91.581,96.901 Q91.375,96.75 91.375,96.5 Q91.375,96.275 91.532,96.128 Q91.688,95.982 91.918,95.982 Q92.036,95.982 92.143,96.031 Q92.329,96.109 92.701,96.361 Q93.073,96.613 93.317,96.613 Q93.621,96.613 93.851,96.305 Q94.188,95.85 94.188,95.165 Q94.188,94.631 93.973,94.23 Q93.758,93.829 93.42,93.636 Q93.083,93.442 92.53,93.379 z" fill="#000000"/>
      <path d="M98.374,92.459 Q98.707,92.459 98.941,92.696 Q99.176,92.934 99.176,93.266 Q99.176,93.599 98.941,93.834 Q98.707,94.069 98.369,94.069 Q98.036,94.069 97.801,93.834 Q97.567,93.599 97.567,93.266 Q97.567,92.934 97.801,92.696 Q98.036,92.459 98.374,92.459 z M97.483,95.517 Q97.821,95.517 98.056,95.752 Q98.291,95.987 98.291,96.319 Q98.291,96.652 98.053,96.887 Q97.816,97.122 97.483,97.122 Q97.151,97.122 96.916,96.887 Q96.681,96.652 96.681,96.319 Q96.681,95.987 96.916,95.752 Q97.151,95.517 97.483,95.517 z" fill="#000000"/>
      <path d="M102.141,97.136 L102.689,94.675 L102.855,94.675 Q102.821,95.032 102.821,95.267 Q102.821,95.938 103.249,96.358 Q103.677,96.779 104.367,96.779 Q105.008,96.779 105.341,96.385 Q105.673,95.991 105.673,95.478 Q105.673,95.145 105.522,94.871 Q105.292,94.465 104.294,93.442 Q103.809,92.953 103.672,92.713 Q103.447,92.317 103.447,91.882 Q103.447,91.187 103.966,90.693 Q104.484,90.199 105.297,90.199 Q105.571,90.199 105.815,90.252 Q105.967,90.282 106.368,90.448 Q106.652,90.561 106.681,90.57 Q106.75,90.585 106.833,90.585 Q106.975,90.585 107.078,90.512 Q107.18,90.438 107.317,90.199 L107.503,90.199 L106.994,92.4 L106.828,92.4 Q106.848,92.107 106.848,91.926 Q106.848,91.334 106.456,90.957 Q106.065,90.58 105.424,90.58 Q104.915,90.58 104.597,90.879 Q104.279,91.177 104.279,91.569 Q104.279,91.911 104.482,92.222 Q104.685,92.532 105.417,93.234 Q106.148,93.937 106.363,94.33 Q106.578,94.724 106.578,95.169 Q106.578,95.673 106.312,96.146 Q106.045,96.618 105.546,96.877 Q105.047,97.136 104.455,97.136 Q104.162,97.136 103.907,97.082 Q103.653,97.029 103.095,96.818 Q102.904,96.745 102.777,96.745 Q102.488,96.745 102.327,97.136 z" fill="#000000"/>
      <path d="M110.967,95.918 Q110.459,96.53 109.94,96.816 Q109.421,97.102 108.844,97.102 Q108.149,97.102 107.76,96.711 Q107.371,96.319 107.371,95.659 Q107.371,94.91 107.79,94.186 Q108.208,93.462 108.915,93.009 Q109.622,92.557 110.302,92.557 Q110.835,92.557 111.1,92.779 Q111.364,93.002 111.364,93.325 Q111.364,93.628 111.178,93.844 Q111.041,94.01 110.84,94.01 Q110.689,94.01 110.588,93.912 Q110.488,93.814 110.488,93.667 Q110.488,93.574 110.525,93.496 Q110.561,93.418 110.676,93.308 Q110.791,93.198 110.816,93.149 Q110.84,93.1 110.84,93.046 Q110.84,92.943 110.747,92.875 Q110.605,92.777 110.346,92.777 Q109.867,92.777 109.397,93.115 Q108.927,93.452 108.595,94.074 Q108.193,94.827 108.193,95.58 Q108.193,96.079 108.477,96.371 Q108.761,96.662 109.25,96.662 Q109.627,96.662 109.996,96.473 Q110.366,96.285 110.826,95.791 z" fill="#000000"/>
      <path d="M114.42,90.027 L113.045,94.778 Q113.936,93.437 114.435,92.997 Q114.934,92.557 115.389,92.557 Q115.624,92.557 115.78,92.718 Q115.937,92.88 115.937,93.149 Q115.937,93.472 115.8,93.932 L115.203,95.982 Q115.09,96.353 115.09,96.393 Q115.09,96.461 115.132,96.505 Q115.174,96.549 115.227,96.549 Q115.291,96.549 115.374,96.486 Q115.653,96.27 115.927,95.889 L116.079,95.982 Q115.912,96.241 115.616,96.552 Q115.32,96.862 115.107,96.982 Q114.895,97.102 114.728,97.102 Q114.547,97.102 114.432,96.987 Q114.317,96.872 114.317,96.691 Q114.317,96.476 114.489,95.889 L115.051,93.932 Q115.159,93.565 115.159,93.354 Q115.159,93.256 115.098,93.198 Q115.037,93.139 114.939,93.139 Q114.797,93.139 114.616,93.247 Q114.283,93.452 113.848,94.01 Q113.73,94.162 113.065,95.233 Q112.859,95.576 112.727,95.982 L112.414,96.985 L111.68,96.985 L113.29,91.387 L113.461,90.781 Q113.461,90.654 113.356,90.556 Q113.251,90.458 113.099,90.458 Q113.011,90.458 112.83,90.487 L112.727,90.502 L112.727,90.311 z" fill="#000000"/>
      <path d="M117.698,95.14 Q117.664,95.385 117.664,95.546 Q117.664,95.982 117.972,96.287 Q118.281,96.593 118.721,96.593 Q119.073,96.593 119.399,96.449 Q119.724,96.305 120.365,95.81 L120.468,95.952 Q119.308,97.102 118.256,97.102 Q117.542,97.102 117.18,96.652 Q116.818,96.202 116.818,95.659 Q116.818,94.93 117.268,94.166 Q117.718,93.403 118.398,92.98 Q119.078,92.557 119.797,92.557 Q120.316,92.557 120.565,92.767 Q120.815,92.978 120.815,93.266 Q120.815,93.672 120.492,94.044 Q120.066,94.529 119.24,94.827 Q118.692,95.028 117.698,95.14 z M117.733,94.9 Q118.457,94.817 118.912,94.617 Q119.514,94.348 119.814,93.973 Q120.115,93.599 120.115,93.261 Q120.115,93.056 119.986,92.929 Q119.856,92.801 119.616,92.801 Q119.117,92.801 118.557,93.332 Q117.997,93.863 117.733,94.9 z" fill="#000000"/>
      <path d="M123.059,92.557 L122.423,94.763 Q122.849,93.985 123.147,93.594 Q123.612,92.987 124.052,92.713 Q124.312,92.557 124.595,92.557 Q124.84,92.557 125.001,92.713 Q125.163,92.87 125.163,93.115 Q125.163,93.354 125.05,93.741 L124.703,94.984 Q125.501,93.491 126.215,92.89 Q126.611,92.557 126.998,92.557 Q127.223,92.557 127.367,92.711 Q127.511,92.865 127.511,93.188 Q127.511,93.472 127.423,93.79 L126.885,95.693 Q126.709,96.314 126.709,96.383 Q126.709,96.451 126.753,96.5 Q126.782,96.534 126.831,96.534 Q126.88,96.534 127.003,96.442 Q127.281,96.226 127.526,95.874 L127.688,95.977 Q127.565,96.172 127.255,96.515 Q126.944,96.857 126.724,96.98 Q126.504,97.102 126.318,97.102 Q126.146,97.102 126.031,96.985 Q125.916,96.867 125.916,96.696 Q125.916,96.461 126.117,95.752 L126.562,94.181 Q126.714,93.638 126.724,93.579 Q126.738,93.486 126.738,93.398 Q126.738,93.276 126.685,93.208 Q126.626,93.139 126.552,93.139 Q126.347,93.139 126.117,93.349 Q125.442,93.971 124.855,95.091 Q124.468,95.83 124.131,96.985 L123.392,96.985 L124.228,94.025 Q124.365,93.545 124.365,93.384 Q124.365,93.252 124.312,93.188 Q124.258,93.124 124.18,93.124 Q124.018,93.124 123.837,93.242 Q123.544,93.433 123.081,94.059 Q122.619,94.685 122.364,95.258 Q122.242,95.527 121.782,96.985 L121.058,96.985 L121.963,93.814 L122.081,93.403 Q122.115,93.31 122.115,93.266 Q122.115,93.159 122.017,93.073 Q121.919,92.987 121.768,92.987 Q121.704,92.987 121.415,93.046 L121.371,92.865 z" fill="#000000"/>
      <path d="M129.332,95.14 Q129.298,95.385 129.298,95.546 Q129.298,95.982 129.606,96.287 Q129.914,96.593 130.354,96.593 Q130.707,96.593 131.032,96.449 Q131.357,96.305 131.998,95.81 L132.101,95.952 Q130.941,97.102 129.89,97.102 Q129.175,97.102 128.813,96.652 Q128.451,96.202 128.451,95.659 Q128.451,94.93 128.901,94.166 Q129.351,93.403 130.031,92.98 Q130.711,92.557 131.431,92.557 Q131.949,92.557 132.199,92.767 Q132.448,92.978 132.448,93.266 Q132.448,93.672 132.125,94.044 Q131.7,94.529 130.873,94.827 Q130.325,95.028 129.332,95.14 z M129.366,94.9 Q130.09,94.817 130.545,94.617 Q131.147,94.348 131.448,93.973 Q131.749,93.599 131.749,93.261 Q131.749,93.056 131.619,92.929 Q131.489,92.801 131.25,92.801 Q130.751,92.801 130.19,93.332 Q129.63,93.863 129.366,94.9 z" fill="#000000"/>
      <path d="M139.693,94.088 Q139.693,94.822 139.305,95.541 Q138.916,96.261 138.221,96.681 Q137.526,97.102 136.87,97.102 Q136.2,97.102 135.777,96.674 Q135.354,96.246 135.354,95.566 Q135.354,94.847 135.767,94.122 Q136.181,93.398 136.873,92.978 Q137.565,92.557 138.211,92.557 Q138.857,92.557 139.275,92.982 Q139.693,93.408 139.693,94.088 z M138.881,93.751 Q138.881,93.296 138.659,93.053 Q138.436,92.811 138.084,92.811 Q137.365,92.811 136.76,93.841 Q136.156,94.871 136.156,95.889 Q136.156,96.353 136.391,96.605 Q136.626,96.857 136.983,96.857 Q137.673,96.857 138.277,95.832 Q138.881,94.807 138.881,93.751 z" fill="#000000"/>
      <path d="M143.055,92.674 L142.967,92.997 L142.253,92.997 L141.714,95.135 Q141.357,96.549 140.995,97.322 Q140.482,98.413 139.89,98.829 Q139.439,99.147 138.989,99.147 Q138.696,99.147 138.49,98.971 Q138.339,98.849 138.339,98.653 Q138.339,98.496 138.463,98.381 Q138.588,98.266 138.769,98.266 Q138.901,98.266 138.992,98.35 Q139.082,98.433 139.082,98.54 Q139.082,98.648 138.98,98.741 Q138.901,98.81 138.901,98.844 Q138.901,98.888 138.935,98.912 Q138.98,98.947 139.072,98.947 Q139.283,98.947 139.515,98.814 Q139.748,98.682 139.929,98.421 Q140.11,98.159 140.271,97.665 Q140.34,97.459 140.638,96.309 L141.489,92.997 L140.638,92.997 L140.707,92.674 Q141.113,92.674 141.274,92.618 Q141.436,92.562 141.57,92.403 Q141.705,92.244 141.92,91.808 Q142.209,91.221 142.473,90.898 Q142.835,90.463 143.234,90.245 Q143.632,90.027 143.985,90.027 Q144.356,90.027 144.581,90.216 Q144.807,90.404 144.807,90.624 Q144.807,90.796 144.694,90.913 Q144.581,91.03 144.405,91.03 Q144.254,91.03 144.158,90.942 Q144.063,90.854 144.063,90.732 Q144.063,90.654 144.126,90.539 Q144.19,90.424 144.19,90.385 Q144.19,90.316 144.146,90.282 Q144.082,90.233 143.96,90.233 Q143.652,90.233 143.407,90.429 Q143.079,90.688 142.82,91.241 Q142.688,91.529 142.336,92.674 z" fill="#000000"/>
      <path d="M147.889,90.027 L146.925,93.408 Q147.394,92.919 147.744,92.738 Q148.094,92.557 148.476,92.557 Q149.014,92.557 149.356,92.914 Q149.699,93.271 149.699,93.883 Q149.699,94.67 149.249,95.451 Q148.799,96.231 148.119,96.667 Q147.438,97.102 146.778,97.102 Q146.039,97.102 145.261,96.549 L146.749,91.427 Q146.92,90.835 146.92,90.732 Q146.92,90.605 146.842,90.541 Q146.729,90.453 146.509,90.453 Q146.406,90.453 146.196,90.487 L146.196,90.301 z M145.995,96.603 Q146.484,96.872 146.856,96.872 Q147.287,96.872 147.749,96.557 Q148.212,96.241 148.552,95.492 Q148.892,94.744 148.892,93.981 Q148.892,93.53 148.669,93.276 Q148.446,93.022 148.143,93.022 Q147.688,93.022 147.253,93.386 Q146.817,93.751 146.631,94.401 z" fill="#000000"/>
      <path d="M151.583,95.14 Q151.549,95.385 151.549,95.546 Q151.549,95.982 151.857,96.287 Q152.165,96.593 152.605,96.593 Q152.958,96.593 153.283,96.449 Q153.608,96.305 154.249,95.81 L154.352,95.952 Q153.192,97.102 152.141,97.102 Q151.426,97.102 151.064,96.652 Q150.702,96.202 150.702,95.659 Q150.702,94.93 151.152,94.166 Q151.602,93.403 152.282,92.98 Q152.963,92.557 153.682,92.557 Q154.2,92.557 154.45,92.767 Q154.699,92.978 154.699,93.266 Q154.699,93.672 154.376,94.044 Q153.951,94.529 153.124,94.827 Q152.576,95.028 151.583,95.14 z M151.617,94.9 Q152.341,94.817 152.796,94.617 Q153.398,94.348 153.699,93.973 Q154,93.599 154,93.261 Q154,93.056 153.87,92.929 Q153.74,92.801 153.501,92.801 Q153.002,92.801 152.441,93.332 Q151.881,93.863 151.617,94.9 z" fill="#000000"/>
      <path d="M156.983,92.557 L156.332,94.783 Q157.247,93.418 157.734,92.987 Q158.221,92.557 158.671,92.557 Q158.915,92.557 159.074,92.718 Q159.233,92.88 159.233,93.139 Q159.233,93.433 159.091,93.922 L158.494,95.982 Q158.392,96.339 158.392,96.417 Q158.392,96.486 158.431,96.532 Q158.47,96.579 158.514,96.579 Q158.573,96.579 158.656,96.515 Q158.915,96.309 159.223,95.889 L159.375,95.982 Q158.92,96.632 158.514,96.911 Q158.23,97.102 158.005,97.102 Q157.824,97.102 157.717,96.992 Q157.609,96.882 157.609,96.696 Q157.609,96.461 157.775,95.889 L158.343,93.922 Q158.45,93.555 158.45,93.349 Q158.45,93.252 158.387,93.19 Q158.323,93.129 158.23,93.129 Q158.093,93.129 157.902,93.247 Q157.54,93.467 157.149,93.973 Q156.758,94.48 156.322,95.267 Q156.092,95.683 155.941,96.177 L155.696,96.985 L154.962,96.985 L155.853,93.922 Q156.009,93.369 156.009,93.256 Q156.009,93.149 155.923,93.068 Q155.838,92.987 155.711,92.987 Q155.652,92.987 155.505,93.007 L155.319,93.036 L155.29,92.86 z" fill="#000000"/>
      <path d="M165.167,90.027 L163.484,95.801 Q163.347,96.27 163.347,96.417 Q163.347,96.466 163.389,96.51 Q163.43,96.554 163.474,96.554 Q163.538,96.554 163.626,96.49 Q163.792,96.373 164.184,95.903 L164.35,96.006 Q163.998,96.495 163.638,96.799 Q163.279,97.102 162.965,97.102 Q162.799,97.102 162.691,96.985 Q162.584,96.867 162.584,96.652 Q162.584,96.373 162.731,95.903 L162.921,95.297 Q162.212,96.393 161.63,96.813 Q161.229,97.102 160.862,97.102 Q160.49,97.102 160.213,96.772 Q159.937,96.442 159.937,95.874 Q159.937,95.145 160.402,94.318 Q160.867,93.491 161.63,92.973 Q162.232,92.557 162.736,92.557 Q163,92.557 163.191,92.664 Q163.381,92.772 163.567,93.022 L164.047,91.319 Q164.101,91.138 164.135,91.03 Q164.193,90.835 164.193,90.707 Q164.193,90.605 164.12,90.536 Q164.017,90.453 163.856,90.453 Q163.743,90.453 163.484,90.487 L163.484,90.306 z M163.352,93.501 Q163.352,93.188 163.171,92.997 Q162.99,92.806 162.711,92.806 Q162.095,92.806 161.427,93.824 Q160.759,94.842 160.759,95.771 Q160.759,96.138 160.92,96.331 Q161.082,96.525 161.307,96.525 Q161.816,96.525 162.584,95.424 Q163.352,94.323 163.352,93.501 z" fill="#000000"/>
      <path d="M167.032,90.614 Q167.237,90.614 167.379,90.756 Q167.521,90.898 167.521,91.104 Q167.521,91.304 167.377,91.449 Q167.233,91.593 167.032,91.593 Q166.831,91.593 166.687,91.449 Q166.543,91.304 166.543,91.104 Q166.543,90.898 166.685,90.756 Q166.826,90.614 167.032,90.614 z M167.096,92.557 L166.127,95.987 Q166.029,96.334 166.029,96.402 Q166.029,96.481 166.075,96.53 Q166.122,96.579 166.186,96.579 Q166.259,96.579 166.362,96.5 Q166.641,96.28 166.924,95.874 L167.096,95.987 Q166.763,96.495 166.313,96.843 Q165.98,97.102 165.677,97.102 Q165.476,97.102 165.349,96.982 Q165.222,96.862 165.222,96.681 Q165.222,96.5 165.344,96.079 L165.98,93.888 Q166.137,93.349 166.137,93.212 Q166.137,93.105 166.061,93.036 Q165.985,92.968 165.853,92.968 Q165.745,92.968 165.408,93.022 L165.408,92.831 z" fill="#000000"/>
      <path d="M169.761,92.557 L169.111,94.783 Q170.026,93.418 170.512,92.987 Q170.999,92.557 171.449,92.557 Q171.694,92.557 171.853,92.718 Q172.012,92.88 172.012,93.139 Q172.012,93.433 171.87,93.922 L171.273,95.982 Q171.171,96.339 171.171,96.417 Q171.171,96.486 171.21,96.532 Q171.249,96.579 171.293,96.579 Q171.352,96.579 171.435,96.515 Q171.694,96.309 172.002,95.889 L172.154,95.982 Q171.699,96.632 171.293,96.911 Q171.009,97.102 170.784,97.102 Q170.603,97.102 170.495,96.992 Q170.388,96.882 170.388,96.696 Q170.388,96.461 170.554,95.889 L171.122,93.922 Q171.229,93.555 171.229,93.349 Q171.229,93.252 171.166,93.19 Q171.102,93.129 171.009,93.129 Q170.872,93.129 170.681,93.247 Q170.319,93.467 169.928,93.973 Q169.536,94.48 169.101,95.267 Q168.871,95.683 168.719,96.177 L168.475,96.985 L167.741,96.985 L168.631,93.922 Q168.788,93.369 168.788,93.256 Q168.788,93.149 168.702,93.068 Q168.617,92.987 168.489,92.987 Q168.431,92.987 168.284,93.007 L168.098,93.036 L168.069,92.86 z" fill="#000000"/>
      <path d="M177.745,92.86 L177.603,93.369 L176.786,93.369 Q176.879,93.633 176.879,93.863 Q176.879,94.509 176.331,95.013 Q175.778,95.517 174.815,95.571 Q174.296,95.727 174.037,95.942 Q173.939,96.021 173.939,96.104 Q173.939,96.202 174.027,96.283 Q174.115,96.363 174.472,96.446 L175.421,96.667 Q176.209,96.853 176.463,97.107 Q176.713,97.366 176.713,97.704 Q176.713,98.105 176.417,98.438 Q176.121,98.77 175.551,98.959 Q174.981,99.147 174.291,99.147 Q173.684,99.147 173.185,99.003 Q172.686,98.858 172.471,98.614 Q172.256,98.369 172.256,98.11 Q172.256,97.9 172.395,97.672 Q172.535,97.445 172.745,97.298 Q172.877,97.205 173.494,96.857 Q173.269,96.681 173.269,96.471 Q173.269,96.275 173.467,96.055 Q173.665,95.835 174.306,95.571 Q173.768,95.468 173.452,95.121 Q173.136,94.773 173.136,94.348 Q173.136,93.653 173.746,93.105 Q174.355,92.557 175.367,92.557 Q175.734,92.557 175.969,92.63 Q176.204,92.704 176.424,92.86 z M176.048,93.628 Q176.048,93.237 175.83,93.012 Q175.612,92.787 175.26,92.787 Q174.707,92.787 174.347,93.342 Q173.988,93.897 173.988,94.499 Q173.988,94.876 174.218,95.116 Q174.448,95.355 174.775,95.355 Q175.035,95.355 175.277,95.213 Q175.519,95.072 175.686,94.822 Q175.852,94.573 175.95,94.186 Q176.048,93.8 176.048,93.628 z M173.704,96.985 Q173.308,97.166 173.105,97.449 Q172.902,97.733 172.902,98.007 Q172.902,98.33 173.195,98.54 Q173.616,98.844 174.428,98.844 Q175.128,98.844 175.624,98.606 Q176.121,98.369 176.121,97.992 Q176.121,97.802 175.937,97.63 Q175.754,97.459 175.226,97.352 Q174.937,97.293 173.704,96.985 z" fill="#000000"/>
      <path d="M183.645,92.557 L183.347,94.059 L183.165,94.059 Q183.141,93.403 182.887,93.105 Q182.632,92.806 182.255,92.806 Q181.952,92.806 181.774,92.973 Q181.595,93.139 181.595,93.374 Q181.595,93.535 181.666,93.682 Q181.737,93.829 181.977,94.093 Q182.613,94.788 182.799,95.14 Q182.984,95.492 182.984,95.805 Q182.984,96.314 182.561,96.708 Q182.138,97.102 181.492,97.102 Q181.14,97.102 180.68,96.936 Q180.519,96.877 180.431,96.877 Q180.21,96.877 180.098,97.102 L179.917,97.102 L180.215,95.517 L180.396,95.517 Q180.426,96.261 180.705,96.569 Q180.983,96.877 181.468,96.877 Q181.84,96.877 182.057,96.669 Q182.275,96.461 182.275,96.158 Q182.275,95.962 182.197,95.796 Q182.06,95.502 181.622,94.984 Q181.184,94.465 181.059,94.206 Q180.934,93.946 180.934,93.687 Q180.934,93.212 181.279,92.885 Q181.624,92.557 182.167,92.557 Q182.324,92.557 182.451,92.581 Q182.52,92.596 182.772,92.691 Q183.024,92.787 183.107,92.787 Q183.317,92.787 183.459,92.557 z" fill="#000000"/>
      <path d="M186.527,91.343 L186.145,92.674 L186.914,92.674 L186.83,92.982 L186.067,92.982 L185.226,95.869 Q185.089,96.334 185.089,96.471 Q185.089,96.554 185.128,96.598 Q185.167,96.642 185.221,96.642 Q185.343,96.642 185.544,96.471 Q185.661,96.373 186.067,95.869 L186.229,95.991 Q185.778,96.647 185.377,96.916 Q185.103,97.102 184.824,97.102 Q184.609,97.102 184.472,96.967 Q184.335,96.833 184.335,96.623 Q184.335,96.358 184.492,95.815 L185.309,92.982 L184.57,92.982 L184.619,92.792 Q185.157,92.645 185.514,92.354 Q185.871,92.063 186.312,91.343 z" fill="#000000"/>
      <path d="M187.207,92.831 L188.894,92.557 L188.19,94.935 Q189.046,93.472 189.746,92.89 Q190.142,92.557 190.392,92.557 Q190.553,92.557 190.646,92.652 Q190.739,92.748 190.739,92.929 Q190.739,93.252 190.573,93.545 Q190.455,93.765 190.235,93.765 Q190.122,93.765 190.042,93.692 Q189.961,93.619 189.941,93.467 Q189.932,93.374 189.897,93.345 Q189.858,93.305 189.804,93.305 Q189.721,93.305 189.648,93.345 Q189.521,93.413 189.261,93.726 Q188.855,94.206 188.381,94.969 Q188.175,95.292 188.028,95.698 Q187.823,96.256 187.794,96.368 L187.637,96.985 L186.888,96.985 L187.794,93.946 Q187.95,93.418 187.95,93.193 Q187.95,93.105 187.877,93.046 Q187.779,92.968 187.617,92.968 Q187.515,92.968 187.241,93.012 z" fill="#000000"/>
      <path d="M191.791,95.14 Q191.757,95.385 191.757,95.546 Q191.757,95.982 192.065,96.287 Q192.373,96.593 192.814,96.593 Q193.166,96.593 193.491,96.449 Q193.817,96.305 194.458,95.81 L194.56,95.952 Q193.401,97.102 192.349,97.102 Q191.635,97.102 191.273,96.652 Q190.911,96.202 190.911,95.659 Q190.911,94.93 191.361,94.166 Q191.811,93.403 192.491,92.98 Q193.171,92.557 193.89,92.557 Q194.409,92.557 194.658,92.767 Q194.908,92.978 194.908,93.266 Q194.908,93.672 194.585,94.044 Q194.159,94.529 193.332,94.827 Q192.784,95.028 191.791,95.14 z M191.825,94.9 Q192.55,94.817 193.005,94.617 Q193.606,94.348 193.907,93.973 Q194.208,93.599 194.208,93.261 Q194.208,93.056 194.078,92.929 Q193.949,92.801 193.709,92.801 Q193.21,92.801 192.65,93.332 Q192.09,93.863 191.825,94.9 z" fill="#000000"/>
      <path d="M198.695,92.557 L198.396,94.059 L198.215,94.059 Q198.191,93.403 197.937,93.105 Q197.682,92.806 197.305,92.806 Q197.002,92.806 196.824,92.973 Q196.645,93.139 196.645,93.374 Q196.645,93.535 196.716,93.682 Q196.787,93.829 197.027,94.093 Q197.663,94.788 197.849,95.14 Q198.034,95.492 198.034,95.805 Q198.034,96.314 197.611,96.708 Q197.188,97.102 196.542,97.102 Q196.19,97.102 195.73,96.936 Q195.569,96.877 195.481,96.877 Q195.26,96.877 195.148,97.102 L194.967,97.102 L195.265,95.517 L195.446,95.517 Q195.476,96.261 195.755,96.569 Q196.033,96.877 196.518,96.877 Q196.89,96.877 197.107,96.669 Q197.325,96.461 197.325,96.158 Q197.325,95.962 197.247,95.796 Q197.11,95.502 196.672,94.984 Q196.234,94.465 196.109,94.206 Q195.984,93.946 195.984,93.687 Q195.984,93.212 196.329,92.885 Q196.674,92.557 197.217,92.557 Q197.374,92.557 197.501,92.581 Q197.57,92.596 197.822,92.691 Q198.074,92.787 198.157,92.787 Q198.367,92.787 198.509,92.557 z" fill="#000000"/>
      <path d="M202.609,92.557 L202.311,94.059 L202.13,94.059 Q202.105,93.403 201.851,93.105 Q201.597,92.806 201.22,92.806 Q200.916,92.806 200.738,92.973 Q200.559,93.139 200.559,93.374 Q200.559,93.535 200.63,93.682 Q200.701,93.829 200.941,94.093 Q201.577,94.788 201.763,95.14 Q201.949,95.492 201.949,95.805 Q201.949,96.314 201.526,96.708 Q201.102,97.102 200.457,97.102 Q200.104,97.102 199.644,96.936 Q199.483,96.877 199.395,96.877 Q199.175,96.877 199.062,97.102 L198.881,97.102 L199.18,95.517 L199.361,95.517 Q199.39,96.261 199.669,96.569 Q199.948,96.877 200.432,96.877 Q200.804,96.877 201.022,96.669 Q201.239,96.461 201.239,96.158 Q201.239,95.962 201.161,95.796 Q201.024,95.502 200.586,94.984 Q200.148,94.465 200.024,94.206 Q199.899,93.946 199.899,93.687 Q199.899,93.212 200.244,92.885 Q200.589,92.557 201.132,92.557 Q201.288,92.557 201.416,92.581 Q201.484,92.596 201.736,92.691 Q201.988,92.787 202.071,92.787 Q202.282,92.787 202.423,92.557 z" fill="#000000"/>
      <path d="M204.082,95.14 Q204.048,95.385 204.048,95.546 Q204.048,95.982 204.356,96.287 Q204.665,96.593 205.105,96.593 Q205.457,96.593 205.782,96.449 Q206.108,96.305 206.749,95.81 L206.852,95.952 Q205.692,97.102 204.64,97.102 Q203.926,97.102 203.564,96.652 Q203.202,96.202 203.202,95.659 Q203.202,94.93 203.652,94.166 Q204.102,93.403 204.782,92.98 Q205.462,92.557 206.181,92.557 Q206.7,92.557 206.949,92.767 Q207.199,92.978 207.199,93.266 Q207.199,93.672 206.876,94.044 Q206.45,94.529 205.623,94.827 Q205.076,95.028 204.082,95.14 z M204.117,94.9 Q204.841,94.817 205.296,94.617 Q205.897,94.348 206.198,93.973 Q206.499,93.599 206.499,93.261 Q206.499,93.056 206.37,92.929 Q206.24,92.801 206,92.801 Q205.501,92.801 204.941,93.332 Q204.381,93.863 204.117,94.9 z" fill="#000000"/>
      <path d="M210.986,92.557 L210.688,94.059 L210.507,94.059 Q210.482,93.403 210.228,93.105 Q209.973,92.806 209.597,92.806 Q209.293,92.806 209.115,92.973 Q208.936,93.139 208.936,93.374 Q208.936,93.535 209.007,93.682 Q209.078,93.829 209.318,94.093 Q209.954,94.788 210.14,95.14 Q210.326,95.492 210.326,95.805 Q210.326,96.314 209.902,96.708 Q209.479,97.102 208.833,97.102 Q208.481,97.102 208.021,96.936 Q207.86,96.877 207.772,96.877 Q207.551,96.877 207.439,97.102 L207.258,97.102 L207.556,95.517 L207.737,95.517 Q207.767,96.261 208.046,96.569 Q208.325,96.877 208.809,96.877 Q209.181,96.877 209.398,96.669 Q209.616,96.461 209.616,96.158 Q209.616,95.962 209.538,95.796 Q209.401,95.502 208.963,94.984 Q208.525,94.465 208.4,94.206 Q208.276,93.946 208.276,93.687 Q208.276,93.212 208.621,92.885 Q208.965,92.557 209.509,92.557 Q209.665,92.557 209.792,92.581 Q209.861,92.596 210.113,92.691 Q210.365,92.787 210.448,92.787 Q210.658,92.787 210.8,92.557 z" fill="#000000"/>
      <path d="M32.493,70.605 L237.451,74.505 M32.493,70.605 L164.252,27.405 M116.672,43.125 L237.451,74.505" fill-opacity="0" stroke="#412101" stroke-width="1" stroke-dasharray="4,3" stroke-linejoin="round"/>
      <path d="M105.252,52.525 L103.812,51.445 C103.752,51.385 103.692,51.385 103.632,51.325 L103.092,50.605 L102.492,49.885 L102.012,49.105 L101.532,48.265 L101.172,47.425 L100.932,46.525 L100.692,45.685 L100.572,44.785 L100.512,43.825 L100.572,42.925 L100.692,42.085 L100.872,41.185 L101.112,40.345 L101.472,39.505 L101.892,38.665 L102.372,37.885 L102.912,37.165 L103.512,36.445 L104.172,35.725 L104.952,35.065 L105.732,34.465 L106.572,33.865 L107.412,33.325 L108.372,32.845 L109.332,32.425 L110.172,34.225 L109.272,34.645 L108.492,35.065 L107.652,35.545 L106.932,36.025 L105.612,37.105 L104.532,38.305 L104.052,38.965 L103.332,40.285 L103.032,40.945 L102.792,41.605 L102.552,43.045 L102.492,43.765 L102.552,44.485 L102.792,45.925 L103.032,46.645 L103.332,47.305 L103.692,48.025 L104.112,48.685 L104.592,49.345 L105.192,50.005 L105.012,49.885 L106.452,50.965 z M106.572,48.685 L110.052,54.385 L103.392,53.785" fill="#FF0101"/>
      <path d="M126.372,32.425 L127.332,32.845 L128.292,33.325 L129.192,33.865 L130.032,34.405 L130.872,35.005 L131.592,35.665 L132.312,36.385 L132.912,37.105 L133.512,37.885 L133.992,38.665 L134.412,39.445 L134.772,40.285 L135.072,41.185 L135.312,42.085 L135.432,42.985 L135.492,43.885 L135.432,44.785 L135.312,45.685 L135.132,46.525 L134.532,48.205 L134.112,49.045 L133.632,49.825 L133.092,50.605 L132.492,51.325 C132.432,51.325 132.372,51.385 132.312,51.445 L131.052,52.465 L129.792,50.905 L131.112,49.885 L130.932,50.005 L131.472,49.405 L131.892,48.745 L132.312,48.145 L132.672,47.485 L132.972,46.765 L133.152,46.105 L133.332,45.385 L133.452,44.665 L133.452,43.225 L133.332,42.505 L132.972,41.065 L132.672,40.405 L132.312,39.685 L131.892,39.025 L131.412,38.425 L130.872,37.765 L130.272,37.165 L129.672,36.625 L128.952,36.085 L128.172,35.545 L127.392,35.065 L126.492,34.645 L125.532,34.225 z M132.912,53.605 L126.252,54.385 L129.612,48.625" fill="#FF0101"/>
      <path d="M31.033,70.405 L25.153,51.625 L27.073,51.025 L32.953,69.805 z M23.533,53.185 L24.613,46.585 L29.293,51.385" fill="#FF0101"/>
      <path d="M121.032,61.705 L115.212,42.925 L117.132,42.325 L122.952,61.105 z M124.572,59.545 L123.492,66.145 L118.812,61.345" fill="#FF0101"/>
      <path d="M236.051,73.705 L245.351,47.005 L247.271,47.665 L237.911,74.365 z M243.131,47.305 L247.991,42.625 L248.831,49.285" fill="#FF0101"/>
      <path d="M105.852,68.965 L115.212,42.265 L117.132,42.925 L107.772,69.625 z M109.992,69.325 L105.192,74.005 L104.352,67.345" fill="#FF0101"/>
      <path d="M150.372,34.345 L150.732,34.825 L151.092,35.365 L151.452,35.845 L151.752,36.445 L152.052,36.985 L152.292,37.525 L152.532,38.125 L152.712,38.725 L152.892,39.265 L153.012,39.865 L153.132,41.065 L153.132,42.325 L153.012,43.525 L152.832,44.185 L152.712,44.785 L152.532,45.325 L152.292,45.925 L151.992,46.525 L151.692,47.065 L151.392,47.665 L151.032,48.205 L150.192,49.285 C150.012,49.465 149.832,49.465 149.652,49.345 C149.472,49.165 149.472,48.925 149.592,48.805 L149.652,48.805 L150.012,48.265 L150.372,47.785 L150.732,47.245 L151.032,46.765 L151.332,46.225 L151.812,45.145 L151.992,44.545 L152.232,43.465 L152.352,42.865 L152.352,42.265 L152.412,41.725 L152.352,41.125 L152.352,40.585 L152.112,39.505 L151.992,38.905 L151.632,37.825 L151.392,37.345 L151.092,36.805 L150.852,36.265 L150.492,35.785 L150.132,35.245 L149.772,34.825 C149.652,34.645 149.652,34.405 149.832,34.285 C150.012,34.165 150.252,34.165 150.372,34.345 z M150.612,39.265 L149.592,34.045 L154.692,35.365 C154.932,35.425 155.052,35.665 154.992,35.845 C154.932,36.025 154.752,36.145 154.512,36.085 L149.952,34.945 L150.432,34.465 L151.392,39.085 C151.392,39.325 151.272,39.505 151.092,39.565 C150.852,39.625 150.672,39.445 150.612,39.265 z M154.572,48.325 L149.412,49.525 L150.552,44.365 C150.612,44.125 150.792,44.005 151.032,44.065 C151.212,44.125 151.332,44.305 151.272,44.545 L150.252,49.105 L149.832,48.685 L154.392,47.605 C154.572,47.545 154.812,47.665 154.872,47.845 C154.872,48.085 154.752,48.265 154.572,48.325" fill="#412101"/>
      <path d="M159.945,36.229 L161.124,36.229 Q160.845,36.796 160.657,37.679 Q160.468,38.562 160.468,38.915 Q160.468,39.37 160.64,40.104 Q160.811,40.838 161.07,41.425 L159.915,41.425 Q159.891,41.327 159.827,41.151 Q159.725,40.857 159.651,40.564 Q159.049,41.542 157.934,41.542 Q156.882,41.542 156.278,40.688 Q155.674,39.835 155.674,38.695 Q155.674,37.618 156.275,36.865 Q156.877,36.111 157.949,36.111 Q159.005,36.111 159.656,37.124 Q159.744,36.767 159.945,36.229 z M157.083,38.841 Q157.083,39.561 157.388,40.008 Q157.694,40.456 158.183,40.456 Q158.653,40.456 158.952,40.06 Q159.25,39.663 159.25,38.841 Q159.25,38.034 158.932,37.618 Q158.614,37.202 158.164,37.202 Q157.694,37.202 157.388,37.633 Q157.083,38.063 157.083,38.841 z" fill="#000000"/>
      <text transform="matrix(1, 0, -0, 1, 162.372, 40.925)">
        <tspan x="-0.9" y="2" font-family="Arial-BoldMT" font-size="6.48" kerning="0" fill="#000000">i</tspan>
      </text>
      <text transform="matrix(1, 0, -0, 1, 168.282, 38.425)">
        <tspan x="-5.01" y="3" font-family="Arial-BoldMT" font-size="10.02" kerning="0" fill="#000000"> </tspan>
      </text>
      <text transform="matrix(1, 0, -0, 1, 177.132, 63.925)">
        <tspan x="-3.06" y="3" font-family="Arial-BoldMT" font-size="10.02" kerning="0" fill="#000000">L</tspan>
      </text>
      <text transform="matrix(1, 0, -0, 1, 186.584, 66.425)">
        <tspan x="-6.392" y="2" font-family="Arial-BoldMT" font-size="6.48" kerning="-0.001" fill="#000000">i,i+</tspan>
        <tspan x="2.788" y="2" font-family="Arial-BoldMT" font-size="6.48" kerning="0" fill="#000000">1</tspan>
      </text>
      <text transform="matrix(1, 0, -0, 1, 197.982, 63.925)">
        <tspan x="-5.01" y="3" font-family="Arial-BoldMT" font-size="10.02" kerning="0" fill="#000000"> </tspan>
      </text>
      <text transform="matrix(1, 0, -0, 1, 69.612, 65.665)">
        <tspan x="-3.06" y="3" font-family="Arial-BoldMT" font-size="10.02" kerning="0" fill="#000000">L</tspan>
      </text>
      <text transform="matrix(1, 0, -0, 1, 78.253, 68.165)">
        <tspan x="-5.58" y="2" font-family="Arial-BoldMT" font-size="6.48" kerning="-0.001" fill="#000000">i-1,</tspan>
        <tspan x="3.78" y="2" font-family="Arial-BoldMT" font-size="6.48" kerning="0" fill="#000000">i</tspan>
      </text>
      <text transform="matrix(1, 0, -0, 1, 88.842, 65.665)">
        <tspan x="-5.01" y="3" font-family="Arial-BoldMT" font-size="10.02" kerning="0" fill="#000000"> </tspan>
      </text>
      <text transform="matrix(1, 0, -0, 1, 147.552, 67.405)">
        <tspan x="-3.06" y="3" font-family="Arial-BoldMT" font-size="10.02" kerning="0" fill="#000000">L</tspan>
      </text>
      <text transform="matrix(1, 0, -0, 1, 159.883, 69.905)">
        <tspan x="-9.272" y="2" font-family="Arial-BoldMT" font-size="6.48" kerning="-0.001" fill="#000000">i-1,i+</tspan>
        <tspan x="5.668" y="2" font-family="Arial-BoldMT" font-size="6.48" kerning="0" fill="#000000">1</tspan>
      </text>
      <text transform="matrix(1, 0, -0, 1, 174.162, 67.405)">
        <tspan x="-5.01" y="3" font-family="Arial-BoldMT" font-size="10.02" kerning="0" fill="#000000"> </tspan>
      </text>
      <text transform="matrix(1, 0, -0, 1, 32.353, 46.885)">
        <tspan x="-3.06" y="3" font-family="Arial-BoldMT" font-size="10.02" kerning="0" fill="#FF0000">F</tspan>
      </text>
      <text transform="matrix(1, 0, -0, 1, 40.993, 49.385)">
        <tspan x="-5.58" y="2" font-family="Arial-BoldMT" font-size="6.48" kerning="-0.001" fill="#FF0000">i-1,</tspan>
        <tspan x="3.78" y="2" font-family="Arial-BoldMT" font-size="6.48" kerning="0" fill="#FF0000">i</tspan>
      </text>
      <text transform="matrix(1, 0, -0, 1, 51.583, 46.885)">
        <tspan x="-5.01" y="3" font-family="Arial-BoldMT" font-size="10.02" kerning="0" fill="#000000"> </tspan>
      </text>
      <text transform="matrix(1, 0, -0, 1, 129.192, 59.905)">
        <tspan x="-3.06" y="3" font-family="Arial-BoldMT" font-size="10.02" kerning="0" fill="#FF0000">F</tspan>
      </text>
      <text transform="matrix(1, 0, -0, 1, 137.832, 62.405)">
        <tspan x="-5.58" y="2" font-family="Arial-BoldMT" font-size="6.48" kerning="-0.001" fill="#FF0000">i-1,</tspan>
        <tspan x="3.78" y="2" font-family="Arial-BoldMT" font-size="6.48" kerning="0" fill="#FF0000">i</tspan>
      </text>
      <text transform="matrix(1, 0, -0, 1, 148.422, 59.905)">
        <tspan x="-5.01" y="3" font-family="Arial-BoldMT" font-size="10.02" kerning="0" fill="#000000"> </tspan>
      </text>
      <text transform="matrix(1, 0, -0, 1, 92.113, 58.824)">
        <tspan x="-3.06" y="3" font-family="Arial-BoldMT" font-size="10.02" kerning="0" fill="#FF0000">F</tspan>
      </text>
      <text transform="matrix(1, 0, -0, 1, 101.564, 61.325)">
        <tspan x="-6.392" y="2" font-family="Arial-BoldMT" font-size="6.48" kerning="-0.001" fill="#FF0000">i,i+</tspan>
        <tspan x="2.788" y="2" font-family="Arial-BoldMT" font-size="6.48" kerning="0" fill="#FF0000">1</tspan>
      </text>
      <text transform="matrix(1, 0, -0, 1, 112.962, 58.825)">
        <tspan x="-5.01" y="3" font-family="Arial-BoldMT" font-size="10.02" kerning="0" fill="#000000"> </tspan>
      </text>
      <text transform="matrix(1, 0, -0, 1, 226.092, 40.945)">
        <tspan x="-3.06" y="3" font-family="Arial-BoldMT" font-size="10.02" kerning="0" fill="#FF0000">F</tspan>
      </text>
      <text transform="matrix(1, 0, -0, 1, 235.543, 43.445)">
        <tspan x="-6.392" y="2" font-family="Arial-BoldMT" font-size="6.48" kerning="-0.001" fill="#FF0000">i,i+</tspan>
        <tspan x="2.788" y="2" font-family="Arial-BoldMT" font-size="6.48" kerning="0" fill="#FF0000">1</tspan>
      </text>
      <text transform="matrix(1, 0, -0, 1, 246.941, 40.945)">
        <tspan x="-5.01" y="3" font-family="Arial-BoldMT" font-size="10.02" kerning="0" fill="#000000"> </tspan>
      </text>
      <text transform="matrix(1, 0, -0, 1, 37.418, 60.145)">
        <tspan x="-5.846" y="3" font-family="Arial-BoldMT" font-size="10.02" kerning="-0.001" fill="#000000">i-</tspan>
        <tspan x="0.273" y="3" font-family="Arial-BoldMT" font-size="10.02" kerning="0" fill="#000000">1</tspan>
      </text>
      <text transform="matrix(1, 0, -0, 1, 231.217, 64.465)">
        <tspan x="-7.105" y="3" font-family="Arial-BoldMT" font-size="10.02" kerning="-0.024" fill="#000000">i</tspan>
        <tspan x="-4.345" y="3" font-family="Arial-BoldMT" font-size="10.02" kerning="0.026" fill="#000000">+</tspan>
        <tspan x="1.532" y="3" font-family="Arial-BoldMT" font-size="10.02" kerning="0" fill="#000000">1</tspan>
      </text>
      <text transform="matrix(1, 0, -0, 1, 112.962, 39.125)">
        <tspan x="-1.05" y="2" font-family="Arial-BoldMT" font-size="7.5" kerning="0.016" fill="#000000">i</tspan>
        <tspan x="1.05" y="2" font-family="Arial-BoldMT" font-size="7.5" kerning="0" fill="#000000"> </tspan>
      </text>
      <text transform="matrix(1, 0, -0, 1, 116.206, 29.425)">
        <tspan x="-4.173" y="3" font-family="Arial-BoldMT" font-size="10.02" kerning="0" fill="#FF0000">M</tspan>
      </text>
      <text transform="matrix(1, 0, -0, 1, 121.272, 31.925)">
        <tspan x="-0.9" y="2" font-family="Arial-BoldMT" font-size="6.48" kerning="0" fill="#FF0000">i</tspan>
      </text>
      <text transform="matrix(1, 0, -0, 1, 127.182, 29.425)">
        <tspan x="-5.01" y="3" font-family="Arial-BoldMT" font-size="10.02" kerning="0" fill="#000000"> </tspan>
      </text>
      <path d="M32.973,69.345 C63.152,55.545 93.332,41.685 127.412,42.585 C161.552,43.485 199.592,59.085 237.631,74.685" fill-opacity="0" stroke="#010101" stroke-width="2" stroke-linejoin="round"/>
    </g>
    <g>
      <path d="M74.708,209.362 L73.974,211.867 Q74.722,211.857 74.947,211.808 Q75.314,211.735 75.613,211.498 Q75.911,211.26 76.112,210.84 L76.303,210.84 L75.544,213.457 L75.349,213.457 Q75.397,213.203 75.397,213.051 Q75.397,212.748 75.273,212.567 Q75.148,212.386 74.952,212.32 Q74.757,212.254 73.876,212.234 L73.279,214.304 L73.162,214.719 Q73.137,214.842 73.137,214.959 Q73.137,215.13 73.203,215.228 Q73.269,215.326 73.416,215.382 Q73.563,215.439 73.974,215.444 L73.92,215.625 L70.608,215.625 L70.661,215.444 Q71.141,215.444 71.361,215.265 Q71.581,215.086 71.757,214.485 L72.941,210.424 Q73.127,209.783 73.137,209.602 Q73.127,209.431 72.981,209.311 Q72.834,209.191 72.379,209.171 L72.428,208.99 L77.849,208.99 L77.403,210.742 L77.222,210.742 Q77.193,210.194 77.051,209.927 Q76.909,209.661 76.584,209.511 Q76.259,209.362 75.544,209.362 z" fill="#000000"/>
      <path d="M79.518,208.839 Q79.822,208.839 80.03,209.049 Q80.238,209.259 80.238,209.558 Q80.238,209.856 80.027,210.067 Q79.817,210.277 79.518,210.277 Q79.225,210.277 79.014,210.067 Q78.804,209.856 78.804,209.558 Q78.804,209.259 79.012,209.049 Q79.22,208.839 79.518,208.839 z M79.822,211.089 L78.819,214.568 Q78.736,214.866 78.736,214.959 Q78.736,215.013 78.78,215.06 Q78.824,215.106 78.873,215.106 Q78.956,215.106 79.039,215.033 Q79.259,214.852 79.567,214.377 L79.734,214.475 Q78.995,215.762 78.163,215.762 Q77.845,215.762 77.657,215.583 Q77.468,215.404 77.468,215.13 Q77.468,214.949 77.552,214.671 L78.232,212.332 Q78.33,211.994 78.33,211.823 Q78.33,211.715 78.237,211.632 Q78.144,211.549 77.982,211.549 Q77.909,211.549 77.806,211.554 L77.87,211.358 L79.528,211.089 z" fill="#000000"/>
      <path d="M83.904,211.388 L85.205,211.388 L85.048,211.926 L84.373,211.926 Q84.53,212.214 84.53,212.474 Q84.53,212.919 84.288,213.296 Q84.045,213.672 83.573,213.898 Q83.101,214.123 82.524,214.123 Q82.372,214.123 82.189,214.101 Q82.005,214.079 81.79,214.039 Q81.467,214.206 81.384,214.304 Q81.325,214.372 81.325,214.446 Q81.325,214.534 81.399,214.597 Q81.526,214.71 81.775,214.764 Q82.773,214.979 83.091,215.111 Q83.527,215.292 83.749,215.576 Q83.972,215.859 83.972,216.261 Q83.972,216.872 83.409,217.33 Q82.847,217.787 81.668,217.787 Q80.479,217.787 79.916,217.396 Q79.51,217.112 79.51,216.721 Q79.51,216.422 79.777,216.168 Q80.043,215.913 80.919,215.718 Q80.621,215.551 80.518,215.414 Q80.376,215.228 80.376,215.028 Q80.376,214.7 80.638,214.45 Q80.9,214.201 81.516,213.956 Q81.037,213.765 80.824,213.465 Q80.611,213.164 80.611,212.762 Q80.611,212.337 80.868,211.953 Q81.125,211.569 81.626,211.329 Q82.128,211.089 82.778,211.089 Q83.194,211.089 83.517,211.182 Q83.683,211.231 83.904,211.388 z M82.881,211.329 Q82.641,211.329 82.475,211.486 Q82.211,211.725 82.013,212.288 Q81.814,212.851 81.814,213.354 Q81.814,213.594 81.954,213.734 Q82.093,213.873 82.299,213.873 Q82.499,213.873 82.646,213.736 Q82.925,213.467 83.131,212.877 Q83.336,212.288 83.336,211.808 Q83.336,211.593 83.204,211.461 Q83.072,211.329 82.881,211.329 z M81.193,215.83 Q80.728,216.011 80.56,216.222 Q80.391,216.432 80.391,216.677 Q80.391,216.995 80.726,217.251 Q81.061,217.508 81.795,217.508 Q82.406,217.508 82.68,217.286 Q82.954,217.063 82.954,216.765 Q82.954,216.5 82.702,216.334 Q82.45,216.168 81.736,215.987 Q81.403,215.899 81.193,215.83 z" fill="#000000"/>
      <path d="M87.717,211.089 L86.768,214.416 Q86.7,214.646 86.7,214.734 Q86.7,214.778 86.734,214.803 Q86.773,214.842 86.827,214.842 Q87.052,214.842 87.429,214.441 Q87.967,213.858 88.559,212.767 L89.004,211.27 L90.242,211.226 L89.302,214.455 Q89.185,214.866 89.185,214.925 Q89.185,214.964 89.222,215.006 Q89.258,215.047 89.298,215.047 Q89.366,215.047 89.43,214.989 Q89.606,214.847 89.894,214.416 L90.061,214.534 Q89.381,215.762 88.564,215.762 Q88.26,215.762 88.087,215.607 Q87.913,215.453 87.913,215.204 Q87.913,214.94 88.035,214.534 L88.275,213.707 Q87.639,214.631 87.35,214.954 Q86.91,215.439 86.609,215.6 Q86.308,215.762 86.034,215.762 Q85.775,215.762 85.587,215.571 Q85.398,215.38 85.398,215.086 Q85.398,214.837 85.52,214.416 L86.073,212.459 Q86.21,211.98 86.21,211.813 Q86.21,211.74 86.171,211.684 Q86.132,211.627 86.042,211.596 Q85.951,211.564 85.706,211.564 L85.755,211.378 L87.424,211.089 z" fill="#000000"/>
      <path d="M93.018,211.089 L92.279,213.839 Q93.189,211.828 93.649,211.363 Q93.918,211.089 94.217,211.089 Q94.422,211.089 94.55,211.238 Q94.677,211.388 94.677,211.662 Q94.677,212.136 94.447,212.459 Q94.3,212.665 94.119,212.665 Q93.923,212.665 93.825,212.484 Q93.728,212.303 93.688,212.271 Q93.649,212.239 93.605,212.239 Q93.556,212.239 93.503,212.268 Q93.395,212.327 93.221,212.555 Q93.048,212.782 92.793,213.315 Q92.539,213.849 92.397,214.218 Q92.255,214.587 92.001,215.625 L90.817,215.625 L91.624,212.381 Q91.712,212.019 91.712,211.901 Q91.712,211.769 91.665,211.696 Q91.619,211.622 91.538,211.588 Q91.457,211.554 91.203,211.554 L91.247,211.412 L92.725,211.089 z" fill="#000000"/>
      <path d="M96.127,213.79 Q96.083,214.108 96.083,214.313 Q96.083,214.68 96.296,214.901 Q96.509,215.121 96.866,215.121 Q97.209,215.121 97.554,214.954 Q97.898,214.788 98.353,214.372 L98.5,214.504 Q97.938,215.184 97.404,215.473 Q96.871,215.762 96.225,215.762 Q95.408,215.762 95.095,215.37 Q94.782,214.979 94.782,214.465 Q94.782,213.663 95.249,212.86 Q95.716,212.058 96.521,211.574 Q97.326,211.089 98.138,211.089 Q98.549,211.089 98.76,211.285 Q98.97,211.481 98.97,211.779 Q98.97,212.136 98.764,212.474 Q98.481,212.934 98.05,213.215 Q97.62,213.496 97.086,213.643 Q96.729,213.741 96.127,213.79 z M96.171,213.535 Q96.602,213.472 96.839,213.362 Q97.076,213.252 97.304,213.01 Q97.531,212.767 97.698,212.398 Q97.864,212.029 97.864,211.706 Q97.864,211.569 97.788,211.49 Q97.713,211.412 97.595,211.412 Q97.36,211.412 97.067,211.74 Q96.529,212.337 96.171,213.535 z" fill="#000000"/>
      <path d="M105.05,215.625 L101.527,215.625 L101.527,215.444 Q102.902,214.172 103.846,213.105 Q104.639,212.219 104.842,211.752 Q105.045,211.285 105.045,210.81 Q105.045,210.365 104.764,210.086 Q104.482,209.807 104.061,209.807 Q103.381,209.807 102.897,210.556 L102.716,210.473 Q102.97,209.749 103.376,209.372 Q103.939,208.853 104.697,208.853 Q105.402,208.853 105.864,209.289 Q106.327,209.724 106.327,210.297 Q106.327,210.801 106.102,211.292 Q105.877,211.784 105.172,212.528 Q104.634,213.095 102.99,214.499 L104.267,214.499 Q104.883,214.499 105.13,214.36 Q105.378,214.22 105.593,213.8 L105.823,213.8 z" fill="#000000"/>
      <path d="M108.609,211.099 Q108.942,211.099 109.177,211.336 Q109.411,211.574 109.411,211.906 Q109.411,212.239 109.177,212.474 Q108.942,212.709 108.604,212.709 Q108.271,212.709 108.037,212.474 Q107.802,212.239 107.802,211.906 Q107.802,211.574 108.037,211.336 Q108.271,211.099 108.609,211.099 z M107.719,214.157 Q108.056,214.157 108.291,214.392 Q108.526,214.627 108.526,214.959 Q108.526,215.292 108.289,215.527 Q108.051,215.762 107.719,215.762 Q107.386,215.762 107.151,215.527 Q106.916,215.292 106.916,214.959 Q106.916,214.627 107.151,214.392 Q107.386,214.157 107.719,214.157 z" fill="#000000"/>
      <path d="M112.376,215.776 L112.924,213.315 L113.09,213.315 Q113.056,213.672 113.056,213.907 Q113.056,214.578 113.484,214.998 Q113.912,215.419 114.602,215.419 Q115.243,215.419 115.576,215.025 Q115.909,214.631 115.909,214.118 Q115.909,213.785 115.757,213.511 Q115.527,213.105 114.529,212.082 Q114.045,211.593 113.908,211.353 Q113.682,210.957 113.682,210.522 Q113.682,209.827 114.201,209.333 Q114.72,208.839 115.532,208.839 Q115.806,208.839 116.05,208.892 Q116.202,208.922 116.603,209.088 Q116.887,209.201 116.916,209.21 Q116.985,209.225 117.068,209.225 Q117.21,209.225 117.313,209.152 Q117.415,209.078 117.552,208.839 L117.738,208.839 L117.23,211.04 L117.063,211.04 Q117.083,210.747 117.083,210.566 Q117.083,209.974 116.691,209.597 Q116.3,209.22 115.659,209.22 Q115.15,209.22 114.832,209.519 Q114.514,209.817 114.514,210.209 Q114.514,210.551 114.717,210.862 Q114.92,211.172 115.652,211.874 Q116.383,212.577 116.598,212.97 Q116.814,213.364 116.814,213.809 Q116.814,214.313 116.547,214.786 Q116.28,215.258 115.781,215.517 Q115.282,215.776 114.69,215.776 Q114.397,215.776 114.142,215.722 Q113.888,215.669 113.33,215.458 Q113.139,215.385 113.012,215.385 Q112.724,215.385 112.562,215.776 z" fill="#000000"/>
      <path d="M121.203,214.558 Q120.694,215.17 120.175,215.456 Q119.657,215.742 119.079,215.742 Q118.385,215.742 117.996,215.351 Q117.607,214.959 117.607,214.299 Q117.607,213.55 118.025,212.826 Q118.443,212.102 119.15,211.649 Q119.857,211.197 120.537,211.197 Q121.071,211.197 121.335,211.419 Q121.599,211.642 121.599,211.965 Q121.599,212.268 121.413,212.484 Q121.276,212.65 121.075,212.65 Q120.924,212.65 120.823,212.552 Q120.723,212.454 120.723,212.307 Q120.723,212.214 120.76,212.136 Q120.797,212.058 120.912,211.948 Q121.027,211.838 121.051,211.789 Q121.075,211.74 121.075,211.686 Q121.075,211.583 120.983,211.515 Q120.841,211.417 120.581,211.417 Q120.102,211.417 119.632,211.755 Q119.162,212.092 118.83,212.714 Q118.429,213.467 118.429,214.22 Q118.429,214.719 118.712,215.011 Q118.996,215.302 119.485,215.302 Q119.862,215.302 120.231,215.113 Q120.601,214.925 121.061,214.431 z" fill="#000000"/>
      <path d="M124.655,208.667 L123.28,213.418 Q124.171,212.077 124.67,211.637 Q125.169,211.197 125.624,211.197 Q125.859,211.197 126.015,211.358 Q126.172,211.52 126.172,211.789 Q126.172,212.112 126.035,212.572 L125.438,214.622 Q125.326,214.993 125.326,215.033 Q125.326,215.101 125.367,215.145 Q125.409,215.189 125.463,215.189 Q125.526,215.189 125.609,215.126 Q125.888,214.91 126.162,214.529 L126.314,214.622 Q126.148,214.881 125.852,215.192 Q125.556,215.502 125.343,215.622 Q125.13,215.742 124.964,215.742 Q124.782,215.742 124.668,215.627 Q124.553,215.512 124.553,215.331 Q124.553,215.116 124.724,214.529 L125.286,212.572 Q125.394,212.205 125.394,211.994 Q125.394,211.896 125.333,211.838 Q125.272,211.779 125.174,211.779 Q125.032,211.779 124.851,211.887 Q124.518,212.092 124.083,212.65 Q123.965,212.802 123.3,213.873 Q123.095,214.216 122.962,214.622 L122.649,215.625 L121.915,215.625 L123.525,210.028 L123.696,209.421 Q123.696,209.294 123.591,209.196 Q123.486,209.098 123.334,209.098 Q123.246,209.098 123.065,209.127 L122.962,209.142 L122.962,208.951 z" fill="#000000"/>
      <path d="M127.934,213.78 Q127.899,214.025 127.899,214.186 Q127.899,214.622 128.208,214.927 Q128.516,215.233 128.956,215.233 Q129.308,215.233 129.634,215.089 Q129.959,214.945 130.6,214.45 L130.703,214.592 Q129.543,215.742 128.491,215.742 Q127.777,215.742 127.415,215.292 Q127.053,214.842 127.053,214.299 Q127.053,213.57 127.503,212.806 Q127.953,212.043 128.633,211.62 Q129.313,211.197 130.033,211.197 Q130.551,211.197 130.801,211.407 Q131.05,211.618 131.05,211.906 Q131.05,212.312 130.727,212.684 Q130.302,213.169 129.475,213.467 Q128.927,213.668 127.934,213.78 z M127.968,213.54 Q128.692,213.457 129.147,213.257 Q129.749,212.988 130.05,212.613 Q130.351,212.239 130.351,211.901 Q130.351,211.696 130.221,211.569 Q130.091,211.441 129.852,211.441 Q129.352,211.441 128.792,211.972 Q128.232,212.503 127.968,213.54 z" fill="#000000"/>
      <path d="M133.294,211.197 L132.658,213.403 Q133.084,212.625 133.382,212.234 Q133.847,211.627 134.288,211.353 Q134.547,211.197 134.831,211.197 Q135.075,211.197 135.237,211.353 Q135.398,211.51 135.398,211.755 Q135.398,211.994 135.286,212.381 L134.938,213.624 Q135.736,212.131 136.45,211.53 Q136.846,211.197 137.233,211.197 Q137.458,211.197 137.602,211.351 Q137.747,211.505 137.747,211.828 Q137.747,212.112 137.659,212.43 L137.12,214.333 Q136.944,214.954 136.944,215.023 Q136.944,215.091 136.988,215.14 Q137.018,215.174 137.067,215.174 Q137.115,215.174 137.238,215.082 Q137.517,214.866 137.761,214.514 L137.923,214.617 Q137.8,214.812 137.49,215.155 Q137.179,215.497 136.959,215.62 Q136.739,215.742 136.553,215.742 Q136.382,215.742 136.267,215.625 Q136.152,215.507 136.152,215.336 Q136.152,215.101 136.352,214.392 L136.797,212.821 Q136.949,212.278 136.959,212.219 Q136.974,212.126 136.974,212.038 Q136.974,211.916 136.92,211.848 Q136.861,211.779 136.788,211.779 Q136.582,211.779 136.352,211.989 Q135.677,212.611 135.09,213.731 Q134.703,214.47 134.366,215.625 L133.627,215.625 L134.464,212.665 Q134.601,212.185 134.601,212.024 Q134.601,211.892 134.547,211.828 Q134.493,211.764 134.415,211.764 Q134.253,211.764 134.072,211.882 Q133.779,212.073 133.316,212.699 Q132.854,213.325 132.6,213.898 Q132.477,214.167 132.017,215.625 L131.293,215.625 L132.198,212.454 L132.316,212.043 Q132.35,211.95 132.35,211.906 Q132.35,211.799 132.252,211.713 Q132.154,211.627 132.003,211.627 Q131.939,211.627 131.65,211.686 L131.606,211.505 z" fill="#000000"/>
      <path d="M139.567,213.78 Q139.533,214.025 139.533,214.186 Q139.533,214.622 139.841,214.927 Q140.149,215.233 140.589,215.233 Q140.942,215.233 141.267,215.089 Q141.592,214.945 142.233,214.45 L142.336,214.592 Q141.177,215.742 140.125,215.742 Q139.41,215.742 139.048,215.292 Q138.686,214.842 138.686,214.299 Q138.686,213.57 139.136,212.806 Q139.587,212.043 140.267,211.62 Q140.947,211.197 141.666,211.197 Q142.184,211.197 142.434,211.407 Q142.684,211.618 142.684,211.906 Q142.684,212.312 142.361,212.684 Q141.935,213.169 141.108,213.467 Q140.56,213.668 139.567,213.78 z M139.601,213.54 Q140.325,213.457 140.78,213.257 Q141.382,212.988 141.683,212.613 Q141.984,212.239 141.984,211.901 Q141.984,211.696 141.854,211.569 Q141.725,211.441 141.485,211.441 Q140.986,211.441 140.426,211.972 Q139.865,212.503 139.601,213.54 z" fill="#000000"/>
      <path d="M149.929,212.728 Q149.929,213.462 149.54,214.181 Q149.151,214.901 148.456,215.321 Q147.761,215.742 147.106,215.742 Q146.435,215.742 146.012,215.314 Q145.589,214.886 145.589,214.206 Q145.589,213.487 146.002,212.762 Q146.416,212.038 147.108,211.618 Q147.8,211.197 148.446,211.197 Q149.092,211.197 149.51,211.622 Q149.929,212.048 149.929,212.728 z M149.117,212.391 Q149.117,211.936 148.894,211.693 Q148.671,211.451 148.319,211.451 Q147.6,211.451 146.996,212.481 Q146.391,213.511 146.391,214.529 Q146.391,214.993 146.626,215.245 Q146.861,215.497 147.218,215.497 Q147.908,215.497 148.512,214.472 Q149.117,213.447 149.117,212.391 z" fill="#000000"/>
      <path d="M153.29,211.314 L153.202,211.637 L152.488,211.637 L151.95,213.775 Q151.592,215.189 151.23,215.962 Q150.717,217.053 150.125,217.469 Q149.675,217.787 149.224,217.787 Q148.931,217.787 148.725,217.611 Q148.574,217.489 148.574,217.293 Q148.574,217.136 148.699,217.021 Q148.823,216.906 149.004,216.906 Q149.136,216.906 149.227,216.99 Q149.317,217.073 149.317,217.18 Q149.317,217.288 149.215,217.381 Q149.136,217.45 149.136,217.484 Q149.136,217.528 149.171,217.552 Q149.215,217.587 149.308,217.587 Q149.518,217.587 149.75,217.454 Q149.983,217.322 150.164,217.061 Q150.345,216.799 150.506,216.305 Q150.575,216.099 150.873,214.949 L151.725,211.637 L150.873,211.637 L150.942,211.314 Q151.348,211.314 151.509,211.258 Q151.671,211.202 151.805,211.043 Q151.94,210.884 152.155,210.448 Q152.444,209.861 152.708,209.538 Q153.07,209.103 153.469,208.885 Q153.868,208.667 154.22,208.667 Q154.592,208.667 154.817,208.856 Q155.042,209.044 155.042,209.264 Q155.042,209.436 154.929,209.553 Q154.817,209.67 154.641,209.67 Q154.489,209.67 154.393,209.582 Q154.298,209.494 154.298,209.372 Q154.298,209.294 154.362,209.179 Q154.425,209.064 154.425,209.025 Q154.425,208.956 154.381,208.922 Q154.318,208.873 154.195,208.873 Q153.887,208.873 153.642,209.069 Q153.315,209.328 153.055,209.881 Q152.923,210.169 152.571,211.314 z" fill="#000000"/>
      <path d="M158.202,209.983 L157.82,211.314 L158.589,211.314 L158.505,211.622 L157.742,211.622 L156.901,214.509 Q156.764,214.974 156.764,215.111 Q156.764,215.194 156.803,215.238 Q156.842,215.282 156.896,215.282 Q157.018,215.282 157.219,215.111 Q157.336,215.013 157.742,214.509 L157.904,214.631 Q157.454,215.287 157.052,215.556 Q156.778,215.742 156.499,215.742 Q156.284,215.742 156.147,215.607 Q156.01,215.473 156.01,215.263 Q156.01,214.998 156.167,214.455 L156.984,211.622 L156.245,211.622 L156.294,211.432 Q156.832,211.285 157.189,210.994 Q157.546,210.703 157.987,209.983 z" fill="#000000"/>
      <path d="M161.298,208.667 L159.924,213.418 Q160.814,212.077 161.313,211.637 Q161.812,211.197 162.267,211.197 Q162.502,211.197 162.659,211.358 Q162.815,211.52 162.815,211.789 Q162.815,212.112 162.678,212.572 L162.081,214.622 Q161.969,214.993 161.969,215.033 Q161.969,215.101 162.01,215.145 Q162.052,215.189 162.106,215.189 Q162.169,215.189 162.253,215.126 Q162.531,214.91 162.805,214.529 L162.957,214.622 Q162.791,214.881 162.495,215.192 Q162.199,215.502 161.986,215.622 Q161.773,215.742 161.607,215.742 Q161.426,215.742 161.311,215.627 Q161.196,215.512 161.196,215.331 Q161.196,215.116 161.367,214.529 L161.93,212.572 Q162.037,212.205 162.037,211.994 Q162.037,211.896 161.976,211.838 Q161.915,211.779 161.817,211.779 Q161.675,211.779 161.494,211.887 Q161.161,212.092 160.726,212.65 Q160.609,212.802 159.943,213.873 Q159.738,214.216 159.606,214.622 L159.293,215.625 L158.559,215.625 L160.168,210.028 L160.34,209.421 Q160.34,209.294 160.234,209.196 Q160.129,209.098 159.977,209.098 Q159.889,209.098 159.708,209.127 L159.606,209.142 L159.606,208.951 z" fill="#000000"/>
      <path d="M164.597,213.78 Q164.563,214.025 164.563,214.186 Q164.563,214.622 164.871,214.927 Q165.179,215.233 165.619,215.233 Q165.972,215.233 166.297,215.089 Q166.622,214.945 167.263,214.45 L167.366,214.592 Q166.207,215.742 165.155,215.742 Q164.44,215.742 164.078,215.292 Q163.716,214.842 163.716,214.299 Q163.716,213.57 164.166,212.806 Q164.616,212.043 165.297,211.62 Q165.977,211.197 166.696,211.197 Q167.214,211.197 167.464,211.407 Q167.713,211.618 167.713,211.906 Q167.713,212.312 167.391,212.684 Q166.965,213.169 166.138,213.467 Q165.59,213.668 164.597,213.78 z M164.631,213.54 Q165.355,213.457 165.81,213.257 Q166.412,212.988 166.713,212.613 Q167.014,212.239 167.014,211.901 Q167.014,211.696 166.884,211.569 Q166.755,211.441 166.515,211.441 Q166.016,211.441 165.456,211.972 Q164.895,212.503 164.631,213.54 z" fill="#000000"/>
      <path d="M175.027,211.197 L174.073,214.514 L173.965,214.959 Q173.951,215.023 173.951,215.067 Q173.951,215.145 174,215.204 Q174.039,215.248 174.098,215.248 Q174.161,215.248 174.264,215.17 Q174.455,215.028 174.773,214.583 L174.939,214.7 Q174.601,215.209 174.244,215.475 Q173.887,215.742 173.584,215.742 Q173.373,215.742 173.268,215.637 Q173.163,215.532 173.163,215.331 Q173.163,215.091 173.271,214.7 L173.373,214.333 Q172.732,215.17 172.194,215.502 Q171.808,215.742 171.436,215.742 Q171.079,215.742 170.82,215.446 Q170.56,215.15 170.56,214.631 Q170.56,213.854 171.027,212.99 Q171.495,212.126 172.214,211.608 Q172.777,211.197 173.276,211.197 Q173.574,211.197 173.772,211.353 Q173.97,211.51 174.073,211.872 L174.249,211.314 z M173.285,211.451 Q172.972,211.451 172.62,211.745 Q172.121,212.161 171.732,212.978 Q171.343,213.795 171.343,214.455 Q171.343,214.788 171.509,214.981 Q171.676,215.174 171.891,215.174 Q172.424,215.174 173.051,214.387 Q173.887,213.34 173.887,212.239 Q173.887,211.823 173.726,211.637 Q173.564,211.451 173.285,211.451 z" fill="#000000"/>
      <path d="M177.087,211.197 Q177.327,211.451 177.449,211.706 Q177.537,211.882 177.738,212.63 L178.168,211.985 Q178.34,211.75 178.584,211.537 Q178.829,211.324 179.015,211.246 Q179.132,211.197 179.274,211.197 Q179.485,211.197 179.609,211.309 Q179.734,211.422 179.734,211.583 Q179.734,211.769 179.661,211.838 Q179.524,211.96 179.348,211.96 Q179.245,211.96 179.127,211.916 Q178.897,211.838 178.819,211.838 Q178.702,211.838 178.54,211.975 Q178.237,212.229 177.816,212.958 L178.217,214.641 Q178.31,215.028 178.374,215.104 Q178.438,215.179 178.501,215.179 Q178.604,215.179 178.741,215.067 Q179.01,214.842 179.201,214.48 L179.372,214.568 Q179.064,215.145 178.589,215.527 Q178.32,215.742 178.134,215.742 Q177.86,215.742 177.699,215.434 Q177.596,215.243 177.273,213.79 Q176.51,215.116 176.05,215.497 Q175.752,215.742 175.473,215.742 Q175.277,215.742 175.116,215.6 Q174.998,215.493 174.998,215.311 Q174.998,215.15 175.106,215.042 Q175.213,214.935 175.37,214.935 Q175.526,214.935 175.703,215.091 Q175.83,215.204 175.898,215.204 Q175.957,215.204 176.05,215.126 Q176.28,214.94 176.676,214.323 Q177.073,213.707 177.195,213.433 Q176.892,212.244 176.867,212.175 Q176.755,211.857 176.574,211.725 Q176.392,211.593 176.04,211.593 Q175.928,211.593 175.781,211.603 L175.781,211.427 z" fill="#000000"/>
      <path d="M182.054,209.254 Q182.259,209.254 182.401,209.396 Q182.543,209.538 182.543,209.744 Q182.543,209.944 182.398,210.089 Q182.254,210.233 182.054,210.233 Q181.853,210.233 181.709,210.089 Q181.564,209.944 181.564,209.744 Q181.564,209.538 181.706,209.396 Q181.848,209.254 182.054,209.254 z M182.117,211.197 L181.148,214.627 Q181.051,214.974 181.051,215.042 Q181.051,215.121 181.097,215.17 Q181.143,215.219 181.207,215.219 Q181.28,215.219 181.383,215.14 Q181.662,214.92 181.946,214.514 L182.117,214.627 Q181.784,215.135 181.334,215.483 Q181.002,215.742 180.698,215.742 Q180.498,215.742 180.37,215.622 Q180.243,215.502 180.243,215.321 Q180.243,215.14 180.366,214.719 L181.002,212.528 Q181.158,211.989 181.158,211.852 Q181.158,211.745 181.082,211.676 Q181.007,211.608 180.874,211.608 Q180.767,211.608 180.429,211.662 L180.429,211.471 z" fill="#000000"/>
      <path d="M187.213,211.197 L186.259,214.514 L186.151,214.959 Q186.137,215.023 186.137,215.067 Q186.137,215.145 186.186,215.204 Q186.225,215.248 186.284,215.248 Q186.347,215.248 186.45,215.17 Q186.641,215.028 186.959,214.583 L187.125,214.7 Q186.787,215.209 186.43,215.475 Q186.073,215.742 185.77,215.742 Q185.559,215.742 185.454,215.637 Q185.349,215.532 185.349,215.331 Q185.349,215.091 185.457,214.7 L185.559,214.333 Q184.919,215.17 184.38,215.502 Q183.994,215.742 183.622,215.742 Q183.265,215.742 183.006,215.446 Q182.746,215.15 182.746,214.631 Q182.746,213.854 183.213,212.99 Q183.681,212.126 184.4,211.608 Q184.963,211.197 185.462,211.197 Q185.76,211.197 185.958,211.353 Q186.156,211.51 186.259,211.872 L186.435,211.314 z M185.471,211.451 Q185.158,211.451 184.806,211.745 Q184.307,212.161 183.918,212.978 Q183.529,213.795 183.529,214.455 Q183.529,214.788 183.695,214.981 Q183.862,215.174 184.077,215.174 Q184.61,215.174 185.237,214.387 Q186.073,213.34 186.073,212.239 Q186.073,211.823 185.912,211.637 Q185.75,211.451 185.471,211.451 z" fill="#000000"/>
      <path d="M190.536,208.667 L188.863,214.49 Q188.74,214.925 188.74,215.023 Q188.74,215.096 188.787,215.145 Q188.833,215.194 188.902,215.194 Q188.995,215.194 189.102,215.111 Q189.357,214.91 189.636,214.49 L189.783,214.641 Q189.318,215.297 188.926,215.556 Q188.638,215.742 188.378,215.742 Q188.192,215.742 188.068,215.615 Q187.943,215.488 187.943,215.321 Q187.943,215.145 188.1,214.597 L189.425,210.008 Q189.587,209.445 189.587,209.362 Q189.587,209.245 189.494,209.169 Q189.401,209.093 189.205,209.093 Q189.093,209.093 188.863,209.127 L188.863,208.946 z" fill="#000000"/>
      <path d="M196.47,211.197 L196.172,212.699 L195.991,212.699 Q195.967,212.043 195.712,211.745 Q195.458,211.446 195.081,211.446 Q194.778,211.446 194.599,211.613 Q194.42,211.779 194.42,212.014 Q194.42,212.175 194.491,212.322 Q194.562,212.469 194.802,212.733 Q195.438,213.428 195.624,213.78 Q195.81,214.132 195.81,214.446 Q195.81,214.954 195.387,215.348 Q194.964,215.742 194.318,215.742 Q193.965,215.742 193.506,215.576 Q193.344,215.517 193.256,215.517 Q193.036,215.517 192.923,215.742 L192.742,215.742 L193.041,214.157 L193.222,214.157 Q193.251,214.901 193.53,215.209 Q193.809,215.517 194.293,215.517 Q194.665,215.517 194.883,215.309 Q195.101,215.101 195.101,214.798 Q195.101,214.602 195.022,214.436 Q194.885,214.142 194.447,213.624 Q194.009,213.105 193.885,212.846 Q193.76,212.586 193.76,212.327 Q193.76,211.852 194.105,211.525 Q194.45,211.197 194.993,211.197 Q195.149,211.197 195.277,211.221 Q195.345,211.236 195.597,211.331 Q195.849,211.427 195.932,211.427 Q196.143,211.427 196.285,211.197 z" fill="#000000"/>
      <path d="M199.353,209.983 L198.971,211.314 L199.739,211.314 L199.656,211.622 L198.893,211.622 L198.051,214.509 Q197.914,214.974 197.914,215.111 Q197.914,215.194 197.953,215.238 Q197.992,215.282 198.046,215.282 Q198.169,215.282 198.369,215.111 Q198.487,215.013 198.893,214.509 L199.054,214.631 Q198.604,215.287 198.203,215.556 Q197.929,215.742 197.65,215.742 Q197.435,215.742 197.298,215.607 Q197.161,215.473 197.161,215.263 Q197.161,214.998 197.317,214.455 L198.134,211.622 L197.395,211.622 L197.444,211.432 Q197.983,211.285 198.34,210.994 Q198.697,210.703 199.137,209.983 z" fill="#000000"/>
      <path d="M200.032,211.471 L201.72,211.197 L201.015,213.575 Q201.872,212.112 202.571,211.53 Q202.968,211.197 203.217,211.197 Q203.378,211.197 203.471,211.292 Q203.564,211.388 203.564,211.569 Q203.564,211.892 203.398,212.185 Q203.281,212.405 203.06,212.405 Q202.948,212.405 202.867,212.332 Q202.786,212.259 202.767,212.107 Q202.757,212.014 202.723,211.985 Q202.684,211.945 202.63,211.945 Q202.547,211.945 202.473,211.985 Q202.346,212.053 202.087,212.366 Q201.681,212.846 201.206,213.609 Q201.001,213.932 200.854,214.338 Q200.648,214.896 200.619,215.008 L200.463,215.625 L199.714,215.625 L200.619,212.586 Q200.776,212.058 200.776,211.833 Q200.776,211.745 200.702,211.686 Q200.604,211.608 200.443,211.608 Q200.34,211.608 200.066,211.652 z" fill="#000000"/>
      <path d="M204.617,213.78 Q204.582,214.025 204.582,214.186 Q204.582,214.622 204.891,214.927 Q205.199,215.233 205.639,215.233 Q205.991,215.233 206.317,215.089 Q206.642,214.945 207.283,214.45 L207.386,214.592 Q206.226,215.742 205.174,215.742 Q204.46,215.742 204.098,215.292 Q203.736,214.842 203.736,214.299 Q203.736,213.57 204.186,212.806 Q204.636,212.043 205.316,211.62 Q205.996,211.197 206.716,211.197 Q207.234,211.197 207.484,211.407 Q207.733,211.618 207.733,211.906 Q207.733,212.312 207.41,212.684 Q206.985,213.169 206.158,213.467 Q205.61,213.668 204.617,213.78 z M204.651,213.54 Q205.375,213.457 205.83,213.257 Q206.432,212.988 206.733,212.613 Q207.034,212.239 207.034,211.901 Q207.034,211.696 206.904,211.569 Q206.774,211.441 206.535,211.441 Q206.035,211.441 205.475,211.972 Q204.915,212.503 204.651,213.54 z" fill="#000000"/>
      <path d="M211.52,211.197 L211.222,212.699 L211.041,212.699 Q211.016,212.043 210.762,211.745 Q210.508,211.446 210.131,211.446 Q209.828,211.446 209.649,211.613 Q209.47,211.779 209.47,212.014 Q209.47,212.175 209.541,212.322 Q209.612,212.469 209.852,212.733 Q210.488,213.428 210.674,213.78 Q210.86,214.132 210.86,214.446 Q210.86,214.954 210.437,215.348 Q210.013,215.742 209.368,215.742 Q209.015,215.742 208.556,215.576 Q208.394,215.517 208.306,215.517 Q208.086,215.517 207.973,215.742 L207.792,215.742 L208.091,214.157 L208.272,214.157 Q208.301,214.901 208.58,215.209 Q208.859,215.517 209.343,215.517 Q209.715,215.517 209.933,215.309 Q210.15,215.101 210.15,214.798 Q210.15,214.602 210.072,214.436 Q209.935,214.142 209.497,213.624 Q209.059,213.105 208.935,212.846 Q208.81,212.586 208.81,212.327 Q208.81,211.852 209.155,211.525 Q209.5,211.197 210.043,211.197 Q210.199,211.197 210.327,211.221 Q210.395,211.236 210.647,211.331 Q210.899,211.427 210.982,211.427 Q211.193,211.427 211.334,211.197 z" fill="#000000"/>
      <path d="M215.435,211.197 L215.136,212.699 L214.955,212.699 Q214.931,212.043 214.676,211.745 Q214.422,211.446 214.045,211.446 Q213.742,211.446 213.563,211.613 Q213.385,211.779 213.385,212.014 Q213.385,212.175 213.456,212.322 Q213.527,212.469 213.766,212.733 Q214.402,213.428 214.588,213.78 Q214.774,214.132 214.774,214.446 Q214.774,214.954 214.351,215.348 Q213.928,215.742 213.282,215.742 Q212.93,215.742 212.47,215.576 Q212.308,215.517 212.22,215.517 Q212,215.517 211.888,215.742 L211.707,215.742 L212.005,214.157 L212.186,214.157 Q212.215,214.901 212.494,215.209 Q212.773,215.517 213.258,215.517 Q213.629,215.517 213.847,215.309 Q214.065,215.101 214.065,214.798 Q214.065,214.602 213.987,214.436 Q213.85,214.142 213.412,213.624 Q212.974,213.105 212.849,212.846 Q212.724,212.586 212.724,212.327 Q212.724,211.852 213.069,211.525 Q213.414,211.197 213.957,211.197 Q214.114,211.197 214.241,211.221 Q214.309,211.236 214.561,211.331 Q214.813,211.427 214.897,211.427 Q215.107,211.427 215.249,211.197 z" fill="#000000"/>
      <path d="M216.908,213.78 Q216.874,214.025 216.874,214.186 Q216.874,214.622 217.182,214.927 Q217.49,215.233 217.93,215.233 Q218.283,215.233 218.608,215.089 Q218.933,214.945 219.574,214.45 L219.677,214.592 Q218.517,215.742 217.466,215.742 Q216.751,215.742 216.389,215.292 Q216.027,214.842 216.027,214.299 Q216.027,213.57 216.477,212.806 Q216.927,212.043 217.607,211.62 Q218.287,211.197 219.007,211.197 Q219.525,211.197 219.775,211.407 Q220.024,211.618 220.024,211.906 Q220.024,212.312 219.701,212.684 Q219.276,213.169 218.449,213.467 Q217.901,213.668 216.908,213.78 z M216.942,213.54 Q217.666,213.457 218.121,213.257 Q218.723,212.988 219.024,212.613 Q219.325,212.239 219.325,211.901 Q219.325,211.696 219.195,211.569 Q219.065,211.441 218.826,211.441 Q218.327,211.441 217.766,211.972 Q217.206,212.503 216.942,213.54 z" fill="#000000"/>
      <path d="M223.812,211.197 L223.513,212.699 L223.332,212.699 Q223.308,212.043 223.053,211.745 Q222.799,211.446 222.422,211.446 Q222.119,211.446 221.94,211.613 Q221.762,211.779 221.762,212.014 Q221.762,212.175 221.833,212.322 Q221.903,212.469 222.143,212.733 Q222.779,213.428 222.965,213.78 Q223.151,214.132 223.151,214.446 Q223.151,214.954 222.728,215.348 Q222.305,215.742 221.659,215.742 Q221.307,215.742 220.847,215.576 Q220.685,215.517 220.597,215.517 Q220.377,215.517 220.264,215.742 L220.083,215.742 L220.382,214.157 L220.563,214.157 Q220.592,214.901 220.871,215.209 Q221.15,215.517 221.634,215.517 Q222.006,215.517 222.224,215.309 Q222.442,215.101 222.442,214.798 Q222.442,214.602 222.363,214.436 Q222.226,214.142 221.788,213.624 Q221.351,213.105 221.226,212.846 Q221.101,212.586 221.101,212.327 Q221.101,211.852 221.446,211.525 Q221.791,211.197 222.334,211.197 Q222.491,211.197 222.618,211.221 Q222.686,211.236 222.938,211.331 Q223.19,211.427 223.273,211.427 Q223.484,211.427 223.626,211.197 z" fill="#000000"/>
      <path d="M33.908,183.545 L249.307,188.765 M33.908,183.545 L172.447,125.885 M122.407,146.885 L249.307,188.765" fill-opacity="0" stroke="#412101" stroke-width="1" stroke-dasharray="4,3" stroke-linejoin="round"/>
      <path d="M33.108,182.145 L52.488,174.705 L53.148,176.565 L33.768,184.005 z M50.808,173.205 L57.468,173.865 L52.968,178.785" fill="#FF0101"/>
      <path d="M149.927,156.825 L121.607,147.285 L122.267,145.425 L150.587,154.905 z M150.227,152.685 L154.967,157.485 L148.367,158.385" fill="#FF0101"/>
      <path d="M248.507,189.225 L218.027,179.505 L218.627,177.645 L249.167,187.305 z M218.387,181.725 L213.587,177.045 L220.187,176.025" fill="#FF0101"/>
      <path d="M95.748,157.725 L121.487,145.485 L122.387,147.285 L96.588,159.525 z M98.328,160.905 L91.608,160.785 L95.748,155.505" fill="#FF0101"/>
      <text transform="matrix(1, 0, -0, 1, 169.667, 168.585)">
        <tspan x="-3.06" y="3" font-family="Arial-BoldMT" font-size="10.02" kerning="0" fill="#000000">L</tspan>
      </text>
      <text transform="matrix(1, 0, -0, 1, 179.118, 171.085)">
        <tspan x="-6.391" y="2" font-family="Arial-BoldMT" font-size="6.48" kerning="-0.002" fill="#000000">i,i+</tspan>
        <tspan x="2.787" y="2" font-family="Arial-BoldMT" font-size="6.48" kerning="0" fill="#000000">1</tspan>
      </text>
      <text transform="matrix(1, 0, -0, 1, 190.517, 168.585)">
        <tspan x="-5.01" y="3" font-family="Arial-BoldMT" font-size="10.02" kerning="0" fill="#000000"> </tspan>
      </text>
      <text transform="matrix(1, 0, -0, 1, 82.068, 169.785)">
        <tspan x="-3.06" y="3" font-family="Arial-BoldMT" font-size="10.02" kerning="0" fill="#000000">L</tspan>
      </text>
      <text transform="matrix(1, 0, -0, 1, 90.708, 172.285)">
        <tspan x="-5.58" y="2" font-family="Arial-BoldMT" font-size="6.48" kerning="-0.001" fill="#000000">i-1,</tspan>
        <tspan x="3.78" y="2" font-family="Arial-BoldMT" font-size="6.48" kerning="0" fill="#000000">i</tspan>
      </text>
      <text transform="matrix(1, 0, -0, 1, 101.297, 169.785)">
        <tspan x="-5.01" y="3" font-family="Arial-BoldMT" font-size="10.02" kerning="0" fill="#000000"> </tspan>
      </text>
      <text transform="matrix(1, 0, -0, 1, 135.348, 159.644)">
        <tspan x="-3.06" y="3" font-family="Arial-BoldMT" font-size="10.02" kerning="0" fill="#FF0000">T</tspan>
      </text>
      <text transform="matrix(1, 0, -0, 1, 144.798, 162.145)">
        <tspan x="-6.391" y="2" font-family="Arial-BoldMT" font-size="6.48" kerning="-0.002" fill="#FF0000">i,i+</tspan>
        <tspan x="2.787" y="2" font-family="Arial-BoldMT" font-size="6.48" kerning="0" fill="#FF0000">1</tspan>
      </text>
      <text transform="matrix(1, 0, -0, 1, 156.197, 159.645)">
        <tspan x="-5.01" y="3" font-family="Arial-BoldMT" font-size="10.02" kerning="0" fill="#000000"> </tspan>
      </text>
      <text transform="matrix(1, 0, -0, 1, 107.147, 160.964)">
        <tspan x="-4.74" y="3" font-family="Arial-BoldMT" font-size="10.02" kerning="0.023" fill="#FF0000">-</tspan>
        <tspan x="-1.38" y="3" font-family="Arial-BoldMT" font-size="10.02" kerning="0" fill="#FF0000">T</tspan>
      </text>
      <text transform="matrix(1, 0, -0, 1, 117.468, 163.465)">
        <tspan x="-5.58" y="2" font-family="Arial-BoldMT" font-size="6.48" kerning="-0.001" fill="#FF0000">i-1,</tspan>
        <tspan x="3.78" y="2" font-family="Arial-BoldMT" font-size="6.48" kerning="0" fill="#FF0000">i</tspan>
      </text>
      <text transform="matrix(1, 0, -0, 1, 128.057, 160.965)">
        <tspan x="-5.01" y="3" font-family="Arial-BoldMT" font-size="10.02" kerning="0" fill="#000000"> </tspan>
      </text>
      <text transform="matrix(1, 0, -0, 1, 199.608, 182.864)">
        <tspan x="-4.74" y="3" font-family="Arial-BoldMT" font-size="10.02" kerning="0.023" fill="#FF0000">-</tspan>
        <tspan x="-1.38" y="3" font-family="Arial-BoldMT" font-size="10.02" kerning="0" fill="#FF0000">T</tspan>
      </text>
      <text transform="matrix(1, 0, -0, 1, 210.738, 185.365)">
        <tspan x="-6.391" y="2" font-family="Arial-BoldMT" font-size="6.48" kerning="-0.002" fill="#FF0000">i,i+</tspan>
        <tspan x="2.787" y="2" font-family="Arial-BoldMT" font-size="6.48" kerning="0" fill="#FF0000">1</tspan>
      </text>
      <text transform="matrix(1, 0, -0, 1, 222.137, 182.865)">
        <tspan x="-5.01" y="3" font-family="Arial-BoldMT" font-size="10.02" kerning="0" fill="#000000"> </tspan>
      </text>
      <text transform="matrix(1, 0, -0, 1, 243.252, 174.465)">
        <tspan x="-7.105" y="3" font-family="Arial-BoldMT" font-size="10.02" kerning="-0.024" fill="#000000">i</tspan>
        <tspan x="-4.345" y="3" font-family="Arial-BoldMT" font-size="10.02" kerning="0.026" fill="#000000">+</tspan>
        <tspan x="1.532" y="3" font-family="Arial-BoldMT" font-size="10.02" kerning="0" fill="#000000">1</tspan>
      </text>
      <text transform="matrix(1, 0, -0, 1, 118.847, 140.925)">
        <tspan x="-1.38" y="3" font-family="Arial-BoldMT" font-size="10.02" kerning="-0.024" fill="#000000">i</tspan>
        <tspan x="1.38" y="3" font-family="Arial-BoldMT" font-size="10.02" kerning="0" fill="#000000"> </tspan>
      </text>
      <path d="M34.508,181.805 C66.248,163.385 97.928,144.965 133.747,146.165 C169.567,147.365 209.527,168.125 249.487,188.885" fill-opacity="0" stroke="#010101" stroke-width="2" stroke-linejoin="round"/>
      <text transform="matrix(1, 0, -0, 1, 66.239, 147.585)">
        <tspan x="-6.672" y="3" font-family="Arial-BoldMT" font-size="10.02" kerning="-0.023" fill="#000000">E</tspan>
        <tspan x="-0.011" y="3" font-family="Arial-BoldMT" font-size="10.02" kerning="0" fill="#000000">S</tspan>
      </text>
      <text transform="matrix(1, 0, -0, 1, 78.468, 150.085)">
        <tspan x="-5.58" y="2" font-family="Arial-BoldMT" font-size="6.48" kerning="-0.001" fill="#000000">i-1,</tspan>
        <tspan x="3.78" y="2" font-family="Arial-BoldMT" font-size="6.48" kerning="0" fill="#000000">i</tspan>
      </text>
      <text transform="matrix(1, 0, -0, 1, 89.058, 147.585)">
        <tspan x="-5.01" y="3" font-family="Arial-BoldMT" font-size="10.02" kerning="0" fill="#000000"> </tspan>
      </text>
      <text transform="matrix(1, 0, -0, 1, 186.718, 150.404)">
        <tspan x="-6.672" y="3" font-family="Arial-BoldMT" font-size="10.02" kerning="-0.023" fill="#000000">E</tspan>
        <tspan x="-0.011" y="3" font-family="Arial-BoldMT" font-size="10.02" kerning="0" fill="#000000">S</tspan>
      </text>
      <text transform="matrix(1, 0, -0, 1, 199.758, 152.905)">
        <tspan x="-6.391" y="2" font-family="Arial-BoldMT" font-size="6.48" kerning="-0.002" fill="#000000">i,i+</tspan>
        <tspan x="2.787" y="2" font-family="Arial-BoldMT" font-size="6.48" kerning="0" fill="#000000">1</tspan>
      </text>
      <text transform="matrix(1, 0, -0, 1, 211.157, 150.405)">
        <tspan x="-5.01" y="3" font-family="Arial-BoldMT" font-size="10.02" kerning="0" fill="#000000"> </tspan>
      </text>
      <text transform="matrix(1, 0, -0, 1, 61.548, 179.205)">
        <tspan x="-3.06" y="3" font-family="Arial-BoldMT" font-size="10.02" kerning="0" fill="#FF0000">T</tspan>
      </text>
      <text transform="matrix(1, 0, -0, 1, 70.188, 181.705)">
        <tspan x="-5.58" y="2" font-family="Arial-BoldMT" font-size="6.48" kerning="-0.001" fill="#FF0000">i-1,</tspan>
        <tspan x="3.78" y="2" font-family="Arial-BoldMT" font-size="6.48" kerning="0" fill="#FF0000">i</tspan>
      </text>
      <text transform="matrix(1, 0, -0, 1, 80.778, 179.205)">
        <tspan x="-5.01" y="3" font-family="Arial-BoldMT" font-size="10.02" kerning="0" fill="#000000"> </tspan>
      </text>
      <path d="M127.807,143.885 L172.807,125.885" fill-opacity="0" stroke="#FFFFFF" stroke-width="3" stroke-linejoin="round"/>
      <text transform="matrix(1, 0, -0, 1, 41.419, 166.125)">
        <tspan x="-5.851" y="3" font-family="Arial-BoldMT" font-size="10.02" kerning="0.003" fill="#000000">i-1</tspan>
        <tspan x="5.851" y="3" font-family="Arial-BoldMT" font-size="10.02" kerning="0" fill="#000000"> </tspan>
      </text>
    </g>
  </g>
</svg>
