<?xml version="1.0" encoding="UTF-8"?>
<!DOCTYPE svg PUBLIC "-//W3C//DTD SVG 1.1//EN" "http://www.w3.org/Graphics/SVG/1.1/DTD/svg11.dtd">
<svg version="1.1" xmlns="http://www.w3.org/2000/svg" xmlns:xlink="http://www.w3.org/1999/xlink" x="0" y="0" width="397" height="62" viewBox="0, 0, 397, 62">
  <g id="Background">
    <rect x="0" y="0" width="397" height="62" fill="#000000" fill-opacity="0"/>
  </g>
  <g id="surface396">
    <g>
      <path d="M0.291,32.958 C0.245,33.115 0.182,33.38 0.182,33.458 C0.182,33.693 0.354,33.943 0.698,33.943 C1.26,33.943 1.385,33.427 1.463,33.146 L1.885,31.49 C2.807,31.505 3.729,31.646 3.729,32.302 C3.729,32.365 3.713,32.49 3.698,32.552 C3.698,32.568 3.666,32.708 3.666,32.818 C3.666,33.505 4.338,33.943 5.057,33.943 C6.151,33.943 6.557,32.318 6.557,32.24 C6.557,32.083 6.385,32.083 6.291,32.083 C6.088,32.083 6.073,32.099 6.01,32.302 C5.932,32.615 5.666,33.536 5.104,33.536 C4.995,33.536 4.823,33.536 4.823,33.115 C4.823,33.083 4.838,32.849 4.885,32.646 C4.932,32.505 4.948,32.38 4.948,32.286 C4.948,31.599 4.245,31.365 4.057,31.302 C3.666,31.193 3.526,31.161 2.51,31.083 C2.791,30.911 3.104,30.646 3.479,30.365 C4.198,29.786 4.385,29.708 4.635,29.568 C4.635,29.599 4.604,29.677 4.604,29.771 C4.604,30.115 4.854,30.286 5.135,30.286 C5.62,30.286 5.916,29.865 5.916,29.521 C5.916,29.38 5.854,29.005 5.354,29.005 C4.604,29.005 3.854,29.599 3.354,30.005 C2.682,30.536 2.401,30.74 2.026,30.911 C2.088,30.677 2.151,30.427 2.213,30.177 C2.338,29.646 2.385,29.49 2.385,29.396 C2.385,29.177 2.213,28.927 1.87,28.927 C1.682,28.927 1.276,29.021 1.151,29.49 L0.776,31.036 z M0.291,32.958" fill="#000000"/>
      <path d="M9.981,26.661 C10.027,26.505 10.027,26.49 10.027,26.474 C10.027,26.333 9.902,26.286 9.793,26.286 C9.746,26.286 9.731,26.286 9.715,26.286 L8.309,26.349 C8.152,26.365 7.949,26.38 7.949,26.677 C7.949,26.88 8.168,26.88 8.231,26.88 C8.356,26.88 8.559,26.88 8.699,26.896 C8.606,27.271 8.496,27.74 8.387,28.161 L7.637,31.161 C7.481,31.771 7.481,31.911 7.481,32.161 C7.481,33.552 8.527,33.943 9.34,33.943 C11.309,33.943 12.434,32.161 12.434,30.724 C12.434,29.38 11.434,28.927 10.527,28.927 C10.012,28.927 9.574,29.13 9.34,29.271 z M9.356,33.536 C8.934,33.536 8.574,33.318 8.574,32.646 C8.574,32.286 8.684,31.88 8.762,31.552 C8.871,31.13 9.059,30.38 9.137,30.052 C9.184,29.865 9.809,29.318 10.481,29.318 C11.152,29.318 11.199,29.896 11.199,30.146 C11.199,30.708 10.84,32.052 10.652,32.474 C10.293,33.365 9.684,33.536 9.356,33.536 z M9.356,33.536" fill="#000000"/>
    </g>
    <path d="M14.974,30.516 C14.974,30.344 14.849,30.204 14.662,30.204 C14.459,30.204 14.224,30.407 14.224,30.641 C14.224,30.813 14.349,30.938 14.537,30.938 C14.74,30.938 14.974,30.751 14.974,30.516 z M13.818,33.438 L13.38,34.532 C13.334,34.657 13.302,34.751 13.302,34.891 C13.302,35.282 13.599,35.563 14.021,35.563 C14.802,35.563 15.13,34.454 15.13,34.344 C15.13,34.266 15.068,34.235 15.005,34.235 C14.912,34.235 14.896,34.297 14.865,34.376 C14.693,35.016 14.365,35.344 14.037,35.344 C13.943,35.344 13.849,35.297 13.849,35.094 C13.849,34.891 13.912,34.751 14.005,34.501 C14.084,34.297 14.162,34.079 14.255,33.86 L14.505,33.219 C14.568,33.032 14.677,32.782 14.677,32.641 C14.677,32.251 14.349,31.969 13.943,31.969 C13.177,31.969 12.834,33.079 12.834,33.188 C12.834,33.266 12.896,33.297 12.959,33.297 C13.068,33.297 13.068,33.251 13.099,33.172 C13.318,32.407 13.677,32.188 13.927,32.188 C14.037,32.188 14.115,32.235 14.115,32.454 C14.115,32.532 14.099,32.641 14.021,32.891 z M13.818,33.438" fill="#000000"/>
    <path d="M26.511,30.286 C26.667,30.286 26.871,30.286 26.871,30.068 C26.871,29.849 26.667,29.849 26.511,29.849 L19.98,29.849 C19.824,29.849 19.621,29.849 19.621,30.068 C19.621,30.286 19.824,30.286 19.996,30.286 z M26.511,32.396 C26.667,32.396 26.871,32.396 26.871,32.177 C26.871,31.958 26.667,31.958 26.511,31.958 L19.996,31.958 C19.824,31.958 19.621,31.958 19.621,32.177 C19.621,32.396 19.824,32.396 19.98,32.396 z M26.511,32.396" fill="#000000"/>
    <path d="M60.671,25.625 L61.827,24.5 C63.53,23 64.171,22.406 64.171,21.328 C64.171,20.078 63.202,19.203 61.858,19.203 C60.64,19.203 59.827,20.203 59.827,21.172 C59.827,21.797 60.374,21.797 60.405,21.797 C60.593,21.797 60.968,21.656 60.968,21.219 C60.968,20.922 60.78,20.641 60.39,20.641 C60.311,20.641 60.28,20.641 60.249,20.656 C60.499,19.953 61.093,19.547 61.718,19.547 C62.718,19.547 63.186,20.422 63.186,21.328 C63.186,22.188 62.64,23.063 62.046,23.735 L59.952,26.063 C59.827,26.188 59.827,26.203 59.827,26.469 L63.874,26.469 L64.171,24.578 L63.905,24.578 C63.843,24.891 63.78,25.375 63.671,25.547 C63.593,25.625 62.874,25.625 62.624,25.625 z M60.671,25.625" fill="#000000"/>
    <path d="M68.975,24.094 C69.709,24.094 70.413,24.031 70.866,23.875 C71.803,23.563 71.959,22.938 71.959,22.594 C71.959,21.953 71.35,21.547 70.459,21.547 C68.491,21.547 67.084,22.906 67.084,24.594 C67.084,25.844 67.928,26.563 69.366,26.563 C69.647,26.563 70.397,26.547 71.053,26.297 C71.694,26.047 72.131,25.594 72.131,25.469 C72.131,25.375 71.959,25.188 71.85,25.188 C71.788,25.188 71.772,25.219 71.694,25.297 C71.1,25.922 70.256,26.156 69.397,26.156 C68.616,26.156 68.334,25.735 68.334,25.11 C68.334,24.891 68.381,24.531 68.491,24.094 z M68.6,23.703 C68.788,22.906 69.053,22.61 69.241,22.438 C69.616,22.047 70.116,21.938 70.459,21.938 C70.85,21.938 71.303,22.11 71.303,22.594 C71.303,23.703 69.647,23.703 68.6,23.703 z M68.6,23.703" fill="#000000"/>
    <path d="M74.967,23.136 C74.967,22.964 74.842,22.824 74.655,22.824 C74.452,22.824 74.217,23.027 74.217,23.261 C74.217,23.433 74.342,23.558 74.53,23.558 C74.733,23.558 74.967,23.371 74.967,23.136 z M73.811,26.058 L73.373,27.152 C73.327,27.277 73.295,27.371 73.295,27.511 C73.295,27.902 73.592,28.183 74.014,28.183 C74.795,28.183 75.123,27.074 75.123,26.964 C75.123,26.886 75.061,26.855 74.998,26.855 C74.905,26.855 74.889,26.917 74.858,26.996 C74.686,27.636 74.358,27.964 74.03,27.964 C73.936,27.964 73.842,27.917 73.842,27.714 C73.842,27.511 73.905,27.371 73.998,27.121 C74.077,26.917 74.155,26.699 74.248,26.48 L74.498,25.839 C74.561,25.652 74.67,25.402 74.67,25.261 C74.67,24.871 74.342,24.589 73.936,24.589 C73.17,24.589 72.827,25.699 72.827,25.808 C72.827,25.886 72.889,25.917 72.952,25.917 C73.061,25.917 73.061,25.871 73.092,25.792 C73.311,25.027 73.67,24.808 73.92,24.808 C74.03,24.808 74.108,24.855 74.108,25.074 C74.108,25.152 74.092,25.261 74.014,25.511 z M73.811,26.058" fill="#000000"/>
    <path d="M81.038,26.292 C81.178,26.292 81.35,26.292 81.35,26.121 C81.35,25.933 81.178,25.933 81.038,25.933 L76.475,25.933 C76.35,25.933 76.178,25.933 76.178,26.121 C76.178,26.292 76.35,26.292 76.475,26.292 z M81.038,26.292" fill="#000000"/>
    <path d="M84.562,23.027 C84.562,22.808 84.547,22.808 84.328,22.808 C84,23.121 83.578,23.308 82.828,23.308 L82.828,23.574 C83.047,23.574 83.468,23.574 83.937,23.371 L83.937,27.449 C83.937,27.746 83.906,27.839 83.156,27.839 L82.875,27.839 L82.875,28.105 C83.203,28.074 83.89,28.074 84.25,28.074 C84.609,28.074 85.297,28.074 85.625,28.105 L85.625,27.839 L85.343,27.839 C84.593,27.839 84.562,27.746 84.562,27.449 z M84.562,23.027" fill="#000000"/>
    <path d="M93.468,23.438 L91.281,21.266 C91.156,21.141 91.124,21.11 91.046,21.11 C90.937,21.11 90.828,21.219 90.828,21.328 C90.828,21.406 90.843,21.438 90.968,21.547 L93.14,23.75 L90.968,25.938 C90.843,26.047 90.828,26.078 90.828,26.156 C90.828,26.266 90.937,26.375 91.046,26.375 C91.124,26.375 91.156,26.344 91.281,26.219 L93.453,24.047 L95.703,26.313 C95.734,26.313 95.812,26.375 95.874,26.375 C95.999,26.375 96.093,26.266 96.093,26.156 C96.093,26.125 96.093,26.094 96.062,26.031 C96.046,26.016 94.312,24.297 93.765,23.75 L95.765,21.75 C95.812,21.688 95.984,21.547 96.031,21.469 C96.046,21.453 96.093,21.406 96.093,21.328 C96.093,21.219 95.999,21.11 95.874,21.11 C95.781,21.11 95.734,21.156 95.624,21.281 z M93.468,23.438" fill="#000000"/>
    <path d="M102.549,24.094 C103.283,24.094 103.987,24.031 104.44,23.875 C105.377,23.563 105.533,22.938 105.533,22.594 C105.533,21.953 104.924,21.547 104.033,21.547 C102.065,21.547 100.658,22.906 100.658,24.594 C100.658,25.844 101.502,26.563 102.94,26.563 C103.221,26.563 103.971,26.547 104.627,26.297 C105.268,26.047 105.705,25.594 105.705,25.469 C105.705,25.375 105.533,25.188 105.424,25.188 C105.362,25.188 105.346,25.219 105.268,25.297 C104.674,25.922 103.83,26.156 102.971,26.156 C102.19,26.156 101.908,25.735 101.908,25.11 C101.908,24.891 101.955,24.531 102.065,24.094 z M102.174,23.703 C102.362,22.906 102.627,22.61 102.815,22.438 C103.19,22.047 103.69,21.938 104.033,21.938 C104.424,21.938 104.877,22.11 104.877,22.594 C104.877,23.703 103.221,23.703 102.174,23.703 z M102.174,23.703" fill="#000000"/>
    <path d="M108.541,23.136 C108.541,22.964 108.416,22.824 108.229,22.824 C108.026,22.824 107.791,23.027 107.791,23.261 C107.791,23.433 107.916,23.558 108.104,23.558 C108.307,23.558 108.541,23.371 108.541,23.136 z M107.385,26.058 L106.947,27.152 C106.901,27.277 106.869,27.371 106.869,27.511 C106.869,27.902 107.166,28.183 107.588,28.183 C108.369,28.183 108.697,27.074 108.697,26.964 C108.697,26.886 108.635,26.855 108.572,26.855 C108.479,26.855 108.463,26.917 108.432,26.996 C108.26,27.636 107.932,27.964 107.604,27.964 C107.51,27.964 107.416,27.917 107.416,27.714 C107.416,27.511 107.479,27.371 107.572,27.121 C107.651,26.917 107.729,26.699 107.822,26.48 L108.072,25.839 C108.135,25.652 108.244,25.402 108.244,25.261 C108.244,24.871 107.916,24.589 107.51,24.589 C106.744,24.589 106.401,25.699 106.401,25.808 C106.401,25.886 106.463,25.917 106.526,25.917 C106.635,25.917 106.635,25.871 106.666,25.792 C106.885,25.027 107.244,24.808 107.494,24.808 C107.604,24.808 107.682,24.855 107.682,25.074 C107.682,25.152 107.666,25.261 107.588,25.511 z M107.385,26.058" fill="#000000"/>
    <path d="M31.722,31.122 L137.108,31.122" fill-opacity="0" stroke="#000000" stroke-width="0.436" stroke-miterlimit="10"/>
    <path d="M33.597,33.519 C33.597,33.348 33.597,33.16 33.378,33.16 C33.16,33.16 33.16,33.394 33.16,33.551 L33.16,43.66 C33.16,43.832 33.16,44.051 33.378,44.051 C33.597,44.051 33.597,43.863 33.597,43.691 z M35.722,33.551 C35.722,33.379 35.722,33.16 35.503,33.16 C35.285,33.16 35.285,33.348 35.285,33.519 L35.285,43.691 C35.285,43.863 35.285,44.051 35.503,44.051 C35.722,44.051 35.722,43.816 35.722,43.66 z M35.722,33.551" fill="#000000"/>
    <path d="M39.598,38.957 C40.332,38.957 41.036,38.894 41.489,38.738 C42.426,38.426 42.582,37.801 42.582,37.457 C42.582,36.816 41.973,36.41 41.082,36.41 C39.114,36.41 37.707,37.769 37.707,39.457 C37.707,40.707 38.551,41.426 39.989,41.426 C40.27,41.426 41.02,41.41 41.676,41.16 C42.317,40.91 42.754,40.457 42.754,40.332 C42.754,40.238 42.582,40.051 42.473,40.051 C42.411,40.051 42.395,40.082 42.317,40.16 C41.723,40.785 40.879,41.019 40.02,41.019 C39.239,41.019 38.957,40.598 38.957,39.973 C38.957,39.754 39.004,39.394 39.114,38.957 z M39.223,38.566 C39.411,37.769 39.676,37.473 39.864,37.301 C40.239,36.91 40.739,36.801 41.082,36.801 C41.473,36.801 41.926,36.973 41.926,37.457 C41.926,38.566 40.27,38.566 39.223,38.566 z M39.223,38.566" fill="#000000"/>
    <path d="M45.59,37.999 C45.59,37.827 45.465,37.687 45.278,37.687 C45.075,37.687 44.84,37.89 44.84,38.124 C44.84,38.296 44.965,38.421 45.153,38.421 C45.356,38.421 45.59,38.234 45.59,37.999 z M44.434,40.921 L43.996,42.015 C43.95,42.14 43.918,42.234 43.918,42.374 C43.918,42.765 44.215,43.046 44.637,43.046 C45.418,43.046 45.746,41.937 45.746,41.827 C45.746,41.749 45.684,41.718 45.621,41.718 C45.528,41.718 45.512,41.78 45.481,41.859 C45.309,42.499 44.981,42.827 44.653,42.827 C44.559,42.827 44.465,42.78 44.465,42.577 C44.465,42.374 44.528,42.234 44.621,41.984 C44.7,41.78 44.778,41.562 44.871,41.343 L45.121,40.702 C45.184,40.515 45.293,40.265 45.293,40.124 C45.293,39.734 44.965,39.452 44.559,39.452 C43.793,39.452 43.45,40.562 43.45,40.671 C43.45,40.749 43.512,40.78 43.575,40.78 C43.684,40.78 43.684,40.734 43.715,40.655 C43.934,39.89 44.293,39.671 44.543,39.671 C44.653,39.671 44.731,39.718 44.731,39.937 C44.731,40.015 44.715,40.124 44.637,40.374 z M44.434,40.921" fill="#000000"/>
    <path d="M51.662,41.155 C51.802,41.155 51.974,41.155 51.974,40.984 C51.974,40.796 51.802,40.796 51.662,40.796 L47.099,40.796 C46.974,40.796 46.802,40.796 46.802,40.984 C46.802,41.155 46.974,41.155 47.099,41.155 z M51.662,41.155" fill="#000000"/>
    <path d="M55.185,37.89 C55.185,37.671 55.17,37.671 54.951,37.671 C54.623,37.984 54.201,38.171 53.451,38.171 L53.451,38.437 C53.67,38.437 54.091,38.437 54.56,38.234 L54.56,42.312 C54.56,42.609 54.529,42.702 53.779,42.702 L53.498,42.702 L53.498,42.968 C53.826,42.937 54.513,42.937 54.873,42.937 C55.232,42.937 55.92,42.937 56.248,42.968 L56.248,42.702 L55.966,42.702 C55.216,42.702 55.185,42.609 55.185,42.312 z M55.185,37.89" fill="#000000"/>
    <g>
      <path d="M59.292,33.519 C59.292,33.348 59.292,33.16 59.073,33.16 C58.855,33.16 58.855,33.394 58.855,33.551 L58.855,43.66 C58.855,43.832 58.855,44.051 59.073,44.051 C59.292,44.051 59.292,43.863 59.292,43.691 z M61.417,33.551 C61.417,33.379 61.417,33.16 61.198,33.16 C60.98,33.16 60.98,33.348 60.98,33.519 L60.98,43.691 C60.98,43.863 60.98,44.051 61.198,44.051 C61.417,44.051 61.417,43.816 61.417,43.66 z M61.417,33.551" fill="#000000"/>
      <path d="M64.747,33.519 C64.747,33.348 64.747,33.16 64.528,33.16 C64.309,33.16 64.309,33.394 64.309,33.551 L64.309,43.66 C64.309,43.832 64.309,44.051 64.528,44.051 C64.747,44.051 64.747,43.863 64.747,43.691 z M66.872,33.551 C66.872,33.379 66.872,33.16 66.653,33.16 C66.434,33.16 66.434,33.348 66.434,33.519 L66.434,43.691 C66.434,43.863 66.434,44.051 66.653,44.051 C66.872,44.051 66.872,43.816 66.872,43.66 z M66.872,33.551" fill="#000000"/>
    </g>
    <path d="M70.748,38.957 C71.482,38.957 72.186,38.894 72.639,38.738 C73.576,38.426 73.732,37.801 73.732,37.457 C73.732,36.816 73.123,36.41 72.232,36.41 C70.264,36.41 68.857,37.769 68.857,39.457 C68.857,40.707 69.701,41.426 71.139,41.426 C71.42,41.426 72.17,41.41 72.826,41.16 C73.467,40.91 73.904,40.457 73.904,40.332 C73.904,40.238 73.732,40.051 73.623,40.051 C73.561,40.051 73.545,40.082 73.467,40.16 C72.873,40.785 72.029,41.019 71.17,41.019 C70.389,41.019 70.107,40.598 70.107,39.973 C70.107,39.754 70.154,39.394 70.264,38.957 z M70.373,38.566 C70.561,37.769 70.826,37.473 71.014,37.301 C71.389,36.91 71.889,36.801 72.232,36.801 C72.623,36.801 73.076,36.973 73.076,37.457 C73.076,38.566 71.42,38.566 70.373,38.566 z M70.373,38.566" fill="#000000"/>
    <path d="M76.741,37.999 C76.741,37.827 76.616,37.687 76.429,37.687 C76.226,37.687 75.991,37.89 75.991,38.124 C75.991,38.296 76.116,38.421 76.304,38.421 C76.507,38.421 76.741,38.234 76.741,37.999 z M75.585,40.921 L75.147,42.015 C75.101,42.14 75.069,42.234 75.069,42.374 C75.069,42.765 75.366,43.046 75.788,43.046 C76.569,43.046 76.897,41.937 76.897,41.827 C76.897,41.749 76.835,41.718 76.772,41.718 C76.679,41.718 76.663,41.78 76.632,41.859 C76.46,42.499 76.132,42.827 75.804,42.827 C75.71,42.827 75.616,42.78 75.616,42.577 C75.616,42.374 75.679,42.234 75.772,41.984 C75.851,41.78 75.929,41.562 76.022,41.343 L76.272,40.702 C76.335,40.515 76.444,40.265 76.444,40.124 C76.444,39.734 76.116,39.452 75.71,39.452 C74.944,39.452 74.601,40.562 74.601,40.671 C74.601,40.749 74.663,40.78 74.726,40.78 C74.835,40.78 74.835,40.734 74.866,40.655 C75.085,39.89 75.444,39.671 75.694,39.671 C75.804,39.671 75.882,39.718 75.882,39.937 C75.882,40.015 75.866,40.124 75.788,40.374 z M75.585,40.921" fill="#000000"/>
    <g>
      <path d="M79.622,33.519 C79.622,33.348 79.622,33.16 79.403,33.16 C79.185,33.16 79.185,33.394 79.185,33.551 L79.185,43.66 C79.185,43.832 79.185,44.051 79.403,44.051 C79.622,44.051 79.622,43.863 79.622,43.691 z M81.747,33.551 C81.747,33.379 81.747,33.16 81.528,33.16 C81.31,33.16 81.31,33.348 81.31,33.519 L81.31,43.691 C81.31,43.863 81.31,44.051 81.528,44.051 C81.747,44.051 81.747,43.816 81.747,43.66 z M81.747,33.551" fill="#000000"/>
      <path d="M85.077,33.519 C85.077,33.348 85.077,33.16 84.858,33.16 C84.639,33.16 84.639,33.394 84.639,33.551 L84.639,43.66 C84.639,43.832 84.639,44.051 84.858,44.051 C85.077,44.051 85.077,43.863 85.077,43.691 z M87.202,33.551 C87.202,33.379 87.202,33.16 86.983,33.16 C86.764,33.16 86.764,33.348 86.764,33.519 L86.764,43.691 C86.764,43.863 86.764,44.051 86.983,44.051 C87.202,44.051 87.202,43.816 87.202,43.66 z M87.202,33.551" fill="#000000"/>
    </g>
    <path d="M91.078,38.957 C91.812,38.957 92.516,38.894 92.969,38.738 C93.906,38.426 94.062,37.801 94.062,37.457 C94.062,36.816 93.453,36.41 92.562,36.41 C90.594,36.41 89.187,37.769 89.187,39.457 C89.187,40.707 90.031,41.426 91.469,41.426 C91.75,41.426 92.5,41.41 93.156,41.16 C93.797,40.91 94.234,40.457 94.234,40.332 C94.234,40.238 94.062,40.051 93.953,40.051 C93.891,40.051 93.875,40.082 93.797,40.16 C93.203,40.785 92.359,41.019 91.5,41.019 C90.719,41.019 90.437,40.598 90.437,39.973 C90.437,39.754 90.484,39.394 90.594,38.957 z M90.703,38.566 C90.891,37.769 91.156,37.473 91.344,37.301 C91.719,36.91 92.219,36.801 92.562,36.801 C92.953,36.801 93.406,36.973 93.406,37.457 C93.406,38.566 91.75,38.566 90.703,38.566 z M90.703,38.566" fill="#000000"/>
    <path d="M97.071,37.999 C97.071,37.827 96.946,37.687 96.759,37.687 C96.556,37.687 96.321,37.89 96.321,38.124 C96.321,38.296 96.446,38.421 96.634,38.421 C96.837,38.421 97.071,38.234 97.071,37.999 z M95.915,40.921 L95.477,42.015 C95.431,42.14 95.399,42.234 95.399,42.374 C95.399,42.765 95.696,43.046 96.118,43.046 C96.899,43.046 97.227,41.937 97.227,41.827 C97.227,41.749 97.165,41.718 97.102,41.718 C97.009,41.718 96.993,41.78 96.962,41.859 C96.79,42.499 96.462,42.827 96.134,42.827 C96.04,42.827 95.946,42.78 95.946,42.577 C95.946,42.374 96.009,42.234 96.102,41.984 C96.181,41.78 96.259,41.562 96.352,41.343 L96.602,40.702 C96.665,40.515 96.774,40.265 96.774,40.124 C96.774,39.734 96.446,39.452 96.04,39.452 C95.274,39.452 94.931,40.562 94.931,40.671 C94.931,40.749 94.993,40.78 95.056,40.78 C95.165,40.78 95.165,40.734 95.196,40.655 C95.415,39.89 95.774,39.671 96.024,39.671 C96.134,39.671 96.212,39.718 96.212,39.937 C96.212,40.015 96.196,40.124 96.118,40.374 z M95.915,40.921" fill="#000000"/>
    <path d="M103.142,41.155 C103.282,41.155 103.454,41.155 103.454,40.984 C103.454,40.796 103.282,40.796 103.142,40.796 L98.579,40.796 C98.454,40.796 98.282,40.796 98.282,40.984 C98.282,41.155 98.454,41.155 98.579,41.155 z M103.142,41.155" fill="#000000"/>
    <path d="M106.665,37.89 C106.665,37.671 106.65,37.671 106.431,37.671 C106.103,37.984 105.681,38.171 104.931,38.171 L104.931,38.437 C105.15,38.437 105.571,38.437 106.04,38.234 L106.04,42.312 C106.04,42.609 106.009,42.702 105.259,42.702 L104.978,42.702 L104.978,42.968 C105.306,42.937 105.993,42.937 106.353,42.937 C106.712,42.937 107.4,42.937 107.728,42.968 L107.728,42.702 L107.446,42.702 C106.696,42.702 106.665,42.609 106.665,42.312 z M106.665,37.89" fill="#000000"/>
    <path d="M115.775,38.816 L118.822,38.816 C118.978,38.816 119.182,38.816 119.182,38.613 C119.182,38.394 118.978,38.394 118.822,38.394 L115.775,38.394 L115.775,35.332 C115.775,35.176 115.775,34.973 115.572,34.973 C115.353,34.973 115.353,35.176 115.353,35.332 L115.353,38.394 L112.291,38.394 C112.135,38.394 111.932,38.394 111.932,38.613 C111.932,38.816 112.135,38.816 112.291,38.816 L115.353,38.816 L115.353,41.879 C115.353,42.035 115.353,42.238 115.572,42.238 C115.775,42.238 115.775,42.035 115.775,41.879 z M115.775,38.816" fill="#000000"/>
    <path d="M124.653,38.957 C125.387,38.957 126.091,38.894 126.544,38.738 C127.481,38.426 127.637,37.801 127.637,37.457 C127.637,36.816 127.028,36.41 126.137,36.41 C124.169,36.41 122.762,37.769 122.762,39.457 C122.762,40.707 123.606,41.426 125.044,41.426 C125.325,41.426 126.075,41.41 126.731,41.16 C127.372,40.91 127.809,40.457 127.809,40.332 C127.809,40.238 127.637,40.051 127.528,40.051 C127.466,40.051 127.45,40.082 127.372,40.16 C126.778,40.785 125.934,41.019 125.075,41.019 C124.294,41.019 124.012,40.598 124.012,39.973 C124.012,39.754 124.059,39.394 124.169,38.957 z M124.278,38.566 C124.466,37.769 124.731,37.473 124.919,37.301 C125.294,36.91 125.794,36.801 126.137,36.801 C126.528,36.801 126.981,36.973 126.981,37.457 C126.981,38.566 125.325,38.566 124.278,38.566 z M124.278,38.566" fill="#000000"/>
    <path d="M130.645,37.999 C130.645,37.827 130.52,37.687 130.333,37.687 C130.13,37.687 129.895,37.89 129.895,38.124 C129.895,38.296 130.02,38.421 130.208,38.421 C130.411,38.421 130.645,38.234 130.645,37.999 z M129.489,40.921 L129.051,42.015 C129.005,42.14 128.973,42.234 128.973,42.374 C128.973,42.765 129.27,43.046 129.692,43.046 C130.473,43.046 130.801,41.937 130.801,41.827 C130.801,41.749 130.739,41.718 130.676,41.718 C130.583,41.718 130.567,41.78 130.536,41.859 C130.364,42.499 130.036,42.827 129.708,42.827 C129.614,42.827 129.52,42.78 129.52,42.577 C129.52,42.374 129.583,42.234 129.676,41.984 C129.755,41.78 129.833,41.562 129.926,41.343 L130.176,40.702 C130.239,40.515 130.348,40.265 130.348,40.124 C130.348,39.734 130.02,39.452 129.614,39.452 C128.848,39.452 128.505,40.562 128.505,40.671 C128.505,40.749 128.567,40.78 128.63,40.78 C128.739,40.78 128.739,40.734 128.77,40.655 C128.989,39.89 129.348,39.671 129.598,39.671 C129.708,39.671 129.786,39.718 129.786,39.937 C129.786,40.015 129.77,40.124 129.692,40.374 z M129.489,40.921" fill="#000000"/>
    <path d="M133.526,33.519 C133.526,33.348 133.526,33.16 133.307,33.16 C133.089,33.16 133.089,33.394 133.089,33.551 L133.089,43.66 C133.089,43.832 133.089,44.051 133.307,44.051 C133.526,44.051 133.526,43.863 133.526,43.691 z M135.651,33.551 C135.651,33.379 135.651,33.16 135.432,33.16 C135.214,33.16 135.214,33.348 135.214,33.519 L135.214,43.691 C135.214,43.863 135.214,44.051 135.432,44.051 C135.651,44.051 135.651,43.816 135.651,43.66 z M135.651,33.551" fill="#000000"/>
    <path d="M148.832,30.286 C148.988,30.286 149.192,30.286 149.192,30.068 C149.192,29.849 148.988,29.849 148.832,29.849 L142.301,29.849 C142.145,29.849 141.942,29.849 141.942,30.068 C141.942,30.286 142.145,30.286 142.317,30.286 z M148.832,32.396 C148.988,32.396 149.192,32.396 149.192,32.177 C149.192,31.958 148.988,31.958 148.832,31.958 L142.317,31.958 C142.145,31.958 141.942,31.958 141.942,32.177 C141.942,32.396 142.145,32.396 142.301,32.396 z M148.832,32.396" fill="#000000"/>
    <path d="M158.347,6.604 C158.347,5.714 158.582,3.636 160.519,2.261 C160.66,2.151 160.675,2.136 160.675,1.933 C160.675,1.683 160.66,1.683 160.394,1.683 L160.222,1.683 C157.878,2.948 157.035,5.011 157.035,6.604 L157.035,11.292 C157.035,11.573 157.05,11.589 157.347,11.589 L158.035,11.589 C158.332,11.589 158.347,11.573 158.347,11.292 z M158.347,6.604" fill="#000000"/>
    <path d="M158.347,11.672 C158.347,11.391 158.332,11.376 158.035,11.376 L157.347,11.376 C157.05,11.376 157.035,11.391 157.035,11.672 L157.035,14.579 C157.035,14.86 157.05,14.86 157.347,14.86 L158.035,14.86 C158.332,14.86 158.347,14.86 158.347,14.579 z M158.347,11.672" fill="#000000"/>
    <path d="M158.347,14.945 C158.347,14.664 158.332,14.649 158.035,14.649 L157.347,14.649 C157.05,14.649 157.035,14.664 157.035,14.945 L157.035,17.852 C157.035,18.133 157.05,18.133 157.347,18.133 L158.035,18.133 C158.332,18.133 158.347,18.133 158.347,17.852 z M158.347,14.945" fill="#000000"/>
    <path d="M158.347,18.218 C158.347,17.937 158.332,17.922 158.035,17.922 L157.347,17.922 C157.05,17.922 157.035,17.937 157.035,18.218 L157.035,21.125 C157.035,21.406 157.05,21.406 157.347,21.406 L158.035,21.406 C158.332,21.406 158.347,21.406 158.347,21.125 z M158.347,18.218" fill="#000000"/>
    <path d="M157.035,40.756 C157.035,41.037 157.05,41.037 157.347,41.037 L158.035,41.037 C158.332,41.037 158.347,41.037 158.347,40.756 L158.347,36.147 C158.347,34.834 157.785,32.6 155.347,31.115 C157.816,29.631 158.347,27.381 158.347,26.084 L158.347,21.49 C158.347,21.209 158.332,21.194 158.035,21.194 L157.347,21.194 C157.05,21.194 157.035,21.209 157.035,21.49 L157.035,26.1 C157.035,27.022 156.832,29.287 154.832,30.819 C154.707,30.912 154.707,30.928 154.707,31.115 C154.707,31.319 154.707,31.319 154.832,31.428 C155.113,31.647 155.863,32.225 156.394,33.319 C156.816,34.194 157.035,35.162 157.035,36.131 z M157.035,40.756" fill="#000000"/>
    <path d="M158.347,41.127 C158.347,40.846 158.332,40.831 158.035,40.831 L157.347,40.831 C157.05,40.831 157.035,40.846 157.035,41.127 L157.035,44.034 C157.035,44.315 157.05,44.315 157.347,44.315 L158.035,44.315 C158.332,44.315 158.347,44.315 158.347,44.034 z M158.347,41.127" fill="#000000"/>
    <path d="M158.347,44.4 C158.347,44.119 158.332,44.104 158.035,44.104 L157.347,44.104 C157.05,44.104 157.035,44.119 157.035,44.4 L157.035,47.307 C157.035,47.588 157.05,47.588 157.347,47.588 L158.035,47.588 C158.332,47.588 158.347,47.588 158.347,47.307 z M158.347,44.4" fill="#000000"/>
    <path d="M158.347,47.672 C158.347,47.391 158.332,47.376 158.035,47.376 L157.347,47.376 C157.05,47.376 157.035,47.391 157.035,47.672 L157.035,50.579 C157.035,50.86 157.05,50.86 157.347,50.86 L158.035,50.86 C158.332,50.86 158.347,50.86 158.347,50.579 z M158.347,47.672" fill="#000000"/>
    <path d="M160.394,60.57 C160.66,60.57 160.675,60.555 160.675,60.305 C160.675,60.102 160.66,60.086 160.628,60.055 C160.285,59.805 159.503,59.258 158.988,58.258 C158.566,57.414 158.347,56.586 158.347,55.633 L158.347,50.945 C158.347,50.664 158.332,50.649 158.035,50.649 L157.347,50.649 C157.05,50.649 157.035,50.664 157.035,50.945 L157.035,55.633 C157.035,57.242 157.878,59.305 160.222,60.57 z M160.394,60.57" fill="#000000"/>
    <path d="M166.949,6.71 L168.105,5.585 C169.808,4.085 170.449,3.491 170.449,2.413 C170.449,1.163 169.48,0.288 168.136,0.288 C166.918,0.288 166.105,1.288 166.105,2.257 C166.105,2.882 166.652,2.882 166.683,2.882 C166.871,2.882 167.246,2.741 167.246,2.304 C167.246,2.007 167.058,1.726 166.668,1.726 C166.589,1.726 166.558,1.726 166.527,1.741 C166.777,1.038 167.371,0.632 167.996,0.632 C168.996,0.632 169.464,1.507 169.464,2.413 C169.464,3.273 168.918,4.148 168.324,4.82 L166.23,7.148 C166.105,7.273 166.105,7.288 166.105,7.554 L170.152,7.554 L170.449,5.663 L170.183,5.663 C170.121,5.976 170.058,6.46 169.949,6.632 C169.871,6.71 169.152,6.71 168.902,6.71 z M166.949,6.71" fill="#000000"/>
    <path d="M178.971,4.101 C179.049,3.788 179.174,3.273 179.174,3.195 C179.174,2.96 179.002,2.71 178.658,2.71 C178.486,2.71 178.08,2.804 177.94,3.288 C177.908,3.445 177.408,5.413 177.33,5.773 C177.252,6.023 177.19,6.351 177.158,6.538 C176.971,6.804 176.533,7.241 175.986,7.241 C175.346,7.241 175.33,6.71 175.33,6.46 C175.33,5.788 175.658,4.929 175.971,4.148 C176.08,3.866 176.111,3.788 176.111,3.601 C176.111,2.976 175.486,2.632 174.877,2.632 C173.721,2.632 173.174,4.101 173.174,4.32 C173.174,4.476 173.346,4.476 173.44,4.476 C173.565,4.476 173.643,4.476 173.69,4.335 C174.049,3.132 174.643,3.023 174.815,3.023 C174.893,3.023 175.002,3.023 175.002,3.241 C175.002,3.491 174.877,3.804 174.83,3.929 C174.361,5.085 174.158,5.695 174.158,6.226 C174.158,7.46 175.252,7.648 175.893,7.648 C176.205,7.648 176.69,7.601 177.283,7.038 C177.627,7.57 178.268,7.648 178.518,7.648 C178.924,7.648 179.236,7.413 179.471,7.023 C179.752,6.585 179.893,5.991 179.893,5.945 C179.893,5.788 179.721,5.788 179.627,5.788 C179.502,5.788 179.455,5.788 179.408,5.835 C179.377,5.866 179.377,5.882 179.315,6.163 C179.096,7.007 178.861,7.241 178.58,7.241 C178.408,7.241 178.33,7.132 178.33,6.851 C178.33,6.663 178.377,6.491 178.486,6.054 C178.549,5.741 178.658,5.304 178.721,5.07 z M178.971,4.101" fill="#000000"/>
    <path d="M182.634,4.221 C182.634,4.049 182.509,3.909 182.322,3.909 C182.119,3.909 181.884,4.112 181.884,4.346 C181.884,4.518 182.009,4.643 182.197,4.643 C182.4,4.643 182.634,4.456 182.634,4.221 z M181.478,7.143 L181.04,8.237 C180.994,8.362 180.962,8.456 180.962,8.596 C180.962,8.987 181.259,9.268 181.681,9.268 C182.462,9.268 182.79,8.159 182.79,8.049 C182.79,7.971 182.728,7.94 182.665,7.94 C182.572,7.94 182.556,8.002 182.525,8.081 C182.353,8.721 182.025,9.049 181.697,9.049 C181.603,9.049 181.509,9.002 181.509,8.799 C181.509,8.596 181.572,8.456 181.665,8.206 C181.744,8.002 181.822,7.784 181.915,7.565 L182.165,6.924 C182.228,6.737 182.337,6.487 182.337,6.346 C182.337,5.956 182.009,5.674 181.603,5.674 C180.837,5.674 180.494,6.784 180.494,6.893 C180.494,6.971 180.556,7.002 180.619,7.002 C180.728,7.002 180.728,6.956 180.759,6.877 C180.978,6.112 181.337,5.893 181.587,5.893 C181.697,5.893 181.775,5.94 181.775,6.159 C181.775,6.237 181.759,6.346 181.681,6.596 z M181.478,7.143" fill="#000000"/>
    <path d="M188.706,7.377 C188.846,7.377 189.018,7.377 189.018,7.206 C189.018,7.018 188.846,7.018 188.706,7.018 L184.143,7.018 C184.018,7.018 183.846,7.018 183.846,7.206 C183.846,7.377 184.018,7.377 184.143,7.377 z M188.706,7.377" fill="#000000"/>
    <path d="M192.229,4.112 C192.229,3.893 192.214,3.893 191.995,3.893 C191.667,4.206 191.245,4.393 190.495,4.393 L190.495,4.659 C190.714,4.659 191.135,4.659 191.604,4.456 L191.604,8.534 C191.604,8.831 191.573,8.924 190.823,8.924 L190.542,8.924 L190.542,9.19 C190.87,9.159 191.557,9.159 191.917,9.159 C192.276,9.159 192.964,9.159 193.292,9.19 L193.292,8.924 L193.01,8.924 C192.26,8.924 192.229,8.831 192.229,8.534 z M192.229,4.112" fill="#000000"/>
    <path d="M201.136,4.523 L198.949,2.351 C198.824,2.226 198.792,2.195 198.714,2.195 C198.605,2.195 198.496,2.304 198.496,2.413 C198.496,2.491 198.511,2.523 198.636,2.632 L200.808,4.835 L198.636,7.023 C198.511,7.132 198.496,7.163 198.496,7.241 C198.496,7.351 198.605,7.46 198.714,7.46 C198.792,7.46 198.824,7.429 198.949,7.304 L201.121,5.132 L203.371,7.398 C203.402,7.398 203.48,7.46 203.542,7.46 C203.667,7.46 203.761,7.351 203.761,7.241 C203.761,7.21 203.761,7.179 203.73,7.116 C203.714,7.101 201.98,5.382 201.433,4.835 L203.433,2.835 C203.48,2.773 203.652,2.632 203.699,2.554 C203.714,2.538 203.761,2.491 203.761,2.413 C203.761,2.304 203.667,2.195 203.542,2.195 C203.449,2.195 203.402,2.241 203.292,2.366 z M201.136,4.523" fill="#000000"/>
    <path d="M210.545,3.226 L211.514,3.226 C211.733,3.226 211.748,3.226 211.811,3.163 C211.873,3.132 211.905,2.976 211.905,2.913 C211.905,2.71 211.717,2.71 211.545,2.71 L210.67,2.71 L211.03,1.304 C211.061,1.132 211.061,1.07 211.061,1.023 C211.061,0.679 210.78,0.538 210.561,0.538 C210.389,0.538 210.092,0.616 209.92,0.929 C209.873,1.007 209.748,1.507 209.67,1.82 L209.452,2.71 L208.467,2.71 C208.248,2.71 208.061,2.71 208.061,3.023 C208.061,3.226 208.248,3.226 208.436,3.226 L209.327,3.226 L208.702,5.71 C208.623,5.991 208.514,6.46 208.514,6.57 C208.514,7.288 209.217,7.648 209.889,7.648 C211.186,7.648 211.936,6.132 211.936,5.945 C211.936,5.788 211.764,5.788 211.67,5.788 C211.483,5.788 211.467,5.804 211.389,5.96 C210.983,6.898 210.373,7.241 209.952,7.241 C209.842,7.241 209.686,7.241 209.686,6.851 C209.686,6.632 209.717,6.523 209.748,6.382 z M210.545,3.226" fill="#000000"/>
    <path d="M214.7,4.221 C214.7,4.049 214.575,3.909 214.388,3.909 C214.185,3.909 213.95,4.112 213.95,4.346 C213.95,4.518 214.075,4.643 214.263,4.643 C214.466,4.643 214.7,4.456 214.7,4.221 z M213.544,7.143 L213.107,8.237 C213.06,8.362 213.028,8.456 213.028,8.596 C213.028,8.987 213.325,9.268 213.747,9.268 C214.528,9.268 214.857,8.159 214.857,8.049 C214.857,7.971 214.794,7.94 214.732,7.94 C214.638,7.94 214.622,8.002 214.591,8.081 C214.419,8.721 214.091,9.049 213.763,9.049 C213.669,9.049 213.575,9.002 213.575,8.799 C213.575,8.596 213.638,8.456 213.732,8.206 C213.81,8.002 213.888,7.784 213.982,7.565 L214.232,6.924 C214.294,6.737 214.403,6.487 214.403,6.346 C214.403,5.956 214.075,5.674 213.669,5.674 C212.903,5.674 212.56,6.784 212.56,6.893 C212.56,6.971 212.622,7.002 212.685,7.002 C212.794,7.002 212.794,6.956 212.825,6.877 C213.044,6.112 213.403,5.893 213.653,5.893 C213.763,5.893 213.841,5.94 213.841,6.159 C213.841,6.237 213.825,6.346 213.747,6.596 z M213.544,7.143" fill="#000000"/>
    <path d="M165.558,12.204 L215.706,12.204" fill-opacity="0" stroke="#000000" stroke-width="0.436" stroke-miterlimit="10"/>
    <path d="M176.932,14.604 C176.932,14.433 176.932,14.245 176.713,14.245 C176.495,14.245 176.495,14.479 176.495,14.636 L176.495,24.745 C176.495,24.917 176.495,25.136 176.713,25.136 C176.932,25.136 176.932,24.948 176.932,24.776 z M179.057,14.636 C179.057,14.464 179.057,14.245 178.838,14.245 C178.62,14.245 178.62,14.433 178.62,14.604 L178.62,24.776 C178.62,24.948 178.62,25.136 178.838,25.136 C179.057,25.136 179.057,24.901 179.057,24.745 z M179.057,14.636" fill="#000000"/>
    <path d="M182.933,20.042 C183.667,20.042 184.371,19.979 184.824,19.823 C185.761,19.511 185.917,18.886 185.917,18.542 C185.917,17.901 185.308,17.495 184.417,17.495 C182.449,17.495 181.042,18.854 181.042,20.542 C181.042,21.792 181.886,22.511 183.324,22.511 C183.605,22.511 184.355,22.495 185.011,22.245 C185.652,21.995 186.089,21.542 186.089,21.417 C186.089,21.323 185.917,21.136 185.808,21.136 C185.746,21.136 185.73,21.167 185.652,21.245 C185.058,21.87 184.214,22.104 183.355,22.104 C182.574,22.104 182.292,21.683 182.292,21.058 C182.292,20.839 182.339,20.479 182.449,20.042 z M182.558,19.651 C182.746,18.854 183.011,18.558 183.199,18.386 C183.574,17.995 184.074,17.886 184.417,17.886 C184.808,17.886 185.261,18.058 185.261,18.542 C185.261,19.651 183.605,19.651 182.558,19.651 z M182.558,19.651" fill="#000000"/>
    <path d="M188.926,19.084 C188.926,18.912 188.801,18.772 188.614,18.772 C188.411,18.772 188.176,18.975 188.176,19.209 C188.176,19.381 188.301,19.506 188.489,19.506 C188.692,19.506 188.926,19.319 188.926,19.084 z M187.77,22.006 L187.332,23.1 C187.286,23.225 187.254,23.319 187.254,23.459 C187.254,23.85 187.551,24.131 187.973,24.131 C188.754,24.131 189.083,23.022 189.083,22.912 C189.083,22.834 189.02,22.803 188.958,22.803 C188.864,22.803 188.848,22.865 188.817,22.944 C188.645,23.584 188.317,23.912 187.989,23.912 C187.895,23.912 187.801,23.865 187.801,23.662 C187.801,23.459 187.864,23.319 187.957,23.069 C188.036,22.865 188.114,22.647 188.207,22.428 L188.458,21.787 C188.52,21.6 188.629,21.35 188.629,21.209 C188.629,20.819 188.301,20.537 187.895,20.537 C187.129,20.537 186.786,21.647 186.786,21.756 C186.786,21.834 186.848,21.865 186.911,21.865 C187.02,21.865 187.02,21.819 187.051,21.74 C187.27,20.975 187.629,20.756 187.879,20.756 C187.989,20.756 188.067,20.803 188.067,21.022 C188.067,21.1 188.051,21.209 187.973,21.459 z M187.77,22.006" fill="#000000"/>
    <path d="M194.997,22.24 C195.137,22.24 195.309,22.24 195.309,22.069 C195.309,21.881 195.137,21.881 194.997,21.881 L190.434,21.881 C190.309,21.881 190.137,21.881 190.137,22.069 C190.137,22.24 190.309,22.24 190.434,22.24 z M194.997,22.24" fill="#000000"/>
    <path d="M198.52,18.975 C198.52,18.756 198.505,18.756 198.286,18.756 C197.958,19.069 197.536,19.256 196.786,19.256 L196.786,19.522 C197.005,19.522 197.426,19.522 197.895,19.319 L197.895,23.397 C197.895,23.694 197.864,23.787 197.114,23.787 L196.833,23.787 L196.833,24.053 C197.161,24.022 197.848,24.022 198.208,24.022 C198.567,24.022 199.255,24.022 199.583,24.053 L199.583,23.787 L199.301,23.787 C198.551,23.787 198.52,23.694 198.52,23.397 z M198.52,18.975" fill="#000000"/>
    <path d="M202.628,14.604 C202.628,14.433 202.628,14.245 202.41,14.245 C202.191,14.245 202.191,14.479 202.191,14.636 L202.191,24.745 C202.191,24.917 202.191,25.136 202.41,25.136 C202.628,25.136 202.628,24.948 202.628,24.776 z M204.753,14.636 C204.753,14.464 204.753,14.245 204.535,14.245 C204.316,14.245 204.316,14.433 204.316,14.604 L204.316,24.776 C204.316,24.948 204.316,25.136 204.535,25.136 C204.753,25.136 204.753,24.901 204.753,24.745 z M204.753,14.636" fill="#000000"/>
    <path d="M166.949,43.286 L168.105,42.161 C169.808,40.661 170.449,40.067 170.449,38.989 C170.449,37.739 169.48,36.864 168.136,36.864 C166.918,36.864 166.105,37.864 166.105,38.833 C166.105,39.458 166.652,39.458 166.683,39.458 C166.871,39.458 167.246,39.317 167.246,38.88 C167.246,38.583 167.058,38.302 166.668,38.302 C166.589,38.302 166.558,38.302 166.527,38.317 C166.777,37.614 167.371,37.208 167.996,37.208 C168.996,37.208 169.464,38.083 169.464,38.989 C169.464,39.849 168.918,40.724 168.324,41.396 L166.23,43.724 C166.105,43.849 166.105,43.864 166.105,44.13 L170.152,44.13 L170.449,42.239 L170.183,42.239 C170.121,42.552 170.058,43.036 169.949,43.208 C169.871,43.286 169.152,43.286 168.902,43.286 z M166.949,43.286" fill="#000000"/>
    <path d="M175.58,39.802 L176.549,39.802 C176.768,39.802 176.783,39.802 176.846,39.739 C176.908,39.708 176.94,39.552 176.94,39.489 C176.94,39.286 176.752,39.286 176.58,39.286 L175.705,39.286 L176.065,37.88 C176.096,37.708 176.096,37.646 176.096,37.599 C176.096,37.255 175.815,37.114 175.596,37.114 C175.424,37.114 175.127,37.192 174.955,37.505 C174.908,37.583 174.783,38.083 174.705,38.396 L174.486,39.286 L173.502,39.286 C173.283,39.286 173.096,39.286 173.096,39.599 C173.096,39.802 173.283,39.802 173.471,39.802 L174.361,39.802 L173.736,42.286 C173.658,42.567 173.549,43.036 173.549,43.146 C173.549,43.864 174.252,44.224 174.924,44.224 C176.221,44.224 176.971,42.708 176.971,42.521 C176.971,42.364 176.799,42.364 176.705,42.364 C176.518,42.364 176.502,42.38 176.424,42.536 C176.018,43.474 175.408,43.817 174.986,43.817 C174.877,43.817 174.721,43.817 174.721,43.427 C174.721,43.208 174.752,43.099 174.783,42.958 z M175.58,39.802" fill="#000000"/>
    <path d="M179.736,40.797 C179.736,40.625 179.611,40.485 179.424,40.485 C179.221,40.485 178.986,40.688 178.986,40.922 C178.986,41.094 179.111,41.219 179.299,41.219 C179.502,41.219 179.736,41.032 179.736,40.797 z M178.58,43.719 L178.142,44.813 C178.096,44.938 178.064,45.032 178.064,45.172 C178.064,45.563 178.361,45.844 178.783,45.844 C179.564,45.844 179.892,44.735 179.892,44.625 C179.892,44.547 179.83,44.516 179.767,44.516 C179.674,44.516 179.658,44.578 179.627,44.657 C179.455,45.297 179.127,45.625 178.799,45.625 C178.705,45.625 178.611,45.578 178.611,45.375 C178.611,45.172 178.674,45.032 178.767,44.782 C178.846,44.578 178.924,44.36 179.017,44.141 L179.267,43.5 C179.33,43.313 179.439,43.063 179.439,42.922 C179.439,42.532 179.111,42.25 178.705,42.25 C177.939,42.25 177.596,43.36 177.596,43.469 C177.596,43.547 177.658,43.578 177.721,43.578 C177.83,43.578 177.83,43.532 177.861,43.453 C178.08,42.688 178.439,42.469 178.689,42.469 C178.799,42.469 178.877,42.516 178.877,42.735 C178.877,42.813 178.861,42.922 178.783,43.172 z M178.58,43.719" fill="#000000"/>
    <path d="M187.416,41.099 L185.229,38.927 C185.104,38.802 185.072,38.771 184.994,38.771 C184.885,38.771 184.776,38.88 184.776,38.989 C184.776,39.067 184.791,39.099 184.916,39.208 L187.088,41.411 L184.916,43.599 C184.791,43.708 184.776,43.739 184.776,43.817 C184.776,43.927 184.885,44.036 184.994,44.036 C185.072,44.036 185.104,44.005 185.229,43.88 L187.401,41.708 L189.651,43.974 C189.682,43.974 189.76,44.036 189.822,44.036 C189.947,44.036 190.041,43.927 190.041,43.817 C190.041,43.786 190.041,43.755 190.01,43.692 C189.994,43.677 188.26,41.958 187.713,41.411 L189.713,39.411 C189.76,39.349 189.932,39.208 189.979,39.13 C189.994,39.114 190.041,39.067 190.041,38.989 C190.041,38.88 189.947,38.771 189.822,38.771 C189.729,38.771 189.682,38.817 189.572,38.942 z M187.416,41.099" fill="#000000"/>
    <path d="M200.216,40.677 C200.294,40.364 200.419,39.849 200.419,39.771 C200.419,39.536 200.247,39.286 199.903,39.286 C199.732,39.286 199.325,39.38 199.185,39.864 C199.153,40.021 198.653,41.989 198.575,42.349 C198.497,42.599 198.435,42.927 198.403,43.114 C198.216,43.38 197.778,43.817 197.232,43.817 C196.591,43.817 196.575,43.286 196.575,43.036 C196.575,42.364 196.903,41.505 197.216,40.724 C197.325,40.442 197.357,40.364 197.357,40.177 C197.357,39.552 196.732,39.208 196.122,39.208 C194.966,39.208 194.419,40.677 194.419,40.896 C194.419,41.052 194.591,41.052 194.685,41.052 C194.81,41.052 194.888,41.052 194.935,40.911 C195.294,39.708 195.888,39.599 196.06,39.599 C196.138,39.599 196.247,39.599 196.247,39.817 C196.247,40.067 196.122,40.38 196.075,40.505 C195.606,41.661 195.403,42.271 195.403,42.802 C195.403,44.036 196.497,44.224 197.138,44.224 C197.45,44.224 197.935,44.177 198.528,43.614 C198.872,44.146 199.513,44.224 199.763,44.224 C200.169,44.224 200.482,43.989 200.716,43.599 C200.997,43.161 201.138,42.567 201.138,42.521 C201.138,42.364 200.966,42.364 200.872,42.364 C200.747,42.364 200.7,42.364 200.653,42.411 C200.622,42.442 200.622,42.458 200.56,42.739 C200.341,43.583 200.107,43.817 199.825,43.817 C199.653,43.817 199.575,43.708 199.575,43.427 C199.575,43.239 199.622,43.067 199.732,42.63 C199.794,42.317 199.903,41.88 199.966,41.646 z M200.216,40.677" fill="#000000"/>
    <path d="M203.879,40.797 C203.879,40.625 203.754,40.485 203.567,40.485 C203.364,40.485 203.129,40.688 203.129,40.922 C203.129,41.094 203.254,41.219 203.442,41.219 C203.645,41.219 203.879,41.032 203.879,40.797 z M202.723,43.719 L202.286,44.813 C202.239,44.938 202.207,45.032 202.207,45.172 C202.207,45.563 202.504,45.844 202.926,45.844 C203.707,45.844 204.036,44.735 204.036,44.625 C204.036,44.547 203.973,44.516 203.911,44.516 C203.817,44.516 203.801,44.578 203.77,44.657 C203.598,45.297 203.27,45.625 202.942,45.625 C202.848,45.625 202.754,45.578 202.754,45.375 C202.754,45.172 202.817,45.032 202.911,44.782 C202.989,44.578 203.067,44.36 203.161,44.141 L203.411,43.5 C203.473,43.313 203.582,43.063 203.582,42.922 C203.582,42.532 203.254,42.25 202.848,42.25 C202.082,42.25 201.739,43.36 201.739,43.469 C201.739,43.547 201.801,43.578 201.864,43.578 C201.973,43.578 201.973,43.532 202.004,43.453 C202.223,42.688 202.582,42.469 202.832,42.469 C202.942,42.469 203.02,42.516 203.02,42.735 C203.02,42.813 203.004,42.922 202.926,43.172 z M202.723,43.719" fill="#000000"/>
    <path d="M165.558,48.782 L204.886,48.782" fill-opacity="0" stroke="#000000" stroke-width="0.436" stroke-miterlimit="10"/>
    <path d="M176.932,51.18 C176.932,51.009 176.932,50.821 176.713,50.821 C176.495,50.821 176.495,51.055 176.495,51.212 L176.495,61.321 C176.495,61.493 176.495,61.712 176.713,61.712 C176.932,61.712 176.932,61.524 176.932,61.352 z M179.057,51.212 C179.057,51.04 179.057,50.821 178.838,50.821 C178.62,50.821 178.62,51.009 178.62,51.18 L178.62,61.352 C178.62,61.524 178.62,61.712 178.838,61.712 C179.057,61.712 179.057,61.477 179.057,61.321 z M179.057,51.212" fill="#000000"/>
    <path d="M182.933,56.618 C183.667,56.618 184.371,56.555 184.824,56.399 C185.761,56.087 185.917,55.462 185.917,55.118 C185.917,54.477 185.308,54.071 184.417,54.071 C182.449,54.071 181.042,55.43 181.042,57.118 C181.042,58.368 181.886,59.087 183.324,59.087 C183.605,59.087 184.355,59.071 185.011,58.821 C185.652,58.571 186.089,58.118 186.089,57.993 C186.089,57.899 185.917,57.712 185.808,57.712 C185.746,57.712 185.73,57.743 185.652,57.821 C185.058,58.446 184.214,58.68 183.355,58.68 C182.574,58.68 182.292,58.259 182.292,57.634 C182.292,57.415 182.339,57.055 182.449,56.618 z M182.558,56.227 C182.746,55.43 183.011,55.134 183.199,54.962 C183.574,54.571 184.074,54.462 184.417,54.462 C184.808,54.462 185.261,54.634 185.261,55.118 C185.261,56.227 183.605,56.227 182.558,56.227 z M182.558,56.227" fill="#000000"/>
    <path d="M188.926,55.66 C188.926,55.488 188.801,55.348 188.614,55.348 C188.411,55.348 188.176,55.551 188.176,55.785 C188.176,55.957 188.301,56.082 188.489,56.082 C188.692,56.082 188.926,55.895 188.926,55.66 z M187.77,58.582 L187.332,59.676 C187.286,59.801 187.254,59.895 187.254,60.035 C187.254,60.426 187.551,60.707 187.973,60.707 C188.754,60.707 189.083,59.598 189.083,59.488 C189.083,59.41 189.02,59.379 188.958,59.379 C188.864,59.379 188.848,59.441 188.817,59.52 C188.645,60.16 188.317,60.488 187.989,60.488 C187.895,60.488 187.801,60.441 187.801,60.238 C187.801,60.035 187.864,59.895 187.957,59.645 C188.036,59.441 188.114,59.223 188.207,59.004 L188.458,58.363 C188.52,58.176 188.629,57.926 188.629,57.785 C188.629,57.395 188.301,57.113 187.895,57.113 C187.129,57.113 186.786,58.223 186.786,58.332 C186.786,58.41 186.848,58.441 186.911,58.441 C187.02,58.441 187.02,58.395 187.051,58.316 C187.27,57.551 187.629,57.332 187.879,57.332 C187.989,57.332 188.067,57.379 188.067,57.598 C188.067,57.676 188.051,57.785 187.973,58.035 z M187.77,58.582" fill="#000000"/>
    <path d="M191.807,51.18 C191.807,51.009 191.807,50.821 191.588,50.821 C191.37,50.821 191.37,51.055 191.37,51.212 L191.37,61.321 C191.37,61.493 191.37,61.712 191.588,61.712 C191.807,61.712 191.807,61.524 191.807,61.352 z M193.932,51.212 C193.932,51.04 193.932,50.821 193.713,50.821 C193.495,50.821 193.495,51.009 193.495,51.18 L193.495,61.352 C193.495,61.524 193.495,61.712 193.713,61.712 C193.932,61.712 193.932,61.477 193.932,61.321 z M193.932,51.212" fill="#000000"/>
    <g>
      <path d="M372.638,35.302 L372.638,34.849 C372.185,34.521 371.842,34.083 371.638,33.49 C371.435,32.911 371.342,32.099 371.342,31.052 C371.342,30.005 371.435,29.193 371.638,28.599 C371.842,28.021 372.185,27.583 372.638,27.255 L372.638,26.802 C371.17,27.458 370.42,28.896 370.42,31.052 C370.42,33.193 371.17,34.63 372.638,35.302 z M372.638,35.302" fill="#000000"/>
      <path d="M374.208,27.38 L374.208,28.568 L374.708,28.568 C374.786,27.818 375.239,27.411 376.052,27.411 C376.864,27.411 377.317,27.849 377.317,28.646 C377.317,29.521 376.802,29.958 375.724,29.958 L375.505,29.958 L375.505,30.427 L375.927,30.427 C377.005,30.427 377.552,30.974 377.552,32.036 C377.552,32.958 376.989,33.536 376.067,33.536 C375.114,33.536 374.583,33.083 374.521,32.208 L374.005,32.208 L374.005,33.521 C374.677,33.833 375.333,33.974 376.052,33.974 C377.646,33.974 378.505,33.286 378.505,32.021 C378.505,30.99 377.864,30.318 376.755,30.161 C377.692,29.974 378.224,29.396 378.224,28.583 C378.224,27.583 377.458,26.974 376.13,26.974 C375.567,26.974 374.911,27.115 374.208,27.38 z M374.208,27.38" fill="#000000"/>
      <path d="M380.074,33.38 C380.074,33.724 380.324,33.974 380.668,33.974 C381.012,33.974 381.277,33.708 381.277,33.38 C381.277,33.036 381.012,32.771 380.668,32.771 C380.324,32.771 380.074,33.036 380.074,33.38 z M380.074,33.38" fill="#000000"/>
      <path d="M387.367,27.552 L387.367,27.099 L382.929,27.099 L382.929,28.677 L383.461,28.677 L383.461,27.833 L386.57,27.833 L384.054,33.849 L384.726,33.849 z M387.367,27.552" fill="#000000"/>
      <path d="M388.952,27.38 L388.952,28.568 L389.452,28.568 C389.53,27.818 389.983,27.411 390.796,27.411 C391.608,27.411 392.061,27.849 392.061,28.646 C392.061,29.521 391.546,29.958 390.467,29.958 L390.249,29.958 L390.249,30.427 L390.671,30.427 C391.749,30.427 392.296,30.974 392.296,32.036 C392.296,32.958 391.733,33.536 390.811,33.536 C389.858,33.536 389.327,33.083 389.264,32.208 L388.749,32.208 L388.749,33.521 C389.421,33.833 390.077,33.974 390.796,33.974 C392.389,33.974 393.249,33.286 393.249,32.021 C393.249,30.99 392.608,30.318 391.499,30.161 C392.436,29.974 392.967,29.396 392.967,28.583 C392.967,27.583 392.202,26.974 390.874,26.974 C390.311,26.974 389.655,27.115 388.952,27.38 z M388.952,27.38" fill="#000000"/>
      <path d="M394.599,35.302 C396.068,34.63 396.818,33.193 396.818,31.052 C396.818,28.896 396.068,27.458 394.599,26.802 L394.599,27.255 C395.068,27.583 395.396,28.021 395.599,28.599 C395.802,29.193 395.912,30.005 395.912,31.052 C395.912,32.099 395.802,32.911 395.599,33.49 C395.396,34.083 395.068,34.521 394.599,34.849 z M394.599,35.302" fill="#000000"/>
    </g>
  </g>
</svg>
